<?xml version="1.0" standalone="no"?>
<!DOCTYPE svg PUBLIC "-//W3C//DTD SVG 1.1//EN" "http://www.w3.org/Graphics/SVG/1.1/DTD/svg11.dtd" >
<svg xmlns="http://www.w3.org/2000/svg" xmlns:xlink="http://www.w3.org/1999/xlink" version="1.1">
<metadata>
Created by FontForge 20201107 at Thu Jul 22 19:12:06 2021
 By 
Copyright 2018 The Crimson Pro Project Authors (https://github.com/Fonthausen/CrimsonPro)
</metadata>
<defs>
<font id="CrimsonPro-Regular" horiz-adv-x="0" >
  <font-face 
    font-family="Crimson Pro"
    font-weight="400"
    font-stretch="normal"
    units-per-em="1024"
    panose-1="0 0 0 0 0 0 0 0 0 0"
    ascent="819"
    descent="-205"
    x-height="430"
    cap-height="587"
    bbox="-110 -286 1181 984"
    underline-thickness="50"
    underline-position="-125"
    unicode-range="U+000D-FB02"
  />
<missing-glyph horiz-adv-x="512" 
d="M51 -220v888h410v-888h-410zM102 -169h308v786h-308v-786z" />
    <glyph glyph-name="f_i" unicode="fi" horiz-adv-x="547" 
d="M33 0l-2 36l62 15q1 11 1.5 28t0.5 46v74v267q0 77 31.5 128.5t84 77.5t114.5 26q65 0 104 -25.5t39 -58.5q0 -19 -11 -30t-31 -11q-16 0 -29.5 6.5t-31.5 25.5l-66 66l56 -17q-47 9 -89 -7.5t-68 -56.5t-26 -105v-57v-222q0 -31 0.5 -59t1.5 -51.5t2 -44.5l67 -15
l-3 -36h-207zM305 0l-2 37l67 14q1 9 2 21.5t1.5 32.5t0.5 53v88q0 53 -2 83.5t-4 48.5h-345v33l72 18l52 -1h229q19 0 39.5 1t39.5 2q-1 -32 -2 -63t-1 -77v-126q0 -30 0.5 -53t2 -38t2.5 -23l67 -14l-3 -37h-216z" />
    <glyph glyph-name="f_l" unicode="fl" horiz-adv-x="556" 
d="M256 0h-221l-3 36l62 15q1 10 1.5 21.5t0.5 28v40v57.5l-1 180v114q0 64 20 110t56 71t84 25q41 0 68 -18t27 -44q0 -14 -9.5 -22.5t-23.5 -8.5q-25 0 -47 22l-46 44l24 -6q-37 0 -57 -38t-20 -107v-92l1 -50l1 -172q0 -43 1 -87t2 -68l82 -13zM23 378v33l72 17h74h113
v-50h-259zM315 0l-2 37l65 14q2 10 3 33t1.5 61t0.5 93v125q0 38 -0.5 78t-1 75.5t-1 61t-1.5 33.5l-74 10l-2 32l143 41l19 -14l-2 -84t-1.5 -93t-0.5 -123l-1 -161q0 -59 1.5 -106.5t3.5 -61.5l65 -14l-2 -37h-213z" />
    <glyph glyph-name=".notdef" horiz-adv-x="512" 
d="M51 -220v888h410v-888h-410zM102 -169h308v786h-308v-786z" />
    <glyph glyph-name=".null" 
 />
    <glyph glyph-name="nonmarkingreturn" horiz-adv-x="341" 
 />
    <glyph glyph-name="NULL" 
 />
    <glyph glyph-name="NULL" 
 />
    <glyph glyph-name="CR" unicode="&#xd;" horiz-adv-x="192" 
 />
    <glyph glyph-name="space" unicode=" " horiz-adv-x="192" 
 />
    <glyph glyph-name="exclam" unicode="!" horiz-adv-x="266" 
d="M114 182l-33 442q-1 25 5.5 41t19 24.5t27.5 8.5q16 0 28 -8.5t19 -24.5t5 -41l-33 -442h-38zM133 -10q-18 0 -32.5 8t-22.5 22t-8 31q0 18 8 31.5t22.5 21.5t32.5 8t32 -8t22.5 -21.5t8.5 -31.5q0 -26 -18 -43.5t-45 -17.5z" />
    <glyph glyph-name="quotedbl" unicode="&#x22;" horiz-adv-x="419" 
d="M117 698q25 0 41.5 -18t16.5 -57q0 -15 -4.5 -39.5t-11 -52t-13.5 -54t-12 -47.5h-34q-5 21 -12 47.5t-13.5 54t-11 52t-4.5 39.5q0 39 16.5 57t41.5 18zM302 698q25 0 41.5 -18t16.5 -57q0 -15 -4.5 -39.5t-11 -52t-13.5 -54t-12 -47.5h-34q-5 21 -12 47.5t-13.5 54
t-11 52t-4.5 39.5q0 39 16.5 57t41.5 18z" />
    <glyph glyph-name="numbersign" unicode="#" horiz-adv-x="527" 
d="M265 0l123 587h51l-124 -587h-50zM32 171v49h445v-49h-445zM88 0l124 587h50l-123 -587h-51zM50 367v49h445v-49h-445z" />
    <glyph glyph-name="dollar" unicode="$" horiz-adv-x="479" 
d="M229 -116v819h46v-819h-46zM226 -9q-44 0 -91 11t-76 28l-5 129l43 5l28 -91q24 -16 53 -24.5t61 -8.5q51 0 81.5 23.5t30.5 66.5q0 36 -21.5 59t-55 40.5t-71 34t-71 38t-55 53t-21.5 78.5q0 49 27 85.5t75 57.5t110 21q27 0 51 -2.5t45.5 -7.5t38.5 -13l8 -125l-43 -3
l-28 84q-16 11 -36 16t-46 5q-51 0 -82 -25t-31 -67q0 -36 21.5 -60.5t55 -42.5t71.5 -34.5t71.5 -37.5t55 -51.5t21.5 -75.5q0 -48 -27.5 -85.5t-76 -59t-111.5 -21.5z" />
    <glyph glyph-name="percent" unicode="%" horiz-adv-x="756" 
d="M165 -13l-44 39l469 575l45 -39zM196 286q-46 0 -82.5 20t-57.5 55t-21 80q0 43 22 78t59 55.5t80 20.5q45 0 81 -19.5t57 -54t21 -80.5q0 -44 -22 -79t-58 -55.5t-79 -20.5zM196 345q38 0 65 27t27 70t-27 69t-65 26q-40 0 -65.5 -26.5t-25.5 -68.5q0 -43 25.5 -70
t65.5 -27zM561 -7q-46 0 -82 19.5t-57 54.5t-21 80q0 43 22 78t58.5 55.5t79.5 20.5q46 0 82 -19.5t57 -54t21 -80.5q0 -44 -22 -79t-58 -55t-80 -20zM561 52q39 0 66 26.5t27 69.5t-27 69.5t-66 26.5t-64 -27t-25 -69q0 -43 25 -69.5t64 -26.5z" />
    <glyph glyph-name="ampersand" unicode="&#x26;" horiz-adv-x="713" 
d="M250 -8q-73 0 -120 21.5t-70 57t-23 76.5q0 33 16.5 68t58 70.5t116.5 68.5q59 30 94 59t50.5 59t15.5 64q0 44 -21.5 66t-50.5 22q-37 0 -62.5 -28t-25.5 -82q0 -32 8 -62t23 -60.5t37.5 -64.5t51.5 -75q50 -69 94 -113.5t86 -66t84 -21.5q27 0 48.5 7.5t45.5 23.5
l18 -25q-25 -31 -61 -48t-82 -17q-54 0 -102 22t-95 68t-99 117q-45 63 -75.5 111t-46 91.5t-15.5 91.5q0 49 21.5 88.5t60.5 63t89 23.5q62 0 102 -33.5t40 -92.5q0 -40 -20 -76t-67 -72t-128 -77q-67 -35 -92 -70.5t-25 -79.5q0 -35 18 -61.5t51.5 -41t77.5 -14.5
q54 0 98 21.5t81 72.5t68 137l-70 11l2 38l209 1l2 -38l-70 -12q-49 -95 -100 -159.5t-111 -97t-135 -32.5z" />
    <glyph glyph-name="quotesingle" unicode="'" horiz-adv-x="234" 
d="M117 698q25 0 41.5 -18t16.5 -57q0 -15 -4.5 -39.5t-11 -52t-13.5 -54t-12 -47.5h-34q-5 21 -12 47.5t-13.5 54t-11 52t-4.5 39.5q0 39 16.5 57t41.5 18z" />
    <glyph glyph-name="parenleft" unicode="(" horiz-adv-x="360" 
d="M331 729l29 -26q-83 -83 -126 -199.5t-43 -253.5t43 -253.5t126 -199.5l-29 -26q-115 95 -173 216t-58 263t58 264t173 215z" />
    <glyph glyph-name="parenright" unicode=")" horiz-adv-x="360" 
d="M29 729q116 -93 173.5 -215t57.5 -264t-57.5 -263t-173.5 -216l-29 26q83 83 126 199.5t43 253.5t-43 253.5t-126 199.5z" />
    <glyph glyph-name="asterisk" unicode="*" horiz-adv-x="440" 
d="M395 567q5 -15 -3 -28t-29 -20q-23 -9 -55 -11t-60 -6q21 -20 47 -41t41 -43q13 -18 11.5 -33t-15.5 -25q-12 -10 -27 -6.5t-28 20.5q-17 23 -30 57t-27 59q-13 -25 -26.5 -59t-30.5 -57q-13 -17 -28 -20t-28 6t-14.5 24.5t11.5 33.5q15 22 41 43t46 41q-27 4 -59 6.5
t-55 10.5q-21 6 -29 19.5t-3 28.5t19.5 21.5t34.5 -0.5q25 -8 52.5 -25.5t52.5 -30.5q-4 28 -12.5 61t-8.5 60q0 22 10.5 33.5t26.5 11.5t26 -11.5t10 -33.5q0 -27 -8 -60t-12 -61q25 13 52.5 30.5t52.5 25.5q20 7 35 0.5t19 -21.5z" />
    <glyph glyph-name="plus" unicode="+" horiz-adv-x="540" 
d="M485 284v-61h-429v61h429zM240 471h61v-434h-61v434z" />
    <glyph glyph-name="comma" unicode="," horiz-adv-x="234" 
d="M43 -176l-15 29q40 18 61.5 43.5t21.5 59.5q0 15 -5.5 25t-13.5 17.5l-16 15t-13.5 18t-5.5 26.5q0 21 16.5 37.5t42.5 16.5q18 0 33.5 -10t25 -30t9.5 -51q0 -40 -17.5 -79t-49.5 -70t-74 -48z" />
    <glyph glyph-name="hyphen" unicode="-" horiz-adv-x="373" 
d="M80 172v69l213 29v-69z" />
    <glyph glyph-name="period" unicode="." horiz-adv-x="234" 
d="M117 -10q-27 0 -45 17.5t-18 43.5q0 18 8 31.5t22.5 21.5t32.5 8q27 0 45 -17.5t18 -43.5t-18 -43.5t-45 -17.5z" />
    <glyph glyph-name="slash" unicode="/" horiz-adv-x="366" 
d="M20 -180l301 908h65l-301 -908h-65z" />
    <glyph glyph-name="zero" unicode="0" horiz-adv-x="579" 
d="M295 -9q-71 0 -125.5 37.5t-84.5 105.5t-30 157t31.5 158t86 108t124.5 39q67 0 118.5 -37.5t80.5 -104.5t29 -156q0 -86 -30.5 -156t-82.5 -110.5t-117 -40.5zM300 41q40 0 69 28.5t45.5 80.5t16.5 124q0 127 -39 200.5t-103 73.5t-100.5 -62.5t-36.5 -175.5
q0 -81 18.5 -141.5t52 -94t77.5 -33.5z" />
    <glyph glyph-name="one" unicode="1" horiz-adv-x="340" 
d="M219 197q0 -47 1 -78.5t2.5 -47.5t2.5 -20l80 -14l-3 -37h-244l-2 37l78 14q1 6 2 25.5t2 50.5t1 70v192q0 28 -1.5 56.5t-3.5 51.5l-85 -19l-3 43l177 76l-2.5 -75t-1.5 -116v-209z" />
    <glyph glyph-name="two" unicode="2" horiz-adv-x="488" 
d="M51 -2l-4 35q95 83 151.5 146.5t81.5 117.5t25 106q0 56 -30.5 89.5t-85.5 33.5q-84 0 -134 -80l-28 20q25 61 74.5 95.5t112.5 34.5q54 0 95.5 -22t64.5 -60.5t23 -90.5q0 -82 -67.5 -174t-201.5 -189l3 15h210q11 0 20.5 1t15.5 3l33 83l41 -4l-23 -162q-15 2 -31 2.5
t-33.5 1t-38.5 0.5h-200q-19 0 -37.5 -0.5t-36.5 -1.5z" />
    <glyph glyph-name="three" unicode="3" horiz-adv-x="486" 
d="M250 312l2 13q83 -3 130.5 -42t47.5 -106q0 -50 -31 -92.5t-83.5 -68t-116.5 -25.5q-41 0 -73 9.5t-50 26.5t-18 39q0 16 11 27t27 11q17 0 28.5 -5t30.5 -21l62 -53l-47 14q50 -8 89 5.5t62 44t23 73.5q0 54 -35 85.5t-94 31.5q-14 0 -28.5 -1t-28.5 -3l-5 45
q75 8 113 39t38 81q0 41 -27.5 64t-74.5 23q-34 0 -65.5 -15t-54.5 -46l-28 20q23 51 72 80.5t107 29.5q71 0 114 -36.5t43 -93.5q0 -54 -38.5 -93.5t-101.5 -60.5z" />
    <glyph glyph-name="four" unicode="4" horiz-adv-x="523" 
d="M386 165q0 -59 0.5 -81.5t1.5 -32.5l61 -14l-3 -37h-218l-3 37l81 14q1 10 1 32.5v81.5v334l20 -4l-218 -287v21h366v-64h-428l-7 34l310 392h38q-1 -36 -2 -73t-1 -75z" />
    <glyph glyph-name="five" unicode="5" horiz-adv-x="483" 
d="M187 -9q-40 0 -71.5 9.5t-49.5 26.5t-18 39q0 17 11 27.5t28 10.5q16 0 26.5 -5t29.5 -21l65 -53l-48 14q50 -8 89 4.5t62 41.5t23 68q0 41 -20.5 68t-71.5 44t-143 29l35 293h259l-8 -80h-208l-20 -181l-27 39q154 -17 222.5 -63t68.5 -127q0 -51 -32 -92.5t-85 -66.5
t-117 -25z" />
    <glyph glyph-name="six" unicode="6" horiz-adv-x="520" 
d="M141 244q26 47 67 74.5t87 27.5q48 0 86.5 -21.5t61 -58.5t22.5 -85q0 -52 -26.5 -95t-71 -69t-98.5 -26q-61 0 -107 27.5t-71.5 77.5t-25.5 118q0 74 24.5 139t70.5 117t110.5 87t143.5 48l15 -45q-89 -23 -150 -69t-91.5 -115t-30.5 -161q0 -53 14.5 -93t41 -62
t63.5 -22q44 0 71.5 33.5t27.5 85.5q0 55 -30.5 89t-80.5 34q-24 0 -46 -8.5t-40.5 -24.5t-33.5 -39z" />
    <glyph glyph-name="seven" unicode="7" horiz-adv-x="472" 
d="M224 0h-78v30l248 511v-35h-254q-10 0 -21 -0.5t-16 -2.5l-32 -81l-39 5l24 164q17 -1 32 -2t31.5 -1.5t36.5 -0.5h215q17 0 36.5 0.5t38.5 0.5l4 -35z" />
    <glyph glyph-name="eight" unicode="8" horiz-adv-x="551" 
d="M270 -9q-61 0 -106.5 20t-70.5 55t-25 79q0 59 41 98t111 55l31 -14q-53 -28 -75.5 -61t-22.5 -70q0 -46 33.5 -79t96.5 -33q53 0 83 24.5t30 66.5q0 38 -22 62.5t-57 41.5t-73.5 33t-73.5 37t-57 52.5t-22 80.5q0 45 25 80.5t68.5 56t97.5 20.5q53 0 93 -19t63 -52.5
t23 -75.5q0 -54 -31.5 -93t-86.5 -62l-21 13q31 32 44.5 63t13.5 68q0 51 -28 82t-79 31q-42 0 -70 -24t-28 -66q0 -39 22 -64t57 -43t74 -34t74 -36t57 -49.5t22 -75.5q0 -49 -26.5 -87t-74 -59.5t-110.5 -21.5z" />
    <glyph glyph-name="nine" unicode="9" horiz-adv-x="520" 
d="M380 343q-25 -47 -66.5 -74.5t-88.5 -27.5q-48 0 -86.5 21.5t-61 59t-22.5 84.5q0 50 25.5 93.5t70.5 70t101 26.5q61 0 107 -27.5t71.5 -77.5t25.5 -118q0 -73 -24.5 -138t-70.5 -116.5t-110.5 -86.5t-143.5 -48l-16 45q90 23 150.5 69t91 115t30.5 159q0 54 -14.5 93.5
t-41 61.5t-63.5 22q-43 0 -71 -33t-28 -86q0 -55 31.5 -89t81.5 -34q24 0 46 8.5t40.5 25t33.5 38.5z" />
    <glyph glyph-name="colon" unicode=":" horiz-adv-x="234" 
d="M117 -10q-27 0 -45 17.5t-18 43.5q0 17 8 31t22.5 22t32.5 8q27 0 45 -17.5t18 -43.5t-18 -43.5t-45 -17.5zM117 319q-27 0 -45 17t-18 43q0 18 8 31.5t22.5 21.5t32.5 8q27 0 45 -17.5t18 -43.5t-18 -43t-45 -17z" />
    <glyph glyph-name="semicolon" unicode=";" horiz-adv-x="234" 
d="M43 -176l-15 29q40 18 61.5 43.5t21.5 59.5q0 15 -5.5 25t-13.5 17.5l-16 15t-13.5 18t-5.5 26.5q0 21 16.5 37.5t42.5 16.5q18 0 33.5 -10t25 -30t9.5 -51q0 -40 -18 -79t-50 -70.5t-73 -47.5zM117 319q-27 0 -45 17t-18 43q0 18 8 31.5t22.5 21.5t32.5 8q27 0 45 -17.5
t18 -43.5t-18 -43t-45 -17z" />
    <glyph glyph-name="less" unicode="&#x3c;" horiz-adv-x="540" 
d="M53 220v68l434 191v-71l-404 -176v43l404 -176v-70z" />
    <glyph glyph-name="equal" unicode="=" horiz-adv-x="540" 
d="M487 375v-65h-434v65h434zM487 197v-65h-434v65h434z" />
    <glyph glyph-name="greater" unicode="&#x3e;" horiz-adv-x="540" 
d="M487 220l-434 -191v70l404 176v-43l-404 176v71l434 -191v-68z" />
    <glyph glyph-name="question" unicode="?" horiz-adv-x="358" 
d="M109 182q-16 27 -22.5 48.5t-6.5 44.5q0 31 17 57t42 49.5t49.5 47t41.5 50t17 57.5q0 38 -24.5 61.5t-64.5 23.5q-26 0 -46 -8.5t-42 -8.5q-28 0 -42 14t-14 31q0 20 18.5 34.5t57.5 14.5q50 0 90 -15t69.5 -42.5t45 -65.5t15.5 -85q0 -40 -17 -68.5t-41.5 -50.5
t-49.5 -42t-42 -42.5t-17 -53.5q0 -13 1.5 -26t4.5 -25h-40zM130 -10q-18 0 -32.5 8t-22.5 22t-8 31q0 18 8 31.5t22.5 21.5t32.5 8q27 0 45 -17.5t18 -43.5t-18 -43.5t-45 -17.5z" />
    <glyph glyph-name="at" unicode="@" horiz-adv-x="905" 
d="M464 -227q-90 0 -164 27t-127.5 78t-82.5 123.5t-29 163.5q0 93 31.5 171t90 135.5t139.5 89.5t180 32q75 0 139.5 -20.5t112 -60.5t74.5 -97t27 -131q0 -57 -20.5 -109.5t-55.5 -93.5t-78.5 -65t-88.5 -24q-20 0 -30 9t-15 26l-10 39h15q-34 -37 -64.5 -55.5
t-61.5 -18.5q-40 0 -71 16t-48.5 41t-17.5 52q0 34 22 56t71 38l153 51v51q0 25 -15 45.5t-40 32.5t-56 12q-25 0 -34 -10.5t-11 -41.5l-2 -42q-8 -1 -15.5 -2.5t-14.5 -1.5q-25 0 -40.5 11t-15.5 30q0 17 14.5 34t38.5 32.5t52 26.5t54 15q74 0 119 -39t46 -102l-3 -188
q0 -23 2 -40t6 -30q40 0 73 31t53 86.5t20 128.5q0 86 -36 144.5t-99.5 88.5t-148.5 30q-111 0 -191 -47t-123 -130.5t-43 -194.5q0 -112 38.5 -192.5t111 -123t174.5 -42.5q40 0 80.5 7.5t76.5 23.5l14 -37q-22 -12 -52 -20.5t-62 -13.5t-62 -5zM473 51q23 0 43 10.5
t39 32.5v105l-113 -30q-24 -6 -34.5 -19t-10.5 -33q0 -25 23 -45.5t53 -20.5z" />
    <glyph glyph-name="A" unicode="A" horiz-adv-x="582" 
d="M3 0l-2 38l49 14l206 518l58 35l218 -553l50 -14l-3 -38h-202l-2 38l61 14l-59 148l-11 31l-109 272l23 13l-104 -285l-11 -30l-53 -149l61 -14l-2 -38h-168zM143 185v53q19 -1 52 -2t81 -1q47 0 80.5 1t51.5 2v-53q-34 1 -67.5 1.5t-64.5 0.5q-30 0 -62.5 -0.5
t-70.5 -1.5z" />
    <glyph glyph-name="B" unicode="B" horiz-adv-x="560" 
d="M106 52q2 8 4 47.5t2 99.5v188q0 65 -2 105t-4 46l-61 10l2 39h238q98 0 148.5 -36.5t50.5 -104.5q0 -55 -43 -93t-112 -43l-12 7q95 -3 146 -41.5t51 -106.5q0 -78 -67 -123.5t-182 -45.5h-218l-2 38zM196 177q0 -44 1 -79.5t2 -44.5q13 -2 35 -4.5t35 -2.5
q77 0 115.5 28t38.5 85q0 59 -40.5 88.5t-121.5 29.5h-52.5t-25.5 -2v52q19 -1 36 -1.5t37 -0.5q66 0 101.5 29t35.5 82q0 52 -33 79.5t-95 27.5h-67q-1 -7 -1.5 -45t-0.5 -85v-236z" />
    <glyph glyph-name="C" unicode="C" horiz-adv-x="604" 
d="M368 -9q-87 0 -158.5 33.5t-114.5 100t-43 164.5q0 63 22 118.5t64.5 98t103.5 66.5t139 24q41 0 87 -8t82 -23l7 -137l-45 -4l-30 95q-19 13 -50 19.5t-60 6.5q-75 0 -122.5 -32.5t-70 -86.5t-22.5 -119q0 -85 29.5 -144t80 -89t111.5 -30q32 0 58 7t50 21l44 94l46 -5
l-28 -126q-34 -18 -81 -31t-99 -13z" />
    <glyph glyph-name="D" unicode="D" horiz-adv-x="682" 
d="M49 587h242q158 0 246.5 -75.5t88.5 -211.5q0 -88 -41 -155.5t-114 -106t-168 -38.5h-254l-2 38l61 14q2 9 3.5 51t1.5 96v188q0 59 -1.5 100t-3.5 48l-61 14zM200 533q0 -9 -0.5 -24.5t-1 -44t-0.5 -77.5v-188q0 -30 0.5 -56.5t2 -47.5l2.5 -35q32 -4 57.5 -6.5
t49.5 -2.5q106 0 161 56.5t55 163.5q0 65 -16 115.5t-47.5 84.5t-77 51.5t-105.5 17.5q-18 0 -38 -1.5t-42 -5.5z" />
    <glyph glyph-name="E" unicode="E" horiz-adv-x="556" 
d="M486 -5q-29 3 -51.5 4t-42.5 1h-343l-3 38l62 14q2 5 2.5 23t1 49t0.5 75v188q0 45 -0.5 76.5t-1 49.5t-2.5 22l-62 14l3 38h321q14 0 29.5 0.5t33.5 1.5t37 2l20 -132l-45 -7l-33 84q-8 2 -18 2.5t-21 0.5h-113q-19 0 -33.5 -0.5t-28.5 -2.5q0 -4 -0.5 -22.5t-1 -42.5
t-0.5 -48v-270q0 -20 0.5 -40.5t1 -36.5t0.5 -22q14 -1 29.5 -2t34.5 -1h97q22 0 36 0.5t22 1.5t13 2l52 95l45 -9zM375 205l-12 68q-5 2 -17 3t-29 1h-76q-13 0 -28 -1t-32 -2v55q17 -1 32 -1.5t28 -0.5h76q17 0 29 1t17 2l12 69h43v-194h-43z" />
    <glyph glyph-name="F" unicode="F" horiz-adv-x="506" 
d="M54 0l-2 38l57 14q1 4 1.5 20t1 46.5t0.5 75.5l1 211q0 40 -0.5 67.5t-1 43.5t-1.5 19l-62 14l3 38h316q15 0 30.5 0.5t33 1.5t36.5 2l21 -132l-46 -7l-34 84q-7 2 -16.5 2.5t-20.5 0.5h-111q-15 0 -33.5 -0.5t-29.5 -2.5q0 -4 -0.5 -15t-0.5 -28v-37.5v-44.5l1 -218
q0 -47 0.5 -77t1.5 -45t2 -19l81 -12l-2 -40h-226zM372 197l-13 72q-6 2 -18.5 3t-29.5 1h-84q-10 0 -22.5 -0.5t-29.5 -1.5v55q12 -1 25.5 -2t26.5 -1h84q20 0 31.5 1.5t16.5 2.5l13 68h43v-198h-43z" />
    <glyph glyph-name="G" unicode="G" horiz-adv-x="648" 
d="M374 -9q-91 0 -164 33.5t-116 99.5t-43 164q0 63 22.5 118.5t65 98.5t104 67t140.5 24q41 0 88 -8t81 -23l6 -131l-44 -4l-29 89q-19 14 -50.5 20t-59.5 6q-77 0 -126 -32.5t-71.5 -86.5t-22.5 -119q0 -85 30.5 -144t82.5 -89.5t117 -30.5q29 0 63 8.5t61 27.5l-24 -56
v105q0 32 -1 57.5t-3 38.5l-68 11l2 40h195l2 -38l-44 -12v-24v-46q0 -34 1 -58.5t2 -50.5q-39 -25 -93.5 -40t-103.5 -15z" />
    <glyph glyph-name="H" unicode="H" horiz-adv-x="672" 
d="M409 0l-2 38l61 14q2 4 3.5 20.5t2 47.5t0.5 79v188q0 49 -0.5 80.5t-2 48t-3.5 19.5l-61 14l2 38h215l3 -38l-62 -14q-2 -3 -3.5 -19.5t-2 -48t-0.5 -80.5v-188q0 -48 0.5 -79t2 -47.5t3.5 -20.5l62 -14l-3 -38h-215zM49 0l-3 38l62 14q2 5 2.5 23t1 49t0.5 75v188
q0 45 -0.5 76.5t-1 49.5t-2.5 22l-62 14l3 38h213l2 -38l-61 -14q-2 -3 -3.5 -19.5t-2 -48t-0.5 -80.5v-188q0 -48 0.5 -79t2 -47.5t3.5 -20.5l61 -14l-2 -38h-213zM185 272v59q20 -1 58.5 -2t93.5 -1q54 0 92 1t56 2v-59q-22 2 -57 3t-91 1q-58 0 -94 -1t-58 -3z" />
    <glyph glyph-name="I" unicode="I" horiz-adv-x="310" 
d="M49 0l-2 38l61 14q2 5 2.5 23t1 49t0.5 75v188q0 45 -0.5 76.5t-1 49.5t-2.5 22l-61 14l2 38h213l2 -38l-61 -14q-2 -3 -3.5 -19.5t-2 -48t-0.5 -80.5v-188q0 -48 0.5 -79t2 -47.5t3.5 -20.5l61 -14l-2 -38h-213z" />
    <glyph glyph-name="J" unicode="J" horiz-adv-x="310" 
d="M203 535q-2 -3 -3.5 -20t-2 -48.5t-0.5 -79.5l1 -371q0 -70 -19.5 -119t-55.5 -74.5t-86 -25.5q-46 0 -80 21.5t-34 49.5q0 17 10.5 27t28.5 10q14 0 26.5 -6t25.5 -20l52 -52l-35 12q29 -5 46.5 7.5t26 43.5t8.5 83v414q0 44 -0.5 75t-1 49.5t-2.5 23.5l-68 14l2 38h220
l2 -38z" />
    <glyph glyph-name="K" unicode="K" horiz-adv-x="588" 
d="M363 0l-2 38l60 10q-7 11 -16.5 23.5t-22.5 26.5l-153 174h-42v37l53 14l206 213l-61 13l2 38h193l2 -40l-58 -10l-241 -228l3 30l191 -213q17 -18 29.5 -32.5t22.5 -25t17 -17.5l50 -12v-39h-233zM51 0l-3 38l61 14q2 7 3 44t1 103v188q0 45 -0.5 76.5t-1 49.5t-2.5 22
l-62 14l3 38h213l2 -38l-61 -14q-2 -3 -3.5 -20t-2 -48.5t-0.5 -79.5v-188q0 -66 1.5 -103t2.5 -44l61 -14l-3 -38h-209z" />
    <glyph glyph-name="L" unicode="L" horiz-adv-x="511" 
d="M467 -5q-14 2 -31.5 3t-34.5 1.5t-31 0.5h-320l-2 38l61 14q1 5 2 23t1.5 49t0.5 75v188v76t-1 49t-3 22l-61 15l2 38h235l3 -40l-83 -13q-2 -3 -3.5 -19.5t-2 -48t-0.5 -79.5v-188q0 -52 1 -90.5t2 -49.5q14 -1 29 -2t34 -1h75q23 0 39 1t32 3l52 98l45 -10z" />
    <glyph glyph-name="M" unicode="M" horiz-adv-x="850" 
d="M56 587h173l210 -479h-18l206 479h162l3 -38l-62 -13q-1 -14 -0.5 -52.5t1.5 -82.5l4 -183q1 -50 2 -83.5t2 -53.5t2 -30l61 -13l-2 -38h-212l-3 38l61 13q1 12 1 28v45t-1 79l-2 355h26l-242 -561h-35l-248 562h26l1 -340q0 -83 0.5 -120.5t1.5 -46.5l68 -14l-3 -38
h-196l-3 38l68 14q1 7 1.5 26t1.5 50.5t1 74.5l3 198q1 44 0.5 80.5t-0.5 53.5l-61 14z" />
    <glyph glyph-name="N" unicode="N" horiz-adv-x="674" 
d="M505 143v224q0 59 -1 94.5t-2 53t-2 20.5l-68 14l3 38h190l3 -38l-62 -14q0 -3 -1.5 -20.5t-2.5 -53t-1 -94.5v-238v-64.5t1 -68.5h-45l-368 495h22v-268q0 -60 1 -96.5t2.5 -53.5t2.5 -21l68 -14l-3 -38h-192l-3 38l61 14q1 4 2.5 21t2.5 53.5t1 96.5v171q0 45 -1 74
t-2 45t-3 22l-61 14l3 38h137l336 -444h-18z" />
    <glyph glyph-name="O" unicode="O" horiz-adv-x="686" 
d="M349 -9q-87 0 -154.5 38t-105.5 106t-38 156t39 156.5t107 108.5t154 40q84 0 148.5 -38t100.5 -105t36 -155q0 -67 -23 -123t-63 -97.5t-91.5 -64t-109.5 -22.5zM358 45q54 0 93.5 28t61.5 79.5t22 121.5q0 81 -24.5 142t-68.5 95.5t-103 34.5q-85 0 -134.5 -63
t-49.5 -173q0 -78 26 -137.5t72 -93.5t105 -34z" />
    <glyph glyph-name="P" unicode="P" horiz-adv-x="514" 
d="M53 0l-3 38l58 14q1 4 2 17.5t1.5 43.5t0.5 81l1 203q0 50 -1 78.5t-1.5 42t-1.5 16.5l-62 15l3 38h213q99 0 154 -43.5t55 -125.5q0 -56 -28.5 -97t-76.5 -63.5t-107 -22.5q-22 0 -41.5 2.5t-36.5 5.5v54q23 -7 40.5 -10t34.5 -3q59 0 92 29.5t33 91.5q0 71 -37 104.5
t-93 33.5h-53q0 -6 -0.5 -28t-1 -52.5t-0.5 -65.5l1 -203q0 -51 1 -80.5t2 -43t1 -17.5l83 -13l-3 -40h-229z" />
    <glyph glyph-name="Q" unicode="Q" horiz-adv-x="686" 
d="M349 -8q-87 0 -154.5 38t-105.5 105.5t-38 155.5t39 156.5t107 108.5t154 40q84 0 148.5 -38t100.5 -105t36 -155q0 -67 -22.5 -122.5t-61 -96t-88.5 -63t-105 -22.5zM600 -135q-31 0 -58.5 5.5t-53.5 17t-56 29.5q-16 9 -36 22.5t-41.5 27t-41.5 24.5t-36 15h110
q44 -3 77 -13.5t67 -28.5q33 -19 64 -27.5t62 -8.5q15 0 30.5 2.5t31.5 6.5l10 -38q-26 -16 -59.5 -25t-69.5 -9zM358 45q54 0 93.5 28t61.5 79.5t22 121.5q0 81 -24.5 142t-68.5 95.5t-103 34.5q-85 0 -134.5 -63t-49.5 -173q0 -78 26 -137.5t72 -93.5t105 -34z" />
    <glyph glyph-name="R" unicode="R" horiz-adv-x="567" 
d="M52 0l-2 38l61 15q0 7 0.5 21.5t0.5 34.5t0.5 43t0.5 47v188q0 46 -0.5 77.5t-1 49t-2.5 21.5l-62 14l3 38h219q94 0 143.5 -36.5t49.5 -107.5q0 -49 -27 -87.5t-75 -60.5t-111 -22h-64v45h57q62 0 96.5 31t34.5 86q0 53 -30 80.5t-86 27.5h-58q-1 -3 -1.5 -8.5
t-0.5 -19.5v-41v-72v-203q0 -43 0.5 -72t2 -46.5t2.5 -27.5l59 -15l-3 -38h-206zM526 -10q-44 0 -78 16.5t-66 55t-69 104.5l-68 124l75 17l108 -159q28 -41 50.5 -65.5t44.5 -36.5t48 -17l-1 -35q-10 -2 -21.5 -3t-22.5 -1z" />
    <glyph glyph-name="S" unicode="S" horiz-adv-x="479" 
d="M225 -9q-43 0 -90 11t-76 28l-5 129l43 4l28 -89q24 -16 53 -24.5t62 -8.5q50 0 79.5 24t29.5 65q0 35 -21 58.5t-54.5 40.5t-71 34t-71 38.5t-54.5 53t-21 78.5q0 49 27 85.5t75.5 57.5t110.5 21q26 0 50.5 -2.5t45.5 -7.5t38 -13l8 -125l-43 -4l-28 84q-31 20 -82 20
t-81.5 -24.5t-30.5 -65.5q0 -36 21.5 -60t55 -42t71 -35t71 -38t55 -51.5t21.5 -75.5q0 -48 -27.5 -85.5t-76.5 -59t-112 -21.5z" />
    <glyph glyph-name="T" unicode="T" horiz-adv-x="557" 
d="M518 591l22 -162l-44 -5l-42 113q-8 2 -18.5 2.5t-18.5 0.5h-36h-27t-31 -1q0 -8 -0.5 -37.5t-0.5 -68.5v-75v-135q0 -64 1 -110.5t1 -60.5l85 -12l-3 -40h-255l-2 40l84 12q0 14 1 60.5t1 110.5v135v75v68.5t-1 37.5q-13 1 -29.5 1h-27.5h-39q-8 0 -18 -0.5t-18 -2.5
l-41 -114l-45 6l22 162q12 -1 24 -1.5l24 -1t24.5 -1t24.5 -0.5h286q12 0 24 0.5l24 1t24.5 1t24.5 1.5z" />
    <glyph glyph-name="U" unicode="U" horiz-adv-x="664" 
d="M46 587h212l3 -38l-62 -15q0 -4 -1 -18t-1.5 -44t-0.5 -85v-154q1 -63 20.5 -102t54 -56.5t80.5 -17.5q44 0 76.5 18.5t50.5 58.5t18 106v129q0 45 -1 79.5t-2 57t-3 28.5l-70 15l3 38h194l3 -38l-61 -15q0 -3 -1 -19t-1.5 -50.5t-0.5 -95.5v-134q0 -84 -28 -138
t-76.5 -80t-110.5 -26q-109 0 -170.5 60.5t-61.5 169.5v166q0 55 -1 85.5t-1.5 44.5t-1.5 17l-61 15z" />
    <glyph glyph-name="V" unicode="V" horiz-adv-x="585" 
d="M270 -3l-218 538l-51 14l3 38h207l2 -38l-61 -14l172 -436h-20l161 436l-70 14l3 38h184l2 -38l-50 -14l-222 -538h-42z" />
    <glyph glyph-name="W" unicode="W" horiz-adv-x="941" 
d="M487 440l-178 -443h-43l-209 538l-50 14l2 38h195l3 -38l-51 -13l164 -437h-21l159 421zM627 -3l-207 538l-50 14l2 38h203l3 -38l-61 -13l162 -437h-20l158 436l-71 14l3 38h184l3 -38l-51 -14l-215 -538h-43z" />
    <glyph glyph-name="X" unicode="X" horiz-adv-x="582" 
d="M576 0h-216l-2 38l61 15l-142 200l-32 42l-173 240l-51 14l3 38h217l2 -38l-61 -14l120 -168l30 -42l196 -272l51 -15zM422 535l-70 14l2 38h186l2 -38l-51 -14l-159 -210l-55 -72l-142 -200l70 -15l-2 -38h-186l-2 38l51 15l179 242l57 72z" />
    <glyph glyph-name="Y" unicode="Y" horiz-adv-x="541" 
d="M492 535l-205 -317l25 68v-95q0 -37 0.5 -63t1 -41.5t1.5 -23.5t1 -11l70 -13l-2 -39h-228l-3 39l70 13q1 3 1.5 11t1.5 23.5t1.5 41.5t0.5 63v95l20 -68l-198 317l-50 14l2 38h207l3 -38l-61 -14l147 -236h-14l141 236l-70 14l3 38h182l2 -38z" />
    <glyph glyph-name="Z" unicode="Z" horiz-adv-x="533" 
d="M485 -4q-16 1 -32.5 2t-32.5 1.5t-32 0.5h-251q-19 0 -36 -0.5t-35 -1.5v36l328 538l2 -33h-225q-22 0 -37 -1t-28 -3l-14 -101h-42l-2 154q23 -1 44 -1h40h273q19 0 38 0.5t38 1.5v-36l-326 -536v34h233q11 0 20 1l18 2l42 111l41 -5z" />
    <glyph glyph-name="bracketleft" unicode="[" horiz-adv-x="325" 
d="M280 -220h-175v942h175v-47h-95v-848h95v-47z" />
    <glyph glyph-name="backslash" unicode="\" horiz-adv-x="366" 
d="M346 -180h-65l-301 908h65z" />
    <glyph glyph-name="bracketright" unicode="]" horiz-adv-x="324" 
d="M45 -220v47h95v848h-95v47h174v-942h-174z" />
    <glyph glyph-name="asciicircum" unicode="^" horiz-adv-x="540" 
d="M303 560l192 -434h-67l-178 403h41l-178 -403h-67l193 434h64z" />
    <glyph glyph-name="underscore" unicode="_" horiz-adv-x="404" 
d="M19 -58v58h366v-58h-366z" />
    <glyph glyph-name="grave" unicode="`" horiz-adv-x="600" 
d="M279 482l-139 172l82 23l99 -182z" />
    <glyph glyph-name="a" unicode="a" horiz-adv-x="474" 
d="M196 -8q-40 0 -71 16t-48.5 41t-17.5 52q0 34 22 56t72 38l152 51v51q0 25 -15 45.5t-40 32.5t-56 12q-25 0 -34 -10.5t-11 -41.5l-2 -42q-36 -8 -61 2.5t-25 34.5q0 17 14.5 34t38.5 32.5t52 26.5t55 15q74 0 118.5 -39t45.5 -102l-2 -168q0 -19 1.5 -37t4.5 -27l64 -12
v-31l-49 -18q-14 -5 -26 -8.5t-20 -3.5q-31 0 -40 35l-11 39h15q-33 -37 -63.5 -55.5t-62.5 -18.5zM223 51q23 0 43 10.5t39 32.5v105l-112 -30q-24 -6 -34.5 -19t-10.5 -33q0 -25 22.5 -45.5t52.5 -20.5z" />
    <glyph glyph-name="b" unicode="b" horiz-adv-x="526" 
d="M79 27q1 35 1.5 61t0.5 50.5v52.5v172q0 34 -0.5 73.5t-1 76t-1 63.5t-0.5 36l-74 9l-2 32l141 41l19 -14l-2 -84t-2 -97t-2 -136l3 -1q24 34 61.5 55t80.5 21q50 0 92 -24t67.5 -70t25.5 -111q0 -71 -33.5 -125.5t-89.5 -85t-124 -30.5q-43 0 -85 9.5t-75 25.5zM261 43
q59 0 97.5 45t39.5 127q2 80 -37.5 118.5t-95.5 38.5q-30 0 -58.5 -13.5t-49.5 -41.5v-243q20 -14 45.5 -22.5t58.5 -8.5z" />
    <glyph glyph-name="c" unicode="c" horiz-adv-x="425" 
d="M247 -8q-56 0 -103 25.5t-75 74t-28 115.5q0 65 29.5 117.5t81 83t115.5 30.5q44 0 74 -11t45.5 -29t15.5 -38q0 -16 -10 -26.5t-28 -10.5q-16 0 -28 6t-29 24l-51 51l36 -10q-40 9 -77 -7.5t-61 -57t-24 -104.5q0 -80 40.5 -123t101.5 -43q38 0 65.5 14t52.5 45l27 -23
q-28 -52 -71 -77.5t-99 -25.5z" />
    <glyph glyph-name="d" unicode="d" horiz-adv-x="539" 
d="M383 -11l-15 13l1 65l-3 1q-30 -42 -61.5 -59t-66.5 -17q-57 0 -101.5 26.5t-70.5 73.5t-26 108q0 53 18 97t49.5 75.5t71.5 48.5t83 17q28 0 57 -7t49 -22q0 18 -0.5 47t-1 60.5t-1 56t-1.5 33.5l-78 14l-2 33l147 41l18 -14q-2 -62 -3 -120t-1 -121l-1 -230
q0 -51 2.5 -87.5t3.5 -51.5l64 -16v-33zM263 59q29 0 54 12.5t51 44.5v215q-19 34 -48 48t-58 14q-63 0 -98.5 -46.5t-35.5 -120.5q0 -79 39.5 -123t95.5 -44z" />
    <glyph glyph-name="e" unicode="e" horiz-adv-x="450" 
d="M248 -8q-58 0 -104.5 26t-74 74.5t-27.5 114.5q0 71 29 123t76 80.5t101 27.5q78 -1 122 -52t44 -144v-18h-307v44h241l-11 -13v21q0 58 -26 89t-71 31q-28 0 -54 -16.5t-42 -50t-16 -84.5v-12q0 -82 40.5 -128t104.5 -46q35 0 63 14t54 45l25 -23q-28 -52 -71 -77.5
t-96 -25.5z" />
    <glyph glyph-name="f" unicode="f" horiz-adv-x="303" 
d="M256 0h-221l-3 36l62 15q1 10 1.5 21.5t0.5 28v40v57.5l-1 180v114q0 64 20 110t56 71t84 25q41 0 68 -18t27 -44q0 -14 -9.5 -22.5t-23.5 -8.5q-25 0 -47 22l-46 44l24 -6q-37 0 -57 -38t-20 -107v-92l1 -50l1 -172q0 -43 1 -87t2 -68l82 -13zM23 378v33l72 17h74h113
v-50h-259z" />
    <glyph glyph-name="g" unicode="g" horiz-adv-x="495" 
d="M233 -228q-92 0 -146 30t-54 80q0 34 27 63t87 59l38 -8q-33 -19 -51 -44.5t-18 -54.5q0 -40 32.5 -62t88.5 -22q65 0 105 28t40 72q0 34 -24.5 50.5t-80.5 20.5l-107 9l-15 4q-37 0 -62.5 19.5t-25.5 47.5q0 27 26 53t72 46l13 -20q-19 -13 -28 -23.5t-9 -20.5
q0 -14 12.5 -24t35.5 -12l129 -13q69 -7 105 -35t36 -80q0 -46 -30 -83t-81 -58.5t-115 -21.5zM241 124q-53 0 -94.5 19t-64.5 52.5t-23 76.5q0 47 24 84.5t65 59t92 21.5t91.5 -20t63.5 -55.5t23 -80.5q0 -44 -23.5 -80t-63.5 -56.5t-90 -20.5zM246 164q41 0 65 30t24 80
q0 56 -26.5 90t-69.5 34q-41 0 -67 -32t-26 -83q0 -53 27.5 -86t72.5 -33zM478 365l-119 8l-39 40l158 16v-64z" />
    <glyph glyph-name="h" unicode="h" horiz-adv-x="550" 
d="M31 0l-2 36l62 15q2 11 3 33.5t1.5 60.5t0.5 93v125q0 34 -0.5 73t-1 75.5t-1 63.5t-1.5 36l-74 10l-2 32l141 41l19 -14l-2 -62t-1.5 -66.5t-1 -80.5t-0.5 -104l3 -1q35 38 68.5 55t73.5 17q37 0 69.5 -19t53 -57.5t20.5 -98.5v-108q0 -36 2 -64.5t4 -39.5l62 -15
l-2 -36h-201l-3 36l58 15q1 8 2 20t1.5 30.5t0.5 46.5v108q0 43 -14.5 69.5t-37.5 39t-49 12.5q-32 0 -61 -16.5t-49 -45.5v-150q0 -46 1.5 -76t3.5 -38l61 -15l-2 -36h-205z" />
    <glyph glyph-name="i" unicode="i" horiz-adv-x="268" 
d="M27 0l-2 37l67 14q1 4 1.5 14t1.5 32t1 61v66q0 41 -2 75t-5 53l-67 14v33l142 37l15 -14q-3 -31 -4.5 -61t-1.5 -70v-126q0 -46 1.5 -76t3.5 -38l67 -14l-2 -37h-216zM135 549q-25 0 -43.5 17t-18.5 42t18.5 42t43.5 17q26 0 43 -17t17 -42t-17 -42t-43 -17z" />
    <glyph glyph-name="j" unicode="j" horiz-adv-x="253" 
d="M13 -231l-19 34q53 30 77 71t24 109l1 262q0 42 -3 70t-5 38l-67 13v33l142 37l15 -14q-2 -26 -3.5 -55.5t-1.5 -75.5l1 -293q0 -36 -9.5 -69t-29.5 -62t-50 -53.5t-72 -44.5zM135 549q-25 0 -43.5 17t-18.5 42t18.5 42t43.5 17q26 0 43 -17t17 -42t-17 -42t-43 -17z" />
    <glyph glyph-name="k" unicode="k" horiz-adv-x="489" 
d="M36 0l-2 36l57 15q1 10 2 32.5t2 57t1 77.5v145q0 38 -0.5 77.5t-1 75.5t-1.5 61t-1 34l-74 10l-2 32l141 41l20 -14q-1 -34 -2 -66.5t-2 -67t-1 -73v-83.5l-1 -245q0 -26 1 -45.5t2 -31.5t1 -17l62 -15l-2 -36h-199zM484 0h-114q-18 24 -28 36t-21 23l-137 149h-28l1 24
l38 11l139 138l-66 12l2 37h201l2 -37l-66 -12l-179 -161l15 36l141 -152q13 -13 29.5 -30t28.5 -28l45 -9z" />
    <glyph glyph-name="l" unicode="l" horiz-adv-x="269" 
d="M28 0l-2 37l65 14q2 10 3 33t1.5 61t0.5 93v125q0 38 -0.5 78t-1 75.5t-1 61t-1.5 33.5l-74 10l-2 32l143 41l19 -14l-2 -84t-1.5 -93t-0.5 -123l-1 -161q0 -59 1.5 -106.5t3.5 -61.5l65 -14l-2 -37h-213z" />
    <glyph glyph-name="m" unicode="m" horiz-adv-x="823" 
d="M32 0l-2 36l62 15q1 7 1.5 18t1.5 32t1 57l1 78q1 21 -0.5 43t-3.5 41.5t-4 31.5l-64 14v33l134 37l17 -16l-5 -54l3 -1q31 39 64.5 56t68.5 17t68 -19t54.5 -58t21.5 -100l1 -106q0 -36 1.5 -64.5t4.5 -39.5l60 -15l-3 -36h-195l-3 36l55 15q1 8 2 20t1.5 30.5t0.5 46.5
l-1 110q0 43 -13.5 69t-35.5 38t-47 12q-31 0 -58 -15t-48 -47v-150q0 -46 1.5 -74.5t3.5 -39.5l59 -15l-3 -36h-202zM596 0l-3 36l57 15q1 8 1.5 20t1.5 30.5t1 46.5v109q0 44 -15 70t-37.5 38t-45.5 12q-34 0 -63 -17t-52 -52l-19 37q35 48 74.5 70.5t83.5 22.5
q42 0 76 -20t54 -58t20 -92v-113q0 -36 1.5 -64.5t3.5 -39.5l62 -15l-2 -36h-199z" />
    <glyph glyph-name="n" unicode="n" horiz-adv-x="550" 
d="M31 0l-2 36l62 15q1 7 1.5 19t1.5 33t1 55l1 77q0 33 -2.5 65.5t-5.5 51.5l-64 14v33l134 37l17 -16l-5 -53l3 -1q35 38 69 55t74 17q37 0 69.5 -18.5t53 -56.5t20.5 -97v-111q0 -36 1.5 -65t4.5 -39l62 -15l-3 -36h-201l-2 36l58 15q1 8 2 20t1.5 30.5t0.5 46.5v108
q0 45 -15.5 71.5t-38.5 38t-47 11.5q-33 0 -61.5 -16.5t-48.5 -45.5v-150q0 -46 1.5 -74.5t3.5 -39.5l62 -15l-3 -36h-205z" />
    <glyph glyph-name="o" unicode="o" horiz-adv-x="508" 
d="M257 -8q-65 0 -113.5 28t-75.5 78.5t-27 115.5q0 68 30 118t80 78t110 28q62 0 108.5 -27.5t72 -77t25.5 -115.5q0 -63 -28 -114t-75.5 -81.5t-106.5 -30.5zM267 39q34 0 59 20.5t39 57t14 83.5q0 86 -35.5 139.5t-93.5 53.5q-54 0 -86.5 -45t-32.5 -119q0 -56 17.5 -99
t48.5 -67t70 -24z" />
    <glyph glyph-name="p" unicode="p" horiz-adv-x="537" 
d="M29 -220l-2 36l62 15q0 5 0.5 17.5t1.5 32.5t1.5 48t0.5 65l2 247q0 30 -2.5 61t-5.5 50l-64 14v33l134 37l17 -16l-5 -55h3q28 36 61.5 54.5t72.5 18.5q55 0 97.5 -27.5t67 -75t24.5 -109.5q0 -66 -30 -119t-81.5 -83.5t-116.5 -30.5q-24 0 -50 5t-46 12v-75
q0 -38 1.5 -64.5t2.5 -39.5l82 -13l-2 -38h-226zM270 42q40 0 70.5 19t48 56t18.5 90q1 48 -15.5 85t-46 58.5t-67.5 21.5q-31 0 -58 -14.5t-49 -42.5v-242q20 -15 46 -23t53 -8z" />
    <glyph glyph-name="q" unicode="q" horiz-adv-x="524" 
d="M297 -220l-3 36l72 15q1 13 1.5 25.5t1 32t0.5 52.5l-1 124l-3 1q-28 -38 -60 -56t-67 -18q-59 0 -103 26.5t-68.5 73.5t-24.5 108q0 77 33.5 130t86 80.5t107.5 27.5q32 0 61 -7t54 -21l31 30h31q-1 -34 -2 -69t-1 -74.5v-87.5l3 -234q1 -64 2.5 -98t2.5 -46l62 -15
l-3 -36h-213zM262 59q30 0 54 12.5t50 44.5l1 226q-19 27 -47.5 39t-55.5 12q-35 0 -66 -18.5t-50 -55.5t-19 -93q0 -79 37.5 -123t95.5 -44z" />
    <glyph glyph-name="r" unicode="r" horiz-adv-x="364" 
d="M33 0l-3 36l62 15q1 5 2 18t1.5 35t0.5 54l1 78q0 33 -2.5 65t-5.5 51l-64 14v33l134 37l14 -14l-4 -84l3 -1q30 58 61 78.5t58 20.5q23 0 38.5 -11.5t15.5 -34.5q0 -24 -16.5 -36.5t-41.5 -12.5q-18 0 -34.5 8t-31.5 22l18 -6q-19 -12 -36 -33.5t-31 -53.5l1 -93
q1 -25 2 -52t2 -48.5t2 -33.5l87 -13l-2 -38h-231z" />
    <glyph glyph-name="s" unicode="s" horiz-adv-x="402" 
d="M196 -8q-37 0 -74 8.5t-63 22.5l-5 107h49l20 -72q35 -24 80 -24q34 0 55 16.5t21 44.5q0 26 -19 45.5t-74 42.5q-71 31 -100 59.5t-29 73.5q0 36 21.5 63.5t59.5 43t88 15.5q28 0 57 -5t48 -13l11 -104h-47l-24 68q-10 6 -24 9.5t-30 3.5q-35 0 -56 -16.5t-21 -42.5
q0 -30 23 -48.5t81 -45.5q66 -30 92 -59t26 -70q0 -54 -47 -88.5t-119 -34.5z" />
    <glyph glyph-name="t" unicode="t" horiz-adv-x="339" 
d="M345 62q-19 -33 -52 -51.5t-69 -18.5q-61 0 -100 37t-39 111l3 239h-70v21l129 117h19l-2 -115l-1 -246q0 -52 22.5 -77t63.5 -25q23 0 42.5 9t35.5 24zM128 379v50h187v-50h-187z" />
    <glyph glyph-name="u" unicode="u" horiz-adv-x="543" 
d="M455 70l63 -16v-33l-130 -32l-15 13l1 63l-3 1q-29 -41 -59.5 -57.5t-65.5 -16.5q-67 0 -112 41.5t-45 124.5v86q0 28 -1.5 54.5t-3.5 53.5l-68 14v33l136 37l18 -16q-2 -31 -3 -66t-1 -73l-1 -110q0 -62 29 -88.5t74 -26.5q27 0 55 14t49 48v116q0 22 -0.5 43.5t-1.5 41
t-3 33.5l-73 14v33l141 37l15 -14q-1 -28 -1.5 -50t-0.5 -43.5v-48.5v-71q0 -55 2.5 -88.5t4.5 -50.5z" />
    <glyph glyph-name="v" unicode="v" horiz-adv-x="472" 
d="M220 -4l-177 383l-47 15l2 36h195l2 -36l-62 -15l137 -304l-26 -1l126 305l-62 15l2 36h166l2 -36l-47 -15l-181 -383h-30z" />
    <glyph glyph-name="w" unicode="w" horiz-adv-x="753" 
d="M504 -4l-153 383l-51 15l2 36h184l2 -36l-52 -15l116 -304l-25 -1l119 305l-52 15l2 36h155l2 -36l-47 -15l-171 -383h-31zM213 -4l-162 383l-47 15l2 36h185l2 -36l-51 -15l124 -304l-30 -1l132 314l27 -62l-151 -330h-31z" />
    <glyph glyph-name="x" unicode="x" horiz-adv-x="481" 
d="M463 0h-183l-2 36l47 15l-99 133l-26 31l-124 164l-47 15l2 36h179l3 -36l-42 -15l84 -114l26 -32l137 -182l47 -15zM339 379l-42 15l3 36h142l3 -36l-47 -15l-117 -146l-55 -49l-96 -133l47 -15l-2 -36h-148l-2 36l47 15l128 164l55 50z" />
    <glyph glyph-name="y" unicode="y" horiz-adv-x="472" 
d="M219 -4l-176 383l-47 15l3 36h194l2 -36l-62 -15l136 -304zM475 430l3 -36l-47 -15l-170 -357l-80 -166q-22 -46 -46.5 -65t-56.5 -19q-25 0 -40.5 12t-15.5 31q0 15 12 28.5t37 20.5l93 28l-46 -50l111 214l11 18l130 305l-62 15l2 36h165z" />
    <glyph glyph-name="z" unicode="z" horiz-adv-x="434" 
d="M136 17l-2 29h141q14 0 30 1t32 3l25 83h47l-17 -134q-25 1 -48 1h-43h-165q-20 0 -42 -0.5t-42 -1.5v32l255 383l-2 -28h-138q-16 0 -31.5 -1t-29.5 -3l-14 -77h-46l-1 127q25 -1 47.5 -1h41.5h168q21 0 42.5 0.5t43.5 1.5v-32z" />
    <glyph glyph-name="braceleft" unicode="{" horiz-adv-x="369" 
d="M207 -82q0 -43 26 -69t81 -37l-8 -40q-60 9 -100.5 29.5t-60.5 53t-20 75.5q0 37 12.5 75.5t25 75.5t12.5 68q0 26 -11.5 43t-34.5 26.5t-59 10.5v44q36 2 59 11t34.5 26.5t11.5 42.5q0 32 -12.5 68.5t-25 75t-12.5 75.5q0 44 20 76t60.5 52.5t100.5 29.5l8 -40
q-55 -11 -81 -36.5t-26 -69.5q0 -36 10.5 -70t21 -68.5t10.5 -74.5q0 -49 -29.5 -82.5t-91.5 -41.5v14q61 -9 91 -44.5t30 -85.5q0 -40 -10.5 -74.5t-21 -68t-10.5 -70.5z" />
    <glyph glyph-name="bar" unicode="|" horiz-adv-x="274" 
d="M105 -220v942h64v-942h-64z" />
    <glyph glyph-name="braceright" unicode="}" horiz-adv-x="369" 
d="M162 -82q0 37 -10.5 70.5t-21 68t-10.5 74.5q0 50 30 85.5t91 44.5v-14q-62 8 -91.5 41.5t-29.5 82.5q0 40 10.5 74.5t21 68.5t10.5 70q0 44 -25.5 69.5t-81.5 36.5l8 40q61 -9 101 -29.5t60 -52.5t20 -76q0 -37 -12.5 -75.5t-25 -75t-12.5 -68.5q0 -25 11.5 -42.5
t35 -26.5t58.5 -11v-44q-35 -1 -58.5 -10.5t-35 -26.5t-11.5 -43q0 -31 12.5 -68t25 -75.5t12.5 -75.5q0 -43 -20 -75.5t-60 -53t-101 -29.5l-8 40q56 11 81.5 37t25.5 69z" />
    <glyph glyph-name="asciitilde" unicode="~" horiz-adv-x="540" 
d="M457 299l30 -20q-16 -43 -46.5 -67.5t-69.5 -24.5q-29 0 -58.5 11t-58 25t-53.5 25t-45 11q-47 0 -73 -51l-30 20q17 44 47 68t69 24q29 0 58.5 -10.5t58 -25t54 -25t44.5 -10.5q24 0 42 13t31 37z" />
    <glyph glyph-name="uni00A0" unicode="&#xa0;" horiz-adv-x="192" 
 />
    <glyph glyph-name="exclamdown" unicode="&#xa1;" horiz-adv-x="266" 
d="M114 246h38l33 -400q2 -24 -5 -40.5t-19.5 -25t-27.5 -8.5t-27.5 8.5t-19 25t-5.5 40.5zM133 438q27 0 45 -17.5t18 -43.5q0 -17 -8.5 -31t-22.5 -21.5t-32 -7.5t-32.5 7.5t-22.5 21.5t-8 31q0 18 8 31.5t22.5 21.5t32.5 8z" />
    <glyph glyph-name="cent" unicode="&#xa2;" horiz-adv-x="425" 
d="M247 -8q-56 0 -103 25.5t-75 74t-28 115.5q0 66 29.5 118t81 82.5t115.5 30.5q44 0 74 -11t45.5 -28.5t15.5 -37.5q0 -17 -10 -27.5t-29 -10.5q-16 0 -27 6.5t-28 23.5l-53 52l37 -11q-40 9 -77 -7.5t-61 -56.5t-24 -105q0 -81 40.5 -124t101.5 -43q38 0 65.5 14t52.5 46
l27 -23q-28 -52 -71 -77.5t-99 -25.5zM227 -110v650h46v-650h-46z" />
    <glyph glyph-name="sterling" unicode="&#xa3;" horiz-adv-x="490" 
d="M55 -9l-12 43q59 15 83.5 41.5t24.5 77.5q0 37 -10.5 72t-23.5 69.5t-23.5 68t-10.5 67.5q0 49 27 86t75 58.5t109 21.5q63 0 103.5 -22t40.5 -56q0 -18 -10 -29t-29 -11q-16 0 -28.5 6t-27.5 22l-65 65l49 -23q-40 8 -73.5 0.5t-54 -30t-20.5 -60.5q0 -40 12 -83
t24 -86.5t12 -88.5q0 -25 -5.5 -48.5t-18 -44.5t-33.5 -40.5t-52 -36.5l6 11q35 16 57.5 25t42 13t44.5 4q23 0 54 -7.5t53 -7.5q24 0 46 13.5t36 46.5l35 -17q-17 -45 -38 -71t-47 -36.5t-58 -10.5q-19 0 -39 3t-41 7t-43.5 7t-48.5 3q-24 0 -44 -2.5t-38.5 -7.5t-39.5 -12
zM26 279v45h345v-45h-345z" />
    <glyph glyph-name="currency" unicode="&#xa4;" horiz-adv-x="540" 
d="M272 105q-60 0 -110 30t-79.5 81.5t-29.5 113.5q0 63 29.5 114t79.5 81t110 30t109.5 -30t79 -81t29.5 -114q0 -62 -29.5 -113.5t-79 -81.5t-109.5 -30zM57 77l-33 35l101 103l30 -38zM482 77l-95 97l36 33l93 -95zM271 147q37 0 67.5 24t48.5 65t18 92t-18 92.5
t-48.5 65.5t-67.5 24t-67.5 -24t-48.5 -65.5t-18 -92.5t18 -92t48.5 -65t67.5 -24zM119 450l-95 98l33 35l94 -97zM425 455l-34 35l91 93l34 -35z" />
    <glyph glyph-name="yen" unicode="&#xa5;" horiz-adv-x="541" 
d="M79 244v45h379v-45h-379zM79 124v45h379v-45h-379zM492 535l-205 -317l25 68v-95q0 -37 0.5 -63t1 -41.5t1.5 -23.5t1 -11l70 -13l-2 -39h-228l-3 39l70 13q1 3 1.5 11t1.5 23.5t1.5 41.5t0.5 63v95l20 -68l-198 317l-50 14l2 38h207l3 -38l-61 -14l147 -236h-14l141 236
l-70 14l3 38h182l2 -38z" />
    <glyph glyph-name="brokenbar" unicode="&#xa6;" horiz-adv-x="274" 
d="M105 350v372h64v-372h-64zM105 -220v372h64v-372h-64z" />
    <glyph glyph-name="section" unicode="&#xa7;" horiz-adv-x="472" 
d="M248 223l-13 19q41 8 70 32t29 59q0 31 -17.5 51t-45.5 34.5t-59.5 27.5t-59.5 29.5t-45.5 40t-17.5 58.5q0 36 21.5 63.5t60 43t89.5 15.5q25 0 53.5 -3.5t48.5 -11.5l10 -98h-47l-23 64q-9 5 -21 6.5t-23 1.5q-42 0 -64.5 -16.5t-22.5 -42.5q0 -24 17.5 -41.5t45 -31.5
t59 -28t59 -31.5t45 -42t17.5 -58.5q0 -30 -13.5 -55t-37 -43.5t-53.5 -29t-62 -12.5zM208 -8q-28 0 -57 4.5t-49 12.5l-10 100h47l23 -63q11 -6 25.5 -9t31.5 -3q38 0 60 16t22 42q0 24 -17.5 41.5t-45 31.5t-59 28t-59 31.5t-45 42t-17.5 58.5q0 30 13.5 55t37 43.5
t53.5 29.5t62 12l13 -19q-40 -7 -69.5 -31.5t-29.5 -59.5q0 -30 17.5 -50.5t45.5 -35t59.5 -28t59.5 -30t45.5 -39.5t17.5 -58t-21.5 -63t-61 -43.5t-92.5 -15.5z" />
    <glyph glyph-name="dieresis" unicode="&#xa8;" horiz-adv-x="600" 
d="M222 529q-22 0 -37 13.5t-15 35.5q0 21 15 35t37 14q21 0 35 -14t14 -35q0 -22 -14 -35.5t-35 -13.5zM380 529q-22 0 -36.5 13.5t-14.5 35.5q0 21 14.5 35t36.5 14t36 -14t14 -35q0 -22 -14 -35.5t-36 -13.5z" />
    <glyph glyph-name="copyright" unicode="&#xa9;" horiz-adv-x="810" 
d="M406 -5q-75 0 -139.5 27t-113 75t-75.5 112.5t-27 139.5t27 139.5t75 112.5t113 75t140 27t139.5 -27t112.5 -75t75 -112.5t27 -139.5t-27 -139.5t-75 -112.5t-112.5 -75t-139.5 -27zM428 153q-65 0 -116.5 22.5t-81 66t-29.5 105.5q0 47 17 84.5t48.5 65t75.5 42
t98 14.5q29 0 62 -6t56 -16l5 -99l-37 -2l-23 68q-13 7 -32 10.5t-36 3.5q-47 0 -78 -19t-46 -52.5t-15 -78.5q0 -78 42 -122t102 -44q19 0 38.5 5.5t33.5 15.5l28 60l39 -4l-21 -87q-14 -8 -35 -16t-45 -12.5t-50 -4.5zM406 29q67 0 124.5 24.5t101 68t67.5 102t24 126.5
t-24 126t-67.5 101.5t-101 67.5t-124.5 24t-125 -24t-101.5 -67.5t-67.5 -101.5t-24 -126t24 -126.5t67.5 -102t101.5 -68t125 -24.5z" />
    <glyph glyph-name="ordfeminine" unicode="&#xaa;" horiz-adv-x="396" 
d="M160 233q-34 0 -59.5 15t-39.5 37t-14 42q0 27 17 46t58 32l124 38v33q0 28 -25.5 48.5t-58.5 20.5q-19 0 -25 -7t-8 -28l-3 -47q-31 -8 -53.5 2.5t-22.5 35.5q0 15 13 30.5t34 29t44.5 22.5t44.5 12q62 0 100 -31.5t36 -86.5v-121q0 -19 2 -32t4 -21l51 -11v-29l-50 -20
q-10 -4 -19 -7t-17 -3q-13 0 -21 8.5t-13 22.5l-11 35l13 -4q-28 -35 -53.5 -48.5t-47.5 -13.5zM190 295q15 0 29.5 5.5t27.5 19.5v81l-78 -15q-20 -4 -28.5 -13.5t-8.5 -25.5q0 -22 18.5 -37t39.5 -15z" />
    <glyph glyph-name="guillemotleft" unicode="&#xab;" horiz-adv-x="557" 
d="M492 382l-168 -199v75l168 -199l-27 -34l-201 175v41l201 175zM308 382l-168 -199v75l168 -199l-27 -34l-201 175v41l201 175z" />
    <glyph glyph-name="logicalnot" unicode="&#xac;" horiz-adv-x="540" 
d="M487 378v-248h-61v183h-373v65h434z" />
    <glyph glyph-name="uni00AD" unicode="&#xad;" horiz-adv-x="373" 
d="M80 172v69l213 29v-69z" />
    <glyph glyph-name="registered" unicode="&#xae;" horiz-adv-x="810" 
d="M234 191l45 11q0 3 0.5 15.5t1 34.5t0.5 52v104q0 30 -0.5 52t-1.5 34.5t-3 14.5l-45 9l2 34h168q48 0 81 -10.5t50 -32.5t17 -58q0 -32 -20 -57.5t-55.5 -40t-80.5 -14.5h-42v37q9 -1 17 -1h15q36 0 60 18t24 57q0 35 -20.5 50.5t-53.5 15.5h-36v-212q0 -30 0.5 -51.5
t1.5 -34t2 -16.5l44 -11l-2 -32h-167zM560 154q-35 0 -62 12t-47.5 37t-38.5 65l-37 81l66 16l71 -109q26 -33 45 -48.5t44 -20.5l-4 -29q-9 -1 -18.5 -2.5t-18.5 -1.5zM406 -5q-75 0 -139.5 27t-113 75t-75.5 112.5t-27 139.5t27 139.5t75 112.5t113 75t140 27t139.5 -27
t112.5 -75t75 -112.5t27 -139.5t-27 -139.5t-75 -112.5t-112.5 -75t-139.5 -27zM406 29q67 0 124.5 24.5t101 68t67.5 102t24 126.5t-24 126t-67.5 101.5t-101 67.5t-124.5 24t-125 -24t-101.5 -67.5t-67.5 -101.5t-24 -126t24 -126.5t67.5 -102t101.5 -68t125 -24.5z" />
    <glyph glyph-name="macron" unicode="&#xaf;" horiz-adv-x="600" 
d="M157 606h286v-55h-286v55z" />
    <glyph glyph-name="degree" unicode="&#xb0;" horiz-adv-x="361" 
d="M181 308q-41 0 -74.5 18.5t-52.5 51.5t-19 74t19 73.5t52.5 51t74.5 18.5t74 -18.5t52 -51t19 -73.5t-19 -74t-52 -51.5t-74 -18.5zM181 360q38 0 62.5 26t24.5 66t-24.5 65.5t-62.5 25.5t-63 -25.5t-25 -65.5t25 -66t63 -26z" />
    <glyph glyph-name="plusminus" unicode="&#xb1;" horiz-adv-x="540" 
d="M487 323v-61h-434v61h434zM239 471h61v-357h-61v357zM487 64v-64h-434v64h434z" />
    <glyph glyph-name="uni00B2" unicode="&#xb2;" horiz-adv-x="400" 
d="M52 230q68 48 109 87t59.5 73.5t18.5 68.5q0 35 -20.5 53t-61.5 18q-28 0 -52.5 -12.5t-41.5 -37.5l-26 20q21 43 59 68t87 25q61 0 99.5 -32.5t38.5 -86.5t-49 -110t-146 -108l1 8h145q11 0 18.5 1t14.5 2l22 49l37 -4l-20 -116q-9 1 -20 1.5t-22.5 1t-22.5 0.5h-20
h-152q-13 0 -26 -0.5t-26 -1.5z" />
    <glyph glyph-name="uni00B3" unicode="&#xb3;" horiz-adv-x="400" 
d="M210 413q63 -1 99 -27t36 -70q0 -34 -24 -62t-64.5 -44.5t-89.5 -16.5q-47 0 -78 16t-31 41q0 14 9.5 23.5t22.5 9.5q11 0 20 -4t23 -16l47 -39l-26 10q47 -7 79.5 13.5t32.5 57.5q0 33 -26 52t-71 19q-9 0 -18 -0.5t-20 -2.5l-5 38q59 5 86 23.5t27 46.5q0 23 -18 36.5
t-48 13.5t-51.5 -10.5t-36.5 -27.5l-26 20q19 35 57 57.5t87 22.5q53 0 84.5 -24t31.5 -63q0 -36 -31.5 -63.5t-89.5 -41.5z" />
    <glyph glyph-name="acute" unicode="&#xb4;" horiz-adv-x="600" 
d="M320 482l-40 13l99 182l80 -23z" />
    <glyph glyph-name="uni00B5" unicode="&#xb5;" horiz-adv-x="548" 
d="M457 70l64 -16v-33l-130 -32l-15 13l1 63l-3 1q-30 -41 -58.5 -57.5t-60.5 -16.5q-19 0 -42 6.5t-43 24.5t-33 52l15 4q8 -81 19 -141t11 -102q0 -29 -14 -46.5t-37 -17.5q-22 0 -36.5 19t-14.5 56q0 58 3.5 121t7 128.5t3.5 128.5q0 44 -1.5 74t-3.5 53l-68 14v33
l136 37l18 -16q-2 -30 -3 -64.5t-1 -74.5l-1 -105q0 -62 29 -91t73 -29q26 0 54 14t49 48v116q0 23 -1 45t-2 41t-2 32l-68 14v33l136 37l15 -14q-1 -26 -1.5 -57t-0.5 -85v-71q0 -57 2.5 -90.5t3.5 -48.5z" />
    <glyph glyph-name="paragraph" unicode="&#xb6;" horiz-adv-x="534" 
d="M482 0h-281l-2 40l81 13q2 7 3.5 22t2 42.5t0.5 70.5v221q0 27 -0.5 55t-0.5 49.5t-1 29.5h-31q-60 0 -94.5 -33.5t-34.5 -92.5q0 -62 36.5 -97t101.5 -35q31 0 61.5 5.5t63.5 16.5v-53q-17 -5 -39 -9.5t-44.5 -6.5t-44.5 -2q-106 0 -166 46t-60 127q0 55 28.5 94.5
t80.5 61.5t122 22h222l3 -38l-61 -15q-1 -4 -2.5 -24t-2.5 -51.5t-1 -71.5v-188q0 -39 1 -70t2.5 -51t2.5 -26l56 -14zM335 543v-499h39l4 499h-43z" />
    <glyph glyph-name="periodcentered" unicode="&#xb7;" horiz-adv-x="246" 
d="M123 159q-27 0 -45 17.5t-18 43.5q0 18 8 31.5t22.5 21.5t32.5 8t32 -8t22.5 -21.5t8.5 -31.5q0 -26 -18 -43.5t-45 -17.5z" />
    <glyph glyph-name="cedilla" unicode="&#xb8;" horiz-adv-x="600" 
d="M276 -223q-24 0 -47.5 6.5t-43.5 18.5l19 39q17 -10 36.5 -17t40.5 -7t35 10t14 29q0 20 -20.5 31.5t-57.5 6.5l-15 19l58 100h50l-67 -94l7 31q49 0 80.5 -21t31.5 -59q0 -40 -35 -66.5t-86 -26.5z" />
    <glyph glyph-name="uni00B9" unicode="&#xb9;" horiz-adv-x="400" 
d="M248 341q0 -28 1 -49t2 -33t1 -15l69 -10l-2 -35h-217l-3 35l69 10q1 3 2 15t1.5 33t0.5 49v87q0 15 -0.5 31t-1 29.5t-1.5 20.5l-75 -11l-4 37l163 60q-2 -22 -3 -49t-1.5 -53.5t-0.5 -50.5v-101z" />
    <glyph glyph-name="ordmasculine" unicode="&#xba;" horiz-adv-x="420" 
d="M213 233q-53 0 -93.5 22.5t-63.5 63t-23 92.5q0 58 25.5 99t67 63t90.5 22q51 0 89.5 -22.5t60 -62.5t21.5 -93q0 -51 -23 -93t-62.5 -66.5t-88.5 -24.5zM221 278q37 0 58.5 31.5t21.5 85.5q0 71 -26.5 114t-69.5 43q-38 0 -61.5 -32.5t-23.5 -88.5q0 -44 13.5 -79
t36.5 -54.5t51 -19.5z" />
    <glyph glyph-name="guillemotright" unicode="&#xbb;" horiz-adv-x="557" 
d="M249 382l27 34l201 -175v-41l-201 -175l-27 34l168 199v-75zM65 382l27 34l201 -175v-41l-201 -175l-27 34l168 199v-75z" />
    <glyph glyph-name="onequarter" unicode="&#xbc;" horiz-adv-x="901" 
d="M248 341q0 -28 1 -49t2 -33t1 -15l69 -10l-2 -35h-217l-3 35l69 10q1 3 2 15t1.5 33t0.5 49v87q0 15 -0.5 31t-1 29.5t-1.5 20.5l-75 -11l-4 37l163 60q-2 -22 -3 -49t-1.5 -53.5t-0.5 -50.5v-101zM290 -24l298 683l43 -18l-298 -683zM798 45l47 -10l-2 -35h-175l-2 35
l57 10v263l12 -4l-138 -164l4 14h259v-53h-317l-6 29l222 261h42q-1 -24 -2 -51.5t-1 -56.5v-238z" />
    <glyph glyph-name="onehalf" unicode="&#xbd;" horiz-adv-x="901" 
d="M248 341q0 -28 1 -49t2 -33t1 -15l69 -10l-2 -35h-217l-3 35l69 10q1 3 2 15t1.5 33t0.5 49v87q0 15 -0.5 31t-1 29.5t-1.5 20.5l-75 -11l-4 37l163 60q-2 -22 -3 -49t-1.5 -53.5t-0.5 -50.5v-101zM290 -24l298 683l43 -18l-298 -683zM553 31q68 48 109 87t59.5 73.5
t18.5 68.5q0 35 -20.5 53t-61.5 18q-28 0 -52.5 -12.5t-41.5 -37.5l-26 20q21 43 59 68t87 25q61 0 99.5 -32.5t38.5 -86.5t-49 -110t-146 -108l1 8h145q11 0 18.5 1t14.5 2l22 49l37 -4l-20 -116q-9 1 -20 1.5t-22.5 1t-22.5 0.5h-20h-152q-13 0 -26 -0.5t-26 -1.5z" />
    <glyph glyph-name="threequarters" unicode="&#xbe;" horiz-adv-x="901" 
d="M210 413q63 -1 99 -27t36 -70q0 -34 -24 -62t-64.5 -44.5t-89.5 -16.5q-47 0 -78 16t-31 41q0 14 9.5 23.5t22.5 9.5q11 0 20 -4t23 -16l47 -39l-26 10q47 -7 79.5 13.5t32.5 57.5q0 33 -26 52t-71 19q-9 0 -18 -0.5t-20 -2.5l-5 38q59 5 86 23.5t27 46.5q0 23 -18 36.5
t-48 13.5t-51.5 -10.5t-36.5 -27.5l-26 20q19 35 57 57.5t87 22.5q53 0 84.5 -24t31.5 -63q0 -36 -31.5 -63.5t-89.5 -41.5zM290 -24l298 683l43 -18l-298 -683zM798 45l47 -10l-2 -35h-175l-2 35l57 10v263l12 -4l-138 -164l4 14h259v-53h-317l-6 29l222 261h42
q-1 -24 -2 -51.5t-1 -56.5v-238z" />
    <glyph glyph-name="questiondown" unicode="&#xbf;" horiz-adv-x="358" 
d="M249 246q17 -27 23 -48.5t6 -44.5q0 -22 -17 -44t-41.5 -44.5t-49.5 -45.5t-42 -48t-17 -51q0 -30 24.5 -50.5t64.5 -20.5q23 0 44.5 8.5t43.5 8.5q28 0 42 -14t14 -31q0 -20 -18.5 -34.5t-57.5 -14.5q-49 0 -89 14t-69.5 39t-45.5 59.5t-16 74.5q0 38 17 66t42 50
t49.5 40.5t41.5 37.5t17 42q0 14 -1.5 26.5t-4.5 24.5h40zM228 438q18 0 32 -8t22.5 -21.5t8.5 -31.5q0 -17 -8.5 -31t-22.5 -21.5t-32 -7.5q-27 0 -45 17t-18 43t18 43.5t45 17.5z" />
    <glyph glyph-name="Agrave" unicode="&#xc0;" horiz-adv-x="582" 
d="M3 0l-2 38l49 14l206 518l58 35l218 -553l50 -14l-3 -38h-202l-2 38l61 14l-59 148l-11 31l-109 272l23 13l-104 -285l-11 -30l-53 -149l61 -14l-2 -38h-168zM143 185v53q19 -1 52 -2t81 -1q47 0 80.5 1t51.5 2v-53q-34 1 -67.5 1.5t-64.5 0.5q-30 0 -62.5 -0.5
t-70.5 -1.5zM264 639l-108 122l79 23l71 -131z" />
    <glyph glyph-name="Aacute" unicode="&#xc1;" horiz-adv-x="582" 
d="M3 0l-2 38l49 14l206 518l58 35l218 -553l50 -14l-3 -38h-202l-2 38l61 14l-59 148l-11 31l-109 272l23 13l-104 -285l-11 -30l-53 -149l61 -14l-2 -38h-168zM143 185v53q19 -1 52 -2t81 -1q47 0 80.5 1t51.5 2v-53q-34 1 -67.5 1.5t-64.5 0.5q-30 0 -62.5 -0.5
t-70.5 -1.5zM306 639l-42 14l71 131l79 -23z" />
    <glyph glyph-name="Acircumflex" unicode="&#xc2;" horiz-adv-x="582" 
d="M3 0l-2 38l49 14l206 518l58 35l218 -553l50 -14l-3 -38h-202l-2 38l61 14l-59 148l-11 31l-109 272l23 13l-104 -285l-11 -30l-53 -149l61 -14l-2 -38h-168zM143 185v53q19 -1 52 -2t81 -1q47 0 80.5 1t51.5 2v-53q-34 1 -67.5 1.5t-64.5 0.5q-30 0 -62.5 -0.5
t-70.5 -1.5zM454 663l-34 -24l-165 91h60l-165 -91l-34 24l132 107h74z" />
    <glyph glyph-name="Atilde" unicode="&#xc3;" horiz-adv-x="582" 
d="M3 0l-2 38l49 14l206 518l58 35l218 -553l50 -14l-3 -38h-202l-2 38l61 14l-59 148l-11 31l-109 272l23 13l-104 -285l-11 -30l-53 -149l61 -14l-2 -38h-168zM143 185v53q19 -1 52 -2t81 -1q47 0 80.5 1t51.5 2v-53q-34 1 -67.5 1.5t-64.5 0.5q-30 0 -62.5 -0.5
t-70.5 -1.5zM453 762l32 -17q-17 -44 -48.5 -70.5t-72.5 -26.5q-30 0 -60.5 14t-59.5 28t-54 14q-26 0 -42 -13t-31 -36l-32 17q17 44 49 70t72 26q30 0 60.5 -13.5t60 -27t54.5 -13.5t41 13t31 35z" />
    <glyph glyph-name="Adieresis" unicode="&#xc4;" horiz-adv-x="582" 
d="M3 0l-2 38l49 14l206 518l58 35l218 -553l50 -14l-3 -38h-202l-2 38l61 14l-59 148l-11 31l-109 272l23 13l-104 -285l-11 -30l-53 -149l61 -14l-2 -38h-168zM143 185v53q19 -1 52 -2t81 -1q47 0 80.5 1t51.5 2v-53q-34 1 -67.5 1.5t-64.5 0.5q-30 0 -62.5 -0.5
t-70.5 -1.5zM187 661q-22 0 -37 13.5t-15 35.5q0 21 15 35t37 14q21 0 35 -14t14 -35q0 -22 -14 -35.5t-35 -13.5zM385 661q-22 0 -36.5 13.5t-14.5 35.5q0 21 14.5 35t36.5 14t36 -14t14 -35q0 -22 -14 -35.5t-36 -13.5z" />
    <glyph glyph-name="Aring" unicode="&#xc5;" horiz-adv-x="582" 
d="M3 0l-2 38l49 14l206 518l58 35l218 -553l50 -14l-3 -38h-202l-2 38l61 14l-59 148l-11 31l-109 272l23 13l-104 -285l-11 -30l-53 -149l61 -14l-2 -38h-168zM143 185v53q19 -1 52 -2t81 -1q47 0 80.5 1t51.5 2v-53q-34 1 -67.5 1.5t-64.5 0.5q-30 0 -62.5 -0.5
t-70.5 -1.5zM286 645q-42 0 -71 27.5t-29 67.5t29 67.5t71 27.5t70 -27t28 -68q0 -40 -28 -67.5t-70 -27.5zM287 678q26 0 42.5 17.5t16.5 45.5q0 29 -16.5 46t-42.5 17t-43.5 -17.5t-17.5 -45.5q0 -27 17.5 -45t43.5 -18z" />
    <glyph glyph-name="AE" unicode="&#xc6;" horiz-adv-x="804" 
d="M735 -5q-22 2 -38.5 3t-30 1.5t-26.5 0.5h-330l-2 38l61 14q1 13 1.5 36.5t0.5 69.5v362l29 19l-297 -487l61 -14l-2 -38h-174l-3 38l51 14l331 518l11 -35l-90 14l2 38h328q18 0 34.5 0.5t33 1.5t32.5 2l20 -132l-45 -7l-34 84q-7 2 -16.5 2.5t-20.5 0.5h-104
q-15 0 -29.5 -0.5t-31.5 -1.5q0 -5 -0.5 -23.5t-1 -42.5t-0.5 -48v-270v-30.5t0.5 -29.5t1 -24.5t0.5 -15.5q13 -1 24.5 -1.5t39.5 -0.5h85q22 0 35.5 0.5t22 1.5t14.5 2l51 95l45 -9zM166 180l12 54q11 -1 26 -1.5t35.5 -1t46.5 -0.5q40 0 68 1t44 2v-54q-13 2 -36 2h-76
h-68.5t-51.5 -2zM624 205l-13 69q-6 2 -17.5 2.5t-28.5 0.5h-67q-13 0 -27 -0.5t-31 -1.5v54q17 -1 31 -1.5t27 -0.5h67q17 0 28.5 1t17.5 2l13 69h41v-194h-41z" />
    <glyph glyph-name="Ccedilla" unicode="&#xc7;" horiz-adv-x="604" 
d="M368 -9q-87 0 -158.5 33.5t-114.5 100t-43 164.5q0 63 22 118.5t64.5 98t103.5 66.5t139 24q41 0 87 -8t82 -23l7 -137l-45 -4l-30 95q-19 13 -50 19.5t-60 6.5q-75 0 -122.5 -32.5t-70 -86.5t-22.5 -119q0 -85 29.5 -144t80 -89t111.5 -30q32 0 58 7t50 21l44 94l46 -5
l-28 -126q-34 -18 -81 -31t-99 -13zM325 -223q-24 0 -47.5 6.5t-43.5 18.5l19 39q17 -10 36.5 -17t40.5 -7t35 10t14 29q0 20 -20.5 31.5t-57.5 6.5l-15 19l58 100h50l-67 -94l7 31q49 0 80.5 -21t31.5 -59q0 -40 -35 -66.5t-86 -26.5z" />
    <glyph glyph-name="Egrave" unicode="&#xc8;" horiz-adv-x="556" 
d="M486 -5q-29 3 -51.5 4t-42.5 1h-343l-3 38l62 14q2 5 2.5 23t1 49t0.5 75v188q0 45 -0.5 76.5t-1 49.5t-2.5 22l-62 14l3 38h321q14 0 29.5 0.5t33.5 1.5t37 2l20 -132l-45 -7l-33 84q-8 2 -18 2.5t-21 0.5h-113q-19 0 -33.5 -0.5t-28.5 -2.5q0 -4 -0.5 -22.5t-1 -42.5
t-0.5 -48v-270q0 -20 0.5 -40.5t1 -36.5t0.5 -22q14 -1 29.5 -2t34.5 -1h97q22 0 36 0.5t22 1.5t13 2l52 95l45 -9zM375 205l-12 68q-5 2 -17 3t-29 1h-76q-13 0 -28 -1t-32 -2v55q17 -1 32 -1.5t28 -0.5h76q17 0 29 1t17 2l12 69h43v-194h-43zM259 639l-108 122l79 23
l71 -131z" />
    <glyph glyph-name="Eacute" unicode="&#xc9;" horiz-adv-x="556" 
d="M486 -5q-29 3 -51.5 4t-42.5 1h-343l-3 38l62 14q2 5 2.5 23t1 49t0.5 75v188q0 45 -0.5 76.5t-1 49.5t-2.5 22l-62 14l3 38h321q14 0 29.5 0.5t33.5 1.5t37 2l20 -132l-45 -7l-33 84q-8 2 -18 2.5t-21 0.5h-113q-19 0 -33.5 -0.5t-28.5 -2.5q0 -4 -0.5 -22.5t-1 -42.5
t-0.5 -48v-270q0 -20 0.5 -40.5t1 -36.5t0.5 -22q14 -1 29.5 -2t34.5 -1h97q22 0 36 0.5t22 1.5t13 2l52 95l45 -9zM375 205l-12 68q-5 2 -17 3t-29 1h-76q-13 0 -28 -1t-32 -2v55q17 -1 32 -1.5t28 -0.5h76q17 0 29 1t17 2l12 69h43v-194h-43zM301 639l-42 14l71 131
l79 -23z" />
    <glyph glyph-name="Ecircumflex" unicode="&#xca;" horiz-adv-x="556" 
d="M486 -5q-29 3 -51.5 4t-42.5 1h-343l-3 38l62 14q2 5 2.5 23t1 49t0.5 75v188q0 45 -0.5 76.5t-1 49.5t-2.5 22l-62 14l3 38h321q14 0 29.5 0.5t33.5 1.5t37 2l20 -132l-45 -7l-33 84q-8 2 -18 2.5t-21 0.5h-113q-19 0 -33.5 -0.5t-28.5 -2.5q0 -4 -0.5 -22.5t-1 -42.5
t-0.5 -48v-270q0 -20 0.5 -40.5t1 -36.5t0.5 -22q14 -1 29.5 -2t34.5 -1h97q22 0 36 0.5t22 1.5t13 2l52 95l45 -9zM375 205l-12 68q-5 2 -17 3t-29 1h-76q-13 0 -28 -1t-32 -2v55q17 -1 32 -1.5t28 -0.5h76q17 0 29 1t17 2l12 69h43v-194h-43zM449 663l-34 -24l-165 91h60
l-165 -91l-34 24l132 107h74z" />
    <glyph glyph-name="Edieresis" unicode="&#xcb;" horiz-adv-x="556" 
d="M486 -5q-29 3 -51.5 4t-42.5 1h-343l-3 38l62 14q2 5 2.5 23t1 49t0.5 75v188q0 45 -0.5 76.5t-1 49.5t-2.5 22l-62 14l3 38h321q14 0 29.5 0.5t33.5 1.5t37 2l20 -132l-45 -7l-33 84q-8 2 -18 2.5t-21 0.5h-113q-19 0 -33.5 -0.5t-28.5 -2.5q0 -4 -0.5 -22.5t-1 -42.5
t-0.5 -48v-270q0 -20 0.5 -40.5t1 -36.5t0.5 -22q14 -1 29.5 -2t34.5 -1h97q22 0 36 0.5t22 1.5t13 2l52 95l45 -9zM375 205l-12 68q-5 2 -17 3t-29 1h-76q-13 0 -28 -1t-32 -2v55q17 -1 32 -1.5t28 -0.5h76q17 0 29 1t17 2l12 69h43v-194h-43zM182 661q-22 0 -37 13.5
t-15 35.5q0 21 15 35t37 14q21 0 35 -14t14 -35q0 -22 -14 -35.5t-35 -13.5zM380 661q-22 0 -36.5 13.5t-14.5 35.5q0 21 14.5 35t36.5 14t36 -14t14 -35q0 -22 -14 -35.5t-36 -13.5z" />
    <glyph glyph-name="Igrave" unicode="&#xcc;" horiz-adv-x="310" 
d="M49 0l-2 38l61 14q2 5 2.5 23t1 49t0.5 75v188q0 45 -0.5 76.5t-1 49.5t-2.5 22l-61 14l2 38h213l2 -38l-61 -14q-2 -3 -3.5 -19.5t-2 -48t-0.5 -80.5v-188q0 -48 0.5 -79t2 -47.5t3.5 -20.5l61 -14l-2 -38h-213zM134 639l-108 122l79 23l71 -131z" />
    <glyph glyph-name="Iacute" unicode="&#xcd;" horiz-adv-x="310" 
d="M49 0l-2 38l61 14q2 5 2.5 23t1 49t0.5 75v188q0 45 -0.5 76.5t-1 49.5t-2.5 22l-61 14l2 38h213l2 -38l-61 -14q-2 -3 -3.5 -19.5t-2 -48t-0.5 -80.5v-188q0 -48 0.5 -79t2 -47.5t3.5 -20.5l61 -14l-2 -38h-213zM176 639l-42 14l71 131l79 -23z" />
    <glyph glyph-name="Icircumflex" unicode="&#xce;" horiz-adv-x="310" 
d="M49 0l-2 38l61 14q2 5 2.5 23t1 49t0.5 75v188q0 45 -0.5 76.5t-1 49.5t-2.5 22l-61 14l2 38h213l2 -38l-61 -14q-2 -3 -3.5 -19.5t-2 -48t-0.5 -80.5v-188q0 -48 0.5 -79t2 -47.5t3.5 -20.5l61 -14l-2 -38h-213zM324 663l-34 -24l-165 91h60l-165 -91l-34 24l132 107h74
z" />
    <glyph glyph-name="Idieresis" unicode="&#xcf;" horiz-adv-x="310" 
d="M49 0l-2 38l61 14q2 5 2.5 23t1 49t0.5 75v188q0 45 -0.5 76.5t-1 49.5t-2.5 22l-61 14l2 38h213l2 -38l-61 -14q-2 -3 -3.5 -19.5t-2 -48t-0.5 -80.5v-188q0 -48 0.5 -79t2 -47.5t3.5 -20.5l61 -14l-2 -38h-213zM57 661q-22 0 -37 13.5t-15 35.5q0 21 15 35t37 14
q21 0 35 -14t14 -35q0 -22 -14 -35.5t-35 -13.5zM255 661q-22 0 -36.5 13.5t-14.5 35.5q0 21 14.5 35t36.5 14t36 -14t14 -35q0 -22 -14 -35.5t-36 -13.5z" />
    <glyph glyph-name="Eth" unicode="&#xd0;" horiz-adv-x="682" 
d="M49 587h242q158 0 246.5 -75.5t88.5 -211.5q0 -88 -41 -155.5t-114 -106t-168 -38.5h-254l-2 38l61 14q2 9 3.5 51t1.5 96v188q0 59 -1.5 100t-3.5 48l-61 14zM200 533q0 -9 -0.5 -24.5t-1 -44t-0.5 -77.5v-188q0 -30 0.5 -56.5t2 -47.5l2.5 -35q32 -4 57.5 -6.5
t49.5 -2.5q106 0 161 56.5t55 163.5q0 65 -16 115.5t-47.5 84.5t-77 51.5t-105.5 17.5q-18 0 -38 -1.5t-42 -5.5zM38 269v50h324v-50h-324z" />
    <glyph glyph-name="Ntilde" unicode="&#xd1;" horiz-adv-x="674" 
d="M505 143v224q0 59 -1 94.5t-2 53t-2 20.5l-68 14l3 38h190l3 -38l-62 -14q0 -3 -1.5 -20.5t-2.5 -53t-1 -94.5v-238v-64.5t1 -68.5h-45l-368 495h22v-268q0 -60 1 -96.5t2.5 -53.5t2.5 -21l68 -14l-3 -38h-192l-3 38l61 14q1 4 2.5 21t2.5 53.5t1 96.5v171q0 45 -1 74
t-2 45t-3 22l-61 14l3 38h137l336 -444h-18zM506 762l32 -17q-17 -44 -48.5 -70.5t-72.5 -26.5q-30 0 -60.5 14t-59.5 28t-54 14q-26 0 -42 -13t-31 -36l-32 17q17 44 49 70t72 26q30 0 60.5 -13.5t60 -27t54.5 -13.5t41 13t31 35z" />
    <glyph glyph-name="Ograve" unicode="&#xd2;" horiz-adv-x="686" 
d="M349 -9q-87 0 -154.5 38t-105.5 106t-38 156t39 156.5t107 108.5t154 40q84 0 148.5 -38t100.5 -105t36 -155q0 -67 -23 -123t-63 -97.5t-91.5 -64t-109.5 -22.5zM358 45q54 0 93.5 28t61.5 79.5t22 121.5q0 81 -24.5 142t-68.5 95.5t-103 34.5q-85 0 -134.5 -63
t-49.5 -173q0 -78 26 -137.5t72 -93.5t105 -34zM322 639l-108 122l79 23l71 -131z" />
    <glyph glyph-name="Oacute" unicode="&#xd3;" horiz-adv-x="686" 
d="M349 -9q-87 0 -154.5 38t-105.5 106t-38 156t39 156.5t107 108.5t154 40q84 0 148.5 -38t100.5 -105t36 -155q0 -67 -23 -123t-63 -97.5t-91.5 -64t-109.5 -22.5zM358 45q54 0 93.5 28t61.5 79.5t22 121.5q0 81 -24.5 142t-68.5 95.5t-103 34.5q-85 0 -134.5 -63
t-49.5 -173q0 -78 26 -137.5t72 -93.5t105 -34zM364 639l-42 14l71 131l79 -23z" />
    <glyph glyph-name="Ocircumflex" unicode="&#xd4;" horiz-adv-x="686" 
d="M349 -9q-87 0 -154.5 38t-105.5 106t-38 156t39 156.5t107 108.5t154 40q84 0 148.5 -38t100.5 -105t36 -155q0 -67 -23 -123t-63 -97.5t-91.5 -64t-109.5 -22.5zM358 45q54 0 93.5 28t61.5 79.5t22 121.5q0 81 -24.5 142t-68.5 95.5t-103 34.5q-85 0 -134.5 -63
t-49.5 -173q0 -78 26 -137.5t72 -93.5t105 -34zM512 663l-34 -24l-165 91h60l-165 -91l-34 24l132 107h74z" />
    <glyph glyph-name="Otilde" unicode="&#xd5;" horiz-adv-x="686" 
d="M349 -9q-87 0 -154.5 38t-105.5 106t-38 156t39 156.5t107 108.5t154 40q84 0 148.5 -38t100.5 -105t36 -155q0 -67 -23 -123t-63 -97.5t-91.5 -64t-109.5 -22.5zM358 45q54 0 93.5 28t61.5 79.5t22 121.5q0 81 -24.5 142t-68.5 95.5t-103 34.5q-85 0 -134.5 -63
t-49.5 -173q0 -78 26 -137.5t72 -93.5t105 -34zM511 762l32 -17q-17 -44 -48.5 -70.5t-72.5 -26.5q-30 0 -60.5 14t-59.5 28t-54 14q-26 0 -42 -13t-31 -36l-32 17q17 44 49 70t72 26q30 0 60.5 -13.5t60 -27t54.5 -13.5t41 13t31 35z" />
    <glyph glyph-name="Odieresis" unicode="&#xd6;" horiz-adv-x="686" 
d="M349 -9q-87 0 -154.5 38t-105.5 106t-38 156t39 156.5t107 108.5t154 40q84 0 148.5 -38t100.5 -105t36 -155q0 -67 -23 -123t-63 -97.5t-91.5 -64t-109.5 -22.5zM358 45q54 0 93.5 28t61.5 79.5t22 121.5q0 81 -24.5 142t-68.5 95.5t-103 34.5q-85 0 -134.5 -63
t-49.5 -173q0 -78 26 -137.5t72 -93.5t105 -34zM245 661q-22 0 -37 13.5t-15 35.5q0 21 15 35t37 14q21 0 35 -14t14 -35q0 -22 -14 -35.5t-35 -13.5zM443 661q-22 0 -36.5 13.5t-14.5 35.5q0 21 14.5 35t36.5 14t36 -14t14 -35q0 -22 -14 -35.5t-36 -13.5z" />
    <glyph glyph-name="multiply" unicode="&#xd7;" horiz-adv-x="540" 
d="M435 462l43 -46l-372 -370l-44 45zM106 462l372 -371l-43 -45l-373 370z" />
    <glyph glyph-name="Oslash" unicode="&#xd8;" horiz-adv-x="686" 
d="M349 -9q-87 0 -154.5 38t-105.5 106t-38 156t39 156.5t107 108.5t154 40q84 0 148.5 -38t100.5 -105t36 -155q0 -67 -23 -123t-63 -97.5t-91.5 -64t-109.5 -22.5zM358 45q54 0 93.5 28t61.5 79.5t22 121.5q0 81 -24.5 142t-68.5 95.5t-103 34.5q-85 0 -134.5 -63
t-49.5 -173q0 -78 26 -137.5t72 -93.5t105 -34zM152 -66l-47 28l429 692l47 -28z" />
    <glyph glyph-name="Ugrave" unicode="&#xd9;" horiz-adv-x="664" 
d="M46 587h212l3 -38l-62 -15q0 -4 -1 -18t-1.5 -44t-0.5 -85v-154q1 -63 20.5 -102t54 -56.5t80.5 -17.5q44 0 76.5 18.5t50.5 58.5t18 106v129q0 45 -1 79.5t-2 57t-3 28.5l-70 15l3 38h194l3 -38l-61 -15q0 -3 -1 -19t-1.5 -50.5t-0.5 -95.5v-134q0 -84 -28 -138
t-76.5 -80t-110.5 -26q-109 0 -170.5 60.5t-61.5 169.5v166q0 55 -1 85.5t-1.5 44.5t-1.5 17l-61 15zM326 639l-108 122l79 23l71 -131z" />
    <glyph glyph-name="Uacute" unicode="&#xda;" horiz-adv-x="664" 
d="M46 587h212l3 -38l-62 -15q0 -4 -1 -18t-1.5 -44t-0.5 -85v-154q1 -63 20.5 -102t54 -56.5t80.5 -17.5q44 0 76.5 18.5t50.5 58.5t18 106v129q0 45 -1 79.5t-2 57t-3 28.5l-70 15l3 38h194l3 -38l-61 -15q0 -3 -1 -19t-1.5 -50.5t-0.5 -95.5v-134q0 -84 -28 -138
t-76.5 -80t-110.5 -26q-109 0 -170.5 60.5t-61.5 169.5v166q0 55 -1 85.5t-1.5 44.5t-1.5 17l-61 15zM368 639l-42 14l71 131l79 -23z" />
    <glyph glyph-name="Ucircumflex" unicode="&#xdb;" horiz-adv-x="664" 
d="M46 587h212l3 -38l-62 -15q0 -4 -1 -18t-1.5 -44t-0.5 -85v-154q1 -63 20.5 -102t54 -56.5t80.5 -17.5q44 0 76.5 18.5t50.5 58.5t18 106v129q0 45 -1 79.5t-2 57t-3 28.5l-70 15l3 38h194l3 -38l-61 -15q0 -3 -1 -19t-1.5 -50.5t-0.5 -95.5v-134q0 -84 -28 -138
t-76.5 -80t-110.5 -26q-109 0 -170.5 60.5t-61.5 169.5v166q0 55 -1 85.5t-1.5 44.5t-1.5 17l-61 15zM516 663l-34 -24l-165 91h60l-165 -91l-34 24l132 107h74z" />
    <glyph glyph-name="Udieresis" unicode="&#xdc;" horiz-adv-x="664" 
d="M46 587h212l3 -38l-62 -15q0 -4 -1 -18t-1.5 -44t-0.5 -85v-154q1 -63 20.5 -102t54 -56.5t80.5 -17.5q44 0 76.5 18.5t50.5 58.5t18 106v129q0 45 -1 79.5t-2 57t-3 28.5l-70 15l3 38h194l3 -38l-61 -15q0 -3 -1 -19t-1.5 -50.5t-0.5 -95.5v-134q0 -84 -28 -138
t-76.5 -80t-110.5 -26q-109 0 -170.5 60.5t-61.5 169.5v166q0 55 -1 85.5t-1.5 44.5t-1.5 17l-61 15zM249 661q-22 0 -37 13.5t-15 35.5q0 21 15 35t37 14q21 0 35 -14t14 -35q0 -22 -14 -35.5t-35 -13.5zM447 661q-22 0 -36.5 13.5t-14.5 35.5q0 21 14.5 35t36.5 14t36 -14
t14 -35q0 -22 -14 -35.5t-36 -13.5z" />
    <glyph glyph-name="Yacute" unicode="&#xdd;" horiz-adv-x="541" 
d="M492 535l-205 -317l25 68v-95q0 -37 0.5 -63t1 -41.5t1.5 -23.5t1 -11l70 -13l-2 -39h-228l-3 39l70 13q1 3 1.5 11t1.5 23.5t1.5 41.5t0.5 63v95l20 -68l-198 317l-50 14l2 38h207l3 -38l-61 -14l147 -236h-14l141 236l-70 14l3 38h182l2 -38zM291 639l-42 14l71 131
l79 -23z" />
    <glyph glyph-name="Thorn" unicode="&#xde;" horiz-adv-x="513" 
d="M54 0l-2 38l57 14q2 7 2.5 44t0.5 103v188q0 67 -1 104t-3 43l-62 15l3 38h207l3 -38l-61 -15q0 -5 -0.5 -15.5t-0.5 -26.5v-41l-16 30h81q99 0 154 -43.5t55 -125.5q0 -56 -28.5 -97t-77 -63.5t-107.5 -22.5q-22 0 -41 2.5t-36 5.5v51q21 -7 39.5 -10t35.5 -3
q59 0 92 31.5t33 92.5q0 71 -37.5 104.5t-92.5 33.5h-54v-320q0 -21 1 -39t2 -26l82 -12l-2 -40h-226z" />
    <glyph glyph-name="germandbls" unicode="&#xdf;" horiz-adv-x="570" 
d="M401 -8q-32 0 -66 8t-62 23l-2 105h47l18 -72q18 -11 36.5 -16.5t37.5 -5.5q29 0 48.5 16.5t19.5 47.5q0 32 -21 52t-51.5 36t-61.5 34t-52 44t-21 67q0 32 14 58t33 51t33 54.5t14 68.5q0 42 -22.5 67t-63.5 25q-51 0 -80 -38.5t-29 -102.5l2 -318q0 -29 1 -56.5
t2.5 -50.5t2.5 -38l52 -14l-3 -37h-184l-2 37l52 14q1 12 1.5 30t1.5 44.5t0 63.5l-2 189v106q0 64 24 112t68 75t104 27q71 0 109 -33t38 -88q0 -31 -14 -58.5t-33 -53t-33.5 -50.5t-14.5 -52q0 -34 21.5 -56.5t52.5 -40t62.5 -36t53 -44.5t21.5 -67q0 -55 -42 -91
t-110 -36zM22 378v33l72 18l40 -1v-50h-112z" />
    <glyph glyph-name="agrave" unicode="&#xe0;" horiz-adv-x="474" 
d="M196 -8q-40 0 -71 16t-48.5 41t-17.5 52q0 34 22 56t72 38l152 51v51q0 25 -15 45.5t-40 32.5t-56 12q-25 0 -34 -10.5t-11 -41.5l-2 -42q-36 -8 -61 2.5t-25 34.5q0 17 14.5 34t38.5 32.5t52 26.5t55 15q74 0 118.5 -39t45.5 -102l-2 -168q0 -19 1.5 -37t4.5 -27l64 -12
v-31l-49 -18q-14 -5 -26 -8.5t-20 -3.5q-31 0 -40 35l-11 39h15q-33 -37 -63.5 -55.5t-62.5 -18.5zM223 51q23 0 43 10.5t39 32.5v105l-112 -30q-24 -6 -34.5 -19t-10.5 -33q0 -25 22.5 -45.5t52.5 -20.5zM210 482l-139 172l82 23l99 -182z" />
    <glyph glyph-name="aacute" unicode="&#xe1;" horiz-adv-x="474" 
d="M196 -8q-40 0 -71 16t-48.5 41t-17.5 52q0 34 22 56t72 38l152 51v51q0 25 -15 45.5t-40 32.5t-56 12q-25 0 -34 -10.5t-11 -41.5l-2 -42q-36 -8 -61 2.5t-25 34.5q0 17 14.5 34t38.5 32.5t52 26.5t55 15q74 0 118.5 -39t45.5 -102l-2 -168q0 -19 1.5 -37t4.5 -27l64 -12
v-31l-49 -18q-14 -5 -26 -8.5t-20 -3.5q-31 0 -40 35l-11 39h15q-33 -37 -63.5 -55.5t-62.5 -18.5zM223 51q23 0 43 10.5t39 32.5v105l-112 -30q-24 -6 -34.5 -19t-10.5 -33q0 -25 22.5 -45.5t52.5 -20.5zM251 482l-40 13l99 182l80 -23z" />
    <glyph glyph-name="acircumflex" unicode="&#xe2;" horiz-adv-x="474" 
d="M196 -8q-40 0 -71 16t-48.5 41t-17.5 52q0 34 22 56t72 38l152 51v51q0 25 -15 45.5t-40 32.5t-56 12q-25 0 -34 -10.5t-11 -41.5l-2 -42q-36 -8 -61 2.5t-25 34.5q0 17 14.5 34t38.5 32.5t52 26.5t55 15q74 0 118.5 -39t45.5 -102l-2 -168q0 -19 1.5 -37t4.5 -27l64 -12
v-31l-49 -18q-14 -5 -26 -8.5t-20 -3.5q-31 0 -40 35l-11 39h15q-33 -37 -63.5 -55.5t-62.5 -18.5zM223 51q23 0 43 10.5t39 32.5v105l-112 -30q-24 -6 -34.5 -19t-10.5 -33q0 -25 22.5 -45.5t52.5 -20.5zM370 495l-39 -13l-130 152h60l-130 -152l-39 13l102 168h74z" />
    <glyph glyph-name="atilde" unicode="&#xe3;" horiz-adv-x="474" 
d="M196 -8q-40 0 -71 16t-48.5 41t-17.5 52q0 34 22 56t72 38l152 51v51q0 25 -15 45.5t-40 32.5t-56 12q-25 0 -34 -10.5t-11 -41.5l-2 -42q-36 -8 -61 2.5t-25 34.5q0 17 14.5 34t38.5 32.5t52 26.5t55 15q74 0 118.5 -39t45.5 -102l-2 -168q0 -19 1.5 -37t4.5 -27l64 -12
v-31l-49 -18q-14 -5 -26 -8.5t-20 -3.5q-31 0 -40 35l-11 39h15q-33 -37 -63.5 -55.5t-62.5 -18.5zM223 51q23 0 43 10.5t39 32.5v105l-112 -30q-24 -6 -34.5 -19t-10.5 -33q0 -25 22.5 -45.5t52.5 -20.5zM369 633l32 -19q-14 -43 -40.5 -69.5t-60.5 -26.5q-25 0 -50.5 14
t-49.5 27.5t-46 13.5t-35 -13t-26 -36l-32 19q14 44 40.5 70t60.5 26q25 0 50.5 -13.5t50 -27.5t46.5 -14q20 0 33.5 13.5t26.5 35.5z" />
    <glyph glyph-name="adieresis" unicode="&#xe4;" horiz-adv-x="474" 
d="M196 -8q-40 0 -71 16t-48.5 41t-17.5 52q0 34 22 56t72 38l152 51v51q0 25 -15 45.5t-40 32.5t-56 12q-25 0 -34 -10.5t-11 -41.5l-2 -42q-36 -8 -61 2.5t-25 34.5q0 17 14.5 34t38.5 32.5t52 26.5t55 15q74 0 118.5 -39t45.5 -102l-2 -168q0 -19 1.5 -37t4.5 -27l64 -12
v-31l-49 -18q-14 -5 -26 -8.5t-20 -3.5q-31 0 -40 35l-11 39h15q-33 -37 -63.5 -55.5t-62.5 -18.5zM223 51q23 0 43 10.5t39 32.5v105l-112 -30q-24 -6 -34.5 -19t-10.5 -33q0 -25 22.5 -45.5t52.5 -20.5zM153 529q-22 0 -37 13.5t-15 35.5q0 21 15 35t37 14q21 0 35 -14
t14 -35q0 -22 -14 -35.5t-35 -13.5zM311 529q-22 0 -36.5 13.5t-14.5 35.5q0 21 14.5 35t36.5 14t36 -14t14 -35q0 -22 -14 -35.5t-36 -13.5z" />
    <glyph glyph-name="aring" unicode="&#xe5;" horiz-adv-x="474" 
d="M196 -8q-40 0 -71 16t-48.5 41t-17.5 52q0 34 22 56t72 38l152 51v51q0 25 -15 45.5t-40 32.5t-56 12q-25 0 -34 -10.5t-11 -41.5l-2 -42q-36 -8 -61 2.5t-25 34.5q0 17 14.5 34t38.5 32.5t52 26.5t55 15q74 0 118.5 -39t45.5 -102l-2 -168q0 -19 1.5 -37t4.5 -27l64 -12
v-31l-49 -18q-14 -5 -26 -8.5t-20 -3.5q-31 0 -40 35l-11 39h15q-33 -37 -63.5 -55.5t-62.5 -18.5zM223 51q23 0 43 10.5t39 32.5v105l-112 -30q-24 -6 -34.5 -19t-10.5 -33q0 -25 22.5 -45.5t52.5 -20.5zM232 493q-42 0 -71 28t-29 68q0 41 29 68.5t71 27.5t70 -27.5
t28 -68.5q0 -40 -28 -68t-70 -28zM233 527q26 0 42.5 17.5t16.5 45.5q0 29 -16.5 46t-42.5 17t-43.5 -17.5t-17.5 -45.5q0 -27 17.5 -45t43.5 -18z" />
    <glyph glyph-name="ae" unicode="&#xe6;" horiz-adv-x="698" 
d="M202 -8q-37 0 -69.5 14.5t-52.5 39.5t-20 55q0 41 30.5 66.5t95.5 38.5l408 77l-13 -28v24q0 54 -23 85.5t-64 31.5q-30 0 -54 -17.5t-38 -48t-14 -71.5v-32q0 -82 38 -125t99 -43q32 0 58.5 13t53.5 47l25 -24q-28 -52 -69.5 -77.5t-93.5 -25.5q-56 0 -99 26.5t-67.5 75
t-24.5 113.5v75q0 35 -16.5 58t-41.5 35t-53 12q-27 0 -35 -11.5t-10 -40.5l-2 -42q-33 -7 -59 2.5t-26 34.5q0 16 14 33t37.5 32.5t51.5 27t56 15.5q51 0 93.5 -22t57.5 -67h-19q23 41 61 65t87 24q71 0 114 -50t43 -133l-463 -88q-23 -4 -36 -16t-13 -34q0 -28 24.5 -47
t56.5 -19q27 0 51 15.5t52 50.5l29 -29q-33 -37 -58.5 -58t-49 -29.5t-52.5 -8.5z" />
    <glyph glyph-name="ccedilla" unicode="&#xe7;" horiz-adv-x="425" 
d="M247 -8q-56 0 -103 25.5t-75 74t-28 115.5q0 65 29.5 117.5t81 83t115.5 30.5q44 0 74 -11t45.5 -29t15.5 -38q0 -16 -10 -26.5t-28 -10.5q-16 0 -28 6t-29 24l-51 51l36 -10q-40 9 -77 -7.5t-61 -57t-24 -104.5q0 -80 40.5 -123t101.5 -43q38 0 65.5 14t52.5 45l27 -23
q-28 -52 -71 -77.5t-99 -25.5zM223 -223q-24 0 -47.5 6.5t-43.5 18.5l19 39q17 -10 36.5 -17t40.5 -7t35 10t14 29q0 20 -20.5 31.5t-57.5 6.5l-15 19l58 100h50l-67 -94l7 31q49 0 80.5 -21t31.5 -59q0 -40 -35 -66.5t-86 -26.5z" />
    <glyph glyph-name="egrave" unicode="&#xe8;" horiz-adv-x="450" 
d="M248 -8q-58 0 -104.5 26t-74 74.5t-27.5 114.5q0 71 29 123t76 80.5t101 27.5q78 -1 122 -52t44 -144v-18h-307v44h241l-11 -13v21q0 58 -26 89t-71 31q-28 0 -54 -16.5t-42 -50t-16 -84.5v-12q0 -82 40.5 -128t104.5 -46q35 0 63 14t54 45l25 -23q-28 -52 -71 -77.5
t-96 -25.5zM219 482l-139 172l82 23l99 -182z" />
    <glyph glyph-name="eacute" unicode="&#xe9;" horiz-adv-x="450" 
d="M248 -8q-58 0 -104.5 26t-74 74.5t-27.5 114.5q0 71 29 123t76 80.5t101 27.5q78 -1 122 -52t44 -144v-18h-307v44h241l-11 -13v21q0 58 -26 89t-71 31q-28 0 -54 -16.5t-42 -50t-16 -84.5v-12q0 -82 40.5 -128t104.5 -46q35 0 63 14t54 45l25 -23q-28 -52 -71 -77.5
t-96 -25.5zM260 482l-40 13l99 182l80 -23z" />
    <glyph glyph-name="ecircumflex" unicode="&#xea;" horiz-adv-x="450" 
d="M248 -8q-58 0 -104.5 26t-74 74.5t-27.5 114.5q0 71 29 123t76 80.5t101 27.5q78 -1 122 -52t44 -144v-18h-307v44h241l-11 -13v21q0 58 -26 89t-71 31q-28 0 -54 -16.5t-42 -50t-16 -84.5v-12q0 -82 40.5 -128t104.5 -46q35 0 63 14t54 45l25 -23q-28 -52 -71 -77.5
t-96 -25.5zM379 495l-39 -13l-130 152h60l-130 -152l-39 13l102 168h74z" />
    <glyph glyph-name="edieresis" unicode="&#xeb;" horiz-adv-x="450" 
d="M248 -8q-58 0 -104.5 26t-74 74.5t-27.5 114.5q0 71 29 123t76 80.5t101 27.5q78 -1 122 -52t44 -144v-18h-307v44h241l-11 -13v21q0 58 -26 89t-71 31q-28 0 -54 -16.5t-42 -50t-16 -84.5v-12q0 -82 40.5 -128t104.5 -46q35 0 63 14t54 45l25 -23q-28 -52 -71 -77.5
t-96 -25.5zM162 529q-22 0 -37 13.5t-15 35.5q0 21 15 35t37 14q21 0 35 -14t14 -35q0 -22 -14 -35.5t-35 -13.5zM320 529q-22 0 -36.5 13.5t-14.5 35.5q0 21 14.5 35t36.5 14t36 -14t14 -35q0 -22 -14 -35.5t-36 -13.5z" />
    <glyph glyph-name="igrave" unicode="&#xec;" horiz-adv-x="268" 
d="M27 0l-2 37l67 14q1 4 1.5 14t1.5 32t1 61v66q0 41 -2 75t-5 53l-67 14v33l142 37l15 -14q-3 -31 -4.5 -61t-1.5 -70v-126q0 -46 1.5 -76t3.5 -38l67 -14l-2 -37h-216zM113 482l-139 172l82 23l99 -182z" />
    <glyph glyph-name="iacute" unicode="&#xed;" horiz-adv-x="268" 
d="M27 0l-2 37l67 14q1 4 1.5 14t1.5 32t1 61v66q0 41 -2 75t-5 53l-67 14v33l142 37l15 -14q-3 -31 -4.5 -61t-1.5 -70v-126q0 -46 1.5 -76t3.5 -38l67 -14l-2 -37h-216zM154 482l-40 13l99 182l80 -23z" />
    <glyph glyph-name="icircumflex" unicode="&#xee;" horiz-adv-x="268" 
d="M27 0l-2 37l67 14q1 4 1.5 14t1.5 32t1 61v66q0 41 -2 75t-5 53l-67 14v33l142 37l15 -14q-3 -31 -4.5 -61t-1.5 -70v-126q0 -46 1.5 -76t3.5 -38l67 -14l-2 -37h-216zM273 495l-39 -13l-130 152h60l-130 -152l-39 13l102 168h74z" />
    <glyph glyph-name="idieresis" unicode="&#xef;" horiz-adv-x="268" 
d="M27 0l-2 37l67 14q1 4 1.5 14t1.5 32t1 61v66q0 41 -2 75t-5 53l-67 14v33l142 37l15 -14q-3 -31 -4.5 -61t-1.5 -70v-126q0 -46 1.5 -76t3.5 -38l67 -14l-2 -37h-216zM56 529q-22 0 -37 13.5t-15 35.5q0 21 15 35t37 14q21 0 35 -14t14 -35q0 -22 -14 -35.5t-35 -13.5z
M214 529q-22 0 -36.5 13.5t-14.5 35.5q0 21 14.5 35t36.5 14t36 -14t14 -35q0 -22 -14 -35.5t-36 -13.5z" />
    <glyph glyph-name="eth" unicode="&#xf0;" horiz-adv-x="500" 
d="M380 367q-26 15 -52.5 20t-52.5 5q-69 0 -106.5 -43.5t-37.5 -128.5q0 -54 17 -94.5t46.5 -63t68.5 -22.5q53 0 81 45t28 151q0 102 -35.5 185t-104.5 143t-172 92l2 32h101q65 -21 119 -62.5t93.5 -98t61 -122t21.5 -134.5q0 -136 -57.5 -207.5t-150.5 -71.5
q-56 0 -104 25t-76.5 73.5t-28.5 118.5q0 73 31.5 124t85 78t118.5 27q24 0 53 -4.5t60 -16.5zM91 504l-19 40l314 154l20 -40z" />
    <glyph glyph-name="ntilde" unicode="&#xf1;" horiz-adv-x="550" 
d="M31 0l-2 36l62 15q1 7 1.5 19t1.5 33t1 55l1 77q0 33 -2.5 65.5t-5.5 51.5l-64 14v33l134 37l17 -16l-5 -53l3 -1q35 38 69 55t74 17q37 0 69.5 -18.5t53 -56.5t20.5 -97v-111q0 -36 1.5 -65t4.5 -39l62 -15l-3 -36h-201l-2 36l58 15q1 8 2 20t1.5 30.5t0.5 46.5v108
q0 45 -15.5 71.5t-38.5 38t-47 11.5q-33 0 -61.5 -16.5t-48.5 -45.5v-150q0 -46 1.5 -74.5t3.5 -39.5l62 -15l-3 -36h-205zM416 633l32 -19q-14 -43 -40.5 -69.5t-60.5 -26.5q-25 0 -50.5 14t-49.5 27.5t-46 13.5t-35 -13t-26 -36l-32 19q14 44 40.5 70t60.5 26
q25 0 50.5 -13.5t50 -27.5t46.5 -14q20 0 33.5 13.5t26.5 35.5z" />
    <glyph glyph-name="ograve" unicode="&#xf2;" horiz-adv-x="508" 
d="M257 -8q-65 0 -113.5 28t-75.5 78.5t-27 115.5q0 68 30 118t80 78t110 28q62 0 108.5 -27.5t72 -77t25.5 -115.5q0 -63 -28 -114t-75.5 -81.5t-106.5 -30.5zM267 39q34 0 59 20.5t39 57t14 83.5q0 86 -35.5 139.5t-93.5 53.5q-54 0 -86.5 -45t-32.5 -119q0 -56 17.5 -99
t48.5 -67t70 -24zM233 482l-139 172l82 23l99 -182z" />
    <glyph glyph-name="oacute" unicode="&#xf3;" horiz-adv-x="508" 
d="M257 -8q-65 0 -113.5 28t-75.5 78.5t-27 115.5q0 68 30 118t80 78t110 28q62 0 108.5 -27.5t72 -77t25.5 -115.5q0 -63 -28 -114t-75.5 -81.5t-106.5 -30.5zM267 39q34 0 59 20.5t39 57t14 83.5q0 86 -35.5 139.5t-93.5 53.5q-54 0 -86.5 -45t-32.5 -119q0 -56 17.5 -99
t48.5 -67t70 -24zM274 482l-40 13l99 182l80 -23z" />
    <glyph glyph-name="ocircumflex" unicode="&#xf4;" horiz-adv-x="508" 
d="M257 -8q-65 0 -113.5 28t-75.5 78.5t-27 115.5q0 68 30 118t80 78t110 28q62 0 108.5 -27.5t72 -77t25.5 -115.5q0 -63 -28 -114t-75.5 -81.5t-106.5 -30.5zM267 39q34 0 59 20.5t39 57t14 83.5q0 86 -35.5 139.5t-93.5 53.5q-54 0 -86.5 -45t-32.5 -119q0 -56 17.5 -99
t48.5 -67t70 -24zM393 495l-39 -13l-130 152h60l-130 -152l-39 13l102 168h74z" />
    <glyph glyph-name="otilde" unicode="&#xf5;" horiz-adv-x="508" 
d="M257 -8q-65 0 -113.5 28t-75.5 78.5t-27 115.5q0 68 30 118t80 78t110 28q62 0 108.5 -27.5t72 -77t25.5 -115.5q0 -63 -28 -114t-75.5 -81.5t-106.5 -30.5zM267 39q34 0 59 20.5t39 57t14 83.5q0 86 -35.5 139.5t-93.5 53.5q-54 0 -86.5 -45t-32.5 -119q0 -56 17.5 -99
t48.5 -67t70 -24zM392 633l32 -19q-14 -43 -40.5 -69.5t-60.5 -26.5q-25 0 -50.5 14t-49.5 27.5t-46 13.5t-35 -13t-26 -36l-32 19q14 44 40.5 70t60.5 26q25 0 50.5 -13.5t50 -27.5t46.5 -14q20 0 33.5 13.5t26.5 35.5z" />
    <glyph glyph-name="odieresis" unicode="&#xf6;" horiz-adv-x="508" 
d="M257 -8q-65 0 -113.5 28t-75.5 78.5t-27 115.5q0 68 30 118t80 78t110 28q62 0 108.5 -27.5t72 -77t25.5 -115.5q0 -63 -28 -114t-75.5 -81.5t-106.5 -30.5zM267 39q34 0 59 20.5t39 57t14 83.5q0 86 -35.5 139.5t-93.5 53.5q-54 0 -86.5 -45t-32.5 -119q0 -56 17.5 -99
t48.5 -67t70 -24zM176 529q-22 0 -37 13.5t-15 35.5q0 21 15 35t37 14q21 0 35 -14t14 -35q0 -22 -14 -35.5t-35 -13.5zM334 529q-22 0 -36.5 13.5t-14.5 35.5q0 21 14.5 35t36.5 14t36 -14t14 -35q0 -22 -14 -35.5t-36 -13.5z" />
    <glyph glyph-name="divide" unicode="&#xf7;" horiz-adv-x="540" 
d="M487 286v-65h-434v65h434zM266 25q-22 0 -37 15t-15 37t15 37t37 15q21 0 36 -15t15 -37t-15 -37t-36 -15zM266 378q-22 0 -37 15t-15 37t15 37t37 15q21 0 36 -15t15 -37t-15 -37t-36 -15z" />
    <glyph glyph-name="oslash" unicode="&#xf8;" horiz-adv-x="508" 
d="M257 -8q-65 0 -113.5 28t-75.5 78.5t-27 115.5q0 68 30 118t80 78t110 28q62 0 108.5 -27.5t72 -77t25.5 -115.5q0 -63 -28 -114t-75.5 -81.5t-106.5 -30.5zM267 39q34 0 59 20.5t39 57t14 83.5q0 86 -35.5 139.5t-93.5 53.5q-54 0 -86.5 -45t-32.5 -119q0 -56 17.5 -99
t48.5 -67t70 -24zM102 -64l-38 24l342 534l38 -24z" />
    <glyph glyph-name="ugrave" unicode="&#xf9;" horiz-adv-x="543" 
d="M455 70l63 -16v-33l-130 -32l-15 13l1 63l-3 1q-29 -41 -59.5 -57.5t-65.5 -16.5q-67 0 -112 41.5t-45 124.5v86q0 28 -1.5 54.5t-3.5 53.5l-68 14v33l136 37l18 -16q-2 -31 -3 -66t-1 -73l-1 -110q0 -62 29 -88.5t74 -26.5q27 0 55 14t49 48v116q0 22 -0.5 43.5t-1.5 41
t-3 33.5l-73 14v33l141 37l15 -14q-1 -28 -1.5 -50t-0.5 -43.5v-48.5v-71q0 -55 2.5 -88.5t4.5 -50.5zM250 482l-139 172l82 23l99 -182z" />
    <glyph glyph-name="uacute" unicode="&#xfa;" horiz-adv-x="543" 
d="M455 70l63 -16v-33l-130 -32l-15 13l1 63l-3 1q-29 -41 -59.5 -57.5t-65.5 -16.5q-67 0 -112 41.5t-45 124.5v86q0 28 -1.5 54.5t-3.5 53.5l-68 14v33l136 37l18 -16q-2 -31 -3 -66t-1 -73l-1 -110q0 -62 29 -88.5t74 -26.5q27 0 55 14t49 48v116q0 22 -0.5 43.5t-1.5 41
t-3 33.5l-73 14v33l141 37l15 -14q-1 -28 -1.5 -50t-0.5 -43.5v-48.5v-71q0 -55 2.5 -88.5t4.5 -50.5zM291 482l-40 13l99 182l80 -23z" />
    <glyph glyph-name="ucircumflex" unicode="&#xfb;" horiz-adv-x="543" 
d="M455 70l63 -16v-33l-130 -32l-15 13l1 63l-3 1q-29 -41 -59.5 -57.5t-65.5 -16.5q-67 0 -112 41.5t-45 124.5v86q0 28 -1.5 54.5t-3.5 53.5l-68 14v33l136 37l18 -16q-2 -31 -3 -66t-1 -73l-1 -110q0 -62 29 -88.5t74 -26.5q27 0 55 14t49 48v116q0 22 -0.5 43.5t-1.5 41
t-3 33.5l-73 14v33l141 37l15 -14q-1 -28 -1.5 -50t-0.5 -43.5v-48.5v-71q0 -55 2.5 -88.5t4.5 -50.5zM410 495l-39 -13l-130 152h60l-130 -152l-39 13l102 168h74z" />
    <glyph glyph-name="udieresis" unicode="&#xfc;" horiz-adv-x="543" 
d="M455 70l63 -16v-33l-130 -32l-15 13l1 63l-3 1q-29 -41 -59.5 -57.5t-65.5 -16.5q-67 0 -112 41.5t-45 124.5v86q0 28 -1.5 54.5t-3.5 53.5l-68 14v33l136 37l18 -16q-2 -31 -3 -66t-1 -73l-1 -110q0 -62 29 -88.5t74 -26.5q27 0 55 14t49 48v116q0 22 -0.5 43.5t-1.5 41
t-3 33.5l-73 14v33l141 37l15 -14q-1 -28 -1.5 -50t-0.5 -43.5v-48.5v-71q0 -55 2.5 -88.5t4.5 -50.5zM193 529q-22 0 -37 13.5t-15 35.5q0 21 15 35t37 14q21 0 35 -14t14 -35q0 -22 -14 -35.5t-35 -13.5zM351 529q-22 0 -36.5 13.5t-14.5 35.5q0 21 14.5 35t36.5 14
t36 -14t14 -35q0 -22 -14 -35.5t-36 -13.5z" />
    <glyph glyph-name="yacute" unicode="&#xfd;" horiz-adv-x="472" 
d="M219 -4l-176 383l-47 15l3 36h194l2 -36l-62 -15l136 -304zM475 430l3 -36l-47 -15l-170 -357l-80 -166q-22 -46 -46.5 -65t-56.5 -19q-25 0 -40.5 12t-15.5 31q0 15 12 28.5t37 20.5l93 28l-46 -50l111 214l11 18l130 305l-62 15l2 36h165zM271 482l-40 13l99 182
l80 -23z" />
    <glyph glyph-name="thorn" unicode="&#xfe;" horiz-adv-x="524" 
d="M18 -220l-2 36l62 15q1 7 1.5 26.5t1.5 57.5t1 99l2 349q0 34 -0.5 73t-1 75.5t-1 63.5t-1.5 36l-74 10l-2 32l141 41l20 -14l-2 -62t-1.5 -66.5t-1.5 -80.5t-2 -104l3 -1q26 35 59.5 53.5t73.5 18.5q55 0 97.5 -27.5t66.5 -75t24 -109.5q0 -66 -29.5 -119t-81 -83.5
t-116.5 -30.5q-23 0 -49 5t-46 12v-65q0 -46 1.5 -73.5t2.5 -40.5l82 -13l-2 -38h-226zM259 42q59 0 97 43t38 122q1 48 -15.5 85t-45 58.5t-66.5 21.5q-33 0 -59.5 -14.5t-47.5 -42.5v-242q18 -15 44.5 -23t54.5 -8z" />
    <glyph glyph-name="ydieresis" unicode="&#xff;" horiz-adv-x="472" 
d="M219 -4l-176 383l-47 15l3 36h194l2 -36l-62 -15l136 -304zM475 430l3 -36l-47 -15l-170 -357l-80 -166q-22 -46 -46.5 -65t-56.5 -19q-25 0 -40.5 12t-15.5 31q0 15 12 28.5t37 20.5l93 28l-46 -50l111 214l11 18l130 305l-62 15l2 36h165zM173 529q-22 0 -37 13.5
t-15 35.5q0 21 15 35t37 14q21 0 35 -14t14 -35q0 -22 -14 -35.5t-35 -13.5zM331 529q-22 0 -36.5 13.5t-14.5 35.5q0 21 14.5 35t36.5 14t36 -14t14 -35q0 -22 -14 -35.5t-36 -13.5z" />
    <glyph glyph-name="Amacron" unicode="&#x100;" horiz-adv-x="582" 
d="M3 0l-2 38l49 14l206 518l58 35l218 -553l50 -14l-3 -38h-202l-2 38l61 14l-59 148l-11 31l-109 272l23 13l-104 -285l-11 -30l-53 -149l61 -14l-2 -38h-168zM143 185v53q19 -1 52 -2t81 -1q47 0 80.5 1t51.5 2v-53q-34 1 -67.5 1.5t-64.5 0.5q-30 0 -62.5 -0.5
t-70.5 -1.5zM142 736h286v-55h-286v55z" />
    <glyph glyph-name="amacron" unicode="&#x101;" horiz-adv-x="474" 
d="M196 -8q-40 0 -71 16t-48.5 41t-17.5 52q0 34 22 56t72 38l152 51v51q0 25 -15 45.5t-40 32.5t-56 12q-25 0 -34 -10.5t-11 -41.5l-2 -42q-36 -8 -61 2.5t-25 34.5q0 17 14.5 34t38.5 32.5t52 26.5t55 15q74 0 118.5 -39t45.5 -102l-2 -168q0 -19 1.5 -37t4.5 -27l64 -12
v-31l-49 -18q-14 -5 -26 -8.5t-20 -3.5q-31 0 -40 35l-11 39h15q-33 -37 -63.5 -55.5t-62.5 -18.5zM223 51q23 0 43 10.5t39 32.5v105l-112 -30q-24 -6 -34.5 -19t-10.5 -33q0 -25 22.5 -45.5t52.5 -20.5zM88 606h286v-55h-286v55z" />
    <glyph glyph-name="Abreve" unicode="&#x102;" horiz-adv-x="582" 
d="M3 0l-2 38l49 14l206 518l58 35l218 -553l50 -14l-3 -38h-202l-2 38l61 14l-59 148l-11 31l-109 272l23 13l-104 -285l-11 -30l-53 -149l61 -14l-2 -38h-168zM143 185v53q19 -1 52 -2t81 -1q47 0 80.5 1t51.5 2v-53q-34 1 -67.5 1.5t-64.5 0.5q-30 0 -62.5 -0.5
t-70.5 -1.5zM412 778l38 -14q-10 -56 -54.5 -87.5t-109.5 -31.5t-110 31.5t-56 87.5l42 14q10 -34 43 -53t82 -19q51 0 84 19t41 53z" />
    <glyph glyph-name="abreve" unicode="&#x103;" horiz-adv-x="474" 
d="M196 -8q-40 0 -71 16t-48.5 41t-17.5 52q0 34 22 56t72 38l152 51v51q0 25 -15 45.5t-40 32.5t-56 12q-25 0 -34 -10.5t-11 -41.5l-2 -42q-36 -8 -61 2.5t-25 34.5q0 17 14.5 34t38.5 32.5t52 26.5t55 15q74 0 118.5 -39t45.5 -102l-2 -168q0 -19 1.5 -37t4.5 -27l64 -12
v-31l-49 -18q-14 -5 -26 -8.5t-20 -3.5q-31 0 -40 35l-11 39h15q-33 -37 -63.5 -55.5t-62.5 -18.5zM223 51q23 0 43 10.5t39 32.5v105l-112 -30q-24 -6 -34.5 -19t-10.5 -33q0 -25 22.5 -45.5t52.5 -20.5zM328 677l38 -14q-2 -80 -38 -124.5t-96 -44.5q-40 0 -70 20t-47 58
t-19 91l42 14q8 -58 33 -88.5t62 -30.5q39 0 64 30.5t31 88.5z" />
    <glyph glyph-name="Aogonek" unicode="&#x104;" horiz-adv-x="582" 
d="M490 -223q-35 0 -60.5 12t-39.5 33t-14 46q0 30 19 57.5t54 50.5t83 39l7 -15h-162l-2 38l61 14l-59 148l-11 31l-109 271l23 14l-104 -285l-11 -30l-53 -149l61 -14l-2 -38h-168l-2 38l49 14l206 518l58 35l218 -553l50 -14l-3 -38q-59 -16 -96 -49t-37 -73
q0 -27 16 -43t42 -16q20 0 36.5 9.5t32.5 25.5l22 -27q-19 -23 -46 -36.5t-59 -13.5zM143 185v53q19 -1 52 -2t81 -1q47 0 80.5 1t51.5 2v-53q-34 1 -67.5 1.5t-64.5 0.5q-30 0 -62.5 -0.5t-70.5 -1.5z" />
    <glyph glyph-name="aogonek" unicode="&#x105;" horiz-adv-x="474" 
d="M374 -223q-35 0 -61 12t-39.5 33t-13.5 46q0 46 43 85t114 66l-17 -15q-37 -15 -57 -6t-25 29l-11 39h15q-33 -37 -63.5 -55.5t-62.5 -18.5q-40 0 -71 16t-48.5 41t-17.5 52q0 32 21 54.5t73 39.5l152 51v52q0 26 -15 46t-40 31.5t-56 11.5q-25 0 -34 -10.5t-11 -41.5
l-2 -42q-35 -8 -60.5 2t-25.5 35q0 16 14 33t37.5 32.5t52 27t56.5 15.5q74 0 118.5 -39t45.5 -102l-2 -168q-1 -25 2 -42.5t4 -22.5l64 -12v-30q-46 -29 -73 -54t-38.5 -46.5t-11.5 -43.5q0 -27 16 -43t42 -16q20 0 36.5 9.5t32.5 25.5l22 -27q-19 -22 -46 -36t-59 -14z
M223 51q21 0 41.5 10t40.5 33v105l-112 -30q-24 -7 -34.5 -19.5t-10.5 -32.5q0 -27 23.5 -46.5t51.5 -19.5z" />
    <glyph glyph-name="Cacute" unicode="&#x106;" horiz-adv-x="604" 
d="M368 -9q-87 0 -158.5 33.5t-114.5 100t-43 164.5q0 63 22 118.5t64.5 98t103.5 66.5t139 24q41 0 87 -8t82 -23l7 -137l-45 -4l-30 95q-19 13 -50 19.5t-60 6.5q-75 0 -122.5 -32.5t-70 -86.5t-22.5 -119q0 -85 29.5 -144t80 -89t111.5 -30q32 0 58 7t50 21l44 94l46 -5
l-28 -126q-34 -18 -81 -31t-99 -13zM370 639l-42 14l71 131l79 -23z" />
    <glyph glyph-name="cacute" unicode="&#x107;" horiz-adv-x="425" 
d="M247 -8q-56 0 -103 25.5t-75 74t-28 115.5q0 65 29.5 117.5t81 83t115.5 30.5q44 0 74 -11t45.5 -29t15.5 -38q0 -16 -10 -26.5t-28 -10.5q-16 0 -28 6t-29 24l-51 51l36 -10q-40 9 -77 -7.5t-61 -57t-24 -104.5q0 -80 40.5 -123t101.5 -43q38 0 65.5 14t52.5 45l27 -23
q-28 -52 -71 -77.5t-99 -25.5zM267 482l-40 13l99 182l80 -23z" />
    <glyph glyph-name="Ccircumflex" unicode="&#x108;" horiz-adv-x="604" 
d="M368 -9q-87 0 -158.5 33.5t-114.5 100t-43 164.5q0 63 22 118.5t64.5 98t103.5 66.5t139 24q41 0 87 -8t82 -23l7 -137l-45 -4l-30 95q-19 13 -50 19.5t-60 6.5q-75 0 -122.5 -32.5t-70 -86.5t-22.5 -119q0 -85 29.5 -144t80 -89t111.5 -30q32 0 58 7t50 21l44 94l46 -5
l-28 -126q-34 -18 -81 -31t-99 -13zM518 663l-34 -24l-165 91h60l-165 -91l-34 24l132 107h74z" />
    <glyph glyph-name="ccircumflex" unicode="&#x109;" horiz-adv-x="425" 
d="M247 -8q-56 0 -103 25.5t-75 74t-28 115.5q0 65 29.5 117.5t81 83t115.5 30.5q44 0 74 -11t45.5 -29t15.5 -38q0 -16 -10 -26.5t-28 -10.5q-16 0 -28 6t-29 24l-51 51l36 -10q-40 9 -77 -7.5t-61 -57t-24 -104.5q0 -80 40.5 -123t101.5 -43q38 0 65.5 14t52.5 45l27 -23
q-28 -52 -71 -77.5t-99 -25.5zM386 495l-39 -13l-130 152h60l-130 -152l-39 13l102 168h74z" />
    <glyph glyph-name="Cdotaccent" unicode="&#x10a;" horiz-adv-x="604" 
d="M368 -9q-87 0 -158.5 33.5t-114.5 100t-43 164.5q0 63 22 118.5t64.5 98t103.5 66.5t139 24q41 0 87 -8t82 -23l7 -137l-45 -4l-30 95q-19 13 -50 19.5t-60 6.5q-75 0 -122.5 -32.5t-70 -86.5t-22.5 -119q0 -85 29.5 -144t80 -89t111.5 -30q32 0 58 7t50 21l44 94l46 -5
l-28 -126q-34 -18 -81 -31t-99 -13zM350 659q-22 0 -38 14.5t-16 36.5t16 36.5t38 14.5t37 -14.5t15 -36.5t-15 -36.5t-37 -14.5z" />
    <glyph glyph-name="cdotaccent" unicode="&#x10b;" horiz-adv-x="425" 
d="M247 -8q-56 0 -103 25.5t-75 74t-28 115.5q0 65 29.5 117.5t81 83t115.5 30.5q44 0 74 -11t45.5 -29t15.5 -38q0 -16 -10 -26.5t-28 -10.5q-16 0 -28 6t-29 24l-51 51l36 -10q-40 9 -77 -7.5t-61 -57t-24 -104.5q0 -80 40.5 -123t101.5 -43q38 0 65.5 14t52.5 45l27 -23
q-28 -52 -71 -77.5t-99 -25.5zM248 527q-22 0 -38 14.5t-16 36.5t16 36.5t38 14.5t37 -14.5t15 -36.5t-15 -36.5t-37 -14.5z" />
    <glyph glyph-name="Ccaron" unicode="&#x10c;" horiz-adv-x="604" 
d="M368 -9q-87 0 -158.5 33.5t-114.5 100t-43 164.5q0 63 22 118.5t64.5 98t103.5 66.5t139 24q41 0 87 -8t82 -23l7 -137l-45 -4l-30 95q-19 13 -50 19.5t-60 6.5q-75 0 -122.5 -32.5t-70 -86.5t-22.5 -119q0 -85 29.5 -144t80 -89t111.5 -30q32 0 58 7t50 21l44 94l46 -5
l-28 -126q-34 -18 -81 -31t-99 -13zM180 754l34 24l165 -91h-60l165 91l34 -24l-132 -107h-74z" />
    <glyph glyph-name="ccaron" unicode="&#x10d;" horiz-adv-x="425" 
d="M247 -8q-56 0 -103 25.5t-75 74t-28 115.5q0 65 29.5 117.5t81 83t115.5 30.5q44 0 74 -11t45.5 -29t15.5 -38q0 -16 -10 -26.5t-28 -10.5q-16 0 -28 6t-29 24l-51 51l36 -10q-40 9 -77 -7.5t-61 -57t-24 -104.5q0 -80 40.5 -123t101.5 -43q38 0 65.5 14t52.5 45l27 -23
q-28 -52 -71 -77.5t-99 -25.5zM386 663l-102 -167h-74l-102 167l39 14l132 -152h-60l128 152z" />
    <glyph glyph-name="Dcaron" unicode="&#x10e;" horiz-adv-x="682" 
d="M49 587h242q158 0 246.5 -75.5t88.5 -211.5q0 -88 -41 -155.5t-114 -106t-168 -38.5h-254l-2 38l61 14q2 9 3.5 51t1.5 96v188q0 59 -1.5 100t-3.5 48l-61 14zM200 533q0 -9 -0.5 -24.5t-1 -44t-0.5 -77.5v-188q0 -30 0.5 -56.5t2 -47.5l2.5 -35q32 -4 57.5 -6.5
t49.5 -2.5q106 0 161 56.5t55 163.5q0 65 -16 115.5t-47.5 84.5t-77 51.5t-105.5 17.5q-18 0 -38 -1.5t-42 -5.5zM165 754l34 24l165 -91h-60l165 91l34 -24l-132 -107h-74z" />
    <glyph glyph-name="dcaron" unicode="&#x10f;" horiz-adv-x="539" 
d="M383 -11l-15 13l1 65l-3 1q-30 -42 -61.5 -59t-66.5 -17q-57 0 -101.5 26.5t-70.5 73.5t-26 108q0 53 18 97t49.5 75.5t71.5 48.5t83 17q28 0 57 -7t49 -22q0 18 -0.5 47t-1 60.5t-1 56t-1.5 33.5l-78 14l-2 33l147 41l18 -14q-2 -62 -3 -120t-1 -121l-1 -230
q0 -51 2.5 -87.5t3.5 -51.5l64 -16v-33zM263 59q29 0 54 12.5t51 44.5v215q-19 34 -48 48t-58 14q-63 0 -98.5 -46.5t-35.5 -120.5q0 -79 39.5 -123t95.5 -44zM502 497l-17 19q23 21 33 38.5t10 29.5t-6.5 18.5t-15 12.5t-15 14.5t-6.5 24.5q0 17 13 28t32 11q18 0 31.5 -8
t20.5 -22.5t7 -34.5t-10.5 -43t-30 -45.5t-46.5 -42.5z" />
    <glyph glyph-name="Dcroat" unicode="&#x110;" horiz-adv-x="682" 
d="M49 587h242q158 0 246.5 -75.5t88.5 -211.5q0 -88 -41 -155.5t-114 -106t-168 -38.5h-254l-2 38l61 14q2 9 3.5 51t1.5 96v188q0 59 -1.5 100t-3.5 48l-61 14zM200 533q0 -9 -0.5 -24.5t-1 -44t-0.5 -77.5v-188q0 -30 0.5 -56.5t2 -47.5l2.5 -35q32 -4 57.5 -6.5
t49.5 -2.5q106 0 161 56.5t55 163.5q0 65 -16 115.5t-47.5 84.5t-77 51.5t-105.5 17.5q-18 0 -38 -1.5t-42 -5.5zM38 269v50h324v-50h-324z" />
    <glyph glyph-name="dcroat" unicode="&#x111;" horiz-adv-x="539" 
d="M383 -11l-15 13l1 65l-3 1q-30 -42 -61.5 -59t-66.5 -17q-57 0 -101.5 26.5t-70.5 73.5t-26 108q0 53 18 97t49.5 75.5t71.5 48.5t83 17q28 0 57 -7t49 -22q0 18 -0.5 47t-1 60.5t-1 56t-1.5 33.5l-78 14l-2 33l147 41l18 -14q-2 -62 -3 -120t-1 -121l-1 -230
q0 -51 2.5 -87.5t3.5 -51.5l64 -16v-33zM263 59q29 0 54 12.5t51 44.5v215q-19 34 -48 48t-58 14q-63 0 -98.5 -46.5t-35.5 -120.5q0 -79 39.5 -123t95.5 -44zM179 499v40h338v-40h-338z" />
    <glyph glyph-name="Emacron" unicode="&#x112;" horiz-adv-x="556" 
d="M486 -5q-29 3 -51.5 4t-42.5 1h-343l-3 38l62 14q2 5 2.5 23t1 49t0.5 75v188q0 45 -0.5 76.5t-1 49.5t-2.5 22l-62 14l3 38h321q14 0 29.5 0.5t33.5 1.5t37 2l20 -132l-45 -7l-33 84q-8 2 -18 2.5t-21 0.5h-113q-19 0 -33.5 -0.5t-28.5 -2.5q0 -4 -0.5 -22.5t-1 -42.5
t-0.5 -48v-270q0 -20 0.5 -40.5t1 -36.5t0.5 -22q14 -1 29.5 -2t34.5 -1h97q22 0 36 0.5t22 1.5t13 2l52 95l45 -9zM375 205l-12 68q-5 2 -17 3t-29 1h-76q-13 0 -28 -1t-32 -2v55q17 -1 32 -1.5t28 -0.5h76q17 0 29 1t17 2l12 69h43v-194h-43zM137 736h286v-55h-286v55z
" />
    <glyph glyph-name="emacron" unicode="&#x113;" horiz-adv-x="450" 
d="M248 -8q-58 0 -104.5 26t-74 74.5t-27.5 114.5q0 71 29 123t76 80.5t101 27.5q78 -1 122 -52t44 -144v-18h-307v44h241l-11 -13v21q0 58 -26 89t-71 31q-28 0 -54 -16.5t-42 -50t-16 -84.5v-12q0 -82 40.5 -128t104.5 -46q35 0 63 14t54 45l25 -23q-28 -52 -71 -77.5
t-96 -25.5zM97 606h286v-55h-286v55z" />
    <glyph glyph-name="Ebreve" unicode="&#x114;" horiz-adv-x="556" 
d="M486 -5q-29 3 -51.5 4t-42.5 1h-343l-3 38l62 14q2 5 2.5 23t1 49t0.5 75v188q0 45 -0.5 76.5t-1 49.5t-2.5 22l-62 14l3 38h321q14 0 29.5 0.5t33.5 1.5t37 2l20 -132l-45 -7l-33 84q-8 2 -18 2.5t-21 0.5h-113q-19 0 -33.5 -0.5t-28.5 -2.5q0 -4 -0.5 -22.5t-1 -42.5
t-0.5 -48v-270q0 -20 0.5 -40.5t1 -36.5t0.5 -22q14 -1 29.5 -2t34.5 -1h97q22 0 36 0.5t22 1.5t13 2l52 95l45 -9zM375 205l-12 68q-5 2 -17 3t-29 1h-76q-13 0 -28 -1t-32 -2v55q17 -1 32 -1.5t28 -0.5h76q17 0 29 1t17 2l12 69h43v-194h-43zM407 778l38 -14
q-10 -56 -54.5 -87.5t-109.5 -31.5t-110 31.5t-56 87.5l42 14q10 -34 43 -53t82 -19q51 0 84 19t41 53z" />
    <glyph glyph-name="ebreve" unicode="&#x115;" horiz-adv-x="450" 
d="M248 -8q-58 0 -104.5 26t-74 74.5t-27.5 114.5q0 71 29 123t76 80.5t101 27.5q78 -1 122 -52t44 -144v-18h-307v44h241l-11 -13v21q0 58 -26 89t-71 31q-28 0 -54 -16.5t-42 -50t-16 -84.5v-12q0 -82 40.5 -128t104.5 -46q35 0 63 14t54 45l25 -23q-28 -52 -71 -77.5
t-96 -25.5zM337 677l38 -14q-2 -80 -38 -124.5t-96 -44.5q-40 0 -70 20t-47 58t-19 91l42 14q8 -58 33 -88.5t62 -30.5q39 0 64 30.5t31 88.5z" />
    <glyph glyph-name="Edotaccent" unicode="&#x116;" horiz-adv-x="556" 
d="M486 -5q-29 3 -51.5 4t-42.5 1h-343l-3 38l62 14q2 5 2.5 23t1 49t0.5 75v188q0 45 -0.5 76.5t-1 49.5t-2.5 22l-62 14l3 38h321q14 0 29.5 0.5t33.5 1.5t37 2l20 -132l-45 -7l-33 84q-8 2 -18 2.5t-21 0.5h-113q-19 0 -33.5 -0.5t-28.5 -2.5q0 -4 -0.5 -22.5t-1 -42.5
t-0.5 -48v-270q0 -20 0.5 -40.5t1 -36.5t0.5 -22q14 -1 29.5 -2t34.5 -1h97q22 0 36 0.5t22 1.5t13 2l52 95l45 -9zM375 205l-12 68q-5 2 -17 3t-29 1h-76q-13 0 -28 -1t-32 -2v55q17 -1 32 -1.5t28 -0.5h76q17 0 29 1t17 2l12 69h43v-194h-43zM281 659q-22 0 -38 14.5
t-16 36.5t16 36.5t38 14.5t37 -14.5t15 -36.5t-15 -36.5t-37 -14.5z" />
    <glyph glyph-name="edotaccent" unicode="&#x117;" horiz-adv-x="450" 
d="M248 -8q-58 0 -104.5 26t-74 74.5t-27.5 114.5q0 71 29 123t76 80.5t101 27.5q78 -1 122 -52t44 -144v-18h-307v44h241l-11 -13v21q0 58 -26 89t-71 31q-28 0 -54 -16.5t-42 -50t-16 -84.5v-12q0 -82 40.5 -128t104.5 -46q35 0 63 14t54 45l25 -23q-28 -52 -71 -77.5
t-96 -25.5zM241 527q-22 0 -38 14.5t-16 36.5t16 36.5t38 14.5t37 -14.5t15 -36.5t-15 -36.5t-37 -14.5z" />
    <glyph glyph-name="Eogonek" unicode="&#x118;" horiz-adv-x="556" 
d="M438 -223q-34 0 -60 11.5t-40.5 32.5t-14.5 47q0 37 28 70.5t77 61.5h-379l-3 38l62 14q2 5 2.5 23t1 49t0.5 75v188q0 45 -0.5 76.5t-1 49.5t-2.5 22l-62 14l3 38h321q14 0 29.5 0.5t33.5 1.5t37 2l20 -132l-45 -7l-33 84q-8 2 -18 2.5t-21 0.5h-113q-19 0 -33.5 -0.5
t-28.5 -2.5q0 -4 -0.5 -22.5t-1 -42.5t-0.5 -48v-270q0 -20 0.5 -40.5t1 -36.5t0.5 -22q14 -1 29.5 -2t34.5 -1h97q22 0 36 0.5t22 1.5t13 2l52 95l45 -9l-39 -141q-94 -58 -94 -122q0 -27 16 -43t41 -16q34 0 69 35l23 -27q-44 -50 -105 -50zM375 205l-12 68q-5 2 -17 3
t-29 1h-76q-13 0 -28 -1t-32 -2v55q17 -1 32 -1.5t28 -0.5h76q17 0 29 1t17 2l12 69h43v-194h-43z" />
    <glyph glyph-name="eogonek" unicode="&#x119;" horiz-adv-x="450" 
d="M395 -146l21 -27q-19 -22 -45.5 -36t-59.5 -14q-34 0 -59.5 12t-39.5 33t-14 46q0 40 33 77t94 74l-5 -13q-16 -8 -35 -11t-37 -3q-58 0 -104.5 26t-74 74t-27.5 114q0 72 29 124t76 80.5t101 27.5q78 -1 122 -52t44 -144v-18h-307v44h241l-11 -13v21q0 58 -26 89t-71 31
q-28 0 -54 -16.5t-42 -50t-16 -84.5v-12q0 -82 40.5 -128t104.5 -46q35 0 63 14t54 45l25 -23q-10 -16 -20.5 -30.5t-21.5 -25.5q-55 -58 -80.5 -93.5t-25.5 -67.5q0 -27 16 -43t43 -16q19 0 36 9.5t33 25.5z" />
    <glyph glyph-name="Ecaron" unicode="&#x11a;" horiz-adv-x="556" 
d="M486 -5q-29 3 -51.5 4t-42.5 1h-343l-3 38l62 14q2 5 2.5 23t1 49t0.5 75v188q0 45 -0.5 76.5t-1 49.5t-2.5 22l-62 14l3 38h321q14 0 29.5 0.5t33.5 1.5t37 2l20 -132l-45 -7l-33 84q-8 2 -18 2.5t-21 0.5h-113q-19 0 -33.5 -0.5t-28.5 -2.5q0 -4 -0.5 -22.5t-1 -42.5
t-0.5 -48v-270q0 -20 0.5 -40.5t1 -36.5t0.5 -22q14 -1 29.5 -2t34.5 -1h97q22 0 36 0.5t22 1.5t13 2l52 95l45 -9zM375 205l-12 68q-5 2 -17 3t-29 1h-76q-13 0 -28 -1t-32 -2v55q17 -1 32 -1.5t28 -0.5h76q17 0 29 1t17 2l12 69h43v-194h-43zM111 754l34 24l165 -91h-60
l165 91l34 -24l-132 -107h-74z" />
    <glyph glyph-name="ecaron" unicode="&#x11b;" horiz-adv-x="450" 
d="M248 -8q-58 0 -104.5 26t-74 74.5t-27.5 114.5q0 71 29 123t76 80.5t101 27.5q78 -1 122 -52t44 -144v-18h-307v44h241l-11 -13v21q0 58 -26 89t-71 31q-28 0 -54 -16.5t-42 -50t-16 -84.5v-12q0 -82 40.5 -128t104.5 -46q35 0 63 14t54 45l25 -23q-28 -52 -71 -77.5
t-96 -25.5zM379 663l-102 -167h-74l-102 167l39 14l132 -152h-60l128 152z" />
    <glyph glyph-name="Gcircumflex" unicode="&#x11c;" horiz-adv-x="648" 
d="M374 -9q-91 0 -164 33.5t-116 99.5t-43 164q0 63 22.5 118.5t65 98.5t104 67t140.5 24q41 0 88 -8t81 -23l6 -131l-44 -4l-29 89q-19 14 -50.5 20t-59.5 6q-77 0 -126 -32.5t-71.5 -86.5t-22.5 -119q0 -85 30.5 -144t82.5 -89.5t117 -30.5q29 0 63 8.5t61 27.5l-24 -56
v105q0 32 -1 57.5t-3 38.5l-68 11l2 40h195l2 -38l-44 -12v-24v-46q0 -34 1 -58.5t2 -50.5q-39 -25 -93.5 -40t-103.5 -15zM521 663l-34 -24l-165 91h60l-165 -91l-34 24l132 107h74z" />
    <glyph glyph-name="gcircumflex" unicode="&#x11d;" horiz-adv-x="495" 
d="M233 -228q-92 0 -146 30t-54 80q0 34 27 63t87 59l38 -8q-33 -19 -51 -44.5t-18 -54.5q0 -40 32.5 -62t88.5 -22q65 0 105 28t40 72q0 34 -24.5 50.5t-80.5 20.5l-107 9l-15 4q-37 0 -62.5 19.5t-25.5 47.5q0 27 26 53t72 46l13 -20q-19 -13 -28 -23.5t-9 -20.5
q0 -14 12.5 -24t35.5 -12l129 -13q69 -7 105 -35t36 -80q0 -46 -30 -83t-81 -58.5t-115 -21.5zM241 124q-53 0 -94.5 19t-64.5 52.5t-23 76.5q0 47 24 84.5t65 59t92 21.5t91.5 -20t63.5 -55.5t23 -80.5q0 -44 -23.5 -80t-63.5 -56.5t-90 -20.5zM246 164q41 0 65 30t24 80
q0 56 -26.5 90t-69.5 34q-41 0 -67 -32t-26 -83q0 -53 27.5 -86t72.5 -33zM478 365l-119 8l-39 40l158 16v-64zM380 495l-39 -13l-130 152h60l-130 -152l-39 13l102 168h74z" />
    <glyph glyph-name="Gbreve" unicode="&#x11e;" horiz-adv-x="648" 
d="M374 -9q-91 0 -164 33.5t-116 99.5t-43 164q0 63 22.5 118.5t65 98.5t104 67t140.5 24q41 0 88 -8t81 -23l6 -131l-44 -4l-29 89q-19 14 -50.5 20t-59.5 6q-77 0 -126 -32.5t-71.5 -86.5t-22.5 -119q0 -85 30.5 -144t82.5 -89.5t117 -30.5q29 0 63 8.5t61 27.5l-24 -56
v105q0 32 -1 57.5t-3 38.5l-68 11l2 40h195l2 -38l-44 -12v-24v-46q0 -34 1 -58.5t2 -50.5q-39 -25 -93.5 -40t-103.5 -15zM479 778l38 -14q-10 -56 -54.5 -87.5t-109.5 -31.5t-110 31.5t-56 87.5l42 14q10 -34 43 -53t82 -19q51 0 84 19t41 53z" />
    <glyph glyph-name="gbreve" unicode="&#x11f;" horiz-adv-x="495" 
d="M233 -228q-92 0 -146 30t-54 80q0 34 27 63t87 59l38 -8q-33 -19 -51 -44.5t-18 -54.5q0 -40 32.5 -62t88.5 -22q65 0 105 28t40 72q0 34 -24.5 50.5t-80.5 20.5l-107 9l-15 4q-37 0 -62.5 19.5t-25.5 47.5q0 27 26 53t72 46l13 -20q-19 -13 -28 -23.5t-9 -20.5
q0 -14 12.5 -24t35.5 -12l129 -13q69 -7 105 -35t36 -80q0 -46 -30 -83t-81 -58.5t-115 -21.5zM241 124q-53 0 -94.5 19t-64.5 52.5t-23 76.5q0 47 24 84.5t65 59t92 21.5t91.5 -20t63.5 -55.5t23 -80.5q0 -44 -23.5 -80t-63.5 -56.5t-90 -20.5zM246 164q41 0 65 30t24 80
q0 56 -26.5 90t-69.5 34q-41 0 -67 -32t-26 -83q0 -53 27.5 -86t72.5 -33zM478 365l-119 8l-39 40l158 16v-64zM338 677l38 -14q-2 -80 -38 -124.5t-96 -44.5q-40 0 -70 20t-47 58t-19 91l42 14q8 -58 33 -88.5t62 -30.5q39 0 64 30.5t31 88.5z" />
    <glyph glyph-name="Gdotaccent" unicode="&#x120;" horiz-adv-x="648" 
d="M374 -9q-91 0 -164 33.5t-116 99.5t-43 164q0 63 22.5 118.5t65 98.5t104 67t140.5 24q41 0 88 -8t81 -23l6 -131l-44 -4l-29 89q-19 14 -50.5 20t-59.5 6q-77 0 -126 -32.5t-71.5 -86.5t-22.5 -119q0 -85 30.5 -144t82.5 -89.5t117 -30.5q29 0 63 8.5t61 27.5l-24 -56
v105q0 32 -1 57.5t-3 38.5l-68 11l2 40h195l2 -38l-44 -12v-24v-46q0 -34 1 -58.5t2 -50.5q-39 -25 -93.5 -40t-103.5 -15zM353 659q-22 0 -38 14.5t-16 36.5t16 36.5t38 14.5t37 -14.5t15 -36.5t-15 -36.5t-37 -14.5z" />
    <glyph glyph-name="gdotaccent" unicode="&#x121;" horiz-adv-x="495" 
d="M233 -228q-92 0 -146 30t-54 80q0 34 27 63t87 59l38 -8q-33 -19 -51 -44.5t-18 -54.5q0 -40 32.5 -62t88.5 -22q65 0 105 28t40 72q0 34 -24.5 50.5t-80.5 20.5l-107 9l-15 4q-37 0 -62.5 19.5t-25.5 47.5q0 27 26 53t72 46l13 -20q-19 -13 -28 -23.5t-9 -20.5
q0 -14 12.5 -24t35.5 -12l129 -13q69 -7 105 -35t36 -80q0 -46 -30 -83t-81 -58.5t-115 -21.5zM241 124q-53 0 -94.5 19t-64.5 52.5t-23 76.5q0 47 24 84.5t65 59t92 21.5t91.5 -20t63.5 -55.5t23 -80.5q0 -44 -23.5 -80t-63.5 -56.5t-90 -20.5zM246 164q41 0 65 30t24 80
q0 56 -26.5 90t-69.5 34q-41 0 -67 -32t-26 -83q0 -53 27.5 -86t72.5 -33zM478 365l-119 8l-39 40l158 16v-64zM242 527q-22 0 -38 14.5t-16 36.5t16 36.5t38 14.5t37 -14.5t15 -36.5t-15 -36.5t-37 -14.5z" />
    <glyph glyph-name="uni0122" unicode="&#x122;" horiz-adv-x="648" 
d="M374 -9q-91 0 -164 33.5t-116 99.5t-43 164q0 63 22.5 118.5t65 98.5t104 67t140.5 24q41 0 88 -8t81 -23l6 -131l-44 -4l-29 89q-19 14 -50.5 20t-59.5 6q-77 0 -126 -32.5t-71.5 -86.5t-22.5 -119q0 -85 30.5 -144t82.5 -89.5t117 -30.5q29 0 63 8.5t61 27.5l-24 -56
v105q0 32 -1 57.5t-3 38.5l-68 11l2 40h195l2 -38l-44 -12v-24v-46q0 -34 1 -58.5t2 -50.5q-39 -25 -93.5 -40t-103.5 -15zM287 -286l-12 26q33 10 51 26t18 32q0 12 -6.5 18.5t-15.5 12t-15.5 14t-6.5 24.5q0 17 13 28.5t32 11.5q18 0 31.5 -8t20.5 -22.5t7 -34.5
q0 -27 -14.5 -52.5t-40.5 -45t-62 -30.5z" />
    <glyph glyph-name="uni0123" unicode="&#x123;" horiz-adv-x="495" 
d="M233 -228q-92 0 -146 30t-54 80q0 34 27 63t87 59l38 -8q-33 -19 -51 -44.5t-18 -54.5q0 -40 32.5 -62t88.5 -22q65 0 105 28t40 72q0 34 -24.5 50.5t-80.5 20.5l-107 9l-15 4q-37 0 -62.5 19.5t-25.5 47.5q0 27 26 53t72 46l13 -20q-19 -13 -28 -23.5t-9 -20.5
q0 -14 12.5 -24t35.5 -12l129 -13q69 -7 105 -35t36 -80q0 -46 -30 -83t-81 -58.5t-115 -21.5zM241 124q-53 0 -94.5 19t-64.5 52.5t-23 76.5q0 47 24 84.5t65 59t92 21.5t91.5 -20t63.5 -55.5t23 -80.5q0 -44 -23.5 -80t-63.5 -56.5t-90 -20.5zM246 164q41 0 65 30t24 80
q0 56 -26.5 90t-69.5 34q-41 0 -67 -32t-26 -83q0 -53 27.5 -86t72.5 -33zM478 365l-119 8l-39 40l158 16v-64zM306 686l12 -26q-33 -10 -51 -25.5t-18 -32.5q0 -12 6.5 -18.5t15.5 -12.5t15.5 -14.5t6.5 -24.5t-12.5 -27.5t-32.5 -11.5q-18 0 -31 8t-20.5 22.5t-7.5 33.5
q0 28 14.5 53.5t41 45t61.5 30.5z" />
    <glyph glyph-name="Hcircumflex" unicode="&#x124;" horiz-adv-x="672" 
d="M409 0l-2 38l61 14q2 4 3.5 20.5t2 47.5t0.5 79v188q0 49 -0.5 80.5t-2 48t-3.5 19.5l-61 14l2 38h215l3 -38l-62 -14q-2 -3 -3.5 -19.5t-2 -48t-0.5 -80.5v-188q0 -48 0.5 -79t2 -47.5t3.5 -20.5l62 -14l-3 -38h-215zM49 0l-3 38l62 14q2 5 2.5 23t1 49t0.5 75v188
q0 45 -0.5 76.5t-1 49.5t-2.5 22l-62 14l3 38h213l2 -38l-61 -14q-2 -3 -3.5 -19.5t-2 -48t-0.5 -80.5v-188q0 -48 0.5 -79t2 -47.5t3.5 -20.5l61 -14l-2 -38h-213zM185 272v59q20 -1 58.5 -2t93.5 -1q54 0 92 1t56 2v-59q-22 2 -57 3t-91 1q-58 0 -94 -1t-58 -3zM505 663
l-34 -24l-165 91h60l-165 -91l-34 24l132 107h74z" />
    <glyph glyph-name="hcircumflex" unicode="&#x125;" horiz-adv-x="550" 
d="M31 0l-2 36l62 15q2 11 3 33.5t1.5 60.5t0.5 93v125q0 34 -0.5 73t-1 75.5t-1 63.5t-1.5 36l-74 10l-2 32l141 41l19 -14l-2 -62t-1.5 -66.5t-1 -80.5t-0.5 -104l3 -1q35 38 68.5 55t73.5 17q37 0 69.5 -19t53 -57.5t20.5 -98.5v-108q0 -36 2 -64.5t4 -39.5l62 -15
l-2 -36h-201l-3 36l58 15q1 8 2 20t1.5 30.5t0.5 46.5v108q0 43 -14.5 69.5t-37.5 39t-49 12.5q-32 0 -61 -16.5t-49 -45.5v-150q0 -46 1.5 -76t3.5 -38l61 -15l-2 -36h-205zM303 736l-34 -24l-165 91h60l-165 -91l-34 24l132 107h74z" />
    <glyph glyph-name="Hbar" unicode="&#x126;" horiz-adv-x="672" 
d="M409 0l-2 38l61 14q2 4 3.5 20.5t2 47.5t0.5 79v188q0 49 -0.5 80.5t-2 48t-3.5 19.5l-61 14l2 38h215l3 -38l-62 -14q-2 -3 -3.5 -19.5t-2 -48t-0.5 -80.5v-188q0 -48 0.5 -79t2 -47.5t3.5 -20.5l62 -14l-3 -38h-215zM49 0l-3 38l62 14q2 5 2.5 23t1 49t0.5 75v188
q0 45 -0.5 76.5t-1 49.5t-2.5 22l-62 14l3 38h213l2 -38l-61 -14q-2 -3 -3.5 -19.5t-2 -48t-0.5 -80.5v-188q0 -48 0.5 -79t2 -47.5t3.5 -20.5l61 -14l-2 -38h-213zM185 272v59q20 -1 58.5 -2t93.5 -1q54 0 92 1t56 2v-59q-22 2 -57 3t-91 1q-58 0 -94 -1t-58 -3zM37 409v50
h597v-50h-597z" />
    <glyph glyph-name="hbar" unicode="&#x127;" horiz-adv-x="550" 
d="M31 0l-2 36l62 15q2 11 3 33.5t1.5 60.5t0.5 93v125q0 34 -0.5 73t-1 75.5t-1 63.5t-1.5 36l-74 10l-2 32l141 41l19 -14l-2 -62t-1.5 -66.5t-1 -80.5t-0.5 -104l3 -1q35 38 68.5 55t73.5 17q37 0 69.5 -19t53 -57.5t20.5 -98.5v-108q0 -36 2 -64.5t4 -39.5l62 -15
l-2 -36h-201l-3 36l58 15q1 8 2 20t1.5 30.5t0.5 46.5v108q0 43 -14.5 69.5t-37.5 39t-49 12.5q-32 0 -61 -16.5t-49 -45.5v-150q0 -46 1.5 -76t3.5 -38l61 -15l-2 -36h-205zM28 499v40h338v-40h-338z" />
    <glyph glyph-name="Itilde" unicode="&#x128;" horiz-adv-x="310" 
d="M49 0l-2 38l61 14q2 5 2.5 23t1 49t0.5 75v188q0 45 -0.5 76.5t-1 49.5t-2.5 22l-61 14l2 38h213l2 -38l-61 -14q-2 -3 -3.5 -19.5t-2 -48t-0.5 -80.5v-188q0 -48 0.5 -79t2 -47.5t3.5 -20.5l61 -14l-2 -38h-213zM323 762l32 -17q-17 -44 -48.5 -70.5t-72.5 -26.5
q-30 0 -60.5 14t-59.5 28t-54 14q-26 0 -42 -13t-31 -36l-32 17q17 44 49 70t72 26q30 0 60.5 -13.5t60 -27t54.5 -13.5t41 13t31 35z" />
    <glyph glyph-name="itilde" unicode="&#x129;" horiz-adv-x="268" 
d="M27 0l-2 37l67 14q1 4 1.5 14t1.5 32t1 61v66q0 41 -2 75t-5 53l-67 14v33l142 37l15 -14q-3 -31 -4.5 -61t-1.5 -70v-126q0 -46 1.5 -76t3.5 -38l67 -14l-2 -37h-216zM272 633l32 -19q-14 -43 -40.5 -69.5t-60.5 -26.5q-25 0 -50.5 14t-49.5 27.5t-46 13.5t-35 -13
t-26 -36l-32 19q14 44 40.5 70t60.5 26q25 0 50.5 -13.5t50 -27.5t46.5 -14q20 0 33.5 13.5t26.5 35.5z" />
    <glyph glyph-name="Imacron" unicode="&#x12a;" horiz-adv-x="310" 
d="M49 0l-2 38l61 14q2 5 2.5 23t1 49t0.5 75v188q0 45 -0.5 76.5t-1 49.5t-2.5 22l-61 14l2 38h213l2 -38l-61 -14q-2 -3 -3.5 -19.5t-2 -48t-0.5 -80.5v-188q0 -48 0.5 -79t2 -47.5t3.5 -20.5l61 -14l-2 -38h-213zM12 736h286v-55h-286v55z" />
    <glyph glyph-name="imacron" unicode="&#x12b;" horiz-adv-x="268" 
d="M27 0l-2 37l67 14q1 4 1.5 14t1.5 32t1 61v66q0 41 -2 75t-5 53l-67 14v33l142 37l15 -14q-3 -31 -4.5 -61t-1.5 -70v-126q0 -46 1.5 -76t3.5 -38l67 -14l-2 -37h-216zM-9 606h286v-55h-286v55z" />
    <glyph glyph-name="Ibreve" unicode="&#x12c;" horiz-adv-x="310" 
d="M49 0l-2 38l61 14q2 5 2.5 23t1 49t0.5 75v188q0 45 -0.5 76.5t-1 49.5t-2.5 22l-61 14l2 38h213l2 -38l-61 -14q-2 -3 -3.5 -19.5t-2 -48t-0.5 -80.5v-188q0 -48 0.5 -79t2 -47.5t3.5 -20.5l61 -14l-2 -38h-213zM282 778l38 -14q-10 -56 -54.5 -87.5t-109.5 -31.5
t-110 31.5t-56 87.5l42 14q10 -34 43 -53t82 -19q51 0 84 19t41 53z" />
    <glyph glyph-name="ibreve" unicode="&#x12d;" horiz-adv-x="268" 
d="M27 0l-2 37l67 14q1 4 1.5 14t1.5 32t1 61v66q0 41 -2 75t-5 53l-67 14v33l142 37l15 -14q-3 -31 -4.5 -61t-1.5 -70v-126q0 -46 1.5 -76t3.5 -38l67 -14l-2 -37h-216zM231 677l38 -14q-2 -80 -38 -124.5t-96 -44.5q-40 0 -70 20t-47 58t-19 91l42 14q8 -58 33 -88.5
t62 -30.5q39 0 64 30.5t31 88.5z" />
    <glyph glyph-name="Iogonek" unicode="&#x12e;" horiz-adv-x="310" 
d="M197 199q0 -47 0.5 -78t2.5 -48t4 -21l60 -14l-2 -38q-41 0 -74.5 -15.5t-53.5 -41.5t-20 -58q0 -31 14.5 -48.5t41.5 -17.5q32 0 65 34l23 -26q-19 -24 -45 -37t-55 -13q-49 0 -82 28t-33 70q0 50 40 86.5t107 49.5l4 -11h-145l-2 38l61 14q2 5 2.5 23t1 49t0.5 75v188
q0 45 -0.5 76.5t-1 49.5t-2.5 22l-61 14l2 38h213l2 -38l-61 -14q-2 -3 -3.5 -20t-2 -48.5t-0.5 -79.5v-188z" />
    <glyph glyph-name="iogonek" unicode="&#x12f;" horiz-adv-x="269" 
d="M141 -223q-35 0 -60.5 12t-39.5 33t-14 46q0 35 20 63.5t54 49t76 29.5l12 -10h-162l-2 37l67 14q1 4 1.5 14t1.5 32t1 61v66q1 41 -1.5 75t-5.5 53l-67 14v33l142 37l15 -14q-3 -31 -4.5 -61t-1.5 -70v-126q0 -46 1.5 -76t3.5 -38l67 -14l-2 -37q-28 -1 -54.5 -11
t-47 -26.5t-32.5 -37.5t-12 -44q0 -29 16 -45.5t42 -16.5q20 0 37 9.5t33 25.5l21 -27q-19 -22 -45.5 -36t-59.5 -14zM135 549q-25 0 -43.5 17t-18.5 42t18.5 42t43.5 17q26 0 43 -17t17 -42t-17 -42t-43 -17z" />
    <glyph glyph-name="Idotaccent" unicode="&#x130;" horiz-adv-x="310" 
d="M49 0l-2 38l61 14q2 5 2.5 23t1 49t0.5 75v188q0 45 -0.5 76.5t-1 49.5t-2.5 22l-61 14l2 38h213l2 -38l-61 -14q-2 -3 -3.5 -19.5t-2 -48t-0.5 -80.5v-188q0 -48 0.5 -79t2 -47.5t3.5 -20.5l61 -14l-2 -38h-213zM156 659q-22 0 -38 14.5t-16 36.5t16 36.5t38 14.5
t37 -14.5t15 -36.5t-15 -36.5t-37 -14.5z" />
    <glyph glyph-name="dotlessi" unicode="&#x131;" horiz-adv-x="268" 
d="M27 0l-2 37l67 14q1 4 1.5 14t1.5 32t1 61v66q0 41 -2 75t-5 53l-67 14v33l142 37l15 -14q-3 -31 -4.5 -61t-1.5 -70v-126q0 -46 1.5 -76t3.5 -38l67 -14l-2 -37h-216z" />
    <glyph glyph-name="IJ" unicode="&#x132;" horiz-adv-x="620" 
d="M49 0l-2 38l61 14q2 5 2.5 23t1 49t0.5 75v188q0 45 -0.5 76.5t-1 49.5t-2.5 22l-61 14l2 38h213l2 -38l-61 -14q-2 -3 -3.5 -19.5t-2 -48t-0.5 -80.5v-188q0 -48 0.5 -79t2 -47.5t3.5 -20.5l61 -14l-2 -38h-213zM513 535q-2 -3 -3.5 -20t-2 -48.5t-0.5 -79.5l1 -371
q0 -70 -19.5 -119t-55.5 -74.5t-86 -25.5q-46 0 -80 21.5t-34 49.5q0 17 10.5 27t28.5 10q14 0 26.5 -6t25.5 -20l52 -52l-35 12q29 -5 46.5 7.5t26 43.5t8.5 83v414q0 44 -0.5 75t-1 49.5t-2.5 23.5l-68 14l2 38h220l2 -38z" />
    <glyph glyph-name="ij" unicode="&#x133;" horiz-adv-x="521" 
d="M27 0l-2 37l67 14q1 4 1.5 14t1.5 32t1 61v66q0 41 -2 75t-5 53l-67 14v33l142 37l15 -14q-3 -31 -4.5 -61t-1.5 -70v-126q0 -46 1.5 -76t3.5 -38l67 -14l-2 -37h-216zM135 549q-25 0 -43.5 17t-18.5 42t18.5 42t43.5 17q26 0 43 -17t17 -42t-17 -42t-43 -17zM282 -228
q-41 0 -68 18.5t-27 43.5q0 14 8.5 22.5t23.5 8.5q14 0 24.5 -5t23.5 -17l45 -44l-23 7q19 0 36 12.5t27.5 42.5t10.5 81l1 303q0 42 -3 70t-5 38l-67 13v33l142 37l15 -14q-2 -26 -3.5 -55.5t-1.5 -75.5l1 -307q0 -66 -21 -113.5t-57.5 -73t-81.5 -25.5zM404 549
q-25 0 -43.5 17t-18.5 42t18.5 42t43.5 17q26 0 43 -17t17 -42t-17 -42t-43 -17z" />
    <glyph glyph-name="Jcircumflex" unicode="&#x134;" horiz-adv-x="310" 
d="M203 535q-2 -3 -3.5 -20t-2 -48.5t-0.5 -79.5l1 -371q0 -70 -19.5 -119t-55.5 -74.5t-86 -25.5q-46 0 -80 21.5t-34 49.5q0 17 10.5 27t28.5 10q14 0 26.5 -6t25.5 -20l52 -52l-35 12q29 -5 46.5 7.5t26 43.5t8.5 83v414q0 44 -0.5 75t-1 49.5t-2.5 23.5l-68 14l2 38h220
l2 -38zM324 663l-34 -24l-165 91h60l-165 -91l-34 24l132 107h74z" />
    <glyph glyph-name="jcircumflex" unicode="&#x135;" horiz-adv-x="253" 
d="M13 -231l-19 34q53 30 77 71t24 109l1 262q0 42 -3 70t-5 38l-67 13v33l142 37l15 -14q-2 -26 -3.5 -55.5t-1.5 -75.5l1 -293q0 -36 -9.5 -69t-29.5 -62t-50 -53.5t-72 -44.5zM273 495l-39 -13l-130 152h60l-130 -152l-39 13l102 168h74z" />
    <glyph glyph-name="uni0136" unicode="&#x136;" horiz-adv-x="588" 
d="M363 0l-2 38l60 10q-7 11 -16.5 23.5t-22.5 26.5l-153 174h-42v37l53 14l206 213l-61 13l2 38h193l2 -40l-58 -10l-241 -228l3 30l191 -213q17 -18 29.5 -32.5t22.5 -25t17 -17.5l50 -12v-39h-233zM51 0l-3 38l61 14q2 7 3 44t1 103v188q0 45 -0.5 76.5t-1 49.5t-2.5 22
l-62 14l3 38h213l2 -38l-61 -14q-2 -3 -3.5 -20t-2 -48.5t-0.5 -79.5v-188q0 -66 1.5 -103t2.5 -44l61 -14l-3 -38h-209zM251 -286l-12 26q33 10 51 26t18 32q0 12 -6.5 18.5t-15.5 12t-15.5 14t-6.5 24.5q0 17 13 28.5t32 11.5q18 0 31.5 -8t20.5 -22.5t7 -34.5
q0 -27 -14.5 -52.5t-40.5 -45t-62 -30.5z" />
    <glyph glyph-name="uni0137" unicode="&#x137;" horiz-adv-x="489" 
d="M36 0l-2 36l57 15q1 10 2 32.5t2 57t1 77.5v145q0 38 -0.5 77.5t-1 75.5t-1.5 61t-1 34l-74 10l-2 32l141 41l20 -14q-1 -34 -2 -66.5t-2 -67t-1 -73v-83.5l-1 -245q0 -26 1 -45.5t2 -31.5t1 -17l62 -15l-2 -36h-199zM484 0h-114q-18 24 -28 36t-21 23l-137 149h-28l1 24
l38 11l139 138l-66 12l2 37h201l2 -37l-66 -12l-179 -161l15 36l141 -152q13 -13 29.5 -30t28.5 -28l45 -9zM198 -286l-12 26q33 10 51 26t18 32q0 12 -6.5 18.5t-15.5 12t-15.5 14t-6.5 24.5q0 17 13 28.5t32 11.5q18 0 31.5 -8t20.5 -22.5t7 -34.5q0 -27 -14.5 -52.5
t-40.5 -45t-62 -30.5z" />
    <glyph glyph-name="kgreenlandic" unicode="&#x138;" horiz-adv-x="489" 
d="M31 0l-2 36l62 15q1 4 1.5 14t1.5 32t1 61l1 67q0 41 -2.5 74.5t-5.5 52.5l-64 14v33l139 37l14 -14q-2 -31 -3.5 -61t-1.5 -70v-126q0 -46 1.5 -74.5t3.5 -39.5l62 -15l-3 -36h-205zM485 0h-114q-18 24 -28.5 36t-20.5 23l-137 149h-29l1 24l39 11l139 138l-66 12l2 37
h201l2 -37l-66 -12l-179 -161l15 36l141 -152q12 -13 29 -30l28 -28l45 -9z" />
    <glyph glyph-name="Lacute" unicode="&#x139;" horiz-adv-x="511" 
d="M467 -5q-14 2 -31.5 3t-34.5 1.5t-31 0.5h-320l-2 38l61 14q1 5 2 23t1.5 49t0.5 75v188v76t-1 49t-3 22l-61 15l2 38h235l3 -40l-83 -13q-2 -3 -3.5 -19.5t-2 -48t-0.5 -79.5v-188q0 -52 1 -90.5t2 -49.5q14 -1 29 -2t34 -1h75q23 0 39 1t32 3l52 98l45 -10zM177 639
l-42 14l71 131l79 -23z" />
    <glyph glyph-name="lacute" unicode="&#x13a;" horiz-adv-x="269" 
d="M28 0l-2 37l65 14q2 10 3 33t1.5 61t0.5 93v125q0 38 -0.5 78t-1 75.5t-1 61t-1.5 33.5l-74 10l-2 32l143 41l19 -14l-2 -84t-1.5 -93t-0.5 -123l-1 -161q0 -59 1.5 -106.5t3.5 -61.5l65 -14l-2 -37h-213zM156 712l-42 14l71 131l79 -23z" />
    <glyph glyph-name="uni013B" unicode="&#x13b;" horiz-adv-x="511" 
d="M467 -5q-14 2 -31.5 3t-34.5 1.5t-31 0.5h-320l-2 38l61 14q1 5 2 23t1.5 49t0.5 75v188v76t-1 49t-3 22l-61 15l2 38h235l3 -40l-83 -13q-2 -3 -3.5 -19.5t-2 -48t-0.5 -79.5v-188q0 -52 1 -90.5t2 -49.5q14 -1 29 -2t34 -1h75q23 0 39 1t32 3l52 98l45 -10zM214 -286
l-12 26q33 10 51 26t18 32q0 12 -6.5 18.5t-15.5 12t-15.5 14t-6.5 24.5q0 17 13 28.5t32 11.5q18 0 31.5 -8t20.5 -22.5t7 -34.5q0 -27 -14.5 -52.5t-40.5 -45t-62 -30.5z" />
    <glyph glyph-name="uni013C" unicode="&#x13c;" horiz-adv-x="269" 
d="M28 0l-2 37l65 14q2 10 3 33t1.5 61t0.5 93v125q0 38 -0.5 78t-1 75.5t-1 61t-1.5 33.5l-74 10l-2 32l143 41l19 -14l-2 -84t-1.5 -93t-0.5 -123l-1 -161q0 -59 1.5 -106.5t3.5 -61.5l65 -14l-2 -37h-213zM70 -286l-12 26q33 10 51 26t18 32q0 12 -6.5 18.5t-15.5 12
t-15.5 14t-6.5 24.5q0 17 13 28.5t32 11.5q18 0 31.5 -8t20.5 -22.5t7 -34.5q0 -27 -14.5 -52.5t-40.5 -45t-62 -30.5z" />
    <glyph glyph-name="Lcaron" unicode="&#x13d;" horiz-adv-x="511" 
d="M467 -5q-14 2 -31.5 3t-34.5 1.5t-31 0.5h-320l-2 38l61 14q1 5 2 23t1.5 49t0.5 75v188v76t-1 49t-3 22l-61 15l2 38h235l3 -40l-83 -13q-2 -3 -3.5 -19.5t-2 -48t-0.5 -79.5v-188q0 -52 1 -90.5t2 -49.5q14 -1 29 -2t34 -1h75q23 0 39 1t32 3l52 98l45 -10zM382 396
l-17 19q23 21 33 38.5t10 29.5t-6.5 18.5t-15 12.5t-15 14.5t-6.5 24.5q0 17 13 28t32 11q18 0 31.5 -8t20.5 -22.5t7 -34.5t-10.5 -43t-30 -45.5t-46.5 -42.5z" />
    <glyph glyph-name="lcaron" unicode="&#x13e;" horiz-adv-x="269" 
d="M28 0l-2 37l65 14q2 10 3 33t1.5 61t0.5 93v125q0 38 -0.5 78t-1 75.5t-1 61t-1.5 33.5l-74 10l-2 32l143 41l19 -14l-2 -84t-1.5 -93t-0.5 -123l-1 -161q0 -59 1.5 -106.5t3.5 -61.5l65 -14l-2 -37h-213zM231 497l-17 19q23 21 33 38.5t10 29.5t-6.5 18.5t-15 12.5
t-15 14.5t-6.5 24.5q0 17 13 28t32 11q18 0 31.5 -8t20.5 -22.5t7 -34.5t-10.5 -43t-30 -45.5t-46.5 -42.5z" />
    <glyph glyph-name="Ldot" unicode="&#x13f;" horiz-adv-x="511" 
d="M467 -5q-14 2 -31.5 3t-34.5 1.5t-31 0.5h-320l-2 38l61 14q1 5 2 23t1.5 49t0.5 75v188v76t-1 49t-3 22l-61 15l2 38h235l3 -40l-83 -13q-2 -3 -3.5 -19.5t-2 -48t-0.5 -79.5v-188q0 -52 1 -90.5t2 -49.5q14 -1 29 -2t34 -1h75q23 0 39 1t32 3l52 98l45 -10zM347 268
q-23 0 -39 15t-16 37t16 37t39 15t38 -15t15 -37t-15 -37t-38 -15z" />
    <glyph glyph-name="ldot" unicode="&#x140;" horiz-adv-x="289" 
d="M28 0l-2 37l65 14q2 10 3 33t1.5 61t0.5 93v125q0 38 -0.5 78t-1 75.5t-1 61t-1.5 33.5l-74 10l-2 32l143 41l19 -14l-2 -84t-1.5 -93t-0.5 -123l-1 -161q0 -59 1.5 -106.5t3.5 -61.5l65 -14l-2 -37h-213zM280 298q-23 0 -39 15t-16 37t16 37t39 15t38 -15t15 -37
t-15 -37t-38 -15z" />
    <glyph glyph-name="Lslash" unicode="&#x141;" horiz-adv-x="511" 
d="M467 -5q-14 2 -31.5 3t-34.5 1.5t-31 0.5h-320l-2 38l61 14q1 5 2 23t1.5 49t0.5 75v188v76t-1 49t-3 22l-61 15l2 38h235l3 -40l-83 -13q-2 -3 -3.5 -19.5t-2 -48t-0.5 -79.5v-188q0 -52 1 -90.5t2 -49.5q14 -1 29 -2t34 -1h75q23 0 39 1t32 3l52 98l45 -10zM54 176
l-30 43l306 211l30 -43z" />
    <glyph glyph-name="lslash" unicode="&#x142;" horiz-adv-x="269" 
d="M28 0l-2 37l65 14q2 10 3 33t1.5 61t0.5 93v125q0 38 -0.5 78t-1 75.5t-1 61t-1.5 33.5l-74 10l-2 32l143 41l19 -14l-2 -84t-1.5 -93t-0.5 -123l-1 -161q0 -59 1.5 -106.5t3.5 -61.5l65 -14l-2 -37h-213zM34 257l-23 32l223 154l23 -32z" />
    <glyph glyph-name="Nacute" unicode="&#x143;" horiz-adv-x="674" 
d="M505 143v224q0 59 -1 94.5t-2 53t-2 20.5l-68 14l3 38h190l3 -38l-62 -14q0 -3 -1.5 -20.5t-2.5 -53t-1 -94.5v-238v-64.5t1 -68.5h-45l-368 495h22v-268q0 -60 1 -96.5t2.5 -53.5t2.5 -21l68 -14l-3 -38h-192l-3 38l61 14q1 4 2.5 21t2.5 53.5t1 96.5v171q0 45 -1 74
t-2 45t-3 22l-61 14l3 38h137l336 -444h-18zM359 639l-42 14l71 131l79 -23z" />
    <glyph glyph-name="nacute" unicode="&#x144;" horiz-adv-x="550" 
d="M31 0l-2 36l62 15q1 7 1.5 19t1.5 33t1 55l1 77q0 33 -2.5 65.5t-5.5 51.5l-64 14v33l134 37l17 -16l-5 -53l3 -1q35 38 69 55t74 17q37 0 69.5 -18.5t53 -56.5t20.5 -97v-111q0 -36 1.5 -65t4.5 -39l62 -15l-3 -36h-201l-2 36l58 15q1 8 2 20t1.5 30.5t0.5 46.5v108
q0 45 -15.5 71.5t-38.5 38t-47 11.5q-33 0 -61.5 -16.5t-48.5 -45.5v-150q0 -46 1.5 -74.5t3.5 -39.5l62 -15l-3 -36h-205zM298 482l-40 13l99 182l80 -23z" />
    <glyph glyph-name="uni0145" unicode="&#x145;" horiz-adv-x="674" 
d="M505 143v224q0 59 -1 94.5t-2 53t-2 20.5l-68 14l3 38h190l3 -38l-62 -14q0 -3 -1.5 -20.5t-2.5 -53t-1 -94.5v-238v-64.5t1 -68.5h-45l-368 495h22v-268q0 -60 1 -96.5t2.5 -53.5t2.5 -21l68 -14l-3 -38h-192l-3 38l61 14q1 4 2.5 21t2.5 53.5t1 96.5v171q0 45 -1 74
t-2 45t-3 22l-61 14l3 38h137l336 -444h-18zM273 -286l-12 26q33 10 51 26t18 32q0 12 -6.5 18.5t-15.5 12t-15.5 14t-6.5 24.5q0 17 13 28.5t32 11.5q18 0 31.5 -8t20.5 -22.5t7 -34.5q0 -27 -14.5 -52.5t-40.5 -45t-62 -30.5z" />
    <glyph glyph-name="uni0146" unicode="&#x146;" horiz-adv-x="550" 
d="M31 0l-2 36l62 15q1 7 1.5 19t1.5 33t1 55l1 77q0 33 -2.5 65.5t-5.5 51.5l-64 14v33l134 37l17 -16l-5 -53l3 -1q35 38 69 55t74 17q37 0 69.5 -18.5t53 -56.5t20.5 -97v-111q0 -36 1.5 -65t4.5 -39l62 -15l-3 -36h-201l-2 36l58 15q1 8 2 20t1.5 30.5t0.5 46.5v108
q0 45 -15.5 71.5t-38.5 38t-47 11.5q-33 0 -61.5 -16.5t-48.5 -45.5v-150q0 -46 1.5 -74.5t3.5 -39.5l62 -15l-3 -36h-205zM213 -286l-12 26q33 10 51 26t18 32q0 12 -6.5 18.5t-15.5 12t-15.5 14t-6.5 24.5q0 17 13 28.5t32 11.5q18 0 31.5 -8t20.5 -22.5t7 -34.5
q0 -27 -14.5 -52.5t-40.5 -45t-62 -30.5z" />
    <glyph glyph-name="Ncaron" unicode="&#x147;" horiz-adv-x="674" 
d="M505 143v224q0 59 -1 94.5t-2 53t-2 20.5l-68 14l3 38h190l3 -38l-62 -14q0 -3 -1.5 -20.5t-2.5 -53t-1 -94.5v-238v-64.5t1 -68.5h-45l-368 495h22v-268q0 -60 1 -96.5t2.5 -53.5t2.5 -21l68 -14l-3 -38h-192l-3 38l61 14q1 4 2.5 21t2.5 53.5t1 96.5v171q0 45 -1 74
t-2 45t-3 22l-61 14l3 38h137l336 -444h-18zM169 754l34 24l165 -91h-60l165 91l34 -24l-132 -107h-74z" />
    <glyph glyph-name="ncaron" unicode="&#x148;" horiz-adv-x="550" 
d="M31 0l-2 36l62 15q1 7 1.5 19t1.5 33t1 55l1 77q0 33 -2.5 65.5t-5.5 51.5l-64 14v33l134 37l17 -16l-5 -53l3 -1q35 38 69 55t74 17q37 0 69.5 -18.5t53 -56.5t20.5 -97v-111q0 -36 1.5 -65t4.5 -39l62 -15l-3 -36h-201l-2 36l58 15q1 8 2 20t1.5 30.5t0.5 46.5v108
q0 45 -15.5 71.5t-38.5 38t-47 11.5q-33 0 -61.5 -16.5t-48.5 -45.5v-150q0 -46 1.5 -74.5t3.5 -39.5l62 -15l-3 -36h-205zM417 663l-102 -167h-74l-102 167l39 14l132 -152h-60l128 152z" />
    <glyph glyph-name="napostrophe" unicode="&#x149;" horiz-adv-x="550" 
d="M31 0l-2 36l62 15q1 7 1.5 19t1.5 33t1 55l1 77q0 33 -2.5 65.5t-5.5 51.5l-64 14v33l134 37l17 -16l-5 -53l3 -1q35 38 69 55t74 17q37 0 69.5 -18.5t53 -56.5t20.5 -97v-111q0 -36 1.5 -65t4.5 -39l62 -15l-3 -36h-201l-2 36l58 15q1 8 2 20t1.5 30.5t0.5 46.5v108
q0 45 -15.5 71.5t-38.5 38t-47 11.5q-33 0 -61.5 -16.5t-48.5 -45.5v-150q0 -46 1.5 -74.5t3.5 -39.5l62 -15l-3 -36h-205zM18 497l-17 19q23 21 33 38.5t10 29.5t-6.5 18.5t-15 12.5t-15 14.5t-6.5 24.5q0 17 13 28t32 11q18 0 31.5 -8t20.5 -22.5t7 -34.5t-10.5 -43
t-30 -45.5t-46.5 -42.5z" />
    <glyph glyph-name="Eng" unicode="&#x14a;" horiz-adv-x="674" 
d="M400 -203q-30 0 -56 10.5t-41.5 28t-15.5 36.5q0 17 11 27t30 10q14 0 27 -6.5t28 -20.5l55 -53l-44 13q32 -5 57 13.5t39 55.5t14 86v83l13 -84l-368 495h22v-268q0 -57 1 -93.5t2.5 -55t2.5 -22.5l68 -14l-3 -38h-192l-3 38l61 14q1 4 2.5 22.5t2.5 55t1 93.5v171
q0 46 -1 74.5t-2 44.5t-3 22l-61 14l3 38h137l336 -444h-18v224q0 59 -1 95t-2 53t-2 20l-68 14l3 38h190l2 -38l-61 -14q0 -3 -1.5 -20t-2.5 -53t-1 -95v-351q0 -101 -42.5 -160t-118.5 -59z" />
    <glyph glyph-name="eng" unicode="&#x14b;" horiz-adv-x="535" 
d="M455 266l-1 -282q0 -63 -19.5 -111t-55 -74.5t-83.5 -26.5q-40 0 -68 18t-28 44q0 14 9.5 22.5t23.5 8.5t24.5 -5.5t22.5 -16.5l35 -34q31 9 46.5 43.5t15.5 95.5l2 308q0 45 -15.5 71.5t-38 38t-45.5 11.5q-28 0 -56.5 -15t-51.5 -47v-150q0 -46 1.5 -74.5t3.5 -39.5
l67 -15l-3 -36h-210l-2 36l62 15q1 7 1.5 19t1.5 33t1 55l1 77q1 33 -2 66t-6 51l-64 14v33l134 37l17 -16l-5 -53l3 -1q34 38 68 55t73 17q36 0 68 -18.5t52.5 -56.5t20.5 -97z" />
    <glyph glyph-name="Omacron" unicode="&#x14c;" horiz-adv-x="686" 
d="M349 -9q-87 0 -154.5 38t-105.5 106t-38 156t39 156.5t107 108.5t154 40q84 0 148.5 -38t100.5 -105t36 -155q0 -67 -23 -123t-63 -97.5t-91.5 -64t-109.5 -22.5zM358 45q54 0 93.5 28t61.5 79.5t22 121.5q0 81 -24.5 142t-68.5 95.5t-103 34.5q-85 0 -134.5 -63
t-49.5 -173q0 -78 26 -137.5t72 -93.5t105 -34zM200 736h286v-55h-286v55z" />
    <glyph glyph-name="omacron" unicode="&#x14d;" horiz-adv-x="508" 
d="M257 -8q-65 0 -113.5 28t-75.5 78.5t-27 115.5q0 68 30 118t80 78t110 28q62 0 108.5 -27.5t72 -77t25.5 -115.5q0 -63 -28 -114t-75.5 -81.5t-106.5 -30.5zM267 39q34 0 59 20.5t39 57t14 83.5q0 86 -35.5 139.5t-93.5 53.5q-54 0 -86.5 -45t-32.5 -119q0 -56 17.5 -99
t48.5 -67t70 -24zM111 606h286v-55h-286v55z" />
    <glyph glyph-name="Obreve" unicode="&#x14e;" horiz-adv-x="686" 
d="M349 -9q-87 0 -154.5 38t-105.5 106t-38 156t39 156.5t107 108.5t154 40q84 0 148.5 -38t100.5 -105t36 -155q0 -67 -23 -123t-63 -97.5t-91.5 -64t-109.5 -22.5zM358 45q54 0 93.5 28t61.5 79.5t22 121.5q0 81 -24.5 142t-68.5 95.5t-103 34.5q-85 0 -134.5 -63
t-49.5 -173q0 -78 26 -137.5t72 -93.5t105 -34zM470 778l38 -14q-10 -56 -54.5 -87.5t-109.5 -31.5t-110 31.5t-56 87.5l42 14q10 -34 43 -53t82 -19q51 0 84 19t41 53z" />
    <glyph glyph-name="obreve" unicode="&#x14f;" horiz-adv-x="508" 
d="M257 -8q-65 0 -113.5 28t-75.5 78.5t-27 115.5q0 68 30 118t80 78t110 28q62 0 108.5 -27.5t72 -77t25.5 -115.5q0 -63 -28 -114t-75.5 -81.5t-106.5 -30.5zM267 39q34 0 59 20.5t39 57t14 83.5q0 86 -35.5 139.5t-93.5 53.5q-54 0 -86.5 -45t-32.5 -119q0 -56 17.5 -99
t48.5 -67t70 -24zM351 677l38 -14q-2 -80 -38 -124.5t-96 -44.5q-40 0 -70 20t-47 58t-19 91l42 14q8 -58 33 -88.5t62 -30.5q39 0 64 30.5t31 88.5z" />
    <glyph glyph-name="Ohungarumlaut" unicode="&#x150;" horiz-adv-x="686" 
d="M349 -9q-87 0 -154.5 38t-105.5 106t-38 156t39 156.5t107 108.5t154 40q84 0 148.5 -38t100.5 -105t36 -155q0 -67 -23 -123t-63 -97.5t-91.5 -64t-109.5 -22.5zM358 45q54 0 93.5 28t61.5 79.5t22 121.5q0 81 -24.5 142t-68.5 95.5t-103 34.5q-85 0 -134.5 -63
t-49.5 -173q0 -78 26 -137.5t72 -93.5t105 -34zM421 639l-33 13l45 122l70 -15zM298 639l-33 13l45 122l70 -15z" />
    <glyph glyph-name="ohungarumlaut" unicode="&#x151;" horiz-adv-x="508" 
d="M257 -8q-65 0 -113.5 28t-75.5 78.5t-27 115.5q0 68 30 118t80 78t110 28q62 0 108.5 -27.5t72 -77t25.5 -115.5q0 -63 -28 -114t-75.5 -81.5t-106.5 -30.5zM267 39q34 0 59 20.5t39 57t14 83.5q0 86 -35.5 139.5t-93.5 53.5q-54 0 -86.5 -45t-32.5 -119q0 -56 17.5 -99
t48.5 -67t70 -24zM332 482l-32 13l67 182l70 -15zM208 482l-32 13l67 182l70 -15z" />
    <glyph glyph-name="OE" unicode="&#x152;" horiz-adv-x="917" 
d="M389 -9q-105 0 -180.5 35.5t-116 102t-40.5 159.5q0 66 23 122t66.5 97t105 64t137.5 23q35 0 66 -3.5t64 -3.5h217h28.5t32 1t39.5 3l20 -132l-45 -7l-34 84q-7 2 -17 2.5t-21 0.5h-106q-16 0 -32.5 -1t-28.5 -3q0 -4 -0.5 -22t-1 -42t-0.5 -48v-270q0 -20 0.5 -40.5
t1 -36t0.5 -21.5q18 -2 33 -3t31 -1h88q22 0 35.5 0.5t22 1.5t13.5 2l52 95l45 -9l-39 -146q-22 3 -38.5 4t-30 1h-26.5h-225q-29 0 -65 -4.5t-74 -4.5zM398 45q20 0 41.5 3.5t38.5 8.5q1 11 1.5 29.5t1 47t0.5 69.5v188q0 31 -0.5 57.5t-1.5 47.5t-3 33q-22 7 -46 10t-51 3
q-105 0 -163.5 -65.5t-58.5 -175.5q0 -120 64.5 -188t176.5 -68zM736 205l-12 68q-6 2 -17.5 3t-28.5 1h-68q-13 0 -28 -1t-32 -2v55q17 -1 32 -1.5t28 -0.5h68q17 0 28.5 1t17.5 2l12 69h42v-194h-42z" />
    <glyph glyph-name="oe" unicode="&#x153;" horiz-adv-x="787" 
d="M257 -8q-64 0 -112.5 28t-75.5 78.5t-27 115.5q0 68 29.5 118t77.5 78t103 28q61 0 104 -28t66 -78t23 -115q0 -62 -23 -113t-65.5 -81.5t-99.5 -30.5zM267 39q49 0 81 44t32 119q0 86 -36 138t-92 52q-55 0 -87.5 -43t-32.5 -123q0 -61 19 -103t50 -63t66 -21zM583 -8
q-54 0 -97 26.5t-68 76.5t-25 121q0 67 26.5 117t71 78t97.5 27q48 0 84.5 -22.5t57 -66t20.5 -108.5v-17h-294l1 44h230l-14 -13v21q0 44 -13.5 70.5t-35 38t-45.5 11.5q-32 0 -57.5 -18.5t-40 -51t-14.5 -75.5v-23q0 -79 41 -124t102 -45q33 0 60.5 12.5t55.5 46.5l25 -23
q-28 -52 -71 -77.5t-97 -25.5z" />
    <glyph glyph-name="Racute" unicode="&#x154;" horiz-adv-x="567" 
d="M52 0l-2 38l61 15q0 7 0.5 21.5t0.5 34.5t0.5 43t0.5 47v188q0 46 -0.5 77.5t-1 49t-2.5 21.5l-62 14l3 38h219q94 0 143.5 -36.5t49.5 -107.5q0 -49 -27 -87.5t-75 -60.5t-111 -22h-64v45h57q62 0 96.5 31t34.5 86q0 53 -30 80.5t-86 27.5h-58q-1 -3 -1.5 -8.5
t-0.5 -19.5v-41v-72v-203q0 -43 0.5 -72t2 -46.5t2.5 -27.5l59 -15l-3 -38h-206zM526 -10q-44 0 -78 16.5t-66 55t-69 104.5l-68 124l75 17l108 -159q28 -41 50.5 -65.5t44.5 -36.5t48 -17l-1 -35q-10 -2 -21.5 -3t-22.5 -1zM289 639l-42 14l71 131l79 -23z" />
    <glyph glyph-name="racute" unicode="&#x155;" horiz-adv-x="364" 
d="M33 0l-3 36l62 15q1 5 2 18t1.5 35t0.5 54l1 78q0 33 -2.5 65t-5.5 51l-64 14v33l134 37l14 -14l-4 -84l3 -1q30 58 61 78.5t58 20.5q23 0 38.5 -11.5t15.5 -34.5q0 -24 -16.5 -36.5t-41.5 -12.5q-18 0 -34.5 8t-31.5 22l18 -6q-19 -12 -36 -33.5t-31 -53.5l1 -93
q1 -25 2 -52t2 -48.5t2 -33.5l87 -13l-2 -38h-231zM191 482l-40 13l99 182l80 -23z" />
    <glyph glyph-name="uni0156" unicode="&#x156;" horiz-adv-x="567" 
d="M52 0l-2 38l61 15q0 7 0.5 21.5t0.5 34.5t0.5 43t0.5 47v188q0 46 -0.5 77.5t-1 49t-2.5 21.5l-62 14l3 38h219q94 0 143.5 -36.5t49.5 -107.5q0 -49 -27 -87.5t-75 -60.5t-111 -22h-64v45h57q62 0 96.5 31t34.5 86q0 53 -30 80.5t-86 27.5h-58q-1 -3 -1.5 -8.5
t-0.5 -19.5v-41v-72v-203q0 -43 0.5 -72t2 -46.5t2.5 -27.5l59 -15l-3 -38h-206zM526 -10q-44 0 -78 16.5t-66 55t-69 104.5l-68 124l75 17l108 -159q28 -41 50.5 -65.5t44.5 -36.5t48 -17l-1 -35q-10 -2 -21.5 -3t-22.5 -1zM246 -286l-12 26q33 10 51 26t18 32
q0 12 -6.5 18.5t-15.5 12t-15.5 14t-6.5 24.5q0 17 13 28.5t32 11.5q18 0 31.5 -8t20.5 -22.5t7 -34.5q0 -27 -14.5 -52.5t-40.5 -45t-62 -30.5z" />
    <glyph glyph-name="uni0157" unicode="&#x157;" horiz-adv-x="364" 
d="M33 0l-3 36l62 15q1 5 2 18t1.5 35t0.5 54l1 78q0 33 -2.5 65t-5.5 51l-64 14v33l134 37l14 -14l-4 -84l3 -1q30 58 61 78.5t58 20.5q23 0 38.5 -11.5t15.5 -34.5q0 -24 -16.5 -36.5t-41.5 -12.5q-18 0 -34.5 8t-31.5 22l18 -6q-19 -12 -36 -33.5t-31 -53.5l1 -93
q1 -25 2 -52t2 -48.5t2 -33.5l87 -13l-2 -38h-231zM71 -286l-12 26q33 10 51 26t18 32q0 12 -6.5 18.5t-15.5 12t-15.5 14t-6.5 24.5q0 17 13 28.5t32 11.5q18 0 31.5 -8t20.5 -22.5t7 -34.5q0 -27 -14.5 -52.5t-40.5 -45t-62 -30.5z" />
    <glyph glyph-name="Rcaron" unicode="&#x158;" horiz-adv-x="567" 
d="M52 0l-2 38l61 15q0 7 0.5 21.5t0.5 34.5t0.5 43t0.5 47v188q0 46 -0.5 77.5t-1 49t-2.5 21.5l-62 14l3 38h219q94 0 143.5 -36.5t49.5 -107.5q0 -49 -27 -87.5t-75 -60.5t-111 -22h-64v45h57q62 0 96.5 31t34.5 86q0 53 -30 80.5t-86 27.5h-58q-1 -3 -1.5 -8.5
t-0.5 -19.5v-41v-72v-203q0 -43 0.5 -72t2 -46.5t2.5 -27.5l59 -15l-3 -38h-206zM526 -10q-44 0 -78 16.5t-66 55t-69 104.5l-68 124l75 17l108 -159q28 -41 50.5 -65.5t44.5 -36.5t48 -17l-1 -35q-10 -2 -21.5 -3t-22.5 -1zM99 754l34 24l165 -91h-60l165 91l34 -24
l-132 -107h-74z" />
    <glyph glyph-name="rcaron" unicode="&#x159;" horiz-adv-x="364" 
d="M33 0l-3 36l62 15q1 5 2 18t1.5 35t0.5 54l1 78q0 33 -2.5 65t-5.5 51l-64 14v33l134 37l14 -14l-4 -84l3 -1q30 58 61 78.5t58 20.5q23 0 38.5 -11.5t15.5 -34.5q0 -24 -16.5 -36.5t-41.5 -12.5q-18 0 -34.5 8t-31.5 22l18 -6q-19 -12 -36 -33.5t-31 -53.5l1 -93
q1 -25 2 -52t2 -48.5t2 -33.5l87 -13l-2 -38h-231zM310 663l-102 -167h-74l-102 167l39 14l132 -152h-60l128 152z" />
    <glyph glyph-name="Sacute" unicode="&#x15a;" horiz-adv-x="479" 
d="M225 -9q-43 0 -90 11t-76 28l-5 129l43 4l28 -89q24 -16 53 -24.5t62 -8.5q50 0 79.5 24t29.5 65q0 35 -21 58.5t-54.5 40.5t-71 34t-71 38.5t-54.5 53t-21 78.5q0 49 27 85.5t75.5 57.5t110.5 21q26 0 50.5 -2.5t45.5 -7.5t38 -13l8 -125l-43 -4l-28 84q-31 20 -82 20
t-81.5 -24.5t-30.5 -65.5q0 -36 21.5 -60t55 -42t71 -35t71 -38t55 -51.5t21.5 -75.5q0 -48 -27.5 -85.5t-76.5 -59t-112 -21.5zM264 639l-42 14l71 131l79 -23z" />
    <glyph glyph-name="sacute" unicode="&#x15b;" horiz-adv-x="402" 
d="M196 -8q-37 0 -74 8.5t-63 22.5l-5 107h49l20 -72q35 -24 80 -24q34 0 55 16.5t21 44.5q0 26 -19 45.5t-74 42.5q-71 31 -100 59.5t-29 73.5q0 36 21.5 63.5t59.5 43t88 15.5q28 0 57 -5t48 -13l11 -104h-47l-24 68q-10 6 -24 9.5t-30 3.5q-35 0 -56 -16.5t-21 -42.5
q0 -30 23 -48.5t81 -45.5q66 -30 92 -59t26 -70q0 -54 -47 -88.5t-119 -34.5zM226 482l-40 13l99 182l80 -23z" />
    <glyph glyph-name="Scircumflex" unicode="&#x15c;" horiz-adv-x="479" 
d="M225 -9q-43 0 -90 11t-76 28l-5 129l43 4l28 -89q24 -16 53 -24.5t62 -8.5q50 0 79.5 24t29.5 65q0 35 -21 58.5t-54.5 40.5t-71 34t-71 38.5t-54.5 53t-21 78.5q0 49 27 85.5t75.5 57.5t110.5 21q26 0 50.5 -2.5t45.5 -7.5t38 -13l8 -125l-43 -4l-28 84q-31 20 -82 20
t-81.5 -24.5t-30.5 -65.5q0 -36 21.5 -60t55 -42t71 -35t71 -38t55 -51.5t21.5 -75.5q0 -48 -27.5 -85.5t-76.5 -59t-112 -21.5zM412 663l-34 -24l-165 91h60l-165 -91l-34 24l132 107h74z" />
    <glyph glyph-name="scircumflex" unicode="&#x15d;" horiz-adv-x="402" 
d="M196 -8q-37 0 -74 8.5t-63 22.5l-5 107h49l20 -72q35 -24 80 -24q34 0 55 16.5t21 44.5q0 26 -19 45.5t-74 42.5q-71 31 -100 59.5t-29 73.5q0 36 21.5 63.5t59.5 43t88 15.5q28 0 57 -5t48 -13l11 -104h-47l-24 68q-10 6 -24 9.5t-30 3.5q-35 0 -56 -16.5t-21 -42.5
q0 -30 23 -48.5t81 -45.5q66 -30 92 -59t26 -70q0 -54 -47 -88.5t-119 -34.5zM345 495l-39 -13l-130 152h60l-130 -152l-39 13l102 168h74z" />
    <glyph glyph-name="Scedilla" unicode="&#x15e;" horiz-adv-x="479" 
d="M225 -9q-43 0 -90 11t-76 28l-5 129l43 4l28 -89q24 -16 53 -24.5t62 -8.5q50 0 79.5 24t29.5 65q0 35 -21 58.5t-54.5 40.5t-71 34t-71 38.5t-54.5 53t-21 78.5q0 49 27 85.5t75.5 57.5t110.5 21q26 0 50.5 -2.5t45.5 -7.5t38 -13l8 -125l-43 -4l-28 84q-31 20 -82 20
t-81.5 -24.5t-30.5 -65.5q0 -36 21.5 -60t55 -42t71 -35t71 -38t55 -51.5t21.5 -75.5q0 -48 -27.5 -85.5t-76.5 -59t-112 -21.5zM219 -223q-24 0 -47.5 6.5t-43.5 18.5l19 39q17 -10 36.5 -17t40.5 -7t35 10t14 29q0 20 -20.5 31.5t-57.5 6.5l-15 19l58 100h50l-67 -94l7 31
q49 0 80.5 -21t31.5 -59q0 -40 -35 -66.5t-86 -26.5z" />
    <glyph glyph-name="scedilla" unicode="&#x15f;" horiz-adv-x="402" 
d="M196 -8q-37 0 -74 8.5t-63 22.5l-5 107h49l20 -72q35 -24 80 -24q34 0 55 16.5t21 44.5q0 26 -19 45.5t-74 42.5q-71 31 -100 59.5t-29 73.5q0 36 21.5 63.5t59.5 43t88 15.5q28 0 57 -5t48 -13l11 -104h-47l-24 68q-10 6 -24 9.5t-30 3.5q-35 0 -56 -16.5t-21 -42.5
q0 -30 23 -48.5t81 -45.5q66 -30 92 -59t26 -70q0 -54 -47 -88.5t-119 -34.5zM178 -223q-24 0 -47.5 6.5t-43.5 18.5l19 39q17 -10 36.5 -17t40.5 -7t35 10t14 29q0 20 -20.5 31.5t-57.5 6.5l-15 19l58 100h50l-67 -94l7 31q49 0 80.5 -21t31.5 -59q0 -40 -35 -66.5
t-86 -26.5z" />
    <glyph glyph-name="Scaron" unicode="&#x160;" horiz-adv-x="479" 
d="M225 -9q-43 0 -90 11t-76 28l-5 129l43 4l28 -89q24 -16 53 -24.5t62 -8.5q50 0 79.5 24t29.5 65q0 35 -21 58.5t-54.5 40.5t-71 34t-71 38.5t-54.5 53t-21 78.5q0 49 27 85.5t75.5 57.5t110.5 21q26 0 50.5 -2.5t45.5 -7.5t38 -13l8 -125l-43 -4l-28 84q-31 20 -82 20
t-81.5 -24.5t-30.5 -65.5q0 -36 21.5 -60t55 -42t71 -35t71 -38t55 -51.5t21.5 -75.5q0 -48 -27.5 -85.5t-76.5 -59t-112 -21.5zM74 754l34 24l165 -91h-60l165 91l34 -24l-132 -107h-74z" />
    <glyph glyph-name="scaron" unicode="&#x161;" horiz-adv-x="402" 
d="M196 -8q-37 0 -74 8.5t-63 22.5l-5 107h49l20 -72q35 -24 80 -24q34 0 55 16.5t21 44.5q0 26 -19 45.5t-74 42.5q-71 31 -100 59.5t-29 73.5q0 36 21.5 63.5t59.5 43t88 15.5q28 0 57 -5t48 -13l11 -104h-47l-24 68q-10 6 -24 9.5t-30 3.5q-35 0 -56 -16.5t-21 -42.5
q0 -30 23 -48.5t81 -45.5q66 -30 92 -59t26 -70q0 -54 -47 -88.5t-119 -34.5zM345 663l-102 -167h-74l-102 167l39 14l132 -152h-60l128 152z" />
    <glyph glyph-name="uni0162" unicode="&#x162;" horiz-adv-x="557" 
d="M518 591l22 -162l-44 -5l-42 113q-8 2 -18.5 2.5t-18.5 0.5h-36h-27t-31 -1q0 -8 -0.5 -37.5t-0.5 -68.5v-75v-135q0 -64 1 -110.5t1 -60.5l85 -12l-3 -40h-255l-2 40l84 12q0 14 1 60.5t1 110.5v135v75v68.5t-1 37.5q-13 1 -29.5 1h-27.5h-39q-8 0 -18 -0.5t-18 -2.5
l-41 -114l-45 6l22 162q12 -1 24 -1.5l24 -1t24.5 -1t24.5 -0.5h286q12 0 24 0.5l24 1t24.5 1t24.5 1.5zM255 -223q-24 0 -47.5 6.5t-43.5 18.5l19 39q17 -10 36.5 -17t40.5 -7t35 10t14 29q0 20 -20.5 31.5t-57.5 6.5l-15 19l58 100h50l-67 -94l7 31q49 0 80.5 -21
t31.5 -59q0 -40 -35 -66.5t-86 -26.5z" />
    <glyph glyph-name="uni0163" unicode="&#x163;" horiz-adv-x="339" 
d="M345 62q-19 -33 -52 -51.5t-69 -18.5q-61 0 -100 37t-39 111l3 239h-70v21l129 117h19l-2 -115l-1 -246q0 -52 22.5 -77t63.5 -25q23 0 42.5 9t35.5 24zM128 379v50h187v-50h-187zM170 -223q-24 0 -47.5 6.5t-43.5 18.5l19 39q17 -10 36.5 -17t40.5 -7t35 10t14 29
q0 20 -20.5 31.5t-57.5 6.5l-15 19l58 100h50l-67 -94l7 31q49 0 80.5 -21t31.5 -59q0 -40 -35 -66.5t-86 -26.5z" />
    <glyph glyph-name="Tcaron" unicode="&#x164;" horiz-adv-x="557" 
d="M518 591l22 -162l-44 -5l-42 113q-8 2 -18.5 2.5t-18.5 0.5h-36h-27t-31 -1q0 -8 -0.5 -37.5t-0.5 -68.5v-75v-135q0 -64 1 -110.5t1 -60.5l85 -12l-3 -40h-255l-2 40l84 12q0 14 1 60.5t1 110.5v135v75v68.5t-1 37.5q-13 1 -29.5 1h-27.5h-39q-8 0 -18 -0.5t-18 -2.5
l-41 -114l-45 6l22 162q12 -1 24 -1.5l24 -1t24.5 -1t24.5 -0.5h286q12 0 24 0.5l24 1t24.5 1t24.5 1.5zM110 754l34 24l165 -91h-60l165 91l34 -24l-132 -107h-74z" />
    <glyph glyph-name="tcaron" unicode="&#x165;" horiz-adv-x="339" 
d="M345 62q-19 -33 -52 -51.5t-69 -18.5q-61 0 -100 37t-39 111l3 239h-70v21l129 117h19l-2 -115l-1 -246q0 -52 22.5 -77t63.5 -25q23 0 42.5 9t35.5 24zM128 379v50h187v-50h-187zM238 496l-17 19q23 22 33 39.5t10 29.5t-6.5 18.5t-15 12.5t-15 14.5t-6.5 24.5
q0 17 13 28t32 11q18 0 31.5 -8t20.5 -22.5t7 -34.5q0 -30 -23 -66t-64 -66z" />
    <glyph glyph-name="Tbar" unicode="&#x166;" horiz-adv-x="557" 
d="M518 591l22 -162l-44 -5l-42 113q-8 2 -18.5 2.5t-18.5 0.5h-36h-27t-31 -1q0 -8 -0.5 -37.5t-0.5 -68.5v-75v-135q0 -64 1 -110.5t1 -60.5l85 -12l-3 -40h-255l-2 40l84 12q0 14 1 60.5t1 110.5v135v75v68.5t-1 37.5q-13 1 -29.5 1h-27.5h-39q-8 0 -18 -0.5t-18 -2.5
l-41 -114l-45 6l22 162q12 -1 24 -1.5l24 -1t24.5 -1t24.5 -0.5h286q12 0 24 0.5l24 1t24.5 1t24.5 1.5zM117 278v50h324v-50h-324z" />
    <glyph glyph-name="tbar" unicode="&#x167;" horiz-adv-x="339" 
d="M345 62q-19 -33 -52 -51.5t-69 -18.5q-61 0 -100 37t-39 111l3 239h-70v21l129 117h19l-2 -115l-1 -246q0 -52 22.5 -77t63.5 -25q23 0 42.5 9t35.5 24zM128 379v50h187v-50h-187zM25 250v40h268v-40h-268z" />
    <glyph glyph-name="Utilde" unicode="&#x168;" horiz-adv-x="664" 
d="M46 587h212l3 -38l-62 -15q0 -4 -1 -18t-1.5 -44t-0.5 -85v-154q1 -63 20.5 -102t54 -56.5t80.5 -17.5q44 0 76.5 18.5t50.5 58.5t18 106v129q0 45 -1 79.5t-2 57t-3 28.5l-70 15l3 38h194l3 -38l-61 -15q0 -3 -1 -19t-1.5 -50.5t-0.5 -95.5v-134q0 -84 -28 -138
t-76.5 -80t-110.5 -26q-109 0 -170.5 60.5t-61.5 169.5v166q0 55 -1 85.5t-1.5 44.5t-1.5 17l-61 15zM515 762l32 -17q-17 -44 -48.5 -70.5t-72.5 -26.5q-30 0 -60.5 14t-59.5 28t-54 14q-26 0 -42 -13t-31 -36l-32 17q17 44 49 70t72 26q30 0 60.5 -13.5t60 -27t54.5 -13.5
t41 13t31 35z" />
    <glyph glyph-name="utilde" unicode="&#x169;" horiz-adv-x="543" 
d="M455 70l63 -16v-33l-130 -32l-15 13l1 63l-3 1q-29 -41 -59.5 -57.5t-65.5 -16.5q-67 0 -112 41.5t-45 124.5v86q0 28 -1.5 54.5t-3.5 53.5l-68 14v33l136 37l18 -16q-2 -31 -3 -66t-1 -73l-1 -110q0 -62 29 -88.5t74 -26.5q27 0 55 14t49 48v116q0 22 -0.5 43.5t-1.5 41
t-3 33.5l-73 14v33l141 37l15 -14q-1 -28 -1.5 -50t-0.5 -43.5v-48.5v-71q0 -55 2.5 -88.5t4.5 -50.5zM409 633l32 -19q-14 -43 -40.5 -69.5t-60.5 -26.5q-25 0 -50.5 14t-49.5 27.5t-46 13.5t-35 -13t-26 -36l-32 19q14 44 40.5 70t60.5 26q25 0 50.5 -13.5t50 -27.5
t46.5 -14q20 0 33.5 13.5t26.5 35.5z" />
    <glyph glyph-name="Umacron" unicode="&#x16a;" horiz-adv-x="664" 
d="M46 587h212l3 -38l-62 -15q0 -4 -1 -18t-1.5 -44t-0.5 -85v-154q1 -63 20.5 -102t54 -56.5t80.5 -17.5q44 0 76.5 18.5t50.5 58.5t18 106v129q0 45 -1 79.5t-2 57t-3 28.5l-70 15l3 38h194l3 -38l-61 -15q0 -3 -1 -19t-1.5 -50.5t-0.5 -95.5v-134q0 -84 -28 -138
t-76.5 -80t-110.5 -26q-109 0 -170.5 60.5t-61.5 169.5v166q0 55 -1 85.5t-1.5 44.5t-1.5 17l-61 15zM204 736h286v-55h-286v55z" />
    <glyph glyph-name="umacron" unicode="&#x16b;" horiz-adv-x="543" 
d="M455 70l63 -16v-33l-130 -32l-15 13l1 63l-3 1q-29 -41 -59.5 -57.5t-65.5 -16.5q-67 0 -112 41.5t-45 124.5v86q0 28 -1.5 54.5t-3.5 53.5l-68 14v33l136 37l18 -16q-2 -31 -3 -66t-1 -73l-1 -110q0 -62 29 -88.5t74 -26.5q27 0 55 14t49 48v116q0 22 -0.5 43.5t-1.5 41
t-3 33.5l-73 14v33l141 37l15 -14q-1 -28 -1.5 -50t-0.5 -43.5v-48.5v-71q0 -55 2.5 -88.5t4.5 -50.5zM128 606h286v-55h-286v55z" />
    <glyph glyph-name="Ubreve" unicode="&#x16c;" horiz-adv-x="664" 
d="M46 587h212l3 -38l-62 -15q0 -4 -1 -18t-1.5 -44t-0.5 -85v-154q1 -63 20.5 -102t54 -56.5t80.5 -17.5q44 0 76.5 18.5t50.5 58.5t18 106v129q0 45 -1 79.5t-2 57t-3 28.5l-70 15l3 38h194l3 -38l-61 -15q0 -3 -1 -19t-1.5 -50.5t-0.5 -95.5v-134q0 -84 -28 -138
t-76.5 -80t-110.5 -26q-109 0 -170.5 60.5t-61.5 169.5v166q0 55 -1 85.5t-1.5 44.5t-1.5 17l-61 15zM474 778l38 -14q-10 -56 -54.5 -87.5t-109.5 -31.5t-110 31.5t-56 87.5l42 14q10 -34 43 -53t82 -19q51 0 84 19t41 53z" />
    <glyph glyph-name="ubreve" unicode="&#x16d;" horiz-adv-x="543" 
d="M455 70l63 -16v-33l-130 -32l-15 13l1 63l-3 1q-29 -41 -59.5 -57.5t-65.5 -16.5q-67 0 -112 41.5t-45 124.5v86q0 28 -1.5 54.5t-3.5 53.5l-68 14v33l136 37l18 -16q-2 -31 -3 -66t-1 -73l-1 -110q0 -62 29 -88.5t74 -26.5q27 0 55 14t49 48v116q0 22 -0.5 43.5t-1.5 41
t-3 33.5l-73 14v33l141 37l15 -14q-1 -28 -1.5 -50t-0.5 -43.5v-48.5v-71q0 -55 2.5 -88.5t4.5 -50.5zM368 677l38 -14q-2 -80 -38 -124.5t-96 -44.5q-40 0 -70 20t-47 58t-19 91l42 14q8 -58 33 -88.5t62 -30.5q39 0 64 30.5t31 88.5z" />
    <glyph glyph-name="Uring" unicode="&#x16e;" horiz-adv-x="664" 
d="M46 587h212l3 -38l-62 -15q0 -4 -1 -18t-1.5 -44t-0.5 -85v-154q1 -63 20.5 -102t54 -56.5t80.5 -17.5q44 0 76.5 18.5t50.5 58.5t18 106v129q0 45 -1 79.5t-2 57t-3 28.5l-70 15l3 38h194l3 -38l-61 -15q0 -3 -1 -19t-1.5 -50.5t-0.5 -95.5v-134q0 -84 -28 -138
t-76.5 -80t-110.5 -26q-109 0 -170.5 60.5t-61.5 169.5v166q0 55 -1 85.5t-1.5 44.5t-1.5 17l-61 15zM348 645q-42 0 -71 27.5t-29 67.5t29 67.5t71 27.5t70 -27t28 -68q0 -40 -28 -67.5t-70 -27.5zM349 678q26 0 42.5 17.5t16.5 45.5q0 29 -16.5 46t-42.5 17t-43.5 -17.5
t-17.5 -45.5q0 -27 17.5 -45t43.5 -18z" />
    <glyph glyph-name="uring" unicode="&#x16f;" horiz-adv-x="543" 
d="M455 70l63 -16v-33l-130 -32l-15 13l1 63l-3 1q-29 -41 -59.5 -57.5t-65.5 -16.5q-67 0 -112 41.5t-45 124.5v86q0 28 -1.5 54.5t-3.5 53.5l-68 14v33l136 37l18 -16q-2 -31 -3 -66t-1 -73l-1 -110q0 -62 29 -88.5t74 -26.5q27 0 55 14t49 48v116q0 22 -0.5 43.5t-1.5 41
t-3 33.5l-73 14v33l141 37l15 -14q-1 -28 -1.5 -50t-0.5 -43.5v-48.5v-71q0 -55 2.5 -88.5t4.5 -50.5zM272 493q-42 0 -71 28t-29 68q0 41 29 68.5t71 27.5t70 -27.5t28 -68.5q0 -40 -28 -68t-70 -28zM273 527q26 0 42.5 17.5t16.5 45.5q0 29 -16.5 46t-42.5 17t-43.5 -17.5
t-17.5 -45.5q0 -27 17.5 -45t43.5 -18z" />
    <glyph glyph-name="Uhungarumlaut" unicode="&#x170;" horiz-adv-x="664" 
d="M46 587h212l3 -38l-62 -15q0 -4 -1 -18t-1.5 -44t-0.5 -85v-154q1 -63 20.5 -102t54 -56.5t80.5 -17.5q44 0 76.5 18.5t50.5 58.5t18 106v129q0 45 -1 79.5t-2 57t-3 28.5l-70 15l3 38h194l3 -38l-61 -15q0 -3 -1 -19t-1.5 -50.5t-0.5 -95.5v-134q0 -84 -28 -138
t-76.5 -80t-110.5 -26q-109 0 -170.5 60.5t-61.5 169.5v166q0 55 -1 85.5t-1.5 44.5t-1.5 17l-61 15zM425 639l-33 13l45 122l70 -15zM302 639l-33 13l45 122l70 -15z" />
    <glyph glyph-name="uhungarumlaut" unicode="&#x171;" horiz-adv-x="543" 
d="M455 70l63 -16v-33l-130 -32l-15 13l1 63l-3 1q-29 -41 -59.5 -57.5t-65.5 -16.5q-67 0 -112 41.5t-45 124.5v86q0 28 -1.5 54.5t-3.5 53.5l-68 14v33l136 37l18 -16q-2 -31 -3 -66t-1 -73l-1 -110q0 -62 29 -88.5t74 -26.5q27 0 55 14t49 48v116q0 22 -0.5 43.5t-1.5 41
t-3 33.5l-73 14v33l141 37l15 -14q-1 -28 -1.5 -50t-0.5 -43.5v-48.5v-71q0 -55 2.5 -88.5t4.5 -50.5zM349 482l-32 13l67 182l70 -15zM225 482l-32 13l67 182l70 -15z" />
    <glyph glyph-name="Uogonek" unicode="&#x172;" horiz-adv-x="664" 
d="M618 587l3 -38l-62 -15q0 -3 -1 -25t-1.5 -58t-0.5 -82v-134q0 -85 -31 -143.5t-90 -82.5q-50 -21 -80.5 -57t-30.5 -74q0 -27 16 -43t42 -16q34 0 69 35l22 -27q-44 -50 -105 -50q-33 0 -59 11.5t-40.5 32.5t-14.5 47q0 45 37.5 83.5t107.5 66.5l-29 -27h-29
q-109 0 -170.5 60.5t-61.5 169.5v166q0 53 -1 84t-1.5 45.5t-1.5 17.5l-61 15l2 38h212l3 -38l-62 -15q0 -4 -1 -18t-1.5 -44.5t-0.5 -84.5v-154q2 -176 155 -176q145 0 145 183v129q0 42 -1 77t-2 58.5t-3 29.5l-70 15l3 38h195z" />
    <glyph glyph-name="uogonek" unicode="&#x173;" horiz-adv-x="543" 
d="M441 -223q-35 0 -60.5 12t-39.5 33t-14 46q0 46 40 85t106 66l-8 -11l-77 -19l-15 13l1 63l-3 1q-29 -41 -59.5 -57.5t-65.5 -16.5q-67 0 -112 41.5t-45 124.5v86q0 28 -1.5 54.5t-3.5 53.5l-68 14v33l136 37l18 -16q-2 -31 -3 -66t-1 -73l-1 -110q0 -62 29 -88.5
t74 -26.5q27 0 55 14t49 48v116q0 22 -0.5 43.5t-1.5 41t-3 33.5l-73 14v33l141 37l15 -14q-1 -28 -1.5 -50t-0.5 -43.5v-48.5v-71q0 -55 2.5 -88.5t4.5 -50.5l63 -16v-33q-69 -43 -95 -77t-26 -66q0 -27 16 -43t43 -16q19 0 35.5 9.5t32.5 25.5l22 -27q-19 -22 -46 -36
t-59 -14z" />
    <glyph glyph-name="Wcircumflex" unicode="&#x174;" horiz-adv-x="941" 
d="M487 440l-178 -443h-43l-209 538l-50 14l2 38h195l3 -38l-51 -13l164 -437h-21l159 421zM627 -3l-207 538l-50 14l2 38h203l3 -38l-61 -13l162 -437h-20l158 436l-71 14l3 38h184l3 -38l-51 -14l-215 -538h-43zM641 663l-34 -24l-165 91h60l-165 -91l-34 24l132 107h74z
" />
    <glyph glyph-name="wcircumflex" unicode="&#x175;" horiz-adv-x="753" 
d="M504 -4l-153 383l-51 15l2 36h184l2 -36l-52 -15l116 -304l-25 -1l119 305l-52 15l2 36h155l2 -36l-47 -15l-171 -383h-31zM213 -4l-162 383l-47 15l2 36h185l2 -36l-51 -15l124 -304l-30 -1l132 314l27 -62l-151 -330h-31zM532 495l-39 -13l-130 152h60l-130 -152
l-39 13l102 168h74z" />
    <glyph glyph-name="Ycircumflex" unicode="&#x176;" horiz-adv-x="541" 
d="M492 535l-205 -317l25 68v-95q0 -37 0.5 -63t1 -41.5t1.5 -23.5t1 -11l70 -13l-2 -39h-228l-3 39l70 13q1 3 1.5 11t1.5 23.5t1.5 41.5t0.5 63v95l20 -68l-198 317l-50 14l2 38h207l3 -38l-61 -14l147 -236h-14l141 236l-70 14l3 38h182l2 -38zM439 663l-34 -24l-165 91
h60l-165 -91l-34 24l132 107h74z" />
    <glyph glyph-name="ycircumflex" unicode="&#x177;" horiz-adv-x="472" 
d="M219 -4l-176 383l-47 15l3 36h194l2 -36l-62 -15l136 -304zM475 430l3 -36l-47 -15l-170 -357l-80 -166q-22 -46 -46.5 -65t-56.5 -19q-25 0 -40.5 12t-15.5 31q0 15 12 28.5t37 20.5l93 28l-46 -50l111 214l11 18l130 305l-62 15l2 36h165zM390 495l-39 -13l-130 152h60
l-130 -152l-39 13l102 168h74z" />
    <glyph glyph-name="Ydieresis" unicode="&#x178;" horiz-adv-x="541" 
d="M492 535l-205 -317l25 68v-95q0 -37 0.5 -63t1 -41.5t1.5 -23.5t1 -11l70 -13l-2 -39h-228l-3 39l70 13q1 3 1.5 11t1.5 23.5t1.5 41.5t0.5 63v95l20 -68l-198 317l-50 14l2 38h207l3 -38l-61 -14l147 -236h-14l141 236l-70 14l3 38h182l2 -38zM172 661q-22 0 -37 13.5
t-15 35.5q0 21 15 35t37 14q21 0 35 -14t14 -35q0 -22 -14 -35.5t-35 -13.5zM370 661q-22 0 -36.5 13.5t-14.5 35.5q0 21 14.5 35t36.5 14t36 -14t14 -35q0 -22 -14 -35.5t-36 -13.5z" />
    <glyph glyph-name="Zacute" unicode="&#x179;" horiz-adv-x="533" 
d="M485 -4q-16 1 -32.5 2t-32.5 1.5t-32 0.5h-251q-19 0 -36 -0.5t-35 -1.5v36l328 538l2 -33h-225q-22 0 -37 -1t-28 -3l-14 -101h-42l-2 154q23 -1 44 -1h40h273q19 0 38 0.5t38 1.5v-36l-326 -536v34h233q11 0 20 1l18 2l42 111l41 -5zM288 639l-42 14l71 131l79 -23z
" />
    <glyph glyph-name="zacute" unicode="&#x17a;" horiz-adv-x="434" 
d="M136 17l-2 29h141q14 0 30 1t32 3l25 83h47l-17 -134q-25 1 -48 1h-43h-165q-20 0 -42 -0.5t-42 -1.5v32l255 383l-2 -28h-138q-16 0 -31.5 -1t-29.5 -3l-14 -77h-46l-1 127q25 -1 47.5 -1h41.5h168q21 0 42.5 0.5t43.5 1.5v-32zM242 482l-40 13l99 182l80 -23z" />
    <glyph glyph-name="Zdotaccent" unicode="&#x17b;" horiz-adv-x="533" 
d="M485 -4q-16 1 -32.5 2t-32.5 1.5t-32 0.5h-251q-19 0 -36 -0.5t-35 -1.5v36l328 538l2 -33h-225q-22 0 -37 -1t-28 -3l-14 -101h-42l-2 154q23 -1 44 -1h40h273q19 0 38 0.5t38 1.5v-36l-326 -536v34h233q11 0 20 1l18 2l42 111l41 -5zM268 659q-22 0 -38 14.5t-16 36.5
t16 36.5t38 14.5t37 -14.5t15 -36.5t-15 -36.5t-37 -14.5z" />
    <glyph glyph-name="zdotaccent" unicode="&#x17c;" horiz-adv-x="434" 
d="M136 17l-2 29h141q14 0 30 1t32 3l25 83h47l-17 -134q-25 1 -48 1h-43h-165q-20 0 -42 -0.5t-42 -1.5v32l255 383l-2 -28h-138q-16 0 -31.5 -1t-29.5 -3l-14 -77h-46l-1 127q25 -1 47.5 -1h41.5h168q21 0 42.5 0.5t43.5 1.5v-32zM223 527q-22 0 -38 14.5t-16 36.5
t16 36.5t38 14.5t37 -14.5t15 -36.5t-15 -36.5t-37 -14.5z" />
    <glyph glyph-name="Zcaron" unicode="&#x17d;" horiz-adv-x="533" 
d="M485 -4q-16 1 -32.5 2t-32.5 1.5t-32 0.5h-251q-19 0 -36 -0.5t-35 -1.5v36l328 538l2 -33h-225q-22 0 -37 -1t-28 -3l-14 -101h-42l-2 154q23 -1 44 -1h40h273q19 0 38 0.5t38 1.5v-36l-326 -536v34h233q11 0 20 1l18 2l42 111l41 -5zM98 754l34 24l165 -91h-60l165 91
l34 -24l-132 -107h-74z" />
    <glyph glyph-name="zcaron" unicode="&#x17e;" horiz-adv-x="434" 
d="M136 17l-2 29h141q14 0 30 1t32 3l25 83h47l-17 -134q-25 1 -48 1h-43h-165q-20 0 -42 -0.5t-42 -1.5v32l255 383l-2 -28h-138q-16 0 -31.5 -1t-29.5 -3l-14 -77h-46l-1 127q25 -1 47.5 -1h41.5h168q21 0 42.5 0.5t43.5 1.5v-32zM361 663l-102 -167h-74l-102 167l39 14
l132 -152h-60l128 152z" />
    <glyph glyph-name="uni018F" unicode="&#x18f;" horiz-adv-x="649" 
d="M315 596q63 0 114.5 -21t89.5 -60t58.5 -92t20.5 -117q0 -69 -20.5 -126.5t-57 -100t-86.5 -65.5t-110 -23q-83 1 -143.5 33.5t-93.5 92.5t-33 141v25h476v-56h-383l19 17v-32q0 -76 43 -122t119 -46q80 0 124 54t44 148v21q0 112 -57.5 176.5t-155.5 64.5
q-61 0 -109 -23.5t-84 -66.5l-32 26q23 45 62.5 79.5t89.5 53.5t105 19z" />
    <glyph glyph-name="florin" unicode="&#x192;" horiz-adv-x="379" 
d="M78 -228q-41 0 -68 18.5t-27 43.5q0 14 9 22.5t22 8.5q15 0 25.5 -5t22.5 -17l39 -35q6 5 15.5 22.5t17 56.5t7.5 108v491q0 67 21 114t57.5 72.5t81.5 25.5q41 0 68 -18t27 -44q0 -14 -9.5 -22.5t-23.5 -8.5q-13 0 -24 5.5t-23 16.5l-38 35q-25 -7 -43.5 -40t-18.5 -107
v-87l2 -50v-324q0 -101 -20 -163.5t-52 -90.5t-68 -28zM69 378v33q19 3 36 7.5t36 10.5l75 -1h112v-50h-259z" />
    <glyph glyph-name="Ohorn" unicode="&#x1a0;" horiz-adv-x="686" 
d="M666 651q0 -29 -21.5 -60t-64 -49t-106.5 -8l31 21q61 -38 96 -104.5t35 -152.5q0 -67 -23 -123t-63 -97.5t-91.5 -64t-109.5 -22.5q-87 0 -154.5 38t-105.5 106t-38 156t39 156.5t107.5 108.5t156.5 40q47 0 82.5 -8.5t64.5 -8.5q33 0 52 18t20 62l2 51q26 5 46.5 0.5
t32.5 -19t12 -40.5zM358 45q54 0 93.5 28t61.5 79.5t22 121.5q0 81 -24.5 142t-68.5 95.5t-103 34.5q-85 0 -134.5 -63t-49.5 -173q0 -78 26 -137.5t72 -93.5t105 -34z" />
    <glyph glyph-name="ohorn" unicode="&#x1a1;" horiz-adv-x="508" 
d="M488 479q0 -19 -9 -37t-25.5 -31.5t-39.5 -21t-50 -6.5l15 19q41 -28 64.5 -75t23.5 -109q0 -63 -28 -114t-75.5 -81.5t-106.5 -30.5q-65 0 -113.5 28t-75.5 78.5t-27 115.5q0 51 17 92t46.5 70.5t67.5 45.5t80 16q31 0 50 -4t33.5 -8t30.5 -4q17 0 26 13t10 41l1 43
q34 8 59.5 -2t25.5 -38zM267 39q34 0 59 20.5t39 57t14 83.5q0 86 -35.5 139.5t-93.5 53.5q-54 0 -86.5 -45t-32.5 -119q0 -56 17.5 -99t48.5 -67t70 -24z" />
    <glyph glyph-name="Uhorn" unicode="&#x1af;" horiz-adv-x="664" 
d="M341 -9q-109 0 -170.5 60.5t-61.5 169.5v166q0 53 -1 84t-1.5 45.5t-1.5 17.5l-61 15l2 38h212l2 -38l-61 -15q0 -5 -1 -19.5t-1.5 -44.5t-0.5 -83v-154q2 -176 155 -176q145 0 145 183v129q0 45 -1 79.5t-2 57t-3 28.5l-70 15l3 38h99q33 0 50.5 6t25 22.5t8.5 45.5
l2 51q42 8 66 -8t24 -51q0 -47 -40.5 -79t-105.5 -36l10 17q-4 -35 -5 -78t-1 -108v-134q0 -77 -25.5 -131.5t-73.5 -83.5t-116 -29z" />
    <glyph glyph-name="uhorn" unicode="&#x1b0;" horiz-adv-x="543" 
d="M388 -11l-15 13l1 63l-3 1q-29 -41 -59.5 -57.5t-65.5 -16.5q-67 0 -112 41.5t-45 124.5v86q0 28 -1.5 54.5t-3.5 53.5l-68 14v33l136 37l18 -16q-2 -31 -3 -66t-1 -73l-1 -110q0 -62 29 -88.5t74 -26.5q27 0 55 14t49 48v116q0 22 -0.5 43.5t-1.5 41t-3 33.5l-73 14v33
l115 29q32 8 45.5 22t14.5 45l1 33q33 7 59 -3.5t26 -37.5q0 -40 -39.5 -65t-109.5 -31l42 26v-208q0 -55 2.5 -88.5t4.5 -50.5l63 -16v-33z" />
    <glyph glyph-name="uni01C4" unicode="&#x1c4;" horiz-adv-x="1205" 
d="M49 587h242q158 0 246.5 -75.5t88.5 -211.5q0 -88 -41 -155.5t-114 -106t-168 -38.5h-254l-2 38l61 14q2 9 3.5 51t1.5 96v188q0 59 -1.5 100t-3.5 48l-61 14zM200 533q0 -9 -0.5 -24.5t-1 -44t-0.5 -77.5v-188q0 -30 0.5 -56.5t2 -47.5l2.5 -35q32 -4 57.5 -6.5
t49.5 -2.5q106 0 161 56.5t55 163.5q0 65 -16 115.5t-47.5 84.5t-77 51.5t-105.5 17.5q-18 0 -38 -1.5t-42 -5.5zM1157 -4q-16 1 -32.5 2t-32.5 1.5t-32 0.5h-251q-19 0 -36 -0.5t-35 -1.5v36l328 538l2 -33h-225q-22 0 -37 -1t-28 -3l-14 -101h-42l-2 154q23 -1 44 -1h40
h273q19 0 38 0.5t38 1.5v-36l-326 -536v34h233q11 0 20 1l18 2l42 111l41 -5z" />
    <glyph glyph-name="uni01C5" unicode="&#x1c5;" horiz-adv-x="1116" 
d="M49 587h242q158 0 246.5 -75.5t88.5 -211.5q0 -88 -41 -155.5t-114 -106t-168 -38.5h-254l-2 38l61 14q2 9 3.5 51t1.5 96v188q0 59 -1.5 100t-3.5 48l-61 14zM200 533q0 -9 -0.5 -24.5t-1 -44t-0.5 -77.5v-188q0 -30 0.5 -56.5t2 -47.5l2.5 -35q32 -4 57.5 -6.5
t49.5 -2.5q106 0 161 56.5t55 163.5q0 65 -16 115.5t-47.5 84.5t-77 51.5t-105.5 17.5q-18 0 -38 -1.5t-42 -5.5zM818 17l-2 29h141q14 0 30 1t32 3l25 83h47l-17 -134q-25 1 -48 1h-43h-165q-20 0 -42 -0.5t-42 -1.5v32l255 383l-2 -28h-138q-16 0 -31.5 -1t-29.5 -3
l-14 -77h-46l-1 127q25 -1 47.5 -1h41.5h168q21 0 42.5 0.5t43.5 1.5v-32zM1043 663l-102 -167h-74l-102 167l39 14l132 -152h-60l128 152z" />
    <glyph glyph-name="uni01C6" unicode="&#x1c6;" horiz-adv-x="973" 
d="M383 -11l-15 13l1 65l-3 1q-30 -42 -61.5 -59t-66.5 -17q-57 0 -101.5 26.5t-70.5 73.5t-26 108q0 53 18 97t49.5 75.5t71.5 48.5t83 17q28 0 57 -7t49 -22q0 18 -0.5 47t-1 60.5t-1 56t-1.5 33.5l-78 14l-2 33l147 41l18 -14q-2 -62 -3 -120t-1 -121l-1 -230
q0 -51 2.5 -87.5t3.5 -51.5l64 -16v-33zM263 59q29 0 54 12.5t51 44.5v215q-19 34 -48 48t-58 14q-63 0 -98.5 -46.5t-35.5 -120.5q0 -79 39.5 -123t95.5 -44zM675 17l-2 29h141q14 0 30 1t32 3l25 83h47l-17 -134q-25 1 -48 1h-43h-165q-20 0 -42 -0.5t-42 -1.5v32l255 383
l-2 -28h-138q-16 0 -31.5 -1t-29.5 -3l-14 -77h-46l-1 127q25 -1 47.5 -1h41.5h168q21 0 42.5 0.5t43.5 1.5v-32zM900 663l-102 -167h-74l-102 167l39 14l132 -152h-60l128 152z" />
    <glyph glyph-name="uni01C7" unicode="&#x1c7;" horiz-adv-x="816" 
d="M467 -5q-14 2 -31.5 3t-34.5 1.5t-31 0.5h-320l-2 38l61 14q1 5 2 23t1.5 49t0.5 75v188v76t-1 49t-3 22l-61 15l2 38h235l3 -40l-83 -13q-2 -3 -3.5 -19.5t-2 -48t-0.5 -79.5v-188q0 -52 1 -90.5t2 -49.5q14 -1 29 -2t34 -1h75q23 0 39 1t32 3l52 98l45 -10zM709 535
q-2 -3 -3.5 -20t-2 -48.5t-0.5 -79.5l1 -371q0 -70 -19.5 -119t-55.5 -74.5t-86 -25.5q-46 0 -80 21.5t-34 49.5q0 17 10.5 27t28.5 10q14 0 26.5 -6t25.5 -20l52 -52l-35 12q29 -5 46.5 7.5t26 43.5t8.5 83v414q0 44 -0.5 75t-1 49.5t-2.5 23.5l-68 14l2 38h220l2 -38z" />
    <glyph glyph-name="uni01C8" unicode="&#x1c8;" horiz-adv-x="764" 
d="M467 -5q-14 2 -31.5 3t-34.5 1.5t-31 0.5h-320l-2 38l61 14q1 5 2 23t1.5 49t0.5 75v188v76t-1 49t-3 22l-61 15l2 38h235l3 -40l-83 -13q-2 -3 -3.5 -19.5t-2 -48t-0.5 -79.5v-188q0 -52 1 -90.5t2 -49.5q14 -1 29 -2t34 -1h75q23 0 39 1t32 3l52 98l45 -10zM525 -228
q-41 0 -68 18.5t-27 43.5q0 14 8.5 22.5t23.5 8.5q14 0 24.5 -5t23.5 -17l45 -44l-23 7q19 0 36 12.5t27.5 42.5t10.5 81l1 303q0 42 -3 70t-5 38l-67 13v33l142 37l15 -14q-2 -26 -3.5 -55.5t-1.5 -75.5l1 -307q0 -66 -21 -113.5t-57.5 -73t-81.5 -25.5zM647 549
q-25 0 -43.5 17t-18.5 42t18.5 42t43.5 17q26 0 43 -17t17 -42t-17 -42t-43 -17z" />
    <glyph glyph-name="uni01C9" unicode="&#x1c9;" horiz-adv-x="522" 
d="M28 0l-2 37l65 14q2 10 3 33t1.5 61t0.5 93v125q0 38 -0.5 78t-1 75.5t-1 61t-1.5 33.5l-74 10l-2 32l143 41l19 -14l-2 -84t-1.5 -93t-0.5 -123l-1 -161q0 -59 1.5 -106.5t3.5 -61.5l65 -14l-2 -37h-213zM283 -228q-41 0 -68 18.5t-27 43.5q0 14 8.5 22.5t23.5 8.5
q14 0 24.5 -5t23.5 -17l45 -44l-23 7q19 0 36 12.5t27.5 42.5t10.5 81l1 303q0 42 -3 70t-5 38l-67 13v33l142 37l15 -14q-2 -26 -3.5 -55.5t-1.5 -75.5l1 -307q0 -66 -21 -113.5t-57.5 -73t-81.5 -25.5zM405 549q-25 0 -43.5 17t-18.5 42t18.5 42t43.5 17q26 0 43 -17
t17 -42t-17 -42t-43 -17z" />
    <glyph glyph-name="uni01CA" unicode="&#x1ca;" horiz-adv-x="979" 
d="M505 143v224q0 59 -1 94.5t-2 53t-2 20.5l-68 14l3 38h190l3 -38l-62 -14q0 -3 -1.5 -20.5t-2.5 -53t-1 -94.5v-238v-64.5t1 -68.5h-45l-368 495h22v-268q0 -60 1 -96.5t2.5 -53.5t2.5 -21l68 -14l-3 -38h-192l-3 38l61 14q1 4 2.5 21t2.5 53.5t1 96.5v171q0 45 -1 74
t-2 45t-3 22l-61 14l3 38h137l336 -444h-18zM872 535q-2 -3 -3.5 -20t-2 -48.5t-0.5 -79.5l1 -371q0 -70 -19.5 -119t-55.5 -74.5t-86 -25.5q-46 0 -80 21.5t-34 49.5q0 17 10.5 27t28.5 10q14 0 26.5 -6t25.5 -20l52 -52l-35 12q29 -5 46.5 7.5t26 43.5t8.5 83v414
q0 44 -0.5 75t-1 49.5t-2.5 23.5l-68 14l2 38h220l2 -38z" />
    <glyph glyph-name="uni01CB" unicode="&#x1cb;" horiz-adv-x="927" 
d="M505 143v224q0 59 -1 94.5t-2 53t-2 20.5l-68 14l3 38h190l3 -38l-62 -14q0 -3 -1.5 -20.5t-2.5 -53t-1 -94.5v-238v-64.5t1 -68.5h-45l-368 495h22v-268q0 -60 1 -96.5t2.5 -53.5t2.5 -21l68 -14l-3 -38h-192l-3 38l61 14q1 4 2.5 21t2.5 53.5t1 96.5v171q0 45 -1 74
t-2 45t-3 22l-61 14l3 38h137l336 -444h-18zM688 -228q-41 0 -68 18.5t-27 43.5q0 14 8.5 22.5t23.5 8.5q14 0 24.5 -5t23.5 -17l45 -44l-23 7q19 0 36 12.5t27.5 42.5t10.5 81l1 303q0 42 -3 70t-5 38l-67 13v33l142 37l15 -14q-2 -26 -3.5 -55.5t-1.5 -75.5l1 -307
q0 -66 -21 -113.5t-57.5 -73t-81.5 -25.5zM810 549q-25 0 -43.5 17t-18.5 42t18.5 42t43.5 17q26 0 43 -17t17 -42t-17 -42t-43 -17z" />
    <glyph glyph-name="uni01CC" unicode="&#x1cc;" horiz-adv-x="803" 
d="M31 0l-2 36l62 15q1 7 1.5 19t1.5 33t1 55l1 77q0 33 -2.5 65.5t-5.5 51.5l-64 14v33l134 37l17 -16l-5 -53l3 -1q35 38 69 55t74 17q37 0 69.5 -18.5t53 -56.5t20.5 -97v-111q0 -36 1.5 -65t4.5 -39l62 -15l-3 -36h-201l-2 36l58 15q1 8 2 20t1.5 30.5t0.5 46.5v108
q0 45 -15.5 71.5t-38.5 38t-47 11.5q-33 0 -61.5 -16.5t-48.5 -45.5v-150q0 -46 1.5 -74.5t3.5 -39.5l62 -15l-3 -36h-205zM564 -228q-41 0 -68 18.5t-27 43.5q0 14 8.5 22.5t23.5 8.5q14 0 24.5 -5t23.5 -17l45 -44l-23 7q19 0 36 12.5t27.5 42.5t10.5 81l1 303q0 42 -3 70
t-5 38l-67 13v33l142 37l15 -14q-2 -26 -3.5 -55.5t-1.5 -75.5l1 -307q0 -66 -21 -113.5t-57.5 -73t-81.5 -25.5zM686 549q-25 0 -43.5 17t-18.5 42t18.5 42t43.5 17q26 0 43 -17t17 -42t-17 -42t-43 -17z" />
    <glyph glyph-name="uni01CF" unicode="&#x1cf;" horiz-adv-x="310" 
d="M49 0l-2 38l61 14q2 5 2.5 23t1 49t0.5 75v188q0 45 -0.5 76.5t-1 49.5t-2.5 22l-61 14l2 38h213l2 -38l-61 -14q-2 -3 -3.5 -19.5t-2 -48t-0.5 -80.5v-188q0 -48 0.5 -79t2 -47.5t3.5 -20.5l61 -14l-2 -38h-213zM-14 754l34 24l165 -91h-60l165 91l34 -24l-132 -107h-74
z" />
    <glyph glyph-name="Gcaron" unicode="&#x1e6;" horiz-adv-x="648" 
d="M374 -9q-91 0 -164 33.5t-116 99.5t-43 164q0 63 22.5 118.5t65 98.5t104 67t140.5 24q41 0 88 -8t81 -23l6 -131l-44 -4l-29 89q-19 14 -50.5 20t-59.5 6q-77 0 -126 -32.5t-71.5 -86.5t-22.5 -119q0 -85 30.5 -144t82.5 -89.5t117 -30.5q29 0 63 8.5t61 27.5l-24 -56
v105q0 32 -1 57.5t-3 38.5l-68 11l2 40h195l2 -38l-44 -12v-24v-46q0 -34 1 -58.5t2 -50.5q-39 -25 -93.5 -40t-103.5 -15zM183 754l34 24l165 -91h-60l165 91l34 -24l-132 -107h-74z" />
    <glyph glyph-name="gcaron" unicode="&#x1e7;" horiz-adv-x="495" 
d="M233 -228q-92 0 -146 30t-54 80q0 34 27 63t87 59l38 -8q-33 -19 -51 -44.5t-18 -54.5q0 -40 32.5 -62t88.5 -22q65 0 105 28t40 72q0 34 -24.5 50.5t-80.5 20.5l-107 9l-15 4q-37 0 -62.5 19.5t-25.5 47.5q0 27 26 53t72 46l13 -20q-19 -13 -28 -23.5t-9 -20.5
q0 -14 12.5 -24t35.5 -12l129 -13q69 -7 105 -35t36 -80q0 -46 -30 -83t-81 -58.5t-115 -21.5zM241 124q-53 0 -94.5 19t-64.5 52.5t-23 76.5q0 47 24 84.5t65 59t92 21.5t91.5 -20t63.5 -55.5t23 -80.5q0 -44 -23.5 -80t-63.5 -56.5t-90 -20.5zM246 164q41 0 65 30t24 80
q0 56 -26.5 90t-69.5 34q-41 0 -67 -32t-26 -83q0 -53 27.5 -86t72.5 -33zM478 365l-119 8l-39 40l158 16v-64zM380 663l-102 -167h-74l-102 167l39 14l132 -152h-60l128 152z" />
    <glyph glyph-name="uni01EA" unicode="&#x1ea;" horiz-adv-x="686" 
d="M375 -223q-34 0 -59.5 12t-39.5 33t-14 46q0 46 40 85t110 66l-34 -28h-29q-87 0 -154.5 38t-105.5 106t-38 156t39 156.5t107 108.5t154 40q84 0 148.5 -38t100.5 -105t36 -155q0 -70 -24.5 -127.5t-66 -98.5t-93.5 -61q-61 -23 -90.5 -60t-29.5 -73q0 -27 16 -43
t41 -16q20 0 37 9.5t32 25.5l23 -27q-19 -22 -46 -36t-60 -14zM358 45q54 0 93.5 28t61.5 79.5t22 121.5q0 81 -24.5 142t-68.5 95.5t-103 34.5q-85 0 -134.5 -63t-49.5 -173q0 -78 26 -137.5t72 -93.5t105 -34z" />
    <glyph glyph-name="uni01EB" unicode="&#x1eb;" horiz-adv-x="508" 
d="M274 -223q-34 0 -59.5 12t-39.5 33t-14 46q0 46 42.5 84.5t114.5 64.5l-34 -25h-27q-65 0 -113.5 28t-75.5 78.5t-27 115.5q0 68 30 118t80 78t110 28q62 0 108.5 -27.5t72 -77t25.5 -115.5q0 -46 -15 -85t-39.5 -67.5t-53.5 -45.5q-74 -43 -101 -76t-27 -66
q0 -27 16 -43t42 -16q19 0 36 9.5t33 25.5l22 -27q-19 -22 -46 -36t-60 -14zM267 39q34 0 59 20.5t39 57t14 83.5q0 86 -35.5 139.5t-93.5 53.5q-54 0 -86.5 -45t-32.5 -119q0 -56 17.5 -99t48.5 -67t70 -24z" />
    <glyph glyph-name="Aringacute" unicode="&#x1fa;" horiz-adv-x="582" 
d="M3 0l-2 38l49 14l206 518l58 35l218 -553l50 -14l-3 -38h-202l-2 38l61 14l-59 148l-11 31l-109 272l23 13l-104 -285l-11 -30l-53 -149l61 -14l-2 -38h-168zM143 185v53q19 -1 52 -2t81 -1q47 0 80.5 1t51.5 2v-53q-34 1 -67.5 1.5t-64.5 0.5q-30 0 -62.5 -0.5
t-70.5 -1.5zM286 645q-42 0 -71 27.5t-29 67.5t29 67.5t71 27.5t70 -27t28 -68q0 -40 -28 -67.5t-70 -27.5zM287 678q26 0 42.5 17.5t16.5 45.5q0 29 -16.5 46t-42.5 17t-43.5 -17.5t-17.5 -45.5q0 -27 17.5 -45t43.5 -18zM354 785l-39 14l57 112l80 -23z" />
    <glyph glyph-name="aringacute" unicode="&#x1fb;" horiz-adv-x="474" 
d="M196 -8q-40 0 -71 16t-48.5 41t-17.5 52q0 34 22 56t72 38l152 51v51q0 25 -15 45.5t-40 32.5t-56 12q-25 0 -34 -10.5t-11 -41.5l-2 -42q-36 -8 -61 2.5t-25 34.5q0 17 14.5 34t38.5 32.5t52 26.5t55 15q74 0 118.5 -39t45.5 -102l-2 -168q0 -19 1.5 -37t4.5 -27l64 -12
v-31l-49 -18q-14 -5 -26 -8.5t-20 -3.5q-31 0 -40 35l-11 39h15q-33 -37 -63.5 -55.5t-62.5 -18.5zM223 51q23 0 43 10.5t39 32.5v105l-112 -30q-24 -6 -34.5 -19t-10.5 -33q0 -25 22.5 -45.5t52.5 -20.5zM232 493q-42 0 -71 28t-29 68q0 41 29 68.5t71 27.5t70 -27.5
t28 -68.5q0 -40 -28 -68t-70 -28zM233 527q26 0 42.5 17.5t16.5 45.5q0 29 -16.5 46t-42.5 17t-43.5 -17.5t-17.5 -45.5q0 -27 17.5 -45t43.5 -18zM300 634l-39 13l72 143l80 -23z" />
    <glyph glyph-name="AEacute" unicode="&#x1fc;" horiz-adv-x="804" 
d="M735 -5q-22 2 -38.5 3t-30 1.5t-26.5 0.5h-330l-2 38l61 14q1 13 1.5 36.5t0.5 69.5v362l29 19l-297 -487l61 -14l-2 -38h-174l-3 38l51 14l331 518l11 -35l-90 14l2 38h328q18 0 34.5 0.5t33 1.5t32.5 2l20 -132l-45 -7l-34 84q-7 2 -16.5 2.5t-20.5 0.5h-104
q-15 0 -29.5 -0.5t-31.5 -1.5q0 -5 -0.5 -23.5t-1 -42.5t-0.5 -48v-270v-30.5t0.5 -29.5t1 -24.5t0.5 -15.5q13 -1 24.5 -1.5t39.5 -0.5h85q22 0 35.5 0.5t22 1.5t14.5 2l51 95l45 -9zM166 180l12 54q11 -1 26 -1.5t35.5 -1t46.5 -0.5q40 0 68 1t44 2v-54q-13 2 -36 2h-76
h-68.5t-51.5 -2zM624 205l-13 69q-6 2 -17.5 2.5t-28.5 0.5h-67q-13 0 -27 -0.5t-31 -1.5v54q17 -1 31 -1.5t27 -0.5h67q17 0 28.5 1t17.5 2l13 69h41v-194h-41zM435 639l-42 14l71 131l79 -23z" />
    <glyph glyph-name="aeacute" unicode="&#x1fd;" horiz-adv-x="698" 
d="M202 -8q-37 0 -69.5 14.5t-52.5 39.5t-20 55q0 41 30.5 66.5t95.5 38.5l408 77l-13 -28v24q0 54 -23 85.5t-64 31.5q-30 0 -54 -17.5t-38 -48t-14 -71.5v-32q0 -82 38 -125t99 -43q32 0 58.5 13t53.5 47l25 -24q-28 -52 -69.5 -77.5t-93.5 -25.5q-56 0 -99 26.5t-67.5 75
t-24.5 113.5v75q0 35 -16.5 58t-41.5 35t-53 12q-27 0 -35 -11.5t-10 -40.5l-2 -42q-33 -7 -59 2.5t-26 34.5q0 16 14 33t37.5 32.5t51.5 27t56 15.5q51 0 93.5 -22t57.5 -67h-19q23 41 61 65t87 24q71 0 114 -50t43 -133l-463 -88q-23 -4 -36 -16t-13 -34q0 -28 24.5 -47
t56.5 -19q27 0 51 15.5t52 50.5l29 -29q-33 -37 -58.5 -58t-49 -29.5t-52.5 -8.5zM368 482l-40 13l99 182l80 -23z" />
    <glyph glyph-name="Oslashacute" unicode="&#x1fe;" horiz-adv-x="686" 
d="M349 -9q-87 0 -154.5 38t-105.5 106t-38 156t39 156.5t107 108.5t154 40q84 0 148.5 -38t100.5 -105t36 -155q0 -67 -23 -123t-63 -97.5t-91.5 -64t-109.5 -22.5zM358 45q54 0 93.5 28t61.5 79.5t22 121.5q0 81 -24.5 142t-68.5 95.5t-103 34.5q-85 0 -134.5 -63
t-49.5 -173q0 -78 26 -137.5t72 -93.5t105 -34zM152 -66l-47 28l429 692l47 -28zM364 639l-42 14l71 131l79 -23z" />
    <glyph glyph-name="oslashacute" unicode="&#x1ff;" horiz-adv-x="508" 
d="M257 -8q-65 0 -113.5 28t-75.5 78.5t-27 115.5q0 68 30 118t80 78t110 28q62 0 108.5 -27.5t72 -77t25.5 -115.5q0 -63 -28 -114t-75.5 -81.5t-106.5 -30.5zM267 39q34 0 59 20.5t39 57t14 83.5q0 86 -35.5 139.5t-93.5 53.5q-54 0 -86.5 -45t-32.5 -119q0 -56 17.5 -99
t48.5 -67t70 -24zM102 -64l-38 24l342 534l38 -24zM279 482l-40 13l99 182l80 -23z" />
    <glyph glyph-name="uni0200" unicode="&#x200;" horiz-adv-x="582" 
d="M3 0l-2 38l49 14l206 518l58 35l218 -553l50 -14l-3 -38h-202l-2 38l61 14l-59 148l-11 31l-109 272l23 13l-104 -285l-11 -30l-53 -149l61 -14l-2 -38h-168zM143 185v53q19 -1 52 -2t81 -1q47 0 80.5 1t51.5 2v-53q-34 1 -67.5 1.5t-64.5 0.5q-30 0 -62.5 -0.5
t-70.5 -1.5zM330 639l-82 120l70 15l45 -122zM207 639l-82 120l70 15l45 -122z" />
    <glyph glyph-name="uni0201" unicode="&#x201;" horiz-adv-x="474" 
d="M196 -8q-40 0 -71 16t-48.5 41t-17.5 52q0 34 22 56t72 38l152 51v51q0 25 -15 45.5t-40 32.5t-56 12q-25 0 -34 -10.5t-11 -41.5l-2 -42q-36 -8 -61 2.5t-25 34.5q0 17 14.5 34t38.5 32.5t52 26.5t55 15q74 0 118.5 -39t45.5 -102l-2 -168q0 -19 1.5 -37t4.5 -27l64 -12
v-31l-49 -18q-14 -5 -26 -8.5t-20 -3.5q-31 0 -40 35l-11 39h15q-33 -37 -63.5 -55.5t-62.5 -18.5zM223 51q23 0 43 10.5t39 32.5v105l-112 -30q-24 -6 -34.5 -19t-10.5 -33q0 -25 22.5 -45.5t52.5 -20.5zM277 482l-105 180l70 15l67 -182zM153 482l-105 180l70 15l67 -182z
" />
    <glyph glyph-name="uni0202" unicode="&#x202;" horiz-adv-x="582" 
d="M3 0l-2 38l49 14l206 518l58 35l218 -553l50 -14l-3 -38h-202l-2 38l61 14l-59 148l-11 31l-109 272l23 13l-104 -285l-11 -30l-53 -149l61 -14l-2 -38h-168zM143 185v53q19 -1 52 -2t81 -1q47 0 80.5 1t51.5 2v-53q-34 1 -67.5 1.5t-64.5 0.5q-30 0 -62.5 -0.5
t-70.5 -1.5zM158 639l-38 14q11 56 55 87.5t109 31.5t110.5 -31.5t55.5 -87.5l-42 -14q-10 34 -42.5 53.5t-82.5 19.5q-51 0 -84 -19.5t-41 -53.5z" />
    <glyph glyph-name="uni0203" unicode="&#x203;" horiz-adv-x="474" 
d="M196 -8q-40 0 -71 16t-48.5 41t-17.5 52q0 34 22 56t72 38l152 51v51q0 25 -15 45.5t-40 32.5t-56 12q-25 0 -34 -10.5t-11 -41.5l-2 -42q-36 -8 -61 2.5t-25 34.5q0 17 14.5 34t38.5 32.5t52 26.5t55 15q74 0 118.5 -39t45.5 -102l-2 -168q0 -19 1.5 -37t4.5 -27l64 -12
v-31l-49 -18q-14 -5 -26 -8.5t-20 -3.5q-31 0 -40 35l-11 39h15q-33 -37 -63.5 -55.5t-62.5 -18.5zM223 51q23 0 43 10.5t39 32.5v105l-112 -30q-24 -6 -34.5 -19t-10.5 -33q0 -25 22.5 -45.5t52.5 -20.5zM135 482l-39 13q2 54 19 92t47.5 58t70.5 20q60 0 95.5 -44.5
t37.5 -125.5l-41 -13q-7 58 -32 88t-63 30q-39 0 -64 -30t-31 -88z" />
    <glyph glyph-name="uni0204" unicode="&#x204;" horiz-adv-x="556" 
d="M486 -5q-29 3 -51.5 4t-42.5 1h-343l-3 38l62 14q2 5 2.5 23t1 49t0.5 75v188q0 45 -0.5 76.5t-1 49.5t-2.5 22l-62 14l3 38h321q14 0 29.5 0.5t33.5 1.5t37 2l20 -132l-45 -7l-33 84q-8 2 -18 2.5t-21 0.5h-113q-19 0 -33.5 -0.5t-28.5 -2.5q0 -4 -0.5 -22.5t-1 -42.5
t-0.5 -48v-270q0 -20 0.5 -40.5t1 -36.5t0.5 -22q14 -1 29.5 -2t34.5 -1h97q22 0 36 0.5t22 1.5t13 2l52 95l45 -9zM375 205l-12 68q-5 2 -17 3t-29 1h-76q-13 0 -28 -1t-32 -2v55q17 -1 32 -1.5t28 -0.5h76q17 0 29 1t17 2l12 69h43v-194h-43zM325 639l-82 120l70 15
l45 -122zM202 639l-82 120l70 15l45 -122z" />
    <glyph glyph-name="uni0205" unicode="&#x205;" horiz-adv-x="450" 
d="M248 -8q-58 0 -104.5 26t-74 74.5t-27.5 114.5q0 71 29 123t76 80.5t101 27.5q78 -1 122 -52t44 -144v-18h-307v44h241l-11 -13v21q0 58 -26 89t-71 31q-28 0 -54 -16.5t-42 -50t-16 -84.5v-12q0 -82 40.5 -128t104.5 -46q35 0 63 14t54 45l25 -23q-28 -52 -71 -77.5
t-96 -25.5zM286 482l-105 180l70 15l67 -182zM162 482l-105 180l70 15l67 -182z" />
    <glyph glyph-name="uni0206" unicode="&#x206;" horiz-adv-x="556" 
d="M486 -5q-29 3 -51.5 4t-42.5 1h-343l-3 38l62 14q2 5 2.5 23t1 49t0.5 75v188q0 45 -0.5 76.5t-1 49.5t-2.5 22l-62 14l3 38h321q14 0 29.5 0.5t33.5 1.5t37 2l20 -132l-45 -7l-33 84q-8 2 -18 2.5t-21 0.5h-113q-19 0 -33.5 -0.5t-28.5 -2.5q0 -4 -0.5 -22.5t-1 -42.5
t-0.5 -48v-270q0 -20 0.5 -40.5t1 -36.5t0.5 -22q14 -1 29.5 -2t34.5 -1h97q22 0 36 0.5t22 1.5t13 2l52 95l45 -9zM375 205l-12 68q-5 2 -17 3t-29 1h-76q-13 0 -28 -1t-32 -2v55q17 -1 32 -1.5t28 -0.5h76q17 0 29 1t17 2l12 69h43v-194h-43zM153 639l-38 14
q11 56 55 87.5t109 31.5t110.5 -31.5t55.5 -87.5l-42 -14q-10 34 -42.5 53.5t-82.5 19.5q-51 0 -84 -19.5t-41 -53.5z" />
    <glyph glyph-name="uni0207" unicode="&#x207;" horiz-adv-x="450" 
d="M248 -8q-58 0 -104.5 26t-74 74.5t-27.5 114.5q0 71 29 123t76 80.5t101 27.5q78 -1 122 -52t44 -144v-18h-307v44h241l-11 -13v21q0 58 -26 89t-71 31q-28 0 -54 -16.5t-42 -50t-16 -84.5v-12q0 -82 40.5 -128t104.5 -46q35 0 63 14t54 45l25 -23q-28 -52 -71 -77.5
t-96 -25.5zM144 482l-39 13q2 54 19 92t47.5 58t70.5 20q60 0 95.5 -44.5t37.5 -125.5l-41 -13q-7 58 -32 88t-63 30q-39 0 -64 -30t-31 -88z" />
    <glyph glyph-name="uni0208" unicode="&#x208;" horiz-adv-x="310" 
d="M49 0l-2 38l61 14q2 5 2.5 23t1 49t0.5 75v188q0 45 -0.5 76.5t-1 49.5t-2.5 22l-61 14l2 38h213l2 -38l-61 -14q-2 -3 -3.5 -19.5t-2 -48t-0.5 -80.5v-188q0 -48 0.5 -79t2 -47.5t3.5 -20.5l61 -14l-2 -38h-213zM200 639l-82 120l70 15l45 -122zM77 639l-82 120l70 15
l45 -122z" />
    <glyph glyph-name="uni0209" unicode="&#x209;" horiz-adv-x="268" 
d="M27 0l-2 37l67 14q1 4 1.5 14t1.5 32t1 61v66q0 41 -2 75t-5 53l-67 14v33l142 37l15 -14q-3 -31 -4.5 -61t-1.5 -70v-126q0 -46 1.5 -76t3.5 -38l67 -14l-2 -37h-216zM180 482l-105 180l70 15l67 -182zM56 482l-105 180l70 15l67 -182z" />
    <glyph glyph-name="uni020A" unicode="&#x20a;" horiz-adv-x="310" 
d="M49 0l-2 38l61 14q2 5 2.5 23t1 49t0.5 75v188q0 45 -0.5 76.5t-1 49.5t-2.5 22l-61 14l2 38h213l2 -38l-61 -14q-2 -3 -3.5 -19.5t-2 -48t-0.5 -80.5v-188q0 -48 0.5 -79t2 -47.5t3.5 -20.5l61 -14l-2 -38h-213zM28 639l-38 14q11 56 55 87.5t109 31.5t110.5 -31.5
t55.5 -87.5l-42 -14q-10 34 -42.5 53.5t-82.5 19.5q-51 0 -84 -19.5t-41 -53.5z" />
    <glyph glyph-name="uni020B" unicode="&#x20b;" horiz-adv-x="268" 
d="M27 0l-2 37l67 14q1 4 1.5 14t1.5 32t1 61v66q0 41 -2 75t-5 53l-67 14v33l142 37l15 -14q-3 -31 -4.5 -61t-1.5 -70v-126q0 -46 1.5 -76t3.5 -38l67 -14l-2 -37h-216zM38 482l-39 13q2 54 19 92t47.5 58t70.5 20q60 0 95.5 -44.5t37.5 -125.5l-41 -13q-7 58 -32 88
t-63 30q-39 0 -64 -30t-31 -88z" />
    <glyph glyph-name="uni020C" unicode="&#x20c;" horiz-adv-x="686" 
d="M349 -9q-87 0 -154.5 38t-105.5 106t-38 156t39 156.5t107 108.5t154 40q84 0 148.5 -38t100.5 -105t36 -155q0 -67 -23 -123t-63 -97.5t-91.5 -64t-109.5 -22.5zM358 45q54 0 93.5 28t61.5 79.5t22 121.5q0 81 -24.5 142t-68.5 95.5t-103 34.5q-85 0 -134.5 -63
t-49.5 -173q0 -78 26 -137.5t72 -93.5t105 -34zM388 639l-82 120l70 15l45 -122zM265 639l-82 120l70 15l45 -122z" />
    <glyph glyph-name="uni020D" unicode="&#x20d;" horiz-adv-x="508" 
d="M257 -8q-65 0 -113.5 28t-75.5 78.5t-27 115.5q0 68 30 118t80 78t110 28q62 0 108.5 -27.5t72 -77t25.5 -115.5q0 -63 -28 -114t-75.5 -81.5t-106.5 -30.5zM267 39q34 0 59 20.5t39 57t14 83.5q0 86 -35.5 139.5t-93.5 53.5q-54 0 -86.5 -45t-32.5 -119q0 -56 17.5 -99
t48.5 -67t70 -24zM300 482l-105 180l70 15l67 -182zM176 482l-105 180l70 15l67 -182z" />
    <glyph glyph-name="uni020E" unicode="&#x20e;" horiz-adv-x="686" 
d="M349 -9q-87 0 -154.5 38t-105.5 106t-38 156t39 156.5t107 108.5t154 40q84 0 148.5 -38t100.5 -105t36 -155q0 -67 -23 -123t-63 -97.5t-91.5 -64t-109.5 -22.5zM358 45q54 0 93.5 28t61.5 79.5t22 121.5q0 81 -24.5 142t-68.5 95.5t-103 34.5q-85 0 -134.5 -63
t-49.5 -173q0 -78 26 -137.5t72 -93.5t105 -34zM216 639l-38 14q11 56 55 87.5t109 31.5t110.5 -31.5t55.5 -87.5l-42 -14q-10 34 -42.5 53.5t-82.5 19.5q-51 0 -84 -19.5t-41 -53.5z" />
    <glyph glyph-name="uni020F" unicode="&#x20f;" horiz-adv-x="508" 
d="M257 -8q-65 0 -113.5 28t-75.5 78.5t-27 115.5q0 68 30 118t80 78t110 28q62 0 108.5 -27.5t72 -77t25.5 -115.5q0 -63 -28 -114t-75.5 -81.5t-106.5 -30.5zM267 39q34 0 59 20.5t39 57t14 83.5q0 86 -35.5 139.5t-93.5 53.5q-54 0 -86.5 -45t-32.5 -119q0 -56 17.5 -99
t48.5 -67t70 -24zM158 482l-39 13q2 54 19 92t47.5 58t70.5 20q60 0 95.5 -44.5t37.5 -125.5l-41 -13q-7 58 -32 88t-63 30q-39 0 -64 -30t-31 -88z" />
    <glyph glyph-name="uni0210" unicode="&#x210;" horiz-adv-x="567" 
d="M52 0l-2 38l61 15q0 7 0.5 21.5t0.5 34.5t0.5 43t0.5 47v188q0 46 -0.5 77.5t-1 49t-2.5 21.5l-62 14l3 38h219q94 0 143.5 -36.5t49.5 -107.5q0 -49 -27 -87.5t-75 -60.5t-111 -22h-64v45h57q62 0 96.5 31t34.5 86q0 53 -30 80.5t-86 27.5h-58q-1 -3 -1.5 -8.5
t-0.5 -19.5v-41v-72v-203q0 -43 0.5 -72t2 -46.5t2.5 -27.5l59 -15l-3 -38h-206zM526 -10q-44 0 -78 16.5t-66 55t-69 104.5l-68 124l75 17l108 -159q28 -41 50.5 -65.5t44.5 -36.5t48 -17l-1 -35q-10 -2 -21.5 -3t-22.5 -1zM313 639l-82 120l70 15l45 -122zM190 639
l-82 120l70 15l45 -122z" />
    <glyph glyph-name="uni0211" unicode="&#x211;" horiz-adv-x="364" 
d="M33 0l-3 36l62 15q1 5 2 18t1.5 35t0.5 54l1 78q0 33 -2.5 65t-5.5 51l-64 14v33l134 37l14 -14l-4 -84l3 -1q30 58 61 78.5t58 20.5q23 0 38.5 -11.5t15.5 -34.5q0 -24 -16.5 -36.5t-41.5 -12.5q-18 0 -34.5 8t-31.5 22l18 -6q-19 -12 -36 -33.5t-31 -53.5l1 -93
q1 -25 2 -52t2 -48.5t2 -33.5l87 -13l-2 -38h-231zM217 482l-105 180l70 15l67 -182zM93 482l-105 180l70 15l67 -182z" />
    <glyph glyph-name="uni0212" unicode="&#x212;" horiz-adv-x="567" 
d="M52 0l-2 38l61 15q0 7 0.5 21.5t0.5 34.5t0.5 43t0.5 47v188q0 46 -0.5 77.5t-1 49t-2.5 21.5l-62 14l3 38h219q94 0 143.5 -36.5t49.5 -107.5q0 -49 -27 -87.5t-75 -60.5t-111 -22h-64v45h57q62 0 96.5 31t34.5 86q0 53 -30 80.5t-86 27.5h-58q-1 -3 -1.5 -8.5
t-0.5 -19.5v-41v-72v-203q0 -43 0.5 -72t2 -46.5t2.5 -27.5l59 -15l-3 -38h-206zM526 -10q-44 0 -78 16.5t-66 55t-69 104.5l-68 124l75 17l108 -159q28 -41 50.5 -65.5t44.5 -36.5t48 -17l-1 -35q-10 -2 -21.5 -3t-22.5 -1zM141 639l-38 14q11 56 55 87.5t109 31.5
t110.5 -31.5t55.5 -87.5l-42 -14q-10 34 -42.5 53.5t-82.5 19.5q-51 0 -84 -19.5t-41 -53.5z" />
    <glyph glyph-name="uni0213" unicode="&#x213;" horiz-adv-x="364" 
d="M33 0l-3 36l62 15q1 5 2 18t1.5 35t0.5 54l1 78q0 33 -2.5 65t-5.5 51l-64 14v33l134 37l14 -14l-4 -84l3 -1q30 58 61 78.5t58 20.5q23 0 38.5 -11.5t15.5 -34.5q0 -24 -16.5 -36.5t-41.5 -12.5q-18 0 -34.5 8t-31.5 22l18 -6q-19 -12 -36 -33.5t-31 -53.5l1 -93
q1 -25 2 -52t2 -48.5t2 -33.5l87 -13l-2 -38h-231zM75 482l-39 13q2 54 19 92t47.5 58t70.5 20q60 0 95.5 -44.5t37.5 -125.5l-41 -13q-7 58 -32 88t-63 30q-39 0 -64 -30t-31 -88z" />
    <glyph glyph-name="uni0214" unicode="&#x214;" horiz-adv-x="664" 
d="M46 587h212l3 -38l-62 -15q0 -4 -1 -18t-1.5 -44t-0.5 -85v-154q1 -63 20.5 -102t54 -56.5t80.5 -17.5q44 0 76.5 18.5t50.5 58.5t18 106v129q0 45 -1 79.5t-2 57t-3 28.5l-70 15l3 38h194l3 -38l-61 -15q0 -3 -1 -19t-1.5 -50.5t-0.5 -95.5v-134q0 -84 -28 -138
t-76.5 -80t-110.5 -26q-109 0 -170.5 60.5t-61.5 169.5v166q0 55 -1 85.5t-1.5 44.5t-1.5 17l-61 15zM392 639l-82 120l70 15l45 -122zM269 639l-82 120l70 15l45 -122z" />
    <glyph glyph-name="uni0215" unicode="&#x215;" horiz-adv-x="543" 
d="M455 70l63 -16v-33l-130 -32l-15 13l1 63l-3 1q-29 -41 -59.5 -57.5t-65.5 -16.5q-67 0 -112 41.5t-45 124.5v86q0 28 -1.5 54.5t-3.5 53.5l-68 14v33l136 37l18 -16q-2 -31 -3 -66t-1 -73l-1 -110q0 -62 29 -88.5t74 -26.5q27 0 55 14t49 48v116q0 22 -0.5 43.5t-1.5 41
t-3 33.5l-73 14v33l141 37l15 -14q-1 -28 -1.5 -50t-0.5 -43.5v-48.5v-71q0 -55 2.5 -88.5t4.5 -50.5zM317 482l-105 180l70 15l67 -182zM193 482l-105 180l70 15l67 -182z" />
    <glyph glyph-name="uni0216" unicode="&#x216;" horiz-adv-x="664" 
d="M46 587h212l3 -38l-62 -15q0 -4 -1 -18t-1.5 -44t-0.5 -85v-154q1 -63 20.5 -102t54 -56.5t80.5 -17.5q44 0 76.5 18.5t50.5 58.5t18 106v129q0 45 -1 79.5t-2 57t-3 28.5l-70 15l3 38h194l3 -38l-61 -15q0 -3 -1 -19t-1.5 -50.5t-0.5 -95.5v-134q0 -84 -28 -138
t-76.5 -80t-110.5 -26q-109 0 -170.5 60.5t-61.5 169.5v166q0 55 -1 85.5t-1.5 44.5t-1.5 17l-61 15zM220 639l-38 14q11 56 55 87.5t109 31.5t110.5 -31.5t55.5 -87.5l-42 -14q-10 34 -42.5 53.5t-82.5 19.5q-51 0 -84 -19.5t-41 -53.5z" />
    <glyph glyph-name="uni0217" unicode="&#x217;" horiz-adv-x="543" 
d="M455 70l63 -16v-33l-130 -32l-15 13l1 63l-3 1q-29 -41 -59.5 -57.5t-65.5 -16.5q-67 0 -112 41.5t-45 124.5v86q0 28 -1.5 54.5t-3.5 53.5l-68 14v33l136 37l18 -16q-2 -31 -3 -66t-1 -73l-1 -110q0 -62 29 -88.5t74 -26.5q27 0 55 14t49 48v116q0 22 -0.5 43.5t-1.5 41
t-3 33.5l-73 14v33l141 37l15 -14q-1 -28 -1.5 -50t-0.5 -43.5v-48.5v-71q0 -55 2.5 -88.5t4.5 -50.5zM175 482l-39 13q2 54 19 92t47.5 58t70.5 20q60 0 95.5 -44.5t37.5 -125.5l-41 -13q-7 58 -32 88t-63 30q-39 0 -64 -30t-31 -88z" />
    <glyph glyph-name="uni0218" unicode="&#x218;" horiz-adv-x="479" 
d="M225 -9q-43 0 -90 11t-76 28l-5 129l43 4l28 -89q24 -16 53 -24.5t62 -8.5q50 0 79.5 24t29.5 65q0 35 -21 58.5t-54.5 40.5t-71 34t-71 38.5t-54.5 53t-21 78.5q0 49 27 85.5t75.5 57.5t110.5 21q26 0 50.5 -2.5t45.5 -7.5t38 -13l8 -125l-43 -4l-28 84q-31 20 -82 20
t-81.5 -24.5t-30.5 -65.5q0 -36 21.5 -60t55 -42t71 -35t71 -38t55 -51.5t21.5 -75.5q0 -48 -27.5 -85.5t-76.5 -59t-112 -21.5zM178 -286l-12 26q33 10 51 26t18 32q0 12 -6.5 18.5t-15.5 12t-15.5 14t-6.5 24.5q0 17 13 28.5t32 11.5q18 0 31.5 -8t20.5 -22.5t7 -34.5
q0 -27 -14.5 -52.5t-40.5 -45t-62 -30.5z" />
    <glyph glyph-name="uni0219" unicode="&#x219;" horiz-adv-x="402" 
d="M196 -8q-37 0 -74 8.5t-63 22.5l-5 107h49l20 -72q35 -24 80 -24q34 0 55 16.5t21 44.5q0 26 -19 45.5t-74 42.5q-71 31 -100 59.5t-29 73.5q0 36 21.5 63.5t59.5 43t88 15.5q28 0 57 -5t48 -13l11 -104h-47l-24 68q-10 6 -24 9.5t-30 3.5q-35 0 -56 -16.5t-21 -42.5
q0 -30 23 -48.5t81 -45.5q66 -30 92 -59t26 -70q0 -54 -47 -88.5t-119 -34.5zM137 -286l-12 26q33 10 51 26t18 32q0 12 -6.5 18.5t-15.5 12t-15.5 14t-6.5 24.5q0 17 13 28.5t32 11.5q18 0 31.5 -8t20.5 -22.5t7 -34.5q0 -27 -14.5 -52.5t-40.5 -45t-62 -30.5z" />
    <glyph glyph-name="uni021A" unicode="&#x21a;" horiz-adv-x="557" 
d="M518 591l22 -162l-44 -5l-42 113q-8 2 -18.5 2.5t-18.5 0.5h-36h-27t-31 -1q0 -8 -0.5 -37.5t-0.5 -68.5v-75v-135q0 -64 1 -110.5t1 -60.5l85 -12l-3 -40h-255l-2 40l84 12q0 14 1 60.5t1 110.5v135v75v68.5t-1 37.5q-13 1 -29.5 1h-27.5h-39q-8 0 -18 -0.5t-18 -2.5
l-41 -114l-45 6l22 162q12 -1 24 -1.5l24 -1t24.5 -1t24.5 -0.5h286q12 0 24 0.5l24 1t24.5 1t24.5 1.5zM214 -286l-12 26q33 10 51 26t18 32q0 12 -6.5 18.5t-15.5 12t-15.5 14t-6.5 24.5q0 17 13 28.5t32 11.5q18 0 31.5 -8t20.5 -22.5t7 -34.5q0 -27 -14.5 -52.5
t-40.5 -45t-62 -30.5z" />
    <glyph glyph-name="uni021B" unicode="&#x21b;" horiz-adv-x="339" 
d="M345 62q-19 -33 -52 -51.5t-69 -18.5q-61 0 -100 37t-39 111l3 239h-70v21l129 117h19l-2 -115l-1 -246q0 -52 22.5 -77t63.5 -25q23 0 42.5 9t35.5 24zM128 379v50h187v-50h-187zM129 -286l-12 26q33 10 51 26t18 32q0 12 -6.5 18.5t-15.5 12t-15.5 14t-6.5 24.5
q0 17 13 28.5t32 11.5q18 0 31.5 -8t20.5 -22.5t7 -34.5q0 -27 -14.5 -52.5t-40.5 -45t-62 -30.5z" />
    <glyph glyph-name="uni0226" unicode="&#x226;" horiz-adv-x="582" 
d="M3 0l-2 38l49 14l206 518l58 35l218 -553l50 -14l-3 -38h-202l-2 38l61 14l-59 148l-11 31l-109 272l23 13l-104 -285l-11 -30l-53 -149l61 -14l-2 -38h-168zM143 185v53q19 -1 52 -2t81 -1q47 0 80.5 1t51.5 2v-53q-34 1 -67.5 1.5t-64.5 0.5q-30 0 -62.5 -0.5
t-70.5 -1.5zM286 659q-22 0 -38 14.5t-16 36.5t16 36.5t38 14.5t37 -14.5t15 -36.5t-15 -36.5t-37 -14.5z" />
    <glyph glyph-name="uni0227" unicode="&#x227;" horiz-adv-x="474" 
d="M196 -8q-40 0 -71 16t-48.5 41t-17.5 52q0 34 22 56t72 38l152 51v51q0 25 -15 45.5t-40 32.5t-56 12q-25 0 -34 -10.5t-11 -41.5l-2 -42q-36 -8 -61 2.5t-25 34.5q0 17 14.5 34t38.5 32.5t52 26.5t55 15q74 0 118.5 -39t45.5 -102l-2 -168q0 -19 1.5 -37t4.5 -27l64 -12
v-31l-49 -18q-14 -5 -26 -8.5t-20 -3.5q-31 0 -40 35l-11 39h15q-33 -37 -63.5 -55.5t-62.5 -18.5zM223 51q23 0 43 10.5t39 32.5v105l-112 -30q-24 -6 -34.5 -19t-10.5 -33q0 -25 22.5 -45.5t52.5 -20.5zM232 527q-22 0 -38 14.5t-16 36.5t16 36.5t38 14.5t37 -14.5
t15 -36.5t-15 -36.5t-37 -14.5z" />
    <glyph glyph-name="uni022A" unicode="&#x22a;" horiz-adv-x="686" 
d="M349 -9q-87 0 -154.5 38t-105.5 106t-38 156t39 156.5t107 108.5t154 40q84 0 148.5 -38t100.5 -105t36 -155q0 -67 -23 -123t-63 -97.5t-91.5 -64t-109.5 -22.5zM358 45q54 0 93.5 28t61.5 79.5t22 121.5q0 81 -24.5 142t-68.5 95.5t-103 34.5q-85 0 -134.5 -63
t-49.5 -173q0 -78 26 -137.5t72 -93.5t105 -34zM180 880h326v-55h-326v55zM245 661q-22 0 -37 13.5t-15 35.5q0 21 15 35t37 14q21 0 35 -14t14 -35q0 -22 -14 -35.5t-35 -13.5zM443 661q-22 0 -36.5 13.5t-14.5 35.5q0 21 14.5 35t36.5 14t36 -14t14 -35q0 -22 -14 -35.5
t-36 -13.5z" />
    <glyph glyph-name="uni022B" unicode="&#x22b;" horiz-adv-x="508" 
d="M257 -8q-65 0 -113.5 28t-75.5 78.5t-27 115.5q0 68 30 118t80 78t110 28q62 0 108.5 -27.5t72 -77t25.5 -115.5q0 -63 -28 -114t-75.5 -81.5t-106.5 -30.5zM267 39q34 0 59 20.5t39 57t14 83.5q0 86 -35.5 139.5t-93.5 53.5q-54 0 -86.5 -45t-32.5 -119q0 -56 17.5 -99
t48.5 -67t70 -24zM176 529q-22 0 -37 13.5t-15 35.5q0 21 15 35t37 14q21 0 35 -14t14 -35q0 -22 -14 -35.5t-35 -13.5zM334 529q-22 0 -36.5 13.5t-14.5 35.5q0 21 14.5 35t36.5 14t36 -14t14 -35q0 -22 -14 -35.5t-36 -13.5zM111 743h286v-54h-286v54z" />
    <glyph glyph-name="uni022C" unicode="&#x22c;" horiz-adv-x="686" 
d="M349 -9q-87 0 -154.5 38t-105.5 106t-38 156t39 156.5t107 108.5t154 40q84 0 148.5 -38t100.5 -105t36 -155q0 -67 -23 -123t-63 -97.5t-91.5 -64t-109.5 -22.5zM358 45q54 0 93.5 28t61.5 79.5t22 121.5q0 81 -24.5 142t-68.5 95.5t-103 34.5q-85 0 -134.5 -63
t-49.5 -173q0 -78 26 -137.5t72 -93.5t105 -34zM411 645q-25 0 -50.5 11t-50 21.5t-45.5 10.5q-22 0 -35 -11.5t-26 -31.5l-32 18q15 41 41 66t60 25q25 0 50.5 -10.5t50 -21.5t46.5 -11q20 0 33.5 11t25.5 32l33 -18q-15 -42 -41 -66.5t-60 -24.5zM180 805v55h326v-55h-326
z" />
    <glyph glyph-name="uni022D" unicode="&#x22d;" horiz-adv-x="508" 
d="M257 -8q-65 0 -113.5 28t-75.5 78.5t-27 115.5q0 68 30 118t80 78t110 28q62 0 108.5 -27.5t72 -77t25.5 -115.5q0 -63 -28 -114t-75.5 -81.5t-106.5 -30.5zM267 39q34 0 59 20.5t39 57t14 83.5q0 86 -35.5 139.5t-93.5 53.5q-54 0 -86.5 -45t-32.5 -119q0 -56 17.5 -99
t48.5 -67t70 -24zM325 518q-25 0 -50.5 14t-50 28t-45.5 14q-22 0 -35.5 -13.5t-25.5 -36.5l-33 18q15 44 41.5 70.5t60.5 26.5q25 0 50.5 -14t50.5 -28t46 -14q20 0 33.5 14t26.5 36l33 -18q-15 -44 -41.5 -70.5t-60.5 -26.5zM113 689v54h286v-54h-286z" />
    <glyph glyph-name="uni0230" unicode="&#x230;" horiz-adv-x="686" 
d="M349 -9q-87 0 -154.5 38t-105.5 106t-38 156t39 156.5t107 108.5t154 40q84 0 148.5 -38t100.5 -105t36 -155q0 -67 -23 -123t-63 -97.5t-91.5 -64t-109.5 -22.5zM358 45q54 0 93.5 28t61.5 79.5t22 121.5q0 81 -24.5 142t-68.5 95.5t-103 34.5q-85 0 -134.5 -63
t-49.5 -173q0 -78 26 -137.5t72 -93.5t105 -34zM180 825v55h326v-55h-326zM344 661q-22 0 -36.5 13.5t-14.5 35.5q0 21 14.5 35t36.5 14q21 0 35 -14t14 -35q0 -22 -14 -35.5t-35 -13.5z" />
    <glyph glyph-name="uni0231" unicode="&#x231;" horiz-adv-x="508" 
d="M257 -8q-65 0 -113.5 28t-75.5 78.5t-27 115.5q0 68 30 118t80 78t110 28q62 0 108.5 -27.5t72 -77t25.5 -115.5q0 -63 -28 -114t-75.5 -81.5t-106.5 -30.5zM267 39q34 0 59 20.5t39 57t14 83.5q0 86 -35.5 139.5t-93.5 53.5q-54 0 -86.5 -45t-32.5 -119q0 -56 17.5 -99
t48.5 -67t70 -24zM255 529q-22 0 -36.5 13.5t-14.5 35.5q0 21 14.5 35t36.5 14q21 0 35 -14t14 -35q0 -22 -14 -35.5t-35 -13.5zM111 743h286v-54h-286v54z" />
    <glyph glyph-name="uni0232" unicode="&#x232;" horiz-adv-x="541" 
d="M492 535l-205 -317l25 68v-95q0 -37 0.5 -63t1 -41.5t1.5 -23.5t1 -11l70 -13l-2 -39h-228l-3 39l70 13q1 3 1.5 11t1.5 23.5t1.5 41.5t0.5 63v95l20 -68l-198 317l-50 14l2 38h207l3 -38l-61 -14l147 -236h-14l141 236l-70 14l3 38h182l2 -38zM127 736h286v-55h-286v55z
" />
    <glyph glyph-name="uni0233" unicode="&#x233;" horiz-adv-x="472" 
d="M219 -4l-176 383l-47 15l3 36h194l2 -36l-62 -15l136 -304zM475 430l3 -36l-47 -15l-170 -357l-80 -166q-22 -46 -46.5 -65t-56.5 -19q-25 0 -40.5 12t-15.5 31q0 15 12 28.5t37 20.5l93 28l-46 -50l111 214l11 18l130 305l-62 15l2 36h165zM108 606h286v-55h-286v55z
" />
    <glyph glyph-name="uni0237" unicode="&#x237;" horiz-adv-x="253" 
d="M13 -231l-19 34q53 30 77 71t24 109l1 262q0 42 -3 70t-5 38l-67 13v33l142 37l15 -14q-2 -26 -3.5 -55.5t-1.5 -75.5l1 -293q0 -36 -9.5 -69t-29.5 -62t-50 -53.5t-72 -44.5z" />
    <glyph glyph-name="uni0259" unicode="&#x259;" horiz-adv-x="455" 
d="M212 438q60 0 105.5 -27t70.5 -75t25 -112q0 -72 -25.5 -124t-69.5 -80t-100 -28q-84 1 -132.5 53.5t-48.5 143.5v17h311v-44h-242l12 13v-21q0 -55 28.5 -87t76.5 -32q49 0 76.5 40t27.5 110v12q0 81 -38 128t-103 47q-39 0 -69.5 -14.5t-55.5 -46.5l-26 24
q27 50 73 76.5t104 26.5z" />
    <glyph glyph-name="uni02B9" unicode="&#x2b9;" horiz-adv-x="600" 
d="M320 482l-40 13l99 182l80 -23z" />
    <glyph glyph-name="uni02BA" unicode="&#x2ba;" horiz-adv-x="600" 
d="M378 482l-32 13l67 182l70 -15zM254 482l-32 13l67 182l70 -15z" />
    <glyph glyph-name="uni02BB" unicode="&#x2bb;" horiz-adv-x="600" 
d="M365 720l12 -26q-33 -10 -51 -25.5t-18 -32.5q0 -12 6.5 -18.5t15.5 -12.5t15.5 -14.5t6.5 -24.5q0 -17 -12.5 -28.5t-32.5 -11.5q-18 0 -31 8t-20.5 23t-7.5 34q0 28 14.5 53t41 45t61.5 31z" />
    <glyph glyph-name="uni02BC" unicode="&#x2bc;" horiz-adv-x="600" 
d="M260 526l-12 26q33 11 51 26.5t18 32.5q0 12 -6.5 18.5t-15.5 12t-15.5 14t-6.5 24.5q0 17 13 28.5t32 11.5q18 0 31.5 -8t20.5 -22.5t7 -34.5q0 -28 -14.5 -53t-40.5 -44.5t-62 -31.5z" />
    <glyph glyph-name="uni02BE" unicode="&#x2be;" horiz-adv-x="600" 
d="M300 493v34q25 0 42 18t17 45q0 28 -17 45.5t-42 17.5v32q41 0 70 -27.5t29 -68.5q0 -40 -29 -68t-70 -28z" />
    <glyph glyph-name="uni02BF" unicode="&#x2bf;" horiz-adv-x="600" 
d="M300 653q-25 0 -42 -17.5t-17 -45.5q0 -27 17 -45t42 -18v-34q-41 0 -70 28t-29 68q0 41 29 68.5t70 27.5v-32z" />
    <glyph glyph-name="circumflex" unicode="&#x2c6;" horiz-adv-x="600" 
d="M439 495l-39 -13l-130 152h60l-130 -152l-39 13l102 168h74z" />
    <glyph glyph-name="caron" unicode="&#x2c7;" horiz-adv-x="600" 
d="M439 663l-102 -167h-74l-102 167l39 14l132 -152h-60l128 152z" />
    <glyph glyph-name="uni02C8" unicode="&#x2c8;" horiz-adv-x="600" 
d="M273 530v120h55v-120h-55z" />
    <glyph glyph-name="uni02C9" unicode="&#x2c9;" horiz-adv-x="600" 
d="M157 606h286v-55h-286v55z" />
    <glyph glyph-name="uni02CA" unicode="&#x2ca;" horiz-adv-x="600" 
d="M320 482l-40 13l99 182l80 -23z" />
    <glyph glyph-name="uni02CB" unicode="&#x2cb;" horiz-adv-x="600" 
d="M279 482l-139 172l82 23l99 -182z" />
    <glyph glyph-name="uni02CC" unicode="&#x2cc;" horiz-adv-x="600" 
d="M273 -220v120h55v-120h-55z" />
    <glyph glyph-name="breve" unicode="&#x2d8;" horiz-adv-x="600" 
d="M397 677l38 -14q-2 -80 -38 -124.5t-96 -44.5q-40 0 -70 20t-47 58t-19 91l42 14q8 -58 33 -88.5t62 -30.5q39 0 64 30.5t31 88.5z" />
    <glyph glyph-name="dotaccent" unicode="&#x2d9;" horiz-adv-x="600" 
d="M301 527q-22 0 -38 14.5t-16 36.5t16 36.5t38 14.5t37 -14.5t15 -36.5t-15 -36.5t-37 -14.5z" />
    <glyph glyph-name="ring" unicode="&#x2da;" horiz-adv-x="600" 
d="M301 493q-42 0 -71 28t-29 68q0 41 29 68.5t71 27.5t70 -27.5t28 -68.5q0 -40 -28 -68t-70 -28zM302 527q26 0 42.5 17.5t16.5 45.5q0 29 -16.5 46t-42.5 17t-43.5 -17.5t-17.5 -45.5q0 -27 17.5 -45t43.5 -18z" />
    <glyph glyph-name="ogonek" unicode="&#x2db;" horiz-adv-x="600" 
d="M257 -223q-35 0 -60.5 12t-39 33t-13.5 46q0 46 43 85t113 66l8 -19q-96 -58 -96 -122q0 -27 16 -43.5t43 -16.5q20 0 36.5 10t32.5 25l21 -26q-19 -22 -45.5 -36t-58.5 -14z" />
    <glyph glyph-name="tilde" unicode="&#x2dc;" horiz-adv-x="600" 
d="M438 633l32 -19q-14 -43 -40.5 -69.5t-60.5 -26.5q-25 0 -50.5 14t-49.5 27.5t-46 13.5t-35 -13t-26 -36l-32 19q14 44 40.5 70t60.5 26q25 0 50.5 -13.5t50 -27.5t46.5 -14q20 0 33.5 13.5t26.5 35.5z" />
    <glyph glyph-name="hungarumlaut" unicode="&#x2dd;" horiz-adv-x="600" 
d="M378 482l-32 13l67 182l70 -15zM254 482l-32 13l67 182l70 -15z" />
    <glyph glyph-name="gravecomb" unicode="&#x300;" 
d="M279 482l-139 172l82 23l99 -182z" />
    <glyph glyph-name="acutecomb" unicode="&#x301;" 
d="M320 482l-40 13l99 182l80 -23z" />
    <glyph glyph-name="uni0302" unicode="&#x302;" 
d="M439 495l-39 -13l-130 152h60l-130 -152l-39 13l102 168h74z" />
    <glyph glyph-name="tildecomb" unicode="&#x303;" 
d="M438 633l32 -19q-14 -43 -40.5 -69.5t-60.5 -26.5q-25 0 -50.5 14t-49.5 27.5t-46 13.5t-35 -13t-26 -36l-32 19q14 44 40.5 70t60.5 26q25 0 50.5 -13.5t50 -27.5t46.5 -14q20 0 33.5 13.5t26.5 35.5z" />
    <glyph glyph-name="uni0304" unicode="&#x304;" 
d="M157 606h286v-55h-286v55z" />
    <glyph glyph-name="uni0306" unicode="&#x306;" 
d="M397 677l38 -14q-2 -80 -38 -124.5t-96 -44.5q-40 0 -70 20t-47 58t-19 91l42 14q8 -58 33 -88.5t62 -30.5q39 0 64 30.5t31 88.5z" />
    <glyph glyph-name="uni0307" unicode="&#x307;" 
d="M301 527q-22 0 -38 14.5t-16 36.5t16 36.5t38 14.5t37 -14.5t15 -36.5t-15 -36.5t-37 -14.5z" />
    <glyph glyph-name="uni0308" unicode="&#x308;" 
d="M222 529q-22 0 -37 13.5t-15 35.5q0 21 15 35t37 14q21 0 35 -14t14 -35q0 -22 -14 -35.5t-35 -13.5zM380 529q-22 0 -36.5 13.5t-14.5 35.5q0 21 14.5 35t36.5 14t36 -14t14 -35q0 -22 -14 -35.5t-36 -13.5z" />
    <glyph glyph-name="hookabovecomb" unicode="&#x309;" 
d="M303 668q42 0 67.5 -17t25.5 -46q0 -24 -12 -37t-27.5 -22t-27.5 -20.5t-12 -34.5h-33v17q0 28 11.5 45t23 29.5t11.5 26.5q0 25 -17.5 29.5t-40.5 -1.5l36 9l-35 -34q-12 -11 -19 -15t-18 -4t-18 6.5t-7 17.5q0 20 25 35.5t67 15.5z" />
    <glyph glyph-name="uni030A" unicode="&#x30a;" 
d="M301 493q-42 0 -71 28t-29 68q0 41 29 68.5t71 27.5t70 -27.5t28 -68.5q0 -40 -28 -68t-70 -28zM302 527q26 0 42.5 17.5t16.5 45.5q0 29 -16.5 46t-42.5 17t-43.5 -17.5t-17.5 -45.5q0 -27 17.5 -45t43.5 -18z" />
    <glyph glyph-name="uni030B" unicode="&#x30b;" 
d="M378 482l-32 13l67 182l70 -15zM254 482l-32 13l67 182l70 -15z" />
    <glyph glyph-name="uni030C" unicode="&#x30c;" 
d="M439 663l-102 -167h-74l-102 167l39 14l132 -152h-60l128 152z" />
    <glyph glyph-name="uni030F" unicode="&#x30f;" 
d="M346 482l-105 180l70 15l67 -182zM222 482l-105 180l70 15l67 -182z" />
    <glyph glyph-name="uni0311" unicode="&#x311;" 
d="M204 482l-39 13q2 54 19 92t47.5 58t70.5 20q60 0 95.5 -44.5t37.5 -125.5l-41 -13q-7 58 -32 88t-63 30q-39 0 -64 -30t-31 -88z" />
    <glyph glyph-name="uni0312" unicode="&#x312;" 
d="M365 686l12 -26q-33 -10 -51 -25.5t-18 -32.5q0 -12 6.5 -18.5t15.5 -12.5t15.5 -14.5t6.5 -24.5t-12.5 -27.5t-32.5 -11.5q-18 0 -31 8t-20.5 22.5t-7.5 33.5q0 28 14.5 53.5t41 45t61.5 30.5z" />
    <glyph glyph-name="uni031B" unicode="&#x31b;" 
d="M373 422q26 0 36 13.5t11 41.5l1 42q32 8 58 -2t26 -38q0 -19 -9 -36.5t-26 -31t-41.5 -21t-56.5 -7.5h-15v39h16z" />
    <glyph glyph-name="dotbelowcomb" unicode="&#x323;" 
d="M301 -199q-22 0 -38 14.5t-16 36.5q0 21 16 36t38 15t37 -15t15 -36q0 -22 -15 -36.5t-37 -14.5z" />
    <glyph glyph-name="uni0324" unicode="&#x324;" 
d="M222 -198q-22 0 -37 14t-15 36q0 20 15 34.5t37 14.5q21 0 35 -14.5t14 -34.5q0 -22 -14 -36t-35 -14zM380 -198q-22 0 -36.5 14t-14.5 36q0 20 14.5 34.5t36.5 14.5t36 -14.5t14 -34.5q0 -22 -14 -36t-36 -14z" />
    <glyph glyph-name="uni0326" unicode="&#x326;" 
d="M235 -286l-12 26q33 10 51 26t18 32q0 12 -6.5 18.5t-15.5 12t-15.5 14t-6.5 24.5q0 17 13 28.5t32 11.5q18 0 31.5 -8t20.5 -22.5t7 -34.5q0 -27 -14.5 -52.5t-40.5 -45t-62 -30.5z" />
    <glyph glyph-name="uni0327" unicode="&#x327;" 
d="M276 -223q-24 0 -47.5 6.5t-43.5 18.5l19 39q17 -10 36.5 -17t40.5 -7t35 10t14 29q0 20 -20.5 31.5t-57.5 6.5l-15 19l58 100h50l-67 -94l7 31q49 0 80.5 -21t31.5 -59q0 -40 -35 -66.5t-86 -26.5z" />
    <glyph glyph-name="uni0328" unicode="&#x328;" 
d="M257 -223q-35 0 -60.5 12t-39 33t-13.5 46q0 46 43 85t113 66l8 -19q-96 -58 -96 -122q0 -27 16 -43.5t43 -16.5q20 0 36.5 10t32.5 25l21 -26q-19 -22 -45.5 -36t-58.5 -14z" />
    <glyph glyph-name="uni032E" unicode="&#x32e;" 
d="M397 -74l38 -14q-5 -66 -39.5 -102.5t-94.5 -36.5t-95 36.5t-41 102.5l42 14q8 -43 33 -67t62 -24q39 0 64 24t31 67z" />
    <glyph glyph-name="uni0331" unicode="&#x331;" 
d="M157 -122h286v-54h-286v54z" />
    <glyph glyph-name="uni0335" unicode="&#x335;" 
d="M89 386v40h338v-40h-338z" />
    <glyph glyph-name="uni0336" unicode="&#x336;" 
d="M-41 381v50h597v-50h-597z" />
    <glyph glyph-name="uni0337" unicode="&#x337;" 
d="M225 237l-23 32l223 154l23 -32z" />
    <glyph glyph-name="uni0338" unicode="&#x338;" 
d="M148 -64l-38 24l342 534l38 -24z" />
    <glyph glyph-name="uni0394" unicode="&#x394;" horiz-adv-x="643" 
d="M8 0l315 607l312 -607h-627zM86 25l-26 41h488l-32 -41l-229 443l44 29z" />
    <glyph glyph-name="Sigma" unicode="&#x3a3;" horiz-adv-x="494" 
d="M415 85h41v-176q-22 1 -42.5 1h-39.5h-282q-20 0 -39 -0.5t-38 -1.5v37l242 329l-5 -61l-242 340v36q20 -1 39 -1.5t38 -0.5h284h41t43 1l-1 -154h-43l-14 103q-13 1 -28.5 1.5t-37.5 0.5h-231l7 33l215 -304l-251 -340l-5 62h269q21 0 36.5 1t28.5 2z" />
    <glyph glyph-name="uni03A9" unicode="&#x3a9;" horiz-adv-x="710" 
d="M55 -5l-41 153l46 10l51 -104h145l-5 -16q-58 40 -98 87.5t-61 99.5t-21 105q0 72 36.5 132.5t101 97t146.5 36.5q83 0 146.5 -34.5t100 -94.5t36.5 -137q0 -53 -22 -106.5t-62 -101.5t-95 -84l-5 16h144l52 104l46 -10l-42 -153q-11 2 -25 3t-31.5 1.5t-40.5 0.5h-149
l-3 41q61 56 95 130t34 147q0 71 -22 122t-62 78.5t-95 27.5q-83 0 -131.5 -61t-48.5 -167q0 -73 34.5 -147t95.5 -130l-5 -41h-148q-22 0 -39.5 -0.5t-31.5 -1.5t-26 -3z" />
    <glyph glyph-name="uni03BC" unicode="&#x3bc;" horiz-adv-x="548" 
d="M457 70l64 -16v-33l-130 -32l-15 13l1 63l-3 1q-30 -41 -58.5 -57.5t-60.5 -16.5q-19 0 -42 6.5t-43 24.5t-33 52l15 4q8 -81 19 -141t11 -102q0 -29 -14 -46.5t-37 -17.5q-22 0 -36.5 19t-14.5 56q0 58 3.5 121t7 128.5t3.5 128.5q0 44 -1.5 74t-3.5 53l-68 14v33
l136 37l18 -16q-2 -30 -3 -64.5t-1 -74.5l-1 -105q0 -62 29 -91t73 -29q26 0 54 14t49 48v116q0 23 -1 45t-2 41t-2 32l-68 14v33l136 37l15 -14q-1 -26 -1.5 -57t-0.5 -85v-71q0 -57 2.5 -90.5t3.5 -48.5z" />
    <glyph glyph-name="pi" unicode="&#x3c0;" horiz-adv-x="637" 
d="M489 -11q-53 0 -85 32.5t-30 96.5l11 292l77 1l-8 -280q-1 -47 16 -65.5t44 -18.5q18 0 35.5 9.5t36.5 32.5l23 -20q-20 -37 -49 -58.5t-71 -21.5zM102 -10q-38 0 -62 18t-24 44q0 14 9.5 22.5t22.5 8.5q14 0 22 -5t19 -17l40 -44l-28 7q22 0 36 16t22 44.5t11 65.5
l19 266h63l-19 -234q-7 -88 -39 -140t-92 -52zM70 353l-17 47q28 14 72 22t101 8h220q20 0 35 1t28 3l24 70h47l-16 -121q-10 1 -20.5 0.5t-27 -0.5h-44.5h-280q-37 0 -66 -7t-56 -23z" />
    <glyph glyph-name="uni1E08" unicode="&#x1e08;" horiz-adv-x="604" 
d="M368 -9q-87 0 -158.5 33.5t-114.5 100t-43 164.5q0 63 22 118.5t64.5 98t103.5 66.5t139 24q41 0 87 -8t82 -23l7 -137l-45 -4l-30 95q-19 13 -50 19.5t-60 6.5q-75 0 -122.5 -32.5t-70 -86.5t-22.5 -119q0 -85 29.5 -144t80 -89t111.5 -30q32 0 58 7t50 21l44 94l46 -5
l-28 -126q-34 -18 -81 -31t-99 -13zM325 -223q-24 0 -47.5 6.5t-43.5 18.5l19 39q17 -10 36.5 -17t40.5 -7t35 10t14 29q0 20 -20.5 31.5t-57.5 6.5l-15 19l58 100h50l-67 -94l7 31q49 0 80.5 -21t31.5 -59q0 -40 -35 -66.5t-86 -26.5zM370 639l-42 14l71 131l79 -23z" />
    <glyph glyph-name="uni1E09" unicode="&#x1e09;" horiz-adv-x="425" 
d="M247 -8q-56 0 -103 25.5t-75 74t-28 115.5q0 65 29.5 117.5t81 83t115.5 30.5q44 0 74 -11t45.5 -29t15.5 -38q0 -16 -10 -26.5t-28 -10.5q-16 0 -28 6t-29 24l-51 51l36 -10q-40 9 -77 -7.5t-61 -57t-24 -104.5q0 -80 40.5 -123t101.5 -43q38 0 65.5 14t52.5 45l27 -23
q-28 -52 -71 -77.5t-99 -25.5zM223 -223q-24 0 -47.5 6.5t-43.5 18.5l19 39q17 -10 36.5 -17t40.5 -7t35 10t14 29q0 20 -20.5 31.5t-57.5 6.5l-15 19l58 100h50l-67 -94l7 31q49 0 80.5 -21t31.5 -59q0 -40 -35 -66.5t-86 -26.5zM267 482l-40 13l99 182l80 -23z" />
    <glyph glyph-name="uni1E0C" unicode="&#x1e0c;" horiz-adv-x="682" 
d="M49 587h242q158 0 246.5 -75.5t88.5 -211.5q0 -88 -41 -155.5t-114 -106t-168 -38.5h-254l-2 38l61 14q2 9 3.5 51t1.5 96v188q0 59 -1.5 100t-3.5 48l-61 14zM200 533q0 -9 -0.5 -24.5t-1 -44t-0.5 -77.5v-188q0 -30 0.5 -56.5t2 -47.5l2.5 -35q32 -4 57.5 -6.5
t49.5 -2.5q106 0 161 56.5t55 163.5q0 65 -16 115.5t-47.5 84.5t-77 51.5t-105.5 17.5q-18 0 -38 -1.5t-42 -5.5zM325 -199q-22 0 -38 14.5t-16 36.5q0 21 16 36t38 15t37 -15t15 -36q0 -22 -15 -36.5t-37 -14.5z" />
    <glyph glyph-name="uni1E0D" unicode="&#x1e0d;" horiz-adv-x="539" 
d="M383 -11l-15 13l1 65l-3 1q-30 -42 -61.5 -59t-66.5 -17q-57 0 -101.5 26.5t-70.5 73.5t-26 108q0 53 18 97t49.5 75.5t71.5 48.5t83 17q28 0 57 -7t49 -22q0 18 -0.5 47t-1 60.5t-1 56t-1.5 33.5l-78 14l-2 33l147 41l18 -14q-2 -62 -3 -120t-1 -121l-1 -230
q0 -51 2.5 -87.5t3.5 -51.5l64 -16v-33zM263 59q29 0 54 12.5t51 44.5v215q-19 34 -48 48t-58 14q-63 0 -98.5 -46.5t-35.5 -120.5q0 -79 39.5 -123t95.5 -44zM285 -199q-22 0 -38 14.5t-16 36.5q0 21 16 36t38 15t37 -15t15 -36q0 -22 -15 -36.5t-37 -14.5z" />
    <glyph glyph-name="uni1E0E" unicode="&#x1e0e;" horiz-adv-x="682" 
d="M49 587h242q158 0 246.5 -75.5t88.5 -211.5q0 -88 -41 -155.5t-114 -106t-168 -38.5h-254l-2 38l61 14q2 9 3.5 51t1.5 96v188q0 59 -1.5 100t-3.5 48l-61 14zM200 533q0 -9 -0.5 -24.5t-1 -44t-0.5 -77.5v-188q0 -30 0.5 -56.5t2 -47.5l2.5 -35q32 -4 57.5 -6.5
t49.5 -2.5q106 0 161 56.5t55 163.5q0 65 -16 115.5t-47.5 84.5t-77 51.5t-105.5 17.5q-18 0 -38 -1.5t-42 -5.5zM181 -122h286v-54h-286v54z" />
    <glyph glyph-name="uni1E0F" unicode="&#x1e0f;" horiz-adv-x="539" 
d="M383 -11l-15 13l1 65l-3 1q-30 -42 -61.5 -59t-66.5 -17q-57 0 -101.5 26.5t-70.5 73.5t-26 108q0 53 18 97t49.5 75.5t71.5 48.5t83 17q28 0 57 -7t49 -22q0 18 -0.5 47t-1 60.5t-1 56t-1.5 33.5l-78 14l-2 33l147 41l18 -14q-2 -62 -3 -120t-1 -121l-1 -230
q0 -51 2.5 -87.5t3.5 -51.5l64 -16v-33zM263 59q29 0 54 12.5t51 44.5v215q-19 34 -48 48t-58 14q-63 0 -98.5 -46.5t-35.5 -120.5q0 -79 39.5 -123t95.5 -44zM141 -122h286v-54h-286v54z" />
    <glyph glyph-name="uni1E14" unicode="&#x1e14;" horiz-adv-x="556" 
d="M486 -5q-29 3 -51.5 4t-42.5 1h-343l-3 38l62 14q2 5 2.5 23t1 49t0.5 75v188q0 45 -0.5 76.5t-1 49.5t-2.5 22l-62 14l3 38h321q14 0 29.5 0.5t33.5 1.5t37 2l20 -132l-45 -7l-33 84q-8 2 -18 2.5t-21 0.5h-113q-19 0 -33.5 -0.5t-28.5 -2.5q0 -4 -0.5 -22.5t-1 -42.5
t-0.5 -48v-270q0 -20 0.5 -40.5t1 -36.5t0.5 -22q14 -1 29.5 -2t34.5 -1h97q22 0 36 0.5t22 1.5t13 2l52 95l45 -9zM375 205l-12 68q-5 2 -17 3t-29 1h-76q-13 0 -28 -1t-32 -2v55q17 -1 32 -1.5t28 -0.5h76q17 0 29 1t17 2l12 69h43v-194h-43zM443 739v-55h-326v55h326z
M260 767l-106 113l79 23l66 -123z" />
    <glyph glyph-name="uni1E15" unicode="&#x1e15;" horiz-adv-x="450" 
d="M248 -8q-58 0 -104.5 26t-74 74.5t-27.5 114.5q0 71 29 123t76 80.5t101 27.5q78 -1 122 -52t44 -144v-18h-307v44h241l-11 -13v21q0 58 -26 89t-71 31q-28 0 -54 -16.5t-42 -50t-16 -84.5v-12q0 -82 40.5 -128t104.5 -46q35 0 63 14t54 45l25 -23q-28 -52 -71 -77.5
t-96 -25.5zM383 606v-54h-286v54h286zM220 634l-112 133l79 23l73 -143z" />
    <glyph glyph-name="uni1E16" unicode="&#x1e16;" horiz-adv-x="556" 
d="M486 -5q-29 3 -51.5 4t-42.5 1h-343l-3 38l62 14q2 5 2.5 23t1 49t0.5 75v188q0 45 -0.5 76.5t-1 49.5t-2.5 22l-62 14l3 38h321q14 0 29.5 0.5t33.5 1.5t37 2l20 -132l-45 -7l-33 84q-8 2 -18 2.5t-21 0.5h-113q-19 0 -33.5 -0.5t-28.5 -2.5q0 -4 -0.5 -22.5t-1 -42.5
t-0.5 -48v-270q0 -20 0.5 -40.5t1 -36.5t0.5 -22q14 -1 29.5 -2t34.5 -1h97q22 0 36 0.5t22 1.5t13 2l52 95l45 -9zM375 205l-12 68q-5 2 -17 3t-29 1h-76q-13 0 -28 -1t-32 -2v55q17 -1 32 -1.5t28 -0.5h76q17 0 29 1t17 2l12 69h43v-194h-43zM300 767l-39 13l66 123
l79 -23zM117 684v55h326v-55h-326z" />
    <glyph glyph-name="uni1E17" unicode="&#x1e17;" horiz-adv-x="450" 
d="M248 -8q-58 0 -104.5 26t-74 74.5t-27.5 114.5q0 71 29 123t76 80.5t101 27.5q78 -1 122 -52t44 -144v-18h-307v44h241l-11 -13v21q0 58 -26 89t-71 31q-28 0 -54 -16.5t-42 -50t-16 -84.5v-12q0 -82 40.5 -128t104.5 -46q35 0 63 14t54 45l25 -23q-28 -52 -71 -77.5
t-96 -25.5zM97 606h286v-54h-286v54zM260 634l-40 13l73 143l79 -23z" />
    <glyph glyph-name="uni1E1C" unicode="&#x1e1c;" horiz-adv-x="556" 
d="M486 -5q-29 3 -51.5 4t-42.5 1h-343l-3 38l62 14q2 5 2.5 23t1 49t0.5 75v188q0 45 -0.5 76.5t-1 49.5t-2.5 22l-62 14l3 38h321q14 0 29.5 0.5t33.5 1.5t37 2l20 -132l-45 -7l-33 84q-8 2 -18 2.5t-21 0.5h-113q-19 0 -33.5 -0.5t-28.5 -2.5q0 -4 -0.5 -22.5t-1 -42.5
t-0.5 -48v-270q0 -20 0.5 -40.5t1 -36.5t0.5 -22q14 -1 29.5 -2t34.5 -1h97q22 0 36 0.5t22 1.5t13 2l52 95l45 -9zM375 205l-12 68q-5 2 -17 3t-29 1h-76q-13 0 -28 -1t-32 -2v55q17 -1 32 -1.5t28 -0.5h76q17 0 29 1t17 2l12 69h43v-194h-43zM256 -223q-24 0 -47.5 6.5
t-43.5 18.5l19 39q17 -10 36.5 -17t40.5 -7t35 10t14 29q0 20 -20.5 31.5t-57.5 6.5l-15 19l58 100h50l-67 -94l7 31q49 0 80.5 -21t31.5 -59q0 -40 -35 -66.5t-86 -26.5zM407 778l38 -14q-10 -56 -54.5 -87.5t-109.5 -31.5t-110 31.5t-56 87.5l42 14q10 -34 43 -53t82 -19
q51 0 84 19t41 53z" />
    <glyph glyph-name="uni1E1D" unicode="&#x1e1d;" horiz-adv-x="450" 
d="M248 -8q-58 0 -104.5 26t-74 74.5t-27.5 114.5q0 71 29 123t76 80.5t101 27.5q78 -1 122 -52t44 -144v-18h-307v44h241l-11 -13v21q0 58 -26 89t-71 31q-28 0 -54 -16.5t-42 -50t-16 -84.5v-12q0 -82 40.5 -128t104.5 -46q35 0 63 14t54 45l25 -23q-28 -52 -71 -77.5
t-96 -25.5zM216 -223q-24 0 -47.5 6.5t-43.5 18.5l19 39q17 -10 36.5 -17t40.5 -7t35 10t14 29q0 20 -20.5 31.5t-57.5 6.5l-15 19l58 100h50l-67 -94l7 31q49 0 80.5 -21t31.5 -59q0 -40 -35 -66.5t-86 -26.5zM337 677l38 -14q-2 -80 -38 -124.5t-96 -44.5q-40 0 -70 20
t-47 58t-19 91l42 14q8 -58 33 -88.5t62 -30.5q39 0 64 30.5t31 88.5z" />
    <glyph glyph-name="uni1E20" unicode="&#x1e20;" horiz-adv-x="648" 
d="M374 -9q-91 0 -164 33.5t-116 99.5t-43 164q0 63 22.5 118.5t65 98.5t104 67t140.5 24q41 0 88 -8t81 -23l6 -131l-44 -4l-29 89q-19 14 -50.5 20t-59.5 6q-77 0 -126 -32.5t-71.5 -86.5t-22.5 -119q0 -85 30.5 -144t82.5 -89.5t117 -30.5q29 0 63 8.5t61 27.5l-24 -56
v105q0 32 -1 57.5t-3 38.5l-68 11l2 40h195l2 -38l-44 -12v-24v-46q0 -34 1 -58.5t2 -50.5q-39 -25 -93.5 -40t-103.5 -15zM209 736h286v-55h-286v55z" />
    <glyph glyph-name="uni1E21" unicode="&#x1e21;" horiz-adv-x="495" 
d="M233 -228q-92 0 -146 30t-54 80q0 34 27 63t87 59l38 -8q-33 -19 -51 -44.5t-18 -54.5q0 -40 32.5 -62t88.5 -22q65 0 105 28t40 72q0 34 -24.5 50.5t-80.5 20.5l-107 9l-15 4q-37 0 -62.5 19.5t-25.5 47.5q0 27 26 53t72 46l13 -20q-19 -13 -28 -23.5t-9 -20.5
q0 -14 12.5 -24t35.5 -12l129 -13q69 -7 105 -35t36 -80q0 -46 -30 -83t-81 -58.5t-115 -21.5zM241 124q-53 0 -94.5 19t-64.5 52.5t-23 76.5q0 47 24 84.5t65 59t92 21.5t91.5 -20t63.5 -55.5t23 -80.5q0 -44 -23.5 -80t-63.5 -56.5t-90 -20.5zM246 164q41 0 65 30t24 80
q0 56 -26.5 90t-69.5 34q-41 0 -67 -32t-26 -83q0 -53 27.5 -86t72.5 -33zM478 365l-119 8l-39 40l158 16v-64zM98 606h286v-55h-286v55z" />
    <glyph glyph-name="uni1E24" unicode="&#x1e24;" horiz-adv-x="672" 
d="M409 0l-2 38l61 14q2 4 3.5 20.5t2 47.5t0.5 79v188q0 49 -0.5 80.5t-2 48t-3.5 19.5l-61 14l2 38h215l3 -38l-62 -14q-2 -3 -3.5 -19.5t-2 -48t-0.5 -80.5v-188q0 -48 0.5 -79t2 -47.5t3.5 -20.5l62 -14l-3 -38h-215zM49 0l-3 38l62 14q2 5 2.5 23t1 49t0.5 75v188
q0 45 -0.5 76.5t-1 49.5t-2.5 22l-62 14l3 38h213l2 -38l-61 -14q-2 -3 -3.5 -19.5t-2 -48t-0.5 -80.5v-188q0 -48 0.5 -79t2 -47.5t3.5 -20.5l61 -14l-2 -38h-213zM185 272v59q20 -1 58.5 -2t93.5 -1q54 0 92 1t56 2v-59q-22 2 -57 3t-91 1q-58 0 -94 -1t-58 -3zM337 -199
q-22 0 -38 14.5t-16 36.5q0 21 16 36t38 15t37 -15t15 -36q0 -22 -15 -36.5t-37 -14.5z" />
    <glyph glyph-name="uni1E25" unicode="&#x1e25;" horiz-adv-x="550" 
d="M31 0l-2 36l62 15q2 11 3 33.5t1.5 60.5t0.5 93v125q0 34 -0.5 73t-1 75.5t-1 63.5t-1.5 36l-74 10l-2 32l141 41l19 -14l-2 -62t-1.5 -66.5t-1 -80.5t-0.5 -104l3 -1q35 38 68.5 55t73.5 17q37 0 69.5 -19t53 -57.5t20.5 -98.5v-108q0 -36 2 -64.5t4 -39.5l62 -15
l-2 -36h-201l-3 36l58 15q1 8 2 20t1.5 30.5t0.5 46.5v108q0 43 -14.5 69.5t-37.5 39t-49 12.5q-32 0 -61 -16.5t-49 -45.5v-150q0 -46 1.5 -76t3.5 -38l61 -15l-2 -36h-205zM279 -199q-22 0 -38 14.5t-16 36.5q0 21 16 36t38 15t37 -15t15 -36q0 -22 -15 -36.5t-37 -14.5z
" />
    <glyph glyph-name="uni1E2A" unicode="&#x1e2a;" horiz-adv-x="672" 
d="M409 0l-2 38l61 14q2 4 3.5 20.5t2 47.5t0.5 79v188q0 49 -0.5 80.5t-2 48t-3.5 19.5l-61 14l2 38h215l3 -38l-62 -14q-2 -3 -3.5 -19.5t-2 -48t-0.5 -80.5v-188q0 -48 0.5 -79t2 -47.5t3.5 -20.5l62 -14l-3 -38h-215zM49 0l-3 38l62 14q2 5 2.5 23t1 49t0.5 75v188
q0 45 -0.5 76.5t-1 49.5t-2.5 22l-62 14l3 38h213l2 -38l-61 -14q-2 -3 -3.5 -19.5t-2 -48t-0.5 -80.5v-188q0 -48 0.5 -79t2 -47.5t3.5 -20.5l61 -14l-2 -38h-213zM185 272v59q20 -1 58.5 -2t93.5 -1q54 0 92 1t56 2v-59q-22 2 -57 3t-91 1q-58 0 -94 -1t-58 -3zM433 -74
l38 -14q-5 -66 -39.5 -102.5t-94.5 -36.5t-95 36.5t-41 102.5l42 14q8 -43 33 -67t62 -24q39 0 64 24t31 67z" />
    <glyph glyph-name="uni1E2B" unicode="&#x1e2b;" horiz-adv-x="550" 
d="M31 0l-2 36l62 15q2 11 3 33.5t1.5 60.5t0.5 93v125q0 34 -0.5 73t-1 75.5t-1 63.5t-1.5 36l-74 10l-2 32l141 41l19 -14l-2 -62t-1.5 -66.5t-1 -80.5t-0.5 -104l3 -1q35 38 68.5 55t73.5 17q37 0 69.5 -19t53 -57.5t20.5 -98.5v-108q0 -36 2 -64.5t4 -39.5l62 -15
l-2 -36h-201l-3 36l58 15q1 8 2 20t1.5 30.5t0.5 46.5v108q0 43 -14.5 69.5t-37.5 39t-49 12.5q-32 0 -61 -16.5t-49 -45.5v-150q0 -46 1.5 -76t3.5 -38l61 -15l-2 -36h-205zM375 -74l38 -14q-5 -66 -39.5 -102.5t-94.5 -36.5t-95 36.5t-41 102.5l42 14q8 -43 33 -67t62 -24
q39 0 64 24t31 67z" />
    <glyph glyph-name="uni1E2E" unicode="&#x1e2e;" horiz-adv-x="310" 
d="M49 0l-2 38l61 14q2 5 2.5 23t1 49t0.5 75v188q0 45 -0.5 76.5t-1 49.5t-2.5 22l-61 14l2 38h213l2 -38l-61 -14q-2 -3 -3.5 -19.5t-2 -48t-0.5 -80.5v-188q0 -48 0.5 -79t2 -47.5t3.5 -20.5l61 -14l-2 -38h-213zM175 757l-40 14l69 132l79 -23zM57 661q-22 0 -37 13.5
t-15 35.5q0 21 15 35t37 14q21 0 35 -14t14 -35q0 -22 -14 -35.5t-35 -13.5zM255 661q-22 0 -36.5 13.5t-14.5 35.5q0 21 14.5 35t36.5 14t36 -14t14 -35q0 -22 -14 -35.5t-36 -13.5z" />
    <glyph glyph-name="uni1E2F" unicode="&#x1e2f;" horiz-adv-x="268" 
d="M27 0l-2 37l67 14q1 4 1.5 14t1.5 32t1 61v66q0 41 -2 75t-5 53l-67 14v33l142 37l15 -14q-3 -31 -4.5 -61t-1.5 -70v-126q0 -46 1.5 -76t3.5 -38l67 -14l-2 -37h-216zM56 529q-22 0 -37 13.5t-15 35.5q0 21 15 35t37 14q21 0 35 -14t14 -35q0 -22 -14 -35.5t-35 -13.5z
M214 529q-22 0 -36.5 13.5t-14.5 35.5q0 21 14.5 35t36.5 14t36 -14t14 -35q0 -22 -14 -35.5t-36 -13.5zM154 644l-40 13l69 133l79 -23z" />
    <glyph glyph-name="uni1E36" unicode="&#x1e36;" horiz-adv-x="511" 
d="M467 -5q-14 2 -31.5 3t-34.5 1.5t-31 0.5h-320l-2 38l61 14q1 5 2 23t1.5 49t0.5 75v188v76t-1 49t-3 22l-61 15l2 38h235l3 -40l-83 -13q-2 -3 -3.5 -19.5t-2 -48t-0.5 -79.5v-188q0 -52 1 -90.5t2 -49.5q14 -1 29 -2t34 -1h75q23 0 39 1t32 3l52 98l45 -10zM280 -199
q-22 0 -38 14.5t-16 36.5q0 21 16 36t38 15t37 -15t15 -36q0 -22 -15 -36.5t-37 -14.5z" />
    <glyph glyph-name="uni1E37" unicode="&#x1e37;" horiz-adv-x="269" 
d="M28 0l-2 37l65 14q2 10 3 33t1.5 61t0.5 93v125q0 38 -0.5 78t-1 75.5t-1 61t-1.5 33.5l-74 10l-2 32l143 41l19 -14l-2 -84t-1.5 -93t-0.5 -123l-1 -161q0 -59 1.5 -106.5t3.5 -61.5l65 -14l-2 -37h-213zM136 -199q-22 0 -38 14.5t-16 36.5q0 21 16 36t38 15t37 -15
t15 -36q0 -22 -15 -36.5t-37 -14.5z" />
    <glyph glyph-name="uni1E3A" unicode="&#x1e3a;" horiz-adv-x="511" 
d="M467 -5q-14 2 -31.5 3t-34.5 1.5t-31 0.5h-320l-2 38l61 14q1 5 2 23t1.5 49t0.5 75v188v76t-1 49t-3 22l-61 15l2 38h235l3 -40l-83 -13q-2 -3 -3.5 -19.5t-2 -48t-0.5 -79.5v-188q0 -52 1 -90.5t2 -49.5q14 -1 29 -2t34 -1h75q23 0 39 1t32 3l52 98l45 -10zM136 -122
h286v-54h-286v54z" />
    <glyph glyph-name="uni1E3B" unicode="&#x1e3b;" horiz-adv-x="269" 
d="M28 0l-2 37l65 14q2 10 3 33t1.5 61t0.5 93v125q0 38 -0.5 78t-1 75.5t-1 61t-1.5 33.5l-74 10l-2 32l143 41l19 -14l-2 -84t-1.5 -93t-0.5 -123l-1 -161q0 -59 1.5 -106.5t3.5 -61.5l65 -14l-2 -37h-213zM-8 -122h286v-54h-286v54z" />
    <glyph glyph-name="uni1E42" unicode="&#x1e42;" horiz-adv-x="850" 
d="M56 587h173l210 -479h-18l206 479h162l3 -38l-62 -13q-1 -14 -0.5 -52.5t1.5 -82.5l4 -183q1 -50 2 -83.5t2 -53.5t2 -30l61 -13l-2 -38h-212l-3 38l61 13q1 12 1 28v45t-1 79l-2 355h26l-242 -561h-35l-248 562h26l1 -340q0 -83 0.5 -120.5t1.5 -46.5l68 -14l-3 -38
h-196l-3 38l68 14q1 7 1.5 26t1.5 50.5t1 74.5l3 198q1 44 0.5 80.5t-0.5 53.5l-61 14zM414 -199q-22 0 -38 14.5t-16 36.5q0 21 16 36t38 15t37 -15t15 -36q0 -22 -15 -36.5t-37 -14.5z" />
    <glyph glyph-name="uni1E43" unicode="&#x1e43;" horiz-adv-x="823" 
d="M32 0l-2 36l62 15q1 7 1.5 18t1.5 32t1 57l1 78q1 21 -0.5 43t-3.5 41.5t-4 31.5l-64 14v33l134 37l17 -16l-5 -54l3 -1q31 39 64.5 56t68.5 17t68 -19t54.5 -58t21.5 -100l1 -106q0 -36 1.5 -64.5t4.5 -39.5l60 -15l-3 -36h-195l-3 36l55 15q1 8 2 20t1.5 30.5t0.5 46.5
l-1 110q0 43 -13.5 69t-35.5 38t-47 12q-31 0 -58 -15t-48 -47v-150q0 -46 1.5 -74.5t3.5 -39.5l59 -15l-3 -36h-202zM596 0l-3 36l57 15q1 8 1.5 20t1.5 30.5t1 46.5v109q0 44 -15 70t-37.5 38t-45.5 12q-34 0 -63 -17t-52 -52l-19 37q35 48 74.5 70.5t83.5 22.5
q42 0 76 -20t54 -58t20 -92v-113q0 -36 1.5 -64.5t3.5 -39.5l62 -15l-2 -36h-199zM415 -199q-22 0 -38 14.5t-16 36.5q0 21 16 36t38 15t37 -15t15 -36q0 -22 -15 -36.5t-37 -14.5z" />
    <glyph glyph-name="uni1E44" unicode="&#x1e44;" horiz-adv-x="674" 
d="M505 143v224q0 59 -1 94.5t-2 53t-2 20.5l-68 14l3 38h190l3 -38l-62 -14q0 -3 -1.5 -20.5t-2.5 -53t-1 -94.5v-238v-64.5t1 -68.5h-45l-368 495h22v-268q0 -60 1 -96.5t2.5 -53.5t2.5 -21l68 -14l-3 -38h-192l-3 38l61 14q1 4 2.5 21t2.5 53.5t1 96.5v171q0 45 -1 74
t-2 45t-3 22l-61 14l3 38h137l336 -444h-18zM339 659q-22 0 -38 14.5t-16 36.5t16 36.5t38 14.5t37 -14.5t15 -36.5t-15 -36.5t-37 -14.5z" />
    <glyph glyph-name="uni1E45" unicode="&#x1e45;" horiz-adv-x="550" 
d="M31 0l-2 36l62 15q1 7 1.5 19t1.5 33t1 55l1 77q0 33 -2.5 65.5t-5.5 51.5l-64 14v33l134 37l17 -16l-5 -53l3 -1q35 38 69 55t74 17q37 0 69.5 -18.5t53 -56.5t20.5 -97v-111q0 -36 1.5 -65t4.5 -39l62 -15l-3 -36h-201l-2 36l58 15q1 8 2 20t1.5 30.5t0.5 46.5v108
q0 45 -15.5 71.5t-38.5 38t-47 11.5q-33 0 -61.5 -16.5t-48.5 -45.5v-150q0 -46 1.5 -74.5t3.5 -39.5l62 -15l-3 -36h-205zM279 527q-22 0 -38 14.5t-16 36.5t16 36.5t38 14.5t37 -14.5t15 -36.5t-15 -36.5t-37 -14.5z" />
    <glyph glyph-name="uni1E46" unicode="&#x1e46;" horiz-adv-x="674" 
d="M505 143v224q0 59 -1 94.5t-2 53t-2 20.5l-68 14l3 38h190l3 -38l-62 -14q0 -3 -1.5 -20.5t-2.5 -53t-1 -94.5v-238v-64.5t1 -68.5h-45l-368 495h22v-268q0 -60 1 -96.5t2.5 -53.5t2.5 -21l68 -14l-3 -38h-192l-3 38l61 14q1 4 2.5 21t2.5 53.5t1 96.5v171q0 45 -1 74
t-2 45t-3 22l-61 14l3 38h137l336 -444h-18zM339 -199q-22 0 -38 14.5t-16 36.5q0 21 16 36t38 15t37 -15t15 -36q0 -22 -15 -36.5t-37 -14.5z" />
    <glyph glyph-name="uni1E47" unicode="&#x1e47;" horiz-adv-x="550" 
d="M31 0l-2 36l62 15q1 7 1.5 19t1.5 33t1 55l1 77q0 33 -2.5 65.5t-5.5 51.5l-64 14v33l134 37l17 -16l-5 -53l3 -1q35 38 69 55t74 17q37 0 69.5 -18.5t53 -56.5t20.5 -97v-111q0 -36 1.5 -65t4.5 -39l62 -15l-3 -36h-201l-2 36l58 15q1 8 2 20t1.5 30.5t0.5 46.5v108
q0 45 -15.5 71.5t-38.5 38t-47 11.5q-33 0 -61.5 -16.5t-48.5 -45.5v-150q0 -46 1.5 -74.5t3.5 -39.5l62 -15l-3 -36h-205zM279 -199q-22 0 -38 14.5t-16 36.5q0 21 16 36t38 15t37 -15t15 -36q0 -22 -15 -36.5t-37 -14.5z" />
    <glyph glyph-name="uni1E48" unicode="&#x1e48;" horiz-adv-x="674" 
d="M505 143v224q0 59 -1 94.5t-2 53t-2 20.5l-68 14l3 38h190l3 -38l-62 -14q0 -3 -1.5 -20.5t-2.5 -53t-1 -94.5v-238v-64.5t1 -68.5h-45l-368 495h22v-268q0 -60 1 -96.5t2.5 -53.5t2.5 -21l68 -14l-3 -38h-192l-3 38l61 14q1 4 2.5 21t2.5 53.5t1 96.5v171q0 45 -1 74
t-2 45t-3 22l-61 14l3 38h137l336 -444h-18zM195 -122h286v-54h-286v54z" />
    <glyph glyph-name="uni1E49" unicode="&#x1e49;" horiz-adv-x="550" 
d="M31 0l-2 36l62 15q1 7 1.5 19t1.5 33t1 55l1 77q0 33 -2.5 65.5t-5.5 51.5l-64 14v33l134 37l17 -16l-5 -53l3 -1q35 38 69 55t74 17q37 0 69.5 -18.5t53 -56.5t20.5 -97v-111q0 -36 1.5 -65t4.5 -39l62 -15l-3 -36h-201l-2 36l58 15q1 8 2 20t1.5 30.5t0.5 46.5v108
q0 45 -15.5 71.5t-38.5 38t-47 11.5q-33 0 -61.5 -16.5t-48.5 -45.5v-150q0 -46 1.5 -74.5t3.5 -39.5l62 -15l-3 -36h-205zM135 -122h286v-54h-286v54z" />
    <glyph glyph-name="uni1E4C" unicode="&#x1e4c;" horiz-adv-x="686" 
d="M349 -9q-87 0 -154.5 38t-105.5 106t-38 156t39 156.5t107 108.5t154 40q84 0 148.5 -38t100.5 -105t36 -155q0 -67 -23 -123t-63 -97.5t-91.5 -64t-109.5 -22.5zM358 45q54 0 93.5 28t61.5 79.5t22 121.5q0 81 -24.5 142t-68.5 95.5t-103 34.5q-85 0 -134.5 -63
t-49.5 -173q0 -78 26 -137.5t72 -93.5t105 -34zM363 767l-40 13l66 123l80 -23zM411 645q-25 0 -50.5 11t-50 21.5t-45.5 10.5q-22 0 -35 -11.5t-26 -31.5l-32 18q15 41 41 66t60 25q25 0 50.5 -10.5t50 -21.5t46.5 -11q20 0 33.5 11t25.5 32l33 -18q-15 -42 -41 -66.5
t-60 -24.5z" />
    <glyph glyph-name="uni1E4D" unicode="&#x1e4d;" horiz-adv-x="508" 
d="M257 -8q-65 0 -113.5 28t-75.5 78.5t-27 115.5q0 68 30 118t80 78t110 28q62 0 108.5 -27.5t72 -77t25.5 -115.5q0 -63 -28 -114t-75.5 -81.5t-106.5 -30.5zM267 39q34 0 59 20.5t39 57t14 83.5q0 86 -35.5 139.5t-93.5 53.5q-54 0 -86.5 -45t-32.5 -119q0 -56 17.5 -99
t48.5 -67t70 -24zM325 518q-25 0 -50.5 14t-50 28t-45.5 14q-22 0 -35.5 -13.5t-25.5 -36.5l-33 18q15 44 41.5 70.5t60.5 26.5q25 0 50.5 -14t50.5 -28t46 -14q20 0 33.5 14t26.5 36l33 -18q-15 -44 -41.5 -70.5t-60.5 -26.5zM276 644l-40 13l66 133l80 -23z" />
    <glyph glyph-name="uni1E4E" unicode="&#x1e4e;" horiz-adv-x="686" 
d="M349 -9q-87 0 -154.5 38t-105.5 106t-38 156t39 156.5t107 108.5t154 40q84 0 148.5 -38t100.5 -105t36 -155q0 -67 -23 -123t-63 -97.5t-91.5 -64t-109.5 -22.5zM358 45q54 0 93.5 28t61.5 79.5t22 121.5q0 81 -24.5 142t-68.5 95.5t-103 34.5q-85 0 -134.5 -63
t-49.5 -173q0 -78 26 -137.5t72 -93.5t105 -34zM247 804q-22 0 -37 13.5t-15 35.5q0 21 15 35.5t37 14.5q21 0 35 -14.5t14 -35.5q0 -22 -14 -35.5t-35 -13.5zM445 804q-22 0 -36.5 13.5t-14.5 35.5q0 21 14.5 35.5t36.5 14.5t36 -14.5t14 -35.5q0 -22 -14 -35.5t-36 -13.5z
M413 645q-25 0 -50.5 11t-50 21.5t-45.5 10.5q-22 0 -35 -11.5t-26 -31.5l-32 18q15 41 41 66t60 25q25 0 50.5 -10.5t50 -21.5t46.5 -11q20 0 33.5 11t25.5 32l33 -18q-15 -42 -41 -66.5t-60 -24.5z" />
    </font>
</defs>
</svg>
