<?xml version="1.0" standalone="no"?>
<!DOCTYPE svg PUBLIC "-//W3C//DTD SVG 1.1//EN" "http://www.w3.org/Graphics/SVG/1.1/DTD/svg11.dtd" >
<svg xmlns="http://www.w3.org/2000/svg" xmlns:xlink="http://www.w3.org/1999/xlink" version="1.1">
<metadata>
Created by FontForge 20201107 at Tue Dec  1 16:59:51 2020
 By 
Copyright 2020 The Imbue Project Authors (https://github.com/Etcetera-Type-Co/Imbue)
</metadata>
<defs>
<font id="Imbue24pt-ExtraBold" horiz-adv-x="0" >
  <font-face 
    font-family="Imbue 24pt ExtraBold"
    font-weight="800"
    font-stretch="normal"
    units-per-em="2000"
    panose-1="0 0 0 0 0 0 0 0 0 0"
    ascent="1600"
    descent="-400"
    x-height="1046"
    cap-height="1400"
    bbox="-361 -502 1629 2038"
    underline-thickness="50"
    underline-position="-125"
    unicode-range="U+000D-FB02"
  />
<missing-glyph horiz-adv-x="597" 
d="M139 133v947h317v-947h-317zM163 156h269v900h-269v-900zM300 889l-68 -69l-18 18l68 69l-68 69l18 19l68 -69l69 69l18 -19l-68 -69l68 -69l-18 -18zM300 582l-68 -69l-18 18l69 69l-69 69l18 18l68 -69l69 69l18 -18l-69 -69l69 -69l-18 -18zM300 274l-68 -69l-18 19
l68 69l-68 69l18 18l68 -69l69 69l18 -18l-68 -69l68 -69l-18 -19z" />
    <glyph glyph-name="f_f" unicode="ff" horiz-adv-x="1123" 
d="M20 0v69h117v909h-120v69h120v90q0 115 42 198.5t121 129.5t191 46q64 0 112 -25t75.5 -66t30.5 -92l-52 -74q-1 42 -15 84t-43.5 70t-75.5 28q-39 0 -62.5 -31.5t-35 -84t-15 -115.5t-3.5 -126v-22v-10h170v-69h-170v-909h100v-69h-487zM509 0v69h110v909h-130v69h130
v100q0 101 36 183.5t110.5 131.5t188.5 49q107 0 166 -76t59 -196q0 -70 -28 -107.5t-81 -37.5q-56 0 -80 35t-24 85q0 43 18.5 68t37 44t18.5 42q0 36 -19 54.5t-45 18.5q-30 0 -47 -25.5t-26 -69t-11.5 -98.5t-2.5 -114v-87h142v-69h-142v-909h115v-69h-495z" />
    <glyph glyph-name="f_f_i" unicode="ffi" horiz-adv-x="1472" 
d="M23 0v69h114v909h-120v69h120v90q0 115 42 198.5t122.5 129.5t194.5 46q65 0 114 -25t77.5 -67t30.5 -93l-51 -77q-1 44 -17 87t-47 71.5t-78 28.5q-39 0 -63 -31.5t-36 -84t-15.5 -115.5t-3.5 -126v-22v-10h170v-69h-170v-909h90v-69h-474zM978 0v69h97v909h-97v69h367
v-978h96v-69h-463zM499 0v69h117v909h-138v69h138v64q0 124 55 213.5t148.5 138t207.5 48.5q87 0 167 -31.5t131 -88.5t51 -135q0 -57 -22 -88.5t-54.5 -44t-64.5 -12.5q-49 0 -92 25t-43 89q0 38 17 58.5t33 38.5t16 45q0 26 -18 41t-46 21t-55 6q-57 0 -92 -26t-52 -100
t-17 -220v-42h194v-69h-194v-909h121v-69h-508z" />
    <glyph glyph-name="f_f_l" unicode="ffl" horiz-adv-x="1559" 
d="M23 0v69h116v909h-122v69h122v90q0 115 41.5 198.5t122 129.5t195.5 46q65 0 114 -25t77 -66.5t32 -93.5l-51 -76q-2 43 -18 86t-47 71.5t-78 28.5q-40 0 -64 -31.5t-35.5 -84t-15.5 -115.5t-4 -126v-22v-10h170v-69h-170v-909h89v-69h-474zM1051 0v69h105v1362h-105v69
h375v-1431h105v-69h-480zM523 0v69h100v909h-121v69h121v16q0 110 32 192t89.5 136t136 81.5t171.5 27.5v-69q-52 0 -84 -30t-48 -80.5t-21.5 -112t-5.5 -124.5v-24.5v-12.5h170v-69h-170v-909h116v-69h-486z" />
    <glyph glyph-name="f_i" unicode="fi" horiz-adv-x="1012" 
d="M39 0v69h117v909h-139v69h139v64q0 124 55 213.5t148 138t208 48.5q87 0 166.5 -31.5t131 -88.5t51.5 -135q0 -57 -22.5 -88.5t-55 -44t-63.5 -12.5q-49 0 -92 25t-43 89q0 38 16.5 58.5t33 38.5t16.5 45q0 26 -18.5 41t-46 21t-54.5 6q-57 0 -92.5 -26t-52 -100
t-16.5 -220v-42h194v-69h-194v-909h120v-69h-507zM518 0v69h96v909h-96v69h366v-978h97v-69h-463z" />
    <glyph glyph-name="f_l" unicode="fl" horiz-adv-x="1075" 
d="M39 0v69h100v909h-122v69h122v16q0 110 31.5 192t89 136t136 81.5t171.5 27.5v-69q-52 0 -83.5 -30t-48 -80.5t-21.5 -112t-5 -124.5v-24.5v-12.5h169v-69h-169v-909h116v-69h-486zM567 0v69h105v1362h-105v69h374v-1431h106v-69h-480z" />
    <glyph glyph-name=".notdef" horiz-adv-x="597" 
d="M139 133v947h317v-947h-317zM163 156h269v900h-269v-900zM300 889l-68 -69l-18 18l68 69l-68 69l18 19l68 -69l69 69l18 -19l-68 -69l68 -69l-18 -18zM300 582l-68 -69l-18 18l69 69l-69 69l18 18l68 -69l69 69l18 -18l-69 -69l69 -69l-18 -18zM300 274l-68 -69l-18 19
l68 69l-68 69l18 18l68 -69l69 69l18 -18l-68 -69l68 -69l-18 -19z" />
    <glyph glyph-name=".null" 
 />
    <glyph glyph-name="nonmarkingreturn" horiz-adv-x="666" 
 />
    <glyph glyph-name="CR" unicode="&#xd;" horiz-adv-x="371" 
 />
    <glyph glyph-name="space" unicode=" " horiz-adv-x="371" 
 />
    <glyph glyph-name="exclam" unicode="!" horiz-adv-x="392" 
d="M166 378q0 100 -15.5 205.5t-35.5 213t-35.5 213.5t-15.5 207q0 94 34.5 146.5t100.5 52.5q65 0 99.5 -52.5t34.5 -146.5q0 -101 -15.5 -207t-35 -213.5t-35 -213t-15.5 -205.5h-66zM194 -38q-58 0 -100.5 43t-42.5 102q0 60 42.5 103t100.5 43q60 0 102 -43t42 -103
q0 -59 -42 -102t-102 -43z" />
    <glyph glyph-name="quotedbl" unicode="&#x22;" horiz-adv-x="558" 
d="M133 1166q-9 35 -22 78.5t-22 88.5t-9 83q0 60 28.5 84t61.5 24q31 0 60 -24t29 -84q0 -38 -10 -83t-23 -88.5t-24 -78.5h-69zM355 1166q-9 35 -22 78.5t-22 88.5t-9 83q0 60 28.5 84t61.5 24q31 0 60 -24t29 -84q0 -38 -10 -83t-23 -88.5t-24 -78.5h-69z" />
    <glyph glyph-name="numbersign" unicode="#" horiz-adv-x="1201" 
d="M146 0l78 447h-162v69h177l71 417h-199v69h212l67 398h226l-69 -398h188l73 398h222l-71 -398h180v-69h-190l-74 -417h213v-69h-225l-79 -447h-223l80 447h-190l-80 -447h-225zM463 516h186l76 417h-188z" />
    <glyph glyph-name="dollar" unicode="$" horiz-adv-x="615" 
d="M272 -24v1442h59v-1442h-59zM301 63q-64 0 -96 18.5t-48.5 36.5t-33.5 18q-23 0 -23 -49h-56v315h58q1 -22 13.5 -66.5t37 -93t61 -82t85.5 -33.5q33 0 52.5 13.5t29 41t9.5 68.5q0 52 -22.5 105.5t-63 113.5t-94.5 131q-67 89 -103 163.5t-50 142t-14 135.5
q0 103 34 171.5t86.5 103t110.5 34.5q51 0 79 -16.5t44.5 -33t31.5 -16.5q11 0 17 9.5t6 36.5h57v-313h-58q-2 26 -13.5 71t-33 90.5t-53 77t-74.5 31.5q-44 0 -66.5 -33t-22.5 -94q0 -47 22 -100.5t63.5 -113.5t98.5 -129q90 -107 130.5 -206.5t40.5 -219.5
q0 -97 -22.5 -161t-58.5 -100.5t-78.5 -51.5t-82.5 -15z" />
    <glyph glyph-name="percent" unicode="%" horiz-adv-x="1116" 
d="M317 780q-60 0 -112 39t-83.5 109.5t-31.5 166.5q0 139 64 224t163 85q95 0 160 -79t65 -230q0 -148 -66 -231.5t-159 -83.5zM802 -11q-60 0 -112.5 39.5t-84.5 110.5t-32 165q0 140 65 225.5t164 85.5q94 0 159.5 -79.5t65.5 -231.5q0 -146 -65.5 -230.5t-159.5 -84.5z
M802 58q29 0 41 41t14.5 98.5t2.5 104.5q0 50 -2.5 108t-14.5 99.5t-41 41.5q-30 0 -43.5 -42t-17 -100.5t-3.5 -108.5q0 -48 3 -104.5t16.5 -97t44.5 -40.5zM316 847q32 0 44.5 41.5t15.5 99t3 105.5q0 49 -3 107t-15.5 100t-44.5 42q-29 0 -42 -42.5t-16 -101t-3 -107.5
t3 -106t15.5 -97.5t42.5 -40.5zM88 0l854 1400h90l-852 -1400h-92z" />
    <glyph glyph-name="ampersand" unicode="&#x26;" horiz-adv-x="1106" 
d="M862 -16q-66 0 -128 28.5t-101 101.5l-328 630q-21 38 -41.5 83.5t-37.5 96t-27 104t-10 110.5q0 83 30.5 137.5t77 85.5t97 44t91.5 13t88.5 -12t90 -40.5t69 -76t26.5 -118.5q0 -76 -32.5 -134t-77 -98.5t-82.5 -63.5t-49 -30l-44 59q27 22 59 86t32 178
q0 91 -20.5 138.5t-60.5 47.5q-39 0 -57 -40.5t-18 -116.5q0 -45 14 -97t32.5 -99.5t34 -80t18.5 -39.5l381 -719q27 -50 42.5 -63t31.5 -13q15 0 31 12.5t25 30.5l44 -49q-26 -47 -82.5 -71.5t-118.5 -24.5zM373 -18q-107 0 -186.5 46t-122.5 126t-43 181q0 117 46 203.5
t111 147t123 96.5l58 -51q-26 -25 -47 -68.5t-32 -95.5t-11 -102q0 -97 22.5 -182t66.5 -137t108 -52q34 0 64 13t53 34.5t35 42.5l37 -51q-7 -18 -39.5 -54.5t-91.5 -66.5t-151 -30zM972 253q-42 0 -62 24.5t-20 59.5q0 29 13 46.5t25.5 30t12.5 25.5q0 12 -5.5 18t-22.5 6
q-26 0 -50 -23.5t-43.5 -59t-30.5 -69.5l-56 54q15 33 42.5 71.5t65 66.5t79.5 28q69 0 105 -45t36 -106t-23 -94t-66 -33z" />
    <glyph glyph-name="quotesingle" unicode="'" horiz-adv-x="373" 
d="M151 1166q-9 35 -22 78.5t-22 88.5t-9 83q0 60 28.5 84t61.5 24q31 0 60 -24t29 -84q0 -38 -10 -83t-23 -88.5t-24 -78.5h-69z" />
    <glyph glyph-name="parenleft" unicode="(" horiz-adv-x="416" 
d="M332 -431q-12 15 -54 91.5t-91.5 203.5t-85.5 295t-36 367q0 226 37 402.5t87 301t92.5 194.5t54.5 82l55 -62q-16 -17 -55 -83.5t-83.5 -182t-76 -278.5t-31.5 -374q0 -188 32.5 -344.5t77.5 -274t84 -188t50 -85.5z" />
    <glyph glyph-name="parenright" unicode=")" horiz-adv-x="416" 
d="M85 -431l-57 65q12 15 50.5 85.5t83.5 188t77.5 274t32.5 344.5q0 211 -31.5 374t-75.5 278.5t-83.5 182t-55.5 83.5l55 62q12 -12 54.5 -82t92.5 -194.5t87 -301t37 -402.5q0 -199 -36 -367t-85.5 -295t-91.5 -203.5t-54 -91.5z" />
    <glyph glyph-name="asterisk" unicode="*" horiz-adv-x="813" 
d="M392 882q-24 0 -42 14.5t-18 43.5q0 28 6 50t12.5 50.5t7.5 73.5q-32 -24 -51.5 -45.5t-35.5 -37.5t-39 -28q-10 -4 -19 -5.5t-16 -1.5q-26 0 -42.5 14.5t-16.5 38.5q0 15 8 30t27 27q20 12 42 16t49.5 10.5t63.5 25.5q-35 20 -61.5 27.5t-49.5 13.5t-47 20
q-32 20 -32 53q0 26 17.5 42t40.5 16q17 0 36 -10q33 -17 54.5 -47.5t71.5 -64.5q-2 69 -14 100.5t-12 71.5q0 29 18 43.5t42 14.5q23 0 41.5 -14.5t18.5 -43.5q0 -28 -7.5 -50t-15.5 -49t-10 -73q56 36 79.5 65t54.5 47q17 9 33 9q24 0 41 -17.5t17 -42.5q0 -32 -33 -50
q-24 -15 -48.5 -20.5t-52 -13t-64.5 -27.5q35 -17 63.5 -24t53 -11.5t47.5 -16.5q18 -10 26 -24t8 -29q0 -26 -16 -42t-42 -16q-9 0 -18 1.5t-19 6.5q-24 13 -40 29t-35 36.5t-55 45.5q2 -46 10 -74t15 -49t7 -51q0 -29 -18 -43.5t-41 -14.5z" />
    <glyph glyph-name="plus" unicode="+" horiz-adv-x="826" 
d="M380 251v624h69v-624h-69zM102 528v69h622v-69h-622z" />
    <glyph glyph-name="comma" unicode="," horiz-adv-x="394" 
d="M155 -228l-58 71q24 14 54.5 38t53.5 51t23 48q0 13 -7 13t-17.5 -7t-38.5 -7q-30 0 -58.5 16t-47 47t-18.5 77q0 65 43.5 102t108.5 37q64 0 111.5 -40.5t47.5 -119.5q0 -93 -31.5 -156.5t-77.5 -103.5t-88 -66z" />
    <glyph glyph-name="hyphen" unicode="-" horiz-adv-x="726" 
d="M102 528v69h522v-69h-522z" />
    <glyph glyph-name="period" unicode="." horiz-adv-x="403" 
d="M196 -40q-59 0 -101 43t-42 102q0 60 42 103t101 43q60 0 102 -43t42 -103q0 -59 -42 -102t-102 -43z" />
    <glyph glyph-name="slash" unicode="/" horiz-adv-x="625" 
d="M33 -104l498 1608h71l-496 -1608h-73z" />
    <glyph glyph-name="zero" unicode="0" horiz-adv-x="933" 
d="M467 -24q-93 0 -174.5 77t-131.5 236.5t-50 408.5t50 409t131 237.5t175 77.5q92 0 173 -77.5t131 -237.5t50 -409t-50 -408.5t-131 -236.5t-173 -77zM467 47q20 0 36 57.5t27.5 153t17.5 210.5t6 230q0 116 -6 231.5t-17.5 211.5t-27.5 154t-36 58q-23 0 -40 -55.5
t-28 -150t-16 -211.5t-5 -238t5.5 -237t16.5 -209.5t27.5 -149t39.5 -55.5z" />
    <glyph glyph-name="one" unicode="1" horiz-adv-x="628" 
d="M79 0v69h98v1021q-9 -8 -25.5 -15t-35.5 -11.5t-35 -5.5v77q36 6 81 30.5t90 65t80 93.5t47 118h68v-1373h103v-69h-471z" />
    <glyph glyph-name="two" unicode="2" horiz-adv-x="814" 
d="M537 -11q-48 0 -88.5 17t-78 39.5t-75 39.5t-80.5 17q-47 0 -70.5 -34.5t-28.5 -67.5h-63q0 168 30.5 291t78 215t101 164t101 137.5t78 136t30.5 159.5q0 76 -15.5 132.5t-45.5 88t-75 31.5q-30 0 -56.5 -11.5t-42 -30t-15.5 -41.5q0 -19 16.5 -39t32.5 -46.5t16 -64.5
q0 -59 -29.5 -86t-75.5 -27q-47 0 -76.5 34.5t-29.5 106.5q0 77 37.5 138t107 97.5t165.5 36.5q57 0 117.5 -16t111.5 -53.5t82.5 -102t31.5 -163.5q0 -109 -28.5 -184.5t-75.5 -129.5t-105 -97t-118.5 -85.5t-114.5 -95.5t-94 -127t-56 -180q16 32 49.5 55t77.5 35t90 12
q61 0 105 -14t77 -28.5t61 -14.5q40 0 57 21.5t17 54.5h61v-46q0 -61 -17 -124.5t-59.5 -106.5t-118.5 -43z" />
    <glyph glyph-name="three" unicode="3" horiz-adv-x="822" 
d="M374 -24q-82 0 -148.5 36.5t-105 99t-38.5 138.5q0 72 39 111.5t85 39.5q45 0 70.5 -25t25.5 -77q0 -39 -18.5 -63.5t-38 -48t-19.5 -61.5q0 -33 31.5 -54.5t76.5 -21.5q36 0 63 26.5t43 94t16 192.5q0 109 -11.5 175t-32 100.5t-49 46t-63.5 11.5v73q35 0 65.5 8.5
t53.5 39.5t35.5 97.5t12.5 181.5q0 129 -34.5 191t-95.5 62q-46 0 -77.5 -20.5t-31.5 -54.5q0 -37 19 -61.5l38 -49t19 -63.5q0 -52 -25.5 -77.5t-71.5 -25.5q-45 0 -84 40.5t-39 112.5q0 77 39 138t107.5 97.5t155.5 36.5t165.5 -35t127.5 -109t49 -190q0 -103 -34 -171
t-85 -107.5t-103 -57.5t-87 -21q35 -4 89 -23.5t108 -60t90 -109t36 -172.5q0 -122 -45.5 -209.5t-128 -134t-194.5 -46.5z" />
    <glyph glyph-name="four" unicode="4" horiz-adv-x="768" 
d="M195 0v69h100v278h-250v68l255 811q69 38 115 91.5t83 118.5h67v-1021h10q42 0 57 54.5t15 130.5h64v-253h-146v-278h98v-69h-468zM117 406l-12 9h192v615l9 -22z" />
    <glyph glyph-name="five" unicode="5" horiz-adv-x="861" 
d="M371 -24q-82 0 -143 36.5t-93.5 99t-32.5 138.5q0 73 34 112t81 39q45 0 74.5 -27.5t29.5 -86.5q0 -35 -19.5 -59.5t-40 -46.5t-20.5 -54q0 -22 9 -40.5t30 -29t58 -10.5q57 0 86 49t39 134.5t10 194.5q0 128 -8.5 204t-24.5 114.5t-37.5 50.5t-45.5 12q-42 0 -72.5 -22
t-50 -54t-29.5 -62l-71 10l74 722h65q7 -20 42 -38t82.5 -29t89.5 -11q80 0 128 25.5t49 52.5h57q0 -62 -24 -128.5t-75 -111.5t-132 -45q-58 0 -100 20t-68 47.5t-39 51.5t-15 31l-47 -474q9 19 33 40.5t64 37t94 15.5q56 0 114.5 -22.5t109.5 -73.5t82.5 -138t31.5 -217
q0 -143 -35.5 -232.5t-92.5 -138.5t-123 -67.5t-128 -18.5z" />
    <glyph glyph-name="six" unicode="6" horiz-adv-x="904" 
d="M465 -24q-97 0 -166.5 50.5t-114.5 145t-67 227t-22 295.5q0 137 29 266.5t83 234t131 166t174 61.5q70 0 127 -36.5t91 -97.5t34 -138q0 -84 -31 -118.5t-77 -34.5t-75.5 27.5t-29.5 86.5q0 39 11.5 62t22.5 45.5t11 59.5q0 23 -10.5 40t-30.5 27t-48 10
q-39 0 -64.5 -31t-39.5 -86t-21 -127.5t-8.5 -156t-1.5 -171.5q1 9 17 34t50 47.5t88 22.5q35 0 84.5 -21.5t97.5 -71.5t79.5 -135.5t31.5 -215.5q0 -120 -29.5 -208t-79.5 -145.5t-113.5 -85.5t-132.5 -28zM461 43q32 0 50.5 34t26.5 120t8 242q0 140 -10 217t-29 106.5
t-43 29.5q-23 0 -42.5 -26t-32.5 -72.5t-17 -109.5q0 -164 3 -270t12 -165t27 -82.5t47 -23.5z" />
    <glyph glyph-name="seven" unicode="7" horiz-adv-x="749" 
d="M362 -20q-41 0 -76 21t-56.5 73.5t-21.5 144.5q0 146 40.5 272t101 238t121 215t101 202t40.5 202q-8 -43 -33 -76t-64.5 -51t-92.5 -18q-54 0 -83 9.5t-51 19t-52 9.5q-28 0 -45 -12t-25.5 -38.5t-11.5 -71.5h-68v281h598q0 -29 -4.5 -62t-12 -70t-17.5 -79.5t-22.5 -90
t-25.5 -102.5q-10 -45 -21.5 -98.5t-21.5 -114.5q-20 -116 -34 -252.5t-14 -311.5q0 -92 -20 -144.5t-53.5 -73.5t-75.5 -21z" />
    <glyph glyph-name="eight" unicode="8" horiz-adv-x="905" 
d="M436 -20q-54 0 -117.5 18.5t-120.5 60.5t-94 113.5t-37 176.5q0 93 33 156.5t79 103t89 59.5t64 26l73 -47q-30 -18 -58 -50t-46.5 -88.5t-18.5 -149.5q0 -151 41.5 -230t114.5 -79t111.5 57.5t38.5 150.5q0 65 -31 119.5t-84.5 107t-124.5 109.5q-74 61 -129.5 134
t-86.5 159t-31 182q0 127 51 205t130 114t165 36q88 0 162.5 -35t119.5 -105.5t45 -176.5q0 -80 -28.5 -139.5t-71 -100t-83 -64.5t-65.5 -34l-38 38q21 11 49.5 52t50 106.5t21.5 150.5q0 74 -19 129t-54.5 84t-85.5 29q-45 0 -83.5 -24t-61.5 -69.5t-23 -110.5
t40.5 -130.5t97.5 -121t107 -90.5q48 -34 99.5 -76.5t96 -95.5t72.5 -118t28 -145q0 -108 -36 -184t-94.5 -123t-126 -68.5t-130.5 -21.5z" />
    <glyph glyph-name="nine" unicode="9" horiz-adv-x="905" 
d="M450 1422q96 0 166 -50.5t115 -144.5t67 -227t22 -296q0 -136 -29 -266t-83 -234.5t-131.5 -166t-173.5 -61.5q-70 0 -127 36.5t-91.5 98.5t-34.5 137q0 84 31 118.5t78 34.5q45 0 74.5 -27.5t29.5 -86.5q0 -39 -11 -62t-22.5 -45.5t-11.5 -59.5q0 -22 11 -39.5t31 -27.5
t48 -10q39 0 64 31t39.5 86t21 127.5t8.5 156t2 171.5q-1 -8 -17 -33.5t-50 -48t-88 -22.5q-36 0 -85 21.5t-97 71.5t-79.5 136t-31.5 215q0 120 29 208t79.5 145.5t114 85.5t132.5 28zM453 1355q-32 0 -50.5 -34t-26.5 -119.5t-8 -242.5q0 -140 10.5 -217t29 -106.5
t42.5 -29.5t43.5 26t32.5 73t17 109q0 164 -3.5 270t-12.5 165t-26.5 82.5t-47.5 23.5z" />
    <glyph glyph-name="colon" unicode=":" horiz-adv-x="526" 
d="M267 788q-59 0 -101 43t-42 102q0 60 42 103t101 43q60 0 102 -43t42 -103q0 -59 -42 -102t-102 -43zM266 -40q-59 0 -101 43t-42 102q0 60 42 103t101 43q60 0 102 -43t42 -103q0 -59 -42 -102t-102 -43z" />
    <glyph glyph-name="semicolon" unicode=";" horiz-adv-x="526" 
d="M270 788q-59 0 -101 43t-42 102q0 60 42 103t101 43q60 0 102 -43t42 -103q0 -59 -42 -102t-102 -43zM226 -228l-58 71q24 14 54.5 38t53.5 51t23 48q0 13 -7 13t-17.5 -7t-38.5 -7q-30 0 -58.5 16t-47 47t-18.5 77q0 65 43.5 102t108.5 37q64 0 111.5 -40.5t47.5 -119.5
q0 -93 -31.5 -156.5t-77.5 -103.5t-88 -66z" />
    <glyph glyph-name="less" unicode="&#x3c;" horiz-adv-x="778" 
d="M625 95l-467 407v72l467 402v-83l-420 -357l420 -357v-84z" />
    <glyph glyph-name="equal" unicode="=" horiz-adv-x="815" 
d="M96 728v69h622v-69h-622zM96 328v69h622v-69h-622z" />
    <glyph glyph-name="greater" unicode="&#x3e;" horiz-adv-x="778" 
d="M167 95v84l420 357l-420 357v83l467 -402v-72z" />
    <glyph glyph-name="question" unicode="?" horiz-adv-x="703" 
d="M267 323q0 118 15.5 207.5t38.5 161.5t45.5 135.5t38.5 128t16 141.5q0 130 -41 193t-107 63q-46 0 -67.5 -22.5t-21.5 -56.5q0 -28 18 -51t35.5 -49t17.5 -64q0 -58 -28 -85.5t-74 -27.5q-45 0 -78 40.5t-33 114.5q0 78 36 138.5t100.5 96t147.5 35.5q53 0 111.5 -14
t110.5 -49t85 -97t33 -157q0 -93 -33.5 -163t-82.5 -133t-98 -130t-82.5 -152.5t-33.5 -203.5h-69zM303 -38q-59 0 -102 43t-43 102q0 60 43 103t102 43q58 0 101 -43t43 -103q0 -59 -43 -102t-101 -43z" />
    <glyph glyph-name="at" unicode="@" horiz-adv-x="949" 
d="M468 -22q-67 0 -137 36t-129.5 113.5t-95.5 201.5t-36 300q0 225 43.5 376.5t113.5 241.5t151 129.5t154 39.5q102 0 179 -59t119 -187.5t42 -338.5q0 -78 -14.5 -163.5t-43.5 -159.5t-71.5 -120t-97.5 -46q-44 0 -68 18.5t-33 44t-9 45.5q-14 -63 -54 -90t-90 -27
q-41 0 -83 26t-70 91t-28 181q0 112 19.5 194.5t54.5 136.5t81 80.5t99 26.5q36 0 59.5 -14t36 -33t14.5 -37l5 62h141l-43 -514q-2 -24 -3 -40t-1 -27q0 -18 4.5 -25t13.5 -7q18 0 43 51.5t44 141.5t19 206q0 243 -60 378t-199 135q-77 0 -148 -41.5t-127 -129t-88 -223.5
t-32 -325q0 -172 44.5 -302.5t118.5 -203t162 -72.5q96 0 147 41t98 104l56 -45q-29 -38 -71.5 -77.5t-99 -66.5t-130.5 -27zM458 428q18 0 32.5 15.5t24.5 41.5t16.5 58t8.5 64l22 267q0 22 -6 45.5t-18.5 40.5t-32.5 17q-29 0 -49 -32t-31.5 -85t-16.5 -118t-5 -132
q0 -79 13.5 -130.5t41.5 -51.5z" />
    <glyph glyph-name="A" unicode="A" horiz-adv-x="720" 
d="M-5 0v69h83l195 1332h134l230 -1332h92v-69h-459v69h76l-102 725h5l-99 -725h68v-69h-223zM147 250v64h208v-64h-208z" />
    <glyph glyph-name="B" unicode="B" horiz-adv-x="885" 
d="M42 0v69h94v1262h-94v69h429q61 0 120 -17t107.5 -54.5t77 -99t28.5 -150.5q0 -87 -27.5 -149t-69.5 -102t-87 -61t-82 -25q37 -1 86.5 -18t97 -56t78.5 -104.5t31 -163.5q0 -140 -49.5 -228.5t-126 -130t-158.5 -41.5h-455zM401 69h35q29 0 55 37.5t43 111t17 180.5
q0 125 -17 191.5t-42.5 91.5t-53.5 25h-37v-637zM401 775h37q32 0 54 29t33 96t11 179q0 101 -15 155.5t-39 75.5t-50 21h-31v-556z" />
    <glyph glyph-name="C" unicode="C" horiz-adv-x="746" 
d="M440 -20q-168 0 -271.5 187t-103.5 531q0 136 23 265.5t71 233t120.5 164.5t170.5 61q70 0 123 -44t83 -109t30 -127q0 -61 -24.5 -102t-78.5 -41q-59 0 -83.5 33.5t-24.5 88.5q0 40 17.5 66t35 49t17.5 55t-13.5 45t-33.5 13q-35 0 -60 -44t-41.5 -116t-26 -158.5
t-13.5 -173t-4 -157.5q0 -102 5 -198t15 -178t25.5 -143.5t36.5 -96t48 -34.5q36 0 61 20.5t42 57t28 83.5l57 -35q-20 -59 -50.5 -103t-74 -68.5t-106.5 -24.5z" />
    <glyph glyph-name="D" unicode="D" horiz-adv-x="886" 
d="M42 0v69h95v1262h-95v69h412q100 0 186 -78t138.5 -231t52.5 -380q0 -229 -53 -387.5t-139 -241t-185 -82.5h-412zM409 69h30q33 0 61.5 73t46.5 216t18 353q0 193 -17 332t-44.5 213.5t-59.5 74.5h-35v-1262z" />
    <glyph glyph-name="E" unicode="E" horiz-adv-x="759" 
d="M42 0v69h95v1262h-95v69h643v-349h-68q0 81 -19 144.5t-56 99.5t-94 36h-39v-596h158v96h68v-258h-68v93h-158v-597h39q57 0 94 37t56 101t19 145h68v-352h-643z" />
    <glyph glyph-name="F" unicode="F" horiz-adv-x="765" 
d="M65 0v69h96v1262h-96v69h617v-349h-69q0 81 -12.5 144.5t-45 99.5t-91.5 36h-32v-574h153v95h68v-258h-68v95h-153v-620h97v-69h-464z" />
    <glyph glyph-name="G" unicode="G" horiz-adv-x="853" 
d="M456 -20q-110 0 -200.5 75t-143.5 234t-53 409q0 230 61 391t156 246t195 85q76 0 134.5 -38t91.5 -100.5t33 -139.5q0 -64 -27.5 -103.5t-81.5 -39.5q-58 0 -83.5 39t-25.5 93q0 36 17 60t33.5 45.5t16.5 51.5q0 25 -23.5 46.5t-56.5 21.5q-47 0 -79 -61.5t-51 -161.5
t-26.5 -214.5t-7.5 -220.5q0 -160 9.5 -280.5t26 -202t38.5 -122.5t48 -41q14 0 21.5 5.5t12.5 12.5v494h-73v69h401v-69h-83v-564h-72q-1 3 -14.5 11.5t-36.5 8.5q-22 0 -42 -10t-46.5 -20t-68.5 -10z" />
    <glyph glyph-name="H" unicode="H" horiz-adv-x="969" 
d="M42 0v69h95v1262h-95v69h424v-69h-61v-576h164v576h-59v69h417v-69h-97v-1262h97v-69h-417v69h59v617h-164v-617h61v-69h-424z" />
    <glyph glyph-name="I" unicode="I" horiz-adv-x="582" 
d="M59 0v69h98v1262h-98v69h465v-69h-99v-1262h99v-69h-465z" />
    <glyph glyph-name="J" unicode="J" horiz-adv-x="762" 
d="M292 -23q-87 0 -139 39t-75.5 103.5t-23.5 142.5q0 73 31 105.5t79 32.5q46 0 76 -30t30 -101q0 -47 -16.5 -73t-33.5 -45t-17 -43q0 -30 16 -43t37 -13q41 0 62.5 28t21.5 100v1151h-106v69h477v-69h-101v-896q0 -128 -23 -215.5t-65.5 -141t-100.5 -77.5t-129 -24z" />
    <glyph glyph-name="K" unicode="K" horiz-adv-x="915" 
d="M29 0v69h92v1262h-92v69h458v-69h-99v-566l303 566h-89v69h252v-69h-83l-221 -414l23 71l244 -919h71v-69h-420v69h63l-175 676l32 -16v-660h65v-69h-424z" />
    <glyph glyph-name="L" unicode="L" horiz-adv-x="714" 
d="M49 0v69h89v1262h-89v69h450v-69h-92v-1262h37q45 0 76 37.5t47 101.5t16 144h68v-352h-602z" />
    <glyph glyph-name="M" unicode="M" horiz-adv-x="1086" 
d="M24 0v69h92v1262h-91v69h420l113 -687h-34l148 687h389v-69h-93v-1262h95v-69h-460v69h95v1237h35l-273 -1240h-72l-228 1290h25v-1287h80v-69h-241z" />
    <glyph glyph-name="N" unicode="N" horiz-adv-x="843" 
d="M29 0v69h93v1262h-93v69h385l255 -784h-14v715h-88v69h247v-69h-89v-1331h-147l-404 1246h18v-1177h90v-69h-253z" />
    <glyph glyph-name="O" unicode="O" horiz-adv-x="869" 
d="M437 -22q-108 0 -192 84t-132 244.5t-48 391.5q0 232 48 393.5t132 246t192 84.5q109 0 194 -84.5t134.5 -246t49.5 -393.5q0 -231 -49.5 -391.5t-134.5 -244.5t-194 -84zM437 47q26 0 43.5 41.5t28 124.5t15 204.5t4.5 280.5t-4.5 281t-15 205.5t-28 126t-43.5 42.5
t-42.5 -42.5t-26 -126t-13.5 -205.5t-4 -281t4 -280.5t13.5 -204.5t26 -124.5t42.5 -41.5z" />
    <glyph glyph-name="P" unicode="P" horiz-adv-x="877" 
d="M44 0v69h107v1262h-107v69h466q52 0 109 -19t106 -63t79.5 -118.5t30.5 -184.5q0 -113 -31 -198t-80.5 -142t-106 -85t-107.5 -28h-92v-493h107v-69h-481zM418 631h27q33 0 58 45.5t38 132t13 206.5q0 115 -11.5 184.5t-34 100.5t-55.5 31h-35v-700z" />
    <glyph glyph-name="Q" unicode="Q" horiz-adv-x="869" 
d="M683 -402q-51 0 -86.5 35.5t-35.5 102.5q0 52 24 89t47.5 68t23.5 65q0 22 -18.5 37t-47.5 15q-12 0 -27 -3t-24 -6l11 72q6 4 33 8.5t44 4.5q101 0 143 -86.5t42 -232.5q0 -84 -38.5 -126.5t-90.5 -42.5zM437 -22q-108 0 -192 84t-132 244.5t-48 391.5q0 232 48 393.5
t132 246t192 84.5q109 0 194 -84.5t134.5 -246t49.5 -393.5q0 -231 -49.5 -391.5t-134.5 -244.5t-194 -84zM437 47q26 0 43.5 41.5t28 124.5t15 204.5t4.5 280.5t-4.5 281t-15 205.5t-28 126t-43.5 42.5t-42.5 -42.5t-26 -126t-13.5 -205.5t-4 -281t4 -280.5t13.5 -204.5
t26 -124.5t42.5 -41.5z" />
    <glyph glyph-name="R" unicode="R" horiz-adv-x="957" 
d="M780 -18q-99 0 -145 42.5t-59.5 118.5t-13.5 175q0 55 2 105t2 83q0 71 -10 110t-33.5 54.5t-65.5 15.5h-39v-617h101v-69h-474v69h106v1262h-106v69h474q90 0 164 -33.5t118 -105t44 -186.5q0 -87 -28 -151t-73 -106t-96.5 -65.5t-98.5 -30.5q115 -6 177 -40t86 -104.5
t24 -188.5q0 -52 -3 -101.5t-3 -92.5q0 -28 2.5 -57.5t9.5 -49t20 -19.5t19 9.5t7 22.5h64q-6 -42 -28 -68t-58.5 -38.5t-85.5 -12.5zM418 755h43q36 0 60.5 41.5t37 113t12.5 161.5q0 85 -12.5 143t-37 87.5t-59.5 29.5h-44v-576z" />
    <glyph glyph-name="S" unicode="S" horiz-adv-x="702" 
d="M362 -27q-56 0 -90.5 12.5t-55.5 29t-35 28.5t-29 12q-28 0 -28 -55h-65v355h68q1 -20 11 -57t28.5 -80t46.5 -82.5t64.5 -65t82.5 -25.5q38 0 62 15t34.5 46t10.5 78q0 59 -26.5 118.5t-74 127t-111.5 148.5q-79 100 -122 184t-59.5 159.5t-16.5 152.5q0 117 40 194
t102.5 115.5t130.5 38.5q60 0 93.5 -18.5t53 -36.5t37.5 -18q13 0 20 10t8 41h66v-352h-69q-2 29 -15.5 79t-38.5 101.5t-63 87t-88 35.5q-51 0 -78 -37t-27 -106q0 -53 26 -113t75.5 -127.5t116.5 -145.5q71 -80 115.5 -155.5t65.5 -155t21 -169.5q0 -111 -27 -182.5
t-69.5 -112t-93 -57.5t-97.5 -17z" />
    <glyph glyph-name="T" unicode="T" horiz-adv-x="830" 
d="M167 0v69h114v1262h-15q-65 0 -99 -31.5t-47 -93.5t-13 -155h-69v349h754v-349h-69q0 93 -12.5 155t-46.5 93.5t-99 31.5h-15v-1262h117v-69h-500z" />
    <glyph glyph-name="U" unicode="U" horiz-adv-x="837" 
d="M446 -24q-50 0 -105 14t-102.5 53t-77 112t-29.5 191v985h-99v69h480v-69h-107v-997q0 -139 26.5 -205t86.5 -66q22 0 43 10.5t39 36.5t28 72.5t10 118.5v1030h-88v69h253v-69h-94v-1032q0 -126 -32.5 -196.5t-91.5 -98.5t-140 -28z" />
    <glyph glyph-name="V" unicode="V" horiz-adv-x="739" 
d="M326 0l-232 1331h-88v69h460v-69h-80l103 -684h-21l109 684h-76v69h236v-69h-83l-226 -1331h-102z" />
    <glyph glyph-name="W" unicode="W" horiz-adv-x="1207" 
d="M337 0l-237 1331h-99v69h477v-69h-60l94 -671l-38 -98l127 684l21 -161l-52 246h-70v69h446v-69h-75l91 -651l-28 -98l122 749h-78v69h236v-69h-83l-226 -1331h-93l-189 1076l37 72l-230 -1148h-93z" />
    <glyph glyph-name="X" unicode="X" horiz-adv-x="854" 
d="M351 0v69h104l-350 1262h-82v69h477v-69h-98l351 -1262h81v-69h-483zM18 0v69h88l213 584l72 -22l-209 -562h87v-69h-251zM496 762l-69 25l201 544h-80v69h239v-69h-82z" />
    <glyph glyph-name="Y" unicode="Y" horiz-adv-x="855" 
d="M193 0v69h107v518l-190 744h-97v69h475v-69h-76l154 -670h-62l172 670h-84v69h251v-69h-93l-180 -697v-565h106v-69h-483z" />
    <glyph glyph-name="Z" unicode="Z" horiz-adv-x="763" 
d="M60 0v69l331 1262h-45q-78 0 -121 -36t-59 -99.5t-16 -144.5h-69v349h601v-68l-332 -1263h54q71 0 122.5 37t79.5 101t28 145h69v-352h-643z" />
    <glyph glyph-name="bracketleft" unicode="[" horiz-adv-x="294" 
d="M38 -440v1940h215v-69h-146v-1802h146v-69h-215z" />
    <glyph glyph-name="backslash" unicode="\" horiz-adv-x="646" 
d="M613 -104h-73l-496 1608h71z" />
    <glyph glyph-name="bracketright" unicode="]" horiz-adv-x="361" 
d="M322 -440h-215v69h147v1802h-147v69h215v-1940z" />
    <glyph glyph-name="asciicircum" unicode="^" horiz-adv-x="851" 
d="M117 949l268 451h84l266 -451h-80l-228 389l-231 -389h-79z" />
    <glyph glyph-name="underscore" unicode="_" horiz-adv-x="1009" 
d="M19 -217v69h973v-69h-973z" />
    <glyph glyph-name="grave" unicode="`" horiz-adv-x="595" 
d="M366 1260l-211 98q-30 14 -44.5 29.5t-14.5 43.5q0 24 18 39.5t45 15.5q21 0 35.5 -8t29.5 -20l180 -153z" />
    <glyph glyph-name="a" unicode="a" horiz-adv-x="857" 
d="M295 -22q-68 0 -124 32.5t-89.5 92.5t-33.5 142q0 97 41.5 160t103 105t123 75t103 69.5t41.5 89.5q0 72 -11.5 125t-37 82t-66.5 29q-47 0 -77 -24.5t-30 -59.5q0 -28 12 -48t24.5 -42.5t12.5 -60.5q0 -52 -29 -82t-76 -30q-48 0 -77.5 40.5t-29.5 111.5q0 79 42 141.5
t116 98t169 35.5q94 0 168 -37.5t117 -119t43 -215.5v-525q0 -52 9 -70.5t27 -18.5q19 0 32.5 10t19.5 18l40 -53q-16 -23 -67 -45.5t-121 -22.5q-68 0 -107.5 19t-57.5 45t-24 48q-4 -13 -22.5 -41t-57.5 -51t-106 -23zM389 93q22 0 38 19.5t24.5 50.5t8.5 63v391
q-3 -28 -25 -54t-48.5 -60t-46 -87t-19.5 -137q0 -91 18.5 -138.5t49.5 -47.5z" />
    <glyph glyph-name="b" unicode="b" horiz-adv-x="886" 
d="M519 -20q-51 0 -82.5 23.5t-47 55t-18.5 51.5l-22 -110h-334v69h100v1362h-100v69h375v-544q3 10 17 35.5t45 47t84 21.5q73 0 138 -56t106 -175.5t41 -310.5q0 -208 -43.5 -325t-112.5 -165t-146 -48zM463 110q25 0 41.5 28.5t26.5 82t14 128t4 166.5t-4 166.5t-14 128
t-26 82t-41 28.5q-20 0 -35.5 -22.5t-25.5 -62t-13 -90.5v-400q1 -64 12 -117.5t28 -85.5t33 -32z" />
    <glyph glyph-name="c" unicode="c" horiz-adv-x="719" 
d="M414 -22q-71 0 -136 35.5t-116 105t-80.5 172.5t-29.5 237q0 148 38 250t96 164t122.5 90t116.5 28q77 0 134.5 -39.5t89 -104.5t31.5 -141q0 -69 -29.5 -105.5t-74.5 -36.5q-47 0 -77 31t-30 85q0 35 14.5 58t28.5 44.5t14 51.5q0 45 -25.5 66t-58.5 21q-36 0 -58 -45
t-33.5 -115.5t-15 -149t-3.5 -144.5q0 -81 5 -165.5t19 -155.5t40 -115t69 -44q59 0 92 37t46 78l54 -45q-23 -57 -83.5 -102.5t-159.5 -45.5z" />
    <glyph glyph-name="d" unicode="d" horiz-adv-x="895" 
d="M364 -20q-77 0 -146.5 48t-113.5 165t-44 325q0 191 42 310.5t108 175.5t136 56q58 0 89 -19.5t43.5 -43t14.5 -33.5v466h-117v70h393v-1431h115v-69h-348l-24 112q-1 -25 -18.5 -56.5t-49.5 -53.5t-80 -22zM416 110q23 0 40 31.5t27 83t10 108.5v412q-2 51 -12.5 91.5
t-26.5 63.5t-38 23q-20 0 -36 -29.5t-26.5 -83.5t-16.5 -129t-6 -166q0 -90 5.5 -164.5t15.5 -128t26 -83t38 -29.5z" />
    <glyph glyph-name="e" unicode="e" horiz-adv-x="803" 
d="M423 -20q-81 0 -148.5 34.5t-117.5 103t-77 171t-27 238.5q0 145 34 247t89.5 165t118.5 92t121 29q70 0 130.5 -32.5t106 -93.5t71 -146.5t25.5 -191.5v-40t-2 -41h-438v69h183q0 156 -8.5 244.5t-25.5 125t-42 36.5t-46 -37.5t-34 -132.5t-13 -269q0 -130 7 -223
t23 -153t42 -88t64 -28q78 0 124 37.5t66 77.5l57 -43q-25 -56 -101 -103.5t-182 -47.5z" />
    <glyph glyph-name="f" unicode="f" horiz-adv-x="651" 
d="M37 0v69h111v909h-131v69h131v100q0 101 36 183.5t110 131.5t188 49q108 0 166.5 -76t58.5 -196q0 -70 -27.5 -107.5t-81.5 -37.5q-56 0 -80 35t-24 85q0 43 18.5 68t37 44t18.5 42q0 36 -19 54.5t-45 18.5q-30 0 -47 -25.5t-26 -69t-11 -98.5t-2 -114v-87h142v-69h-142
v-909h115v-69h-496z" />
    <glyph glyph-name="g" unicode="g" horiz-adv-x="881" 
d="M427 -498q-91 0 -178 27.5t-143.5 86t-56.5 151.5q0 65 26.5 109.5t63 71t68 38.5t42.5 13q-6 2 -30.5 11.5t-53 29.5t-49.5 53t-21 82q0 36 15 62t36.5 42.5t42.5 22.5q4 1 11.5 3t9.5 1q-6 5 -27 24t-45 57.5t-42.5 101t-18.5 151.5q0 119 35 199.5t90 129.5t115 70
t110 21q108 0 185.5 -50.5t119.5 -143t42 -215.5q0 -132 -35.5 -215t-90.5 -127.5t-115 -61t-108 -16.5q-62 0 -100 12t-47 16q-1 1 -1.5 1h-2.5q-13 0 -28 -13t-15 -37q0 -34 54.5 -61t194.5 -54q156 -29 245.5 -96.5t89.5 -207.5q0 -87 -39 -143.5t-100 -88t-127.5 -44.5
t-121.5 -13zM427 -432q66 0 106 51.5t40 116.5q0 64 -17.5 101.5t-68.5 67.5q-19 12 -45 25t-50 23t-39 14q-17 -8 -36.5 -33.5t-33 -66.5t-13.5 -97q0 -60 18.5 -105t53.5 -71t85 -26zM425 303q21 0 39 22t29 95.5t11 226.5q0 146 -11 219t-29.5 97.5t-38.5 24.5
t-37.5 -24.5t-29 -98.5t-11.5 -221q0 -153 12 -225.5t30 -94t36 -21.5zM558 980q12 74 68.5 118.5t122.5 44.5q55 0 78 -27.5t23 -68.5t-22 -63t-57 -22q-34 0 -48.5 15.5t-25 31t-33.5 15.5q-12 0 -23 -9t-11 -35h-72z" />
    <glyph glyph-name="h" unicode="h" horiz-adv-x="943" 
d="M32 0v69h101v1362h-101v69h371v-545q2 8 22 34t60.5 49t101.5 23q67 0 120 -32t84 -106t31 -201v-653h101v-69h-437v69h66v643q0 117 -14.5 162t-44.5 45q-21 0 -40.5 -19.5t-33.5 -58.5t-16 -97v-675h70v-69h-441z" />
    <glyph glyph-name="i" unicode="i" horiz-adv-x="521" 
d="M25 0v69h101v909h-101v69h371v-978h101v-69h-472zM261 1161q-70 0 -119.5 49.5t-49.5 120.5q0 69 49.5 118t119.5 49q69 0 118 -49t49 -118q0 -71 -49 -120.5t-118 -49.5z" />
    <glyph glyph-name="j" unicode="j" horiz-adv-x="558" 
d="M123 -498q-66 0 -116 36t-78.5 97t-28.5 136q0 72 32.5 108.5t80.5 36.5q45 0 69.5 -32.5t24.5 -90.5q0 -37 -11.5 -62t-23.5 -45.5t-12 -44.5q0 -19 4.5 -34.5t15 -24.5t26.5 -9q46 0 60 50t14 154v1201h-113v69h383v-1088q0 -139 -30.5 -229t-80 -139.5t-106.5 -69
t-110 -19.5zM310 1161q-70 0 -119.5 49.5t-49.5 120.5q0 69 49.5 118t119.5 49q69 0 118 -49t49 -118q0 -71 -49 -120.5t-118 -49.5z" />
    <glyph glyph-name="k" unicode="k" horiz-adv-x="908" 
d="M25 0v69h101v1362h-101v69h371v-812l228 290h-103v69h301v-69h-112l-109 -149l235 -760h86v-69h-453v69h79l-156 518l4 -7v-511h64v-69h-435z" />
    <glyph glyph-name="l" unicode="l" horiz-adv-x="537" 
d="M29 0v69h105v1362h-105v69h375v-1431h105v-69h-480z" />
    <glyph glyph-name="m" unicode="m" horiz-adv-x="1297" 
d="M27 0v69h94v909h-94v69h357v-114q2 17 23 47.5t62.5 55t104.5 24.5q60 0 100 -27t61.5 -62.5t26.5 -62.5q7 32 35 67t74.5 60t107.5 25q96 0 156 -73t60 -197v-721h91v-69h-425v69h64v632q0 80 -4 131t-16.5 75.5t-37.5 24.5q-26 0 -43 -24t-25.5 -65.5t-10.5 -96.5v-677
h65v-69h-393v69h61v632q0 119 -8.5 175t-47.5 56q-25 0 -41.5 -24.5t-24 -69.5t-8.5 -105v-664h62v-69h-426z" />
    <glyph glyph-name="n" unicode="n" horiz-adv-x="938" 
d="M32 0v69h104v909h-104v69h368v-105q3 14 23.5 42.5t60 52t99.5 23.5q66 0 119 -27.5t83.5 -100t30.5 -208.5v-655h102v-69h-439v69h67v653q0 107 -12.5 159t-44.5 52q-18 0 -32 -13t-25 -37.5t-17.5 -57.5t-8.5 -73v-683h65v-69h-439z" />
    <glyph glyph-name="o" unicode="o" horiz-adv-x="818" 
d="M407 -22q-60 0 -122.5 33t-115.5 101t-84.5 171.5t-31.5 243.5q0 152 33 255t86.5 164t115.5 87.5t119 26.5q58 0 120 -26.5t116 -87.5t87.5 -164t33.5 -255q0 -140 -32 -243.5t-85 -171.5t-116 -101t-124 -33zM407 57q42 0 63 112t21 358q0 245 -21 350.5t-63 105.5
q-39 0 -60 -105.5t-21 -350.5q0 -246 21 -358t60 -112z" />
    <glyph glyph-name="p" unicode="p" horiz-adv-x="872" 
d="M20 -500v69h101v1409h-101v69h371v-90q2 11 21 35.5t54 46t85 21.5q71 0 131.5 -56t97 -175.5t36.5 -310.5q0 -208 -40.5 -325t-106.5 -165t-142 -48q-43 0 -70.5 16t-42 35t-18.5 29v-491h103v-69h-479zM466 84q20 0 34 29.5t24.5 85t15.5 135.5t5 181q0 103 -5 183
t-15 135.5t-24.5 84t-33.5 28.5q-22 0 -35.5 -24t-21.5 -64.5t-14 -91.5v-494q1 -56 9 -98.5t23 -66t38 -23.5z" />
    <glyph glyph-name="q" unicode="q" horiz-adv-x="893" 
d="M401 -500v69h106v491q-3 -11 -17.5 -30t-41.5 -34.5t-70 -15.5q-76 0 -142.5 48t-107.5 165t-41 325q0 191 40 310.5t103.5 175.5t133.5 56q59 0 93 -21.5t50 -47.5t18 -41l20 97h236v-1478h100v-69h-480zM436 84q23 0 38.5 24t24 66.5t8.5 97.5v486q-3 56 -12 98
t-23.5 66t-35.5 24q-20 0 -34.5 -30t-24.5 -86t-15 -135.5t-5 -179.5q0 -101 5 -181t15 -135.5t25 -85t34 -29.5z" />
    <glyph glyph-name="r" unicode="r" horiz-adv-x="747" 
d="M26 0v69h104v909h-104v69h351l15 -92q5 17 25 42t52 44t73 19q60 0 99.5 -38t59.5 -102t20 -141q0 -71 -28.5 -108.5t-76.5 -37.5q-45 0 -72.5 32.5t-27.5 88.5q0 38 16 61.5t31 45t15 53.5q0 35 -12.5 51.5t-41.5 16.5q-28 0 -57 -28.5t-48 -86t-19 -141.5v-657h103v-69
h-477z" />
    <glyph glyph-name="s" unicode="s" horiz-adv-x="629" 
d="M318 -22q-58 0 -90 15t-51 30t-36 15q-15 0 -20.5 -9.5t-5.5 -28.5h-64v337h76q5 -51 21.5 -102.5t41.5 -94t57 -68t70 -25.5q31 0 51 11t29.5 32t9.5 49q0 41 -20 82t-55.5 85.5t-82.5 91.5q-84 87 -140.5 177t-56.5 217q0 96 38.5 155t98.5 86t124 27q46 0 74 -12.5
t45.5 -25t29.5 -12.5q10 0 16 8.5t6 28.5h65v-328h-75q-4 43 -15.5 90.5t-31 88.5t-47 66.5t-63.5 25.5q-46 0 -70.5 -34.5t-24.5 -80.5q0 -56 42.5 -109t112.5 -120q52 -50 98 -107t75 -127.5t29 -160.5q0 -99 -33.5 -159t-92.5 -87t-135 -27z" />
    <glyph glyph-name="t" unicode="t" horiz-adv-x="591" 
d="M400 -18q-66 0 -126 21.5t-97 80.5t-37 169v725h-142v69h142q51 4 92 48t68 111.5t37 144.5h73v-304h163v-69h-163v-847q0 -41 20 -56t38 -15q19 0 34.5 7t22.5 15l39 -54q-28 -21 -67.5 -33.5t-96.5 -12.5z" />
    <glyph glyph-name="u" unicode="u" horiz-adv-x="910" 
d="M367 -22q-71 0 -127.5 26.5t-89.5 97t-33 205.5v671h-97v68h367v-708q0 -100 5 -154t19 -74.5t38 -20.5t44 26.5t31.5 77t11.5 123.5v662h-84v68h354v-977h84v-69h-324l-15 99q-5 -23 -28 -51.5t-62.5 -49t-93.5 -20.5z" />
    <glyph glyph-name="v" unicode="v" horiz-adv-x="693" 
d="M303 -1l-216 979h-77v69h430v-69h-67l82 -444l85 444h-63v69h209v-69h-70l-201 -979h-112z" />
    <glyph glyph-name="w" unicode="w" horiz-adv-x="1155" 
d="M743 -1l-203 979h-68v69h420v-69h-70l75 -461l93 461h-57v69h211v-69h-73l-204 -979h-124zM291 -1l-201 979h-76v69h429v-69h-67l71 -461l93 461h-29v69h181v-69h-71l-205 -979h-125z" />
    <glyph glyph-name="x" unicode="x" horiz-adv-x="762" 
d="M12 0v69h88l187 465l115 23l162 421h-63v69h227v-69h-81l-186 -444l-110 -23l-166 -442h65v-69h-238zM335 0v69h70l-308 909h-79v69h348h85v-69h-68l310 -909h78v-69h-351h-85z" />
    <glyph glyph-name="y" unicode="y" horiz-adv-x="744" 
d="M228 -502q-50 0 -87 36.5t-56.5 98.5t-19.5 138q0 71 29 107.5t75 36.5t74 -33t28 -91q0 -45 -18 -73t-35.5 -51t-17.5 -57q0 -25 10.5 -40t29.5 -15q11 0 19 7.5t14.5 24t12.5 43.5l76 349l-273 999h-84v69h448v-69h-78l119 -451l103 451h-74v69h223v-69h-72l-235 -985
l-87 -379q-7 -35 -22 -61.5t-39.5 -40.5t-62.5 -14z" />
    <glyph glyph-name="z" unicode="z" horiz-adv-x="699" 
d="M75 0v69l272 909h-88q-51 0 -75 -25.5t-31 -83t-7 -150.5h-67v328h546v-69l-271 -909h88q51 0 74 25.5t30 84.5t7 158h68v-337h-546z" />
    <glyph glyph-name="braceleft" unicode="{" horiz-adv-x="419" 
d="M345 -320q-24 0 -58 10.5t-68 45t-56.5 106t-22.5 192.5q0 85 12 148t23.5 119t11.5 117q0 65 -14 102.5t-59 37.5v67q45 0 59 37t14 104q0 61 -11.5 116.5t-23.5 119t-12 146.5q0 121 22.5 192t56.5 106t68 45.5t58 10.5v-69q-12 0 -34 -8.5t-44.5 -36.5t-38 -86
t-15.5 -158q0 -81 12.5 -142.5t24.5 -117t12 -117.5q0 -96 -25.5 -131t-52.5 -43q27 -11 52.5 -46t25.5 -130q0 -62 -12 -118t-24.5 -118t-12.5 -143q0 -99 15.5 -157.5t38 -86.5t44.5 -36.5t34 -8.5v-69z" />
    <glyph glyph-name="bar" unicode="|" horiz-adv-x="205" 
d="M68 -329v1829h69v-1829h-69z" />
    <glyph glyph-name="braceright" unicode="}" horiz-adv-x="419" 
d="M75 -320v69q12 0 33.5 8.5t44.5 36.5t38.5 86.5t15.5 157.5q0 81 -12 143t-24.5 118t-12.5 118q0 95 25.5 130t51.5 46q-26 8 -51.5 43t-25.5 131q0 62 12.5 117.5t24.5 117t12 142.5q0 100 -15.5 158t-38.5 86t-44.5 36.5t-33.5 8.5v69q24 0 58 -10.5t67.5 -45.5
t56.5 -106t23 -192q0 -83 -12 -146.5t-23.5 -119t-11.5 -116.5q0 -67 13.5 -104t58.5 -37v-67q-45 0 -58.5 -37.5t-13.5 -102.5q0 -61 11.5 -117t23.5 -119t12 -148q0 -121 -23 -192.5t-56.5 -106t-67.5 -45t-58 -10.5z" />
    <glyph glyph-name="asciitilde" unicode="~" horiz-adv-x="730" 
d="M498 1270q-66 0 -110.5 22t-80.5 43.5t-78 21.5q-50 0 -84 -24t-41 -39l-54 41q9 16 30.5 40t58.5 44t93 20q66 0 110 -22t80 -44t77 -22q33 0 60.5 13t45.5 30t23 27l52 -44q-9 -18 -32 -43t-60.5 -44.5t-89.5 -19.5z" />
    <glyph glyph-name="uni00A0" unicode="&#xa0;" horiz-adv-x="371" 
 />
    <glyph glyph-name="exclamdown" unicode="&#xa1;" horiz-adv-x="390" 
d="M225 725q0 -100 15 -205.5t35 -213t35.5 -213.5t15.5 -207q0 -94 -34.5 -147t-100.5 -53q-65 0 -99.5 53t-34.5 147q0 101 15.5 207t35 213.5t35 213t15.5 205.5h67zM196 1141q59 0 101 -43.5t42 -101.5q0 -60 -42 -103t-101 -43q-60 0 -102 43t-42 103q0 58 42 101.5
t102 43.5z" />
    <glyph glyph-name="cent" unicode="&#xa2;" horiz-adv-x="705" 
d="M266 -116l152 1225h52l-151 -1225h-53zM414 -22q-71 0 -136 35.5t-116 105t-80.5 172.5t-29.5 237q0 148 38 250t96 164t122.5 90t116.5 28q77 0 134.5 -39.5t89 -104.5t31.5 -141q0 -69 -29.5 -105.5t-74.5 -36.5q-47 0 -77 31t-30 85q0 35 14.5 58t28.5 44.5t14 51.5
q0 45 -25.5 66t-58.5 21q-36 0 -58 -45t-33.5 -115.5t-15 -149t-3.5 -144.5q0 -81 5 -165.5t19 -155.5t40 -115t69 -44q59 0 92 37t46 78l54 -45q-23 -57 -83.5 -102.5t-159.5 -45.5z" />
    <glyph glyph-name="sterling" unicode="&#xa3;" horiz-adv-x="666" 
d="M6 718v69h515v-69h-515zM140 -24q-42 0 -72 27.5t-30 85.5q0 60 30.5 101.5t78 65.5t97.5 32q3 14 5 37t2 59q0 63 -29.5 143t-68.5 169t-68.5 179t-29.5 171q0 140 48 222.5t122 118t154 35.5q110 0 174.5 -75t64.5 -189q0 -70 -28.5 -110.5t-76.5 -40.5q-46 0 -77 38
t-31 96q0 38 17.5 66.5t35.5 51t18 41.5q0 27 -19.5 37.5t-51.5 10.5q-43 0 -67.5 -37t-34.5 -95t-10 -122q0 -81 19.5 -177.5t38.5 -199t19 -204.5q0 -52 -7 -100.5t-15 -82.5t-12 -46q32 -7 56.5 -26.5t45.5 -42t40 -38.5t39 -16q22 0 36 14.5t16 33.5h57q0 -75 -17 -125
t-50 -74.5t-79 -24.5q-35 0 -64.5 23.5t-52 55t-38.5 56t-25 25.5q-23 -86 -62.5 -127.5t-97.5 -41.5zM143 44q25 0 47.5 29t32.5 84q-39 0 -73 -27.5t-34 -60.5q0 -15 8 -20t19 -5z" />
    <glyph glyph-name="currency" unicode="&#xa4;" horiz-adv-x="872" 
d="M436 51q-49 0 -105 23.5t-105 77.5t-80 146t-31 229q0 139 31.5 228t81.5 138t105 68t103 19q47 0 103 -19t105.5 -68t81 -138t31.5 -228q0 -137 -31 -229t-80 -146t-105 -77.5t-105 -23.5zM436 113q24 0 43 19t32.5 64.5t21 126t7.5 204.5q0 121 -7.5 197.5t-21 118.5
t-32.5 58t-43 16t-44 -16t-34 -58t-21 -118.5t-7 -197.5q0 -124 7 -204.5t21 -126t34 -64.5t44 -19zM765 996l53 -52l-163 -158l-48 48zM774 45l-158 162l47 48l163 -158zM107 996l157 -162l-48 -48l-162 158zM98 45l-54 52l163 158l48 -48z" />
    <glyph glyph-name="yen" unicode="&#xa5;" horiz-adv-x="810" 
d="M166 554v69h531v-69h-531zM166 325v69h531v-69h-531zM193 0v69h107v518l-190 744h-97v69h475v-69h-76l154 -670h-62l172 670h-84v69h251v-69h-93l-180 -697v-565h106v-69h-483z" />
    <glyph glyph-name="brokenbar" unicode="&#xa6;" horiz-adv-x="205" 
d="M68 871v629h69v-629h-69zM68 -329v620h69v-620h-69z" />
    <glyph glyph-name="section" unicode="&#xa7;" horiz-adv-x="619" 
d="M284 -378q-56 0 -109.5 24t-88.5 70t-35 114q0 67 33.5 106.5t84.5 39.5q45 0 71 -24.5t26 -69.5q0 -38 -17 -58.5t-34.5 -35.5t-17.5 -38q0 -28 26 -43.5t53 -15.5q36 0 61 15t38 53t13 109q0 62 -35.5 112.5t-87.5 102t-104 114t-87.5 148t-35.5 205.5q0 66 22 115
t53 83.5t58 53.5t36 23q-27 31 -60.5 79t-57.5 110.5t-24 137.5q0 91 35.5 150.5t89.5 88.5t107 29q85 0 147 -53.5t62 -153.5q0 -65 -25 -106t-76 -41q-45 0 -71 24.5t-26 69.5q0 34 17 54.5t34 37.5t17 39q0 19 -8.5 32.5t-25.5 20.5t-43 7q-42 0 -67.5 -28t-25.5 -109
q0 -84 37 -142.5t91.5 -106.5t109 -102.5t91.5 -130.5t37 -191q0 -93 -34.5 -151.5t-76 -89t-61.5 -40.5q28 -30 62 -77.5t58.5 -112t24.5 -147.5q0 -104 -42.5 -170.5t-103 -98.5t-115.5 -32zM349 317q22 12 41.5 50.5t19.5 84.5q0 63 -24 122t-59.5 110t-73.5 90
q-25 -15 -47.5 -55t-22.5 -86q0 -51 19.5 -100.5t48 -92t56 -74.5t42.5 -49z" />
    <glyph glyph-name="dieresis" unicode="&#xa8;" horiz-adv-x="791" 
d="M525 1243q-38 0 -65.5 28t-27.5 64q0 39 27.5 67.5t65.5 28.5q36 0 64 -28.5t28 -67.5q0 -36 -28 -64t-64 -28zM274 1243q-37 0 -64 28t-27 64q0 39 27 67.5t64 28.5q38 0 65.5 -28.5t27.5 -67.5q0 -36 -27.5 -64t-65.5 -28z" />
    <glyph glyph-name="copyright" unicode="&#xa9;" horiz-adv-x="1186" 
d="M595 -22q-106 0 -199 54.5t-163.5 152.5t-110.5 228.5t-40 282.5t40 282t110.5 228t163.5 152.5t199 54.5q105 0 197 -54.5t162.5 -152.5t110 -228t39.5 -282t-39.5 -282.5t-110 -228.5t-162.5 -152.5t-197 -54.5zM593 235q-72 0 -127.5 58t-87 163t-31.5 245
q0 120 31.5 227t91.5 174t143 67q73 0 116 -54t43 -129q0 -49 -18.5 -78.5t-53.5 -29.5q-37 0 -53.5 21.5t-16.5 52.5q0 29 13 43t26 24t13 26q0 22 -13.5 39.5t-46.5 17.5q-34 0 -54 -37t-30 -97t-14 -129.5t-4 -135.5q0 -60 3.5 -128.5t13 -129t28 -99.5t48.5 -39
q37 0 65 34t43 66l48 -57q-26 -55 -70.5 -85t-105.5 -30zM595 49q93 0 172 50t138 138.5t92 206t33 252.5q0 134 -33 251.5t-92 206t-138 138.5t-172 50t-173 -50t-139 -138.5t-92 -206t-33 -251.5q0 -135 33 -252.5t92 -206t139 -138.5t173 -50z" />
    <glyph glyph-name="ordfeminine" unicode="&#xaa;" horiz-adv-x="523" 
d="M204 1138q-54 0 -82 24.5t-28 66.5q0 43 30.5 66t69.5 37.5t69 27t30 35.5q0 36 -5 48t-31 12q-18 0 -25.5 -6t-7.5 -13t0.5 -17t0.5 -21q0 -20 -16 -34t-46 -14q-24 0 -38.5 17t-14.5 40q0 44 45.5 73.5t109.5 29.5q63 0 111 -24.5t48 -101.5v-156q0 -31 22 -31
q15 0 20 9l20 -39q-7 -10 -30.5 -18.5t-61.5 -8.5q-41 0 -63.5 10t-33.5 37q-1 -9 -21 -29t-72 -20zM263 1209q11 0 20.5 10t9.5 23v78q-1 -4 -10.5 -9.5t-20.5 -14.5t-19 -21.5t-8 -30.5q0 -20 7 -27.5t21 -7.5z" />
    <glyph glyph-name="guillemotleft" unicode="&#xab;" horiz-adv-x="741" 
d="M538 304l-223 232l223 233h76l-223 -233l226 -232h-79zM348 304l-223 232l223 233h76l-223 -233l226 -232h-79z" />
    <glyph glyph-name="logicalnot" unicode="&#xac;" horiz-adv-x="700" 
d="M505 330v232l31 -32h-447v65h481v-265h-65z" />
    <glyph glyph-name="uni00AD" unicode="&#xad;" horiz-adv-x="577" 
d="M102 528v69h373v-69h-373z" />
    <glyph glyph-name="registered" unicode="&#xae;" horiz-adv-x="940" 
d="M481 387q-115 0 -200.5 67t-133 183.5t-47.5 263.5t47.5 262.5t133 182.5t200.5 67q116 0 201 -67t131.5 -183t46.5 -262q0 -147 -46.5 -263.5t-131.5 -183.5t-201 -67zM481 439q103 0 176 61t111 166t38 235q0 129 -38 233.5t-111 165.5t-176 61t-176 -61t-111 -165.5
t-38 -233.5q0 -130 38 -235t111 -166t176 -61zM615 573q-46 0 -75.5 21t-29.5 76q0 46 2.5 90t2.5 69q0 24 -10.5 42.5t-34.5 18.5h-18v-258h43v-51h-207v51h53v552h-53v50h209q50 0 98.5 -36t48.5 -115q0 -66 -27.5 -112.5t-90.5 -54.5q61 -1 85.5 -28.5t24.5 -74.5
q0 -48 -3.5 -97t-3.5 -71q0 -12 8.5 -18t12.5 -6q15 0 15 15h38q-3 -26 -22 -44.5t-66 -18.5zM452 941h17q15 0 27 18t19 49.5t7 72.5q0 40 -4 62t-14 31t-26 9h-26v-242z" />
    <glyph glyph-name="macron" unicode="&#xaf;" horiz-adv-x="925" 
d="M230 1356v69h603v-69h-603z" />
    <glyph glyph-name="degree" unicode="&#xb0;" horiz-adv-x="613" 
d="M306 1160q-43 0 -86 22.5t-70.5 65.5t-27.5 105q0 90 56.5 138.5t127.5 48.5q70 0 127 -45t57 -142t-57.5 -145t-126.5 -48zM306 1224q25 0 42 27t17 100q0 71 -17 99t-42 28t-42.5 -29t-17.5 -100q0 -73 17.5 -99t42.5 -26z" />
    <glyph glyph-name="plusminus" unicode="&#xb1;" horiz-adv-x="826" 
d="M380 369v624h69v-624h-69zM102 646v69h622v-69h-622zM112 246v69h605v-69h-605z" />
    <glyph glyph-name="uni00B2" unicode="&#xb2;" horiz-adv-x="743" 
d="M485 697q-56 0 -103.5 22.5t-92.5 44t-96 21.5q-40 0 -60 -28t-25 -54h-55q0 120 35.5 196.5t88 126.5t105 87.5t88 78t35.5 98.5q0 26 -11 55.5t-34 51t-59 21.5q-23 0 -44 -3.5t-33.5 -10t-12.5 -17.5q0 -9 16.5 -20.5t32.5 -30t16 -50.5q0 -45 -28.5 -68t-71.5 -23
q-44 0 -73 29.5t-29 84.5q0 72 75 115t192 43q52 0 107 -7t102 -28t76 -62t29 -109q0 -74 -33.5 -116.5t-88 -67t-118 -41t-124 -35.5t-105.5 -51t-62 -90q15 31 47.5 51t74 29.5t84.5 9.5q57 0 96.5 -16t69.5 -32t54 -16q34 0 45 14.5t11 30.5h55v-38q0 -36 -15 -81.5
t-53 -80t-108 -34.5z" />
    <glyph glyph-name="uni00B3" unicode="&#xb3;" horiz-adv-x="743" 
d="M334 690q-70 0 -127 20.5t-91 56t-34 82.5q0 55 27 90.5t77 35.5q49 0 72 -20t23 -58q0 -32 -18 -48t-35.5 -30.5t-17.5 -42.5q0 -15 26 -21.5t60 -6.5q25 0 45 11.5t31 45t11 96.5q0 51 -9.5 83.5t-26 51.5t-38 26t-44.5 7v55q25 0 48 4t41 18.5t28.5 46.5t10.5 89
q0 49 -11.5 77.5t-33 40t-51.5 11.5q-35 0 -60 -7t-25 -23q0 -26 17.5 -40.5t35.5 -30.5t18 -48q0 -38 -23.5 -59t-71.5 -21q-50 0 -77 36t-27 91q0 48 34 83t91.5 55t127.5 20q78 0 149.5 -16.5t117 -59t45.5 -118.5q0 -58 -31.5 -92.5t-78 -52.5t-92.5 -24.5t-74 -8.5
q31 -1 79 -9t97 -28t81.5 -59t32.5 -104q0 -95 -91 -150t-238 -55z" />
    <glyph glyph-name="acute" unicode="&#xb4;" horiz-adv-x="581" 
d="M203 1256l-51 55l188 147q35 31 66 23t44 -32q14 -23 3.5 -49.5t-49.5 -41.5z" />
    <glyph glyph-name="uni00B5" unicode="&#xb5;" horiz-adv-x="910" 
d="M397 -22q-69 0 -134 26.5t-105.5 97t-40.5 205.5v730h270v-699q0 -100 6.5 -154t20.5 -73.5t35 -19.5q25 0 44.5 26t31 76t11.5 123v730h270v-977h84v-69h-324l-15 99q-5 -23 -22.5 -51.5t-50 -49t-81.5 -20.5zM117 961h270v-1454h-270v1454z" />
    <glyph glyph-name="paragraph" unicode="&#xb6;" horiz-adv-x="865" 
d="M341 -260q-56 0 -98 23t-66 62t-24 87t24.5 77t65.5 29t65.5 -21.5t24.5 -62.5q0 -28 -9.5 -43.5t-19 -27t-9.5 -28.5t12.5 -25t32.5 -8q37 0 58.5 25.5t30.5 74.5t9 118v678q-8 -38 -50 -62.5t-78 -24.5h-2q-121 0 -196.5 112t-75.5 293q0 117 42 203t111 133.5
t149 47.5h507v-69h-92v-1206q0 -107 -34.5 -178t-88 -112.5t-111 -62t-106 -26.5t-72.5 -6zM457 -191q56 25 86 78.5t30 167.5v1276h-66v-1324q0 -68 -7.5 -115.5t-42.5 -82.5z" />
    <glyph glyph-name="periodcentered" unicode="&#xb7;" horiz-adv-x="453" 
d="M240 664q-59 0 -101 43t-42 102q0 60 42 103t101 43q60 0 102 -43t42 -103q0 -59 -42 -102t-102 -43z" />
    <glyph glyph-name="cedilla" unicode="&#xb8;" horiz-adv-x="605" 
d="M288 -283q-48 0 -91 13t-58 21l26 65q11 -7 46.5 -19t67.5 -12q31 0 46 11.5t15 33.5q0 24 -15 30.5t-29 6.5t-30 -4.5t-25 -12.5l-64 4l55 135h69l-39 -89q6 9 28 18t58 9q58 0 84 -27t26 -69q0 -51 -44.5 -82.5t-125.5 -31.5z" />
    <glyph glyph-name="uni00B9" unicode="&#xb9;" horiz-adv-x="557" 
d="M79 704v52h70v489q-14 -1 -34.5 -3t-36.5 -2v54q38 2 82 19.5t85 46.5t70.5 64t38.5 70h54v-738h71v-52h-400z" />
    <glyph glyph-name="ordmasculine" unicode="&#xba;" horiz-adv-x="516" 
d="M258 1140q-81 0 -138.5 54.5t-57.5 136.5q0 80 57.5 134.5t138.5 54.5q82 0 139 -54.5t57 -134.5q0 -82 -57 -136.5t-139 -54.5zM258 1206q32 0 47.5 40t15.5 85q0 44 -15.5 84t-47.5 40q-33 0 -47.5 -40t-14.5 -84q0 -45 14.5 -85t47.5 -40z" />
    <glyph glyph-name="guillemotright" unicode="&#xbb;" horiz-adv-x="748" 
d="M323 304l225 232l-222 233h76l223 -233l-223 -232h-79zM125 304l225 232l-222 233h76l223 -233l-223 -232h-79z" />
    <glyph glyph-name="onequarter" unicode="&#xbc;" horiz-adv-x="1474" 
d="M79 649v52h70v489q-14 -1 -34.5 -3t-36.5 -2v54q38 2 82 19.5t85 46.5t70.5 64t38.5 70h54v-738h71v-52h-400zM196 0l854 1400h90l-852 -1400h-92zM935 0v53h91v111h-202v52l216 418q60 4 117 44t76 92h59v-554h3q39 0 52.5 38.5t13.5 96.5h56v-187h-125v-111h88v-53
h-445zM887 208l-12 8h153v271l14 11z" />
    <glyph glyph-name="onehalf" unicode="&#xbd;" horiz-adv-x="1522" 
d="M79 649v52h70v489q-14 -1 -34.5 -3t-36.5 -2v54q38 2 82 19.5t85 46.5t70.5 64t38.5 70h54v-738h71v-52h-400zM196 0l854 1400h90l-852 -1400h-92zM1264 -6q-56 0 -103.5 22t-92.5 44t-96 22q-40 0 -60 -28t-25 -54h-55q0 119 35.5 196t88 127t105 87.5t88 78t35.5 98.5
q0 26 -11 55.5t-34 51t-59 21.5q-23 0 -44 -3.5t-33.5 -10t-12.5 -17.5q0 -9 16.5 -20.5t32.5 -30t16 -50.5q0 -45 -28.5 -68t-71.5 -23q-44 0 -73 29.5t-29 84.5q0 72 75 115t192 43q52 0 107 -7t102 -28t76 -62t29 -109q0 -74 -33.5 -116.5t-88 -67t-118 -41t-124 -35.5
t-105.5 -51t-62 -90q15 31 47.5 51t74 29.5t84.5 9.5q57 0 96.5 -16t69.5 -32t54 -16q34 0 45 14.5t11 30.5h55v-38q0 -36 -15 -81.5t-53 -80t-108 -34.5z" />
    <glyph glyph-name="threequarters" unicode="&#xbe;" horiz-adv-x="1660" 
d="M334 635q-70 0 -127 20.5t-91 56t-34 82.5q0 55 27 90.5t77 35.5q49 0 72 -20t23 -58q0 -32 -18 -48t-35.5 -30.5t-17.5 -42.5q0 -15 26 -21.5t60 -6.5q25 0 45 11.5t31 45t11 96.5q0 51 -9.5 83.5t-26 51.5t-38 26t-44.5 7v55q25 0 48 4t41 18.5t28.5 46.5t10.5 89
q0 49 -11.5 77.5t-33 40t-51.5 11.5q-35 0 -60 -7t-25 -23q0 -26 17.5 -40.5t35.5 -30.5t18 -48q0 -38 -23.5 -59t-71.5 -21q-50 0 -77 36t-27 91q0 48 34 83t91.5 55t127.5 20q78 0 149.5 -16.5t117 -59t45.5 -118.5q0 -58 -31.5 -92.5t-78 -52.5t-92.5 -24.5t-74 -8.5
q31 -1 79 -9t97 -28t81.5 -59t32.5 -104q0 -95 -91 -150t-238 -55zM382 0l854 1400h90l-852 -1400h-92zM1121 0v53h91v111h-202v52l216 418q60 4 117 44t76 92h59v-554h3q39 0 52.5 38.5t13.5 96.5h56v-187h-125v-111h88v-53h-445zM1073 208l-12 8h153v271l14 11z" />
    <glyph glyph-name="questiondown" unicode="&#xbf;" horiz-adv-x="703" 
d="M487 776q0 -118 -15.5 -208t-38 -162t-46 -135.5t-39 -128t-15.5 -140.5q0 -129 41 -193t107 -64q46 0 67.5 23t21.5 56q0 29 -18 52t-35.5 48.5t-17.5 63.5q0 59 28 86t74 27q45 0 78 -40.5t33 -114.5q0 -76 -36 -137.5t-100.5 -96.5t-147.5 -35q-52 0 -111 14t-111 49
t-85 96.5t-33 157.5q0 92 33.5 162.5t82.5 133t98 130t82.5 153t33.5 203.5h69zM451 1137q59 0 102 -43t43 -102q0 -60 -43 -103t-102 -43q-58 0 -101 43t-43 103q0 59 43 102t101 43z" />
    <glyph glyph-name="Agrave" unicode="&#xc0;" horiz-adv-x="720" 
d="M-5 0v69h83l195 1332h134l230 -1332h92v-69h-459v69h76l-102 725h5l-99 -725h68v-69h-223zM147 250v64h208v-64h-208zM449 1450l-211 98q-30 14 -44.5 29.5t-14.5 43.5q0 24 18 39.5t45 15.5q21 0 35.5 -8t29.5 -20l180 -153z" />
    <glyph glyph-name="Aacute" unicode="&#xc1;" horiz-adv-x="720" 
d="M-5 0v69h83l195 1332h134l230 -1332h92v-69h-459v69h76l-102 725h5l-99 -725h68v-69h-223zM147 250v64h208v-64h-208zM235 1444l-51 54l188 148q14 11 28.5 17.5t27.5 6.5q18 0 32.5 -9.5t21.5 -23.5q8 -13 8 -29q0 -18 -13 -35t-41 -28z" />
    <glyph glyph-name="Acircumflex" unicode="&#xc2;" horiz-adv-x="720" 
d="M-5 0v69h83l195 1332h134l230 -1332h92v-69h-459v69h76l-102 725h5l-99 -725h68v-69h-223zM147 250v64h208v-64h-208zM161 1463l148 206h69l146 -206h-82l-100 133l-99 -133h-82z" />
    <glyph glyph-name="Atilde" unicode="&#xc3;" horiz-adv-x="720" 
d="M-5 0v69h83l195 1332h134l230 -1332h92v-69h-459v69h76l-102 725h5l-99 -725h68v-69h-223zM147 250v64h208v-64h-208zM426 1492q-40 0 -65 13.5t-45 27t-44 13.5q-35 0 -53 -15t-23 -23l-68 26q5 17 23 42t45.5 44t61.5 19q44 0 68.5 -13t45 -26t50.5 -13q35 0 49.5 13
t18.5 24l67 -28q-3 -13 -20 -37.5t-45 -45.5t-66 -21z" />
    <glyph glyph-name="Adieresis" unicode="&#xc4;" horiz-adv-x="720" 
d="M-5 0v69h83l195 1332h134l230 -1332h92v-69h-459v69h76l-102 725h5l-99 -725h68v-69h-223zM147 250v64h208v-64h-208zM467 1502q-38 0 -65.5 28t-27.5 64q0 39 27.5 67.5t65.5 28.5q36 0 64 -28.5t28 -67.5q0 -36 -28 -64t-64 -28zM216 1502q-37 0 -64 28t-27 64
q0 39 27 67.5t64 28.5q38 0 65.5 -28.5t27.5 -67.5q0 -36 -27.5 -64t-65.5 -28z" />
    <glyph glyph-name="Aring" unicode="&#xc5;" horiz-adv-x="720" 
d="M-5 0v69h83l195 1332h134l230 -1332h92v-69h-459v69h76l-102 725h5l-99 -725h68v-69h-223zM147 250v64h208v-64h-208zM343 1468q-44 0 -77.5 32.5t-33.5 85.5q0 55 33.5 86.5t77.5 31.5q42 0 75 -31.5t33 -86.5q0 -53 -33 -85.5t-75 -32.5zM343 1524q23 0 33.5 19
t10.5 45q0 22 -10.5 41t-33.5 19q-25 0 -35.5 -19t-10.5 -41q0 -26 10.5 -45t35.5 -19z" />
    <glyph glyph-name="AE" unicode="&#xc6;" horiz-adv-x="1128" 
d="M400 0v69h73v1331h562v-349h-68q0 80 -11.5 143.5t-48 100t-112.5 36.5h-54v-576h223v96h68v-258h-68v93h-223v-617h53q76 0 113 37.5t48.5 101.5t11.5 144h68v-352h-635zM211 312l4 69h282l-4 -69h-282zM17 0v69h58l342 1331h73l-336 -1331h75v-69h-212z" />
    <glyph glyph-name="Ccedilla" unicode="&#xc7;" horiz-adv-x="746" 
d="M440 -20q-168 0 -271.5 187t-103.5 531q0 136 23 265.5t71 233t120.5 164.5t170.5 61q70 0 123 -44t83 -109t30 -127q0 -61 -24.5 -102t-78.5 -41q-59 0 -83.5 33.5t-24.5 88.5q0 40 17.5 66t35 49t17.5 55t-13.5 45t-33.5 13q-35 0 -60 -44t-41.5 -116t-26 -158.5
t-13.5 -173t-4 -157.5q0 -102 5 -198t15 -178t25.5 -143.5t36.5 -96t48 -34.5q36 0 61 20.5t42 57t28 83.5l57 -35q-20 -59 -50.5 -103t-74 -68.5t-106.5 -24.5zM459 -326q-48 0 -93.5 11.5t-60.5 19.5l27 65q11 -6 44.5 -17.5t65.5 -11.5q31 0 52.5 17t21.5 47
q0 33 -14.5 43.5t-34.5 10.5q-16 0 -29.5 -6t-25.5 -19l-64 4l60 162h69l-43 -110q6 7 31.5 17.5t61.5 10.5q41 0 76 -25.5t35 -87.5q0 -42 -22.5 -71.5t-63 -44.5t-93.5 -15z" />
    <glyph glyph-name="Egrave" unicode="&#xc8;" horiz-adv-x="759" 
d="M42 0v69h95v1262h-95v69h643v-349h-68q0 81 -19 144.5t-56 99.5t-94 36h-39v-596h158v96h68v-258h-68v93h-158v-597h39q57 0 94 37t56 101t19 145h68v-352h-643zM500 1450l-211 98q-30 14 -44.5 29.5t-14.5 43.5q0 24 18 39.5t45 15.5q21 0 35.5 -8t29.5 -20l180 -153z
" />
    <glyph glyph-name="Eacute" unicode="&#xc9;" horiz-adv-x="759" 
d="M42 0v69h95v1262h-95v69h643v-349h-68q0 81 -19 144.5t-56 99.5t-94 36h-39v-596h158v96h68v-258h-68v93h-158v-597h39q57 0 94 37t56 101t19 145h68v-352h-643zM286 1444l-51 54l188 148q14 11 28.5 17.5t27.5 6.5q18 0 32.5 -9.5t21.5 -23.5q8 -13 8 -29q0 -18 -13 -35
t-41 -28z" />
    <glyph glyph-name="Ecircumflex" unicode="&#xca;" horiz-adv-x="759" 
d="M42 0v69h95v1262h-95v69h643v-349h-68q0 81 -19 144.5t-56 99.5t-94 36h-39v-596h158v96h68v-258h-68v93h-158v-597h39q57 0 94 37t56 101t19 145h68v-352h-643zM211 1463l148 206h69l146 -206h-82l-100 133l-99 -133h-82z" />
    <glyph glyph-name="Edieresis" unicode="&#xcb;" horiz-adv-x="759" 
d="M42 0v69h95v1262h-95v69h643v-349h-68q0 81 -19 144.5t-56 99.5t-94 36h-39v-596h158v96h68v-258h-68v93h-158v-597h39q57 0 94 37t56 101t19 145h68v-352h-643zM518 1502q-38 0 -65.5 28t-27.5 64q0 39 27.5 67.5t65.5 28.5q36 0 64 -28.5t28 -67.5q0 -36 -28 -64
t-64 -28zM267 1502q-37 0 -64 28t-27 64q0 39 27 67.5t64 28.5q38 0 65.5 -28.5t27.5 -67.5q0 -36 -27.5 -64t-65.5 -28z" />
    <glyph glyph-name="Igrave" unicode="&#xcc;" horiz-adv-x="582" 
d="M59 0v69h98v1262h-98v69h465v-69h-99v-1262h99v-69h-465zM400 1450l-211 98q-30 14 -44.5 29.5t-14.5 43.5q0 24 18 39.5t45 15.5q21 0 35.5 -8t29.5 -20l180 -153z" />
    <glyph glyph-name="Iacute" unicode="&#xcd;" horiz-adv-x="582" 
d="M59 0v69h98v1262h-98v69h465v-69h-99v-1262h99v-69h-465zM186 1444l-51 54l188 148q14 11 28.5 17.5t27.5 6.5q18 0 32.5 -9.5t21.5 -23.5q8 -13 8 -29q0 -18 -13 -35t-41 -28z" />
    <glyph glyph-name="Icircumflex" unicode="&#xce;" horiz-adv-x="582" 
d="M59 0v69h98v1262h-98v69h465v-69h-99v-1262h99v-69h-465zM111 1463l148 206h69l146 -206h-82l-100 133l-99 -133h-82z" />
    <glyph glyph-name="Idieresis" unicode="&#xcf;" horiz-adv-x="582" 
d="M59 0v69h98v1262h-98v69h465v-69h-99v-1262h99v-69h-465zM418 1502q-38 0 -65.5 28t-27.5 64q0 39 27.5 67.5t65.5 28.5q36 0 64 -28.5t28 -67.5q0 -36 -28 -64t-64 -28zM167 1502q-37 0 -64 28t-27 64q0 39 27 67.5t64 28.5q38 0 65.5 -28.5t27.5 -67.5q0 -36 -27.5 -64
t-65.5 -28z" />
    <glyph glyph-name="Eth" unicode="&#xd0;" horiz-adv-x="927" 
d="M48 683v69h470v-69h-470zM42 0v69h95v1262h-95v69h412q100 0 186 -78t138.5 -231t52.5 -380q0 -229 -53 -387.5t-139 -241t-185 -82.5h-412zM409 69h30q33 0 61.5 73t46.5 216t18 353q0 193 -17 332t-44.5 213.5t-59.5 74.5h-35v-1262z" />
    <glyph glyph-name="Ntilde" unicode="&#xd1;" horiz-adv-x="843" 
d="M29 0v69h93v1262h-93v69h385l255 -784h-14v715h-88v69h247v-69h-89v-1331h-147l-404 1246h18v-1177h90v-69h-253zM512 1492q-40 0 -65 13.5t-45 27t-44 13.5q-35 0 -53 -15t-23 -23l-68 26q5 17 23 42t45.5 44t61.5 19q44 0 68.5 -13t45 -26t50.5 -13q35 0 49.5 13
t18.5 24l67 -28q-3 -13 -20 -37.5t-45 -45.5t-66 -21z" />
    <glyph glyph-name="Ograve" unicode="&#xd2;" horiz-adv-x="869" 
d="M437 -22q-108 0 -192 84t-132 244.5t-48 391.5q0 232 48 393.5t132 246t192 84.5q109 0 194 -84.5t134.5 -246t49.5 -393.5q0 -231 -49.5 -391.5t-134.5 -244.5t-194 -84zM437 47q26 0 43.5 41.5t28 124.5t15 204.5t4.5 280.5t-4.5 281t-15 205.5t-28 126t-43.5 42.5
t-42.5 -42.5t-26 -126t-13.5 -205.5t-4 -281t4 -280.5t13.5 -204.5t26 -124.5t42.5 -41.5zM545 1450l-211 98q-30 14 -44.5 29.5t-14.5 43.5q0 24 18 39.5t45 15.5q21 0 35.5 -8t29.5 -20l180 -153z" />
    <glyph glyph-name="Oacute" unicode="&#xd3;" horiz-adv-x="869" 
d="M437 -22q-108 0 -192 84t-132 244.5t-48 391.5q0 232 48 393.5t132 246t192 84.5q109 0 194 -84.5t134.5 -246t49.5 -393.5q0 -231 -49.5 -391.5t-134.5 -244.5t-194 -84zM437 47q26 0 43.5 41.5t28 124.5t15 204.5t4.5 280.5t-4.5 281t-15 205.5t-28 126t-43.5 42.5
t-42.5 -42.5t-26 -126t-13.5 -205.5t-4 -281t4 -280.5t13.5 -204.5t26 -124.5t42.5 -41.5zM330 1444l-51 54l188 148q14 11 28.5 17.5t27.5 6.5q18 0 32.5 -9.5t21.5 -23.5q8 -13 8 -29q0 -18 -13 -35t-41 -28z" />
    <glyph glyph-name="Ocircumflex" unicode="&#xd4;" horiz-adv-x="869" 
d="M437 -22q-108 0 -192 84t-132 244.5t-48 391.5q0 232 48 393.5t132 246t192 84.5q109 0 194 -84.5t134.5 -246t49.5 -393.5q0 -231 -49.5 -391.5t-134.5 -244.5t-194 -84zM437 47q26 0 43.5 41.5t28 124.5t15 204.5t4.5 280.5t-4.5 281t-15 205.5t-28 126t-43.5 42.5
t-42.5 -42.5t-26 -126t-13.5 -205.5t-4 -281t4 -280.5t13.5 -204.5t26 -124.5t42.5 -41.5zM256 1463l148 206h69l146 -206h-82l-100 133l-99 -133h-82z" />
    <glyph glyph-name="Otilde" unicode="&#xd5;" horiz-adv-x="869" 
d="M437 -22q-108 0 -192 84t-132 244.5t-48 391.5q0 232 48 393.5t132 246t192 84.5q109 0 194 -84.5t134.5 -246t49.5 -393.5q0 -231 -49.5 -391.5t-134.5 -244.5t-194 -84zM437 47q26 0 43.5 41.5t28 124.5t15 204.5t4.5 280.5t-4.5 281t-15 205.5t-28 126t-43.5 42.5
t-42.5 -42.5t-26 -126t-13.5 -205.5t-4 -281t4 -280.5t13.5 -204.5t26 -124.5t42.5 -41.5zM521 1492q-40 0 -65 13.5t-45 27t-44 13.5q-35 0 -53 -15t-23 -23l-68 26q5 17 23 42t45.5 44t61.5 19q44 0 68.5 -13t45 -26t50.5 -13q35 0 49.5 13t18.5 24l67 -28
q-3 -13 -20 -37.5t-45 -45.5t-66 -21z" />
    <glyph glyph-name="Odieresis" unicode="&#xd6;" horiz-adv-x="869" 
d="M437 -22q-108 0 -192 84t-132 244.5t-48 391.5q0 232 48 393.5t132 246t192 84.5q109 0 194 -84.5t134.5 -246t49.5 -393.5q0 -231 -49.5 -391.5t-134.5 -244.5t-194 -84zM437 47q26 0 43.5 41.5t28 124.5t15 204.5t4.5 280.5t-4.5 281t-15 205.5t-28 126t-43.5 42.5
t-42.5 -42.5t-26 -126t-13.5 -205.5t-4 -281t4 -280.5t13.5 -204.5t26 -124.5t42.5 -41.5zM562 1502q-38 0 -65.5 28t-27.5 64q0 39 27.5 67.5t65.5 28.5q36 0 64 -28.5t28 -67.5q0 -36 -28 -64t-64 -28zM311 1502q-37 0 -64 28t-27 64q0 39 27 67.5t64 28.5
q38 0 65.5 -28.5t27.5 -67.5q0 -36 -27.5 -64t-65.5 -28z" />
    <glyph glyph-name="multiply" unicode="&#xd7;" horiz-adv-x="745" 
d="M604 296l-493 492l44 43l493 -492zM155 296l-41 40l491 491l41 -40z" />
    <glyph glyph-name="Oslash" unicode="&#xd8;" horiz-adv-x="875" 
d="M167 -104l499 1608h70l-496 -1608h-73zM437 -22q-108 0 -192 84t-132 244.5t-48 391.5q0 232 48 393.5t132 246t192 84.5q109 0 194 -84.5t134.5 -246t49.5 -393.5q0 -231 -49.5 -391.5t-134.5 -244.5t-194 -84zM437 47q26 0 43.5 41.5t28 124.5t15 204.5t4.5 280.5
t-4.5 281t-15 205.5t-28 126t-43.5 42.5t-42.5 -42.5t-26 -126t-13.5 -205.5t-4 -281t4 -280.5t13.5 -204.5t26 -124.5t42.5 -41.5z" />
    <glyph glyph-name="Ugrave" unicode="&#xd9;" horiz-adv-x="837" 
d="M446 -24q-50 0 -105 14t-102.5 53t-77 112t-29.5 191v985h-99v69h480v-69h-107v-997q0 -139 26.5 -205t86.5 -66q22 0 43 10.5t39 36.5t28 72.5t10 118.5v1030h-88v69h253v-69h-94v-1032q0 -126 -32.5 -196.5t-91.5 -98.5t-140 -28zM546 1450l-211 98q-30 14 -44.5 29.5
t-14.5 43.5q0 24 18 39.5t45 15.5q21 0 35.5 -8t29.5 -20l180 -153z" />
    <glyph glyph-name="Uacute" unicode="&#xda;" horiz-adv-x="837" 
d="M446 -24q-50 0 -105 14t-102.5 53t-77 112t-29.5 191v985h-99v69h480v-69h-107v-997q0 -139 26.5 -205t86.5 -66q22 0 43 10.5t39 36.5t28 72.5t10 118.5v1030h-88v69h253v-69h-94v-1032q0 -126 -32.5 -196.5t-91.5 -98.5t-140 -28zM332 1444l-51 54l188 148
q14 11 28.5 17.5t27.5 6.5q18 0 32.5 -9.5t21.5 -23.5q8 -13 8 -29q0 -18 -13 -35t-41 -28z" />
    <glyph glyph-name="Ucircumflex" unicode="&#xdb;" horiz-adv-x="837" 
d="M446 -24q-50 0 -105 14t-102.5 53t-77 112t-29.5 191v985h-99v69h480v-69h-107v-997q0 -139 26.5 -205t86.5 -66q22 0 43 10.5t39 36.5t28 72.5t10 118.5v1030h-88v69h253v-69h-94v-1032q0 -126 -32.5 -196.5t-91.5 -98.5t-140 -28zM257 1463l148 206h69l146 -206h-82
l-100 133l-99 -133h-82z" />
    <glyph glyph-name="Udieresis" unicode="&#xdc;" horiz-adv-x="837" 
d="M446 -24q-50 0 -105 14t-102.5 53t-77 112t-29.5 191v985h-99v69h480v-69h-107v-997q0 -139 26.5 -205t86.5 -66q22 0 43 10.5t39 36.5t28 72.5t10 118.5v1030h-88v69h253v-69h-94v-1032q0 -126 -32.5 -196.5t-91.5 -98.5t-140 -28zM564 1502q-38 0 -65.5 28t-27.5 64
q0 39 27.5 67.5t65.5 28.5q36 0 64 -28.5t28 -67.5q0 -36 -28 -64t-64 -28zM313 1502q-37 0 -64 28t-27 64q0 39 27 67.5t64 28.5q38 0 65.5 -28.5t27.5 -67.5q0 -36 -27.5 -64t-65.5 -28z" />
    <glyph glyph-name="Yacute" unicode="&#xdd;" horiz-adv-x="855" 
d="M193 0v69h107v518l-190 744h-97v69h475v-69h-76l154 -670h-62l172 670h-84v69h251v-69h-93l-180 -697v-565h106v-69h-483zM321 1444l-51 54l188 148q14 11 28.5 17.5t27.5 6.5q18 0 32.5 -9.5t21.5 -23.5q8 -13 8 -29q0 -18 -13 -35t-41 -28z" />
    <glyph glyph-name="Thorn" unicode="&#xde;" horiz-adv-x="968" 
d="M400 309v75h25q50 0 85.5 49t55 133.5t19.5 189.5q0 99 -17 177t-48 123t-73 45h-47v76h161q98 0 171 -52t113.5 -147t40.5 -223q0 -133 -42 -233.5t-118 -156.5t-179 -56h-147zM59 0v69h98v1262h-98v69h465v-69h-99v-1262h99v-69h-465z" />
    <glyph glyph-name="germandbls" unicode="&#xdf;" horiz-adv-x="1008" 
d="M631 -22q-60 0 -109.5 40.5t-49.5 118.5q0 55 23.5 88.5t63.5 33.5q35 0 54.5 -23.5t19.5 -61.5q0 -27 -11 -43t-21.5 -27.5t-10.5 -25.5q0 -16 10.5 -25t32.5 -9q30 0 46 21t23 60.5t7 95.5q0 74 -22.5 126.5t-56.5 96t-68 86.5t-56.5 95.5t-22.5 124.5q0 74 23.5 123.5
t58 85.5t69 69.5t58 74t23.5 99.5q0 77 -37.5 115.5t-109.5 38.5q-64 0 -97.5 -47t-45.5 -123.5t-12 -166.5v-1019h-375v69h93v858q0 151 54.5 262.5t147 173t208.5 61.5q115 0 180 -56.5t65 -163.5q0 -74 -23 -128t-54 -95t-54.5 -75.5t-23.5 -70.5q0 -45 30 -86.5
t74 -86.5t87.5 -95.5t73.5 -111.5t30 -136q0 -120 -42.5 -195.5t-109.5 -110.5t-143 -35z" />
    <glyph glyph-name="agrave" unicode="&#xe0;" horiz-adv-x="857" 
d="M295 -22q-68 0 -124 32.5t-89.5 92.5t-33.5 142q0 97 41.5 160t103 105t123 75t103 69.5t41.5 89.5q0 72 -11.5 125t-37 82t-66.5 29q-47 0 -77 -24.5t-30 -59.5q0 -28 12 -48t24.5 -42.5t12.5 -60.5q0 -52 -29 -82t-76 -30q-48 0 -77.5 40.5t-29.5 111.5q0 79 42 141.5
t116 98t169 35.5q94 0 168 -37.5t117 -119t43 -215.5v-525q0 -52 9 -70.5t27 -18.5q19 0 32.5 10t19.5 18l40 -53q-16 -23 -67 -45.5t-121 -22.5q-68 0 -107.5 19t-57.5 45t-24 48q-4 -13 -22.5 -41t-57.5 -51t-106 -23zM389 93q22 0 38 19.5t24.5 50.5t8.5 63v391
q-3 -28 -25 -54t-48.5 -60t-46 -87t-19.5 -137q0 -91 18.5 -138.5t49.5 -47.5zM523 1106l-211 98q-30 14 -44.5 29.5t-14.5 43.5q0 24 18 39.5t45 15.5q21 0 35.5 -8t29.5 -20l180 -153z" />
    <glyph glyph-name="aacute" unicode="&#xe1;" horiz-adv-x="857" 
d="M295 -22q-68 0 -124 32.5t-89.5 92.5t-33.5 142q0 97 41.5 160t103 105t123 75t103 69.5t41.5 89.5q0 72 -11.5 125t-37 82t-66.5 29q-47 0 -77 -24.5t-30 -59.5q0 -28 12 -48t24.5 -42.5t12.5 -60.5q0 -52 -29 -82t-76 -30q-48 0 -77.5 40.5t-29.5 111.5q0 79 42 141.5
t116 98t169 35.5q94 0 168 -37.5t117 -119t43 -215.5v-525q0 -52 9 -70.5t27 -18.5q19 0 32.5 10t19.5 18l40 -53q-16 -23 -67 -45.5t-121 -22.5q-68 0 -107.5 19t-57.5 45t-24 48q-4 -13 -22.5 -41t-57.5 -51t-106 -23zM389 93q22 0 38 19.5t24.5 50.5t8.5 63v391
q-3 -28 -25 -54t-48.5 -60t-46 -87t-19.5 -137q0 -91 18.5 -138.5t49.5 -47.5zM308 1087l-51 54l188 147q14 12 28.5 18.5t27.5 6.5q18 0 32.5 -9.5t21.5 -23.5q8 -14 8 -29q0 -19 -13 -35.5t-41 -27.5z" />
    <glyph glyph-name="acircumflex" unicode="&#xe2;" horiz-adv-x="857" 
d="M295 -22q-68 0 -124 32.5t-89.5 92.5t-33.5 142q0 97 41.5 160t103 105t123 75t103 69.5t41.5 89.5q0 72 -11.5 125t-37 82t-66.5 29q-47 0 -77 -24.5t-30 -59.5q0 -28 12 -48t24.5 -42.5t12.5 -60.5q0 -52 -29 -82t-76 -30q-48 0 -77.5 40.5t-29.5 111.5q0 79 42 141.5
t116 98t169 35.5q94 0 168 -37.5t117 -119t43 -215.5v-525q0 -52 9 -70.5t27 -18.5q19 0 32.5 10t19.5 18l40 -53q-16 -23 -67 -45.5t-121 -22.5q-68 0 -107.5 19t-57.5 45t-24 48q-4 -13 -22.5 -41t-57.5 -51t-106 -23zM389 93q22 0 38 19.5t24.5 50.5t8.5 63v391
q-3 -28 -25 -54t-48.5 -60t-46 -87t-19.5 -137q0 -91 18.5 -138.5t49.5 -47.5zM234 1125l148 206h69l146 -206h-82l-100 133l-99 -133h-82z" />
    <glyph glyph-name="atilde" unicode="&#xe3;" horiz-adv-x="857" 
d="M295 -22q-68 0 -124 32.5t-89.5 92.5t-33.5 142q0 97 41.5 160t103 105t123 75t103 69.5t41.5 89.5q0 72 -11.5 125t-37 82t-66.5 29q-47 0 -77 -24.5t-30 -59.5q0 -28 12 -48t24.5 -42.5t12.5 -60.5q0 -52 -29 -82t-76 -30q-48 0 -77.5 40.5t-29.5 111.5q0 79 42 141.5
t116 98t169 35.5q94 0 168 -37.5t117 -119t43 -215.5v-525q0 -52 9 -70.5t27 -18.5q19 0 32.5 10t19.5 18l40 -53q-16 -23 -67 -45.5t-121 -22.5q-68 0 -107.5 19t-57.5 45t-24 48q-4 -13 -22.5 -41t-57.5 -51t-106 -23zM389 93q22 0 38 19.5t24.5 50.5t8.5 63v391
q-3 -28 -25 -54t-48.5 -60t-46 -87t-19.5 -137q0 -91 18.5 -138.5t49.5 -47.5zM499 1144q-40 0 -65 14t-45 27t-44 13q-35 0 -53 -14.5t-23 -23.5l-68 26q5 18 23 42.5t45.5 43.5t61.5 19q44 0 68.5 -12.5t45 -26t50.5 -13.5q35 0 49.5 13.5t18.5 23.5l67 -28
q-3 -13 -20 -37.5t-45 -45.5t-66 -21z" />
    <glyph glyph-name="adieresis" unicode="&#xe4;" horiz-adv-x="857" 
d="M295 -22q-68 0 -124 32.5t-89.5 92.5t-33.5 142q0 97 41.5 160t103 105t123 75t103 69.5t41.5 89.5q0 72 -11.5 125t-37 82t-66.5 29q-47 0 -77 -24.5t-30 -59.5q0 -28 12 -48t24.5 -42.5t12.5 -60.5q0 -52 -29 -82t-76 -30q-48 0 -77.5 40.5t-29.5 111.5q0 79 42 141.5
t116 98t169 35.5q94 0 168 -37.5t117 -119t43 -215.5v-525q0 -52 9 -70.5t27 -18.5q19 0 32.5 10t19.5 18l40 -53q-16 -23 -67 -45.5t-121 -22.5q-68 0 -107.5 19t-57.5 45t-24 48q-4 -13 -22.5 -41t-57.5 -51t-106 -23zM389 93q22 0 38 19.5t24.5 50.5t8.5 63v391
q-3 -28 -25 -54t-48.5 -60t-46 -87t-19.5 -137q0 -91 18.5 -138.5t49.5 -47.5zM540 1134q-38 0 -65.5 28t-27.5 64q0 39 27.5 67.5t65.5 28.5q36 0 64 -28.5t28 -67.5q0 -36 -28 -64t-64 -28zM289 1134q-37 0 -64 28t-27 64q0 39 27 67.5t64 28.5q38 0 65.5 -28.5
t27.5 -67.5q0 -36 -27.5 -64t-65.5 -28z" />
    <glyph glyph-name="aring" unicode="&#xe5;" horiz-adv-x="857" 
d="M295 -22q-68 0 -124 32.5t-89.5 92.5t-33.5 142q0 97 41.5 160t103 105t123 75t103 69.5t41.5 89.5q0 72 -11.5 125t-37 82t-66.5 29q-47 0 -77 -24.5t-30 -59.5q0 -28 12 -48t24.5 -42.5t12.5 -60.5q0 -52 -29 -82t-76 -30q-48 0 -77.5 40.5t-29.5 111.5q0 79 42 141.5
t116 98t169 35.5q94 0 168 -37.5t117 -119t43 -215.5v-525q0 -52 9 -70.5t27 -18.5q19 0 32.5 10t19.5 18l40 -53q-16 -23 -67 -45.5t-121 -22.5q-68 0 -107.5 19t-57.5 45t-24 48q-4 -13 -22.5 -41t-57.5 -51t-106 -23zM389 93q22 0 38 19.5t24.5 50.5t8.5 63v391
q-3 -28 -25 -54t-48.5 -60t-46 -87t-19.5 -137q0 -91 18.5 -138.5t49.5 -47.5zM416 1099q-44 0 -77.5 32.5t-33.5 85.5q0 55 33.5 86.5t77.5 31.5q42 0 75 -31.5t33 -86.5q0 -53 -33 -85.5t-75 -32.5zM416 1155q23 0 33.5 19t10.5 45q0 22 -10.5 41t-33.5 19
q-25 0 -35.5 -19t-10.5 -41q0 -26 10.5 -45t35.5 -19z" />
    <glyph glyph-name="ae" unicode="&#xe6;" horiz-adv-x="1227" 
d="M341 -21q-156 0 -224.5 71t-68.5 191q0 98 41.5 161.5t102.5 106.5t122 75.5t102 69t41 89.5q0 70 -11.5 123.5t-36.5 83.5t-66 30q-44 0 -74 -22.5t-30 -59.5q0 -27 12 -47t24 -43t12 -61q0 -51 -29 -81t-75 -30q-48 0 -77.5 40.5t-29.5 110.5q0 79 41.5 140.5t115 97
t167.5 35.5t166.5 -38.5t113.5 -121t41 -216.5v-202q0 -105 -14 -181.5t-37.5 -128.5t-52.5 -86q-44 -47 -111 -77t-165 -30zM387 94q31 0 50.5 40t19.5 93v388q-3 -28 -24.5 -53.5t-47.5 -59.5t-45.5 -88t-19.5 -138q0 -58 8 -99t23 -62t36 -21zM846 -20q-80 0 -148 34.5
t-117.5 103t-77 171t-27.5 238.5q0 145 34.5 247t89.5 165t118 92t121 29q70 0 130.5 -32.5t106 -93.5t71.5 -146.5t26 -191.5q0 -20 -0.5 -40t-2.5 -41h-438v69h184q0 156 -9 244.5t-26 125t-42 36.5t-46 -37.5t-33.5 -132.5t-12.5 -269q0 -130 7 -223t23 -153t42 -88
t64 -28q77 0 123.5 37.5t65.5 77.5l57 -43q-24 -56 -100 -103.5t-183 -47.5z" />
    <glyph glyph-name="ccedilla" unicode="&#xe7;" horiz-adv-x="719" 
d="M414 -22q-71 0 -136 35.5t-116 105t-80.5 172.5t-29.5 237q0 148 38 250t96 164t122.5 90t116.5 28q77 0 134.5 -39.5t89 -104.5t31.5 -141q0 -69 -29.5 -105.5t-74.5 -36.5q-47 0 -77 31t-30 85q0 35 14.5 58t28.5 44.5t14 51.5q0 45 -25.5 66t-58.5 21q-36 0 -58 -45
t-33.5 -115.5t-15 -149t-3.5 -144.5q0 -81 5 -165.5t19 -155.5t40 -115t69 -44q59 0 92 37t46 78l54 -45q-23 -57 -83.5 -102.5t-159.5 -45.5zM458 -326q-48 0 -93.5 11.5t-60.5 19.5l27 66q11 -7 44.5 -18.5t65.5 -11.5q31 0 52.5 17t21.5 47q0 33 -14.5 43.5t-34.5 10.5
q-16 0 -29.5 -6t-25.5 -19l-64 4l60 162h69l-43 -110q6 8 31.5 18t61.5 10q41 0 76 -25.5t35 -87.5q0 -42 -22.5 -71t-63 -44.5t-93.5 -15.5z" />
    <glyph glyph-name="egrave" unicode="&#xe8;" horiz-adv-x="803" 
d="M423 -20q-81 0 -148.5 34.5t-117.5 103t-77 171t-27 238.5q0 145 34 247t89.5 165t118.5 92t121 29q70 0 130.5 -32.5t106 -93.5t71 -146.5t25.5 -191.5v-40t-2 -41h-438v69h183q0 156 -8.5 244.5t-25.5 125t-42 36.5t-46 -37.5t-34 -132.5t-13 -269q0 -130 7 -223
t23 -153t42 -88t64 -28q78 0 124 37.5t66 77.5l57 -43q-25 -56 -101 -103.5t-182 -47.5zM518 1106l-211 98q-30 14 -44.5 29.5t-14.5 43.5q0 24 18 39.5t45 15.5q21 0 35.5 -8t29.5 -20l180 -153z" />
    <glyph glyph-name="eacute" unicode="&#xe9;" horiz-adv-x="803" 
d="M423 -20q-81 0 -148.5 34.5t-117.5 103t-77 171t-27 238.5q0 145 34 247t89.5 165t118.5 92t121 29q70 0 130.5 -32.5t106 -93.5t71 -146.5t25.5 -191.5v-40t-2 -41h-438v69h183q0 156 -8.5 244.5t-25.5 125t-42 36.5t-46 -37.5t-34 -132.5t-13 -269q0 -130 7 -223
t23 -153t42 -88t64 -28q78 0 124 37.5t66 77.5l57 -43q-25 -56 -101 -103.5t-182 -47.5zM304 1087l-51 54l188 147q14 12 28.5 18.5t27.5 6.5q18 0 32.5 -9.5t21.5 -23.5q8 -14 8 -29q0 -19 -13 -35.5t-41 -27.5z" />
    <glyph glyph-name="ecircumflex" unicode="&#xea;" horiz-adv-x="803" 
d="M423 -20q-81 0 -148.5 34.5t-117.5 103t-77 171t-27 238.5q0 145 34 247t89.5 165t118.5 92t121 29q70 0 130.5 -32.5t106 -93.5t71 -146.5t25.5 -191.5v-40t-2 -41h-438v69h183q0 156 -8.5 244.5t-25.5 125t-42 36.5t-46 -37.5t-34 -132.5t-13 -269q0 -130 7 -223
t23 -153t42 -88t64 -28q78 0 124 37.5t66 77.5l57 -43q-25 -56 -101 -103.5t-182 -47.5zM229 1125l148 206h69l146 -206h-82l-100 133l-99 -133h-82z" />
    <glyph glyph-name="edieresis" unicode="&#xeb;" horiz-adv-x="803" 
d="M423 -20q-81 0 -148.5 34.5t-117.5 103t-77 171t-27 238.5q0 145 34 247t89.5 165t118.5 92t121 29q70 0 130.5 -32.5t106 -93.5t71 -146.5t25.5 -191.5v-40t-2 -41h-438v69h183q0 156 -8.5 244.5t-25.5 125t-42 36.5t-46 -37.5t-34 -132.5t-13 -269q0 -130 7 -223
t23 -153t42 -88t64 -28q78 0 124 37.5t66 77.5l57 -43q-25 -56 -101 -103.5t-182 -47.5zM536 1134q-38 0 -65.5 28t-27.5 64q0 39 27.5 67.5t65.5 28.5q36 0 64 -28.5t28 -67.5q0 -36 -28 -64t-64 -28zM285 1134q-37 0 -64 28t-27 64q0 39 27 67.5t64 28.5q38 0 65.5 -28.5
t27.5 -67.5q0 -36 -27.5 -64t-65.5 -28z" />
    <glyph glyph-name="igrave" unicode="&#xec;" horiz-adv-x="513" 
d="M25 0v69h97v909h-97v69h367v-978h97v-69h-464zM364 1106l-211 98q-30 14 -44.5 29.5t-14.5 43.5q0 24 18 39.5t45 15.5q21 0 35.5 -8t29.5 -20l180 -153z" />
    <glyph glyph-name="iacute" unicode="&#xed;" horiz-adv-x="513" 
d="M25 0v69h97v909h-97v69h367v-978h97v-69h-464zM150 1087l-51 54l188 147q14 12 28.5 18.5t27.5 6.5q18 0 32.5 -9.5t21.5 -23.5q8 -14 8 -29q0 -19 -13 -35.5t-41 -27.5z" />
    <glyph glyph-name="icircumflex" unicode="&#xee;" horiz-adv-x="513" 
d="M25 0v69h97v909h-97v69h367v-978h97v-69h-464zM76 1125l148 206h69l146 -206h-82l-100 133l-99 -133h-82z" />
    <glyph glyph-name="idieresis" unicode="&#xef;" horiz-adv-x="513" 
d="M25 0v69h97v909h-97v69h367v-978h97v-69h-464zM382 1134q-38 0 -65.5 28t-27.5 64q0 39 27.5 67.5t65.5 28.5q36 0 64 -28.5t28 -67.5q0 -36 -28 -64t-64 -28zM131 1134q-37 0 -64 28t-27 64q0 39 27 67.5t64 28.5q38 0 65.5 -28.5t27.5 -67.5q0 -36 -27.5 -64t-65.5 -28
z" />
    <glyph glyph-name="eth" unicode="&#xf0;" horiz-adv-x="826" 
d="M404 -22q-81 0 -158.5 66t-128 190t-50.5 295q0 138 31.5 237.5t82 163t109.5 93.5t114 30q18 0 34.5 -5.5t29.5 -12.5t18 -11q-4 42 -15 85t-24.5 78.5t-27.5 53.5l-58 -88l-60 42l62 87q-16 16 -59 35.5t-78 31.5l23 71q13 -1 39 -11t54.5 -22t45.5 -22l15 -8l45 61
l59 -39l-45 -65q54 -38 103.5 -100t89 -155.5t62 -224.5t22.5 -307t-51.5 -299t-129.5 -186.5t-154 -63.5zM404 47q25 0 40 62.5t21.5 171t6.5 246.5q0 135 -6.5 238t-21.5 161t-40 58t-41 -58t-23 -161t-7 -238q0 -138 7 -246.5t23 -171t41 -62.5z" />
    <glyph glyph-name="ntilde" unicode="&#xf1;" horiz-adv-x="964" 
d="M32 0v69h104v909h-104v69h368v-105q3 14 23.5 42.5t60 52t99.5 23.5q66 0 119 -27.5t83.5 -100t30.5 -208.5v-655h102v-69h-439v69h67v653q0 107 -12.5 159t-44.5 52q-18 0 -32 -13t-25 -37.5t-17.5 -57.5t-8.5 -73v-683h65v-69h-439zM563 1144q-40 0 -65 14t-45 27
t-44 13q-35 0 -53 -14.5t-23 -23.5l-68 26q5 18 23 42.5t45.5 43.5t61.5 19q44 0 68.5 -12.5t45 -26t50.5 -13.5q35 0 49.5 13.5t18.5 23.5l67 -28q-3 -13 -20 -37.5t-45 -45.5t-66 -21z" />
    <glyph glyph-name="ograve" unicode="&#xf2;" horiz-adv-x="818" 
d="M407 -22q-60 0 -122.5 33t-115.5 101t-84.5 171.5t-31.5 243.5q0 152 33 255t86.5 164t115.5 87.5t119 26.5q58 0 120 -26.5t116 -87.5t87.5 -164t33.5 -255q0 -140 -32 -243.5t-85 -171.5t-116 -101t-124 -33zM407 57q42 0 63 112t21 358q0 245 -21 350.5t-63 105.5
q-39 0 -60 -105.5t-21 -350.5q0 -246 21 -358t60 -112zM515 1106l-211 98q-30 14 -44.5 29.5t-14.5 43.5q0 24 18 39.5t45 15.5q21 0 35.5 -8t29.5 -20l180 -153z" />
    <glyph glyph-name="oacute" unicode="&#xf3;" horiz-adv-x="818" 
d="M407 -22q-60 0 -122.5 33t-115.5 101t-84.5 171.5t-31.5 243.5q0 152 33 255t86.5 164t115.5 87.5t119 26.5q58 0 120 -26.5t116 -87.5t87.5 -164t33.5 -255q0 -140 -32 -243.5t-85 -171.5t-116 -101t-124 -33zM407 57q42 0 63 112t21 358q0 245 -21 350.5t-63 105.5
q-39 0 -60 -105.5t-21 -350.5q0 -246 21 -358t60 -112zM301 1087l-51 54l188 147q14 12 28.5 18.5t27.5 6.5q18 0 32.5 -9.5t21.5 -23.5q8 -14 8 -29q0 -19 -13 -35.5t-41 -27.5z" />
    <glyph glyph-name="ocircumflex" unicode="&#xf4;" horiz-adv-x="818" 
d="M407 -22q-60 0 -122.5 33t-115.5 101t-84.5 171.5t-31.5 243.5q0 152 33 255t86.5 164t115.5 87.5t119 26.5q58 0 120 -26.5t116 -87.5t87.5 -164t33.5 -255q0 -140 -32 -243.5t-85 -171.5t-116 -101t-124 -33zM407 57q42 0 63 112t21 358q0 245 -21 350.5t-63 105.5
q-39 0 -60 -105.5t-21 -350.5q0 -246 21 -358t60 -112zM226 1125l148 206h69l146 -206h-82l-100 133l-99 -133h-82z" />
    <glyph glyph-name="otilde" unicode="&#xf5;" horiz-adv-x="818" 
d="M407 -22q-60 0 -122.5 33t-115.5 101t-84.5 171.5t-31.5 243.5q0 152 33 255t86.5 164t115.5 87.5t119 26.5q58 0 120 -26.5t116 -87.5t87.5 -164t33.5 -255q0 -140 -32 -243.5t-85 -171.5t-116 -101t-124 -33zM407 57q42 0 63 112t21 358q0 245 -21 350.5t-63 105.5
q-39 0 -60 -105.5t-21 -350.5q0 -246 21 -358t60 -112zM491 1144q-40 0 -65 14t-45 27t-44 13q-35 0 -53 -14.5t-23 -23.5l-68 26q5 18 23 42.5t45.5 43.5t61.5 19q44 0 68.5 -12.5t45 -26t50.5 -13.5q35 0 49.5 13.5t18.5 23.5l67 -28q-3 -13 -20 -37.5t-45 -45.5t-66 -21z
" />
    <glyph glyph-name="odieresis" unicode="&#xf6;" horiz-adv-x="818" 
d="M407 -22q-60 0 -122.5 33t-115.5 101t-84.5 171.5t-31.5 243.5q0 152 33 255t86.5 164t115.5 87.5t119 26.5q58 0 120 -26.5t116 -87.5t87.5 -164t33.5 -255q0 -140 -32 -243.5t-85 -171.5t-116 -101t-124 -33zM407 57q42 0 63 112t21 358q0 245 -21 350.5t-63 105.5
q-39 0 -60 -105.5t-21 -350.5q0 -246 21 -358t60 -112zM533 1134q-38 0 -65.5 28t-27.5 64q0 39 27.5 67.5t65.5 28.5q36 0 64 -28.5t28 -67.5q0 -36 -28 -64t-64 -28zM282 1134q-37 0 -64 28t-27 64q0 39 27 67.5t64 28.5q38 0 65.5 -28.5t27.5 -67.5q0 -36 -27.5 -64
t-65.5 -28z" />
    <glyph glyph-name="divide" unicode="&#xf7;" horiz-adv-x="805" 
d="M408 278q-31 0 -53 22.5t-22 53.5t22 53t53 22t52.5 -22t21.5 -53t-21.5 -53.5t-52.5 -22.5zM408 668q-31 0 -53 22.5t-22 53.5t22 53.5t53 22.5t52.5 -22.5t21.5 -53.5t-21.5 -53.5t-52.5 -22.5zM103 514v69h605v-69h-605z" />
    <glyph glyph-name="oslash" unicode="&#xf8;" horiz-adv-x="821" 
d="M104 -104l525 1224h76l-525 -1224h-76zM407 -22q-60 0 -122.5 33t-115.5 101t-84.5 171.5t-31.5 243.5q0 152 33 255t86.5 164t115.5 87.5t119 26.5q58 0 120 -26.5t116 -87.5t87.5 -164t33.5 -255q0 -140 -32 -243.5t-85 -171.5t-116 -101t-124 -33zM407 57q42 0 63 112
t21 358q0 245 -21 350.5t-63 105.5q-39 0 -60 -105.5t-21 -350.5q0 -246 21 -358t60 -112z" />
    <glyph glyph-name="ugrave" unicode="&#xf9;" horiz-adv-x="910" 
d="M367 -22q-71 0 -127.5 26.5t-89.5 97t-33 205.5v671h-97v68h367v-708q0 -100 5 -154t19 -74.5t38 -20.5t44 26.5t31.5 77t11.5 123.5v662h-84v68h354v-977h84v-69h-324l-15 99q-5 -23 -28 -51.5t-62.5 -49t-93.5 -20.5zM574 1106l-211 98q-30 14 -44.5 29.5t-14.5 43.5
q0 24 18 39.5t45 15.5q21 0 35.5 -8t29.5 -20l180 -153z" />
    <glyph glyph-name="uacute" unicode="&#xfa;" horiz-adv-x="910" 
d="M367 -22q-71 0 -127.5 26.5t-89.5 97t-33 205.5v671h-97v68h367v-708q0 -100 5 -154t19 -74.5t38 -20.5t44 26.5t31.5 77t11.5 123.5v662h-84v68h354v-977h84v-69h-324l-15 99q-5 -23 -28 -51.5t-62.5 -49t-93.5 -20.5zM360 1087l-51 54l188 147q14 12 28.5 18.5
t27.5 6.5q18 0 32.5 -9.5t21.5 -23.5q8 -14 8 -29q0 -19 -13 -35.5t-41 -27.5z" />
    <glyph glyph-name="ucircumflex" unicode="&#xfb;" horiz-adv-x="910" 
d="M367 -22q-71 0 -127.5 26.5t-89.5 97t-33 205.5v671h-97v68h367v-708q0 -100 5 -154t19 -74.5t38 -20.5t44 26.5t31.5 77t11.5 123.5v662h-84v68h354v-977h84v-69h-324l-15 99q-5 -23 -28 -51.5t-62.5 -49t-93.5 -20.5zM285 1125l148 206h69l146 -206h-82l-100 133
l-99 -133h-82z" />
    <glyph glyph-name="udieresis" unicode="&#xfc;" horiz-adv-x="910" 
d="M367 -22q-71 0 -127.5 26.5t-89.5 97t-33 205.5v671h-97v68h367v-708q0 -100 5 -154t19 -74.5t38 -20.5t44 26.5t31.5 77t11.5 123.5v662h-84v68h354v-977h84v-69h-324l-15 99q-5 -23 -28 -51.5t-62.5 -49t-93.5 -20.5zM591 1134q-38 0 -65.5 28t-27.5 64q0 39 27.5 67.5
t65.5 28.5q36 0 64 -28.5t28 -67.5q0 -36 -28 -64t-64 -28zM340 1134q-37 0 -64 28t-27 64q0 39 27 67.5t64 28.5q38 0 65.5 -28.5t27.5 -67.5q0 -36 -27.5 -64t-65.5 -28z" />
    <glyph glyph-name="yacute" unicode="&#xfd;" horiz-adv-x="744" 
d="M228 -502q-50 0 -87 36.5t-56.5 98.5t-19.5 138q0 71 29 107.5t75 36.5t74 -33t28 -91q0 -45 -18 -73t-35.5 -51t-17.5 -57q0 -25 10.5 -40t29.5 -15q11 0 19 7.5t14.5 24t12.5 43.5l76 349l-273 999h-84v69h448v-69h-78l119 -451l103 451h-74v69h223v-69h-72l-235 -985
l-87 -379q-7 -35 -22 -61.5t-39.5 -40.5t-62.5 -14zM272 1086l-51 54l188 147q14 12 28.5 18.5t27.5 6.5q18 0 32.5 -9.5t21.5 -23.5q8 -14 8 -29q0 -19 -13 -35.5t-41 -27.5z" />
    <glyph glyph-name="thorn" unicode="&#xfe;" horiz-adv-x="957" 
d="M40 -500v69h96v1862h-96v69h366v-557q3 14 20 40t49.5 47t81.5 21q95 0 163 -60.5t104 -179t36 -295.5q0 -189 -42 -307t-114.5 -173.5t-166.5 -55.5q-34 0 -58 8.5t-39.5 21.5t-24 26.5t-9.5 24.5v-492h93v-69h-459zM497 83q30 0 48 45t26 113.5t10.5 142t2.5 129.5
q0 46 -3.5 115.5t-12.5 138.5t-24.5 115.5t-39.5 46.5q-22 0 -39.5 -26t-31 -63.5t-20.5 -75.5t-7 -61v-442q4 -40 14.5 -81.5t30 -69t46.5 -27.5z" />
    <glyph glyph-name="ydieresis" unicode="&#xff;" horiz-adv-x="744" 
d="M228 -502q-50 0 -87 36.5t-56.5 98.5t-19.5 138q0 71 29 107.5t75 36.5t74 -33t28 -91q0 -45 -18 -73t-35.5 -51t-17.5 -57q0 -25 10.5 -40t29.5 -15q11 0 19 7.5t14.5 24t12.5 43.5l76 349l-273 999h-84v69h448v-69h-78l119 -451l103 451h-74v69h223v-69h-72l-235 -985
l-87 -379q-7 -35 -22 -61.5t-39.5 -40.5t-62.5 -14zM504 1133q-38 0 -65.5 28t-27.5 64q0 39 27.5 67.5t65.5 28.5q36 0 64 -28.5t28 -67.5q0 -36 -28 -64t-64 -28zM253 1133q-37 0 -64 28t-27 64q0 39 27 67.5t64 28.5q38 0 65.5 -28.5t27.5 -67.5q0 -36 -27.5 -64
t-65.5 -28z" />
    <glyph glyph-name="Amacron" unicode="&#x100;" horiz-adv-x="720" 
d="M-5 0v69h83l195 1332h134l230 -1332h92v-69h-459v69h76l-102 725h5l-99 -725h68v-69h-223zM147 250v64h208v-64h-208zM41 1547v69h603v-69h-603z" />
    <glyph glyph-name="amacron" unicode="&#x101;" horiz-adv-x="857" 
d="M295 -22q-68 0 -124 32.5t-89.5 92.5t-33.5 142q0 97 41.5 160t103 105t123 75t103 69.5t41.5 89.5q0 72 -11.5 125t-37 82t-66.5 29q-47 0 -77 -24.5t-30 -59.5q0 -28 12 -48t24.5 -42.5t12.5 -60.5q0 -52 -29 -82t-76 -30q-48 0 -77.5 40.5t-29.5 111.5q0 79 42 141.5
t116 98t169 35.5q94 0 168 -37.5t117 -119t43 -215.5v-525q0 -52 9 -70.5t27 -18.5q19 0 32.5 10t19.5 18l40 -53q-16 -23 -67 -45.5t-121 -22.5q-68 0 -107.5 19t-57.5 45t-24 48q-4 -13 -22.5 -41t-57.5 -51t-106 -23zM389 93q22 0 38 19.5t24.5 50.5t8.5 63v391
q-3 -28 -25 -54t-48.5 -60t-46 -87t-19.5 -137q0 -91 18.5 -138.5t49.5 -47.5zM171 1144v69h489v-69h-489z" />
    <glyph glyph-name="Abreve" unicode="&#x102;" horiz-adv-x="720" 
d="M-5 0v69h83l195 1332h134l230 -1332h92v-69h-459v69h76l-102 725h5l-99 -725h68v-69h-223zM147 250v64h208v-64h-208zM340 1499q-63 0 -102 29t-57 74.5t-18 93.5h67q6 -61 36.5 -90.5t73.5 -29.5q44 0 75 29.5t36 90.5h67q0 -48 -18 -93.5t-57 -74.5t-103 -29z" />
    <glyph glyph-name="abreve" unicode="&#x103;" horiz-adv-x="857" 
d="M295 -22q-68 0 -124 32.5t-89.5 92.5t-33.5 142q0 97 41.5 160t103 105t123 75t103 69.5t41.5 89.5q0 72 -11.5 125t-37 82t-66.5 29q-47 0 -77 -24.5t-30 -59.5q0 -28 12 -48t24.5 -42.5t12.5 -60.5q0 -52 -29 -82t-76 -30q-48 0 -77.5 40.5t-29.5 111.5q0 79 42 141.5
t116 98t169 35.5q94 0 168 -37.5t117 -119t43 -215.5v-525q0 -52 9 -70.5t27 -18.5q19 0 32.5 10t19.5 18l40 -53q-16 -23 -67 -45.5t-121 -22.5q-68 0 -107.5 19t-57.5 45t-24 48q-4 -13 -22.5 -41t-57.5 -51t-106 -23zM389 93q22 0 38 19.5t24.5 50.5t8.5 63v391
q-3 -28 -25 -54t-48.5 -60t-46 -87t-19.5 -137q0 -91 18.5 -138.5t49.5 -47.5zM413 1105q-63 0 -102 29.5t-57 75t-18 92.5h67q6 -61 36.5 -90.5t73.5 -29.5q44 0 75 29.5t36 90.5h67q0 -47 -18 -92.5t-57 -75t-103 -29.5z" />
    <glyph glyph-name="Aogonek" unicode="&#x104;" horiz-adv-x="720" 
d="M-5 0v69h83l195 1332h134l230 -1332h92v-69h-459v69h76l-102 725h5l-99 -725h68v-69h-223zM147 250v64h208v-64h-208zM725 -304q-43 0 -80.5 14t-60.5 44t-23 77q0 54 25 91.5t58 62t57 38.5l28 -23q-22 -26 -39 -58t-17 -80q0 -41 29 -57t56 -16q26 0 49 6.5t39 16.5
l33 -63q-25 -24 -66 -38.5t-88 -14.5z" />
    <glyph glyph-name="aogonek" unicode="&#x105;" horiz-adv-x="857" 
d="M295 -22q-68 0 -124 32.5t-89.5 92.5t-33.5 142q0 97 41.5 160t103 105t123 75t103 69.5t41.5 89.5q0 72 -11.5 125t-37 82t-66.5 29q-47 0 -77 -24.5t-30 -59.5q0 -28 12.5 -48t24.5 -43t12 -61q0 -52 -29 -82t-76 -30q-48 0 -77.5 40.5t-29.5 111.5q0 79 42 141.5
t116 98.5t169 36q94 0 168 -37.5t117 -119t43 -215.5v-525q0 -52 9 -70.5t27 -18.5q19 0 32.5 10t19.5 18l40 -53q-16 -23 -67 -45.5t-121 -22.5q-68 0 -109.5 13.5t-61.5 34t-26 42.5q-3 -14 -20 -36t-54 -39.5t-104 -17.5zM389 93q22 0 38 19.5t24.5 50.5t8.5 63v391
q-3 -28 -25 -54t-48.5 -60t-46 -87t-19.5 -137q0 -91 18.5 -138.5t49.5 -47.5zM854 -255q-43 0 -80.5 14t-60.5 44t-23 77q0 54 25 91.5t57.5 62t57.5 38.5l28 -23q-22 -26 -39 -58t-17 -80q0 -41 29 -57t56 -16q26 0 49 6.5t38 16.5l34 -63q-25 -24 -66 -38.5t-88 -14.5z
" />
    <glyph glyph-name="Cacute" unicode="&#x106;" horiz-adv-x="746" 
d="M440 -20q-168 0 -271.5 187t-103.5 531q0 136 23 265.5t71 233t120.5 164.5t170.5 61q70 0 123 -44t83 -109t30 -127q0 -61 -24.5 -102t-78.5 -41q-59 0 -83.5 33.5t-24.5 88.5q0 40 17.5 66t35 49t17.5 55t-13.5 45t-33.5 13q-35 0 -60 -44t-41.5 -116t-26 -158.5
t-13.5 -173t-4 -157.5q0 -102 5 -198t15 -178t25.5 -143.5t36.5 -96t48 -34.5q36 0 61 20.5t42 57t28 83.5l57 -35q-20 -59 -50.5 -103t-74 -68.5t-106.5 -24.5zM341 1444l-51 54l188 148q14 11 28.5 17.5t27.5 6.5q18 0 32.5 -9.5t21.5 -23.5q8 -13 8 -29q0 -18 -13 -35
t-41 -28z" />
    <glyph glyph-name="cacute" unicode="&#x107;" horiz-adv-x="719" 
d="M414 -22q-71 0 -136 35.5t-116 105t-80.5 172.5t-29.5 237q0 148 38 250t96 164t122.5 90t116.5 28q77 0 134.5 -39.5t89 -104.5t31.5 -141q0 -69 -29.5 -105.5t-74.5 -36.5q-47 0 -77 31t-30 85q0 35 14.5 58t28.5 44.5t14 51.5q0 45 -25.5 66t-58.5 21q-36 0 -58 -45
t-33.5 -115.5t-15 -149t-3.5 -144.5q0 -81 5 -165.5t19 -155.5t40 -115t69 -44q59 0 92 37t46 78l54 -45q-23 -57 -83.5 -102.5t-159.5 -45.5zM312 1087l-51 54l188 147q14 12 28.5 18.5t27.5 6.5q18 0 32.5 -9.5t21.5 -23.5q8 -14 8 -29q0 -19 -13 -35.5t-41 -27.5z" />
    <glyph glyph-name="ccircumflex" unicode="&#x109;" horiz-adv-x="719" 
d="M414 -22q-71 0 -136 35.5t-116 105t-80.5 172.5t-29.5 237q0 148 38 250t96 164t122.5 90t116.5 28q77 0 134.5 -39.5t89 -104.5t31.5 -141q0 -69 -29.5 -105.5t-74.5 -36.5q-47 0 -77 31t-30 85q0 35 14.5 58t28.5 44.5t14 51.5q0 45 -25.5 66t-58.5 21q-36 0 -58 -45
t-33.5 -115.5t-15 -149t-3.5 -144.5q0 -81 5 -165.5t19 -155.5t40 -115t69 -44q59 0 92 37t46 78l54 -45q-23 -57 -83.5 -102.5t-159.5 -45.5zM237 1125l148 206h69l146 -206h-82l-100 133l-99 -133h-82z" />
    <glyph glyph-name="Cdotaccent" unicode="&#x10a;" horiz-adv-x="746" 
d="M440 -20q-168 0 -271.5 187t-103.5 531q0 136 23 265.5t71 233t120.5 164.5t170.5 61q70 0 123 -44t83 -109t30 -127q0 -61 -24.5 -102t-78.5 -41q-59 0 -83.5 33.5t-24.5 88.5q0 40 17.5 66t35 49t17.5 55t-13.5 45t-33.5 13q-35 0 -60 -44t-41.5 -116t-26 -158.5
t-13.5 -173t-4 -157.5q0 -102 5 -198t15 -178t25.5 -143.5t36.5 -96t48 -34.5q36 0 61 20.5t42 57t28 83.5l57 -35q-20 -59 -50.5 -103t-74 -68.5t-106.5 -24.5zM448 1502q-38 0 -65.5 28t-27.5 64q0 38 27.5 66t65.5 28q35 0 62.5 -28t27.5 -66q0 -36 -27.5 -64t-62.5 -28z
" />
    <glyph glyph-name="cdotaccent" unicode="&#x10b;" horiz-adv-x="719" 
d="M414 -22q-71 0 -136 35.5t-116 105t-80.5 172.5t-29.5 237q0 148 38 250t96 164t122.5 90t116.5 28q77 0 134.5 -39.5t89 -104.5t31.5 -141q0 -69 -29.5 -105.5t-74.5 -36.5q-47 0 -77 31t-30 85q0 35 14.5 58t28.5 44.5t14 51.5q0 45 -25.5 66t-58.5 21q-36 0 -58 -45
t-33.5 -115.5t-15 -149t-3.5 -144.5q0 -81 5 -165.5t19 -155.5t40 -115t69 -44q59 0 92 37t46 78l54 -45q-23 -57 -83.5 -102.5t-159.5 -45.5zM419 1140q-38 0 -65.5 27.5t-27.5 64.5q0 38 27.5 66t65.5 28q35 0 62.5 -28t27.5 -66q0 -37 -27.5 -64.5t-62.5 -27.5z" />
    <glyph glyph-name="Ccaron" unicode="&#x10c;" horiz-adv-x="746" 
d="M440 -20q-168 0 -271.5 187t-103.5 531q0 136 23 265.5t71 233t120.5 164.5t170.5 61q70 0 123 -44t83 -109t30 -127q0 -61 -24.5 -102t-78.5 -41q-59 0 -83.5 33.5t-24.5 88.5q0 40 17.5 66t35 49t17.5 55t-13.5 45t-33.5 13q-35 0 -60 -44t-41.5 -116t-26 -158.5
t-13.5 -173t-4 -157.5q0 -102 5 -198t15 -178t25.5 -143.5t36.5 -96t48 -34.5q36 0 61 20.5t42 57t28 83.5l57 -35q-20 -59 -50.5 -103t-74 -68.5t-106.5 -24.5zM414 1473l-169 226h90l113 -153l113 153h92l-169 -226h-70z" />
    <glyph glyph-name="ccaron" unicode="&#x10d;" horiz-adv-x="719" 
d="M414 -22q-71 0 -136 35.5t-116 105t-80.5 172.5t-29.5 237q0 148 38 250t96 164t122.5 90t116.5 28q77 0 134.5 -39.5t89 -104.5t31.5 -141q0 -69 -29.5 -105.5t-74.5 -36.5q-47 0 -77 31t-30 85q0 35 14.5 58t28.5 44.5t14 51.5q0 45 -25.5 66t-58.5 21q-36 0 -58 -45
t-33.5 -115.5t-15 -149t-3.5 -144.5q0 -81 5 -165.5t19 -155.5t40 -115t69 -44q59 0 92 37t46 78l54 -45q-23 -57 -83.5 -102.5t-159.5 -45.5zM385 1110l-169 226h90l113 -153l113 153h92l-169 -226h-70z" />
    <glyph glyph-name="Dcaron" unicode="&#x10e;" horiz-adv-x="886" 
d="M42 0v69h95v1262h-95v69h412q100 0 186 -78t138.5 -231t52.5 -380q0 -229 -53 -387.5t-139 -241t-185 -82.5h-412zM409 69h30q33 0 61.5 73t46.5 216t18 353q0 193 -17 332t-44.5 213.5t-59.5 74.5h-35v-1262zM411 1473l-169 226h90l113 -153l113 153h92l-169 -226h-70z
" />
    <glyph glyph-name="dcaron" unicode="&#x10f;" horiz-adv-x="1026" 
d="M840 1168q12 47 14.5 108.5t2.5 114.5q0 61 27.5 80.5t55.5 19.5q29 0 54.5 -18t25.5 -71q0 -76 -35.5 -147t-77.5 -115zM364 -20q-77 0 -146.5 48t-113.5 165t-44 325q0 191 42 310.5t108 175.5t136 56q58 0 89 -19.5t43.5 -43t14.5 -33.5v466h-117v70h393v-1431h115
v-69h-348l-24 112q-1 -25 -18.5 -56.5t-49.5 -53.5t-80 -22zM416 110q23 0 40 31.5t27 83t10 108.5v412q-2 51 -12.5 91.5t-26.5 63.5t-38 23q-20 0 -36 -29.5t-26.5 -83.5t-16.5 -129t-6 -166q0 -90 5.5 -164.5t15.5 -128t26 -83t38 -29.5z" />
    <glyph glyph-name="Dcroat" unicode="&#x110;" horiz-adv-x="927" 
d="M48 683v69h470v-69h-470zM42 0v69h95v1262h-95v69h412q100 0 186 -78t138.5 -231t52.5 -380q0 -229 -53 -387.5t-139 -241t-185 -82.5h-412zM409 69h30q33 0 61.5 73t46.5 216t18 353q0 193 -17 332t-44.5 213.5t-59.5 74.5h-35v-1262z" />
    <glyph glyph-name="dcroat" unicode="&#x111;" horiz-adv-x="895" 
d="M206 1240v69h657v-69h-657zM364 -20q-77 0 -146.5 48t-113.5 165t-44 325q0 191 42 310.5t108 175.5t136 56q58 0 89 -19.5t43.5 -43t14.5 -33.5v466h-117v70h393v-1431h115v-69h-348l-24 112q-1 -25 -18.5 -56.5t-49.5 -53.5t-80 -22zM416 110q23 0 40 31.5t27 83
t10 108.5v412q-2 51 -12.5 91.5t-26.5 63.5t-38 23q-20 0 -36 -29.5t-26.5 -83.5t-16.5 -129t-6 -166q0 -90 5.5 -164.5t15.5 -128t26 -83t38 -29.5z" />
    <glyph glyph-name="Emacron" unicode="&#x112;" horiz-adv-x="759" 
d="M42 0v69h95v1262h-95v69h643v-349h-68q0 81 -19 144.5t-56 99.5t-94 36h-39v-596h158v96h68v-258h-68v93h-158v-597h39q57 0 94 37t56 101t19 145h68v-352h-643zM91 1547v69h603v-69h-603z" />
    <glyph glyph-name="emacron" unicode="&#x113;" horiz-adv-x="803" 
d="M423 -20q-81 0 -148.5 34.5t-117.5 103t-77 171t-27 238.5q0 145 34 247t89.5 165t118.5 92t121 29q70 0 130.5 -32.5t106 -93.5t71 -146.5t25.5 -191.5v-40t-2 -41h-438v69h183q0 156 -8.5 244.5t-25.5 125t-42 36.5t-46 -37.5t-34 -132.5t-13 -269q0 -130 7 -223
t23 -153t42 -88t64 -28q78 0 124 37.5t66 77.5l57 -43q-25 -56 -101 -103.5t-182 -47.5zM167 1144v69h489v-69h-489z" />
    <glyph glyph-name="ebreve" unicode="&#x115;" horiz-adv-x="803" 
d="M423 -20q-81 0 -148.5 34.5t-117.5 103t-77 171t-27 238.5q0 145 34 247t89.5 165t118.5 92t121 29q70 0 130.5 -32.5t106 -93.5t71 -146.5t25.5 -191.5v-40t-2 -41h-438v69h183q0 156 -8.5 244.5t-25.5 125t-42 36.5t-46 -37.5t-34 -132.5t-13 -269q0 -130 7 -223
t23 -153t42 -88t64 -28q78 0 124 37.5t66 77.5l57 -43q-25 -56 -101 -103.5t-182 -47.5zM409 1105q-63 0 -102 29.5t-57 75t-18 92.5h67q6 -61 36.5 -90.5t73.5 -29.5q44 0 75 29.5t36 90.5h67q0 -47 -18 -92.5t-57 -75t-103 -29.5z" />
    <glyph glyph-name="Edotaccent" unicode="&#x116;" horiz-adv-x="759" 
d="M42 0v69h95v1262h-95v69h643v-349h-68q0 81 -19 144.5t-56 99.5t-94 36h-39v-596h158v96h68v-258h-68v93h-158v-597h39q57 0 94 37t56 101t19 145h68v-352h-643zM393 1502q-38 0 -65.5 28t-27.5 64q0 38 27.5 66t65.5 28q35 0 62.5 -28t27.5 -66q0 -36 -27.5 -64
t-62.5 -28z" />
    <glyph glyph-name="edotaccent" unicode="&#x117;" horiz-adv-x="803" 
d="M423 -20q-81 0 -148.5 34.5t-117.5 103t-77 171t-27 238.5q0 145 34 247t89.5 165t118.5 92t121 29q70 0 130.5 -32.5t106 -93.5t71 -146.5t25.5 -191.5v-40t-2 -41h-438v69h183q0 156 -8.5 244.5t-25.5 125t-42 36.5t-46 -37.5t-34 -132.5t-13 -269q0 -130 7 -223
t23 -153t42 -88t64 -28q78 0 124 37.5t66 77.5l57 -43q-25 -56 -101 -103.5t-182 -47.5zM411 1140q-38 0 -65.5 27.5t-27.5 64.5q0 38 27.5 66t65.5 28q35 0 62.5 -28t27.5 -66q0 -37 -27.5 -64.5t-62.5 -27.5z" />
    <glyph glyph-name="Eogonek" unicode="&#x118;" horiz-adv-x="759" 
d="M42 0v69h95v1262h-95v69h643v-349h-68q0 81 -19 144.5t-56 99.5t-94 36h-39v-596h158v96h68v-258h-68v93h-158v-597h39q57 0 94 37t56 101t19 145h68v-352h-643zM682 -304q-44 0 -81.5 14t-60 44t-22.5 77q0 54 25 91.5t57.5 62t56.5 38.5l28 -23q-21 -26 -38.5 -58
t-17.5 -80q0 -41 29.5 -57t55.5 -16q27 0 49.5 6.5t38.5 16.5l33 -63q-25 -24 -66 -38.5t-87 -14.5z" />
    <glyph glyph-name="eogonek" unicode="&#x119;" horiz-adv-x="803" 
d="M423 -20q-81 0 -148.5 34.5t-117.5 103t-77 171t-27 238.5q0 145 34 247t89.5 165t118.5 92t121 29q70 0 130.5 -33t106 -97t71 -155.5t25.5 -208.5v-40t-2 -40h-438v68h183q0 157 -8.5 252.5t-25.5 139.5t-42 44t-46 -45t-34 -147.5t-13 -276.5q0 -129 7 -218.5t23 -145
t42 -80.5t64 -25q78 0 124 41t66 81l57 -43q-25 -56 -101 -103.5t-182 -47.5zM568 -290q-44 0 -81.5 14t-60 44t-22.5 77q0 55 24.5 92t57.5 61.5t57 38.5l28 -23q-22 -26 -39 -58t-17 -80q0 -41 29 -57t56 -16q26 0 49 6.5t39 16.5l33 -63q-25 -24 -66 -38.5t-87 -14.5z
" />
    <glyph glyph-name="Ecaron" unicode="&#x11a;" horiz-adv-x="759" 
d="M42 0v69h95v1262h-95v69h643v-349h-68q0 81 -19 144.5t-56 99.5t-94 36h-39v-596h158v96h68v-258h-68v93h-158v-597h39q57 0 94 37t56 101t19 145h68v-352h-643zM358 1473l-169 226h90l113 -153l113 153h92l-169 -226h-70z" />
    <glyph glyph-name="ecaron" unicode="&#x11b;" horiz-adv-x="803" 
d="M423 -20q-81 0 -148.5 34.5t-117.5 103t-77 171t-27 238.5q0 145 34 247t89.5 165t118.5 92t121 29q70 0 130.5 -32.5t106 -93.5t71 -146.5t25.5 -191.5v-40t-2 -41h-438v69h183q0 156 -8.5 244.5t-25.5 125t-42 36.5t-46 -37.5t-34 -132.5t-13 -269q0 -130 7 -223
t23 -153t42 -88t64 -28q78 0 124 37.5t66 77.5l57 -43q-25 -56 -101 -103.5t-182 -47.5zM377 1110l-169 226h90l113 -153l113 153h92l-169 -226h-70z" />
    <glyph glyph-name="gcircumflex" unicode="&#x11d;" horiz-adv-x="881" 
d="M427 -498q-91 0 -178 27.5t-143.5 86t-56.5 151.5q0 65 26.5 109.5t63 71t68 38.5t42.5 13q-6 2 -30.5 11.5t-53 29.5t-49.5 53t-21 82q0 36 15 62t36.5 42.5t42.5 22.5q4 1 11.5 3t9.5 1q-6 5 -27 24t-45 57.5t-42.5 101t-18.5 151.5q0 119 35 199.5t90 129.5t115 70
t110 21q108 0 185.5 -50.5t119.5 -143t42 -215.5q0 -132 -35.5 -215t-90.5 -127.5t-115 -61t-108 -16.5q-62 0 -100 12t-47 16q-1 1 -1.5 1h-2.5q-13 0 -28 -13t-15 -37q0 -34 54.5 -61t194.5 -54q156 -29 245.5 -96.5t89.5 -207.5q0 -87 -39 -143.5t-100 -88t-127.5 -44.5
t-121.5 -13zM427 -432q66 0 106 51.5t40 116.5q0 64 -17.5 101.5t-68.5 67.5q-19 12 -45 25t-50 23t-39 14q-17 -8 -36.5 -33.5t-33 -66.5t-13.5 -97q0 -60 18.5 -105t53.5 -71t85 -26zM425 303q21 0 39 22t29 95.5t11 226.5q0 146 -11 219t-29.5 97.5t-38.5 24.5
t-37.5 -24.5t-29 -98.5t-11.5 -221q0 -153 12 -225.5t30 -94t36 -21.5zM558 980q12 74 68.5 118.5t122.5 44.5q55 0 78 -27.5t23 -68.5t-22 -63t-57 -22q-34 0 -48.5 15.5t-25 31t-33.5 15.5q-12 0 -23 -9t-11 -35h-72zM245 1125l148 206h69l146 -206h-82l-100 133l-99 -133
h-82z" />
    <glyph glyph-name="Gbreve" unicode="&#x11e;" horiz-adv-x="853" 
d="M456 -20q-110 0 -200.5 75t-143.5 234t-53 409q0 230 61 391t156 246t195 85q76 0 134.5 -38t91.5 -100.5t33 -139.5q0 -64 -27.5 -103.5t-81.5 -39.5q-58 0 -83.5 39t-25.5 93q0 36 17 60t33.5 45.5t16.5 51.5q0 25 -23.5 46.5t-56.5 21.5q-47 0 -79 -61.5t-51 -161.5
t-26.5 -214.5t-7.5 -220.5q0 -160 9.5 -280.5t26 -202t38.5 -122.5t48 -41q14 0 21.5 5.5t12.5 12.5v494h-73v69h401v-69h-83v-564h-72q-1 3 -14.5 11.5t-36.5 8.5q-22 0 -42 -10t-46.5 -20t-68.5 -10zM451 1499q-63 0 -102 29t-57 74.5t-18 93.5h67q6 -61 36.5 -90.5
t73.5 -29.5q44 0 75 29.5t36 90.5h67q0 -48 -18 -93.5t-57 -74.5t-103 -29z" />
    <glyph glyph-name="gbreve" unicode="&#x11f;" horiz-adv-x="881" 
d="M427 -498q-91 0 -178 27.5t-143.5 86t-56.5 151.5q0 65 26.5 109.5t63 71t68 38.5t42.5 13q-6 2 -30.5 11.5t-53 29.5t-49.5 53t-21 82q0 36 15 62t36.5 42.5t42.5 22.5q4 1 11.5 3t9.5 1q-6 5 -27 24t-45 57.5t-42.5 101t-18.5 151.5q0 119 35 199.5t90 129.5t115 70
t110 21q108 0 185.5 -50.5t119.5 -143t42 -215.5q0 -132 -35.5 -215t-90.5 -127.5t-115 -61t-108 -16.5q-62 0 -100 12t-47 16q-1 1 -1.5 1h-2.5q-13 0 -28 -13t-15 -37q0 -34 54.5 -61t194.5 -54q156 -29 245.5 -96.5t89.5 -207.5q0 -87 -39 -143.5t-100 -88t-127.5 -44.5
t-121.5 -13zM427 -432q66 0 106 51.5t40 116.5q0 64 -17.5 101.5t-68.5 67.5q-19 12 -45 25t-50 23t-39 14q-17 -8 -36.5 -33.5t-33 -66.5t-13.5 -97q0 -60 18.5 -105t53.5 -71t85 -26zM425 303q21 0 39 22t29 95.5t11 226.5q0 146 -11 219t-29.5 97.5t-38.5 24.5
t-37.5 -24.5t-29 -98.5t-11.5 -221q0 -153 12 -225.5t30 -94t36 -21.5zM558 980q12 74 68.5 118.5t122.5 44.5q55 0 78 -27.5t23 -68.5t-22 -63t-57 -22q-34 0 -48.5 15.5t-25 31t-33.5 15.5q-12 0 -23 -9t-11 -35h-72zM424 1105q-63 0 -102 29.5t-57 75t-18 92.5h67
q6 -61 36.5 -90.5t73.5 -29.5q44 0 75 29.5t36 90.5h67q0 -47 -18 -92.5t-57 -75t-103 -29.5z" />
    <glyph glyph-name="Gdotaccent" unicode="&#x120;" horiz-adv-x="853" 
d="M456 -20q-110 0 -200.5 75t-143.5 234t-53 409q0 230 61 391t156 246t195 85q76 0 134.5 -38t91.5 -100.5t33 -139.5q0 -64 -27.5 -103.5t-81.5 -39.5q-58 0 -83.5 39t-25.5 93q0 36 17 60t33.5 45.5t16.5 51.5q0 25 -23.5 46.5t-56.5 21.5q-47 0 -79 -61.5t-51 -161.5
t-26.5 -214.5t-7.5 -220.5q0 -160 9.5 -280.5t26 -202t38.5 -122.5t48 -41q14 0 21.5 5.5t12.5 12.5v494h-73v69h401v-69h-83v-564h-72q-1 3 -14.5 11.5t-36.5 8.5q-22 0 -42 -10t-46.5 -20t-68.5 -10zM453 1502q-38 0 -65.5 28t-27.5 64q0 38 27.5 66t65.5 28
q35 0 62.5 -28t27.5 -66q0 -36 -27.5 -64t-62.5 -28z" />
    <glyph glyph-name="gdotaccent" unicode="&#x121;" horiz-adv-x="881" 
d="M427 -498q-91 0 -178 27.5t-143.5 86t-56.5 151.5q0 65 26.5 109.5t63 71t68 38.5t42.5 13q-6 2 -30.5 11.5t-53 29.5t-49.5 53t-21 82q0 36 15 62t36.5 42.5t42.5 22.5q4 1 11.5 3t9.5 1q-6 5 -27 24t-45 57.5t-42.5 101t-18.5 151.5q0 119 35 199.5t90 129.5t115 70
t110 21q108 0 185.5 -50.5t119.5 -143t42 -215.5q0 -132 -35.5 -215t-90.5 -127.5t-115 -61t-108 -16.5q-62 0 -100 12t-47 16q-1 1 -1.5 1h-2.5q-13 0 -28 -13t-15 -37q0 -34 54.5 -61t194.5 -54q156 -29 245.5 -96.5t89.5 -207.5q0 -87 -39 -143.5t-100 -88t-127.5 -44.5
t-121.5 -13zM427 -432q66 0 106 51.5t40 116.5q0 64 -17.5 101.5t-68.5 67.5q-19 12 -45 25t-50 23t-39 14q-17 -8 -36.5 -33.5t-33 -66.5t-13.5 -97q0 -60 18.5 -105t53.5 -71t85 -26zM425 303q21 0 39 22t29 95.5t11 226.5q0 146 -11 219t-29.5 97.5t-38.5 24.5
t-37.5 -24.5t-29 -98.5t-11.5 -221q0 -153 12 -225.5t30 -94t36 -21.5zM558 980q12 74 68.5 118.5t122.5 44.5q55 0 78 -27.5t23 -68.5t-22 -63t-57 -22q-34 0 -48.5 15.5t-25 31t-33.5 15.5q-12 0 -23 -9t-11 -35h-72zM427 1140q-38 0 -65.5 27.5t-27.5 64.5q0 38 27.5 66
t65.5 28q35 0 62.5 -28t27.5 -66q0 -37 -27.5 -64.5t-62.5 -27.5z" />
    <glyph glyph-name="uni0122" unicode="&#x122;" horiz-adv-x="853" 
d="M456 -20q-110 0 -200.5 75t-143.5 234t-53 409q0 230 61 391t156 246t195 85q76 0 134.5 -38t91.5 -100.5t33 -139.5q0 -64 -27.5 -103.5t-81.5 -39.5q-58 0 -83.5 39t-25.5 93q0 36 17 60t33.5 45.5t16.5 51.5q0 25 -23.5 46.5t-56.5 21.5q-47 0 -79 -61.5t-51 -161.5
t-26.5 -214.5t-7.5 -220.5q0 -160 9.5 -280.5t26 -202t38.5 -122.5t48 -41q14 0 21.5 5.5t12.5 12.5v494h-73v69h401v-69h-83v-564h-72q-1 3 -14.5 11.5t-36.5 8.5q-22 0 -42 -10t-46.5 -20t-68.5 -10zM442 -368l-39 45q14 6 37 22.5t30 34.5q-6 -4 -18 -4q-35 0 -59.5 24.5
t-24.5 60.5t24.5 60.5t60.5 24.5q38 0 65.5 -24t27.5 -72q0 -49 -19 -83t-43.5 -55.5t-41.5 -33.5z" />
    <glyph glyph-name="uni0123" unicode="&#x123;" horiz-adv-x="881" 
d="M427 -498q-91 0 -178 27.5t-143.5 86t-56.5 151.5q0 65 26.5 109.5t63 71t68 38.5t42.5 13q-6 2 -30.5 11.5t-53 29.5t-49.5 53t-21 82q0 36 15 62t36.5 42.5t42.5 22.5q4 1 11.5 3t9.5 1q-6 5 -27 24t-45 57.5t-42.5 101t-18.5 151.5q0 119 35 199.5t90 129.5t115 70
t110 21q108 0 185.5 -50.5t119.5 -143t42 -215.5q0 -132 -35.5 -215t-90.5 -127.5t-115 -61t-108 -16.5q-62 0 -100 12t-47 16q-1 1 -1.5 1h-2.5q-13 0 -28 -13t-15 -37q0 -34 54.5 -61t194.5 -54q156 -29 245.5 -96.5t89.5 -207.5q0 -87 -39 -143.5t-100 -88t-127.5 -44.5
t-121.5 -13zM427 -432q66 0 106 51.5t40 116.5q0 64 -17.5 101.5t-68.5 67.5q-19 12 -45 25t-50 23t-39 14q-17 -8 -36.5 -33.5t-33 -66.5t-13.5 -97q0 -60 18.5 -105t53.5 -71t85 -26zM425 303q21 0 39 22t29 95.5t11 226.5q0 146 -11 219t-29.5 97.5t-38.5 24.5
t-37.5 -24.5t-29 -98.5t-11.5 -221q0 -153 12 -225.5t30 -94t36 -21.5zM558 980q12 74 68.5 118.5t122.5 44.5q55 0 78 -27.5t23 -68.5t-22 -63t-57 -22q-34 0 -48.5 15.5t-25 31t-33.5 15.5q-12 0 -23 -9t-11 -35h-72zM440 1377l39 -38q-13 -5 -39 -27t-33 -41q9 8 23 8
q35 0 59.5 -24.5t24.5 -60.5q0 -35 -24.5 -60t-59.5 -25q-39 0 -66.5 24t-27.5 72q0 49 18.5 83t43.5 56t42 33z" />
    <glyph glyph-name="hcircumflex" unicode="&#x125;" horiz-adv-x="943" 
d="M32 0v69h101v1362h-101v69h371v-545q2 8 22 34t60.5 49t101.5 23q67 0 120 -32t84 -106t31 -201v-653h101v-69h-437v69h66v643q0 117 -14.5 162t-44.5 45q-21 0 -40.5 -19.5t-33.5 -58.5t-16 -97v-675h70v-69h-441zM292 1578l148 206h69l146 -206h-82l-100 133l-99 -133
h-82z" />
    <glyph glyph-name="Hbar" unicode="&#x126;" horiz-adv-x="971" 
d="M86 1014v69h817v-69h-817zM42 0v69h95v1262h-95v69h425v-69h-61v-576h163v576h-59v69h417v-69h-97v-1262h97v-69h-417v69h59v617h-163v-617h61v-69h-425z" />
    <glyph glyph-name="hbar" unicode="&#x127;" horiz-adv-x="943" 
d="M30 1240v69h658v-69h-658zM32 0v69h101v1362h-101v69h371v-545q2 8 22 34t60.5 49t101.5 23q67 0 120 -32t84 -106t31 -201v-653h101v-69h-437v69h66v643q0 117 -14.5 162t-44.5 45q-21 0 -40.5 -19.5t-33.5 -58.5t-16 -97v-675h70v-69h-441z" />
    <glyph glyph-name="Itilde" unicode="&#x128;" horiz-adv-x="582" 
d="M59 0v69h98v1262h-98v69h465v-69h-99v-1262h99v-69h-465zM376 1492q-40 0 -65 13.5t-45 27t-44 13.5q-35 0 -53 -15t-23 -23l-68 26q5 17 23 42t45.5 44t61.5 19q44 0 68.5 -13t45 -26t50.5 -13q35 0 49.5 13t18.5 24l67 -28q-3 -13 -20 -37.5t-45 -45.5t-66 -21z" />
    <glyph glyph-name="itilde" unicode="&#x129;" horiz-adv-x="513" 
d="M25 0v69h97v909h-97v69h367v-978h97v-69h-464zM341 1144q-40 0 -65 14t-45 27t-44 13q-35 0 -53 -14.5t-23 -23.5l-68 26q5 18 23 42.5t45.5 43.5t61.5 19q44 0 68.5 -12.5t45 -26t50.5 -13.5q35 0 49.5 13.5t18.5 23.5l67 -28q-3 -13 -20 -37.5t-45 -45.5t-66 -21z" />
    <glyph glyph-name="Imacron" unicode="&#x12a;" horiz-adv-x="582" 
d="M59 0v69h98v1262h-98v69h465v-69h-99v-1262h99v-69h-465zM-9 1547v69h603v-69h-603z" />
    <glyph glyph-name="imacron" unicode="&#x12b;" horiz-adv-x="513" 
d="M25 0v69h97v909h-97v69h367v-978h97v-69h-464zM13 1144v69h489v-69h-489z" />
    <glyph glyph-name="ibreve" unicode="&#x12d;" horiz-adv-x="513" 
d="M25 0v69h97v909h-97v69h367v-978h97v-69h-464zM255 1105q-63 0 -102 29.5t-57 75t-18 92.5h67q6 -61 36.5 -90.5t73.5 -29.5q44 0 75 29.5t36 90.5h67q0 -47 -18 -92.5t-57 -75t-103 -29.5z" />
    <glyph glyph-name="Iogonek" unicode="&#x12e;" horiz-adv-x="582" 
d="M59 0v69h98v1262h-98v69h465v-69h-99v-1262h99v-69h-465zM520 -304q-43 0 -80.5 14t-60.5 44t-23 77q0 54 25 91.5t58 62t57 38.5l28 -23q-22 -26 -39 -58t-17 -80q0 -41 29 -57t56 -16q26 0 49 6.5t38 16.5l34 -63q-25 -24 -66 -38.5t-88 -14.5z" />
    <glyph glyph-name="iogonek" unicode="&#x12f;" horiz-adv-x="576" 
d="M267 1154q-69 0 -119.5 50t-50.5 118q0 69 50.5 120t119.5 51q64 0 114.5 -51t50.5 -120q0 -45 -23.5 -83t-61 -61.5t-80.5 -23.5zM32 0v69h96v909h-96v69h366v-978h97v-69h-463zM491 -304q-43 0 -80.5 14t-60.5 44t-23 77q0 54 25 91.5t58 62t57 38.5l28 -23
q-22 -26 -39 -58t-17 -80q0 -41 29 -57t56 -16q26 0 49 6.5t39 16.5l33 -63q-25 -24 -66 -38.5t-88 -14.5z" />
    <glyph glyph-name="Idotaccent" unicode="&#x130;" horiz-adv-x="582" 
d="M59 0v69h98v1262h-98v69h465v-69h-99v-1262h99v-69h-465zM293 1502q-38 0 -65.5 28t-27.5 64q0 38 27.5 66t65.5 28q35 0 62.5 -28t27.5 -66q0 -36 -27.5 -64t-62.5 -28z" />
    <glyph glyph-name="dotlessi" unicode="&#x131;" horiz-adv-x="513" 
d="M25 0v69h97v909h-97v69h367v-978h97v-69h-464z" />
    <glyph glyph-name="jcircumflex" unicode="&#x135;" horiz-adv-x="558" 
d="M123 -498q-66 0 -116 36t-78.5 97t-28.5 136q0 72 32.5 108.5t80.5 36.5q45 0 69.5 -32.5t24.5 -90.5q0 -37 -11.5 -62t-23.5 -45.5t-12 -44.5q0 -19 4.5 -34.5t15 -24.5t26.5 -9q46 0 60 50t14 154v1201h-113v69h383v-1088q0 -139 -30.5 -229t-80 -139.5t-106.5 -69
t-110 -19.5zM124 1124l148 206h69l146 -206h-82l-100 133l-99 -133h-82z" />
    <glyph glyph-name="uni0136" unicode="&#x136;" horiz-adv-x="915" 
d="M29 0v69h92v1262h-92v69h458v-69h-99v-566l303 566h-89v69h252v-69h-83l-221 -414l23 71l244 -919h71v-69h-420v69h63l-175 676l32 -16v-660h65v-69h-424zM445 -368l-39 45q14 6 37 22.5t30 34.5q-6 -4 -18 -4q-35 0 -59.5 24.5t-24.5 60.5t24.5 60.5t60.5 24.5
q38 0 65.5 -24t27.5 -72q0 -49 -19 -83t-43.5 -55.5t-41.5 -33.5z" />
    <glyph glyph-name="uni0137" unicode="&#x137;" horiz-adv-x="908" 
d="M25 0v69h101v1362h-101v69h371v-812l228 290h-103v69h301v-69h-112l-109 -149l235 -760h86v-69h-453v69h79l-156 518l4 -7v-511h64v-69h-435zM444 -368l-39 45q14 6 37 22.5t30 34.5q-6 -4 -18 -4q-35 0 -59.5 24.5t-24.5 60.5t24.5 60.5t60.5 24.5q38 0 65.5 -24
t27.5 -72q0 -49 -19 -83t-43.5 -55.5t-41.5 -33.5z" />
    <glyph glyph-name="kgreenlandic" unicode="&#x138;" horiz-adv-x="915" 
d="M29 0v69h92v908h-92v69h458v-69h-99v-390l303 390h-89v69h252v-69h-83l-221 -292l23 53l244 -669h71v-69h-420v69h63l-175 488l32 -12v-476h65v-69h-424z" />
    <glyph glyph-name="Lacute" unicode="&#x139;" horiz-adv-x="714" 
d="M49 0v69h89v1262h-89v69h450v-69h-92v-1262h37q45 0 76 37.5t47 101.5t16 144h68v-352h-602zM164 1444l-51 54l188 148q14 11 28.5 17.5t27.5 6.5q18 0 32.5 -9.5t21.5 -23.5q8 -13 8 -29q0 -18 -13 -35t-41 -28z" />
    <glyph glyph-name="lacute" unicode="&#x13a;" horiz-adv-x="537" 
d="M29 0v69h105v1362h-105v69h375v-1431h105v-69h-480zM164 1540l-51 54l188 147q14 12 28.5 18.5t27.5 6.5q18 0 32.5 -9.5t21.5 -23.5q8 -14 8 -29q0 -19 -13 -35.5t-41 -27.5z" />
    <glyph glyph-name="uni013B" unicode="&#x13b;" horiz-adv-x="714" 
d="M49 0v69h89v1262h-89v69h450v-69h-92v-1262h37q45 0 76 37.5t47 101.5t16 144h68v-352h-602zM354 -368l-39 45q14 6 37 22.5t30 34.5q-6 -4 -18 -4q-35 0 -59.5 24.5t-24.5 60.5t24.5 60.5t60.5 24.5q38 0 65.5 -24t27.5 -72q0 -49 -19 -83t-43.5 -55.5t-41.5 -33.5z" />
    <glyph glyph-name="uni013C" unicode="&#x13c;" horiz-adv-x="537" 
d="M29 0v69h105v1362h-105v69h375v-1431h105v-69h-480zM260 -368l-39 45q14 6 37 22.5t30 34.5q-6 -4 -18 -4q-35 0 -59.5 24.5t-24.5 60.5t24.5 60.5t60.5 24.5q38 0 65.5 -24t27.5 -72q0 -49 -19 -83t-43.5 -55.5t-41.5 -33.5z" />
    <glyph glyph-name="Lcaron" unicode="&#x13d;" horiz-adv-x="743" 
d="M558 1168q12 47 14.5 108.5t2.5 114.5q0 61 27 80.5t56 19.5t54.5 -18t25.5 -71q0 -76 -36 -147t-77 -115zM49 0v69h89v1262h-89v69h450v-69h-92v-1262h37q45 0 76 37.5t47 101.5t16 144h68v-352h-602z" />
    <glyph glyph-name="lcaron" unicode="&#x13e;" horiz-adv-x="651" 
d="M466 1168q11 47 13.5 108.5t2.5 114.5q0 61 27.5 80.5t56.5 19.5t54 -18t25 -71q0 -76 -35.5 -147t-76.5 -115zM29 0v69h105v1362h-105v69h375v-1431h105v-69h-480z" />
    <glyph glyph-name="ldot" unicode="&#x140;" horiz-adv-x="632" 
d="M29 0v69h105v1362h-105v69h375v-1431h105v-69h-480zM609 655q-59 0 -101 43t-42 102q0 60 42 103t101 43q60 0 102 -43t42 -103q0 -59 -42 -102t-102 -43z" />
    <glyph glyph-name="Lslash" unicode="&#x141;" horiz-adv-x="760" 
d="M44 431v79l502 361v-78zM49 0v69h89v1262h-89v69h450v-69h-92v-1262h37q45 0 76 37.5t47 101.5t16 144h68v-352h-602z" />
    <glyph glyph-name="lslash" unicode="&#x142;" horiz-adv-x="571" 
d="M34 427v83l454 354v-77zM29 0v69h105v1362h-105v69h375v-1431h105v-69h-480z" />
    <glyph glyph-name="Nacute" unicode="&#x143;" horiz-adv-x="843" 
d="M29 0v69h93v1262h-93v69h385l255 -784h-14v715h-88v69h247v-69h-89v-1331h-147l-404 1246h18v-1177h90v-69h-253zM322 1444l-51 54l188 148q14 11 28.5 17.5t27.5 6.5q18 0 32.5 -9.5t21.5 -23.5q8 -13 8 -29q0 -18 -13 -35t-41 -28z" />
    <glyph glyph-name="nacute" unicode="&#x144;" horiz-adv-x="938" 
d="M32 0v69h104v909h-104v69h368v-105q3 14 23.5 42.5t60 52t99.5 23.5q66 0 119 -27.5t83.5 -100t30.5 -208.5v-655h102v-69h-439v69h67v653q0 107 -12.5 159t-44.5 52q-18 0 -32 -13t-25 -37.5t-17.5 -57.5t-8.5 -73v-683h65v-69h-439zM373 1087l-51 54l188 147
q14 12 28.5 18.5t27.5 6.5q18 0 32.5 -9.5t21.5 -23.5q8 -14 8 -29q0 -19 -13 -35.5t-41 -27.5z" />
    <glyph glyph-name="uni0145" unicode="&#x145;" horiz-adv-x="843" 
d="M29 0v69h93v1262h-93v69h385l255 -784h-14v715h-88v69h247v-69h-89v-1331h-147l-404 1246h18v-1177h90v-69h-253zM418 -368l-39 45q14 6 37 22.5t30 34.5q-6 -4 -18 -4q-35 0 -59.5 24.5t-24.5 60.5t24.5 60.5t60.5 24.5q38 0 65.5 -24t27.5 -72q0 -49 -19 -83
t-43.5 -55.5t-41.5 -33.5z" />
    <glyph glyph-name="uni0146" unicode="&#x146;" horiz-adv-x="938" 
d="M32 0v69h104v909h-104v69h368v-105q3 14 23.5 42.5t60 52t99.5 23.5q66 0 119 -27.5t83.5 -100t30.5 -208.5v-655h102v-69h-439v69h67v653q0 107 -12.5 159t-44.5 52q-18 0 -32 -13t-25 -37.5t-17.5 -57.5t-8.5 -73v-683h65v-69h-439zM469 -368l-39 45q14 6 37 22.5
t30 34.5q-6 -4 -18 -4q-35 0 -59.5 24.5t-24.5 60.5t24.5 60.5t60.5 24.5q38 0 65.5 -24t27.5 -72q0 -49 -19 -83t-43.5 -55.5t-41.5 -33.5z" />
    <glyph glyph-name="Ncaron" unicode="&#x147;" horiz-adv-x="843" 
d="M29 0v69h93v1262h-93v69h385l255 -784h-14v715h-88v69h247v-69h-89v-1331h-147l-404 1246h18v-1177h90v-69h-253zM395 1473l-169 226h90l113 -153l113 153h92l-169 -226h-70z" />
    <glyph glyph-name="ncaron" unicode="&#x148;" horiz-adv-x="938" 
d="M32 0v69h104v909h-104v69h368v-105q3 14 23.5 42.5t60 52t99.5 23.5q66 0 119 -27.5t83.5 -100t30.5 -208.5v-655h102v-69h-439v69h67v653q0 107 -12.5 159t-44.5 52q-18 0 -32 -13t-25 -37.5t-17.5 -57.5t-8.5 -73v-683h65v-69h-439zM445 1110l-169 226h90l113 -153
l113 153h92l-169 -226h-70z" />
    <glyph glyph-name="Eng" unicode="&#x14a;" horiz-adv-x="843" 
d="M561 -394q-52 0 -94.5 22t-67.5 67t-25 115q0 57 29.5 85.5t68.5 28.5q31 0 57 -19t26 -68q0 -40 -15 -61.5t-15 -50.5q0 -22 11.5 -36.5t33.5 -14.5q30 0 48 26t27 67.5t9 88.5v162h71v-170q0 -52 -10.5 -96t-31.5 -77t-51.5 -51t-70.5 -18zM29 0v69h93v1262h-93v69h385
l255 -784h-14v715h-88v69h247v-69h-89v-1331h-147l-404 1246h18v-1177h90v-69h-253z" />
    <glyph glyph-name="eng" unicode="&#x14b;" horiz-adv-x="914" 
d="M479 -429q-78 0 -127 64.5t-49 164.5q0 59 24 93.5t66 34.5q38 0 60 -33t22 -82q0 -32 -12.5 -54t-25.5 -38.5t-13 -33.5q0 -15 6.5 -26t19 -17t31.5 -6q24 0 38 26t21 68.5t9 94t2 102.5v763q0 118 -14 171.5t-52 53.5q-19 0 -32.5 -15.5t-21 -41t-11 -55t-3.5 -59.5
v-677h73v-69h-438v69h95v909h-95v69h358v-98q7 14 28 39t56 45t84 20q80 0 134 -32.5t81.5 -107.5t27.5 -200v-787q0 -129 -49 -207t-127 -113t-166 -35z" />
    <glyph glyph-name="Omacron" unicode="&#x14c;" horiz-adv-x="869" 
d="M437 -22q-108 0 -192 84t-132 244.5t-48 391.5q0 232 48 393.5t132 246t192 84.5q109 0 194 -84.5t134.5 -246t49.5 -393.5q0 -231 -49.5 -391.5t-134.5 -244.5t-194 -84zM437 47q26 0 43.5 41.5t28 124.5t15 204.5t4.5 280.5t-4.5 281t-15 205.5t-28 126t-43.5 42.5
t-42.5 -42.5t-26 -126t-13.5 -205.5t-4 -281t4 -280.5t13.5 -204.5t26 -124.5t42.5 -41.5zM136 1547v69h603v-69h-603z" />
    <glyph glyph-name="omacron" unicode="&#x14d;" horiz-adv-x="818" 
d="M407 -22q-60 0 -122.5 33t-115.5 101t-84.5 171.5t-31.5 243.5q0 152 33 255t86.5 164t115.5 87.5t119 26.5q58 0 120 -26.5t116 -87.5t87.5 -164t33.5 -255q0 -140 -32 -243.5t-85 -171.5t-116 -101t-124 -33zM407 57q42 0 63 112t21 358q0 245 -21 350.5t-63 105.5
q-39 0 -60 -105.5t-21 -350.5q0 -246 21 -358t60 -112zM163 1144v69h489v-69h-489z" />
    <glyph glyph-name="obreve" unicode="&#x14f;" horiz-adv-x="818" 
d="M407 -22q-60 0 -122.5 33t-115.5 101t-84.5 171.5t-31.5 243.5q0 152 33 255t86.5 164t115.5 87.5t119 26.5q58 0 120 -26.5t116 -87.5t87.5 -164t33.5 -255q0 -140 -32 -243.5t-85 -171.5t-116 -101t-124 -33zM407 57q42 0 63 112t21 358q0 245 -21 350.5t-63 105.5
q-39 0 -60 -105.5t-21 -350.5q0 -246 21 -358t60 -112zM405 1105q-63 0 -102 29.5t-57 75t-18 92.5h67q6 -61 36.5 -90.5t73.5 -29.5q44 0 75 29.5t36 90.5h67q0 -47 -18 -92.5t-57 -75t-103 -29.5z" />
    <glyph glyph-name="Ohungarumlaut" unicode="&#x150;" horiz-adv-x="869" 
d="M437 -22q-108 0 -192 84t-132 244.5t-48 391.5q0 232 48 393.5t132 246t192 84.5q109 0 194 -84.5t134.5 -246t49.5 -393.5q0 -231 -49.5 -391.5t-134.5 -244.5t-194 -84zM437 47q26 0 43.5 41.5t28 124.5t15 204.5t4.5 280.5t-4.5 281t-15 205.5t-28 126t-43.5 42.5
t-42.5 -42.5t-26 -126t-13.5 -205.5t-4 -281t4 -280.5t13.5 -204.5t26 -124.5t42.5 -41.5zM342 1479l-49 50l126 154q13 17 26 25t25 8q21 0 35.5 -14.5t14.5 -35.5q0 -29 -32 -52zM480 1479l-48 50l123 154q13 17 26.5 25t26.5 8q20 0 35 -15t15 -35q0 -30 -32 -52z" />
    <glyph glyph-name="ohungarumlaut" unicode="&#x151;" horiz-adv-x="818" 
d="M407 -22q-60 0 -122.5 33t-115.5 101t-84.5 171.5t-31.5 243.5q0 152 33 255t86.5 164t115.5 87.5t119 26.5q58 0 120 -26.5t116 -87.5t87.5 -164t33.5 -255q0 -140 -32 -243.5t-85 -171.5t-116 -101t-124 -33zM407 57q42 0 63 112t21 358q0 245 -21 350.5t-63 105.5
q-39 0 -60 -105.5t-21 -350.5q0 -246 21 -358t60 -112zM262 1115l-49 50l126 154q13 17 26 25t25 8q21 0 35.5 -14.5t14.5 -35.5q0 -29 -32 -52zM400 1115l-48 50l123 154q13 17 26.5 25t26.5 8q20 0 35 -15t15 -35q0 -30 -32 -52z" />
    <glyph glyph-name="OE" unicode="&#x152;" horiz-adv-x="1169" 
d="M433 -22q-109 0 -192 95t-129.5 257.5t-46.5 367.5q0 206 46.5 369.5t130 259t191.5 95.5q59 0 110.5 -26.5t87.5 -81.5l-61 -55q-14 52 -45.5 73.5t-52.5 20.5q-42 0 -69 -50.5t-42 -140.5t-21.5 -209t-6.5 -255t7 -254.5t23 -208t42.5 -139t66.5 -49.5q22 0 45 17.5
t39.5 43.5t17.5 49l66 -52q-38 -64 -90.5 -95.5t-116.5 -31.5zM533 0v1400h562v-349h-68q0 81 -8.5 144.5t-41 99.5t-105.5 36h-71v-576h221v96h68v-258h-68v93h-221v-617h70q74 0 106.5 37t41 101t8.5 145h68v-352h-562z" />
    <glyph glyph-name="oe" unicode="&#x153;" horiz-adv-x="1252" 
d="M407 -22q-60 0 -122.5 33t-115.5 101t-84.5 171.5t-31.5 243.5q0 152 33 255t86.5 164t115.5 87.5t119 26.5q58 0 120 -26.5t116 -87.5t87.5 -164t33.5 -255q0 -140 -32 -243.5t-85 -171.5t-116 -101t-124 -33zM407 57q42 0 63 112t21 358q0 245 -21 350.5t-63 105.5
q-39 0 -60 -105.5t-21 -350.5q0 -246 21 -358t60 -112zM872 -21q-80 0 -148 34.5t-117.5 103t-77 171t-27.5 238.5q0 145 34.5 247t89.5 165.5t118 92.5t121 29q70 0 130.5 -33t106 -94t71.5 -146.5t26 -191.5q0 -20 -0.5 -40t-2.5 -40h-438v68h184q0 157 -9 245.5t-26 125
t-42 36.5t-46 -37.5t-33.5 -133t-12.5 -269.5q0 -129 7 -222.5t23 -153t41.5 -88t64.5 -28.5q77 0 123.5 38t65.5 78l57 -44q-24 -55 -100 -103t-183 -48z" />
    <glyph glyph-name="Racute" unicode="&#x154;" horiz-adv-x="957" 
d="M780 -18q-99 0 -145 42.5t-59.5 118.5t-13.5 175q0 55 2 105t2 83q0 71 -10 110t-33.5 54.5t-65.5 15.5h-39v-617h101v-69h-474v69h106v1262h-106v69h474q90 0 164 -33.5t118 -105t44 -186.5q0 -87 -28 -151t-73 -106t-96.5 -65.5t-98.5 -30.5q115 -6 177 -40t86 -104.5
t24 -188.5q0 -52 -3 -101.5t-3 -92.5q0 -28 2.5 -57.5t9.5 -49t20 -19.5t19 9.5t7 22.5h64q-6 -42 -28 -68t-58.5 -38.5t-85.5 -12.5zM418 755h43q36 0 60.5 41.5t37 113t12.5 161.5q0 85 -12.5 143t-37 87.5t-59.5 29.5h-44v-576zM375 1444l-51 54l188 148q14 11 28.5 17.5
t27.5 6.5q18 0 32.5 -9.5t21.5 -23.5q8 -13 8 -29q0 -18 -13 -35t-41 -28z" />
    <glyph glyph-name="racute" unicode="&#x155;" horiz-adv-x="747" 
d="M26 0v69h104v909h-104v69h351l15 -92q5 17 25 42t52 44t73 19q60 0 99.5 -38t59.5 -102t20 -141q0 -71 -28.5 -108.5t-76.5 -37.5q-45 0 -72.5 32.5t-27.5 88.5q0 38 16 61.5t31 45t15 53.5q0 35 -12.5 51.5t-41.5 16.5q-28 0 -57 -28.5t-48 -86t-19 -141.5v-657h103v-69
h-477zM349 1088l-51 54l188 147q14 12 28.5 18.5t27.5 6.5q18 0 32.5 -9.5t21.5 -23.5q8 -14 8 -29q0 -19 -13 -35.5t-41 -27.5z" />
    <glyph glyph-name="uni0156" unicode="&#x156;" horiz-adv-x="957" 
d="M780 -18q-99 0 -145 42.5t-59.5 118.5t-13.5 175q0 55 2 105t2 83q0 71 -10 110t-33.5 54.5t-65.5 15.5h-39v-617h101v-69h-474v69h106v1262h-106v69h474q90 0 164 -33.5t118 -105t44 -186.5q0 -87 -28 -151t-73 -106t-96.5 -65.5t-98.5 -30.5q115 -6 177 -40t86 -104.5
t24 -188.5q0 -52 -3 -101.5t-3 -92.5q0 -28 2.5 -57.5t9.5 -49t20 -19.5t19 9.5t7 22.5h64q-6 -42 -28 -68t-58.5 -38.5t-85.5 -12.5zM418 755h43q36 0 60.5 41.5t37 113t12.5 161.5q0 85 -12.5 143t-37 87.5t-59.5 29.5h-44v-576zM471 -368l-39 45q14 6 37 22.5t30 34.5
q-6 -4 -18 -4q-35 0 -59.5 24.5t-24.5 60.5t24.5 60.5t60.5 24.5q38 0 65.5 -24t27.5 -72q0 -49 -19 -83t-43.5 -55.5t-41.5 -33.5z" />
    <glyph glyph-name="uni0157" unicode="&#x157;" horiz-adv-x="747" 
d="M26 0v69h104v909h-104v69h351l15 -92q5 17 25 42t52 44t73 19q60 0 99.5 -38t59.5 -102t20 -141q0 -71 -28.5 -108.5t-76.5 -37.5q-45 0 -72.5 32.5t-27.5 88.5q0 38 16 61.5t31 45t15 53.5q0 35 -12.5 51.5t-41.5 16.5q-28 0 -57 -28.5t-48 -86t-19 -141.5v-657h103v-69
h-477zM287 -368l-39 45q14 6 37 22.5t30 34.5q-6 -4 -18 -4q-35 0 -59.5 24.5t-24.5 60.5t24.5 60.5t60.5 24.5q38 0 65.5 -24t27.5 -72q0 -49 -19 -83t-43.5 -55.5t-41.5 -33.5z" />
    <glyph glyph-name="Rcaron" unicode="&#x158;" horiz-adv-x="957" 
d="M780 -18q-99 0 -145 42.5t-59.5 118.5t-13.5 175q0 55 2 105t2 83q0 71 -10 110t-33.5 54.5t-65.5 15.5h-39v-617h101v-69h-474v69h106v1262h-106v69h474q90 0 164 -33.5t118 -105t44 -186.5q0 -87 -28 -151t-73 -106t-96.5 -65.5t-98.5 -30.5q115 -6 177 -40t86 -104.5
t24 -188.5q0 -52 -3 -101.5t-3 -92.5q0 -28 2.5 -57.5t9.5 -49t20 -19.5t19 9.5t7 22.5h64q-6 -42 -28 -68t-58.5 -38.5t-85.5 -12.5zM418 755h43q36 0 60.5 41.5t37 113t12.5 161.5q0 85 -12.5 143t-37 87.5t-59.5 29.5h-44v-576zM448 1473l-169 226h90l113 -153l113 153
h92l-169 -226h-70z" />
    <glyph glyph-name="rcaron" unicode="&#x159;" horiz-adv-x="747" 
d="M26 0v69h104v909h-104v69h351l15 -92q5 17 25 42t52 44t73 19q60 0 99.5 -38t59.5 -102t20 -141q0 -71 -28.5 -108.5t-76.5 -37.5q-45 0 -72.5 32.5t-27.5 88.5q0 38 16 61.5t31 45t15 53.5q0 35 -12.5 51.5t-41.5 16.5q-28 0 -57 -28.5t-48 -86t-19 -141.5v-657h103v-69
h-477zM421 1111l-169 226h90l113 -153l113 153h92l-169 -226h-70z" />
    <glyph glyph-name="Sacute" unicode="&#x15a;" horiz-adv-x="702" 
d="M362 -27q-56 0 -90.5 12.5t-55.5 29t-35 28.5t-29 12q-28 0 -28 -55h-65v355h68q1 -20 11 -57t28.5 -80t46.5 -82.5t64.5 -65t82.5 -25.5q38 0 62 15t34.5 46t10.5 78q0 59 -26.5 118.5t-74 127t-111.5 148.5q-79 100 -122 184t-59.5 159.5t-16.5 152.5q0 117 40 194
t102.5 115.5t130.5 38.5q60 0 93.5 -18.5t53 -36.5t37.5 -18q13 0 20 10t8 41h66v-352h-69q-2 29 -15.5 79t-38.5 101.5t-63 87t-88 35.5q-51 0 -78 -37t-27 -106q0 -53 26 -113t75.5 -127.5t116.5 -145.5q71 -80 115.5 -155.5t65.5 -155t21 -169.5q0 -111 -27 -182.5
t-69.5 -112t-93 -57.5t-97.5 -17zM251 1444l-51 54l188 148q14 11 28.5 17.5t27.5 6.5q18 0 32.5 -9.5t21.5 -23.5q8 -13 8 -29q0 -18 -13 -35t-41 -28z" />
    <glyph glyph-name="sacute" unicode="&#x15b;" horiz-adv-x="629" 
d="M318 -22q-58 0 -90 15t-51 30t-36 15q-15 0 -20.5 -9.5t-5.5 -28.5h-64v337h76q5 -51 21.5 -102.5t41.5 -94t57 -68t70 -25.5q31 0 51 11t29.5 32t9.5 49q0 41 -20 82t-55.5 85.5t-82.5 91.5q-84 87 -140.5 177t-56.5 217q0 96 38.5 155t98.5 86t124 27q46 0 74 -12.5
t45.5 -25t29.5 -12.5q10 0 16 8.5t6 28.5h65v-328h-75q-4 43 -15.5 90.5t-31 88.5t-47 66.5t-63.5 25.5q-46 0 -70.5 -34.5t-24.5 -80.5q0 -56 42.5 -109t112.5 -120q52 -50 98 -107t75 -127.5t29 -160.5q0 -99 -33.5 -159t-92.5 -87t-135 -27zM223 1087l-51 54l188 147
q14 12 28.5 18.5t27.5 6.5q18 0 32.5 -9.5t21.5 -23.5q8 -14 8 -29q0 -19 -13 -35.5t-41 -27.5z" />
    <glyph glyph-name="scircumflex" unicode="&#x15d;" horiz-adv-x="629" 
d="M318 -22q-58 0 -90 15t-51 30t-36 15q-15 0 -20.5 -9.5t-5.5 -28.5h-64v337h76q5 -51 21.5 -102.5t41.5 -94t57 -68t70 -25.5q31 0 51 11t29.5 32t9.5 49q0 41 -20 82t-55.5 85.5t-82.5 91.5q-84 87 -140.5 177t-56.5 217q0 96 38.5 155t98.5 86t124 27q46 0 74 -12.5
t45.5 -25t29.5 -12.5q10 0 16 8.5t6 28.5h65v-328h-75q-4 43 -15.5 90.5t-31 88.5t-47 66.5t-63.5 25.5q-46 0 -70.5 -34.5t-24.5 -80.5q0 -56 42.5 -109t112.5 -120q52 -50 98 -107t75 -127.5t29 -160.5q0 -99 -33.5 -159t-92.5 -87t-135 -27zM148 1125l148 206h69
l146 -206h-82l-100 133l-99 -133h-82z" />
    <glyph glyph-name="Scedilla" unicode="&#x15e;" horiz-adv-x="702" 
d="M362 -27q-56 0 -90.5 12.5t-55.5 29t-35 28.5t-29 12q-28 0 -28 -55h-65v355h68q1 -20 11 -57t28.5 -80t46.5 -82.5t64.5 -65t82.5 -25.5q38 0 62 15t34.5 46t10.5 78q0 59 -26.5 118.5t-74 127t-111.5 148.5q-79 100 -122 184t-59.5 159.5t-16.5 152.5q0 117 40 194
t102.5 115.5t130.5 38.5q60 0 93.5 -18.5t53 -36.5t37.5 -18q13 0 20 10t8 41h66v-352h-69q-2 29 -15.5 79t-38.5 101.5t-63 87t-88 35.5q-51 0 -78 -37t-27 -106q0 -53 26 -113t75.5 -127.5t116.5 -145.5q71 -80 115.5 -155.5t65.5 -155t21 -169.5q0 -111 -27 -182.5
t-69.5 -112t-93 -57.5t-97.5 -17zM377 -327q-48 0 -93 11.5t-60 19.5l26 66q11 -7 44.5 -18.5t65.5 -11.5t53.5 17t21.5 47q0 33 -14.5 43.5t-34.5 10.5q-16 0 -30 -6t-25 -19l-64 4l60 162h68l-43 -110q6 8 32 18t61 10q42 0 77 -25.5t35 -87.5q0 -42 -22.5 -71t-63 -44.5
t-94.5 -15.5z" />
    <glyph glyph-name="scedilla" unicode="&#x15f;" horiz-adv-x="629" 
d="M318 -22q-58 0 -90 15t-51 30t-36 15q-15 0 -20.5 -9.5t-5.5 -28.5h-64v337h68q6 -51 21.5 -102.5t40 -94t58.5 -68t78 -25.5q31 0 51 11t29.5 32t9.5 49q0 41 -20 82t-55.5 85.5t-82.5 91.5q-84 87 -140.5 177t-56.5 217q0 85 38.5 145t98.5 91.5t124 31.5
q46 0 74 -12.5t45.5 -25t29.5 -12.5q10 0 16 8.5t6 28.5h65v-328h-68q-3 43 -14 90.5t-30.5 88.5t-48.5 66.5t-71 25.5q-46 0 -70.5 -34.5t-24.5 -80.5q0 -56 42.5 -109t112.5 -120q52 -50 98 -107t75 -127.5t29 -160.5q0 -132 -73.5 -202.5t-187.5 -70.5zM343 -327
q-48 0 -93 11.5t-60 20.5l26 65q11 -7 44.5 -18t65.5 -11t53.5 16.5t21.5 46.5q0 33 -14.5 43.5t-34.5 10.5q-16 0 -30 -5.5t-25 -19.5l-64 4l60 163h69l-44 -110q6 7 32 17t61 10q42 0 77 -25.5t35 -87.5q0 -41 -22.5 -70.5t-63 -45t-94.5 -15.5z" />
    <glyph glyph-name="Scaron" unicode="&#x160;" horiz-adv-x="702" 
d="M362 -27q-56 0 -90.5 12.5t-55.5 29t-35 28.5t-29 12q-28 0 -28 -55h-65v355h68q1 -20 11 -57t28.5 -80t46.5 -82.5t64.5 -65t82.5 -25.5q38 0 62 15t34.5 46t10.5 78q0 59 -26.5 118.5t-74 127t-111.5 148.5q-79 100 -122 184t-59.5 159.5t-16.5 152.5q0 117 40 194
t102.5 115.5t130.5 38.5q60 0 93.5 -18.5t53 -36.5t37.5 -18q13 0 20 10t8 41h66v-352h-69q-2 29 -15.5 79t-38.5 101.5t-63 87t-88 35.5q-51 0 -78 -37t-27 -106q0 -53 26 -113t75.5 -127.5t116.5 -145.5q71 -80 115.5 -155.5t65.5 -155t21 -169.5q0 -111 -27 -182.5
t-69.5 -112t-93 -57.5t-97.5 -17zM323 1473l-169 226h90l113 -153l113 153h92l-169 -226h-70z" />
    <glyph glyph-name="scaron" unicode="&#x161;" horiz-adv-x="629" 
d="M318 -22q-58 0 -90 15t-51 30t-36 15q-15 0 -20.5 -9.5t-5.5 -28.5h-64v337h76q5 -51 21.5 -102.5t41.5 -94t57 -68t70 -25.5q31 0 51 11t29.5 32t9.5 49q0 41 -20 82t-55.5 85.5t-82.5 91.5q-84 87 -140.5 177t-56.5 217q0 96 38.5 155t98.5 86t124 27q46 0 74 -12.5
t45.5 -25t29.5 -12.5q10 0 16 8.5t6 28.5h65v-328h-75q-4 43 -15.5 90.5t-31 88.5t-47 66.5t-63.5 25.5q-46 0 -70.5 -34.5t-24.5 -80.5q0 -56 42.5 -109t112.5 -120q52 -50 98 -107t75 -127.5t29 -160.5q0 -99 -33.5 -159t-92.5 -87t-135 -27zM295 1110l-169 226h90
l113 -153l113 153h92l-169 -226h-70z" />
    <glyph glyph-name="uni0162" unicode="&#x162;" horiz-adv-x="830" 
d="M167 0v69h114v1262h-15q-65 0 -99 -31.5t-47 -93.5t-13 -155h-69v349h754v-349h-69q0 93 -12.5 155t-46.5 93.5t-99 31.5h-15v-1262h117v-69h-500zM432 -326q-48 0 -93 11.5t-60 19.5l26 65q11 -6 44.5 -17.5t65.5 -11.5t53.5 17t21.5 47q0 33 -14.5 43.5t-34.5 10.5
q-16 0 -30 -6t-25 -19l-64 4l60 162h68l-43 -110q6 7 32 17.5t61 10.5q42 0 77 -25.5t35 -87.5q0 -42 -22.5 -71.5t-63 -44.5t-94.5 -15z" />
    <glyph glyph-name="uni0163" unicode="&#x163;" horiz-adv-x="591" 
d="M400 -18q-66 0 -126 21.5t-97 80.5t-37 169v725h-142v69h142q51 4 92 48t68 111.5t37 144.5h73v-304h163v-69h-163v-847q0 -41 20 -56t38 -15q19 0 34.5 7t22.5 15l39 -54q-28 -21 -67.5 -33.5t-96.5 -12.5zM388 -308q-48 0 -93 11.5t-60 19.5l26 65q11 -6 44.5 -17.5
t65.5 -11.5t53 17t21 47q0 33 -14 43.5t-34 10.5q-16 0 -30 -6t-25 -19l-64 4l60 162h68l-43 -110q6 7 32 17.5t61 10.5q42 0 77 -25.5t35 -87.5q0 -42 -22.5 -71.5t-63 -44.5t-94.5 -15z" />
    <glyph glyph-name="Tcaron" unicode="&#x164;" horiz-adv-x="830" 
d="M167 0v69h114v1262h-15q-65 0 -99 -31.5t-47 -93.5t-13 -155h-69v349h754v-349h-69q0 93 -12.5 155t-46.5 93.5t-99 31.5h-15v-1262h117v-69h-500zM381 1476l-169 226h90l113 -153l113 153h92l-169 -226h-70z" />
    <glyph glyph-name="tcaron" unicode="&#x165;" horiz-adv-x="693" 
d="M514 1168q12 47 14.5 108.5t2.5 114.5q0 61 27 80.5t56 19.5t54 -18t25 -71q0 -76 -35.5 -147t-76.5 -115zM400 -18q-66 0 -126 21.5t-97 80.5t-37 169v725h-142v69h142q51 4 92 48t68 111.5t37 144.5h73v-304h163v-69h-163v-847q0 -41 20 -56t38 -15q19 0 34.5 7
t22.5 15l39 -54q-28 -21 -67.5 -33.5t-96.5 -12.5z" />
    <glyph glyph-name="Tbar" unicode="&#x166;" horiz-adv-x="830" 
d="M110 668v69h605v-69h-605zM167 0v69h114v1262h-15q-65 0 -99 -31.5t-47 -93.5t-13 -155h-69v349h754v-349h-69q0 93 -12.5 155t-46.5 93.5t-99 31.5h-15v-1262h117v-69h-500z" />
    <glyph glyph-name="tbar" unicode="&#x167;" horiz-adv-x="591" 
d="M26 621v54h525v-54h-525zM400 -18q-66 0 -126 21.5t-97 80.5t-37 169v725h-142v69h142q51 4 92 48t68 111.5t37 144.5h73v-304h163v-69h-163v-847q0 -41 20 -56t38 -15q19 0 34.5 7t22.5 15l39 -54q-28 -21 -67.5 -33.5t-96.5 -12.5z" />
    <glyph glyph-name="Utilde" unicode="&#x168;" horiz-adv-x="837" 
d="M446 -24q-50 0 -105 14t-102.5 53t-77 112t-29.5 191v985h-99v69h480v-69h-107v-997q0 -139 26.5 -205t86.5 -66q22 0 43 10.5t39 36.5t28 72.5t10 118.5v1030h-88v69h253v-69h-94v-1032q0 -126 -32.5 -196.5t-91.5 -98.5t-140 -28zM523 1492q-40 0 -65 13.5t-45 27
t-44 13.5q-35 0 -53 -15t-23 -23l-68 26q5 17 23 42t45.5 44t61.5 19q44 0 68.5 -13t45 -26t50.5 -13q35 0 49.5 13t18.5 24l67 -28q-3 -13 -20 -37.5t-45 -45.5t-66 -21z" />
    <glyph glyph-name="utilde" unicode="&#x169;" horiz-adv-x="910" 
d="M367 -22q-71 0 -127.5 26.5t-89.5 97t-33 205.5v671h-97v68h367v-708q0 -100 5 -154t19 -74.5t38 -20.5t44 26.5t31.5 77t11.5 123.5v662h-84v68h354v-977h84v-69h-324l-15 99q-5 -23 -28 -51.5t-62.5 -49t-93.5 -20.5zM550 1144q-40 0 -65 14t-45 27t-44 13
q-35 0 -53 -14.5t-23 -23.5l-68 26q5 18 23 42.5t45.5 43.5t61.5 19q44 0 68.5 -12.5t45 -26t50.5 -13.5q35 0 49.5 13.5t18.5 23.5l67 -28q-3 -13 -20 -37.5t-45 -45.5t-66 -21z" />
    <glyph glyph-name="Umacron" unicode="&#x16a;" horiz-adv-x="837" 
d="M446 -24q-50 0 -105 14t-102.5 53t-77 112t-29.5 191v985h-99v69h480v-69h-107v-997q0 -139 26.5 -205t86.5 -66q22 0 43 10.5t39 36.5t28 72.5t10 118.5v1030h-88v69h253v-69h-94v-1032q0 -126 -32.5 -196.5t-91.5 -98.5t-140 -28zM138 1547v69h603v-69h-603z" />
    <glyph glyph-name="umacron" unicode="&#x16b;" horiz-adv-x="910" 
d="M367 -22q-71 0 -127.5 26.5t-89.5 97t-33 205.5v671h-97v68h367v-708q0 -100 5 -154t19 -74.5t38 -20.5t44 26.5t31.5 77t11.5 123.5v662h-84v68h354v-977h84v-69h-324l-15 99q-5 -23 -28 -51.5t-62.5 -49t-93.5 -20.5zM222 1144v69h489v-69h-489z" />
    <glyph glyph-name="ubreve" unicode="&#x16d;" horiz-adv-x="910" 
d="M367 -22q-71 0 -127.5 26.5t-89.5 97t-33 205.5v671h-97v68h367v-708q0 -100 5 -154t19 -74.5t38 -20.5t44 26.5t31.5 77t11.5 123.5v662h-84v68h354v-977h84v-69h-324l-15 99q-5 -23 -28 -51.5t-62.5 -49t-93.5 -20.5zM464 1105q-63 0 -102 29.5t-57 75t-18 92.5h67
q6 -61 36.5 -90.5t73.5 -29.5q44 0 75 29.5t36 90.5h67q0 -47 -18 -92.5t-57 -75t-103 -29.5z" />
    <glyph glyph-name="Uring" unicode="&#x16e;" horiz-adv-x="837" 
d="M446 -24q-50 0 -105 14t-102.5 53t-77 112t-29.5 191v985h-99v69h480v-69h-107v-997q0 -139 26.5 -205t86.5 -66q22 0 43 10.5t39 36.5t28 72.5t10 118.5v1030h-88v69h253v-69h-94v-1032q0 -126 -32.5 -196.5t-91.5 -98.5t-140 -28zM440 1468q-44 0 -77.5 32.5
t-33.5 85.5q0 55 33.5 86.5t77.5 31.5q42 0 75 -31.5t33 -86.5q0 -53 -33 -85.5t-75 -32.5zM440 1524q23 0 33.5 19t10.5 45q0 22 -10.5 41t-33.5 19q-25 0 -35.5 -19t-10.5 -41q0 -26 10.5 -45t35.5 -19z" />
    <glyph glyph-name="uring" unicode="&#x16f;" horiz-adv-x="910" 
d="M367 -22q-71 0 -127.5 26.5t-89.5 97t-33 205.5v671h-97v68h367v-708q0 -100 5 -154t19 -74.5t38 -20.5t44 26.5t31.5 77t11.5 123.5v662h-84v68h354v-977h84v-69h-324l-15 99q-5 -23 -28 -51.5t-62.5 -49t-93.5 -20.5zM467 1099q-44 0 -77.5 32.5t-33.5 85.5
q0 55 33.5 86.5t77.5 31.5q42 0 75 -31.5t33 -86.5q0 -53 -33 -85.5t-75 -32.5zM467 1155q23 0 33.5 19t10.5 45q0 22 -10.5 41t-33.5 19q-25 0 -35.5 -19t-10.5 -41q0 -26 10.5 -45t35.5 -19z" />
    <glyph glyph-name="Uhungarumlaut" unicode="&#x170;" horiz-adv-x="837" 
d="M446 -24q-50 0 -105 14t-102.5 53t-77 112t-29.5 191v985h-99v69h480v-69h-107v-997q0 -139 26.5 -205t86.5 -66q22 0 43 10.5t39 36.5t28 72.5t10 118.5v1030h-88v69h253v-69h-94v-1032q0 -126 -32.5 -196.5t-91.5 -98.5t-140 -28zM343 1479l-49 50l126 154q13 17 26 25
t25 8q21 0 35.5 -14.5t14.5 -35.5q0 -29 -32 -52zM481 1479l-48 50l123 154q13 17 26.5 25t26.5 8q20 0 35 -15t15 -35q0 -30 -32 -52z" />
    <glyph glyph-name="uhungarumlaut" unicode="&#x171;" horiz-adv-x="910" 
d="M367 -22q-71 0 -127.5 26.5t-89.5 97t-33 205.5v671h-97v68h367v-708q0 -100 5 -154t19 -74.5t38 -20.5t44 26.5t31.5 77t11.5 123.5v662h-84v68h354v-977h84v-69h-324l-15 99q-5 -23 -28 -51.5t-62.5 -49t-93.5 -20.5zM320 1115l-49 50l126 154q13 17 26 25t25 8
q21 0 35.5 -14.5t14.5 -35.5q0 -29 -32 -52zM458 1115l-48 50l123 154q13 17 26.5 25t26.5 8q20 0 35 -15t15 -35q0 -30 -32 -52z" />
    <glyph glyph-name="Uogonek" unicode="&#x172;" horiz-adv-x="837" 
d="M446 -24q-50 0 -105 14t-102.5 53t-77 112t-29.5 191v985h-99v69h480v-69h-107v-997q0 -139 26.5 -205t86.5 -66q22 0 43 10.5t39 36.5t28 72.5t10 118.5v1030h-88v69h253v-69h-94v-1032q0 -126 -32.5 -196.5t-91.5 -98.5t-140 -28zM604 -287q-44 0 -81.5 14t-60 44
t-22.5 78q0 54 25 91.5t57.5 62t56.5 37.5l29 -22q-22 -27 -39 -58.5t-17 -80.5q0 -41 29 -56.5t56 -15.5q26 0 49 6.5t38 16.5l34 -64q-25 -23 -66 -38t-88 -15z" />
    <glyph glyph-name="uogonek" unicode="&#x173;" horiz-adv-x="910" 
d="M367 -22q-71 0 -127.5 26.5t-89.5 97t-33 205.5v671h-97v68h367v-708q0 -100 5 -154t19 -74.5t38 -20.5t44 26.5t31.5 77t11.5 123.5v662h-84v68h354v-977h84v-69h-324l-15 99q-5 -23 -28 -51.5t-62.5 -49t-93.5 -20.5zM886 -304q-43 0 -80.5 14t-60.5 44t-23 77
q0 54 25 91.5t58 62t57 38.5l28 -23q-22 -26 -39 -58t-17 -80q0 -41 29 -57t56 -16q26 0 49 6.5t39 16.5l33 -63q-25 -24 -66 -38.5t-88 -14.5z" />
    <glyph glyph-name="Wcircumflex" unicode="&#x174;" horiz-adv-x="1207" 
d="M337 0l-237 1331h-99v69h477v-69h-60l94 -671l-38 -98l127 684l21 -161l-52 246h-70v69h446v-69h-75l91 -651l-28 -98l122 749h-78v69h236v-69h-83l-226 -1331h-93l-189 1076l37 72l-230 -1148h-93zM459 1463l148 206h69l146 -206h-82l-100 133l-99 -133h-82z" />
    <glyph glyph-name="wcircumflex" unicode="&#x175;" horiz-adv-x="1155" 
d="M743 -1l-203 979h-68v69h420v-69h-70l75 -461l93 461h-57v69h211v-69h-73l-204 -979h-124zM291 -1l-201 979h-76v69h429v-69h-67l71 -461l93 461h-29v69h181v-69h-71l-205 -979h-125zM418 1125l148 206h69l146 -206h-82l-100 133l-99 -133h-82z" />
    <glyph glyph-name="Ycircumflex" unicode="&#x176;" horiz-adv-x="855" 
d="M193 0v69h107v518l-190 744h-97v69h475v-69h-76l154 -670h-62l172 670h-84v69h251v-69h-93l-180 -697v-565h106v-69h-483zM246 1463l148 206h69l146 -206h-82l-100 133l-99 -133h-82z" />
    <glyph glyph-name="ycircumflex" unicode="&#x177;" horiz-adv-x="744" 
d="M228 -502q-50 0 -87 36.5t-56.5 98.5t-19.5 138q0 71 29 107.5t75 36.5t74 -33t28 -91q0 -45 -18 -73t-35.5 -51t-17.5 -57q0 -25 10.5 -40t29.5 -15q11 0 19 7.5t14.5 24t12.5 43.5l76 349l-273 999h-84v69h448v-69h-78l119 -451l103 451h-74v69h223v-69h-72l-235 -985
l-87 -379q-7 -35 -22 -61.5t-39.5 -40.5t-62.5 -14zM197 1124l148 206h69l146 -206h-82l-100 133l-99 -133h-82z" />
    <glyph glyph-name="Ydieresis" unicode="&#x178;" horiz-adv-x="855" 
d="M193 0v69h107v518l-190 744h-97v69h475v-69h-76l154 -670h-62l172 670h-84v69h251v-69h-93l-180 -697v-565h106v-69h-483zM552 1502q-38 0 -65.5 28t-27.5 64q0 39 27.5 67.5t65.5 28.5q36 0 64 -28.5t28 -67.5q0 -36 -28 -64t-64 -28zM301 1502q-37 0 -64 28t-27 64
q0 39 27 67.5t64 28.5q38 0 65.5 -28.5t27.5 -67.5q0 -36 -27.5 -64t-65.5 -28z" />
    <glyph glyph-name="Zacute" unicode="&#x179;" horiz-adv-x="763" 
d="M60 0v69l331 1262h-45q-78 0 -121 -36t-59 -99.5t-16 -144.5h-69v349h601v-68l-332 -1263h54q71 0 122.5 37t79.5 101t28 145h69v-352h-643zM282 1444l-51 54l188 148q14 11 28.5 17.5t27.5 6.5q18 0 32.5 -9.5t21.5 -23.5q8 -13 8 -29q0 -18 -13 -35t-41 -28z" />
    <glyph glyph-name="zacute" unicode="&#x17a;" horiz-adv-x="699" 
d="M75 0v69l272 909h-88q-51 0 -75 -25.5t-31 -83t-7 -150.5h-67v328h546v-69l-271 -909h88q51 0 74 25.5t30 84.5t7 158h68v-337h-546zM243 1087l-51 54l188 147q14 12 28.5 18.5t27.5 6.5q18 0 32.5 -9.5t21.5 -23.5q8 -14 8 -29q0 -19 -13 -35.5t-41 -27.5z" />
    <glyph glyph-name="Zdotaccent" unicode="&#x17b;" horiz-adv-x="763" 
d="M60 0v69l331 1262h-45q-78 0 -121 -36t-59 -99.5t-16 -144.5h-69v349h601v-68l-332 -1263h54q71 0 122.5 37t79.5 101t28 145h69v-352h-643zM389 1502q-38 0 -65.5 28t-27.5 64q0 38 27.5 66t65.5 28q35 0 62.5 -28t27.5 -66q0 -36 -27.5 -64t-62.5 -28z" />
    <glyph glyph-name="zdotaccent" unicode="&#x17c;" horiz-adv-x="699" 
d="M75 0v69l272 909h-88q-51 0 -75 -25.5t-31 -83t-7 -150.5h-67v328h546v-69l-271 -909h88q51 0 74 25.5t30 84.5t7 158h68v-337h-546zM350 1140q-38 0 -65.5 27.5t-27.5 64.5q0 38 27.5 66t65.5 28q35 0 62.5 -28t27.5 -66q0 -37 -27.5 -64.5t-62.5 -27.5z" />
    <glyph glyph-name="Zcaron" unicode="&#x17d;" horiz-adv-x="763" 
d="M60 0v69l331 1262h-45q-78 0 -121 -36t-59 -99.5t-16 -144.5h-69v349h601v-68l-332 -1263h54q71 0 122.5 37t79.5 101t28 145h69v-352h-643zM354 1473l-169 226h90l113 -153l113 153h92l-169 -226h-70z" />
    <glyph glyph-name="zcaron" unicode="&#x17e;" horiz-adv-x="699" 
d="M75 0v69l272 909h-88q-51 0 -75 -25.5t-31 -83t-7 -150.5h-67v328h546v-69l-271 -909h88q51 0 74 25.5t30 84.5t7 158h68v-337h-546zM316 1110l-169 226h90l113 -153l113 153h92l-169 -226h-70z" />
    <glyph glyph-name="uni018F" unicode="&#x18f;" horiz-adv-x="915" 
d="M452 -25q-84 0 -154.5 44t-123 132t-81 219t-28.5 305q0 27 1.5 54t3.5 54h520v-68h-236q0 -233 10.5 -381.5t32.5 -219t55 -70.5q34 0 60.5 65t42 208t15.5 378q0 176 -5.5 300.5t-21 203t-46.5 115.5t-82 37q-64 0 -114 -28t-84 -68.5t-52 -76.5l-70 49q22 46 71 92.5
t119.5 77.5t156.5 31q101 0 178.5 -46.5t131.5 -139.5t81.5 -231.5t27.5 -323.5q0 -195 -38 -331.5t-98.5 -220.5t-132.5 -122t-140 -38zM69 1178v222h70q0 -38 4 -69.5t21 -31.5l1 -121h-96z" />
    <glyph glyph-name="florin" unicode="&#x192;" horiz-adv-x="731" 
d="M60 -420q-56 0 -99.5 21t-68 59.5t-24.5 91.5q0 47 20 76t60 29q39 0 59 -19t20 -55q0 -27 -10 -42.5t-21 -27.5t-11 -31q0 -17 7.5 -26t24.5 -9q23 0 39.5 28.5t27 77.5t17.5 111.5t11 129.5l59 984h-103v69h107l4 60q11 157 57 245t114 123.5t143 35.5
q60 0 108.5 -34.5t77.5 -95t29 -136.5q0 -70 -29 -110.5t-76 -40.5q-46 0 -76 38t-30 96q0 38 18 67t35.5 51.5t17.5 41.5q0 25 -13 37t-43 12q-41 0 -63.5 -51t-32.5 -131t-15 -166l-2 -42h108v-69h-113l-59 -934q-3 -52 -10 -114.5t-22.5 -124.5t-45 -112.5t-77.5 -81.5
t-120 -31z" />
    <glyph glyph-name="Ohorn" unicode="&#x1a0;" horiz-adv-x="869" 
d="M437 -22q-108 0 -192 84t-132 244.5t-48 391.5q0 232 48 393.5t132 246t192 84.5q109 0 194 -84.5t134.5 -246t49.5 -393.5q0 -231 -49.5 -391.5t-134.5 -244.5t-194 -84zM437 47q26 0 43.5 41.5t28 124.5t15 204.5t4.5 280.5t-4.5 281t-15 205.5t-28 126t-43.5 42.5
t-42.5 -42.5t-26 -126t-13.5 -205.5t-4 -281t4 -280.5t13.5 -204.5t26 -124.5t42.5 -41.5zM579 1309v69q46 0 81 12t35 58q0 20 -9.5 44.5t-9.5 47.5q0 35 18 56t55 21t55 -20.5t18 -56.5q0 -90 -40 -140.5t-96.5 -70.5t-106.5 -20z" />
    <glyph glyph-name="ohorn" unicode="&#x1a1;" horiz-adv-x="818" 
d="M407 -22q-60 0 -122.5 33t-115.5 101t-84.5 171.5t-31.5 243.5q0 152 33 255t86.5 164t115.5 87.5t119 26.5q58 0 120 -26.5t116 -87.5t87.5 -164t33.5 -255q0 -140 -32 -243.5t-85 -171.5t-116 -101t-124 -33zM407 57q42 0 63 112t21 358q0 245 -21 350.5t-63 105.5
q-39 0 -60 -105.5t-21 -350.5q0 -246 21 -358t60 -112zM556 949v68q46 0 81 12t35 58q0 20 -9.5 44.5t-9.5 48.5q0 35 18 55.5t55 20.5t55 -20t18 -56q0 -91 -40 -141t-96.5 -70t-106.5 -20z" />
    <glyph glyph-name="Uhorn" unicode="&#x1af;" horiz-adv-x="837" 
d="M446 -24q-50 0 -105 14t-102.5 53t-77 112t-29.5 191v985h-99v69h480v-69h-107v-997q0 -139 26.5 -205t86.5 -66q22 0 43 10.5t39 36.5t28 72.5t10 118.5v1030h-88v69h170v-69h-11v-1032q0 -126 -32.5 -196.5t-91.5 -98.5t-140 -28zM721 1331v69q46 0 81 12t35 58
q0 20 -9.5 44.5t-9.5 47.5q0 35 18.5 56t54.5 21q37 0 55 -20.5t18 -56.5q0 -90 -40 -140t-96.5 -70.5t-106.5 -20.5z" />
    <glyph glyph-name="uhorn" unicode="&#x1b0;" horiz-adv-x="910" 
d="M367 -22q-71 0 -127.5 26.5t-89.5 97t-33 205.5v671h-97v68h367v-708q0 -100 5 -154t19 -74.5t38 -20.5t44 26.5t31.5 77t11.5 123.5v662h-84v68h354v-977h84v-69h-324l-15 99q-5 -23 -28 -51.5t-62.5 -49t-93.5 -20.5zM754 977v69q45 0 80 12t35 58q0 20 -9.5 44.5
t-9.5 47.5q0 35 18.5 56t54.5 21q37 0 55 -20.5t18 -56.5q0 -90 -40 -140t-96 -70.5t-106 -20.5z" />
    <glyph glyph-name="uni01C6" unicode="&#x1c6;" horiz-adv-x="1594" 
d="M364 -20q-77 0 -146.5 48t-113.5 165t-44 325q0 191 42 310.5t108 175.5t136 56q58 0 89 -19.5t43.5 -43t14.5 -33.5v466h-117v70h393v-1431h115v-69h-348l-24 112q-1 -25 -18.5 -56.5t-49.5 -53.5t-80 -22zM416 110q23 0 40 31.5t27 83t10 108.5v412q-2 51 -12.5 91.5
t-26.5 63.5t-38 23q-20 0 -36 -29.5t-26.5 -83.5t-16.5 -129t-6 -166q0 -90 5.5 -164.5t15.5 -128t26 -83t38 -29.5zM970 0v69l272 909h-88q-51 0 -75 -25.5t-31 -83t-7 -150.5h-67v328h546v-69l-271 -909h88q51 0 74 25.5t30 84.5t7 158h68v-337h-546zM1211 1110l-169 226
h90l113 -153l113 153h92l-169 -226h-70z" />
    <glyph glyph-name="uni01C7" unicode="&#x1c7;" horiz-adv-x="1476" 
d="M49 0v69h89v1262h-89v69h450v-69h-92v-1262h37q45 0 76 37.5t47 101.5t16 144h68v-352h-602zM1006 -23q-87 0 -139 39t-75.5 103.5t-23.5 142.5q0 73 31 105.5t79 32.5q46 0 76 -30t30 -101q0 -47 -16.5 -73t-33.5 -45t-17 -43q0 -30 16 -43t37 -13q41 0 62.5 28
t21.5 100v1151h-106v69h477v-69h-101v-896q0 -128 -23 -215.5t-65.5 -141t-100.5 -77.5t-129 -24z" />
    <glyph glyph-name="uni01C8" unicode="&#x1c8;" horiz-adv-x="1199" 
d="M49 0v69h89v1262h-89v69h450v-69h-92v-1262h37q45 0 76 37.5t47 101.5t16 144h68v-352h-602zM764 -498q-66 0 -116 36t-78.5 97t-28.5 136q0 72 32.5 108.5t80.5 36.5q45 0 69.5 -32.5t24.5 -90.5q0 -37 -11.5 -62t-23.5 -45.5t-12 -44.5q0 -19 4.5 -34.5t15 -24.5
t26.5 -9q46 0 60 50t14 154v1201h-113v69h383v-1088q0 -139 -30.5 -229t-80 -139.5t-106.5 -69t-110 -19.5zM951 1161q-70 0 -119.5 49.5t-49.5 120.5q0 69 49.5 118t119.5 49q69 0 118 -49t49 -118q0 -71 -49 -120.5t-118 -49.5z" />
    <glyph glyph-name="uni01C9" unicode="&#x1c9;" horiz-adv-x="1040" 
d="M29 0v69h105v1362h-105v69h375v-1431h105v-69h-480zM605 -498q-66 0 -116 36t-78.5 97t-28.5 136q0 72 32.5 108.5t80.5 36.5q45 0 69.5 -32.5t24.5 -90.5q0 -37 -11.5 -62t-23.5 -45.5t-12 -44.5q0 -19 4.5 -34.5t15 -24.5t26.5 -9q46 0 60 50t14 154v1201h-113v69h383
v-1088q0 -139 -30.5 -229t-80 -139.5t-106.5 -69t-110 -19.5zM792 1161q-70 0 -119.5 49.5t-49.5 120.5q0 69 49.5 118t119.5 49q69 0 118 -49t49 -118q0 -71 -49 -120.5t-118 -49.5z" />
    <glyph glyph-name="uni01CA" unicode="&#x1ca;" horiz-adv-x="1566" 
d="M29 0v69h93v1262h-93v69h385l255 -784h-14v715h-88v69h247v-69h-89v-1331h-147l-404 1246h18v-1177h90v-69h-253zM1096 -23q-87 0 -139 39t-75.5 103.5t-23.5 142.5q0 73 31 105.5t79 32.5q46 0 76 -30t30 -101q0 -47 -16.5 -73t-33.5 -45t-17 -43q0 -30 16 -43t37 -13
q41 0 62.5 28t21.5 100v1151h-106v69h477v-69h-101v-896q0 -128 -23 -215.5t-65.5 -141t-100.5 -77.5t-129 -24z" />
    <glyph glyph-name="uni01CB" unicode="&#x1cb;" horiz-adv-x="1364" 
d="M29 0v69h93v1262h-93v69h385l255 -784h-14v715h-88v69h247v-69h-89v-1331h-147l-404 1246h18v-1177h90v-69h-253zM929 -498q-66 0 -116 36t-78.5 97t-28.5 136q0 72 32.5 108.5t80.5 36.5q45 0 69.5 -32.5t24.5 -90.5q0 -37 -11.5 -62t-23.5 -45.5t-12 -44.5
q0 -19 4.5 -34.5t15 -24.5t26.5 -9q46 0 60 50t14 154v1201h-113v69h383v-1088q0 -139 -30.5 -229t-80 -139.5t-106.5 -69t-110 -19.5zM1116 1161q-70 0 -119.5 49.5t-49.5 120.5q0 69 49.5 118t119.5 49q69 0 118 -49t49 -118q0 -71 -49 -120.5t-118 -49.5z" />
    <glyph glyph-name="uni01CC" unicode="&#x1cc;" horiz-adv-x="1425" 
d="M32 0v69h104v909h-104v69h368v-105q3 14 23.5 42.5t60 52t99.5 23.5q66 0 119 -27.5t83.5 -100t30.5 -208.5v-655h102v-69h-439v69h67v653q0 107 -12.5 159t-44.5 52q-18 0 -32 -13t-25 -37.5t-17.5 -57.5t-8.5 -73v-683h65v-69h-439zM990 -498q-66 0 -116 36t-78.5 97
t-28.5 136q0 72 32.5 108.5t80.5 36.5q45 0 69.5 -32.5t24.5 -90.5q0 -37 -11.5 -62t-23.5 -45.5t-12 -44.5q0 -19 4.5 -34.5t15 -24.5t26.5 -9q46 0 60 50t14 154v1201h-113v69h383v-1088q0 -139 -30.5 -229t-80 -139.5t-106.5 -69t-110 -19.5zM1177 1161
q-70 0 -119.5 49.5t-49.5 120.5q0 69 49.5 118t119.5 49q69 0 118 -49t49 -118q0 -71 -49 -120.5t-118 -49.5z" />
    <glyph glyph-name="uni01CE" unicode="&#x1ce;" horiz-adv-x="857" 
d="M295 -22q-68 0 -124 32.5t-89.5 92.5t-33.5 142q0 97 41.5 160t103 105t123 75t103 69.5t41.5 89.5q0 72 -11.5 125t-37 82t-66.5 29q-47 0 -77 -24.5t-30 -59.5q0 -28 12 -48t24.5 -42.5t12.5 -60.5q0 -52 -29 -82t-76 -30q-48 0 -77.5 40.5t-29.5 111.5q0 79 42 141.5
t116 98t169 35.5q94 0 168 -37.5t117 -119t43 -215.5v-525q0 -52 9 -70.5t27 -18.5q19 0 32.5 10t19.5 18l40 -53q-16 -23 -67 -45.5t-121 -22.5q-68 0 -107.5 19t-57.5 45t-24 48q-4 -13 -22.5 -41t-57.5 -51t-106 -23zM389 93q22 0 38 19.5t24.5 50.5t8.5 63v391
q-3 -28 -25 -54t-48.5 -60t-46 -87t-19.5 -137q0 -91 18.5 -138.5t49.5 -47.5zM381 1110l-169 226h90l113 -153l113 153h92l-169 -226h-70z" />
    <glyph glyph-name="uni01D0" unicode="&#x1d0;" horiz-adv-x="513" 
d="M25 0v69h97v909h-97v69h367v-978h97v-69h-464zM223 1110l-169 226h90l113 -153l113 153h92l-169 -226h-70z" />
    <glyph glyph-name="uni01D2" unicode="&#x1d2;" horiz-adv-x="818" 
d="M407 -22q-60 0 -122.5 33t-115.5 101t-84.5 171.5t-31.5 243.5q0 152 33 255t86.5 164t115.5 87.5t119 26.5q58 0 120 -26.5t116 -87.5t87.5 -164t33.5 -255q0 -140 -32 -243.5t-85 -171.5t-116 -101t-124 -33zM407 57q42 0 63 112t21 358q0 245 -21 350.5t-63 105.5
q-39 0 -60 -105.5t-21 -350.5q0 -246 21 -358t60 -112zM373 1110l-169 226h90l113 -153l113 153h92l-169 -226h-70z" />
    <glyph glyph-name="uni01D4" unicode="&#x1d4;" horiz-adv-x="910" 
d="M367 -22q-71 0 -127.5 26.5t-89.5 97t-33 205.5v671h-97v68h367v-708q0 -100 5 -154t19 -74.5t38 -20.5t44 26.5t31.5 77t11.5 123.5v662h-84v68h354v-977h84v-69h-324l-15 99q-5 -23 -28 -51.5t-62.5 -49t-93.5 -20.5zM432 1110l-169 226h90l113 -153l113 153h92
l-169 -226h-70z" />
    <glyph glyph-name="uni01D6" unicode="&#x1d6;" horiz-adv-x="910" 
d="M367 -22q-71 0 -127.5 26.5t-89.5 97t-33 205.5v671h-97v68h367v-708q0 -100 5 -154t19 -74.5t38 -20.5t44 26.5t31.5 77t11.5 123.5v662h-84v68h354v-977h84v-69h-324l-15 99q-5 -23 -28 -51.5t-62.5 -49t-93.5 -20.5zM591 1134q-38 0 -65.5 28t-27.5 64q0 39 27.5 67.5
t65.5 28.5q36 0 64 -28.5t28 -67.5q0 -36 -28 -64t-64 -28zM340 1134q-37 0 -64 28t-27 64q0 39 27 67.5t64 28.5q38 0 65.5 -28.5t27.5 -67.5q0 -36 -27.5 -64t-65.5 -28zM222 1419v69h489v-69h-489z" />
    <glyph glyph-name="uni01D8" unicode="&#x1d8;" horiz-adv-x="910" 
d="M367 -22q-71 0 -127.5 26.5t-89.5 97t-33 205.5v671h-97v68h367v-708q0 -100 5 -154t19 -74.5t38 -20.5t44 26.5t31.5 77t11.5 123.5v662h-84v68h354v-977h84v-69h-324l-15 99q-5 -23 -28 -51.5t-62.5 -49t-93.5 -20.5zM591 1134q-38 0 -65.5 28t-27.5 64q0 39 27.5 67.5
t65.5 28.5q36 0 64 -28.5t28 -67.5q0 -36 -28 -64t-64 -28zM340 1134q-37 0 -64 28t-27 64q0 39 27 67.5t64 28.5q38 0 65.5 -28.5t27.5 -67.5q0 -36 -27.5 -64t-65.5 -28zM360 1362l-51 54l188 147q14 12 28.5 18.5t27.5 6.5q18 0 32.5 -9.5t21.5 -23.5q8 -14 8 -29
q0 -19 -13 -35.5t-41 -27.5z" />
    <glyph glyph-name="uni01DA" unicode="&#x1da;" horiz-adv-x="910" 
d="M367 -22q-71 0 -127.5 26.5t-89.5 97t-33 205.5v671h-97v68h367v-708q0 -100 5 -154t19 -74.5t38 -20.5t44 26.5t31.5 77t11.5 123.5v662h-84v68h354v-977h84v-69h-324l-15 99q-5 -23 -28 -51.5t-62.5 -49t-93.5 -20.5zM591 1134q-38 0 -65.5 28t-27.5 64q0 39 27.5 67.5
t65.5 28.5q36 0 64 -28.5t28 -67.5q0 -36 -28 -64t-64 -28zM340 1134q-37 0 -64 28t-27 64q0 39 27 67.5t64 28.5q38 0 65.5 -28.5t27.5 -67.5q0 -36 -27.5 -64t-65.5 -28zM432 1385l-169 226h90l113 -153l113 153h92l-169 -226h-70z" />
    <glyph glyph-name="uni01DC" unicode="&#x1dc;" horiz-adv-x="910" 
d="M367 -22q-71 0 -127.5 26.5t-89.5 97t-33 205.5v671h-97v68h367v-708q0 -100 5 -154t19 -74.5t38 -20.5t44 26.5t31.5 77t11.5 123.5v662h-84v68h354v-977h84v-69h-324l-15 99q-5 -23 -28 -51.5t-62.5 -49t-93.5 -20.5zM591 1134q-38 0 -65.5 28t-27.5 64q0 39 27.5 67.5
t65.5 28.5q36 0 64 -28.5t28 -67.5q0 -36 -28 -64t-64 -28zM340 1134q-37 0 -64 28t-27 64q0 39 27 67.5t64 28.5q38 0 65.5 -28.5t27.5 -67.5q0 -36 -27.5 -64t-65.5 -28zM574 1381l-211 98q-30 14 -44.5 29.5t-14.5 43.5q0 24 18 39.5t45 15.5q21 0 35.5 -8t29.5 -20
l180 -153z" />
    <glyph glyph-name="uni01DF" unicode="&#x1df;" horiz-adv-x="857" 
d="M295 -22q-68 0 -124 32.5t-89.5 92.5t-33.5 142q0 97 41.5 160t103 105t123 75t103 69.5t41.5 89.5q0 72 -11.5 125t-37 82t-66.5 29q-47 0 -77 -24.5t-30 -59.5q0 -28 12 -48t24.5 -42.5t12.5 -60.5q0 -52 -29 -82t-76 -30q-48 0 -77.5 40.5t-29.5 111.5q0 79 42 141.5
t116 98t169 35.5q94 0 168 -37.5t117 -119t43 -215.5v-525q0 -52 9 -70.5t27 -18.5q19 0 32.5 10t19.5 18l40 -53q-16 -23 -67 -45.5t-121 -22.5q-68 0 -107.5 19t-57.5 45t-24 48q-4 -13 -22.5 -41t-57.5 -51t-106 -23zM389 93q22 0 38 19.5t24.5 50.5t8.5 63v391
q-3 -28 -25 -54t-48.5 -60t-46 -87t-19.5 -137q0 -91 18.5 -138.5t49.5 -47.5zM540 1134q-38 0 -65.5 28t-27.5 64q0 39 27.5 67.5t65.5 28.5q36 0 64 -28.5t28 -67.5q0 -36 -28 -64t-64 -28zM289 1134q-37 0 -64 28t-27 64q0 39 27 67.5t64 28.5q38 0 65.5 -28.5
t27.5 -67.5q0 -36 -27.5 -64t-65.5 -28zM171 1419v69h489v-69h-489z" />
    <glyph glyph-name="gcaron" unicode="&#x1e7;" horiz-adv-x="881" 
d="M427 -498q-91 0 -178 27.5t-143.5 86t-56.5 151.5q0 65 26.5 109.5t63 71t68 38.5t42.5 13q-6 2 -30.5 11.5t-53 29.5t-49.5 53t-21 82q0 36 15 62t36.5 42.5t42.5 22.5q4 1 11.5 3t9.5 1q-6 5 -27 24t-45 57.5t-42.5 101t-18.5 151.5q0 119 35 199.5t90 129.5t115 70
t110 21q108 0 185.5 -50.5t119.5 -143t42 -215.5q0 -132 -35.5 -215t-90.5 -127.5t-115 -61t-108 -16.5q-62 0 -100 12t-47 16q-1 1 -1.5 1h-2.5q-13 0 -28 -13t-15 -37q0 -34 54.5 -61t194.5 -54q156 -29 245.5 -96.5t89.5 -207.5q0 -87 -39 -143.5t-100 -88t-127.5 -44.5
t-121.5 -13zM427 -432q66 0 106 51.5t40 116.5q0 64 -17.5 101.5t-68.5 67.5q-19 12 -45 25t-50 23t-39 14q-17 -8 -36.5 -33.5t-33 -66.5t-13.5 -97q0 -60 18.5 -105t53.5 -71t85 -26zM425 303q21 0 39 22t29 95.5t11 226.5q0 146 -11 219t-29.5 97.5t-38.5 24.5
t-37.5 -24.5t-29 -98.5t-11.5 -221q0 -153 12 -225.5t30 -94t36 -21.5zM558 980q12 74 68.5 118.5t122.5 44.5q55 0 78 -27.5t23 -68.5t-22 -63t-57 -22q-34 0 -48.5 15.5t-25 31t-33.5 15.5q-12 0 -23 -9t-11 -35h-72zM392 1110l-169 226h90l113 -153l113 153h92l-169 -226
h-70z" />
    <glyph glyph-name="uni01EA" unicode="&#x1ea;" horiz-adv-x="869" 
d="M437 -22q-108 0 -192 84t-132 244.5t-48 391.5q0 232 48 393.5t132 246t192 84.5q109 0 194 -84.5t134.5 -246t49.5 -393.5q0 -231 -49.5 -391.5t-134.5 -244.5t-194 -84zM437 47q26 0 43.5 41.5t28 124.5t15 204.5t4.5 280.5t-4.5 281t-15 205.5t-28 126t-43.5 42.5
t-42.5 -42.5t-26 -126t-13.5 -205.5t-4 -281t4 -280.5t13.5 -204.5t26 -124.5t42.5 -41.5zM552 -296q-44 0 -81.5 14t-60 44t-22.5 77q0 54 24.5 91.5t57.5 62t57 38.5l28 -23q-22 -26 -39 -58t-17 -80q0 -41 29 -57t56 -16q26 0 49 6.5t39 16.5l33 -63q-25 -24 -66 -38.5
t-87 -14.5z" />
    <glyph glyph-name="uni01EB" unicode="&#x1eb;" horiz-adv-x="818" 
d="M407 -22q-60 0 -122.5 33t-115.5 101t-84.5 171.5t-31.5 243.5q0 152 33 255t86.5 164t115.5 87.5t119 26.5q58 0 120 -26.5t116 -87.5t87.5 -164t33.5 -255q0 -140 -32 -243.5t-85 -171.5t-116 -101t-124 -33zM407 57q42 0 63 112t21 358q0 245 -21 350.5t-63 105.5
q-39 0 -60 -105.5t-21 -350.5q0 -246 21 -358t60 -112zM530 -288q-43 0 -80.5 14t-60.5 44t-23 77q0 54 25 91.5t58 62t57 38.5l28 -23q-22 -26 -39 -58t-17 -80q0 -41 29 -57t56 -16q26 0 49 6.5t38 16.5l34 -63q-25 -24 -66 -38.5t-88 -14.5z" />
    <glyph glyph-name="aringacute" unicode="&#x1fb;" horiz-adv-x="857" 
d="M295 -22q-68 0 -124 32.5t-89.5 92.5t-33.5 142q0 97 41.5 160t103 105t123 75t103 69.5t41.5 89.5q0 72 -11.5 125t-37 82t-66.5 29q-47 0 -77 -24.5t-30 -59.5q0 -28 12 -48t24.5 -42.5t12.5 -60.5q0 -52 -29 -82t-76 -30q-48 0 -77.5 40.5t-29.5 111.5q0 79 42 141.5
t116 98t169 35.5q94 0 168 -37.5t117 -119t43 -215.5v-525q0 -52 9 -70.5t27 -18.5q19 0 32.5 10t19.5 18l40 -53q-16 -23 -67 -45.5t-121 -22.5q-68 0 -107.5 19t-57.5 45t-24 48q-4 -13 -22.5 -41t-57.5 -51t-106 -23zM389 93q22 0 38 19.5t24.5 50.5t8.5 63v391
q-3 -28 -25 -54t-48.5 -60t-46 -87t-19.5 -137q0 -91 18.5 -138.5t49.5 -47.5zM416 1099q-44 0 -77.5 32.5t-33.5 85.5q0 55 33.5 86.5t77.5 31.5q42 0 75 -31.5t33 -86.5q0 -53 -33 -85.5t-75 -32.5zM416 1155q23 0 33.5 19t10.5 45q0 22 -10.5 41t-33.5 19
q-25 0 -35.5 -19t-10.5 -41q0 -26 10.5 -45t35.5 -19zM309 1375l-51 54l188 147q14 12 28.5 18.5t27.5 6.5q18 0 32.5 -9.5t21.5 -23.5q8 -14 8 -29q0 -19 -13 -35.5t-41 -27.5z" />
    <glyph glyph-name="aeacute" unicode="&#x1fd;" horiz-adv-x="1227" 
d="M341 -21q-156 0 -224.5 71t-68.5 191q0 98 41.5 161.5t102.5 106.5t122 75.5t102 69t41 89.5q0 70 -11.5 123.5t-36.5 83.5t-66 30q-44 0 -74 -22.5t-30 -59.5q0 -27 12 -47t24 -43t12 -61q0 -51 -29 -81t-75 -30q-48 0 -77.5 40.5t-29.5 110.5q0 79 41.5 140.5t115 97
t167.5 35.5t166.5 -38.5t113.5 -121t41 -216.5v-202q0 -105 -14 -181.5t-37.5 -128.5t-52.5 -86q-44 -47 -111 -77t-165 -30zM387 94q31 0 50.5 40t19.5 93v388q-3 -28 -24.5 -53.5t-47.5 -59.5t-45.5 -88t-19.5 -138q0 -58 8 -99t23 -62t36 -21zM846 -20q-80 0 -148 34.5
t-117.5 103t-77 171t-27.5 238.5q0 145 34.5 247t89.5 165t118 92t121 29q70 0 130.5 -32.5t106 -93.5t71.5 -146.5t26 -191.5q0 -20 -0.5 -40t-2.5 -41h-438v69h184q0 156 -9 244.5t-26 125t-42 36.5t-46 -37.5t-33.5 -132.5t-12.5 -269q0 -130 7 -223t23 -153t42 -88
t64 -28q77 0 123.5 37.5t65.5 77.5l57 -43q-24 -56 -100 -103.5t-183 -47.5zM528 1087l-51 54l188 147q14 12 28.5 18.5t27.5 6.5q18 0 32.5 -9.5t21.5 -23.5q8 -14 8 -29q0 -19 -13 -35.5t-41 -27.5z" />
    <glyph glyph-name="Oslashacute" unicode="&#x1fe;" horiz-adv-x="875" 
d="M167 -104l499 1608h70l-496 -1608h-73zM437 -22q-108 0 -192 84t-132 244.5t-48 391.5q0 232 48 393.5t132 246t192 84.5q109 0 194 -84.5t134.5 -246t49.5 -393.5q0 -231 -49.5 -391.5t-134.5 -244.5t-194 -84zM437 47q26 0 43.5 41.5t28 124.5t15 204.5t4.5 280.5
t-4.5 281t-15 205.5t-28 126t-43.5 42.5t-42.5 -42.5t-26 -126t-13.5 -205.5t-4 -281t4 -280.5t13.5 -204.5t26 -124.5t42.5 -41.5zM330 1444l-51 54l188 148q14 11 28.5 17.5t27.5 6.5q18 0 32.5 -9.5t21.5 -23.5q8 -13 8 -29q0 -18 -13 -35t-41 -28z" />
    <glyph glyph-name="oslashacute" unicode="&#x1ff;" horiz-adv-x="821" 
d="M104 -104l525 1224h76l-525 -1224h-76zM407 -22q-60 0 -122.5 33t-115.5 101t-84.5 171.5t-31.5 243.5q0 152 33 255t86.5 164t115.5 87.5t119 26.5q58 0 120 -26.5t116 -87.5t87.5 -164t33.5 -255q0 -140 -32 -243.5t-85 -171.5t-116 -101t-124 -33zM407 57q42 0 63 112
t21 358q0 245 -21 350.5t-63 105.5q-39 0 -60 -105.5t-21 -350.5q0 -246 21 -358t60 -112zM301 1087l-51 54l188 147q14 12 28.5 18.5t27.5 6.5q18 0 32.5 -9.5t21.5 -23.5q8 -14 8 -29q0 -19 -13 -35.5t-41 -27.5z" />
    <glyph glyph-name="uni0201" unicode="&#x201;" horiz-adv-x="857" 
d="M295 -22q-68 0 -124 32.5t-89.5 92.5t-33.5 142q0 97 41.5 160t103 105t123 75t103 69.5t41.5 89.5q0 72 -11.5 125t-37 82t-66.5 29q-47 0 -77 -24.5t-30 -59.5q0 -28 12 -48t24.5 -42.5t12.5 -60.5q0 -52 -29 -82t-76 -30q-48 0 -77.5 40.5t-29.5 111.5q0 79 42 141.5
t116 98t169 35.5q94 0 168 -37.5t117 -119t43 -215.5v-525q0 -52 9 -70.5t27 -18.5q19 0 32.5 10t19.5 18l40 -53q-16 -23 -67 -45.5t-121 -22.5q-68 0 -107.5 19t-57.5 45t-24 48q-4 -13 -22.5 -41t-57.5 -51t-106 -23zM389 93q22 0 38 19.5t24.5 50.5t8.5 63v391
q-3 -28 -25 -54t-48.5 -60t-46 -87t-19.5 -137q0 -91 18.5 -138.5t49.5 -47.5zM528 1104l-165 163q-17 18 -26.5 33t-9.5 32q0 27 17.5 44t41.5 17q28 0 46 -16.5t31 -38.5l115 -206zM318 1104l-165 163q-17 18 -26 33t-9 32q0 27 17 44t42 17q28 0 46 -16.5t31 -38.5
l115 -206z" />
    <glyph glyph-name="uni0203" unicode="&#x203;" horiz-adv-x="857" 
d="M295 -22q-68 0 -124 32.5t-89.5 92.5t-33.5 142q0 97 41.5 160t103 105t123 75t103 69.5t41.5 89.5q0 72 -11.5 125t-37 82t-66.5 29q-47 0 -77 -24.5t-30 -59.5q0 -28 12 -48t24.5 -42.5t12.5 -60.5q0 -52 -29 -82t-76 -30q-48 0 -77.5 40.5t-29.5 111.5q0 79 42 141.5
t116 98t169 35.5q94 0 168 -37.5t117 -119t43 -215.5v-525q0 -52 9 -70.5t27 -18.5q19 0 32.5 10t19.5 18l40 -53q-16 -23 -67 -45.5t-121 -22.5q-68 0 -107.5 19t-57.5 45t-24 48q-4 -13 -22.5 -41t-57.5 -51t-106 -23zM389 93q22 0 38 19.5t24.5 50.5t8.5 63v391
q-3 -28 -25 -54t-48.5 -60t-46 -87t-19.5 -137q0 -91 18.5 -138.5t49.5 -47.5zM415 1316q64 0 103 -29.5t57.5 -75t18.5 -92.5h-68q-4 61 -35.5 90.5t-75.5 29.5q-43 0 -73.5 -29.5t-35.5 -90.5h-68q0 47 18 92.5t57.5 75t101.5 29.5z" />
    <glyph glyph-name="uni0205" unicode="&#x205;" horiz-adv-x="803" 
d="M423 -20q-81 0 -148.5 34.5t-117.5 103t-77 171t-27 238.5q0 145 34 247t89.5 165t118.5 92t121 29q70 0 130.5 -32.5t106 -93.5t71 -146.5t25.5 -191.5v-40t-2 -41h-438v69h183q0 156 -8.5 244.5t-25.5 125t-42 36.5t-46 -37.5t-34 -132.5t-13 -269q0 -130 7 -223
t23 -153t42 -88t64 -28q78 0 124 37.5t66 77.5l57 -43q-25 -56 -101 -103.5t-182 -47.5zM588 1104l-164 163q-18 18 -27.5 33t-9.5 32q0 27 17.5 44t41.5 17q28 0 46.5 -16.5t30.5 -38.5l116 -206zM379 1104l-165 163q-18 18 -27 33t-9 32q0 27 17.5 44t41.5 17
q28 0 46.5 -16.5t30.5 -38.5l115 -206z" />
    <glyph glyph-name="uni0207" unicode="&#x207;" horiz-adv-x="803" 
d="M423 -20q-81 0 -148.5 34.5t-117.5 103t-77 171t-27 238.5q0 145 34 247t89.5 165t118.5 92t121 29q70 0 130.5 -32.5t106 -93.5t71 -146.5t25.5 -191.5v-40t-2 -41h-438v69h183q0 156 -8.5 244.5t-25.5 125t-42 36.5t-46 -37.5t-34 -132.5t-13 -269q0 -130 7 -223
t23 -153t42 -88t64 -28q78 0 124 37.5t66 77.5l57 -43q-25 -56 -101 -103.5t-182 -47.5zM410 1316q64 0 103 -29.5t57.5 -75t18.5 -92.5h-68q-4 61 -35.5 90.5t-75.5 29.5q-43 0 -73.5 -29.5t-35.5 -90.5h-68q0 47 18 92.5t57.5 75t101.5 29.5z" />
    <glyph glyph-name="uni0209" unicode="&#x209;" horiz-adv-x="513" 
d="M25 0v69h97v909h-97v69h367v-978h97v-69h-464zM434 1104l-164 163q-18 18 -27.5 33t-9.5 32q0 27 17.5 44t41.5 17q28 0 46.5 -16.5t30.5 -38.5l116 -206zM225 1104l-165 163q-18 18 -27 33t-9 32q0 27 17.5 44t41.5 17q28 0 46.5 -16.5t30.5 -38.5l115 -206z" />
    <glyph glyph-name="uni020B" unicode="&#x20b;" horiz-adv-x="513" 
d="M25 0v69h97v909h-97v69h367v-978h97v-69h-464zM257 1316q64 0 103 -29.5t57.5 -75t18.5 -92.5h-68q-4 61 -35.5 90.5t-75.5 29.5q-43 0 -73.5 -29.5t-35.5 -90.5h-68q0 47 18 92.5t57.5 75t101.5 29.5z" />
    <glyph glyph-name="uni020D" unicode="&#x20d;" horiz-adv-x="818" 
d="M407 -22q-60 0 -122.5 33t-115.5 101t-84.5 171.5t-31.5 243.5q0 152 33 255t86.5 164t115.5 87.5t119 26.5q58 0 120 -26.5t116 -87.5t87.5 -164t33.5 -255q0 -140 -32 -243.5t-85 -171.5t-116 -101t-124 -33zM407 57q42 0 63 112t21 358q0 245 -21 350.5t-63 105.5
q-39 0 -60 -105.5t-21 -350.5q0 -246 21 -358t60 -112zM585 1104l-164 163q-18 18 -27.5 33t-9.5 32q0 27 17.5 44t41.5 17q28 0 46.5 -16.5t30.5 -38.5l116 -206zM376 1104l-165 163q-18 18 -27 33t-9 32q0 27 17.5 44t41.5 17q28 0 46.5 -16.5t30.5 -38.5l115 -206z" />
    <glyph glyph-name="uni020F" unicode="&#x20f;" horiz-adv-x="818" 
d="M407 -22q-60 0 -122.5 33t-115.5 101t-84.5 171.5t-31.5 243.5q0 152 33 255t86.5 164t115.5 87.5t119 26.5q58 0 120 -26.5t116 -87.5t87.5 -164t33.5 -255q0 -140 -32 -243.5t-85 -171.5t-116 -101t-124 -33zM407 57q42 0 63 112t21 358q0 245 -21 350.5t-63 105.5
q-39 0 -60 -105.5t-21 -350.5q0 -246 21 -358t60 -112zM407 1316q64 0 103 -29.5t57.5 -75t18.5 -92.5h-68q-4 61 -35.5 90.5t-75.5 29.5q-43 0 -73.5 -29.5t-35.5 -90.5h-68q0 47 18 92.5t57.5 75t101.5 29.5z" />
    <glyph glyph-name="uni0211" unicode="&#x211;" horiz-adv-x="747" 
d="M26 0v69h104v909h-104v69h351l15 -92q5 17 25 42t52 44t73 19q60 0 99.5 -38t59.5 -102t20 -141q0 -71 -28.5 -108.5t-76.5 -37.5q-45 0 -72.5 32.5t-27.5 88.5q0 38 16 61.5t31 45t15 53.5q0 35 -12.5 51.5t-41.5 16.5q-28 0 -57 -28.5t-48 -86t-19 -141.5v-657h103v-69
h-477zM633 1105l-164 163q-18 18 -27.5 33t-9.5 32q0 27 17.5 44t41.5 17q28 0 46.5 -16.5t30.5 -38.5l116 -206zM424 1105l-165 163q-18 18 -27 33t-9 32q0 27 17.5 44t41.5 17q28 0 46.5 -16.5t30.5 -38.5l115 -206z" />
    <glyph glyph-name="uni0213" unicode="&#x213;" horiz-adv-x="747" 
d="M26 0v69h104v909h-104v69h351l15 -92q5 17 25 42t52 44t73 19q60 0 99.5 -38t59.5 -102t20 -141q0 -71 -28.5 -108.5t-76.5 -37.5q-45 0 -72.5 32.5t-27.5 88.5q0 38 16 61.5t31 45t15 53.5q0 35 -12.5 51.5t-41.5 16.5q-28 0 -57 -28.5t-48 -86t-19 -141.5v-657h103v-69
h-477zM455 1317q64 0 103 -29.5t57.5 -75t18.5 -92.5h-68q-4 61 -35.5 90.5t-75.5 29.5q-43 0 -73.5 -29.5t-35.5 -90.5h-68q0 47 18 92.5t57.5 75t101.5 29.5z" />
    <glyph glyph-name="uni0215" unicode="&#x215;" horiz-adv-x="910" 
d="M367 -22q-71 0 -127.5 26.5t-89.5 97t-33 205.5v671h-97v68h367v-708q0 -100 5 -154t19 -74.5t38 -20.5t44 26.5t31.5 77t11.5 123.5v662h-84v68h354v-977h84v-69h-324l-15 99q-5 -23 -28 -51.5t-62.5 -49t-93.5 -20.5zM644 1104l-164 163q-18 18 -27.5 33t-9.5 32
q0 27 17.5 44t41.5 17q28 0 46.5 -16.5t30.5 -38.5l116 -206zM435 1104l-165 163q-18 18 -27 33t-9 32q0 27 17.5 44t41.5 17q28 0 46.5 -16.5t30.5 -38.5l115 -206z" />
    <glyph glyph-name="uni0217" unicode="&#x217;" horiz-adv-x="910" 
d="M367 -22q-71 0 -127.5 26.5t-89.5 97t-33 205.5v671h-97v68h367v-708q0 -100 5 -154t19 -74.5t38 -20.5t44 26.5t31.5 77t11.5 123.5v662h-84v68h354v-977h84v-69h-324l-15 99q-5 -23 -28 -51.5t-62.5 -49t-93.5 -20.5zM466 1316q64 0 103 -29.5t57.5 -75t18.5 -92.5h-68
q-4 61 -35.5 90.5t-75.5 29.5q-43 0 -73.5 -29.5t-35.5 -90.5h-68q0 47 18 92.5t57.5 75t101.5 29.5z" />
    <glyph glyph-name="uni0218" unicode="&#x218;" horiz-adv-x="702" 
d="M362 -27q-56 0 -90.5 12.5t-55.5 29t-35 28.5t-29 12q-28 0 -28 -55h-65v355h68q1 -20 11 -57t28.5 -80t46.5 -82.5t64.5 -65t82.5 -25.5q38 0 62 15t34.5 46t10.5 78q0 59 -26.5 118.5t-74 127t-111.5 148.5q-79 100 -122 184t-59.5 159.5t-16.5 152.5q0 117 40 194
t102.5 115.5t130.5 38.5q60 0 93.5 -18.5t53 -36.5t37.5 -18q13 0 20 10t8 41h66v-352h-69q-2 29 -15.5 79t-38.5 101.5t-63 87t-88 35.5q-51 0 -78 -37t-27 -106q0 -53 26 -113t75.5 -127.5t116.5 -145.5q71 -80 115.5 -155.5t65.5 -155t21 -169.5q0 -111 -27 -182.5
t-69.5 -112t-93 -57.5t-97.5 -17zM350 -369l-39 45q14 6 37 22.5t30 34.5q-6 -4 -18 -4q-35 0 -59.5 24.5t-24.5 60.5t24.5 60.5t60.5 24.5q38 0 65.5 -24t27.5 -72q0 -49 -19 -83t-43.5 -55.5t-41.5 -33.5z" />
    <glyph glyph-name="uni0219" unicode="&#x219;" horiz-adv-x="629" 
d="M318 -22q-58 0 -90 15t-51 30t-36 15q-15 0 -20.5 -9.5t-5.5 -28.5h-64v337h76q5 -51 21.5 -102.5t41.5 -94t57 -68t70 -25.5q31 0 51 11t29.5 32t9.5 49q0 41 -20 82t-55.5 85.5t-82.5 91.5q-84 87 -140.5 177t-56.5 217q0 96 38.5 155t98.5 86t124 27q46 0 74 -12.5
t45.5 -25t29.5 -12.5q10 0 16 8.5t6 28.5h65v-328h-75q-4 43 -15.5 90.5t-31 88.5t-47 66.5t-63.5 25.5q-46 0 -70.5 -34.5t-24.5 -80.5q0 -56 42.5 -109t112.5 -120q52 -50 98 -107t75 -127.5t29 -160.5q0 -99 -33.5 -159t-92.5 -87t-135 -27zM317 -368l-39 45
q14 6 37 22.5t30 34.5q-6 -4 -18 -4q-35 0 -59.5 24.5t-24.5 60.5t24.5 60.5t60.5 24.5q38 0 65.5 -24t27.5 -72q0 -49 -19 -83t-43.5 -55.5t-41.5 -33.5z" />
    <glyph glyph-name="uni021A" unicode="&#x21a;" horiz-adv-x="830" 
d="M167 0v69h114v1262h-15q-65 0 -99 -31.5t-47 -93.5t-13 -155h-69v349h754v-349h-69q0 93 -12.5 155t-46.5 93.5t-99 31.5h-15v-1262h117v-69h-500zM406 -368l-39 45q14 6 37 22.5t30 34.5q-6 -4 -18 -4q-35 0 -59.5 24.5t-24.5 60.5t24.5 60.5t60.5 24.5q38 0 65.5 -24
t27.5 -72q0 -49 -19 -83t-43.5 -55.5t-41.5 -33.5z" />
    <glyph glyph-name="uni021B" unicode="&#x21b;" horiz-adv-x="591" 
d="M400 -18q-66 0 -126 21.5t-97 80.5t-37 169v725h-142v69h142q51 4 92 48t68 111.5t37 144.5h73v-304h163v-69h-163v-847q0 -41 20 -56t38 -15q19 0 34.5 7t22.5 15l39 -54q-28 -21 -67.5 -33.5t-96.5 -12.5zM361 -350l-39 45q14 6 37 22.5t30 34.5q-6 -4 -18 -4
q-35 0 -59.5 24.5t-24.5 60.5t24.5 60.5t60.5 24.5q38 0 65.5 -24t27.5 -72q0 -49 -19 -83t-43.5 -55.5t-41.5 -33.5z" />
    <glyph glyph-name="uni0229" unicode="&#x229;" horiz-adv-x="803" 
d="M423 -20q-81 0 -148.5 34.5t-117.5 103t-77 171t-27 238.5q0 145 34 247t89.5 165t118.5 92t121 29q70 0 130.5 -33t106 -97t71 -155.5t25.5 -208.5v-40t-2 -40h-438v68h183q0 157 -8.5 252.5t-25.5 139.5t-42 44t-46 -45t-34 -147.5t-13 -276.5q0 -129 7 -218.5t23 -145
t42 -80.5t64 -25q78 0 124 41t66 81l57 -43q-25 -56 -101 -103.5t-182 -47.5zM474 -326q-48 0 -93 11.5t-60 19.5l27 65q11 -6 44.5 -17.5t65.5 -11.5q31 0 52.5 17t21.5 47q0 33 -14.5 43.5t-34.5 10.5q-16 0 -30 -6t-25 -19l-64 4l60 162h69l-43 -110q5 7 31 17.5t62 10.5
q41 0 76 -25.5t35 -87.5q0 -42 -22.5 -71.5t-63 -44.5t-94.5 -15z" />
    <glyph glyph-name="uni022B" unicode="&#x22b;" horiz-adv-x="818" 
d="M407 -22q-60 0 -122.5 33t-115.5 101t-84.5 171.5t-31.5 243.5q0 152 33 255t86.5 164t115.5 87.5t119 26.5q58 0 120 -26.5t116 -87.5t87.5 -164t33.5 -255q0 -140 -32 -243.5t-85 -171.5t-116 -101t-124 -33zM407 57q42 0 63 112t21 358q0 245 -21 350.5t-63 105.5
q-39 0 -60 -105.5t-21 -350.5q0 -246 21 -358t60 -112zM533 1134q-38 0 -65.5 28t-27.5 64q0 39 27.5 67.5t65.5 28.5q36 0 64 -28.5t28 -67.5q0 -36 -28 -64t-64 -28zM282 1134q-37 0 -64 28t-27 64q0 39 27 67.5t64 28.5q38 0 65.5 -28.5t27.5 -67.5q0 -36 -27.5 -64
t-65.5 -28zM163 1419v69h489v-69h-489z" />
    <glyph glyph-name="uni022D" unicode="&#x22d;" horiz-adv-x="818" 
d="M407 -22q-60 0 -122.5 33t-115.5 101t-84.5 171.5t-31.5 243.5q0 152 33 255t86.5 164t115.5 87.5t119 26.5q58 0 120 -26.5t116 -87.5t87.5 -164t33.5 -255q0 -140 -32 -243.5t-85 -171.5t-116 -101t-124 -33zM407 57q42 0 63 112t21 358q0 245 -21 350.5t-63 105.5
q-39 0 -60 -105.5t-21 -350.5q0 -246 21 -358t60 -112zM491 1144q-40 0 -65 14t-45 27t-44 13q-35 0 -53 -14.5t-23 -23.5l-68 26q5 18 23 42.5t45.5 43.5t61.5 19q44 0 68.5 -12.5t45 -26t50.5 -13.5q35 0 49.5 13.5t18.5 23.5l67 -28q-3 -13 -20 -37.5t-45 -45.5t-66 -21z
M137 1390v69h541v-69h-541z" />
    <glyph glyph-name="uni0231" unicode="&#x231;" horiz-adv-x="818" 
d="M407 -22q-60 0 -122.5 33t-115.5 101t-84.5 171.5t-31.5 243.5q0 152 33 255t86.5 164t115.5 87.5t119 26.5q58 0 120 -26.5t116 -87.5t87.5 -164t33.5 -255q0 -140 -32 -243.5t-85 -171.5t-116 -101t-124 -33zM407 57q42 0 63 112t21 358q0 245 -21 350.5t-63 105.5
q-39 0 -60 -105.5t-21 -350.5q0 -246 21 -358t60 -112zM408 1140q-38 0 -65.5 27.5t-27.5 64.5q0 38 27.5 66t65.5 28q35 0 62.5 -28t27.5 -66q0 -37 -27.5 -64.5t-62.5 -27.5zM138 1423v69h541v-69h-541z" />
    <glyph glyph-name="uni0233" unicode="&#x233;" horiz-adv-x="744" 
d="M228 -502q-50 0 -87 36.5t-56.5 98.5t-19.5 138q0 71 29 107.5t75 36.5t74 -33t28 -91q0 -45 -18 -73t-35.5 -51t-17.5 -57q0 -25 10.5 -40t29.5 -15q11 0 19 7.5t14.5 24t12.5 43.5l76 349l-273 999h-84v69h448v-69h-78l119 -451l103 451h-74v69h223v-69h-72l-235 -985
l-87 -379q-7 -35 -22 -61.5t-39.5 -40.5t-62.5 -14zM109 1143v69h541v-69h-541z" />
    <glyph glyph-name="uni0237" unicode="&#x237;" horiz-adv-x="558" 
d="M123 -498q-66 0 -116 36t-78.5 97t-28.5 136q0 72 32.5 108.5t80.5 36.5q45 0 69.5 -32.5t24.5 -90.5q0 -37 -11.5 -62t-23.5 -45.5t-12 -44.5q0 -19 4.5 -34.5t15 -24.5t26.5 -9q46 0 60 50t14 154v1201h-113v69h383v-1088q0 -139 -30.5 -229t-80 -139.5t-106.5 -69
t-110 -19.5z" />
    <glyph glyph-name="uni0244" unicode="&#x244;" horiz-adv-x="842" 
d="M80 832v69h707v-69h-707zM446 -24q-50 0 -105 14t-102.5 53t-77 112t-29.5 191v985h-99v69h480v-69h-107v-997q0 -139 26.5 -205t86.5 -66q22 0 43 10.5t39 36.5t28 72.5t10 118.5v1030h-88v69h253v-69h-94v-1032q0 -126 -32.5 -196.5t-91.5 -98.5t-140 -28z" />
    <glyph glyph-name="uni0259" unicode="&#x259;" horiz-adv-x="805" 
d="M68 1046h68q0 -36 7.5 -51t22.5 -15l3 -93h-101v159zM381 1066q81 0 148.5 -34.5t117 -103t77 -171t27.5 -238.5q0 -145 -34 -247t-89.5 -165t-118.5 -92t-121 -29q-70 0 -130.5 33t-106 97t-71.5 155.5t-26 208.5q0 20 1 40l2 40h438v-68h-183q0 -156 8.5 -252t26 -140
t41.5 -44q25 0 46 45t34 148t13 276q0 129 -7.5 218.5t-23.5 145t-41.5 80.5t-64.5 25q-77 0 -123.5 -41t-65.5 -81l-57 43q25 56 101 103.5t182 47.5z" />
    <glyph glyph-name="uni0289" unicode="&#x289;" horiz-adv-x="958" 
d="M37 596v69h845v-69h-845zM367 -22q-71 0 -127.5 26.5t-89.5 97t-33 205.5v671h-97v68h367v-708q0 -100 5 -154t19 -74.5t38 -20.5t44 26.5t31.5 77t11.5 123.5v662h-84v68h354v-977h84v-69h-324l-15 99q-5 -23 -28 -51.5t-62.5 -49t-93.5 -20.5z" />
    <glyph glyph-name="uni02BC" unicode="&#x2bc;" horiz-adv-x="541" 
d="M261 1148l-55 65q19 8 52 32t44 51q-4 -3 -10.5 -5.5t-15.5 -2.5q-50 0 -86 36t-36 88q0 51 36 86t86 35q56 0 95.5 -34.5t39.5 -103.5t-27.5 -118.5t-62.5 -80.5t-60 -48z" />
    <glyph glyph-name="circumflex" unicode="&#x2c6;" horiz-adv-x="693" 
d="M202 1267l148 205h70l146 -205h-82l-100 132l-100 -132h-82z" />
    <glyph glyph-name="caron" unicode="&#x2c7;" horiz-adv-x="691" 
d="M350 1262l-169 226h90l113 -153l113 153h92l-169 -226h-70z" />
    <glyph glyph-name="uni02C9" unicode="&#x2c9;" horiz-adv-x="925" 
d="M230 1356v69h603v-69h-603z" />
    <glyph glyph-name="breve" unicode="&#x2d8;" horiz-adv-x="695" 
d="M346 1263q-63 0 -102 29.5t-57 75t-18 92.5h67q6 -61 36.5 -90.5t73.5 -29.5q44 0 75 29.5t36 90.5h67q0 -47 -18 -92.5t-57 -75t-103 -29.5z" />
    <glyph glyph-name="dotaccent" unicode="&#x2d9;" horiz-adv-x="658" 
d="M310 1304q-38 0 -65.5 28t-27.5 64q0 38 27.5 66t65.5 28q35 0 62.5 -28t27.5 -66q0 -36 -27.5 -64t-62.5 -28z" />
    <glyph glyph-name="ring" unicode="&#x2da;" horiz-adv-x="485" 
d="M249 1144q-44 0 -77.5 32.5t-33.5 85.5q0 55 33.5 86.5t77.5 31.5q42 0 75 -31.5t33 -86.5q0 -53 -33 -85.5t-75 -32.5zM249 1200q23 0 33.5 19t10.5 45q0 22 -10.5 41t-33.5 19q-25 0 -35.5 -19t-10.5 -41q0 -26 10.5 -45t35.5 -19z" />
    <glyph glyph-name="ogonek" unicode="&#x2db;" horiz-adv-x="645" 
d="M344 -304q-44 0 -81.5 14t-60 44t-22.5 77q0 54 24.5 91.5t57.5 62t57 38.5l28 -23q-22 -26 -39 -58t-17 -80q0 -41 29 -57t56 -16q26 0 49 6.5t39 16.5l33 -63q-25 -24 -66 -38.5t-87 -14.5z" />
    <glyph glyph-name="tilde" unicode="&#x2dc;" horiz-adv-x="705" 
d="M430 1289q-41 0 -67 14.5t-46 28t-44 13.5q-34 0 -52.5 -14.5t-23.5 -23.5l-68 26q6 18 24 43t46 44t63 19q46 0 70.5 -13.5t44.5 -27.5t51 -14q35 0 50 13.5t19 23.5l66 -27q-3 -13 -20.5 -38t-46 -46t-66.5 -21z" />
    <glyph glyph-name="hungarumlaut" unicode="&#x2dd;" horiz-adv-x="965" 
d="M343 1222l-49 50l127 154q20 32 44.5 33.5t40.5 -15t15 -41t-32 -46.5zM481 1222l-48 50l124 154q21 32 45.5 33.5t41 -15t15 -41t-31.5 -46.5z" />
    <glyph glyph-name="gravecomb" unicode="&#x300;" 
d="M366 1106l-211 98q-30 14 -44.5 29.5t-14.5 43.5q0 24 18 39.5t45 15.5q21 0 35.5 -8t29.5 -20l180 -153z" />
    <glyph glyph-name="acutecomb" unicode="&#x301;" 
d="M203 1097l-51 54l188 147q14 12 28.5 18.5t27.5 6.5q18 0 32.5 -9.5t21.5 -23.5q8 -14 8 -29q0 -19 -13 -35.5t-41 -27.5z" />
    <glyph glyph-name="uni0302" unicode="&#x302;" 
d="M164 1115l148 206h69l146 -206h-82l-100 133l-99 -133h-82z" />
    <glyph glyph-name="tildecomb" unicode="&#x303;" 
d="M430 1143q-40 0 -65 14t-45 27t-44 13q-35 0 -53 -14.5t-23 -23.5l-68 26q5 18 23 42.5t45.5 43.5t61.5 19q44 0 68.5 -12.5t45 -26t50.5 -13.5q35 0 49.5 13.5t18.5 23.5l67 -28q-3 -13 -20 -37.5t-45 -45.5t-66 -21z" />
    <glyph glyph-name="uni0304" unicode="&#x304;" 
d="M268 1143v69h541v-69h-541z" />
    <glyph glyph-name="uni0306" unicode="&#x306;" 
d="M344 1104q-63 0 -102 29.5t-57 75t-18 92.5h67q6 -61 36.5 -90.5t73.5 -29.5q44 0 75 29.5t36 90.5h67q0 -47 -18 -92.5t-57 -75t-103 -29.5z" />
    <glyph glyph-name="uni0307" unicode="&#x307;" 
d="M306 1139q-38 0 -65.5 27.5t-27.5 64.5q0 38 27.5 66t65.5 28q35 0 62.5 -28t27.5 -66q0 -37 -27.5 -64.5t-62.5 -27.5z" />
    <glyph glyph-name="uni0308" unicode="&#x308;" 
d="M525 1134q-38 0 -65.5 28t-27.5 64q0 39 27.5 67.5t65.5 28.5q36 0 64 -28.5t28 -67.5q0 -36 -28 -64t-64 -28zM274 1134q-37 0 -64 28t-27 64q0 39 27 67.5t64 28.5q38 0 65.5 -28.5t27.5 -67.5q0 -36 -27.5 -64t-65.5 -28z" />
    <glyph glyph-name="hookabovecomb" unicode="&#x309;" 
d="M297 1417q58 0 101 -24t43 -86q0 -43 -27 -71t-54.5 -49.5t-27.5 -48.5h-58q0 40 13.5 66t26.5 48.5t13 48.5q0 29 -12.5 40t-38.5 11q-23 0 -40 -7t-32 -20l-46 44q20 20 58 34t81 14z" />
    <glyph glyph-name="uni030A" unicode="&#x30a;" 
d="M249 1099q-44 0 -77.5 32.5t-33.5 85.5q0 55 33.5 86.5t77.5 31.5q42 0 75 -31.5t33 -86.5q0 -53 -33 -85.5t-75 -32.5zM249 1155q23 0 33.5 19t10.5 45q0 22 -10.5 41t-33.5 19q-25 0 -35.5 -19t-10.5 -41q0 -26 10.5 -45t35.5 -19z" />
    <glyph glyph-name="uni030B" unicode="&#x30b;" 
d="M343 1114l-49 50l126 154q13 17 26 25t25 8q21 0 35.5 -14.5t14.5 -35.5q0 -29 -32 -52zM481 1114l-48 50l123 154q13 17 26.5 25t26.5 8q20 0 35 -15t15 -35q0 -30 -32 -52z" />
    <glyph glyph-name="uni030C" unicode="&#x30c;" 
d="M310 1109l-169 226h90l113 -153l113 153h92l-169 -226h-70z" />
    <glyph glyph-name="uni030F" unicode="&#x30f;" 
d="M456 1103l-164 163q-18 18 -27.5 33t-9.5 32q0 27 17.5 44t41.5 17q28 0 46.5 -16.5t30.5 -38.5l116 -206zM247 1103l-165 163q-18 18 -27 33t-9 32q0 27 17.5 44t41.5 17q28 0 46.5 -16.5t30.5 -38.5l115 -206z" />
    <glyph glyph-name="uni0311" unicode="&#x311;" 
d="M343 1315q64 0 103 -29.5t57.5 -75t18.5 -92.5h-68q-4 61 -35.5 90.5t-75.5 29.5q-43 0 -73.5 -29.5t-35.5 -90.5h-68q0 47 18 92.5t57.5 75t101.5 29.5z" />
    <glyph glyph-name="uni0312" unicode="&#x312;" 
d="M252 1376l39 -38q-13 -5 -39 -27t-33 -41q9 8 23 8q35 0 59.5 -24.5t24.5 -60.5q0 -35 -24.5 -60t-59.5 -25q-39 0 -66.5 24t-27.5 72q0 49 18.5 83t43.5 56t42 33z" />
    <glyph glyph-name="uni031B" unicode="&#x31b;" 
d="M236 977v69q45 0 80.5 12t35.5 58q0 20 -10 44.5t-10 47.5q0 35 18.5 56t55.5 21q36 0 54 -20.5t18 -56.5q0 -90 -40 -140t-96 -70.5t-106 -20.5z" />
    <glyph glyph-name="dotbelowcomb" unicode="&#x323;" 
d="M306 -273q-38 0 -65.5 28t-27.5 64q0 38 27.5 66t65.5 28q35 0 62.5 -28t27.5 -66q0 -36 -27.5 -64t-62.5 -28z" />
    <glyph glyph-name="uni0324" unicode="&#x324;" 
d="M433 -270q-38 0 -65.5 28t-27.5 64q0 39 27.5 67.5t65.5 28.5q36 0 64 -28.5t28 -67.5q0 -36 -28 -64t-64 -28zM181 -270q-36 0 -63 28t-27 64q0 39 27 67.5t63 28.5q38 0 65.5 -28.5t27.5 -67.5q0 -36 -27.5 -64t-65.5 -28z" />
    <glyph glyph-name="uni0326" unicode="&#x326;" 
d="M205 -368l-39 45q14 6 37 22.5t30 34.5q-6 -4 -18 -4q-35 0 -59.5 24.5t-24.5 60.5t24.5 60.5t60.5 24.5q38 0 65.5 -24t27.5 -72q0 -49 -19 -83t-43.5 -55.5t-41.5 -33.5z" />
    <glyph glyph-name="uni0327" unicode="&#x327;" 
d="M307 -326q-48 0 -93 11.5t-60 19.5l26 65q11 -6 44.5 -17.5t65.5 -11.5t53.5 17t21.5 47q0 33 -14.5 43.5t-34.5 10.5q-16 0 -30 -6t-25 -19l-64 4l60 162h68l-43 -110q6 7 32 17.5t61 10.5q42 0 77 -25.5t35 -87.5q0 -42 -22.5 -71.5t-63 -44.5t-94.5 -15z" />
    <glyph glyph-name="uni0328" unicode="&#x328;" 
d="M344 -304q-44 0 -81.5 14t-60 44t-22.5 77q0 54 24.5 91.5t57.5 62t57 38.5l28 -23q-22 -26 -39 -58t-17 -80q0 -41 29 -57t56 -16q26 0 49 6.5t39 16.5l33 -63q-25 -24 -66 -38.5t-87 -14.5z" />
    <glyph glyph-name="uni032E" unicode="&#x32e;" 
d="M268 -303q-63 0 -102 29.5t-57 75t-18 92.5h67q6 -61 36.5 -90.5t73.5 -29.5q44 0 75 29.5t36 90.5h67q0 -47 -18 -92.5t-57 -75t-103 -29.5z" />
    <glyph glyph-name="uni0331" unicode="&#x331;" 
d="M222 -203v54h604v-54h-604z" />
    <glyph glyph-name="uni0335" unicode="&#x335;" 
d="M102 528v69h522v-69h-522z" />
    <glyph glyph-name="uni0336" unicode="&#x336;" 
d="M102 528v69h522v-69h-522z" />
    <glyph glyph-name="uni0337" unicode="&#x337;" 
d="M33 -104l498 1608h71l-496 -1608h-73z" />
    <glyph glyph-name="uni0338" unicode="&#x338;" 
d="M33 -104l498 1608h71l-496 -1608h-73z" />
    <glyph glyph-name="uni1E05" unicode="&#x1e05;" horiz-adv-x="886" 
d="M519 -20q-51 0 -82.5 23.5t-47 55t-18.5 51.5l-22 -110h-334v69h100v1362h-100v69h375v-544q3 10 17 35.5t45 47t84 21.5q73 0 138 -56t106 -175.5t41 -310.5q0 -208 -43.5 -325t-112.5 -165t-146 -48zM463 110q25 0 41.5 28.5t26.5 82t14 128t4 166.5t-4 166.5t-14 128
t-26 82t-41 28.5q-20 0 -35.5 -22.5t-25.5 -62t-13 -90.5v-400q1 -64 12 -117.5t28 -85.5t33 -32zM438 -273q-38 0 -65.5 28t-27.5 64q0 38 27.5 66t65.5 28q35 0 62.5 -28t27.5 -66q0 -36 -27.5 -64t-62.5 -28z" />
    <glyph glyph-name="uni1E08" unicode="&#x1e08;" horiz-adv-x="746" 
d="M440 -20q-168 0 -271.5 187t-103.5 531q0 136 23 265.5t71 233t120.5 164.5t170.5 61q70 0 123 -44t83 -109t30 -127q0 -61 -24.5 -102t-78.5 -41q-59 0 -83.5 33.5t-24.5 88.5q0 40 17.5 66t35 49t17.5 55t-13.5 45t-33.5 13q-35 0 -60 -44t-41.5 -116t-26 -158.5
t-13.5 -173t-4 -157.5q0 -102 5 -198t15 -178t25.5 -143.5t36.5 -96t48 -34.5q36 0 61 20.5t42 57t28 83.5l57 -35q-20 -59 -50.5 -103t-74 -68.5t-106.5 -24.5zM459 -326q-48 0 -93.5 11.5t-60.5 19.5l27 65q11 -6 44.5 -17.5t65.5 -11.5q31 0 52.5 17t21.5 47
q0 33 -14.5 43.5t-34.5 10.5q-16 0 -29.5 -6t-25.5 -19l-64 4l60 162h69l-43 -110q6 7 31.5 17.5t61.5 10.5q41 0 76 -25.5t35 -87.5q0 -42 -22.5 -71.5t-63 -44.5t-93.5 -15zM331 1461l-51 54l188 148q14 11 28.5 17.5t27.5 6.5q18 0 32.5 -9.5t21.5 -23.5q8 -13 8 -29
q0 -18 -13 -35t-41 -28z" />
    <glyph glyph-name="uni1E09" unicode="&#x1e09;" horiz-adv-x="719" 
d="M312 1087l-51 54l188 147q14 12 28.5 18.5t27.5 6.5q18 0 32.5 -9.5t21.5 -23.5q8 -14 8 -29q0 -19 -13 -35.5t-41 -27.5zM414 -22q-71 0 -136 35.5t-116 105t-80.5 172.5t-29.5 237q0 148 38 250t96 164t122.5 90t116.5 28q77 0 134.5 -39.5t89 -104.5t31.5 -141
q0 -69 -29.5 -105.5t-74.5 -36.5q-47 0 -77 31t-30 85q0 35 14.5 58t28.5 44.5t14 51.5q0 45 -25.5 66t-58.5 21q-36 0 -58 -45t-33.5 -115.5t-15 -149t-3.5 -144.5q0 -81 5 -165.5t19 -155.5t40 -115t69 -44q59 0 92 37t46 78l54 -45q-23 -57 -83.5 -102.5t-159.5 -45.5z
M458 -326q-48 0 -93.5 11.5t-60.5 19.5l27 66q11 -7 44.5 -18.5t65.5 -11.5q31 0 52.5 17t21.5 47q0 33 -14.5 43.5t-34.5 10.5q-16 0 -29.5 -6t-25.5 -19l-64 4l60 162h69l-43 -110q6 8 31.5 18t61.5 10q41 0 76 -25.5t35 -87.5q0 -42 -22.5 -71t-63 -44.5t-93.5 -15.5z
" />
    <glyph glyph-name="uni1E0D" unicode="&#x1e0d;" horiz-adv-x="895" 
d="M364 -20q-77 0 -146.5 48t-113.5 165t-44 325q0 191 42 310.5t108 175.5t136 56q58 0 89 -19.5t43.5 -43t14.5 -33.5v466h-117v70h393v-1431h115v-69h-348l-24 112q-1 -25 -18.5 -56.5t-49.5 -53.5t-80 -22zM416 110q23 0 40 31.5t27 83t10 108.5v412q-2 51 -12.5 91.5
t-26.5 63.5t-38 23q-20 0 -36 -29.5t-26.5 -83.5t-16.5 -129t-6 -166q0 -90 5.5 -164.5t15.5 -128t26 -83t38 -29.5zM449 -273q-38 0 -65.5 28t-27.5 64q0 38 27.5 66t65.5 28q35 0 62.5 -28t27.5 -66q0 -36 -27.5 -64t-62.5 -28z" />
    <glyph glyph-name="uni1E0F" unicode="&#x1e0f;" horiz-adv-x="895" 
d="M364 -20q-77 0 -146.5 48t-113.5 165t-44 325q0 191 42 310.5t108 175.5t136 56q58 0 89 -19.5t43.5 -43t14.5 -33.5v466h-117v70h393v-1431h115v-69h-348l-24 112q-1 -25 -18.5 -56.5t-49.5 -53.5t-80 -22zM416 110q23 0 40 31.5t27 83t10 108.5v412q-2 51 -12.5 91.5
t-26.5 63.5t-38 23q-20 0 -36 -29.5t-26.5 -83.5t-16.5 -129t-6 -166q0 -90 5.5 -164.5t15.5 -128t26 -83t38 -29.5zM126 -246v69h541v-69h-541z" />
    <glyph glyph-name="uni1E15" unicode="&#x1e15;" horiz-adv-x="803" 
d="M423 -20q-81 0 -148.5 34.5t-117.5 103t-77 171t-27 238.5q0 145 34 247t89.5 165t118.5 92t121 29q70 0 130.5 -32.5t106 -93.5t71 -146.5t25.5 -191.5v-40t-2 -41h-438v69h183q0 156 -8.5 244.5t-25.5 125t-42 36.5t-46 -37.5t-34 -132.5t-13 -269q0 -130 7 -223
t23 -153t42 -88t64 -28q78 0 124 37.5t66 77.5l57 -43q-25 -56 -101 -103.5t-182 -47.5zM141 1144v69h541v-69h-541zM518 1274l-211 98q-30 14 -44.5 29.5t-14.5 43.5q0 24 18 39.5t45 15.5q21 0 35.5 -8t29.5 -20l180 -153z" />
    <glyph glyph-name="uni1E17" unicode="&#x1e17;" horiz-adv-x="803" 
d="M423 -20q-81 0 -148.5 34.5t-117.5 103t-77 171t-27 238.5q0 145 34 247t89.5 165t118.5 92t121 29q70 0 130.5 -32.5t106 -93.5t71 -146.5t25.5 -191.5v-40t-2 -41h-438v69h183q0 156 -8.5 244.5t-25.5 125t-42 36.5t-46 -37.5t-34 -132.5t-13 -269q0 -130 7 -223
t23 -153t42 -88t64 -28q78 0 124 37.5t66 77.5l57 -43q-25 -56 -101 -103.5t-182 -47.5zM141 1144v69h541v-69h-541zM304 1255l-51 54l188 147q14 12 28.5 18.5t27.5 6.5q18 0 32.5 -9.5t21.5 -23.5q8 -14 8 -29q0 -19 -13 -35.5t-41 -27.5z" />
    <glyph glyph-name="uni1E1D" unicode="&#x1e1d;" horiz-adv-x="803" 
d="M409 1105q-63 0 -102 29.5t-57 75t-18 92.5h67q6 -61 36.5 -90.5t73.5 -29.5q44 0 75 29.5t36 90.5h67q0 -47 -18 -92.5t-57 -75t-103 -29.5zM423 -20q-81 0 -148.5 34.5t-117.5 103t-77 171t-27 238.5q0 145 34 247t89.5 165t118.5 92t121 29q70 0 130.5 -33t106 -97
t71 -155.5t25.5 -208.5v-40t-2 -40h-438v68h183q0 157 -8.5 252.5t-25.5 139.5t-42 44t-46 -45t-34 -147.5t-13 -276.5q0 -129 7 -218.5t23 -145t42 -80.5t64 -25q78 0 124 41t66 81l57 -43q-25 -56 -101 -103.5t-182 -47.5zM474 -326q-48 0 -93 11.5t-60 19.5l27 65
q11 -6 44.5 -17.5t65.5 -11.5q31 0 52.5 17t21.5 47q0 33 -14.5 43.5t-34.5 10.5q-16 0 -30 -6t-25 -19l-64 4l60 162h69l-43 -110q5 7 31 17.5t62 10.5q41 0 76 -25.5t35 -87.5q0 -42 -22.5 -71.5t-63 -44.5t-94.5 -15z" />
    <glyph glyph-name="uni1E21" unicode="&#x1e21;" horiz-adv-x="881" 
d="M427 -498q-91 0 -178 27.5t-143.5 86t-56.5 151.5q0 65 26.5 109.5t63 71t68 38.5t42.5 13q-6 2 -30.5 11.5t-53 29.5t-49.5 53t-21 82q0 36 15 62t36.5 42.5t42.5 22.5q4 1 11.5 3t9.5 1q-6 5 -27 24t-45 57.5t-42.5 101t-18.5 151.5q0 119 35 199.5t90 129.5t115 70
t110 21q108 0 185.5 -50.5t119.5 -143t42 -215.5q0 -132 -35.5 -215t-90.5 -127.5t-115 -61t-108 -16.5q-62 0 -100 12t-47 16q-1 1 -1.5 1h-2.5q-13 0 -28 -13t-15 -37q0 -34 54.5 -61t194.5 -54q156 -29 245.5 -96.5t89.5 -207.5q0 -87 -39 -143.5t-100 -88t-127.5 -44.5
t-121.5 -13zM427 -432q66 0 106 51.5t40 116.5q0 64 -17.5 101.5t-68.5 67.5q-19 12 -45 25t-50 23t-39 14q-17 -8 -36.5 -33.5t-33 -66.5t-13.5 -97q0 -60 18.5 -105t53.5 -71t85 -26zM425 303q21 0 39 22t29 95.5t11 226.5q0 146 -11 219t-29.5 97.5t-38.5 24.5
t-37.5 -24.5t-29 -98.5t-11.5 -221q0 -153 12 -225.5t30 -94t36 -21.5zM558 980q12 74 68.5 118.5t122.5 44.5q55 0 78 -27.5t23 -68.5t-22 -63t-57 -22q-34 0 -48.5 15.5t-25 31t-33.5 15.5q-12 0 -23 -9t-11 -35h-72zM156 1144v69h541v-69h-541z" />
    <glyph glyph-name="uni1E25" unicode="&#x1e25;" horiz-adv-x="943" 
d="M32 0v69h101v1362h-101v69h371v-545q2 8 22 34t60.5 49t101.5 23q67 0 120 -32t84 -106t31 -201v-653h101v-69h-437v69h66v643q0 117 -14.5 162t-44.5 45q-21 0 -40.5 -19.5t-33.5 -58.5t-16 -97v-675h70v-69h-441zM474 -273q-38 0 -65.5 28t-27.5 64q0 38 27.5 66
t65.5 28q35 0 62.5 -28t27.5 -66q0 -36 -27.5 -64t-62.5 -28z" />
    <glyph glyph-name="uni1E2B" unicode="&#x1e2b;" horiz-adv-x="943" 
d="M32 0v69h101v1362h-101v69h371v-545q2 8 22 34t60.5 49t101.5 23q67 0 120 -32t84 -106t31 -201v-653h101v-69h-437v69h66v643q0 117 -14.5 162t-44.5 45q-21 0 -40.5 -19.5t-33.5 -58.5t-16 -97v-675h70v-69h-441zM474 -303q-63 0 -102 29.5t-57 75t-18 92.5h67
q6 -61 36.5 -90.5t73.5 -29.5q44 0 75 29.5t36 90.5h67q0 -47 -18 -92.5t-57 -75t-103 -29.5z" />
    <glyph glyph-name="uni1E2F" unicode="&#x1e2f;" horiz-adv-x="513" 
d="M25 0v69h97v909h-97v69h367v-978h97v-69h-464zM382 1134q-38 0 -65.5 28t-27.5 64q0 39 27.5 67.5t65.5 28.5q36 0 64 -28.5t28 -67.5q0 -36 -28 -64t-64 -28zM131 1134q-37 0 -64 28t-27 64q0 39 27 67.5t64 28.5q38 0 65.5 -28.5t27.5 -67.5q0 -36 -27.5 -64t-65.5 -28
zM150 1362l-51 54l188 147q14 12 28.5 18.5t27.5 6.5q18 0 32.5 -9.5t21.5 -23.5q8 -14 8 -29q0 -19 -13 -35.5t-41 -27.5z" />
    <glyph glyph-name="uni1E37" unicode="&#x1e37;" horiz-adv-x="537" 
d="M29 0v69h105v1362h-105v69h375v-1431h105v-69h-480zM271 -273q-38 0 -65.5 28t-27.5 64q0 38 27.5 66t65.5 28q35 0 62.5 -28t27.5 -66q0 -36 -27.5 -64t-62.5 -28z" />
    <glyph glyph-name="uni1E3B" unicode="&#x1e3b;" horiz-adv-x="537" 
d="M29 0v69h105v1362h-105v69h375v-1431h105v-69h-480zM-32 -203v54h604v-54h-604z" />
    <glyph glyph-name="uni1E3F" unicode="&#x1e3f;" horiz-adv-x="1297" 
d="M27 0v69h94v909h-94v69h357v-114q2 17 23 47.5t62.5 55t104.5 24.5q60 0 100 -27t61.5 -62.5t26.5 -62.5q7 32 35 67t74.5 60t107.5 25q96 0 156 -73t60 -197v-721h91v-69h-425v69h64v632q0 80 -4 131t-16.5 75.5t-37.5 24.5q-26 0 -43 -24t-25.5 -65.5t-10.5 -96.5v-677
h65v-69h-393v69h61v632q0 119 -8.5 175t-47.5 56q-25 0 -41.5 -24.5t-24 -69.5t-8.5 -105v-664h62v-69h-426zM554 1087l-51 54l188 147q14 12 28.5 18.5t27.5 6.5q18 0 32.5 -9.5t21.5 -23.5q8 -14 8 -29q0 -19 -13 -35.5t-41 -27.5z" />
    <glyph glyph-name="uni1E43" unicode="&#x1e43;" horiz-adv-x="1297" 
d="M27 0v69h94v909h-94v69h357v-114q2 17 23 47.5t62.5 55t104.5 24.5q60 0 100 -27t61.5 -62.5t26.5 -62.5q7 32 35 67t74.5 60t107.5 25q96 0 156 -73t60 -197v-721h91v-69h-425v69h64v632q0 80 -4 131t-16.5 75.5t-37.5 24.5q-26 0 -43 -24t-25.5 -65.5t-10.5 -96.5v-677
h65v-69h-393v69h61v632q0 119 -8.5 175t-47.5 56q-25 0 -41.5 -24.5t-24 -69.5t-8.5 -105v-664h62v-69h-426zM662 -273q-38 0 -65.5 28t-27.5 64q0 38 27.5 66t65.5 28q35 0 62.5 -28t27.5 -66q0 -36 -27.5 -64t-62.5 -28z" />
    <glyph glyph-name="uni1E45" unicode="&#x1e45;" horiz-adv-x="938" 
d="M32 0v69h104v909h-104v69h368v-105q3 14 23.5 42.5t60 52t99.5 23.5q66 0 119 -27.5t83.5 -100t30.5 -208.5v-655h102v-69h-439v69h67v653q0 107 -12.5 159t-44.5 52q-18 0 -32 -13t-25 -37.5t-17.5 -57.5t-8.5 -73v-683h65v-69h-439zM480 1140q-38 0 -65.5 27.5
t-27.5 64.5q0 38 27.5 66t65.5 28q35 0 62.5 -28t27.5 -66q0 -37 -27.5 -64.5t-62.5 -27.5z" />
    <glyph glyph-name="uni1E47" unicode="&#x1e47;" horiz-adv-x="938" 
d="M32 0v69h104v909h-104v69h368v-105q3 14 23.5 42.5t60 52t99.5 23.5q66 0 119 -27.5t83.5 -100t30.5 -208.5v-655h102v-69h-439v69h67v653q0 107 -12.5 159t-44.5 52q-18 0 -32 -13t-25 -37.5t-17.5 -57.5t-8.5 -73v-683h65v-69h-439zM480 -273q-38 0 -65.5 28t-27.5 64
q0 38 27.5 66t65.5 28q35 0 62.5 -28t27.5 -66q0 -36 -27.5 -64t-62.5 -28z" />
    <glyph glyph-name="uni1E49" unicode="&#x1e49;" horiz-adv-x="938" 
d="M32 0v69h104v909h-104v69h368v-105q3 14 23.5 42.5t60 52t99.5 23.5q66 0 119 -27.5t83.5 -100t30.5 -208.5v-655h102v-69h-439v69h67v653q0 107 -12.5 159t-44.5 52q-18 0 -32 -13t-25 -37.5t-17.5 -57.5t-8.5 -73v-683h65v-69h-439zM177 -203v54h604v-54h-604z" />
    <glyph glyph-name="uni1E4D" unicode="&#x1e4d;" horiz-adv-x="818" 
d="M407 -22q-60 0 -122.5 33t-115.5 101t-84.5 171.5t-31.5 243.5q0 152 33 255t86.5 164t115.5 87.5t119 26.5q58 0 120 -26.5t116 -87.5t87.5 -164t33.5 -255q0 -140 -32 -243.5t-85 -171.5t-116 -101t-124 -33zM407 57q42 0 63 112t21 358q0 245 -21 350.5t-63 105.5
q-39 0 -60 -105.5t-21 -350.5q0 -246 21 -358t60 -112zM491 1144q-40 0 -65 14t-45 27t-44 13q-35 0 -53 -14.5t-23 -23.5l-68 26q5 18 23 42.5t45.5 43.5t61.5 19q44 0 68.5 -12.5t45 -26t50.5 -13.5q35 0 49.5 13.5t18.5 23.5l67 -28q-3 -13 -20 -37.5t-45 -45.5t-66 -21z
M301 1333l-51 54l188 147q14 12 28.5 18.5t27.5 6.5q18 0 32.5 -9.5t21.5 -23.5q8 -14 8 -29q0 -19 -13 -35.5t-41 -27.5z" />
    <glyph glyph-name="uni1E4F" unicode="&#x1e4f;" horiz-adv-x="818" 
d="M407 -22q-60 0 -122.5 33t-115.5 101t-84.5 171.5t-31.5 243.5q0 152 33 255t86.5 164t115.5 87.5t119 26.5q58 0 120 -26.5t116 -87.5t87.5 -164t33.5 -255q0 -140 -32 -243.5t-85 -171.5t-116 -101t-124 -33zM407 57q42 0 63 112t21 358q0 245 -21 350.5t-63 105.5
q-39 0 -60 -105.5t-21 -350.5q0 -246 21 -358t60 -112zM491 1144q-40 0 -65 14t-45 27t-44 13q-35 0 -53 -14.5t-23 -23.5l-68 26q5 18 23 42.5t45.5 43.5t61.5 19q44 0 68.5 -12.5t45 -26t50.5 -13.5q35 0 49.5 13.5t18.5 23.5l67 -28q-3 -13 -20 -37.5t-45 -45.5t-66 -21z
M533 1380q-38 0 -65.5 28t-27.5 64q0 39 27.5 67.5t65.5 28.5q36 0 64 -28.5t28 -67.5q0 -36 -28 -64t-64 -28zM282 1380q-37 0 -64 28t-27 64q0 39 27 67.5t64 28.5q38 0 65.5 -28.5t27.5 -67.5q0 -36 -27.5 -64t-65.5 -28z" />
    <glyph glyph-name="uni1E51" unicode="&#x1e51;" horiz-adv-x="818" 
d="M407 -22q-60 0 -122.5 33t-115.5 101t-84.5 171.5t-31.5 243.5q0 152 33 255t86.5 164t115.5 87.5t119 26.5q58 0 120 -26.5t116 -87.5t87.5 -164t33.5 -255q0 -140 -32 -243.5t-85 -171.5t-116 -101t-124 -33zM407 57q42 0 63 112t21 358q0 245 -21 350.5t-63 105.5
q-39 0 -60 -105.5t-21 -350.5q0 -246 21 -358t60 -112zM163 1144v69h489v-69h-489zM515 1274l-211 98q-30 14 -44.5 29.5t-14.5 43.5q0 24 18 39.5t45 15.5q21 0 35.5 -8t29.5 -20l180 -153z" />
    <glyph glyph-name="uni1E53" unicode="&#x1e53;" horiz-adv-x="818" 
d="M407 -22q-60 0 -122.5 33t-115.5 101t-84.5 171.5t-31.5 243.5q0 152 33 255t86.5 164t115.5 87.5t119 26.5q58 0 120 -26.5t116 -87.5t87.5 -164t33.5 -255q0 -140 -32 -243.5t-85 -171.5t-116 -101t-124 -33zM407 57q42 0 63 112t21 358q0 245 -21 350.5t-63 105.5
q-39 0 -60 -105.5t-21 -350.5q0 -246 21 -358t60 -112zM163 1144v69h489v-69h-489zM301 1255l-51 54l188 147q14 12 28.5 18.5t27.5 6.5q18 0 32.5 -9.5t21.5 -23.5q8 -14 8 -29q0 -19 -13 -35.5t-41 -27.5z" />
    <glyph glyph-name="uni1E5B" unicode="&#x1e5b;" horiz-adv-x="747" 
d="M26 0v69h104v909h-104v69h351l15 -92q5 17 25 42t52 44t73 19q60 0 99.5 -38t59.5 -102t20 -141q0 -71 -28.5 -108.5t-76.5 -37.5q-45 0 -72.5 32.5t-27.5 88.5q0 38 16 61.5t31 45t15 53.5q0 35 -12.5 51.5t-41.5 16.5q-28 0 -57 -28.5t-48 -86t-19 -141.5v-657h103v-69
h-477zM298 -273q-38 0 -65.5 28t-27.5 64q0 38 27.5 66t65.5 28q35 0 62.5 -28t27.5 -66q0 -36 -27.5 -64t-62.5 -28z" />
    <glyph glyph-name="uni1E5F" unicode="&#x1e5f;" horiz-adv-x="747" 
d="M26 0v69h104v909h-104v69h351l15 -92q5 17 25 42t52 44t73 19q60 0 99.5 -38t59.5 -102t20 -141q0 -71 -28.5 -108.5t-76.5 -37.5q-45 0 -72.5 32.5t-27.5 88.5q0 38 16 61.5t31 45t15 53.5q0 35 -12.5 51.5t-41.5 16.5q-28 0 -57 -28.5t-48 -86t-19 -141.5v-657h103v-69
h-477zM-5 -203v54h604v-54h-604z" />
    <glyph glyph-name="uni1E61" unicode="&#x1e61;" horiz-adv-x="629" 
d="M318 -22q-58 0 -90 15t-51 30t-36 15q-15 0 -20.5 -9.5t-5.5 -28.5h-64v337h76q5 -51 21.5 -102.5t41.5 -94t57 -68t70 -25.5q31 0 51 11t29.5 32t9.5 49q0 41 -20 82t-55.5 85.5t-82.5 91.5q-84 87 -140.5 177t-56.5 217q0 96 38.5 155t98.5 86t124 27q46 0 74 -12.5
t45.5 -25t29.5 -12.5q10 0 16 8.5t6 28.5h65v-328h-75q-4 43 -15.5 90.5t-31 88.5t-47 66.5t-63.5 25.5q-46 0 -70.5 -34.5t-24.5 -80.5q0 -56 42.5 -109t112.5 -120q52 -50 98 -107t75 -127.5t29 -160.5q0 -99 -33.5 -159t-92.5 -87t-135 -27zM330 1140q-38 0 -65.5 27.5
t-27.5 64.5q0 38 27.5 66t65.5 28q35 0 62.5 -28t27.5 -66q0 -37 -27.5 -64.5t-62.5 -27.5z" />
    <glyph glyph-name="uni1E63" unicode="&#x1e63;" horiz-adv-x="629" 
d="M318 -22q-58 0 -90 15t-51 30t-36 15q-15 0 -20.5 -9.5t-5.5 -28.5h-64v337h76q5 -51 21.5 -102.5t41.5 -94t57 -68t70 -25.5q31 0 51 11t29.5 32t9.5 49q0 41 -20 82t-55.5 85.5t-82.5 91.5q-84 87 -140.5 177t-56.5 217q0 96 38.5 155t98.5 86t124 27q46 0 74 -12.5
t45.5 -25t29.5 -12.5q10 0 16 8.5t6 28.5h65v-328h-75q-4 43 -15.5 90.5t-31 88.5t-47 66.5t-63.5 25.5q-46 0 -70.5 -34.5t-24.5 -80.5q0 -56 42.5 -109t112.5 -120q52 -50 98 -107t75 -127.5t29 -160.5q0 -99 -33.5 -159t-92.5 -87t-135 -27zM328 -273q-38 0 -65.5 28
t-27.5 64q0 38 27.5 66t65.5 28q35 0 62.5 -28t27.5 -66q0 -36 -27.5 -64t-62.5 -28z" />
    <glyph glyph-name="uni1E65" unicode="&#x1e65;" horiz-adv-x="629" 
d="M318 -22q-58 0 -90 15t-51 30t-36 15q-15 0 -20.5 -9.5t-5.5 -28.5h-64v337h76q5 -51 21.5 -102.5t41.5 -94t57 -68t70 -25.5q31 0 51 11t29.5 32t9.5 49q0 41 -20 82t-55.5 85.5t-82.5 91.5q-84 87 -140.5 177t-56.5 217q0 96 38.5 155t98.5 86t124 27q46 0 74 -12.5
t45.5 -25t29.5 -12.5q10 0 16 8.5t6 28.5h65v-328h-75q-4 43 -15.5 90.5t-31 88.5t-47 66.5t-63.5 25.5q-46 0 -70.5 -34.5t-24.5 -80.5q0 -56 42.5 -109t112.5 -120q52 -50 98 -107t75 -127.5t29 -160.5q0 -99 -33.5 -159t-92.5 -87t-135 -27zM223 1087l-51 54l188 147
q14 12 28.5 18.5t27.5 6.5q18 0 32.5 -9.5t21.5 -23.5q8 -14 8 -29q0 -19 -13 -35.5t-41 -27.5zM330 1405q-38 0 -65.5 27.5t-27.5 64.5q0 38 27.5 66t65.5 28q35 0 62.5 -28t27.5 -66q0 -37 -27.5 -64.5t-62.5 -27.5z" />
    <glyph glyph-name="uni1E67" unicode="&#x1e67;" horiz-adv-x="629" 
d="M318 -22q-58 0 -90 15t-51 30t-36 15q-15 0 -20.5 -9.5t-5.5 -28.5h-64v337h76q5 -51 21.5 -102.5t41.5 -94t57 -68t70 -25.5q31 0 51 11t29.5 32t9.5 49q0 41 -20 82t-55.5 85.5t-82.5 91.5q-84 87 -140.5 177t-56.5 217q0 96 38.5 155t98.5 86t124 27q46 0 74 -12.5
t45.5 -25t29.5 -12.5q10 0 16 8.5t6 28.5h65v-328h-75q-4 43 -15.5 90.5t-31 88.5t-47 66.5t-63.5 25.5q-46 0 -70.5 -34.5t-24.5 -80.5q0 -56 42.5 -109t112.5 -120q52 -50 98 -107t75 -127.5t29 -160.5q0 -99 -33.5 -159t-92.5 -87t-135 -27zM295 1110l-169 226h90
l113 -153l113 153h92l-169 -226h-70zM330 1400q-38 0 -65.5 27.5t-27.5 64.5q0 38 27.5 66t65.5 28q35 0 62.5 -28t27.5 -66q0 -37 -27.5 -64.5t-62.5 -27.5z" />
    <glyph glyph-name="uni1E69" unicode="&#x1e69;" horiz-adv-x="629" 
d="M318 -22q-58 0 -90 15t-51 30t-36 15q-15 0 -20.5 -9.5t-5.5 -28.5h-64v337h76q5 -51 21.5 -102.5t41.5 -94t57 -68t70 -25.5q31 0 51 11t29.5 32t9.5 49q0 41 -20 82t-55.5 85.5t-82.5 91.5q-84 87 -140.5 177t-56.5 217q0 96 38.5 155t98.5 86t124 27q46 0 74 -12.5
t45.5 -25t29.5 -12.5q10 0 16 8.5t6 28.5h65v-328h-75q-4 43 -15.5 90.5t-31 88.5t-47 66.5t-63.5 25.5q-46 0 -70.5 -34.5t-24.5 -80.5q0 -56 42.5 -109t112.5 -120q52 -50 98 -107t75 -127.5t29 -160.5q0 -99 -33.5 -159t-92.5 -87t-135 -27zM328 -273q-38 0 -65.5 28
t-27.5 64q0 38 27.5 66t65.5 28q35 0 62.5 -28t27.5 -66q0 -36 -27.5 -64t-62.5 -28zM330 1140q-38 0 -65.5 27.5t-27.5 64.5q0 38 27.5 66t65.5 28q35 0 62.5 -28t27.5 -66q0 -37 -27.5 -64.5t-62.5 -27.5z" />
    <glyph glyph-name="uni1E6D" unicode="&#x1e6d;" horiz-adv-x="591" 
d="M400 -18q-66 0 -126 21.5t-97 80.5t-37 169v725h-142v69h142q51 4 92 48t68 111.5t37 144.5h73v-304h163v-69h-163v-847q0 -41 20 -56t38 -15q19 0 34.5 7t22.5 15l39 -54q-28 -21 -67.5 -33.5t-96.5 -12.5zM373 -255q-38 0 -65.5 28t-27.5 64q0 38 27.5 66t65.5 28
q35 0 62.5 -28t27.5 -66q0 -36 -27.5 -64t-62.5 -28z" />
    <glyph glyph-name="uni1E6F" unicode="&#x1e6f;" horiz-adv-x="584" 
d="M70 -182v68h470v-68h-470zM400 -18q-66 0 -126 21.5t-97 80.5t-37 169v725h-142v69h142q51 4 92 48t68 111.5t37 144.5h73v-304h163v-69h-163v-847q0 -41 20 -56t38 -15q19 0 34.5 7t22.5 15l39 -54q-28 -21 -67.5 -33.5t-96.5 -12.5z" />
    <glyph glyph-name="uni1E79" unicode="&#x1e79;" horiz-adv-x="910" 
d="M367 -22q-71 0 -127.5 26.5t-89.5 97t-33 205.5v671h-97v68h367v-708q0 -100 5 -154t19 -74.5t38 -20.5t44 26.5t31.5 77t11.5 123.5v662h-84v68h354v-977h84v-69h-324l-15 99q-5 -23 -28 -51.5t-62.5 -49t-93.5 -20.5zM550 1144q-40 0 -65 14t-45 27t-44 13
q-35 0 -53 -14.5t-23 -23.5l-68 26q5 18 23 42.5t45.5 43.5t61.5 19q44 0 68.5 -12.5t45 -26t50.5 -13.5q35 0 49.5 13.5t18.5 23.5l67 -28q-3 -13 -20 -37.5t-45 -45.5t-66 -21zM360 1333l-51 54l188 147q14 12 28.5 18.5t27.5 6.5q18 0 32.5 -9.5t21.5 -23.5q8 -14 8 -29
q0 -19 -13 -35.5t-41 -27.5z" />
    <glyph glyph-name="uni1E7B" unicode="&#x1e7b;" horiz-adv-x="910" 
d="M367 -22q-71 0 -127.5 26.5t-89.5 97t-33 205.5v671h-97v68h367v-708q0 -100 5 -154t19 -74.5t38 -20.5t44 26.5t31.5 77t11.5 123.5v662h-84v68h354v-977h84v-69h-324l-15 99q-5 -23 -28 -51.5t-62.5 -49t-93.5 -20.5zM196 1144v69h541v-69h-541zM591 1302
q-38 0 -65.5 28t-27.5 64q0 39 27.5 67.5t65.5 28.5q36 0 64 -28.5t28 -67.5q0 -36 -28 -64t-64 -28zM340 1302q-37 0 -64 28t-27 64q0 39 27 67.5t64 28.5q38 0 65.5 -28.5t27.5 -67.5q0 -36 -27.5 -64t-65.5 -28z" />
    <glyph glyph-name="Wgrave" unicode="&#x1e80;" horiz-adv-x="1207" 
d="M337 0l-237 1331h-99v69h477v-69h-60l94 -671l-38 -98l127 684l21 -161l-52 246h-70v69h446v-69h-75l91 -651l-28 -98l122 749h-78v69h236v-69h-83l-226 -1331h-93l-189 1076l37 72l-230 -1148h-93zM748 1450l-211 98q-30 14 -44.5 29.5t-14.5 43.5q0 24 18 39.5t45 15.5
q21 0 35.5 -8t29.5 -20l180 -153z" />
    <glyph glyph-name="wgrave" unicode="&#x1e81;" horiz-adv-x="1155" 
d="M743 -1l-203 979h-68v69h420v-69h-70l75 -461l93 461h-57v69h211v-69h-73l-204 -979h-124zM291 -1l-201 979h-76v69h429v-69h-67l71 -461l93 461h-29v69h181v-69h-71l-205 -979h-125zM707 1106l-211 98q-30 14 -44.5 29.5t-14.5 43.5q0 24 18 39.5t45 15.5q21 0 35.5 -8
t29.5 -20l180 -153z" />
    <glyph glyph-name="Wacute" unicode="&#x1e82;" horiz-adv-x="1207" 
d="M337 0l-237 1331h-99v69h477v-69h-60l94 -671l-38 -98l127 684l21 -161l-52 246h-70v69h446v-69h-75l91 -651l-28 -98l122 749h-78v69h236v-69h-83l-226 -1331h-93l-189 1076l37 72l-230 -1148h-93zM534 1444l-51 54l188 148q14 11 28.5 17.5t27.5 6.5q18 0 32.5 -9.5
t21.5 -23.5q8 -13 8 -29q0 -18 -13 -35t-41 -28z" />
    <glyph glyph-name="wacute" unicode="&#x1e83;" horiz-adv-x="1155" 
d="M743 -1l-203 979h-68v69h420v-69h-70l75 -461l93 461h-57v69h211v-69h-73l-204 -979h-124zM291 -1l-201 979h-76v69h429v-69h-67l71 -461l93 461h-29v69h181v-69h-71l-205 -979h-125zM493 1087l-51 54l188 147q14 12 28.5 18.5t27.5 6.5q18 0 32.5 -9.5t21.5 -23.5
q8 -14 8 -29q0 -19 -13 -35.5t-41 -27.5z" />
    <glyph glyph-name="Wdieresis" unicode="&#x1e84;" horiz-adv-x="1207" 
d="M337 0l-237 1331h-99v69h477v-69h-60l94 -671l-38 -98l127 684l21 -161l-52 246h-70v69h446v-69h-75l91 -651l-28 -98l122 749h-78v69h236v-69h-83l-226 -1331h-93l-189 1076l37 72l-230 -1148h-93zM766 1502q-38 0 -65.5 28t-27.5 64q0 39 27.5 67.5t65.5 28.5
q36 0 64 -28.5t28 -67.5q0 -36 -28 -64t-64 -28zM515 1502q-37 0 -64 28t-27 64q0 39 27 67.5t64 28.5q38 0 65.5 -28.5t27.5 -67.5q0 -36 -27.5 -64t-65.5 -28z" />
    <glyph glyph-name="wdieresis" unicode="&#x1e85;" horiz-adv-x="1155" 
d="M743 -1l-203 979h-68v69h420v-69h-70l75 -461l93 461h-57v69h211v-69h-73l-204 -979h-124zM291 -1l-201 979h-76v69h429v-69h-67l71 -461l93 461h-29v69h181v-69h-71l-205 -979h-125zM725 1134q-38 0 -65.5 28t-27.5 64q0 39 27.5 67.5t65.5 28.5q36 0 64 -28.5t28 -67.5
q0 -36 -28 -64t-64 -28zM474 1134q-37 0 -64 28t-27 64q0 39 27 67.5t64 28.5q38 0 65.5 -28.5t27.5 -67.5q0 -36 -27.5 -64t-65.5 -28z" />
    <glyph glyph-name="uni1E8F" unicode="&#x1e8f;" horiz-adv-x="744" 
d="M228 -502q-50 0 -87 36.5t-56.5 98.5t-19.5 138q0 71 29 107.5t75 36.5t74 -33t28 -91q0 -45 -18 -73t-35.5 -51t-17.5 -57q0 -25 10.5 -40t29.5 -15q11 0 19 7.5t14.5 24t12.5 43.5l76 349l-273 999h-84v69h448v-69h-78l119 -451l103 451h-74v69h223v-69h-72l-235 -985
l-87 -379q-7 -35 -22 -61.5t-39.5 -40.5t-62.5 -14zM379 1139q-38 0 -65.5 27.5t-27.5 64.5q0 38 27.5 66t65.5 28q35 0 62.5 -28t27.5 -66q0 -37 -27.5 -64.5t-62.5 -27.5z" />
    <glyph glyph-name="uni1E93" unicode="&#x1e93;" horiz-adv-x="699" 
d="M75 0v69l272 909h-88q-51 0 -75 -25.5t-31 -83t-7 -150.5h-67v328h546v-69l-271 -909h88q51 0 74 25.5t30 84.5t7 158h68v-337h-546zM351 -273q-38 0 -65.5 28t-27.5 64q0 38 27.5 66t65.5 28q35 0 62.5 -28t27.5 -66q0 -36 -27.5 -64t-62.5 -28z" />
    <glyph glyph-name="uni1E97" unicode="&#x1e97;" horiz-adv-x="591" 
d="M400 -18q-66 0 -126 21.5t-97 80.5t-37 169v725h-142v69h142q51 4 92 48t68 111.5t37 144.5h73v-304h163v-69h-163v-847q0 -41 20 -56t38 -15q19 0 34.5 7t22.5 15l39 -54q-28 -21 -67.5 -33.5t-96.5 -12.5zM424 1391q-38 0 -65.5 28t-27.5 64q0 39 27.5 67.5t65.5 28.5
q36 0 64 -28.5t28 -67.5q0 -36 -28 -64t-64 -28zM173 1391q-37 0 -64 28t-27 64q0 39 27 67.5t64 28.5q38 0 65.5 -28.5t27.5 -67.5q0 -36 -27.5 -64t-65.5 -28z" />
    <glyph glyph-name="uni1E9E" unicode="&#x1e9e;" horiz-adv-x="1003" 
d="M630 -22q-60 0 -109.5 41.5t-49.5 121.5q0 55 23.5 88.5t63.5 33.5q35 0 55 -23.5t20 -62.5q0 -32 -10 -50t-21 -30t-11 -27q0 -13 8.5 -21.5t24.5 -8.5q33 0 52 25t27 69t8 101q0 104 -23 178.5t-57 129.5t-68 101.5t-57 92t-23 102.5q0 38 28 91.5t72.5 114t96 119.5
t100 110t82.5 86h-316q-63 0 -91 -40t-35 -114t-7 -175v-1031h-371v65h89v873q0 152 52.5 260.5t144 167t207.5 58.5h378l37 -68q-50 -52 -113.5 -122t-121.5 -141.5t-96 -130t-38 -90.5q0 -37 35 -72t86.5 -76t102.5 -95t86 -129t35 -179q0 -122 -42.5 -198t-110 -110.5
t-143.5 -34.5z" />
    <glyph glyph-name="uni1EA0" unicode="&#x1ea0;" horiz-adv-x="720" 
d="M-5 0v69h83l195 1332h134l230 -1332h92v-69h-459v69h76l-102 725h5l-99 -725h68v-69h-223zM147 250v64h208v-64h-208zM324 -273q-38 0 -65.5 28t-27.5 64q0 38 27.5 66t65.5 28q35 0 62.5 -28t27.5 -66q0 -36 -27.5 -64t-62.5 -28z" />
    <glyph glyph-name="uni1EA1" unicode="&#x1ea1;" horiz-adv-x="857" 
d="M295 -22q-68 0 -124 32.5t-89.5 92.5t-33.5 142q0 97 41.5 160t103 105t123 75t103 69.5t41.5 89.5q0 72 -11.5 125t-37 82t-66.5 29q-47 0 -77 -24.5t-30 -59.5q0 -28 12 -48t24.5 -42.5t12.5 -60.5q0 -52 -29 -82t-76 -30q-48 0 -77.5 40.5t-29.5 111.5q0 79 42 141.5
t116 98t169 35.5q94 0 168 -37.5t117 -119t43 -215.5v-525q0 -52 9 -70.5t27 -18.5q19 0 32.5 10t19.5 18l40 -53q-16 -23 -67 -45.5t-121 -22.5q-68 0 -107.5 19t-57.5 45t-24 48q-4 -13 -22.5 -41t-57.5 -51t-106 -23zM389 93q22 0 38 19.5t24.5 50.5t8.5 63v391
q-3 -28 -25 -54t-48.5 -60t-46 -87t-19.5 -137q0 -91 18.5 -138.5t49.5 -47.5zM438 -273q-38 0 -65.5 28t-27.5 64q0 38 27.5 66t65.5 28q35 0 62.5 -28t27.5 -66q0 -36 -27.5 -64t-62.5 -28z" />
    <glyph glyph-name="uni1EA2" unicode="&#x1ea2;" horiz-adv-x="720" 
d="M-5 0v69h83l195 1332h134l230 -1332h92v-69h-459v69h76l-102 725h5l-99 -725h68v-69h-223zM147 250v64h208v-64h-208zM336 1747q58 0 101 -24t43 -86q0 -43 -27 -71t-54.5 -49.5t-27.5 -48.5h-58q0 40 13.5 66t26.5 48.5t13 48.5q0 29 -12.5 40t-38.5 11q-23 0 -40 -7
t-32 -20l-46 44q20 20 58 34t81 14z" />
    <glyph glyph-name="uni1EA3" unicode="&#x1ea3;" horiz-adv-x="857" 
d="M295 -22q-68 0 -124 32.5t-89.5 92.5t-33.5 142q0 97 41.5 160t103 105t123 75t103 69.5t41.5 89.5q0 72 -11.5 125t-37 82t-66.5 29q-47 0 -77 -24.5t-30 -59.5q0 -28 12 -48t24.5 -42.5t12.5 -60.5q0 -52 -29 -82t-76 -30q-48 0 -77.5 40.5t-29.5 111.5q0 79 42 141.5
t116 98t169 35.5q94 0 168 -37.5t117 -119t43 -215.5v-525q0 -52 9 -70.5t27 -18.5q19 0 32.5 10t19.5 18l40 -53q-16 -23 -67 -45.5t-121 -22.5q-68 0 -107.5 19t-57.5 45t-24 48q-4 -13 -22.5 -41t-57.5 -51t-106 -23zM389 93q22 0 38 19.5t24.5 50.5t8.5 63v391
q-3 -28 -25 -54t-48.5 -60t-46 -87t-19.5 -137q0 -91 18.5 -138.5t49.5 -47.5zM410 1418q58 0 101 -24t43 -86q0 -43 -27 -71t-54.5 -49.5t-27.5 -48.5h-58q0 40 13.5 66t26.5 48.5t13 48.5q0 29 -12.5 40t-38.5 11q-23 0 -40 -7t-32 -20l-46 44q20 20 58 34t81 14z" />
    <glyph glyph-name="uni1EA4" unicode="&#x1ea4;" horiz-adv-x="720" 
d="M-5 0v69h83l195 1332h134l230 -1332h92v-69h-459v69h76l-102 725h5l-99 -725h68v-69h-223zM147 250v64h208v-64h-208zM160 1468l148 166h70l146 -166h-82l-100 93l-100 -93h-82zM473 1603l-44 46l160 125q26 21 48 21q16 0 27.5 -8t18.5 -20q7 -13 7 -25q0 -16 -11.5 -30
t-34.5 -23z" />
    <glyph glyph-name="uni1EA5" unicode="&#x1ea5;" horiz-adv-x="857" 
d="M295 -22q-68 0 -124 32.5t-89.5 92.5t-33.5 142q0 97 41.5 160t103 105t123 75t103 69.5t41.5 89.5q0 72 -11.5 125t-37 82t-66.5 29q-47 0 -77 -24.5t-30 -59.5q0 -28 12 -48t24.5 -42.5t12.5 -60.5q0 -52 -29 -82t-76 -30q-48 0 -77.5 40.5t-29.5 111.5q0 79 42 141.5
t116 98t169 35.5q94 0 168 -37.5t117 -119t43 -215.5v-525q0 -52 9 -70.5t27 -18.5q19 0 32.5 10t19.5 18l40 -53q-16 -23 -67 -45.5t-121 -22.5q-68 0 -107.5 19t-57.5 45t-24 48q-4 -13 -22.5 -41t-57.5 -51t-106 -23zM389 93q22 0 38 19.5t24.5 50.5t8.5 63v391
q-3 -28 -25 -54t-48.5 -60t-46 -87t-19.5 -137q0 -91 18.5 -138.5t49.5 -47.5zM233 1115l148 206h70l146 -206h-82l-100 133l-100 -133h-82zM546 1290l-44 46l160 125q26 21 48 21q16 0 27.5 -8t18.5 -20q7 -13 7 -25q0 -16 -11.5 -30t-34.5 -23z" />
    <glyph glyph-name="uni1EA6" unicode="&#x1ea6;" horiz-adv-x="720" 
d="M-5 0v69h83l195 1332h134l230 -1332h92v-69h-459v69h76l-102 725h5l-99 -725h68v-69h-223zM147 250v64h208v-64h-208zM160 1468l148 166h70l146 -166h-82l-100 93l-100 -93h-82zM536 1611l-181 84q-25 11 -38 24.5t-13 37.5q0 21 15 34t39 13q18 0 31 -6t26 -17l153 -132
z" />
    <glyph glyph-name="uni1EA7" unicode="&#x1ea7;" horiz-adv-x="857" 
d="M295 -22q-68 0 -124 32.5t-89.5 92.5t-33.5 142q0 97 41.5 160t103 105t123 75t103 69.5t41.5 89.5q0 72 -11.5 125t-37 82t-66.5 29q-47 0 -77 -24.5t-30 -59.5q0 -28 12 -48t24.5 -42.5t12.5 -60.5q0 -52 -29 -82t-76 -30q-48 0 -77.5 40.5t-29.5 111.5q0 79 42 141.5
t116 98t169 35.5q94 0 168 -37.5t117 -119t43 -215.5v-525q0 -52 9 -70.5t27 -18.5q19 0 32.5 10t19.5 18l40 -53q-16 -23 -67 -45.5t-121 -22.5q-68 0 -107.5 19t-57.5 45t-24 48q-4 -13 -22.5 -41t-57.5 -51t-106 -23zM389 93q22 0 38 19.5t24.5 50.5t8.5 63v391
q-3 -28 -25 -54t-48.5 -60t-46 -87t-19.5 -137q0 -91 18.5 -138.5t49.5 -47.5zM233 1115l148 206h70l146 -206h-82l-100 133l-100 -133h-82zM609 1298l-181 84q-25 11 -38 24.5t-13 37.5q0 21 15 34t39 13q18 0 31 -6t26 -17l153 -132z" />
    <glyph glyph-name="uni1EA8" unicode="&#x1ea8;" horiz-adv-x="720" 
d="M-5 0v69h83l195 1332h134l230 -1332h92v-69h-459v69h76l-102 725h5l-99 -725h68v-69h-223zM147 250v64h208v-64h-208zM158 1469l148 166h70l146 -166h-82l-100 93l-100 -93h-82zM485 1814q45 0 79.5 -19t34.5 -69q0 -34 -22 -56t-44 -39.5t-22 -39.5h-45q0 33 11 53
t21.5 38t10.5 40t-10.5 30.5t-30.5 8.5q-19 0 -32.5 -5t-24.5 -15l-37 34q15 16 45.5 27.5t65.5 11.5z" />
    <glyph glyph-name="uni1EA9" unicode="&#x1ea9;" horiz-adv-x="857" 
d="M295 -22q-68 0 -124 32.5t-89.5 92.5t-33.5 142q0 97 41.5 160t103 105t123 75t103 69.5t41.5 89.5q0 72 -11.5 125t-37 82t-66.5 29q-47 0 -77 -24.5t-30 -59.5q0 -28 12 -48t24.5 -42.5t12.5 -60.5q0 -52 -29 -82t-76 -30q-48 0 -77.5 40.5t-29.5 111.5q0 79 42 141.5
t116 98t169 35.5q94 0 168 -37.5t117 -119t43 -215.5v-525q0 -52 9 -70.5t27 -18.5q19 0 32.5 10t19.5 18l40 -53q-16 -23 -67 -45.5t-121 -22.5q-68 0 -107.5 19t-57.5 45t-24 48q-4 -13 -22.5 -41t-57.5 -51t-106 -23zM389 93q22 0 38 19.5t24.5 50.5t8.5 63v391
q-3 -28 -25 -54t-48.5 -60t-46 -87t-19.5 -137q0 -91 18.5 -138.5t49.5 -47.5zM231 1116l148 206h70l146 -206h-82l-100 133l-100 -133h-82zM558 1501q45 0 79.5 -19t34.5 -69q0 -34 -22 -56t-44 -39.5t-22 -39.5h-45q0 33 11 53t21.5 38t10.5 40t-10.5 30.5t-30.5 8.5
q-19 0 -32.5 -5t-24.5 -15l-37 34q15 16 45.5 27.5t65.5 11.5z" />
    <glyph glyph-name="uni1EAA" unicode="&#x1eaa;" horiz-adv-x="720" 
d="M-5 0v69h83l195 1332h134l230 -1332h92v-69h-459v69h76l-102 725h5l-99 -725h68v-69h-223zM147 250v64h208v-64h-208zM164 1469l147 166h70l146 -166h-82l-100 93l-100 -93h-81zM429 1668q-41 0 -66.5 14.5t-45.5 28.5t-44 14q-35 0 -53.5 -15t-23.5 -23l-67 25
q5 18 23.5 43t46.5 44t63 19q45 0 69.5 -13.5t45 -27.5t50.5 -14q35 0 50 13.5t19 23.5l67 -27q-4 -13 -21.5 -37.5t-46 -46t-66.5 -21.5z" />
    <glyph glyph-name="uni1EAB" unicode="&#x1eab;" horiz-adv-x="857" 
d="M295 -22q-68 0 -124 32.5t-89.5 92.5t-33.5 142q0 97 41.5 160t103 105t123 75t103 69.5t41.5 89.5q0 72 -11.5 125t-37 82t-66.5 29q-47 0 -77 -24.5t-30 -59.5q0 -28 12 -48t24.5 -42.5t12.5 -60.5q0 -52 -29 -82t-76 -30q-48 0 -77.5 40.5t-29.5 111.5q0 79 42 141.5
t116 98t169 35.5q94 0 168 -37.5t117 -119t43 -215.5v-525q0 -52 9 -70.5t27 -18.5q19 0 32.5 10t19.5 18l40 -53q-16 -23 -67 -45.5t-121 -22.5q-68 0 -107.5 19t-57.5 45t-24 48q-4 -13 -22.5 -41t-57.5 -51t-106 -23zM389 93q22 0 38 19.5t24.5 50.5t8.5 63v391
q-3 -28 -25 -54t-48.5 -60t-46 -87t-19.5 -137q0 -91 18.5 -138.5t49.5 -47.5zM236 1116l148 206h70l146 -206h-82l-100 133l-100 -133h-82zM502 1355q-41 0 -67 14t-46 28t-44 14q-34 0 -52.5 -14.5t-23.5 -23.5l-68 26q6 17 24 42t46 44.5t63 19.5q46 0 70.5 -14t44.5 -28
t51 -14q35 0 50 13.5t19 24.5l66 -27q-3 -13 -20.5 -38t-46 -46t-66.5 -21z" />
    <glyph glyph-name="uni1EAC" unicode="&#x1eac;" horiz-adv-x="720" 
d="M-5 0v69h83l195 1332h134l230 -1332h92v-69h-459v69h76l-102 725h5l-99 -725h68v-69h-223zM147 250v64h208v-64h-208zM324 -273q-38 0 -65.5 28t-27.5 64q0 38 27.5 66t65.5 28q35 0 62.5 -28t27.5 -66q0 -36 -27.5 -64t-62.5 -28zM161 1463l148 206h69l146 -206h-82
l-100 133l-99 -133h-82z" />
    <glyph glyph-name="uni1EAD" unicode="&#x1ead;" horiz-adv-x="857" 
d="M295 -22q-68 0 -124 32.5t-89.5 92.5t-33.5 142q0 97 41.5 160t103 105t123 75t103 69.5t41.5 89.5q0 72 -11.5 125t-37 82t-66.5 29q-47 0 -77 -24.5t-30 -59.5q0 -28 12 -48t24.5 -42.5t12.5 -60.5q0 -52 -29 -82t-76 -30q-48 0 -77.5 40.5t-29.5 111.5q0 79 42 141.5
t116 98t169 35.5q94 0 168 -37.5t117 -119t43 -215.5v-525q0 -52 9 -70.5t27 -18.5q19 0 32.5 10t19.5 18l40 -53q-16 -23 -67 -45.5t-121 -22.5q-68 0 -107.5 19t-57.5 45t-24 48q-4 -13 -22.5 -41t-57.5 -51t-106 -23zM389 93q22 0 38 19.5t24.5 50.5t8.5 63v391
q-3 -28 -25 -54t-48.5 -60t-46 -87t-19.5 -137q0 -91 18.5 -138.5t49.5 -47.5zM438 -273q-38 0 -65.5 28t-27.5 64q0 38 27.5 66t65.5 28q35 0 62.5 -28t27.5 -66q0 -36 -27.5 -64t-62.5 -28zM234 1125l148 206h69l146 -206h-82l-100 133l-99 -133h-82z" />
    <glyph glyph-name="uni1EAE" unicode="&#x1eae;" horiz-adv-x="720" 
d="M-5 0v69h83l195 1332h134l230 -1332h92v-69h-459v69h76l-102 725h5l-99 -725h68v-69h-223zM147 250v64h208v-64h-208zM340 1499q-63 0 -102 29t-57 74.5t-18 93.5h67q6 -61 36.5 -90.5t73.5 -29.5q44 0 75 29.5t36 90.5h67q0 -48 -18 -93.5t-57 -74.5t-103 -29zM235 1735
l-51 54l188 148q14 11 28.5 17.5t27.5 6.5q18 0 32.5 -9.5t21.5 -23.5q8 -13 8 -29q0 -18 -13 -35t-41 -28z" />
    <glyph glyph-name="uni1EAF" unicode="&#x1eaf;" horiz-adv-x="857" 
d="M295 -22q-68 0 -124 32.5t-89.5 92.5t-33.5 142q0 97 41.5 160t103 105t123 75t103 69.5t41.5 89.5q0 72 -11.5 125t-37 82t-66.5 29q-47 0 -77 -24.5t-30 -59.5q0 -28 12 -48t24.5 -42.5t12.5 -60.5q0 -52 -29 -82t-76 -30q-48 0 -77.5 40.5t-29.5 111.5q0 79 42 141.5
t116 98t169 35.5q94 0 168 -37.5t117 -119t43 -215.5v-525q0 -52 9 -70.5t27 -18.5q19 0 32.5 10t19.5 18l40 -53q-16 -23 -67 -45.5t-121 -22.5q-68 0 -107.5 19t-57.5 45t-24 48q-4 -13 -22.5 -41t-57.5 -51t-106 -23zM389 93q22 0 38 19.5t24.5 50.5t8.5 63v391
q-3 -28 -25 -54t-48.5 -60t-46 -87t-19.5 -137q0 -91 18.5 -138.5t49.5 -47.5zM413 1115q-63 0 -102 29t-57 74.5t-18 93.5h67q6 -61 36.5 -90.5t73.5 -29.5q44 0 75 29.5t36 90.5h67q0 -48 -18 -93.5t-57 -74.5t-103 -29zM316 1342l-51 54l188 148q14 11 28.5 17.5
t27.5 6.5q18 0 32 -9.5t22 -23.5q8 -13 8 -29q0 -18 -13 -35t-41 -28z" />
    <glyph glyph-name="uni1EB0" unicode="&#x1eb0;" horiz-adv-x="720" 
d="M-5 0v69h83l195 1332h134l230 -1332h92v-69h-459v69h76l-102 725h5l-99 -725h68v-69h-223zM147 250v64h208v-64h-208zM340 1499q-63 0 -102 29t-57 74.5t-18 93.5h67q6 -61 36.5 -90.5t73.5 -29.5q44 0 75 29.5t36 90.5h67q0 -48 -18 -93.5t-57 -74.5t-103 -29zM449 1741
l-211 98q-30 14 -44.5 29.5t-14.5 43.5q0 24 18 39.5t45 15.5q21 0 35.5 -8t29.5 -20l180 -153z" />
    <glyph glyph-name="uni1EB1" unicode="&#x1eb1;" horiz-adv-x="857" 
d="M295 -22q-68 0 -124 32.5t-89.5 92.5t-33.5 142q0 97 41.5 160t103 105t123 75t103 69.5t41.5 89.5q0 72 -11.5 125t-37 82t-66.5 29q-47 0 -77 -24.5t-30 -59.5q0 -28 12 -48t24.5 -42.5t12.5 -60.5q0 -52 -29 -82t-76 -30q-48 0 -77.5 40.5t-29.5 111.5q0 79 42 141.5
t116 98t169 35.5q94 0 168 -37.5t117 -119t43 -215.5v-525q0 -52 9 -70.5t27 -18.5q19 0 32.5 10t19.5 18l40 -53q-16 -23 -67 -45.5t-121 -22.5q-68 0 -107.5 19t-57.5 45t-24 48q-4 -13 -22.5 -41t-57.5 -51t-106 -23zM389 93q22 0 38 19.5t24.5 50.5t8.5 63v391
q-3 -28 -25 -54t-48.5 -60t-46 -87t-19.5 -137q0 -91 18.5 -138.5t49.5 -47.5zM413 1134q-63 0 -102 29.5t-57 75t-18 92.5h67q6 -61 36.5 -90.5t73.5 -29.5q44 0 75 29.5t36 90.5h67q0 -47 -18 -92.5t-57 -75t-103 -29.5zM530 1359l-210 98q-30 14 -45 29.5t-15 43.5
q0 24 18 39.5t45 15.5q21 0 35.5 -8t29.5 -20l180 -153z" />
    <glyph glyph-name="uni1EB2" unicode="&#x1eb2;" horiz-adv-x="720" 
d="M-5 0v69h83l195 1332h134l230 -1332h92v-69h-459v69h76l-102 725h5l-99 -725h68v-69h-223zM147 250v64h208v-64h-208zM340 1499q-63 0 -102 29t-57 74.5t-18 93.5h67q6 -61 36.5 -90.5t73.5 -29.5q44 0 75 29.5t36 90.5h67q0 -48 -18 -93.5t-57 -74.5t-103 -29zM336 2038
q58 0 101 -24t43 -86q0 -43 -27 -71t-54.5 -49.5t-27.5 -48.5h-58q0 40 13.5 66t26.5 48.5t13 48.5q0 29 -12.5 40t-38.5 11q-23 0 -40 -7t-32 -20l-46 44q20 20 58 34t81 14z" />
    </font>
</defs>
</svg>
