<?xml version="1.0" standalone="no"?>
<!DOCTYPE svg PUBLIC "-//W3C//DTD SVG 1.1//EN" "http://www.w3.org/Graphics/SVG/1.1/DTD/svg11.dtd" >
<svg xmlns="http://www.w3.org/2000/svg" xmlns:xlink="http://www.w3.org/1999/xlink" version="1.1">
<metadata>
Created by FontForge 20201107 at Sat Dec 14 09:04:22 2024
 By 
Copyright (c) 2012 TypeSETit, LLC (typesetit@att.net),with Reserved Font Name "Great Vibes". Vietnamese by Viet Linh
</metadata>
<defs>
<font id="VLGreatVibes" horiz-adv-x="686" >
  <font-face 
    font-family="VL Great Vibes"
    font-weight="400"
    font-stretch="normal"
    units-per-em="2048"
    panose-1="2 0 5 7 8 0 0 2 0 2"
    ascent="1638"
    descent="-410"
    x-height="705"
    cap-height="1706"
    bbox="-819 -820.26 3335.54 1994.35"
    underline-thickness="28"
    underline-position="-188"
    unicode-range="U+0020-FB04"
  />
<missing-glyph horiz-adv-x="2048" 
 />
    <glyph glyph-name=".notdef" horiz-adv-x="2048" 
 />
    <glyph glyph-name=".null" horiz-adv-x="0" 
 />
    <glyph glyph-name="nonmarkingreturn" horiz-adv-x="682" 
 />
    <glyph glyph-name="space" unicode=" " horiz-adv-x="530" 
 />
    <glyph glyph-name="exclam" unicode="!" horiz-adv-x="716" 
d="M1028 1270l64 -2l10 -4l4 -13q-17 -46 -346 -530l-340 -502l-21 2l2 15l521 991q21 43 106 43zM244 31q0 52 30.5 80t69.5 28q32 0 52 -19.5t20 -39.5q0 -18 -1 -26t-9.5 -25.5t-26.5 -32.5q-34 -27 -64 -24.5t-50.5 21t-20.5 38.5z" />
    <glyph glyph-name="quotedbl" unicode="&#x22;" horiz-adv-x="651" 
d="M631 1346q49 0 49 -60q0 -63 -35 -203q-35 -138 -37 -143h-20l-17 340q-2 30 14.5 48t45.5 18zM410 1346q47 0 47 -70q0 -71 -70 -336h-20l-19 338q-2 26 17 47t45 21z" />
    <glyph glyph-name="numbersign" unicode="#" horiz-adv-x="1527" 
d="M1169 952h304l-58 -98h-305l-170 -289h330l-60 -96h-329l-285 -469h-109l281 469h-283l-284 -469h-109l283 469h-324l62 96h319l172 289h-348l59 98h349l282 473h113l-287 -473h287l284 473h111zM827 565l172 289h-284l-174 -289h286z" />
    <glyph glyph-name="dollar" unicode="$" horiz-adv-x="919" 
d="M926 1008q-15 98 -129 122l-240 -434q137 -180 137 -303q0 -122 -86 -217q-83 -90 -198.5 -135t-239.5 -45l-57 -109l-70 -12l72 125q-199 37 -252 109q3 15 37 49h18q82 -88 221 -115l305 557q-218 269 -47 440q138 138 369 138l57 106l66 12l-68 -125q74 -11 113 -58.5
t39 -111.5q2 -45 -18.5 -79t-49.5 -48t-60 -10.5t-50 25.5q-25 26 -24.5 64t26.5 63q23 23 53.5 25t51 -9t24.5 -24zM524 741l221 398l-28 2q-98 0 -182 -66t-84 -162q0 -46 14 -71q8 -17 22.5 -41t25 -41t11.5 -19zM565 356q0 85 -84 201l-288 -520q140 0 256 90
q116 91 116 229z" />
    <glyph glyph-name="percent" unicode="%" horiz-adv-x="1271" 
d="M555 1499q154 0 154 -147q0 -178 -156 -389q-35 -50 -66 -78q26 -51 86 -51q97 0 273 141q48 37 205 211q160 174 163 176q10 7 31 5.5t25 -13.5l-1260 -1526h-76l-2 10q299 315 637 729q294 363 326 402q-200 -170 -326 -170q-72 0 -120 51q-88 -70 -175 -70
q-149 0 -149 189q0 90 45 186q61 140 172 242q114 102 213 102zM999 657q156 0 156 -155q0 -154 -127 -340q-153 -221 -309 -221q-150 0 -150 188q0 88 45 184q60 141 172 244q112 100 213 100zM313 825q47 0 113 54q-34 52 -31 100q0 88 70 88q41 0 53.5 -32.5t3.5 -51.5
q33 47 76 143q57 133 57.5 212t-53.5 92q-16 4 -24 4q-58 0 -132.5 -75t-134.5 -200q-72 -149 -71.5 -241.5t73.5 -92.5zM756 -16q30 0 75 26.5t70 55.5q31 34 70 84q46 58 86 176q43 119 43 176q0 90 -76 90q-59 0 -133.5 -74t-134.5 -199q-48 -101 -64 -177t0 -117t64 -41
z" />
    <glyph glyph-name="ampersand" unicode="&#x26;" horiz-adv-x="1241" 
d="M686 815l137 4q88 0 115 -37q27 -35 4 -61q-25 -31 -92 -31q-117 0 -207 90q-228 -34 -348 -243q-76 -134 -76 -265q0 -64 23 -141q68 -197 293 -197q200 0 348 136q147 135 147 268q0 60 -52.5 104t-117.5 50q-52 8 -102 8q-145 0 -240 -64q-78 -54 -78 -141
q0 -89 138 -160q22 -13 16 -35q-4 -15 -16 -8q-132 72 -183 158q-57 88 -26 160q26 75 125 122.5t247 47.5h363q105 0 262 71q75 34 111 82q16 24 16.5 53t-12.5 48q-18 30 -4 36q11 4 20 -10q57 -97 2 -174q-55 -80 -174 -125q-124 -47 -254 -47h-10q78 -66 78 -162
q0 -137 -160 -282q-76 -73 -195.5 -117.5t-248.5 -44.5q-317 0 -449 184q-107 149 -39 338q70 192 289 301q130 64 280 78q-57 77 -57 201q3 120 107 227q100 101 234 152t271 51q113 0 184.5 -45.5t71.5 -134.5q0 -62 -36 -107q-23 -28 -53.5 -38.5t-57.5 -4t-47 24.5
q-43 47 -18.5 105t83.5 58q24 0 46.5 -11t27.5 -25q2 8 2 24q0 46 -37 70q-34 31 -116.5 28.5t-182.5 -43.5q-110 -43 -200 -124t-142 -193q-52 -117 -10 -209zM918 752q0 36 -152 36q-41 0 -64 -2q49 -61 132 -61q84 0 84 27z" />
    <glyph glyph-name="quotesingle" unicode="'" horiz-adv-x="323" 
d="M158 799q0 12 16 18q65 25 108 70t50 108q-32 -21 -63.5 -21t-49.5 23q-17 21 -18.5 39.5t4.5 36.5q5 25 34 48.5t64 23.5q37 0 59.5 -33.5t22.5 -79.5q0 -85 -59 -146.5t-146 -90.5q-22 -5 -22 4z" />
    <glyph glyph-name="parenleft" unicode="(" horiz-adv-x="716" 
d="M1016 1546q47 11 47 -8q-3 -21 -47 -35q-138 -36 -254 -110q-116 -72 -202 -158.5t-159 -196.5q-231 -340 -231 -692q0 -265 129 -373q60 -51 147 -51q6 0 17.5 1t20.5 2t18.5 0.5t15 -4.5t6.5 -11q3 -33 -106 -33t-213 94q-101 91 -139 273q-35 186 18 420
q31 115 114.5 248.5t202.5 258.5q125 132 283 230q163 102 332 145z" />
    <glyph glyph-name="parenright" unicode=")" horiz-adv-x="1060" 
d="M76 -104q-47 -11 -47 8q0 23 49 35q160 42 304 141.5t241 228.5q299 397 299 787q0 262 -129 370q-66 54 -150 54q-3 0 -26 -2.5t-35 0.5t-15 14q-3 33 107 33q108 0 211 -95q103 -90 141 -272q35 -186 -18 -420q-39 -152 -168 -334q-124 -175 -334 -335
q-203 -154 -430 -213z" />
    <glyph glyph-name="asterisk" unicode="*" horiz-adv-x="882" 
d="M33 756q0 41 43 41h297q-39 88 -117 256q-17 39 8 45q4 2 10 2q32 0 52 -45l120 -236l238 240q32 32 41 4q18 -30 -27 -78l-174 -188h279q33 0 33 -21q0 -31 -52 -43l-20 -2l-270 -10q99 -199 108 -215q9 -14 -4 -43q-37 -63 -74 -6l-102 229l-223 -244
q-13 -13 -39.5 -6.5t-35.5 26t15 46.5l205 207l-270 -10q-17 0 -29 17.5t-12 33.5z" />
    <glyph glyph-name="plus" unicode="+" horiz-adv-x="937" 
d="M326 496l284 -7l21 89l47 196q15 55 47 55q21 0 12 -36q-3 -11 -9.5 -46t-21 -110t-28.5 -148q27 -2 131 -2h135q37 0 37 -28q0 -27 -43 -27q-97 0 -272 -12l-19 -101q-24 -131 -29 -180q-3 -24 -49 -33q-8 -2 -22 -2q-29 0 -29 25q0 8 72 287l-156 -10l-133 -9
q-22 -3 -22 39q6 54 47 60z" />
    <glyph glyph-name="comma" unicode="," horiz-adv-x="313" 
d="M236 41q0 -87 -63 -154t-150 -96q-10 -10 -18 -2q-11 10 7 22q3 1 6 3q64 21 106.5 67.5t49.5 110.5q-42 -34 -89.5 -13.5t-37.5 76.5q4 35 34.5 59.5t68.5 24.5t62 -27.5t24 -70.5z" />
    <glyph glyph-name="hyphen" unicode="-" horiz-adv-x="831" 
d="M301 453q0 43 35 43q133 0 450 -9q34 -3 43 -26q-3 -26 -34 -29q-162 0 -312 -18l-149 -17q-12 0 -22.5 19t-10.5 37z" />
    <glyph glyph-name="period" unicode="." horiz-adv-x="425" 
d="M209 31q0 52 30.5 80t69.5 28q32 0 52 -19.5t20 -39.5q0 -18 -1 -26t-9.5 -25.5t-26.5 -32.5q-34 -27 -64 -24.5t-50.5 21t-20.5 38.5z" />
    <glyph glyph-name="slash" unicode="/" horiz-adv-x="1122" 
d="M475 326q-351 -410 -426 -410q-24 0 -14 22q7 15 31 37q61 50 253 279q136 160 181 215q103 126 219 272l223 281q119 148 248 313l240 303q23 33 69 33q47 0 47 -29q0 -14 -14 -28q-98 -111 -445 -545q-296 -370 -612 -743z" />
    <glyph glyph-name="zero" unicode="0" horiz-adv-x="1028" 
d="M1034 958q0 -119 -59 -290q-142 -391 -381 -584q-131 -107 -254 -107q-114 0 -174 74.5t-60 192.5q0 159 111 379q112 222 287 391q178 172 340 172q190 0 190 -228zM846 1147q-94 0 -209 -121q-114 -120 -201 -281q-88 -158 -147 -323q-60 -168 -60 -250
q0 -154 125 -154q130 0 275 195q150 198 237 424q90 235 90 371q0 139 -110 139z" />
    <glyph glyph-name="one" unicode="1" horiz-adv-x="774" 
d="M143 -4l-18 4l-2 12l289 516l264 471q-167 -151 -334 -251h-8l-8 16l4 12q265 200 352 293q81 87 115 90l63 6q4 0 12 -2v-10l-622 -1143q-7 -4 -107 -14z" />
    <glyph glyph-name="two" unicode="2" horiz-adv-x="999" 
d="M375 279l-86 -72q234 -117 282 -117t101 35q29 20 59.5 49t48 47t21.5 19l14 -13v-8q-200 -244 -323 -244q-41 0 -125 35q-193 85 -195 86l-143 -112l-27 16q5 15 96 113q94 104 105 108q32 3 45 -2q639 568 639 807q0 90 -103 90t-196 -100q-91 -99 -137 -217l-9 -8h-24
l-4 12q51 146 170 262q118 115 260 115q82 0 133 -45q53 -47 53 -131q0 -86 -127 -234q-40 -47 -84.5 -94t-79 -80.5t-76 -71.5t-63.5 -57.5t-55 -48t-39 -33.5q-17 -15 -63.5 -51.5t-67.5 -54.5z" />
    <glyph glyph-name="three" unicode="3" horiz-adv-x="937" 
d="M995 1057q0 -224 -454 -387q112 0 192 -45q84 -44 84 -154t-104 -229q-105 -123 -244 -193q-91 -46 -179.5 -62.5t-156 -5t-113.5 45.5v10l15 12l10 4q65 -30 143 -30q162 0 324 155q166 156 166 320q0 57 -41 92q-40 35 -91.5 35.5t-154.5 -29.5l-14 6l-2 19l8 10
q310 128 420 274q51 68 51 142q0 71 -80 71q-118 0 -282 -182h-11l-14 12v10q185 226 373 226q71 0 113 -32t42 -95z" />
    <glyph glyph-name="four" unicode="4" horiz-adv-x="950" 
d="M897 723l37 2l12 -6l2 -12q0 -8 -61 -127q-69 -136 -76 -146h49l12 -8l-10 -23l-14 -10l-60 -2q-180 -363 -190 -373q-8 -8 -63 -20t-70 -12l-10 2v8q0 26 204 389l-497 -12v16q17 35 153 174q259 259 451 514q56 70 106 76q10 3 52.5 9.5t52.5 8.5l14 -6l2 -14
q0 -41 -272 -295q-55 -51 -303 -276l-178 -160l444 8l133 258q10 24 31 27q38 10 49 10z" />
    <glyph glyph-name="five" unicode="5" horiz-adv-x="911" 
d="M559 1135q49 17 91.5 18.5t78.5 -6.5q43 -6 143 -6t158 43l8 -4q-34 -90 -123 -131q-85 -39 -176 -39l-209 6l-225 -391q139 92 275 92q93 0 148.5 -46t55.5 -132q0 -138 -112 -271q-113 -134 -266 -215q-154 -80 -275 -80q-120 0 -156 25v14l13 15l8 4q52 -19 127 -19
q174 0 348 174q176 176 176 346q0 62 -34 97t-91 35q-47 0 -96 -17q-42 -14 -102 -53q-66 -39 -80 -45l-13 4v12q15 40 160 297q150 260 168 273z" />
    <glyph glyph-name="six" unicode="6" horiz-adv-x="862" 
d="M197 152q0 -57 29.5 -92t82.5 -35q92 0 183 94q94 94 147 215q57 123 55 208t-69 85q-64 0 -129 -62q-100 -92 -168 -264l-9 -10l-20 -2l-4 12q34 138 141 262q112 127 238 127q68 0 106.5 -44.5t38.5 -117.5q0 -110 -80 -243q-82 -134 -204 -219q-124 -89 -232 -89
q-110 0 -168.5 59t-58.5 175q0 117 80 268q79 152 209 291q233 248 495 432l12 2l15 -22l-2 -4q-2 -3 -7 -9.5t-12 -13.5q-6 -7 -63 -55q-16 -12 -29.5 -23t-24 -19.5t-12.5 -10.5q-141 -130 -258 -283q-112 -147 -198 -318q-84 -170 -84 -294z" />
    <glyph glyph-name="seven" unicode="7" horiz-adv-x="999" 
d="M1022 1014l-326 8q-57 0 -102 -21.5t-66 -50.5q-48 -73 -75 -76l-7 5v12q86 170 154 217q67 49 244 49q185 0 291 -14q26 20 41 20l8 -12l-4 -14q-80 -88 -340 -363q-279 -293 -557 -645q-91 -116 -105 -123q-19 -5 -143 -16l-12 6l-3 8q15 60 799 817q184 175 203 193z
" />
    <glyph glyph-name="eight" unicode="8" horiz-adv-x="860" 
d="M831 774q-84 -94 -196 -192q39 -82 39 -234q0 -145 -131 -258q-128 -113 -281 -113q-98 0 -165.5 53t-67.5 132q0 155 159 305q130 124 258 217q-34 78 -34 164q0 132 104 233q107 101 240 101q83 0 135.5 -41t52.5 -109q0 -130 -113 -258zM870 1026q0 54 -29 84.5
t-83 30.5q-86 0 -150 -70q-63 -69 -63 -158q0 -87 76 -288q96 80 174 190q75 106 75 211zM457 645q-334 -249 -334 -475q0 -70 37.5 -110t105.5 -40q111 0 195 93q82 94 82 209q0 113 -86 323z" />
    <glyph glyph-name="nine" unicode="9" horiz-adv-x="890" 
d="M627 373q-236 -254 -486 -418h-12l-10 18l8 13q495 346 627 864q20 73 20 147q0 142 -112 142q-87 4 -183.5 -80.5t-156 -199.5t-54.5 -200q0 -114 103 -114q160 0 280 284l8 7l23 -2l2 -11q-57 -147 -162 -270q-106 -127 -225 -127q-66 0 -105.5 45t-39.5 115
q0 180 186 387q188 209 358 209q96 0 148.5 -71.5t52.5 -192.5q0 -120 -76 -269q-73 -146 -194 -276z" />
    <glyph glyph-name="colon" unicode=":" horiz-adv-x="524" 
d="M352 514q4 35 33.5 59.5t65.5 24.5q32 0 51.5 -19.5t19.5 -39.5q0 -18 -1 -26t-9.5 -25.5t-26.5 -32.5q-46 -38 -94 -17t-39 76zM297 80q0 -52 -30.5 -80.5t-69.5 -28.5q-32 0 -52 20t-20 40q0 18 1 26t9.5 25.5t26.5 32.5q34 27 64 24.5t50.5 -21t20.5 -38.5z" />
    <glyph glyph-name="semicolon" unicode=";" horiz-adv-x="522" 
d="M352 514q4 35 33.5 59.5t65.5 24.5q32 0 51.5 -19.5t19.5 -39.5q0 -18 -1 -26t-9.5 -25.5t-26.5 -32.5q-46 -38 -94 -17t-39 76zM309 29q0 -86 -58.5 -147.5t-146.5 -90.5q-10 -10 -19 -2q-11 10 7 22q3 1 6 3q64 21 107.5 67.5t50.5 110.5q-31 -18 -62.5 -19t-52.5 22
t-14 60q6 35 34.5 59.5t65.5 24.5t59.5 -32t22.5 -78z" />
    <glyph glyph-name="less" unicode="&#x3c;" horiz-adv-x="673" 
d="M680 623l2 -15q-36 -58 -236 -194l-96 -66l-2 -278l-10 -21l-14 -6q-11 0 -17 6q-29 80 -49 178q-22 113 -29 140q3 1 15 8.5t44 28t62 38.5q292 187 316 187z" />
    <glyph glyph-name="equal" unicode="=" horiz-adv-x="937" 
d="M838 659q0 -22 -35 -22q-220 0 -303 -14q-126 -21 -154 -21q-45 0 -45 60q0 38 35 38h301q201 0 201 -41zM838 455q0 -23 -35 -23q-220 0 -303 -14q-126 -21 -154 -21q-45 0 -45 60q0 39 35 39h301q201 0 201 -41z" />
    <glyph glyph-name="greater" unicode="&#x3e;" horiz-adv-x="673" 
d="M483 438l25 -131l-420 -262l-14 -2q-5 0 -17 4l-2 8q0 20 47 58l80 63q69 53 185 133l20 15l2 278l10 19l17 8l18 -8q32 -89 49 -183z" />
    <glyph glyph-name="question" unicode="?" horiz-adv-x="782" 
d="M668 819l114 142q74 95 74 169q0 61 -70 95q-45 17 -118 8q-56 0 -135 -59.5t-72 -102.5v-10q9 39 71 74q58 28 95 8q35 -18 35 -70q0 -49 -44.5 -85t-91.5 -36q-71 0 -92 58q-21 41 4 118q26 63 131 123q135 78 242 78q125 0 178 -92q15 -27 15 -59q0 -115 -136 -269
q-39 -44 -161 -166q-118 -115 -183 -200q-67 -88 -114 -215q-8 -19 -25.5 -12.5t-13.5 26.5q15 70 69 164q52 92 90 141q43 60 138 172zM244 31q0 52 30.5 80t69.5 28q32 0 52 -19.5t20 -39.5q0 -18 -1 -26t-9.5 -25.5t-26.5 -32.5q-34 -27 -64 -24.5t-50.5 21t-20.5 38.5z
" />
    <glyph glyph-name="at" unicode="@" horiz-adv-x="1957" 
d="M690 238q0 -86 68 -86q77 0 174 112q106 127 190 291q91 171 121 201q34 37 84 37q6 0 53.5 -8t65.5 -5q-50 -50 -133 -209q-74 -142 -99.5 -240t-2 -147t93.5 -49q129 0 262 109q137 109 209 276q73 168 73 326q0 192 -96 305q-93 108 -212.5 152.5t-280.5 44.5
q-269 0 -515 -152q-239 -149 -366 -385t-127 -465q0 -233 113 -364q202 -240 573 -240q331 0 633 203q18 18 33 -2q15 -21 -11 -31q-323 -215 -669 -215q-426 0 -637 254q-133 165 -133 409q0 184 83.5 372t235.5 333q152 143 365 235q211 91 417 91q249 0 441 -113
q95 -53 159 -152q76 -113 76 -280q0 -160 -96 -338q-95 -176 -260 -307q-52 -41 -156 -76q-98 -33 -176 -33h-14q-78 0 -137 68q-61 73 -11 250q-93 -152 -188 -242t-168 -90q-39 0 -68 20q-82 52 -82 195q0 246 218 508q121 145 301 188q50 12 94 12q122 0 203 -81
q24 -29 14 -54.5t-41 -19.5q-27 92 -123 92q-45 0 -98 -29q-84 -44 -176.5 -145t-175.5 -236q-101 -165 -101 -290z" />
    <glyph glyph-name="A" unicode="A" horiz-adv-x="1458" 
d="M1360 911q47 0 47 -59q0 -65 -51 -119q-91 -105 -166 -252q-115 -233 -115 -413q0 -68 24.5 -103t59.5 -35q97 0 230 160q116 149 178 291q17 31 32.5 28.5t3.5 -32.5q0 -2 -1 -4q-81 -185 -191 -328q-38 -56 -98 -100t-121 -64.5t-117.5 -8t-85.5 61.5q-37 57 -40 150.5
t19.5 177.5t57.5 131q-201 -244 -440 -397q-120 -75 -273 -90q-72 -8 -129 22q-147 62 -147 299q0 239 156 518q85 152 180 261q-137 64 -205 141q-49 55 -49 133q0 76 31 98q21 26 36 11q7 -17 4.5 -29t-8.5 -34t-6 -34q0 -58 61.5 -124.5t172.5 -118.5q483 534 999 534
q160 0 256 -72t96 -188q0 -124 -139 -242q-67 -58 -199 -106q-195 -70 -469 -70q-271 0 -448 58q-211 -300 -285 -488q-78 -197 -78 -299q0 -29 2 -41q24 -170 172 -170q169 0 385 180q160 135 306 312q155 187 221 317q73 137 131 137zM1677 1348q0 89 -73 135
q-71 47 -199 47q-126 0 -254 -41q-122 -39 -236 -121q-105 -76 -189 -158.5t-187 -205.5q155 -50 376 -50q418 0 613 136q149 104 149 258z" />
    <glyph glyph-name="B" unicode="B" horiz-adv-x="2131" 
d="M2126 393q0 -113 -84 -217q-119 -143 -318 -207q-149 -47 -286 -47q-52 0 -101 6q-319 40 -544 142q-203 -150 -428 -150q-265 0 -330 148q-38 100 33 182q73 82 204 82q83 0 156 -25q67 -23 172 -80q106 -58 152 -80q97 97 186 244q106 175 168 307q83 169 186 336
q117 190 230 314l116 133q-371 67 -784 -23q-318 -67 -492 -274q-104 -125 -104 -238q0 -147 145 -194q53 -13 91.5 -15t88.5 15t99 59q49 46 70 90q10 18 16 37t7.5 28t6 15t13.5 6q19 -3 22 -29v-2q-21 -150 -160 -227q-80 -45 -168 -45l-106 18q-217 76 -217 283
q0 142 125 279q199 224 590 280q434 60 807 -18q61 52 100 65q53 21 59 15q13 0 4 -15q-7 -15 -45 -37q-35 -23 -45 -45q277 -70 402 -204q119 -132 20 -306q-58 -102 -192 -155q-130 -52 -269 -58q128 -39 244 -114q160 -106 160 -279zM1409 -20q231 0 389 131
q174 137 174 301q0 169 -178 254q-71 33 -162 59q-16 5 -40 13t-37 12t-32.5 10.5t-30.5 10.5t-24.5 9.5t-21.5 9.5t-15.5 8.5t-11.5 8.5t-6 8q0 38 60 41q39 0 118 -6t138 -6q59 2 140 43t136 102q92 103 92 193q0 194 -360 276q-118 -164 -389 -633q-270 -467 -433 -645
l-77 -74q233 -95 497 -122q54 -4 74 -4zM707 109q-254 121 -304 137q-68 22 -127 22q-62 0 -98 -45q-61 -71 -20 -147q47 -92 188 -92q196 0 361 125z" />
    <glyph glyph-name="C" unicode="C" horiz-adv-x="1454" 
d="M776 -207q-161 0 -307 64q-143 60 -231 179.5t-107 266.5q-18 148 10 330q18 120 80 262q66 143 150 250q-66 254 -9 469q4 15 12.5 23t14.5 8q11 -1 12.5 -18t-2 -54.5t-6 -84.5t3.5 -121.5t23 -152.5q165 214 385 308q168 73 356 73q53 0 111 -6q314 -34 426 -241
q88 -171 2 -369q-88 -195 -309 -291q-140 -61 -310 -61q-63 0 -145 10q-367 53 -508 348q-50 -71 -102 -233q-50 -157 -60 -252q-13 -158 0 -271q15 -111 86 -204q72 -91 191 -125q118 -37 209 -37q287 0 485 119q118 69 188 161q71 92 148 252q11 24 23 19q14 -5 2 -36
q0 -1 -1 -3q-78 -159 -145 -250q-64 -91 -180 -172q-232 -160 -496 -160zM469 1051q144 -371 606 -371q259 0 416 145q158 146 158 330t-160 287q-119 76 -293 76q-176 0 -350 -101q-221 -129 -377 -366z" />
    <glyph glyph-name="D" unicode="D" horiz-adv-x="2076" 
d="M768 74q-192 -154 -422 -154q-264 0 -326 148q-38 99 33 180q75 84 205 84q91 0 176 -33q82 -28 318 -152q101 98 204 263q106 169 177 315q88 176 182 334q106 177 215 299q-229 137 -488 137q-101 0 -217 -22q-316 -67 -483 -277q-102 -126 -102 -242q0 -156 149 -202
q57 -13 93.5 -15.5t84 13.5t97.5 57q90 90 96 168q1 17 20 14t21 -23q1 -5 0 -10q-21 -151 -158 -227q-80 -45 -168 -45l-106 18q-154 52 -205 199q-21 55 -21 111q0 110 84 223q180 241 639 309q89 12 178 12q285 0 543 -135q78 90 146 139.5t110 49.5q29 0 28 -14
q0 -10 -12 -14q-2 -1 -4 -1q-34 0 -90 -74q-57 -76 -90 -137q220 -146 334 -373q92 -182 92 -397q0 -267 -127 -424q-106 -130 -254 -182q-177 -64 -352 -64q-351 0 -600 144zM817 111q205 -123 486 -123q323 0 516 184q153 150 153 414q0 186 -74 354q-92 212 -272 352
q-60 -94 -229 -372q-175 -287 -285 -453q-116 -174 -184 -248q-68 -71 -111 -108zM698 106q-263 125 -303 138q-68 22 -125 22q-60 0 -96 -45q-58 -73 -18 -149q43 -88 176 -88q198 0 366 122z" />
    <glyph glyph-name="E" unicode="E" horiz-adv-x="1669" 
d="M1008 768l-220 2q-272 0 -421 -131q-179 -150 -179 -352q0 -212 201 -303q113 -52 307 -52q197 0 410 82q214 82 362 197q168 131 168 229q0 49 -49 58q-48 12 -51 26q-3 20 31 17q36 -3 57 -15q92 -50 92 -127q0 -112 -160 -239q-155 -125 -399 -199q-245 -74 -452 -74
q-209 0 -343 41q-230 70 -301 265q-13 41 -17 72t0.5 73.5t26.5 95t62 117.5q51 85 163.5 158.5t236 112.5t221.5 38q-107 38 -176.5 104.5t-69.5 139.5v12q15 166 186 297q173 132 361 182q186 52 325 52q16 0 84 -5q170 -21 244 -86t74 -129q0 -93 -107 -178
q-104 -81 -254 -116q-19 -4 -34 -6t-26 -2t-17 3t-5 9q9 24 70 30q59 9 119 50q116 84 131 217v12q0 51 -49 94q-60 57 -207 57q-156 0 -310 -48.5t-278 -149.5q-156 -126 -156 -277q-4 -46 18.5 -84.5t64 -65t90.5 -44t106 -27.5q158 -35 158 -86q0 -47 -88 -47z" />
    <glyph glyph-name="F" unicode="F" horiz-adv-x="2146" 
d="M2054 1249q-413 205 -665 205q-254 0 -422 -143q-162 -137 -162 -295q0 -81 59 -119q77 -45 152 -45q26 0 53 6q92 20 160 76q65 53 65 86t22 46q14 5 17 -9q0 -14 -6 -29q-44 -146 -201 -199q-158 -54 -280 21q-131 73 -131 225q0 183 168 332t409 149q122 0 240 -34
q303 -82 549 -238q64 70 131 70q75 0 78 -51q1 -10 -3 -16.5t-12 -4.5q-13 4 -22 16q-18 7 -31 7q-47 0 -92 -45q153 -78 356 -130q95 -22 199 -16q90 9 117 68q17 40 32 39q6 0 7 -9v-16q0 -83 -86 -127q-49 -24 -101 -26t-102 8q-35 6 -144 39q-118 39 -251 104l-58 29
q-106 -118 -227 -416l-45 -113q101 -14 214.5 -14.5t167.5 0t56 -11.5q3 -45 -305 -45q-106 0 -158 8q-124 -341 -254 -516q-150 -191 -303 -271q-201 -110 -452 -110q-250 0 -424 110q-265 164 -265 473q0 102 35 224q24 77 90 137q70 61 113 72q42 13 42 7q-1 -8 -71 -57
q-133 -95 -157 -237q-29 -140 20 -266q82 -217 348 -320q95 -36 199.5 -44t210.5 12t211 74.5t194 139.5q238 226 390 578l-132 2q-239 0 -315 -111q-18 -21 -29.5 -11.5t-3.5 30.5q46 98 127 141q82 43 162 43q81 0 219 -18q58 139 160 323q99 169 137 213z" />
    <glyph glyph-name="G" unicode="G" horiz-adv-x="1431" 
d="M326 946q-99 -212 -99 -381q0 -347 238 -424q140 -38 289 0q147 41 264 117q115 75 147 150q82 190 176 190q49 0 64 -53q7 -17 4 -45q-20 -154 -85.5 -309.5t-193.5 -366.5q257 -3 449 -53q43 -9 43 -29q0 -23 -59 -8q-139 37 -408 37h-53q-124 -179 -334 -318
q-204 -137 -403 -190q-197 -53 -312 -11q-149 55 -149 146q0 29 14 57q56 124 291 228q169 75 361 105.5t458 35.5q152 259 207 504l8 34q-99 -95 -223 -167q-135 -77 -215 -101q-95 -30 -173 -40.5t-131.5 -4.5t-105.5 25q-131 46 -213 180q-59 96 -78.5 215.5t4 261.5
t91.5 291q-134 139 -135.5 296.5t126.5 297.5q26 28 37 19q9 -8 -10 -36q-92 -124 -92 -247q0 -145 106 -269q16 36 45 80q160 263 435 402q213 110 415 110q62 0 111 -8q264 -40 356 -217q81 -152 -14 -324q-113 -198 -401 -278q-148 -43 -310 -43q-330 0 -542 141z
M1174 1612q-178 0 -373 -119q-291 -173 -449 -494q95 -74 221 -104q130 -31 203 -31q433 0 654 232q110 119 110 237q0 190 -211 254q-80 25 -155 25zM8 -616q0 -57 98 -78q31 -8 72 -8q146 0 369 104q280 128 448 367q-213 -6 -377 -33q-231 -34 -444 -170
q-166 -108 -166 -182z" />
    <glyph glyph-name="H" unicode="H" horiz-adv-x="2828" 
d="M3148 1556q0 -5 -27 -20q-28 -13 -92 -106q-56 -83 -162 -289q-97 -189 -172 -412q123 0 158 12q42 14 43 1q0 -8 -21 -23q-67 -46 -198 -55q-2 -2 -33 -99q-102 -316 -102 -444q1 -51 15 -82t35 -40.5t45 -5t48 22.5q118 86 256 371q11 22 23.5 28t15 -6t-7.5 -36
q-78 -166 -127 -238q-48 -74 -113 -139q-83 -80 -168 -80q-93 0 -131 78q-12 28 -16 54t-3.5 43t4.5 56.5t5 65.5q5 49 28 135l37 123q28 80 41 115l29 78q-112 0 -694 26q-125 -369 -394 -667q-137 -149 -305 -244q-234 -129 -491 -129q-294 0 -494 153q-122 90 -170 243
t-2 333q23 90 109 176q84 81 141 84q20 0 24.5 -5.5t-2.5 -12.5t-18 -11q-62 -27 -127 -116q-86 -121 -86 -277q0 -246 238 -367q145 -71 336 -71q79 0 157 16q695 156 977 899q-51 0 -104 -24q-32 -15 -50 -20t-24.5 -2.5t-7.5 11.5q0 36 49 66q49 34 86 37h80
q142 352 299 663l-152 -14l-159 -14q-66 -6 -152 -21q-98 -17 -149 -35q-162 -51 -254 -133q-116 -110 -166 -270q-21 -64 -21 -139q0 -73 53 -144q51 -69 142 -69q174 0 248 200q19 42 27.5 77t7 55t-5.5 35t-8.5 22.5t-3.5 13t11 10.5q15 3 25 -16q56 -121 -17 -248
q-71 -128 -188 -170q-121 -43 -229 4q-108 46 -160 160q-31 64 -32.5 128.5t18.5 139.5q21 84 79.5 165t141.5 128q175 104 375 133l204 25q70 7 211 14q107 5 183 13q19 37 67 94q29 35 57.5 53t41.5 20.5t32 2.5q76 0 76 -66q0 -62 -84 -106q-82 -43 -158 -43
q-54 -104 -157 -381l-107 -287q138 0 395 -19q259 -16 299 -16q38 114 140 340q107 231 176 334q78 117 141 137q41 15 69 20.5t37 4t9 -6.5zM2286 1581q-28 0 -103 -100q134 21 131 71q-3 24 -22 27q-2 2 -6 2z" />
    <glyph glyph-name="I" unicode="I" horiz-adv-x="1867" 
d="M2294 1505l-86 -18q-138 -258 -252 -660q-43 -145 -119 -311q-80 -170 -190 -313q-408 -522 -1043 -522q-294 0 -469 126q-117 86 -158 230q-39 146 27 319q45 115 137 195q96 87 150 90q21 0 24 -6q5 -8 -22 -23q-66 -28 -141 -120q-121 -145 -121 -324q0 -138 88 -236
q109 -121 313 -168q84 -20 137 -20h26h28.5t27.5 0.5t32.5 2t33 4t39.5 6.5t43 10q166 43 325 139q149 93 261 202.5t210 251.5q161 234 242 455q147 386 307 662q-324 -67 -518 -150q-200 -87 -305 -192q-133 -136 -174 -310q-12 -49 -12 -90q0 -83 45 -137.5t102 -54.5
q61 0 122 26t105 80q66 84 66 199q0 56 -16 72q-4 8 4 18q21 30 39 0q57 -112 -13 -244q-70 -131 -200 -180q-67 -25 -142 -25q-74 0 -160 68t-86 188q0 37 9 80q117 527 1167 705q13 29 66 96q31 35 59.5 54t44 22.5t35.5 3.5q66 0 69 -57q0 -61 -49 -95q-54 -32 -108 -49z
M2243 1538q139 27 133 78q-3 24 -29 24q-21 0 -104 -102z" />
    <glyph glyph-name="J" unicode="J" horiz-adv-x="1978" 
d="M2437 1446l-88 -16q-162 -284 -303 -734q-56 -178 -156 -401q-106 -234 -223 -418q-166 -258 -442 -424q-270 -167 -502 -198q-300 -39 -512 32q-221 74 -303 242q-82 174 18 428q41 96 137 176q97 81 154 84q25 3 25 -8q-3 -9 -27 -21q-65 -27 -145 -116
q-71 -81 -101 -169t-30 -153q0 -151 79 -242q58 -64 140.5 -112t173.5 -66q134 -25 221 -26.5t145 16.5q134 29 264.5 99t235.5 161q95 77 199 209q97 120 168 227q62 94 143 246q126 240 252 537q170 374 328 622q-280 -46 -580 -204q-145 -77 -256 -203
q-137 -155 -137 -334q0 -91 44 -147t99 -56q57 0 117 24.5t106 76.5q78 90 78 206q0 52 -14 66q-25 16 -4 31q22 13 47 -15q50 -110 -25 -243q-77 -131 -209 -177q-59 -20 -116 -20q-92 0 -166 59q-94 76 -94 209q0 170 118 318q86 110 203.5 186t284.5 141q255 97 538 136
q23 39 74 96q30 34 59 52t43 21t33 3q72 0 72 -62q-1 -52 -40.5 -82t-125.5 -57zM2501 1581q-19 7 -115 -100q142 24 139 75q-3 25 -24 25z" />
    <glyph glyph-name="K" unicode="K" horiz-adv-x="2342" 
d="M1841 311q-14 81 -16 115q-14 138 12 147h6q58 0 228 84q144 71 376 226q215 146 443 364q235 229 381 451q26 39 45 39q7 0 13.5 -6t6 -22t-13.5 -38q-236 -391 -658 -729q-427 -342 -708 -412q-8 -11 0 -90q2 -37 39 -174q38 -129 84 -235q138 -320 366 -320
q129 0 250 56q123 57 174 159q10 24 26 28q12 4 12 -11q0 -12 -11 -33q-55 -112 -195 -199q-134 -90 -282.5 -87.5t-274.5 106.5q-227 186 -303 581zM2355 1503q-64 -58 -207 -73q-119 -216 -268 -678q-58 -176 -149 -363q-92 -191 -199 -334q-111 -150 -288 -257t-390 -138
q-179 -26 -348 12q-374 85 -483 369q-59 158 -11 346q24 87 103 160q82 72 131 78q26 3 26 -13q0 -10 -12 -16q-43 -18 -119 -107q-90 -113 -90 -274q0 -166 103 -272q123 -129 295 -164q208 -41 325 -6q169 40 313 123q144 79 243.5 171.5t193.5 225.5q92 132 143 229
q62 118 186 400q129 294 234 503l-176 -16q-261 -21 -418 -66q-278 -76 -399 -299q-58 -107 -58 -206q0 -46 17 -105q46 -137 178 -137q168 0 235 174q19 48 27 91.5t6.5 69t-4 44.5t-2.5 27t8 8q15 -3 29 -27q46 -104 -21 -235q-62 -130 -172 -170q-70 -25 -127 -25
q-101 0 -184 74q-111 99 -111 256q0 224 209 374q192 143 557 183q88 10 252 20q42 3 81 6t66.5 5.5t35.5 3.5q19 37 67 94q29 35 58 53t45 20.5t43 2.5q29 -4 48.5 -26.5t16 -55t-38.5 -60.5zM2331 1565q0 22 -19 22q-23 0 -46.5 -19.5t-80.5 -86.5q61 9 90 24q56 27 56 60
z" />
    <glyph glyph-name="L" unicode="L" horiz-adv-x="1458" 
d="M1964 1556q0 -178 -117 -372q-117 -198 -319 -340q-200 -142 -420 -180q-137 -274 -180 -353l-43 -69q408 -103 671 -305q137 -106 183 -256q33 -117 18.5 -185.5t-65.5 -93.5q-7 -2 -18 -6.5t-15.5 -6t-11 -3t-7.5 1t-2 6.5t2 13t8 21.5t13 30.5q17 34 22 83t-3.5 106
t-41.5 118.5t-88 110.5q-76 67 -217 127q-141 63 -239 86q-79 21 -271 60q-179 -248 -362 -334q-203 -100 -355 -21q-116 58 -116 174t153 205q175 102 471 102q102 0 193 -16q96 151 215 395h-23q-128 0 -238 43t-177 117q-86 95 -86 217q0 64 30 137q34 78 147.5 153.5
t272.5 111.5q60 14 68 -4q4 -10 -15 -18t-49 -13q-85 -9 -164 -60q-129 -81 -182 -258q-8 -34 -10.5 -59.5t1 -61.5t22 -75.5t51.5 -83.5q48 -57 127 -78q73 -21 142.5 -23t111.5 7l174 438q180 461 430 569q65 27 127 27q65 0 120.5 -40.5t59.5 -96.5q2 -16 2 -48z
M1878 1554q0 78 -72 78q-104 0 -254 -182q-113 -139 -225 -352t-190 -379q287 65 512 311q229 247 229 524zM743 162q-214 50 -426 -8q-236 -61 -276 -174q-8 -19 -8 -39q0 -52 57 -86.5t129 -34.5q94 0 209 53q171 83 315 289z" />
    <glyph glyph-name="M" unicode="M" horiz-adv-x="2721" 
d="M883 733q0 141 -133 141q-6 0 -21 -1.5t-24.5 -2t-20.5 3t-16 11.5q-11 16 24 25q12 3 29 5q40 5 49 5q118 0 162 -103q52 -118 -39 -276q-105 -186 -315 -273q-152 -65 -308 8q-153 72 -211 240q-58 166 33 416q126 298 418 506q311 225 582 225q231 0 307 -184
q35 -81 35 -193q0 -22 -4 -76q-20 -173 -107 -407q-9 -24 -12 -39.5t-1.5 -21t5.5 -5.5q5 -2 14 9.5t21 33.5q151 278 333 496q56 67 144 117q138 74 229.5 33.5t91.5 -179.5q0 -214 -161 -690l-41 -123q170 266 415 572q249 310 447 370q38 10 61 10q80 0 101 -77
q8 -24 8 -62q0 -105 -82 -268q-166 -328 -230 -535q-83 -263 -83 -358q0 -96 18 -160q38 -127 195 -127q2 0 10 0.5t15.5 0.5t16 -0.5t13.5 -2.5t6 -6q6 -17 -25.5 -22t-50.5 -2q-323 35 -323 331q0 110 43 246q56 168 75 213q26 62 207 465q114 264 -2 264q-78 0 -248 -164
q-80 -80 -186 -211q-94 -114 -297 -434q-200 -316 -250 -436q-46 -111 -125 -111q-56 0 -65 39q-7 17 0 27l39 67q2 3 67 125q83 155 172 408q98 287 133 594q4 46 4 86q0 51 -26.5 83t-59.5 32q-99 0 -221 -152q-166 -205 -284 -399q-126 -203 -187 -328q-32 -66 -149 -322
q-66 -150 -90 -198q-2 -6 -13.5 -29.5t-15.5 -36.5q-27 -59 -115 -59q-52 0 -55 33q0 8 2 14q136 210 299 633q209 538 209 782q0 293 -242 293q-158 0 -393 -149t-391 -383q-61 -91 -92 -179q-54 -160 -54 -249q0 -266 177 -349q61 -30 125 -30q222 0 362 239
q72 123 72 211z" />
    <glyph glyph-name="N" unicode="N" horiz-adv-x="2127" 
d="M868 743q0 131 -137 131q-54 0 -59 2q-11 4 2 17q19 25 121 25t137 -91q14 -32 14 -73q0 -86 -65 -201q-111 -185 -306 -262q-103 -41 -223 -41q-125 0 -222.5 84.5t-127.5 232.5q-6 41 -6 84q0 120 65 285q63 159 220 313q296 288 614 355q140 29 272 12
q128 -18 199 -121q57 -77 57 -203q0 -41 -4.5 -81.5t-12.5 -73.5t-15 -56t-15.5 -46t-9.5 -27l-31 -72l-26 -64q-5 -11 -33 -73q-85 -186 -82 -189l63 103q119 183 271 368q268 326 485 426q119 58 211 58q97 0 154 -47t57 -148q0 -100 -62 -245t-204 -404
q-80 -148 -123.5 -232t-93 -194.5t-71 -194.5t-21.5 -157q0 -56 14 -97q27 -94 111 -94q33 0 92.5 22.5t72.5 22.5q25 0 25 -26q0 -24 -37 -47t-65 -23q-328 0 -328 285q0 101 35 211q33 94 256 567q219 464 237 582q4 24 4 34q0 86 -100 86q-71 0 -154 -45
q-318 -151 -612 -587q-171 -252 -391 -728l-84 -180q-27 -59 -115 -59q-52 0 -55 33q-3 6 0 14q94 136 274 537q181 399 244 684q40 192 0 299q-44 110 -145 125q-40 4 -86 4q-68 0 -178 -36t-234 -114q-311 -194 -448 -502q-76 -168 -76 -309q0 -70 18 -135
q67 -169 238 -178q212 0 368 176q127 142 127 278z" />
    <glyph glyph-name="O" unicode="O" horiz-adv-x="1486" 
d="M1102 49q-226 -174 -461 -174q-244 0 -358 182q-77 129 -80 296.5t59 324.5q-143 94 -158 258q-4 40 -4 61q0 246 211 412q226 176 533 176q309 0 508 -172q202 -169 202 -487v-41q206 135 267 258q15 25 33 18q15 -7 8 -26q-3 -8 -11 -15q-119 -189 -305 -307
q-10 -107 -53 -231q-46 -142 -147 -281q-104 -142 -244 -252zM1434 928q0 344 -222 512q-146 110 -344 110q-51 0 -116 -10q-252 -38 -408 -207q-133 -148 -133 -334q0 -161 88 -237q78 166 236 344q168 189 358 233q29 6 50 7.5t61 -7.5t79 -32q24 -13 14 -25
q-9 -10 -38 -2q-19 8 -70 8q-53 0 -143.5 -53t-175.5 -150q-187 -212 -267 -393q130 -59 310 -59q72 0 170 10q298 41 547 176q4 74 4 109zM1417 748q-343 -183 -721 -183q-184 0 -323 56q-64 -165 -64 -287q0 -284 170 -367q181 -84 361 -4q180 82 323 256q144 175 217 383
q29 89 37 146z" />
    <glyph glyph-name="P" unicode="P" horiz-adv-x="1822" 
d="M1976 1444q217 -129 217 -311q0 -145 -159 -308q-90 -94 -215 -164t-252 -102q-205 -51 -385 -51q-49 0 -74 2q-153 -222 -307 -373q-230 -217 -510 -217q-266 0 -328 146q-38 99 33 180q75 84 207 84q82 0 180 -31q34 -12 25 -27q-4 -4 -25.5 2t-62 14.5t-78.5 8.5
q-66 0 -117 -51q-49 -49 -49 -107q0 -26 8 -45q34 -110 186 -110q229 0 451 213q158 155 354 553q82 160 189 331q118 190 229 316l37 37q36 41 72 77q-348 48 -633 -8q-162 -29 -260 -65q-285 -95 -416 -250q-103 -118 -103 -244q0 -77 56 -145q60 -72 151 -72q94 0 181 72
q85 68 124 176q2 15 9 20.5t13.5 -1t6.5 -21.5q-3 -135 -104 -211t-224 -76q-139 0 -227 82t-88 211q0 119 64 213q59 91 143.5 151t210.5 111q202 80 407 109q429 64 744 0q68 54 129 77q67 24 72 19q12 0 4 -14q-3 -7 -23 -21.5t-49.5 -37.5t-50.5 -44q130 -34 237 -98z
M1137 553h28q154 0 324 51q177 53 311 154q262 200 262 409q0 241 -362 326q-119 -167 -297 -485q-170 -305 -266 -455z" />
    <glyph glyph-name="Q" unicode="Q" horiz-adv-x="1540" 
d="M1006 1286q-91 0 -207 -78q-154 -105 -272 -277.5t-179 -385.5q-37 -124 -37 -217q0 -238 131 -348q83 -68 181 -68q203 0 407 154q139 107 227 225q211 278 211 596q0 218 -112 385q-141 212 -402 264q-138 33 -307 8q-233 -30 -336 -203q-65 -109 -65 -243
q0 -77 22 -170q8 -36 -10.5 -43t-38.5 30q-112 226 23 428q132 199 397 246q132 21 217 21q263 0 406 -82q230 -129 286 -357q67 -219 -14 -496t-277 -487q-285 -317 -622 -317q-138 0 -240.5 71.5t-148.5 188.5q-87 218 -23 471q38 162 135.5 321.5t221.5 264.5
q149 140 342 155q12 3 22 3q74 0 139 -39q39 -31 -19 -28q-22 1 -58 7zM877 -643q-162 92 -297 233l-113 111q-119 113 -240 113q-41 0 -88 -27q-44 -27 -47 -61q-3 -36 -16 -33q-17 0 -17 41q0 38 52 90q51 51 116 51q178 0 383 -166q51 -42 189 -149q109 -85 256 -154.5
t307 -99.5q63 -13 108 -13q123 0 170 78q50 87 -24 197q-94 137 -291 172q-33 3 -33 24q0 18 27 15q242 -41 348 -182q86 -122 27 -224q-76 -129 -348 -129q-271 0 -469 113z" />
    <glyph glyph-name="R" unicode="R" horiz-adv-x="2097" 
d="M1305 748q-44 -90 -103 -201q-32 -57 -108 -174q-61 -94 -150 -193q-242 -260 -547 -260q-277 0 -344 150q-45 93 31 180q78 84 209 84q87 0 190 -35q22 -9 22 -19q0 -14 -39 -2q-7 2 -15 5q-47 18 -115 18q-67 0 -115 -51q-47 -53 -47 -107q0 -23 10 -53
q40 -106 193 -106q171 0 297 100q81 63 139 122.5t121 153.5q101 143 180 285q66 115 162 289l129 229q127 216 240 342q-139 11 -230 11q-259 0 -522 -56q-261 -53 -410 -178q-190 -156 -190 -336q0 -90 63 -154.5t164 -64.5q127 0 211 90q85 91 88 144q3 26 12 26
q18 0 15 -31q-15 -97 -80 -165q-113 -119 -274 -119q-123 0 -211 82t-88 219q0 203 196 362q198 163 520 209q427 60 781 10q52 58 73 58q12 0 12.5 -19.5t-10.5 -48.5q151 -24 203 -39q307 -88 307 -278q0 -121 -149 -240q-187 -143 -504 -196q-96 -16 -188 -19
q64 -362 227 -610q56 -86 102 -123t99 -37q73 0 155 82q88 88 193 299q16 31 33 31t2 -31q-119 -264 -211 -367q-90 -100 -213 -100q-118 0 -230 115q-110 116 -184 331q-76 221 -102 386zM2128 1257q0 13 -4 33q-21 114 -182 164q-48 14 -201 39q-47 -81 -180 -297
q-138 -225 -213 -371q47 9 131 15l127 12q231 27 397 182q125 113 125 223z" />
    <glyph glyph-name="S" unicode="S" horiz-adv-x="1845" 
d="M1845 1391q0 70 -65 135q-96 90 -260 90q-148 0 -322 -64q-99 -37 -160 -90q-104 -88 -104 -180q0 -122 153 -217q70 -41 230 -115q167 -73 254 -127q113 -68 163 -150t50 -163q0 -100 -68 -209q-121 -193 -348 -328q-264 -159 -637 -159q-357 0 -569 182
q-164 138 -164 358q0 142 100 308q99 165 250 237q36 14 46.5 8t-25.5 -39q-91 -72 -142 -153q-114 -181 -114 -391q0 -138 77 -244q137 -187 484 -211q54 -4 114 -4q67 0 209 29q138 28 256 90q265 139 342 360q25 67 25 127q0 139 -125 246q-67 53 -276 141
q-205 88 -279 137q-158 109 -158 252q0 127 142 248q202 172 573 172q176 0 285 -53t133 -156q4 -28 4 -41q0 -78 -74 -143q-56 -43 -137 -66q-38 -9 -41 9q-1 13 11 21t40 11q100 12 121 99q6 21 6 43z" />
    <glyph glyph-name="T" unicode="T" horiz-adv-x="1880" 
d="M2697 1200q127 0 127 62q0 26 16 30t24 -23q3 -11 3 -28q0 -50 -57 -76q-79 -37 -174 -22q-305 41 -516 131q-149 -239 -260 -610q-44 -138 -123 -297q-78 -159 -169 -263t-210 -170q-236 -127 -551 -127q-256 0 -483 127q-221 126 -258 385q-5 57 -5 103q0 75 39 196
q41 129 152 193q47 27 67 27q36 0 33 -35q-8 -10 -40.5 -31.5t-69 -54.5t-58.5 -76q-53 -89 -53 -203q0 -259 176 -397q93 -77 209.5 -118.5t235.5 -41.5h10q423 9 696 307q172 187 471 842q96 211 131 264q-366 115 -651 115q-289 0 -469 -174q-145 -139 -145 -291
q0 -164 145 -211q51 -13 92.5 -13t95.5 13q78 21 146.5 109t56.5 123v4q17 13 29 8t12 -25q-21 -160 -162 -239q-142 -84 -290 -31q-166 57 -213 227q-15 53 -15 105q0 123 76 239q135 209 424 252q102 16 262 4q78 -6 209 -41q116 -30 266 -82l164 -53q101 122 150 125
q12 4 26 4q20 0 29 -28t-14 -37q-6 -2 -27 2q-10 8 -51 -27q-42 -39 -56 -55q178 -57 327 -87t220 -30z" />
    <glyph glyph-name="U" unicode="U" horiz-adv-x="1929" 
d="M2021 987q41 -21 41 -59q0 -51 -51 -137q-171 -307 -223 -621q-14 -80 -14 -156q0 -141 75 -141h23q37 0 37 -16q0 -25 -45 -31h-25q-51 9 -84.5 45.5t-46 86.5t-16 90.5t-0.5 74.5q0 123 26 244q-144 -240 -286 -355q-130 -106 -252 -106q-87 0 -133 55
q-62 73 -61.5 185t63.5 292q72 204 168 414q105 226 137 358q32 117 32 228q0 150 -79 196q-94 52 -217 52q-216 0 -465 -144q-367 -215 -496 -543q-99 -251 -14 -456q86 -209 299 -209q250 0 399 254q82 134 82 239q0 154 -139 154q-32 0 -84 -12q-45 -7 -45 2q7 18 61 41
q56 24 111 24q83 0 127 -71q61 -107 -6 -285q-76 -204 -267 -320q-137 -85 -266 -86t-225 76q-168 128 -168 391q0 262 201 516q166 206 434 353q235 131 454 131q113 0 213 -41q199 -85 199 -330q0 -182 -117 -452q-81 -190 -131 -293q-63 -135 -103 -269.5t-40 -224.5
q0 -172 115 -172q122 0 288 205l56 76q84 123 211 376l133 263q61 108 114 108z" />
    <glyph glyph-name="V" unicode="V" horiz-adv-x="1996" 
d="M1124 -197q-13 0 -37 4q-98 18 -98 175q0 256 254 858q101 236 146 446q28 125 14 213q-9 90 -68 125q-101 55 -229 55q-126 0 -272 -62t-287 -163q-194 -131 -324.5 -355.5t-122.5 -398.5q0 -46 9 -90q31 -138 120 -209t215 -71q171 0 322 151q152 152 152 322
q-2 55 -16 93t-34.5 55.5t-46.5 23.5t-49 2.5t-45 -12.5q-40 -11 -39 3q1 13 47 33q46 24 99 23t94 -31q80 -62 80 -186q0 -123 -97 -252q-95 -126 -233 -203q-137 -76 -277 -76q-134 0 -251 99q-116 101 -156 268q-10 55 -10 105q0 132 64.5 283.5t180.5 277.5
q224 240 555 362q291 113 543 17q199 -85 199 -365q0 -201 -148 -508q-97 -200 -164 -405q-106 -317 -106 -447q0 -94 63 -94q127 0 445 330q222 228 350 508q82 174 82 323q0 102 -29 150q-4 9 -15 16.5t-17 7.5q-30 10 -60 13q-20 4 -29.5 16t-5.5 24t21 15l39 -4
q95 -27 164 -133q75 -118 0 -338q-96 -253 -291 -494q-196 -242 -389 -371q-191 -129 -312 -129z" />
    <glyph glyph-name="W" unicode="W" horiz-adv-x="2752" 
d="M1782 96q0 -194 157 -194q149 0 365 174q237 188 326 397q73 171 93 314t-8 233t-89 139t-146 49q-19 0 -55 -4q-96 -23 -96 0q0 21 36 35q43 16 58 16h61q122 0 217 -95t123 -267q6 -44 6 -88q0 -149 -71 -344q-102 -255 -346 -432q-244 -179 -449 -179q-212 0 -262 197
q-39 146 29 369q-112 -186 -287 -400q-93 -112 -197 -190q-109 -80 -180 -80q-145 0 -145 176q0 206 268 844q168 401 168 608q0 130 -80 180q-76 52 -186 52q-35 0 -99 -11q-363 -74 -643 -391q-140 -161 -192 -307q-53 -145 -62 -217q-6 -70 -6 -117q0 -50 19 -109
t59 -106q80 -92 223 -92q240 0 377 248q72 129 72 229q0 168 -150 168q-24 0 -61 -6q-38 -6 -35 8q3 16 55 31q56 16 107 16q106 0 155 -82q65 -107 -8 -282q-104 -239 -375 -353q-70 -30 -133 -30q-200 0 -319 143q-87 104 -107 254q-4 40 -4 64q0 131 66.5 284t181.5 283
q207 234 535 366q287 111 530 19q197 -86 197 -330q0 -202 -138 -512q-99 -221 -180 -452q-123 -344 -123 -449q0 -74 51 -74q25 0 64 25q107 62 242 248q128 177 272 424q126 218 201 323q58 82 102 82q9 0 21 -4q24 -12 26 -55t-12 -74q-4 -15 -105 -262
q-95 -230 -104 -301q-10 -78 -10 -109z" />
    <glyph glyph-name="X" unicode="X" horiz-adv-x="1652" 
d="M2216 1673q47 0 47 -26q0 -58 -266 -248q-161 -115 -414 -287q-208 -143 -434 -303q-2 -80 -2 -221q0 -358 33 -479q46 -172 157 -172q154 0 320 251q58 88 106 199q12 28 30 28q16 0 11 -22q-2 -7 -6 -16q-184 -386 -405 -512q-61 -34 -118 -42t-105.5 10t-85.5 69.5
t-54 132.5q-12 55 -12 262q0 130 4 434q-796 -575 -1116 -1077q-64 -105 -125 -105q-29 0 -29 23q0 17 15 41l24 41q413 574 1229 1155v225q0 173 -21 314q-24 161 -182 161q-194 0 -414 -172q-112 -84 -147 -161q-7 -7 -23 0q-45 12 -10 65q21 32 119 111q113 91 262 172
q166 90 283 90q127 0 180 -103q57 -102 66 -221q14 -153 14 -256v-112v-35q304 209 352 241q154 103 356 248q118 85 211 178q98 98 127 113q15 6 23 6z" />
    <glyph glyph-name="Y" unicode="Y" horiz-adv-x="1964" 
d="M2013 989q19 0 28 -14t9 -48.5t-10 -90.5t-31 -144q-46 -198 -139 -471q-98 -296 -203 -483q9 1 24 1.5t40.5 1t44.5 1.5l129 4q57 2 126.5 14t110.5 31q110 53 127 152q-5 31 6 30q6 0 9 -8q16 -22 13.5 -56.5t-32.5 -84.5q-33 -53 -129 -94q-98 -42 -500 -45
q-96 -145 -246 -259t-321 -178q-275 -103 -479 -36q-154 53 -154 155q0 136 248 238q314 131 885 131q203 502 280 792q-188 -404 -415 -557q-71 -48 -143.5 -68.5t-131.5 -11.5t-105 37.5t-70.5 79t-20.5 111.5q0 224 303 717q88 142 151 311q66 180 66 299
q0 118 -76.5 174.5t-200.5 56.5q-38 0 -96 -10q-368 -70 -666 -383q-147 -153 -219 -323q-71 -180 -71 -306q0 -55 14 -98q40 -149 162 -205q59 -26 127 -26q229 0 387 254q90 146 90 254q0 141 -127 141q-9 0 -22.5 -2t-25 -3.5t-23 -2.5t-18 0t-7.5 6q-3 16 47 28
q54 13 94 13q105 0 143 -90q17 -46 17 -84q0 -90 -64 -209q-125 -227 -366 -328q-76 -31 -136 -31q-197 0 -311 144q-64 79 -86 178t-4.5 201.5t68.5 208.5q75 154 198 285.5t261 221.5t292 150q298 116 537 22q103 -47 150.5 -127.5t47.5 -179.5q0 -233 -169 -514
q-265 -453 -320 -700q-6 -33 -6 -66.5t8 -70t36.5 -59.5t74.5 -23q82 0 182 71q116 82 233 269q194 311 293 637q5 29 34.5 49t47.5 20zM547 -653q0 -20 8 -33q43 -70 197 -70q161 0 295 51q147 53 278.5 154t214.5 236q-539 0 -823 -166q-170 -99 -170 -172z" />
    <glyph glyph-name="Z" unicode="Z" horiz-adv-x="1386" 
d="M1636 1446l140 -43q194 153 309 153q32 0 59 -12q60 -25 59.5 -77.5t-61.5 -112.5q-74 -62 -332 0q-90 -81 -360 -436q-173 -229 -223 -285q-32 -38 -97 -107q-16 -16 -47.5 -48.5t-55.5 -55.5t-52 -49l-74 -68q-43 -38 -74 -63q-12 -11 -26.5 -23t-23.5 -19.5t-13 -11.5
l-64 -51l-51 -43q564 -244 781 -287q160 -27 333 0q90 12 154 64q69 54 78 119q9 67 33 67q27 0 14 -92q-3 -33 -23 -71q-63 -128 -217 -181q-107 -37 -241 -37q-129 0 -375 97q-232 91 -414 194l-174 99q-207 -148 -354 -148q-29 0 -56 6q-120 26 -155 135q-10 33 -10 60
q0 66 52.5 117t139.5 51q45 0 100 -15q104 -26 293 -147q601 706 692 817q203 240 437 430q-310 84 -574 84q-149 0 -282 -26q-95 -24 -168 -82q-88 -72 -88 -145t92 -136q44 -33 22 -41q-23 -8 -47 2q-39 10 -76 53q-61 70 -61 156q0 95 72 182q49 59 143 97q130 53 301 53
q107 0 229 -29l173 -43q35 -9 163 -51zM1841 1384q164 -43 230.5 -28.5t72.5 98.5q0 23 -15 43.5t-46 20.5q-84 0 -242 -134zM127 150q-12 -21 -12 -54q0 -38 46.5 -75t133.5 -37q70 0 148.5 30.5t125.5 71.5q-25 21 -61 47q-96 53 -175 72t-130.5 4t-75.5 -59z" />
    <glyph glyph-name="bracketleft" unicode="[" horiz-adv-x="1198" 
d="M336 49l147 8q86 0 86 -47q0 -45 -245 -45q-246 0 -246 92q0 234 209 631q210 399 407 627q50 59 80 86q75 69 193 69h41q186 0 186 -73q0 -37 -31 -37h-20l-152 8q-76 0 -96 -10q-99 -49 -268 -301q-159 -237 -299 -529q-129 -273 -129 -389q0 -90 137 -90z" />
    <glyph glyph-name="backslash" unicode="\" horiz-adv-x="1775" 
d="M141 1559q-14 0 -49.5 -14.5t-36.5 -14.5l-14 14q24 74 147 74q276 0 699 -567q11 -14 200 -275q55 -75 132.5 -182t80.5 -111q210 -285 441 -522q14 -20 18 -31l-14 -12q-184 56 -623 627q-190 248 -362 467q-190 242 -350 389q-169 158 -269 158z" />
    <glyph glyph-name="bracketright" unicode="]" horiz-adv-x="1138" 
d="M928 1370l-228 -8l-6 4q26 100 299 100q65 2 94 -16t35 -78q0 -297 -174 -696q-180 -412 -385 -617q-40 -40 -109.5 -64t-129.5 -26q-70 -4 -160 -4q-106 0 -129 10q15 80 168 80l37 -2q74 0 149.5 24.5t124.5 80.5q160 181 322 551q165 375 165 591q0 32 -6 62
q-19 8 -67 8z" />
    <glyph glyph-name="asciicircum" unicode="^" horiz-adv-x="757" 
d="M815 817l10 -16q0 -19 -34 -19q-35 0 -129 70q-93 70 -130 119q-240 -173 -278 -180l-12 14q3 25 151 137q151 112 185 115l12 -6q80 -114 225 -234z" />
    <glyph glyph-name="underscore" unicode="_" horiz-adv-x="1650" 
d="M449 -137l-398 -13q-16 0 -25.5 19.5t-9.5 40.5q0 39 35 39h1516q23 0 39 -17t18 -41l-14 -14q-527 0 -1161 -14z" />
    <glyph glyph-name="grave" unicode="`" horiz-adv-x="432" 
d="M395 836q0 -19 -20 -19q-12 0 -142 68l-139 73q-76 37 -76 86q0 50 39 50q27 0 183 -123q155 -122 155 -135z" />
    <glyph glyph-name="a" unicode="a" horiz-adv-x="716" 
d="M571 49q37 0 97 72q88 112 166 272q9 18 18 21q16 6 16 -13q0 -9 -6 -24q-188 -381 -317 -381q-59 0 -96 57q-38 62 2 207q-163 -264 -283 -264q-33 0 -59 20q-62 44 -62 148q0 203 174 407q101 116 242 150q45 10 74 10q94 0 159 -65q20 -23 12 -44t-34 -16
q-21 74 -99 74q-87 0 -217 -139q-71 -80 -137 -193q-31 -52 -50 -98.5t-25 -81.5t-3 -61t16.5 -39t33.5 -13q122 0 321 377q39 77 66 104t67 27q3 0 23.5 -3.5t37 -5t31.5 0.5q-37 -37 -104 -168q-66 -127 -82 -194q-15 -63 -12.5 -103.5t30.5 -40.5z" />
    <glyph glyph-name="b" unicode="b" horiz-adv-x="706" 
d="M633 557q0 117 -96 117h-17q-45 -1 -43 19q2 16 28 23q22 6 44 -1q102 -14 145 -101q27 -53 27 -100q0 -176 -129 -346q-129 -172 -334 -172q-76 0 -123 43.5t-47 114.5q0 87 98 290q-173 -322 -217 -364q-20 -17 -20 12q0 2 4 14q81 109 285 512q210 410 301 547
q70 101 135 101h2h10l35 -6q35 -6 51 -3q-70 -73 -213 -286q-360 -534 -360 -799q0 -108 69 -123q4 -2 15 -2q63 0 157 113q97 117 158 260q35 78 35 137z" />
    <glyph glyph-name="c" unicode="c" horiz-adv-x="532" 
d="M494 471q46 55 62.5 103.5t4.5 75t-45 26.5q-96 0 -219 -176q-34 -46 -76 -146q-37 -87 -37 -164q0 -74 30.5 -117.5t90.5 -43.5q125 0 217 123q51 67 74 108q30 55 68 129q15 33 29 21q5 -5 5 -13q0 -6 -28 -67q-22 -48 -35.5 -75t-39.5 -68t-58 -81q-92 -114 -252 -114
q-109 0 -162 53t-53 133q0 90 43 197q50 116 102 184q119 162 274 162q71 0 107.5 -34t36.5 -85q0 -70 -58 -119q-49 -44 -81 -12z" />
    <glyph glyph-name="d" unicode="d" horiz-adv-x="751" 
d="M549 119q0 -66 53 -66q97 0 256 322q3 25 24 37q18 11 19 -6q1 -10 -4 -25q-163 -381 -332 -381q-54 0 -88 49q-50 77 -22 187q-120 -197 -205 -224q-41 -18 -94 -4q-101 27 -101 160q0 94 45 199q43 102 131 211q81 100 203 135q115 36 232 -23q138 261 237 486
q46 106 107 106h28q2 0 20.5 -2.5t39.5 -4.5t32 -1q-47 -44 -249 -418q-261 -483 -312 -639q-20 -56 -20 -98zM649 657q-71 71 -209 -45q-140 -116 -227 -282q-59 -112 -59 -183q0 -36 14 -61t41 -25q67 0 168 139t272 457z" />
    <glyph glyph-name="e" unicode="e" horiz-adv-x="503" 
d="M207 315q-29 -76 -29 -155q0 -58 25.5 -91.5t72.5 -33.5q188 0 338 350q14 32 35 29q8 -3 8 -11q0 -5 -47 -108q-48 -101 -92 -160q-104 -143 -258 -143q-84 0 -140.5 54t-56.5 144q0 140 99 300t239 219q100 43 170 -4q35 -27 35 -64q0 -121 -147 -235q-54 -40 -127 -64
q-82 -27 -125 -27zM551 643q0 41 -33 41q-57 0 -174 -141q-71 -86 -123 -193q39 0 105 25.5t112 64.5q113 94 113 203z" />
    <glyph glyph-name="f" unicode="f" horiz-adv-x="405" 
d="M-125 -713q-113 0 -113 113q0 162 211 659q-24 41 -24 68q0 89 39 115q37 31 73 22q250 561 420 875q38 76 77 109.5t97 33.5q2 0 39 -5.5t51 -4.5q-92 -86 -270 -398q-169 -295 -330 -657q48 -61 66 -154l6 -26h6q57 0 117 63q54 57 100 133q21 38 44 83.5t35.5 69
t15.5 26.5q7 5 14 2.5t9 -10t-3 -19.5q-169 -387 -334 -387q0 -1 1 -21l1.5 -30t0 -34.5t-2.5 -46.5t-6 -53t-11.5 -67.5t-17.5 -77.5q-38 -149 -125 -264q-85 -117 -186 -117zM-127 -600q0 -59 33 -59q38 0 106 92q69 87 117 250q49 154 49 286v21h-18q-62 0 -101 33
q-186 -466 -186 -623zM162 29h12q-6 89 -49 141l-45 -102q20 -39 82 -39z" />
    <glyph glyph-name="g" unicode="g" horiz-adv-x="802" 
d="M-25 -647q-192 0 -192 158q0 130 178 235q154 91 387 166q115 37 158 55q53 157 53 340q0 31 -4 55q-61 -122 -158 -239q-121 -149 -235 -115q-107 46 -107 176q0 175 176 387q96 116 226 146q38 10 69 10q93 0 181 -61q30 -24 32.5 -44.5t-12.5 -37.5q-8 -12 -17 -8
t-15.5 12.5t-10.5 17.5q-27 76 -86 76q-107 0 -244 -152q-75 -83 -131 -184q-123 -224 -26 -278q18 -7 28 -7q47 0 117 64q74 68 131 164q65 109 78 155q11 38 30.5 58.5t36.5 23.5t36.5 5.5t27.5 9.5q44 -235 -27 -498q53 39 91 75t61 68t36 55t27.5 54.5t24.5 48.5l25 55
q4 8 12 13t15 2.5t7 -13.5q0 -9 -6 -24q-88 -187 -151 -271q-57 -81 -164 -131q-49 -138 -144 -276q-90 -135 -233 -242q-140 -104 -281 -104zM-174 -528q0 -78 100 -78q56 0 129 32.5t129 73.5q81 66 185 201q77 109 116 207l-71 -25q-320 -111 -451 -196
q-98 -67 -127 -162q-10 -33 -10 -53z" />
    <glyph glyph-name="h" unicode="h" horiz-adv-x="679" 
d="M481 92q0 -57 41 -57q98 0 273 360q8 18 17 22t14 -2t5 -14q0 -9 -24 -59q-49 -100 -115 -207q-94 -143 -200 -143q-72 0 -111 57q-19 29 -19 72q0 47 21 112q21 66 113 213q22 39 22 58q0 22 -35 22q-33 0 -133 -92q-151 -138 -287 -405q-15 -31 -75 -31q-55 -3 -70 -12
q408 846 563 1128q39 73 69 101t71 28q4 0 41.5 -4.5t50.5 -3.5q-65 -68 -221 -352q-188 -343 -304 -584q94 119 172 188q77 68 189 127q112 62 162 62q10 0 22 -4q-252 -443 -252 -580z" />
    <glyph glyph-name="i" unicode="i" horiz-adv-x="356" 
d="M262 856q6 35 34.5 59.5t63.5 24.5t56.5 -24.5t15.5 -59.5t-34.5 -59.5t-63.5 -24.5t-56 24.5t-16 59.5zM197 45q40 0 82 39q75 75 192 309q15 30 29 19q4 -4 5 -7.5t-3 -16.5t-15 -36q-18 -41 -30 -63q-19 -44 -51 -94q-36 -63 -68 -99q-84 -96 -160 -96q-73 0 -106 45
q-61 83 -6 221l131 334q15 39 -21 86l113 2q46 0 55.5 -17.5t-12.5 -54.5l-164 -383q-35 -78 -35 -129q0 -59 64 -59z" />
    <glyph glyph-name="j" unicode="j" horiz-adv-x="362" 
d="M104 365l109 235q19 38 -20 86l112 2q46 0 55.5 -17.5t-12.5 -54.5l-164 -383q-65 -148 -127 -270l117 47q30 12 88 60q54 45 90 98q43 62 129 227q16 29 25 23q12 -6 12 -17q0 -7 -35 -79q-75 -157 -157 -248q-53 -59 -118.5 -95.5t-184.5 -80.5q-158 -288 -320 -422
q-66 -55 -149.5 -89t-169.5 -34q-69 1 -114 22.5t-62 56.5t-13 79t29 92q51 102 192 168q101 48 277 92q175 41 221 55l61 107l148 307q-33 0 -19 33zM-737 -444q-35 -69 -14 -115.5t89 -46.5q118 0 256 123q192 171 281 336q-338 -88 -424 -127q-134 -59 -188 -170z
M399 797q-29 -25 -63 -25t-53 23q-22 30 -20.5 56t36.5 64q29 25 63.5 25.5t53.5 -22.5q24 -28 21.5 -55.5t-38.5 -65.5z" />
    <glyph glyph-name="k" unicode="k" horiz-adv-x="743" 
d="M645 553q0 55 -55 55q-84 0 -191 -94q-104 -88 -178 -195q-29 -57 -51 -149q-31 -148 -6 -170h-129q-32 0 -17 53q12 46 43 119q30 72 66 145l59 127q-173 -322 -217 -364q-20 -17 -20 12q0 2 4 14q81 109 285 512q210 410 301 547q70 101 135 101h2h10l35 -6
q35 -6 51 -3q-77 -59 -209 -264q-123 -188 -204 -345t-111 -249q188 232 334 287q77 23 110 23q90 0 90 -76q0 -22 -10 -55q-26 -74 -119 -142q-90 -62 -194 -71q-42 -96 -15 -193q24 -100 93 -121q20 -4 28 -4q57 0 135 72q65 72 166 280q8 16 15.5 17.5t11.5 -5t4 -12.5
t-13 -38.5t-41.5 -89.5t-62.5 -109q-117 -176 -258 -176q-87 0 -133 49q-67 70 -67 182q0 59 30 117q31 60 72 63h12q71 0 139 56q70 55 70 100z" />
    <glyph glyph-name="l" unicode="l" horiz-adv-x="434" 
d="M258 39q29 0 58.5 17.5t56 46.5t57.5 76.5t58 95.5t61 116q16 29 31 23q9 -9 4 -23l-27 -57l-29 -62q-10 -22 -33 -64t-40 -63q-70 -82 -103 -104q-46 -28 -92 -38t-81.5 -4t-59.5 24q-24 23 -35.5 47.5t-13 39t0 46t1.5 47.5q6 66 24 127q6 18 11 33.5t9 25.5l3 10
q46 169 133 371q149 341 244 440q71 74 137 74q48 0 63 -67q2 -8 2 -31q0 -69 -49 -176q-174 -388 -420 -615q-1 -4 -9 -28.5t-19.5 -59.5t-18.5 -61q-7 -31 -9 -64t4 -66.5t26.5 -55t54.5 -21.5zM637 1200q-20 0 -78 -82q-54 -74 -156 -291q-98 -215 -157 -366
q111 114 207 268q106 171 149 275q31 71 42 118t7.5 62.5t-14.5 15.5z" />
    <glyph glyph-name="m" unicode="m" horiz-adv-x="1038" 
d="M1085 672q-249 -446 -249 -574q0 -57 38 -57q48 0 113 74q101 126 168 280q7 18 16.5 22t15 -2t5.5 -14q0 -11 -21 -51l-32 -65q-11 -22 -56 -95q-34 -60 -71 -102q-22 -26 -53.5 -48.5t-71.5 -39t-81.5 -5.5t-72.5 54q-18 27 -18 72q0 51 20 112q21 66 113 213
q51 80 -12 80q-33 0 -121 -82q-86 -80 -187 -221q-96 -140 -114 -223q-32 0 -50 26.5t-18 51.5q0 84 113 319q65 139 26 135q-7 -1 -20 -8q-32 -15 -113 -90q-144 -132 -282 -399q-9 -22 -27 -29q-16 -3 -59 -6q-49 -3 -60 -10q34 63 129 268q167 355 221 406q24 24 68 24
q3 0 23.5 -3.5t37 -5t31.5 0.5q-74 -39 -248 -385q82 104 138 156l63 55l31 29q5 4 20 17.5t27 24.5t18 15q2 2 13.5 11t19.5 15q12 10 21.5 16t20.5 11.5t20 11.5q23 13 28 13t17.5 2.5t18.5 3t13 -3.5q41 -15 41 -51q0 -35 -69 -158q-39 -70 -90 -168q85 110 172 184
q85 76 192 135q115 62 164 62q8 0 20 -4z" />
    <glyph glyph-name="n" unicode="n" 
d="M735 672q-252 -443 -252 -578q0 -53 39 -53q106 0 281 354q18 32 31 19q11 -12 2 -30q-2 -4 -5 -7q-112 -225 -184 -303q-47 -52 -99.5 -71t-94.5 -6t-68 52q-20 26 -20 72q0 51 20 112q21 66 113 213q22 39 22 58q0 22 -35 22q-33 0 -133 -92q-145 -133 -284 -405
q-11 -20 -29 -27q-16 -3 -59 -6q-49 -3 -60 -10q31 58 129 268q170 355 225 410q24 24 68 24q3 0 23.5 -3.5t37 -5t31.5 0.5q-74 -39 -248 -385q79 101 174 188q84 75 191 131q112 62 162 62q10 0 22 -4z" />
    <glyph glyph-name="o" unicode="o" 
d="M489 717q150 0 150 -189q0 -88 -45 -184q-60 -136 -172 -242q26 -51 96 -51q56 0 105 55q17 17 32 34.5t26.5 33.5t20.5 29t17.5 28t12.5 22.5t10.5 20.5l7.5 15q9 16 30 63q6 13 15 32q9 21 12.5 25.5t11.5 4.5q21 3 21 -15q0 -2 -4 -14l-13 -29l-18 -41
q-40 -80 -49 -94q-38 -67 -66 -98q-36 -50 -80 -76q-54 -31 -96 -31q-83 0 -131 54q-94 -70 -174 -70q-150 0 -150 188q0 89 45 185q60 140 172 243q113 101 213 101zM512 653q-58 0 -133 -75t-133 -199q-72 -148 -72 -242t72 -94q50 0 114 55q-32 43 -32 101q3 88 71 88
q30 0 45.5 -16.5t14.5 -35.5t-2 -32q34 52 80 145q51 102 51 205q0 100 -76 100z" />
    <glyph glyph-name="p" unicode="p" horiz-adv-x="688" 
d="M731 557q0 -90 -47 -199q-42 -98 -131 -208q-81 -101 -201 -138q-122 -33 -231 25l-195 -486q-49 -106 -108 -106h-29q-1 0 -36.5 5.5t-49.5 4.5q42 40 229 410q184 372 207 491q-19 -31 -43 -34q-10 0 0 24q3 7 12 26q17 37 29 64q36 85 37 162.5t-29 87.5
q126 22 144 19q30 0 30 -54q0 -129 -57 -278l41 65q74 121 107 154l73 72q57 57 115 57q11 0 31 -4q102 -27 102 -160zM633 578q0 36 -14 62t-41 26q-72 0 -168 -134q-93 -130 -273 -464q70 -70 207 45q137 113 229 284q60 114 60 181z" />
    <glyph glyph-name="q" unicode="q" horiz-adv-x="700" 
d="M209 -526q-27 41 -27 73q0 35 68 189q56 126 160 340q66 130 120 248q-34 -62 -143 -209q-94 -113 -186 -113q-20 0 -41 6q-105 46 -105 176q0 175 176 387q96 116 226 146q38 10 69 10q94 0 179 -61q51 -38 26 -74q-16 -25 -37 -4q-7 7 -10 18q-53 141 -209 29
q-135 -95 -227 -254q-92 -157 -92 -236q0 -59 41 -77q15 -5 22 -5q100 0 303 336q63 98 78 109q21 18 41 18h25l35 -4q35 -5 49 -4q-106 -162 -289 -586q-178 -412 -193 -520q-3 6 -12.5 16.5t-18 19t-18 17t-10.5 9.5z" />
    <glyph glyph-name="r" unicode="r" horiz-adv-x="532" 
d="M393 821q0 -91 -117 -174q150 -5 283 8q4 -8 4 -32q0 -40 -69 -170q-87 -176 -111 -244q-53 -156 16 -156q84 0 254 342q8 16 16 19.5t12.5 -2t4.5 -13.5q0 -7 -27 -63q-3 -6 -13 -26.5t-13.5 -28.5t-13.5 -27t-16.5 -30t-18 -29.5t-22.5 -33t-25.5 -33t-30.5 -36.5
q-76 -94 -150 -94q-80 0 -110 96q-19 60 16 154q24 61 76 149q49 82 57 103q6 15 6 30q0 65 -163 68l-25 -66q-130 -340 -248 -452q-20 -17 -20 12q0 2 4 14q114 150 198 359q83 205 117 393q12 64 58 64q44 0 65 -58q6 -18 6 -43z" />
    <glyph glyph-name="s" unicode="s" horiz-adv-x="524" 
d="M293 39q36 -4 37 -4q81 0 162 96q38 46 153 268q4 11 14 11q19 3 19 -15q-11 -31 -53 -119q-2 -4 -13.5 -25t-14.5 -26.5t-12.5 -22.5t-15.5 -25.5t-15 -21.5t-17.5 -23.5t-18.5 -20.5l-43 -45q-35 -35 -82 -50q-78 -25 -147 -4q-44 -20 -84 -20q-146 0 -176 114
q-19 38 3.5 105t69.5 70q111 211 179 358q82 174 190 174q31 0 57 -13.5t19 -29.5q-6 -16 -29 -6q-39 18 -67 4q-70 -34 -70 -141q0 -18 2.5 -36t5 -29.5t9 -29t10 -25t13.5 -27.5t13 -27q47 -109 47 -174t-41.5 -131t-103.5 -109zM223 53q90 72 90 226q0 70 -14 174
q-18 147 -12 202q-166 -330 -193 -379q43 0 43 -61q0 -121 86 -162zM70 109q0 -17 2 -27q15 -55 75 -55q28 0 41 8q-76 46 -82 153q-36 -36 -36 -79z" />
    <glyph glyph-name="t" unicode="t" horiz-adv-x="409" 
d="M66 164q0 171 163 569h-106q-11 0 -14 11.5t2.5 22.5t15.5 11h123q161 352 254 416q72 51 110 35q48 -22 48 -94q0 -65 -48 -170q-50 -110 -92 -187h99q11 0 13.5 -11t-3 -22.5t-15.5 -11.5h-118q-115 -192 -273 -338l-47 -209q-5 -24 -6 -52t14.5 -52t44.5 -27
q33 0 78 25q97 72 217 309q8 18 18 23t13 -5t-4 -30q-72 -151 -107 -201q-111 -178 -235 -178q-63 0 -104 47t-41 119zM375 778h102q135 243 135 336q0 41 -14 41q-23 0 -70 -65q-41 -57 -153 -312zM451 733h-97l-110 -272q112 115 207 272z" />
    <glyph glyph-name="u" unicode="u" horiz-adv-x="731" 
d="M45 119q0 88 76 213q-33 0 -19 33l37 71q3 6 115 226q21 43 80 43h125q-72 -52 -150 -207q-63 -129 -114 -240q-23 -49 -33 -87.5t-9 -61.5t10 -38t21 -20.5t27 -5.5q38 0 108 82q110 129 306 535q21 43 80 43h110q-43 -32 -72 -72q-20 -31 -69 -131q-121 -242 -137 -326
q-7 -32 -7 -53q0 -67 45 -70q109 0 273 342q13 29 24 23q13 -4 12.5 -16.5t-18.5 -47.5l-37 -71q-15 -35 -53 -97q-35 -60 -65 -94q-51 -58 -105.5 -79t-95.5 -4.5t-61 61.5q-28 72 8 194q-151 -262 -277 -262q-111 0 -129 92q-6 9 -6 25z" />
    <glyph glyph-name="v" unicode="v" horiz-adv-x="536" 
d="M662 715l-11 -37q-106 -330 -192 -475q-129 -217 -271 -217q-114 0 -114 110q0 86 61 260q-21 -34 -34 -20q-9 9 -3 26l37 70q39 77 39 160q0 80 -33 94q126 22 144 19q30 0 30 -54q0 -124 -65 -295q-64 -168 -64 -229q0 -27 4.5 -43.5t14.5 -23t17 -8t20 -1.5
q55 0 122.5 88t133.5 252q-48 107 -17 205q38 118 117 145q18 7 31 7q33 0 33 -33z" />
    <glyph glyph-name="w" unicode="w" horiz-adv-x="974" 
d="M1030 715l-10 -35q-87 -293 -164 -438q-132 -246 -291 -246q-73 0 -100 37q-16 23 -24 49t-8.5 37.5t-0.5 36.5q0 52 19 120q-150 -276 -273 -276q-46 0 -83 26t-44 68q-6 9 -6 25q0 88 76 213q-33 0 -19 33l37 71l115 226q21 43 80 43h125q-72 -52 -150 -207l-114 -238
q-22 -49 -31.5 -88t-8 -62.5t10.5 -39t20.5 -21.5t24.5 -6q37 4 86.5 61.5t93.5 133.5l55 92q19 34 55 106.5t44 87.5q60 123 65 138q18 43 78 43h125l-22 -17q-45 -30 -60 -59q-91 -152 -129 -248q-82 -207 -82 -268q0 -73 55 -76h11q147 0 291 356q-48 100 -17 205
q34 118 111 145q17 7 26 7q33 0 33 -35z" />
    <glyph glyph-name="x" unicode="x" horiz-adv-x="681" 
d="M352 420q22 112 19 160q0 47 -31 51q-41 5 -95 -75q-3 -5 -7 -11q-7 -10 -66 -121q-14 -26 -29.5 -54t-24 -44t-12.5 -23q-11 -21 -19 -12q-10 13 5 45q123 256 176 303q59 47 105 47h10q94 -9 94 -143q0 -51 -12 -115q53 100 127 193q75 90 117 102q11 2 21 2t28 -3
t27 -16.5t6 -37.5q-1 -30 -29 -52.5t-60.5 -20t-44.5 35.5q-61 -55 -127 -160q-63 -100 -94 -197q-12 -86 0 -151q15 -63 56 -72q14 -4 24 -5t33 3t51 28t57 66q57 84 99 162q10 20 19.5 37.5t14.5 26.5t5 10l6 14q16 31 24 23q17 -12 6 -31q-9 -27 -34 -76l-45 -88
q-15 -26 -50 -78q-33 -50 -63 -77q-84 -66 -160 -66q-71 0 -112 56.5t-41 129.5q0 46 2 56q-164 -314 -316 -314q-42 0 -73 31q-7 5 -5 19.5t19 19.5q4 0 23 -10t40 -12t62 16q64 30 147 160q86 137 127 268z" />
    <glyph glyph-name="y" unicode="y" horiz-adv-x="817" 
d="M-166 -647q-68 1 -113 22.5t-62 56.5t-13 79t30 92q51 102 193 168q102 48 276 92q180 42 222 55q74 130 176 461q-124 -215 -199 -293q-81 -84 -162 -84q-111 0 -129 92q-4 8 -4 24.5t2 36t2 23.5q1 7 7 23t14 34t10 23q9 20 39 74q-33 0 -19 33l37 71q3 6 115 226
q21 43 80 43h125l-21 -17q-38 -24 -55 -57q-71 -122 -184 -363q-25 -55 -36 -95.5t-10.5 -63.5t10.5 -37.5t21 -19.5t27 -7q39 0 109 82q148 174 321 535q21 43 80 43h111q-50 -34 -80.5 -86.5t-71.5 -159.5l-90 -256q-15 -47 -31 -93.5t-30.5 -88t-20.5 -58.5
q192 58 295 203q52 71 129 225q16 28 24 23q13 -6 13 -17q0 -8 -35 -80q-71 -149 -158 -245q-53 -58 -117.5 -93.5t-185.5 -80.5q-156 -286 -317 -422q-150 -123 -324 -123zM-285 -444q-36 -70 -14 -116t92 -46q119 0 254 123q134 119 238 260l45 76q-348 -91 -426 -127
q-132 -58 -189 -170z" />
    <glyph glyph-name="z" unicode="z" horiz-adv-x="698" 
d="M-215 -635q-82 0 -131 50.5t-49 111.5q0 53 32.5 105t86.5 92q52 39 99 64t130 56l131 47l147 46l134 40q36 115 36 181q0 106 -59 106q-10 0 -16 -2q-99 -52 -117 -37q-7 5 -9 12.5t3 14.5t16 10q144 45 230 180q26 39 26 76q0 35 -29 67.5t-61 32.5q-103 0 -170 -116
q-44 -70 -109 -205q-10 -24 -23 -21q-14 2 -8 26q2 8 7 17q107 209 121 234q91 168 252 168q70 0 108 -53q21 -27 21 -86t-56.5 -139.5t-144.5 -133.5h4q134 0 137 -133q0 -75 -22 -149q155 30 315 366q9 18 21 21q14 6 14 -13q0 -23 -53 -118q-48 -87 -101 -160
q-86 -124 -209 -148q-80 -222 -238 -378t-372 -218q-49 -14 -94 -14zM-311 -432q-13 -44 -13 -80q0 -38 28.5 -58t59.5 -20q96 0 214.5 72.5t220 193.5t147.5 250q-23 -8 -135 -41l-145 -43q-154 -50 -228 -94q-109 -63 -149 -180z" />
    <glyph glyph-name="braceleft" unicode="{" horiz-adv-x="755" 
d="M854 1487h8q24 3 23 -12q-1 -18 -22 -31q-6 -4 -11 -4q-149 0 -209 -54q-58 -52 -88 -174l-59 -258q-30 -132 -86 -200q-78 -96 -273 -131q164 -30 211 -111q10 -17 15 -41t6 -44.5t-2.5 -54t-6 -51t-9 -54.5t-7.5 -46l-43 -184q-30 -156 14 -207q47 -53 185 -53
q10 1 13.5 -4.5t0.5 -16.5q-6 -24 -20 -24h-11q-200 0 -268 71q-35 41 -35 121q0 74 10 139l35 152l29 127q8 33 8 92q0 101 -98 144q-46 18 -133 18q-33 0 12 55q172 18 236 72q66 51 96 207l16 90q23 121 55 219q37 120 109 176q97 72 299 72z" />
    <glyph glyph-name="bar" unicode="|" horiz-adv-x="993" 
d="M541 1534v-2007h-88v2007h88z" />
    <glyph glyph-name="braceright" unicode="}" horiz-adv-x="993" 
d="M991 612q0 -12 -33 -45q-151 0 -243 -71q-99 -74 -158 -340q-21 -93 -72 -199q-46 -103 -120 -156q-100 -69 -302 -69h-10q-14 3 -14 10q0 35 31 35q150 0 217 55q89 71 147 309q20 84 66 189q44 101 100 151q92 79 266 113q-152 27 -196 111q-24 47 -8 147q16 95 43 176
l53 174q17 56 17 103.5t-17 70.5q-38 56 -185 56q-39 0 13 47h10q210 0 264 -72q34 -53 27 -131.5t-60 -235.5q-67 -168 -67 -272q0 -52 20 -78q40 -52 197 -67q14 0 14 -11z" />
    <glyph glyph-name="asciitilde" unicode="~" horiz-adv-x="993" 
d="M737 848q-47 0 -131 37q-95 46 -147.5 43t-87.5 -68q-3 -13 -37 -4q-10 3 -10 8q86 154 188 154q49 0 133 -37q82 -33 109 -37h32q64 0 99 72q3 6 12 6q28 0 31 -10q-80 -164 -191 -164z" />
    <glyph glyph-name="nbspace" unicode="&#xa0;" horiz-adv-x="530" 
 />
    <glyph glyph-name="exclamdown" unicode="&#xa1;" horiz-adv-x="821" 
d="M-12 -610l-64 2l-10 4l-4 12q16 45 344 531l342 501l20 -2l-2 -14l-520 -991q-21 -43 -106 -43zM772 629q0 -52 -30.5 -80.5t-69.5 -28.5q-32 0 -52 20t-20 40q0 18 1 26t9.5 25.5t26.5 32.5q34 27 64 24.5t50.5 -21t20.5 -38.5z" />
    <glyph glyph-name="cent" unicode="&#xa2;" horiz-adv-x="647" 
d="M305 1122q-119 -162 -119 -317q0 -154 113 -154q102 0 227 152q17 23 27 3q9 -17 -2 -30q-112 -154 -262 -160l-35 -79q-129 -304 -129 -416q0 -67 43 -76q28 -6 18 -22q-6 -15 -18 -17t-18 2q-78 28 -78 129q0 108 121 383q34 76 40 96q-95 9 -135 78q-26 53 -30 98
t7.5 96t45.5 154q45 102 90 152q57 65 130 108.5t136 43.5h6h13l141 346q14 39 33 39q13 0 18.5 -18t-2.5 -38q-3 -11 -24 -61l-115 -279q49 -13 77.5 -54.5t28.5 -96.5q0 -54 -32 -91.5t-76 -37.5q-43 0 -71 27.5t-28 68.5t27 67.5t64 26.5q25 0 47.5 -12t27.5 -25
q6 33 -10 58q-21 30 -61 30q-41 0 -109.5 -48t-126.5 -126z" />
    <glyph glyph-name="sterling" unicode="&#xa3;" horiz-adv-x="1173" 
d="M657 504l-36 -12l-15 -7q-10 0 -10.5 19.5t6.5 23.5q63 29 135 29q77 0 123 -6q372 651 668 651q65 0 106 -32t41 -97q0 -69 -80 -172t-165 -164q-16 -16 -30 -8q-13 7 2 19q2 2 5 4q240 200 240 338q0 67 -78 67q-100 0 -201 -82q-102 -83 -166 -176q-30 -43 -56.5 -92
t-42.5 -83.5t-43 -95.5t-44 -98q91 -12 155 0q37 11 39 11q7 0 7.5 -20.5t-5.5 -22.5q-40 -16 -90 -17t-129 8q-170 -324 -422 -466q60 -44 197 -101q124 -55 197 -72q69 -16 135 -16q75 0 151 43q78 41 78 129q0 10 8 10q9 0 9 -14v-4q-9 -97 -91 -139q-79 -43 -178 -43
q-100 0 -184 20q-93 19 -234 70q-143 51 -196 80q-168 -79 -332 -2q-82 40 -82 102q0 64 49 94q99 65 230 4q67 -28 94 -49l102 -76q76 62 131 148q20 32 43.5 66.5t26.5 39.5l61 109q14 24 26.5 45t18.5 31.5t7 11.5q-106 11 -181 -6zM66 106q0 -57 57 -96q68 -46 153 -47
t156 41q-147 100 -219 133q-58 27 -84 27q-27 0 -45 -16t-18 -42z" />
    <glyph glyph-name="currency" unicode="&#xa4;" horiz-adv-x="1374" 
d="M346 532q0 130 92 222l-213 331l316 -254q92 49 189 49t163 -49l446 267l-374 -350q26 -45 26 -103q0 -110 -92 -213l217 -336l-319 260q-87 -49 -183.5 -49.5t-169.5 47.5l-442 -268l369 348q-25 48 -25 98zM528 741q-65 -62 -65 -153q0 -93 57 -150q56 -58 139 -57.5
t150 61.5q68 65 68 152q0 90 -62 149q-60 60 -140.5 59.5t-146.5 -61.5z" />
    <glyph glyph-name="yen" unicode="&#xa5;" horiz-adv-x="1478" 
d="M225 743q0 -14 -14 -14q-4 0 -10 6q-54 73 -54 164t56 174q55 82 141 82q123 0 213 -106q165 -195 180 -482l41 64q2 13 34.5 55.5t45.5 73.5l43 67q4 7 22.5 36t28.5 43.5t33 46t51 65.5q52 68 105 121q52 52 110.5 86.5t106.5 34.5q53 0 93 -40.5t40 -89.5
q0 -47 -18 -47q-11 3 -13 15l4 24q0 43 -33 77t-75 34q-150 0 -451 -531q-3 -5 -7 -11.5t-6 -10t-3 -6.5h213q5 2 5 -4q-2 -17 -20 -33q-9 -7 -18 -8h-205l-108 -193h207q7 2 7 -4q0 -14 -20 -32q-10 -8 -18 -9h-205q-173 -261 -305 -368q-140 -113 -281 -113q-38 0 -39 14
q2 12 29 13q138 0 287 180q93 111 205 274h-465q-8 -2 -7 5q2 17 22 33q8 6 15 7h465l11 17q0 71 -15 176h-289q-7 -3 -7 4q1 16 20 32q9 8 18 9h252q-20 127 -90 276q-37 81 -92.5 129.5t-122.5 48.5q-68 0 -117 -75q-50 -72 -49.5 -143t53.5 -167z" />
    <glyph glyph-name="brokenbar" unicode="&#xa6;" horiz-adv-x="993" 
d="M770 1534h107l-193 -875l-98 11zM541 451l96 -9l-186 -915h-107z" />
    <glyph glyph-name="section" unicode="&#xa7;" horiz-adv-x="1933" 
d="M1255 -84q96 -145 7 -297q-89 -148 -291 -219q-171 -59 -361 -59q-385 0 -434 208q-4 28 -4 41q0 79 74 144q54 42 137 65q38 9 41 -8q2 -14 -10.5 -22t-40.5 -11q-100 -12 -121 -98q-6 -21 -6 -43q0 -70 65 -135q96 -90 260 -90q151 0 322 63q99 37 160 90
q104 88 104 181q0 122 -153 217q-71 42 -232 112q-172 79 -252 129q-113 68 -163 150.5t-50 163.5q0 100 68 209q120 191 348 327q65 37 111 56q-99 146 -7 296q89 151 291 222q171 59 361 59q384 0 434 -209q4 -28 4 -41q0 -78 -74 -143q-56 -43 -137 -66q-38 -9 -41 9
q-1 13 11 21t40 11q100 12 121 99q6 21 6 43q0 70 -65 135q-96 90 -260 90q-148 0 -322 -64q-99 -37 -160 -90q-104 -88 -104 -180q0 -122 153 -217q70 -41 230 -115q167 -73 254 -127q113 -68 163 -150t50 -163q0 -100 -68 -209q-121 -193 -348 -328q-58 -37 -111 -57z
M471 537q0 -139 125 -246q75 -58 274 -144q219 -93 260 -120q49 -32 82 -62l39 19q265 139 342 360q25 67 25 127q0 139 -125 246q-73 57 -276 143q-276 119 -340 182l-39 -18q-265 -139 -342 -360q-25 -67 -25 -127z" />
    <glyph glyph-name="dieresis" unicode="&#xa8;" horiz-adv-x="569" 
d="M408 1018q42 0 60 -34t1 -67.5t-59 -33.5q-41 -4 -58.5 31.5t-0.5 71t57 32.5zM143 1018q26 0 43.5 -14t22 -34t0.5 -39.5t-21 -33.5t-43 -14q-41 -4 -58.5 31.5t-0.5 71t57 32.5z" />
    <glyph glyph-name="copyright" unicode="&#xa9;" horiz-adv-x="1468" 
d="M139 473q0 -188 140 -334q137 -143 368 -143q263 0 459 172q227 199 227 473q0 192 -141 336q-139 145 -373 145q-257 0 -452 -174q-228 -200 -228 -475zM1425 643q0 -286 -254 -491q-229 -185 -509 -185t-449 152q-164 153 -164 360q0 283 252 488q229 186 512 186
t447 -156q165 -152 165 -354zM817 668q62 68 62 133q0 45 -41 45q-84 0 -187 -148q-100 -144 -100 -276q0 -63 26 -100t78 -37q118 0 217 147q13 16 24 18t13 -8.5t-6 -25.5q-101 -162 -266 -162q-92 0 -138 46.5t-46 115.5q0 73 36 165t89 162q106 142 235 142
q63 0 93 -29.5t30 -77.5q0 -55 -47 -102q-44 -36 -72 -8z" />
    <glyph glyph-name="ordfeminine" unicode="&#xaa;" horiz-adv-x="765" 
d="M305 995q-83 -133 -141 -133q-24 0 -43 24.5t-19 61.5q0 96 88 203q68 80 158 80q47 0 80 -33q7 -7 7.5 -15t-4.5 -12.5t-13 -1.5q-12 37 -39 37q-84 0 -184 -157q-28 -48 -38.5 -84.5t-4.5 -54t24 -17.5q60 0 162 188q22 43 36 55.5t27 10.5q6 0 25 -2.5t25 -1.5
q-18 -15 -54 -82q-29 -57 -39.5 -98t-6.5 -56.5t14 -15.5h2q43 0 131 172q11 21 16 8q5 -12 -2 -16q-95 -191 -160 -191q-44 0 -54 42t7 89z" />
    <glyph glyph-name="guillemotleft" unicode="&#xab;" horiz-adv-x="923" 
d="M975 623l2 -15q-33 -50 -178 -153l-152 -107l-2 -278l-10 -21l-14 -6l-17 6q-23 43 -49 170l-29 148q3 1 15 8.5t44 28t62 38.5q298 187 316 187zM680 623l2 -15q-36 -58 -236 -194l-96 -66l-2 -278l-10 -21l-14 -6q-11 0 -17 6q-29 80 -49 178q-22 113 -29 140
q3 1 15 8.5t44 28t62 38.5q292 187 316 187z" />
    <glyph glyph-name="logicalnot" unicode="&#xac;" horiz-adv-x="1654" 
d="M1210 29q-17 0 -29 14t-10 31l84 395h-1069q-41 0 -41 27q0 19 22.5 45t39.5 26h1163l-104 -493q-6 -45 -56 -45z" />
    <glyph glyph-name="uni00AD" unicode="&#xad;" horiz-adv-x="831" 
d="M301 453q0 43 35 43q133 0 450 -9q34 -3 43 -26q-3 -26 -34 -29q-162 0 -312 -18l-149 -17q-12 0 -22.5 19t-10.5 37z" />
    <glyph glyph-name="registered" unicode="&#xae;" horiz-adv-x="1468" 
d="M1425 643q0 -286 -254 -491q-229 -185 -509 -185t-449 152q-164 153 -164 360q0 283 252 488q229 186 512 186t447 -156q165 -152 165 -354zM139 473q0 -188 140 -334q137 -143 368 -143q263 0 459 172q227 199 227 473q0 192 -141 336q-139 145 -373 145
q-257 0 -452 -174q-228 -200 -228 -475zM631 352q-87 -96 -234 -96t-147 94q0 44 49 68q55 25 137 -2q14 -10 7 -10q-4 0 -21 3q-32 5 -53 7q-45 -6 -60 -47.5t17 -63.5q27 -20 66.5 -21t90.5 24t90 69q58 72 109.5 156.5t87 152.5t49.5 88q57 97 101 144q-156 15 -314 -19
q-103 -23 -168.5 -73.5t-79.5 -112.5q-6 -7 -3 -26.5t10 -39.5t30 -36t56 -17q51 0 88 37q14 14 23 26t12 19.5t4.5 13t1.5 8.5v2q4 -3 5.5 -14t-7.5 -31t-25 -34q-45 -47 -104 -49t-98.5 34t-35.5 90q0 85 82 152q85 69 199 84q197 29 342 6q23 23 29 23q8 0 2 -27
q2 0 21 -3t37 -6.5t26 -6.5q139 -41 139 -125q0 -75 -115 -131q-109 -50 -246 -50q24 -148 95 -254q44 -65 80 -65q76 0 147 158q13 21 17 12q2 -4 -1 -12q-63 -129 -94 -160q-33 -33 -90 -33q-88 0 -141 92q-44 76 -58 203q-1 10 -2 18.5t-1.5 12t-0.5 4.5
q-79 -158 -151 -236zM1094 745q26 38 26.5 70t-24.5 51q-23 19 -45 26t-76 15q-107 -177 -148 -268l99 10q111 15 168 96z" />
    <glyph glyph-name="overscore" unicode="&#xaf;" horiz-adv-x="993" 
d="M401 903h437l-25 -61h-438z" />
    <glyph glyph-name="degree" unicode="&#xb0;" horiz-adv-x="661" 
d="M334 1540q54 0 92.5 -39t38.5 -94q0 -54 -39 -91.5t-96 -37.5q-55 0 -91 37t-36 92t38.5 94t92.5 39zM336 1309q33 0 61.5 31t28.5 67q0 39 -26.5 66.5t-67.5 27.5q-40 0 -67 -28t-27 -74q0 -43 30.5 -66.5t67.5 -23.5z" />
    <glyph glyph-name="plusminus" unicode="&#xb1;" horiz-adv-x="937" 
d="M338 596l285 -6l34 145l35 148q15 47 45 47q23 0 11 -45q-1 -5 -10 -48.5t-21.5 -108.5t-26.5 -140h266q20 0 28.5 -9t8.5 -20q0 -27 -43 -27q-2 0 -272 -12l-19 -98q-21 -119 -28 -182q-3 -24 -49 -33q-8 -2 -23 -2q-29 0 -29 24q0 9 74 287l-155 -10q-78 -2 -136 -8
q-19 -3 -22 39q6 53 47 59zM305 143l533 -16q34 0 43 -27v-8q0 -17 -35 -20q-313 0 -541 -27h-2q-12 0 -22.5 18.5t-10.5 36.5q0 43 35 43z" />
    <glyph glyph-name="twosuperior" unicode="&#xb2;" horiz-adv-x="649" 
d="M119 567l-90 -69q-28 -9 -34 -5t5 29l98 80q94 76 121 103q326 290 326 442q0 39 -20.5 54t-51.5 7q-64 -18 -103 -61t-79 -127q-7 -18 -19.5 -21t-20 7t-3.5 22q37 104 116 175t173 71q85 -3 119 -51t-5 -135t-153 -187q-113 -104 -262 -229l-19 -17q22 -22 66 -43
q42 -20 75.5 -18.5t81.5 29.5q45 25 74 57q26 32 35 22q7 -10 -12 -43q-119 -155 -211 -155q-115 0 -207 63z" />
    <glyph glyph-name="threesuperior" unicode="&#xb3;" horiz-adv-x="610" 
d="M647 1186q0 -134 -244 -236q134 -21 134 -125q0 -119 -127 -225q-126 -102 -271 -102q-99 0 -125 75q-19 43 21 27q11 -30 38.5 -50t57.5 -20q114 0 203 103q92 106 92 207q0 31 -16.5 53t-36.5 22q-25 0 -74 -18q-69 -21 -72 0q-3 10 13 16q91 18 186 95q94 76 94 170
q0 13 -16.5 22.5t-36.5 9.5q-77 0 -162 -98q-11 -14 -20.5 -11.5t-5.5 25.5q125 152 251 152q53 0 85 -23t32 -69z" />
    <glyph glyph-name="acute" unicode="&#xb4;" horiz-adv-x="546" 
d="M125 846q-3 0 -7.5 3.5t-4.5 8.5q0 6 4 14q3 7 57 48q68 49 119 84q19 14 43.5 31.5t35.5 25.5t24.5 16.5t23.5 11.5t20 3q48 0 63 -20t3 -44q-9 -25 -184 -104q-179 -78 -197 -78z" />
    <glyph glyph-name="mu" unicode="&#xb5;" horiz-adv-x="663" 
d="M549 -16q-76 0 -98 70.5t12 156.5q-58 -91 -121 -154q-45 -45 -92.5 -61t-85.5 -2.5t-58 51.5l-264 -577q-2 -7 -38 -6t-60 12q-8 8 -8 10l395 776l49 98l53 109q50 103 111 192h4q17 -10 33 -10q46 0 98 43l4 -4q-33 -36 -94 -145q-70 -128 -100 -174
q-121 -219 -121 -303q0 -56 51 -56q119 0 318 359q87 151 157 303h4q19 -10 39.5 -14t42.5 5t33 35l6 -2l-160 -309q-141 -261 -141 -342q0 -41 35 -41q51 0 115 70q90 104 161 260h13l4 -4q-156 -346 -297 -346z" />
    <glyph glyph-name="paragraph" unicode="&#xb6;" horiz-adv-x="825" 
d="M408 819q-57 72 0 225q26 77 100 154q73 76 159 108.5t218 32.5h352l-37 -102h-41l-452 -1237h-138l453 1237h-100l-453 -1237h-137l272 743q-141 0 -196 76z" />
    <glyph glyph-name="middot" unicode="&#xb7;" horiz-adv-x="534" 
d="M254 451q0 52 30.5 80t69.5 28q32 0 52 -19.5t20 -39.5q0 -18 -1 -26t-9.5 -25.5t-26.5 -32.5q-34 -27 -64 -24.5t-50.5 21t-20.5 38.5z" />
    <glyph glyph-name="cedilla" unicode="&#xb8;" horiz-adv-x="776" 
d="M561 -391q-53 -35 -139 -35q-82 0 -180 25q-95 21 -95 69q0 29 31 3q6 -5 12 -11q48 -51 187 -51t186 74q32 41 29.5 91t-47.5 79q-46 30 -101 30q-50 0 -100 -24q-52 -25 -59 -25q-19 0 -28 18t5 33q17 17 80 64q71 53 78 53q8 0 14 -16q-8 -8 -28 -19q-62 -44 -62 -53
q138 20 246 -33q78 -41 78 -119q0 -83 -107 -153z" />
    <glyph glyph-name="onesuperior" unicode="&#xb9;" horiz-adv-x="503" 
d="M432 1217q12 14 23.5 23.5t20 14t19 7t15 3t13 0t9.5 -0.5q11 0 12.5 -10t-1.5 -23q-73 -136 -185 -357q-123 -250 -180 -350q-15 -24 -78 -24q-34 0 -34 12l305 567q-24 -17 -78 -49q-70 -44 -80 -51q-43 -24 -41 -9q2 8 18 27l33 25q55 41 209 195z" />
    <glyph glyph-name="ordmasculine" unicode="&#xba;" horiz-adv-x="559" 
d="M195 874h-5q-35 0 -53 26t-18 67t24 102q27 64 83.5 114t105.5 50h4q27 -1 46 -18t24.5 -47.5t-1.5 -68t-34.5 -83.5t-71.5 -90q14 -22 37.5 -24.5t42 6.5t27.5 22q5 7 16 19.5t18 22t13 21.5l39 82q6 13 12 1q3 -7 0 -11q-53 -126 -94 -154q-82 -58 -129 -2
q-47 -35 -86 -35zM317 975q40 63 55 116.5t6.5 81t-32.5 27.5q-28 0 -67 -38.5t-72 -108.5q-35 -72 -35 -114t37 -42q28 0 59 25q-16 29 -16 51q3 43 35 43t32 -29q0 -1 -1 -6t-1 -6z" />
    <glyph glyph-name="guillemotright" unicode="&#xbb;" horiz-adv-x="923" 
d="M586 254l98 70l-2 135q0 141 12 162l17 8l16 -8q15 -15 45 -162q33 -141 33 -152l-420 -262l-16 -2l-15 4v19q25 43 232 188zM483 438l25 -131l-420 -262l-14 -2q-5 0 -17 4l-2 8q0 20 47 58l80 63q69 53 185 133l20 15l2 278l10 19l17 8l18 -8q32 -89 49 -183z" />
    <glyph glyph-name="onequarter" unicode="&#xbc;" horiz-adv-x="1273" 
d="M1081 696q27 47 133 47q27 0 39 -12q-3 -29 -385 -356q-59 -49 -88 -88l248 6q6 13 78 153q29 32 78 35q25 3 35.5 -0.5t9.5 -13.5q0 -4 -4 -12q0 -11 -78 -158h10q52 -8 36 -26l-4 -4l-1 -1q-5 -5 -39 -20h-31l-119 -232q-10 -10 -43 -16q-53 -10 -86 0q0 1 60 115
q54 106 67 127l-301 -7l9 39q46 58 116 125l84 88q123 140 176 211zM1116 1241q22 25 60 25t38 -19q0 -9 -12 -24l-100 -123l-156 -195l-174 -217q-182 -228 -362 -436q-231 -264 -279 -264q-6 0 -9.5 1.5t-1.5 9t13 19.5q167 192 529 641q371 463 454 582zM432 1217
q12 14 23.5 23.5t20 14t19 7t15 3t13 0t9.5 -0.5q11 0 12.5 -10t-1.5 -23q-73 -136 -185 -357q-123 -250 -180 -350q-15 -24 -78 -24q-34 0 -34 12l305 567q-24 -17 -78 -49q-70 -44 -80 -51q-43 -24 -41 -9q2 8 18 27l33 25q55 41 209 195z" />
    <glyph glyph-name="onehalf" unicode="&#xbd;" horiz-adv-x="1273" 
d="M1055 1241q24 30 73 23q37 -9 19 -33l-107 -131l-155 -195l-174 -217q-170 -213 -363 -436q-256 -293 -287 -262q-2 2 -2 8q0 5 88 106q84 97 453 555q379 473 455 582zM543 1231q-73 -136 -185 -357q-123 -250 -180 -350q-8 -13 -36 -19.5t-52 -4.5t-24 12l305 567
q-24 -17 -78 -49q-70 -44 -80 -51q-43 -24 -41 -9q2 8 18 27l33 25q55 41 209 195q12 14 23.5 23.5t20 14t19 7t14.5 3t13 -0.5h8q13 0 15 -3.5t-2 -29.5zM713 55l-90 -69q-28 -9 -34 -5t5 29l98 80q95 77 121 103q326 290 326 442q0 39 -20.5 54t-53.5 7
q-63 -18 -101.5 -61t-78.5 -127q-7 -18 -19.5 -21t-20 7t-3.5 22q37 104 115.5 175t172.5 71q85 -3 119.5 -51t-4 -135.5t-155.5 -186.5q-93 -88 -261 -229l-18 -17q22 -22 66 -43q42 -20 75.5 -18.5t81.5 29.5q45 25 74 57q25 31 33.5 22.5t-11.5 -43.5
q-119 -155 -210 -155q-115 0 -207 63z" />
    <glyph glyph-name="threequarters" unicode="&#xbe;" horiz-adv-x="1273" 
d="M1081 696q27 47 133 47q27 0 39 -12q-3 -29 -385 -356q-59 -49 -88 -88l248 6q6 13 78 153q29 32 78 35q25 3 35.5 -0.5t9.5 -13.5q0 -4 -4 -12q0 -11 -78 -158h10q52 -8 36 -26l-4 -4l-1 -1q-5 -5 -39 -20h-31l-119 -232q-10 -10 -43 -16q-53 -10 -86 0q0 1 60 115
q54 106 67 127l-301 -7l9 39q46 58 116 125l84 88q123 140 176 211zM647 1186q0 -134 -244 -236q134 -21 134 -125q0 -119 -127 -225q-126 -102 -271 -102q-99 0 -125 75q-19 43 21 27q11 -30 38.5 -50t57.5 -20q114 0 203 103q92 106 92 207q0 31 -16.5 53t-36.5 22
q-25 0 -74 -18q-69 -21 -72 0q-3 10 13 16q91 18 186 95q94 76 94 170q0 13 -16.5 22.5t-36.5 9.5q-77 0 -162 -98q-11 -14 -20.5 -11.5t-5.5 25.5q125 152 251 152q53 0 85 -23t32 -69zM133 18q167 192 529 641q371 463 454 582q22 25 60 25t38 -19q0 -9 -12 -24l-100 -123
l-156 -195l-174 -217q-99 -124 -190 -233q-135 -160 -258.5 -294t-159.5 -157q-42 -27 -44 -11q-1 9 13 25z" />
    <glyph glyph-name="questiondown" unicode="&#xbf;" horiz-adv-x="811" 
d="M348 -160l-115 -141q-73 -94 -73 -170q0 -60 69 -94q45 -17 119 -8q56 0 135 59t72 102v11q-9 -38 -72 -74q-58 -28 -94 -8q-35 18 -35 69q0 49 44 85t91 36q73 0 93 -57q21 -41 -4 -119q-26 -62 -132 -123q-135 -78 -241 -78q-125 0 -178 92q-15 27 -15 60
q0 115 135 268q31 35 162 166q115 112 183 201q67 88 114 215q8 19 25.5 12t13.5 -27q-14 -65 -70 -163q-53 -92 -90 -144q-61 -81 -137 -170zM772 629q0 -52 -30.5 -80.5t-69.5 -28.5q-32 0 -52 20t-20 40q0 18 1 26t9.5 25.5t26.5 32.5q34 27 64 24.5t50.5 -21t20.5 -38.5
z" />
    <glyph glyph-name="Agrave" unicode="&#xc0;" horiz-adv-x="1458" 
d="M1294 829q45 0 45 -53q0 -57 -47 -110q-147 -162 -205 -482q-25 -103 -4 -180.5t76 -73.5q97 0 230 160q116 149 178 291q17 31 32.5 28.5t3.5 -32.5q0 -2 -1 -4q-81 -185 -191 -328q-38 -56 -98 -100t-121 -64.5t-117.5 -8t-85.5 61.5q-37 57 -40 150.5t19.5 177.5
t57.5 131q-201 -244 -440 -397q-120 -75 -273 -90q-72 -8 -129 22q-141 59 -141 281q0 200 137 471q81 159 180 264q-131 61 -192 131q-47 50 -47 121q0 69 29 92q21 27 36 6q6 -13 -3 -44.5t-9 -43.5q0 -51 51 -102q66 -71 170 -119q201 218 444.5 340.5t501.5 122.5
q153 0 242 -68q90 -66 90 -180q0 -112 -145 -227q-195 -148 -617 -148q-238 0 -430 64q-52 -49 -135 -180q-86 -136 -145 -281q-58 -143 -58 -252q0 -29 2 -41q24 -170 172 -170q169 0 385 180q308 258 480 574q61 110 112 110zM1593 1231q0 79 -66.5 123.5t-178.5 44.5
q-237 0 -438 -120t-398 -353q177 -54 395 -54q365 0 547 123q139 95 139 236zM1536 1503q0 -18 -18 -18q-15 0 -134 61l-131 70q-71 35 -71 84q0 18 11.5 29.5t29.5 11.5q21 0 166 -115q147 -114 147 -123z" />
    <glyph glyph-name="Aacute" unicode="&#xc1;" horiz-adv-x="1458" 
d="M1628 1704q27 19 51 25.5t40 1.5t26 -13t12 -18q0 -16 -8 -29q-11 -19 -164 -88q-152 -70 -166 -70h-10q-15 9 -6 25q12 17 110 84q100 67 115 82zM1294 829q45 0 45 -53q0 -57 -47 -110q-147 -162 -205 -482q-25 -103 -4 -180.5t76 -73.5q97 0 230 160q116 149 178 291
q17 31 32.5 28.5t3.5 -32.5q0 -2 -1 -4q-81 -185 -191 -328q-38 -56 -98 -100t-121 -64.5t-117.5 -8t-85.5 61.5q-37 57 -40 150.5t19.5 177.5t57.5 131q-201 -244 -440 -397q-120 -75 -273 -90q-72 -8 -129 22q-141 59 -141 281q0 200 137 471q81 159 180 264
q-131 61 -192 131q-47 50 -47 121q0 69 29 92q21 27 36 6q6 -13 -3 -44.5t-9 -43.5q0 -51 51 -102q66 -71 170 -119q201 218 444.5 340.5t501.5 122.5q153 0 242 -68q90 -66 90 -180q0 -112 -145 -227q-195 -148 -617 -148q-238 0 -430 64q-52 -49 -135 -180
q-86 -136 -145 -281q-58 -143 -58 -252q0 -29 2 -41q24 -170 172 -170q169 0 385 180q308 258 480 574q61 110 112 110zM1593 1231q0 79 -66.5 123.5t-178.5 44.5q-237 0 -438 -120t-398 -353q177 -54 395 -54q365 0 547 123q139 95 139 236z" />
    <glyph glyph-name="Acircumflex" unicode="&#xc2;" horiz-adv-x="1458" 
d="M1534 1743l74 -217q6 -13 -13 -13q-18 0 -28 13l-94 145l-271 -145q-22 -19 -49 -10q-11 4 -2 10l305 217q75 12 78 0zM1294 829q45 0 45 -53q0 -57 -47 -110q-147 -162 -205 -482q-25 -103 -4 -180.5t76 -73.5q97 0 230 160q116 149 178 291q17 31 32.5 28.5t3.5 -32.5
q0 -2 -1 -4q-81 -185 -191 -328q-38 -56 -98 -100t-121 -64.5t-117.5 -8t-85.5 61.5q-37 57 -40 150.5t19.5 177.5t57.5 131q-201 -244 -440 -397q-120 -75 -273 -90q-72 -8 -129 22q-141 59 -141 281q0 200 137 471q81 159 180 264q-131 61 -192 131q-47 50 -47 121
q0 69 29 92q21 27 36 6q6 -13 -3 -44.5t-9 -43.5q0 -51 51 -102q66 -71 170 -119q201 218 444.5 340.5t501.5 122.5q153 0 242 -68q90 -66 90 -180q0 -112 -145 -227q-195 -148 -617 -148q-238 0 -430 64q-52 -49 -135 -180q-86 -136 -145 -281q-58 -143 -58 -252
q0 -29 2 -41q24 -170 172 -170q169 0 385 180q308 258 480 574q61 110 112 110zM1593 1231q0 79 -66.5 123.5t-178.5 44.5q-237 0 -438 -120t-398 -353q177 -54 395 -54q365 0 547 123q139 95 139 236z" />
    <glyph glyph-name="Atilde" unicode="&#xc3;" horiz-adv-x="1458" 
d="M1575 1532q-47 0 -131 37q-95 46 -148 43t-88 -68q-3 -13 -37 -4q-10 3 -10 8q86 154 189 154q49 0 133 -37q83 -33 108 -37h33q63 0 98 72q3 6 13 6q27 0 30 -10q-80 -164 -190 -164zM1294 829q45 0 45 -53q0 -57 -47 -110q-147 -162 -205 -482q-25 -103 -4 -180.5
t76 -73.5q97 0 230 160q116 149 178 291q17 31 32.5 28.5t3.5 -32.5q0 -2 -1 -4q-81 -185 -191 -328q-38 -56 -98 -100t-121 -64.5t-117.5 -8t-85.5 61.5q-37 57 -40 150.5t19.5 177.5t57.5 131q-201 -244 -440 -397q-120 -75 -273 -90q-72 -8 -129 22q-141 59 -141 281
q0 200 137 471q81 159 180 264q-131 61 -192 131q-47 50 -47 121q0 69 29 92q21 27 36 6q6 -13 -3 -44.5t-9 -43.5q0 -51 51 -102q66 -71 170 -119q201 218 444.5 340.5t501.5 122.5q153 0 242 -68q90 -66 90 -180q0 -112 -145 -227q-195 -148 -617 -148q-238 0 -430 64
q-52 -49 -135 -180q-86 -136 -145 -281q-58 -143 -58 -252q0 -29 2 -41q24 -170 172 -170q169 0 385 180q308 258 480 574q61 110 112 110zM1593 1231q0 79 -66.5 123.5t-178.5 44.5q-237 0 -438 -120t-398 -353q177 -54 395 -54q365 0 547 123q139 95 139 236z" />
    <glyph glyph-name="Adieresis" unicode="&#xc4;" horiz-adv-x="1458" 
d="M1645 1741q26 0 43.5 -14t22 -33.5t0.5 -39.5t-21 -34t-43 -14q-41 -4 -58.5 31.5t-0.5 71t57 32.5zM1380 1741q42 0 60 -33.5t1.5 -67.5t-59.5 -34q-41 -4 -58.5 31.5t-0.5 71t57 32.5zM1294 829q45 0 45 -53q0 -57 -47 -110q-147 -162 -205 -482q-25 -103 -4 -180.5
t76 -73.5q97 0 230 160q116 149 178 291q17 31 32.5 28.5t3.5 -32.5q0 -2 -1 -4q-81 -185 -191 -328q-38 -56 -98 -100t-121 -64.5t-117.5 -8t-85.5 61.5q-37 57 -40 150.5t19.5 177.5t57.5 131q-201 -244 -440 -397q-120 -75 -273 -90q-72 -8 -129 22q-141 59 -141 281
q0 200 137 471q81 159 180 264q-131 61 -192 131q-47 50 -47 121q0 69 29 92q21 27 36 6q6 -13 -3 -44.5t-9 -43.5q0 -51 51 -102q66 -71 170 -119q201 218 444.5 340.5t501.5 122.5q153 0 242 -68q90 -66 90 -180q0 -112 -145 -227q-195 -148 -617 -148q-238 0 -430 64
q-52 -49 -135 -180q-86 -136 -145 -281q-58 -143 -58 -252q0 -29 2 -41q24 -170 172 -170q169 0 385 180q308 258 480 574q61 110 112 110zM1593 1231q0 79 -66.5 123.5t-178.5 44.5q-237 0 -438 -120t-398 -353q177 -54 395 -54q365 0 547 123q139 95 139 236z" />
    <glyph glyph-name="Aring" unicode="&#xc5;" horiz-adv-x="1458" 
d="M1673 1632q6 52 -34 68q-35 13 -66 -13q-26 -22 -27 -59q-2 -32 15 -54t43 -22t45 23.5t24 56.5zM1702 1554q-54 -37 -106.5 -37t-89 29t-31.5 66q0 55 45 88q52 37 107.5 38.5t86.5 -28.5q34 -28 32.5 -75t-44.5 -81zM1294 829q45 0 45 -53q0 -57 -47 -110
q-147 -162 -205 -482q-25 -103 -4 -180.5t76 -73.5q97 0 230 160q116 149 178 291q17 31 32.5 28.5t3.5 -32.5q0 -2 -1 -4q-81 -185 -191 -328q-38 -56 -98 -100t-121 -64.5t-117.5 -8t-85.5 61.5q-37 57 -40 150.5t19.5 177.5t57.5 131q-201 -244 -440 -397
q-120 -75 -273 -90q-72 -8 -129 22q-141 59 -141 281q0 200 137 471q81 159 180 264q-131 61 -192 131q-47 50 -47 121q0 69 29 92q21 27 36 6q6 -13 -3 -44.5t-9 -43.5q0 -51 51 -102q66 -71 170 -119q201 218 444.5 340.5t501.5 122.5q153 0 242 -68q90 -66 90 -180
q0 -112 -145 -227q-195 -148 -617 -148q-238 0 -430 64q-52 -49 -135 -180q-86 -136 -145 -281q-58 -143 -58 -252q0 -29 2 -41q24 -170 172 -170q169 0 385 180q308 258 480 574q61 110 112 110zM1593 1231q0 79 -66.5 123.5t-178.5 44.5q-237 0 -438 -120t-398 -353
q177 -54 395 -54q365 0 547 123q139 95 139 236z" />
    <glyph glyph-name="AE" unicode="&#xc6;" horiz-adv-x="2811" 
d="M1978 709l-233 2q-287 0 -438 -142q-160 -145 -160 -340q0 -250 242 -358q125 -55 331 -55q210 0 443 88q235 89 379 209q157 136 157 237q0 55 -59 70q-61 16 -64 31q-1 9 10.5 12.5t30.5 0t39 -14.5q113 -55 113 -148q0 -115 -154 -248q-156 -131 -405 -207
q-250 -79 -520 -79q-392 0 -590 198q-113 113 -113 291q0 64 27 125q-63 -76 -162 -172q-83 -80 -147 -131q-60 -45 -127 -86q-119 -76 -267 -88q-68 -9 -127 24q-147 62 -147 299q0 239 156 518q85 152 180 261q-137 64 -205 141q-49 55 -49 133q0 76 31 98q21 26 36 11
q7 -17 4.5 -29t-8.5 -34t-6 -34q0 -58 61.5 -124.5t172.5 -118.5q483 534 999 534q197 0 291 -102q156 90 319 127q160 39 246 39q274 0 397 -99q82 -70 82 -147q0 -95 -100 -182q-104 -87 -258 -121q-88 -17 -88 6q0 24 76 33q79 9 143 73q66 69 90 146q24 81 -31 149
q-67 88 -274 88q-136 0 -288 -47t-269 -139q16 -46 16 -84q0 -155 -182 -272q16 -67 74 -110.5t127.5 -62t136.5 -33t110 -38t39 -62.5q-9 -36 -88 -36zM1442 983q-219 -78 -488 -78q-271 0 -448 58q-211 -300 -285 -488q-78 -197 -78 -299q0 -29 2 -41q24 -170 172 -170
q169 0 385 180q160 135 306 312q155 187 221 317q73 137 131 137q47 0 47 -59q0 -65 -51 -119l-10 -16q155 80 352 90q-179 58 -256 176zM1645 1446q-66 84 -218 84q-148 0 -276 -41q-122 -39 -236 -121q-105 -76 -189 -158.5t-187 -205.5q155 -50 376 -50q314 0 504 76
q-8 31 -8 51q3 209 234 365zM1677 1346q-96 -110 -102 -211l-2 -9q104 94 104 220z" />
    <glyph glyph-name="Ccedilla" unicode="&#xc7;" horiz-adv-x="1454" 
d="M897 -584q-52 -34 -139 -34q-86 0 -180 24q-95 21 -95 70q0 29 31 3q6 -5 12 -11q49 -52 187 -52q139 0 186 74q32 41 29.5 91t-47.5 79q-93 60 -201 6q-46 -23 -58.5 -24.5t-21.5 10.5q-12 9 -12 20q0 10 10 23q10 10 129 100q-134 9 -270 68q-132 55 -219.5 175
t-106.5 265q-18 148 10 330q18 120 80 262q66 143 150 250q-66 254 -9 469q4 15 12.5 23t14.5 8q11 -1 12.5 -18t-2 -54.5t-6 -84.5t3.5 -121.5t23 -152.5q165 214 385 308q168 73 356 73q53 0 111 -6q314 -34 426 -241q88 -171 2 -369q-88 -195 -309 -291
q-140 -61 -310 -61q-63 0 -145 10q-367 53 -508 348q-50 -71 -102 -233q-50 -157 -60 -252q-13 -158 0 -271q15 -111 86 -204q72 -91 191 -125q118 -37 209 -37q287 0 485 119q118 69 188 161q71 92 148 252q11 24 23 19q14 -5 2 -36q0 -1 -1 -3q-78 -159 -145 -250
q-68 -96 -184 -176q-231 -156 -482 -156h-18q-5 -5 -29 -20q-59 -41 -59 -52q39 6 67 7.5t79.5 -7.5t99.5 -32q78 -41 78 -119q0 -84 -107 -154zM469 1051q144 -371 606 -371q259 0 416 145q158 146 158 330t-160 287q-119 76 -293 76q-176 0 -350 -101q-221 -129 -377 -366
z" />
    <glyph glyph-name="Egrave" unicode="&#xc8;" horiz-adv-x="1847" 
d="M1655 1528q0 -15 -19 -15q-8 0 -118 58q-106 57 -117 61q-66 28 -66 72q0 43 33 43q24 0 156 -105q131 -104 131 -114zM1006 641l-220 2q-272 0 -421 -131q-179 -150 -179 -352q0 -212 201 -303q113 -52 307 -52q197 0 410 82q214 82 362 197q168 131 168 229
q0 49 -49 58q-48 12 -51 26q-3 20 31 17q36 -3 57 -15q92 -50 92 -127q0 -112 -160 -239q-155 -125 -399 -199q-245 -74 -453 -74t-342 41q-232 71 -303 265q-15 56 -17.5 96t18 108.5t73.5 153.5q51 85 163.5 158.5t236 112.5t221.5 38q-109 38 -176.5 97t-67.5 126v13
q15 156 184 282q172 128 355 174q189 50 319 50q223 0 334 -91q67 -58 67 -120q0 -87 -104 -166q-103 -78 -252 -113q-82 -17 -82 4q0 23 66 29q65 7 121.5 45.5t89.5 95.5q39 66 38 118.5t-47 94.5q-64 55 -208 55q-150 0 -301.5 -46.5t-274.5 -141.5q-156 -120 -156 -264
q-7 -85 74.5 -136.5t206.5 -68.5q156 -27 156 -82q0 -47 -88 -47z" />
    <glyph glyph-name="Eacute" unicode="&#xc9;" horiz-adv-x="1847" 
d="M1481 1513q-17 9 -3 24q11 13 48 38l100 72q15 11 37 27t30 21.5t20.5 13t20.5 9.5t17 2q41 0 53 -17t-2 -42q-6 -14 -153 -82q-147 -66 -158 -66h-10zM1006 635l-220 2q-272 0 -421 -131q-179 -150 -179 -352q0 -213 201 -304q111 -51 307 -51q197 0 410 82
q214 82 362 197q168 131 168 229q0 49 -49 58q-48 12 -51 26q-3 20 31 17q36 -3 57 -15q92 -50 92 -127q0 -112 -160 -239q-155 -125 -399 -199q-245 -74 -453 -74t-342 41q-233 71 -303 264q-15 56 -17.5 96.5t18 109t73.5 153.5q51 85 163.5 158.5t236 112.5t221.5 38
q-105 39 -175.5 105.5t-70.5 138.5v12q15 169 182 293q168 125 352 172q176 45 316 45q235 0 342 -94q67 -58 67 -125q0 -94 -106 -178q-105 -83 -254 -117q-19 -4 -34 -6t-26 -2t-17 3t-5 9q9 25 70 31q62 9 118 51q116 84 131 213v14q0 51 -49 94q-64 58 -256 58
t-395 -101q-245 -120 -280 -309q-17 -87 30 -153q33 -45 95.5 -70t150.5 -41q156 -35 156 -88q0 -47 -88 -47z" />
    <glyph glyph-name="Ecircumflex" unicode="&#xca;" horiz-adv-x="1847" 
d="M1006 641l-220 2q-272 0 -421 -131q-179 -150 -179 -352q0 -212 201 -303q113 -52 307 -52q197 0 410 82q214 82 362 197q168 131 168 229q0 49 -49 58q-48 12 -51 26q-3 20 31 17q36 -3 57 -15q92 -50 92 -127q0 -112 -160 -239q-155 -125 -399 -199q-245 -74 -453 -74
t-342 41q-232 71 -303 265q-15 56 -17.5 96t18 108.5t73.5 153.5q51 85 163.5 158.5t236 112.5t221.5 38q-109 38 -176.5 97t-67.5 126v13q15 156 184 282q172 128 355 174q189 50 319 50q223 0 334 -91q67 -58 67 -120q0 -87 -104 -166q-103 -78 -252 -113q-82 -17 -82 4
q0 23 66 29q65 7 121.5 45.5t89.5 95.5q39 66 38 118.5t-47 94.5q-64 55 -208 55q-150 0 -301.5 -46.5t-274.5 -141.5q-156 -120 -156 -264q-7 -85 74.5 -136.5t206.5 -68.5q156 -27 156 -82q0 -47 -88 -47zM1599 1524l-92 139q-246 -128 -262 -139q-19 -13 -39 -13
q-22 0 -21 8q1 4 5 5l301 207q78 13 78 0l71 -207q10 -3 1 -8q-20 -10 -42 8z" />
    <glyph glyph-name="Edieresis" unicode="&#xcb;" horiz-adv-x="1847" 
d="M1626 1741q42 0 60 -33.5t1 -67.5t-59 -34q-41 -4 -58.5 31.5t-0.5 71t57 32.5zM1362 1741q42 0 60 -33.5t1 -67.5t-59 -34q-41 -4 -58.5 31.5t-0.5 71t57 32.5zM1006 645l-220 2q-272 0 -421 -131q-179 -150 -179 -352q0 -212 201 -303q111 -51 307 -51q199 0 410 81
q214 82 362 197q168 131 168 229q0 49 -49 58q-48 12 -51 26q-3 20 31 17q36 -3 57 -15q92 -50 92 -127q0 -112 -160 -239q-155 -125 -399 -199q-245 -74 -453 -74t-342 41q-232 71 -303 265q-15 56 -17.5 96t18 108.5t73.5 153.5q51 85 163.5 158.5t236 112.5t221.5 38
q-109 38 -176.5 97.5t-67.5 126.5v12q15 156 184 282q174 129 355 175q186 49 319 49q224 0 334 -90q67 -58 67 -121q0 -87 -104 -166q-103 -78 -252 -113q-82 -17 -82 4q0 23 66 29q65 7 121.5 45.5t89.5 95.5q39 66 38 118.5t-47 94.5q-65 56 -208 56q-150 0 -301.5 -47
t-274.5 -142q-156 -120 -156 -264q-7 -85 74.5 -136.5t206.5 -68.5q156 -27 156 -82q0 -47 -88 -47z" />
    <glyph glyph-name="Igrave" unicode="&#xcc;" horiz-adv-x="1855" 
d="M2392 1442q70 0 70 -64q0 -78 -88 -112q-73 -28 -156 -43q-138 -258 -252 -660q-43 -145 -119 -311q-80 -170 -190 -313q-409 -523 -1043 -523q-294 0 -469 129q-115 82 -157 230q-39 145 26 317q44 113 138 195q96 87 149 90q21 0 25 -4q6 -9 -23 -25q-64 -27 -141 -119
q-121 -145 -121 -325q0 -138 88 -236q110 -122 315 -168q84 -20 136 -20h30.5h33.5t32.5 1t39.5 3.5t42 6.5t51 11q165 42 326 140q150 93 261.5 203t209.5 253q160 233 241 453q146 383 307 661q-319 -66 -518 -151q-190 -80 -303 -193q-135 -132 -176 -307
q-12 -49 -12 -90q0 -83 45 -137.5t102 -54.5q61 0 123 26.5t103 79.5q67 82 67 199q0 55 -16 71q-4 8 4 19q21 30 39 0q57 -112 -13 -244q-70 -131 -200 -180q-67 -25 -142 -25q-73 0 -159 68t-86 188q0 41 8 80q117 527 1167 705q13 29 66 96q31 35 59.5 54t44 22.5
t35.5 3.5zM2253 1274q139 27 133 78q-3 24 -29 24q-21 0 -104 -102zM2513 1530q0 -17 -19 -17q-8 0 -118 58q-106 57 -117 61q-64 34 -64 74q0 39 33 39q21 0 154 -103q131 -101 131 -112z" />
    <glyph glyph-name="Iacute" unicode="&#xcd;" horiz-adv-x="1855" 
d="M2294 1305l-86 -19q-139 -259 -252 -659q-43 -148 -119 -312q-80 -170 -190 -313q-408 -522 -1043 -522q-292 0 -469 127q-117 86 -158 229q-39 147 27 320q44 113 137 194q96 87 150 90q21 0 24 -6q5 -7 -22 -22q-65 -27 -141 -121q-121 -145 -121 -324q0 -137 88 -235
q109 -121 313 -168q88 -21 137 -21h26h28.5t27.5 0.5t32.5 2t33 4t39.5 6.5t43 10q166 43 325 139q149 93 260.5 203t210.5 252q162 235 242 454q147 386 307 662q-324 -67 -518 -150q-200 -87 -305 -192q-133 -136 -174 -309q-12 -49 -12 -90q0 -83 45 -138t102 -55
q60 0 121 26.5t106 80.5q66 84 66 198q0 56 -16 72q-4 8 4 18q21 30 39 0q57 -111 -13 -243q-71 -133 -200 -181q-64 -24 -142 -24q-75 0 -160 67q-86 68 -86 189q0 36 9 80q117 526 1167 704q13 29 66 96q31 35 59.5 54t44 22.5t35.5 3.5q66 0 69 -57q0 -60 -49 -94
q-54 -32 -108 -49zM2243 1337q139 27 133 78q-3 25 -29 25q-21 0 -104 -103zM2128 1513q-2 0 -7 4t-5 9q0 6 4 14q2 5 57 47q68 49 119 84q19 14 43.5 31.5t35.5 25.5t24.5 16.5t23.5 11.5t20 3q48 0 63 -19.5t3 -43.5q-10 -26 -185 -105q-179 -78 -196 -78z" />
    <glyph glyph-name="Icircumflex" unicode="&#xce;" horiz-adv-x="1855" 
d="M2294 1305l-86 -19q-139 -259 -252 -659q-43 -148 -119 -312q-80 -170 -190 -313q-408 -522 -1043 -522q-292 0 -469 127q-117 86 -158 229q-39 147 27 320q44 113 137 194q96 87 150 90q21 0 24 -6q5 -7 -22 -22q-65 -27 -141 -121q-121 -145 -121 -324q0 -137 88 -235
q109 -121 313 -168q88 -21 137 -21h26h28.5t27.5 0.5t32.5 2t33 4t39.5 6.5t43 10q166 43 325 139q149 93 260.5 203t210.5 252q162 235 242 454q147 386 307 662q-324 -67 -518 -150q-200 -87 -305 -192q-133 -136 -174 -309q-12 -49 -12 -90q0 -83 45 -138t102 -55
q60 0 121 26.5t106 80.5q66 84 66 198q0 56 -16 72q-4 8 4 18q21 30 39 0q57 -111 -13 -243q-71 -133 -200 -181q-64 -24 -142 -24q-75 0 -160 67q-86 68 -86 189q0 36 9 80q117 526 1167 704q13 29 66 96q31 35 59.5 54t44 22.5t35.5 3.5q66 0 69 -57q0 -60 -49 -94
q-54 -32 -108 -49zM2243 1337q139 27 133 78q-3 25 -29 25q-21 0 -104 -103zM2402 1663l-270 -145q-31 -21 -52 -10q-11 6 -1 9q1 1 2 1l305 217q78 13 78 0l73 -217q3 -3 3 -9q0 -3 -9 -4t-19.5 2.5t-14.5 10.5z" />
    <glyph glyph-name="Idieresis" unicode="&#xcf;" horiz-adv-x="1855" 
d="M2294 1305l-86 -19q-139 -259 -252 -659q-43 -148 -119 -312q-80 -170 -190 -313q-408 -522 -1043 -522q-292 0 -469 127q-117 86 -158 229q-39 147 27 320q44 113 137 194q96 87 150 90q21 0 24 -6q5 -7 -22 -22q-65 -27 -141 -121q-121 -145 -121 -324q0 -137 88 -235
q109 -121 313 -168q88 -21 137 -21h26h28.5t27.5 0.5t32.5 2t33 4t39.5 6.5t43 10q166 43 325 139q149 93 260.5 203t210.5 252q162 235 242 454q147 386 307 662q-324 -67 -518 -150q-200 -87 -305 -192q-133 -136 -174 -309q-12 -49 -12 -90q0 -83 45 -138t102 -55
q60 0 121 26.5t106 80.5q66 84 66 198q0 56 -16 72q-4 8 4 18q21 30 39 0q57 -111 -13 -243q-71 -133 -200 -181q-64 -24 -142 -24q-75 0 -160 67q-86 68 -86 189q0 36 9 80q117 526 1167 704q13 29 66 96q31 35 59.5 54t44 22.5t35.5 3.5q66 0 69 -57q0 -60 -49 -94
q-54 -32 -108 -49zM2243 1337q139 27 133 78q-3 25 -29 25q-21 0 -104 -103zM2527 1729q26 0 43.5 -14t22 -34t0.5 -40t-21 -34t-43 -14q-41 -4 -58.5 31.5t-0.5 71.5t57 33zM2263 1729q26 0 43.5 -14t22 -34t0.5 -40t-21 -34t-43 -14q-41 -4 -58.5 31.5t-0.5 71.5t57 33z
" />
    <glyph glyph-name="Eth" unicode="&#xd0;" horiz-adv-x="2103" 
d="M1421 -78q-49 0 -98 6q-322 41 -555 146q-192 -154 -422 -154q-264 0 -326 148q-38 99 33 180q75 84 205 84q91 0 176 -33q82 -28 318 -152q131 125 299 426l-168 -18q-15 -2 -26.5 22.5t-5.5 50t32 25.5q148 0 211 -2q69 139 153 289q79 143 121 203q84 125 162 215
q-229 137 -488 137q-101 0 -217 -22q-316 -67 -483 -277q-102 -126 -102 -242q0 -156 149 -202q57 -13 93.5 -15.5t84 13.5t97.5 57q90 90 96 168q1 17 20 14t21 -23q1 -5 0 -10q-21 -151 -158 -227q-80 -45 -168 -45l-106 18q-154 52 -205 199q-21 55 -21 111q0 110 84 223
q180 241 639 309q89 12 178 12q285 0 543 -135l51 60q21 18 88 65q89 62 127 62q25 -1 -1 -27q-8 -7 -28 -24q-35 -31 -52 -48l-97 -139q220 -146 334 -373q92 -182 92 -397q0 -264 -139 -432q-115 -139 -285 -201q-122 -45 -256 -45zM1415 950l-184 -303l102 -2
q34 -3 43 -27q-3 -25 -35 -28q-25 0 -151 -4q-214 -338 -373 -475q219 -99 504 -127q46 -4 70 -4q213 0 368 131q183 154 207 374q6 52 6 101q0 186 -74 354q-92 212 -272 352q-91 -141 -211 -342zM698 106q-263 125 -303 138q-68 22 -125 22q-60 0 -96 -45
q-58 -73 -18 -149q43 -88 176 -88q198 0 366 122z" />
    <glyph glyph-name="Ntilde" unicode="&#xd1;" horiz-adv-x="2127" 
d="M874 686q0 131 -137 131q-54 0 -59 2q-11 4 2 17q18 24 121 24q102 0 137 -90q14 -32 14 -74q0 -85 -65 -200q-112 -187 -305 -263q-101 -40 -224 -40q-125 0 -222.5 84.5t-127.5 232.5q-6 40 -6 84q0 118 66 285q63 160 219 313q295 287 614 354q143 30 273 13
q127 -18 198 -121q58 -79 58 -203q0 -51 -8.5 -103.5t-16.5 -80.5t-21 -65l-12 -36l-31 -71l-26 -64q-8 -19 -33 -74q-85 -185 -82 -188l64 102q126 193 270 369q268 326 485 426q117 57 211 57q97 0 154 -46.5t57 -147.5q0 -100 -62 -245t-204 -404q-80 -147 -123.5 -232
t-93 -195t-71 -194.5t-21.5 -157.5q0 -55 14 -96q27 -94 111 -94q33 0 93 22.5t73 22.5q24 0 24 -27q0 -24 -37 -46.5t-65 -22.5q-328 0 -328 284q0 101 35 211q34 98 256 568q220 465 237 581q5 30 5 35q0 86 -101 86q-70 0 -153 -45q-318 -151 -613 -588
q-172 -254 -391 -727l-84 -180q-27 -59 -115 -59q-52 0 -55 32q-3 6 0 15q98 142 275 536q179 394 243 684q40 192 0 299q-44 110 -145 125q-40 4 -86 4q-68 0 -178.5 -35.5t-233.5 -113.5q-311 -194 -448 -502q-76 -168 -76 -309q0 -71 18 -135q68 -170 238 -179
q212 0 369 177q126 141 126 278zM2359 1735q5 6 20 5.5t15 -7.5q0 -138 -158 -138q-37 0 -110 31q-74 38 -119.5 35.5t-73.5 -55.5q-3 -12 -32 -2l-7 6q71 127 158 127q31 0 107 -29q78 -36 125 -32.5t75 59.5z" />
    <glyph glyph-name="Ograve" unicode="&#xd2;" horiz-adv-x="1605" 
d="M1456 1532q0 -19 -18 -19q-10 0 -127 60l-125 67q-68 35 -68 78t35 43q27 0 164 -110q139 -109 139 -119zM1073 10q-223 -174 -459 -174q-245 0 -356 182q-53 87 -71.5 192.5t-5 212t54.5 216.5q-143 94 -158 258q-4 40 -4 61q0 246 211 412q226 176 532 176
q309 0 508 -172q203 -170 203 -487v-41q204 134 266 258q16 27 35 17q15 -8 6 -27q-4 -7 -10 -13q-119 -189 -305 -307q-10 -103 -54 -231q-43 -137 -148.5 -281.5t-244.5 -251.5zM1407 889q0 345 -221 512q-146 110 -344 110q-52 0 -117 -10q-252 -38 -408 -207
q-133 -148 -133 -333q0 -162 88 -238q78 166 236 344q168 189 360 233q102 21 189 -32q21 -12 14 -23q-8 -13 -39 -4q-19 8 -69 8q-54 0 -144.5 -53t-175.5 -149q-185 -209 -266 -394q130 -59 309 -59q82 0 170 12q295 38 547 174q4 74 4 109zM1391 709q-343 -183 -721 -183
q-185 0 -324 56q-63 -163 -63 -287q0 -284 170 -367q184 -85 362 -2q179 80 322 254q144 175 217 383q29 89 37 146z" />
    <glyph glyph-name="Oacute" unicode="&#xd3;" horiz-adv-x="1605" 
d="M1073 10q-223 -174 -459 -174q-245 0 -356 182q-53 87 -71.5 192.5t-5 212t54.5 216.5q-143 94 -158 258q-4 40 -4 61q0 246 211 412q226 176 532 176q309 0 508 -172q203 -170 203 -487v-41q204 134 266 258q16 27 35 17q15 -8 6 -27q-4 -7 -10 -13q-119 -189 -305 -307
q-10 -103 -54 -231q-43 -137 -148.5 -281.5t-244.5 -251.5zM1407 889q0 345 -221 512q-146 110 -344 110q-52 0 -117 -10q-252 -38 -408 -207q-133 -148 -133 -333q0 -162 88 -238q78 166 236 344q168 189 360 233q102 21 189 -32q21 -12 14 -23q-8 -13 -39 -4q-19 8 -69 8
q-54 0 -144.5 -53t-175.5 -149q-185 -209 -266 -394q130 -59 309 -59q82 0 170 12q295 38 547 174q4 74 4 109zM1391 709q-343 -183 -721 -183q-185 0 -324 56q-63 -163 -63 -287q0 -284 170 -367q184 -85 362 -2q179 80 322 254q144 175 217 383q29 89 37 146zM1249 1513
q-2 0 -7 4t-5 9q0 6 4 14q2 5 57 47q68 49 119 84q19 13 43.5 31t35.5 26t25 16.5t24 11.5t20 3q48 0 62.5 -19.5t2.5 -43.5q-10 -26 -184 -105q-179 -78 -197 -78z" />
    <glyph glyph-name="Ocircumflex" unicode="&#xd4;" horiz-adv-x="1605" 
d="M1378 1720l62 -180q3 -8 -8 -8q-19 0 -27 8l-78 121l-223 -121q-15 -15 -39 -8q-5 5 -2 8l252 180q63 9 63 0zM1073 10q-223 -174 -459 -174q-245 0 -356 182q-53 87 -71.5 192.5t-5 212t54.5 216.5q-143 94 -158 258q-4 40 -4 61q0 246 211 412q226 176 532 176
q309 0 508 -172q203 -170 203 -487v-41q204 134 266 258q16 27 35 17q15 -8 6 -27q-4 -7 -10 -13q-119 -189 -305 -307q-10 -103 -54 -231q-43 -137 -148.5 -281.5t-244.5 -251.5zM1407 889q0 345 -221 512q-146 110 -344 110q-52 0 -117 -10q-252 -38 -408 -207
q-133 -148 -133 -333q0 -162 88 -238q78 166 236 344q168 189 360 233q102 21 189 -32q21 -12 14 -23q-8 -13 -39 -4q-19 8 -69 8q-54 0 -144.5 -53t-175.5 -149q-185 -209 -266 -394q130 -59 309 -59q82 0 170 12q295 38 547 174q4 74 4 109zM1391 709q-343 -183 -721 -183
q-185 0 -324 56q-63 -163 -63 -287q0 -284 170 -367q184 -85 362 -2q179 80 322 254q144 175 217 383q29 89 37 146z" />
    <glyph glyph-name="Otilde" unicode="&#xd5;" horiz-adv-x="1605" 
d="M1073 10q-223 -174 -459 -174q-245 0 -356 182q-53 87 -71.5 192.5t-5 212t54.5 216.5q-143 94 -158 258q-4 40 -4 61q0 246 211 412q226 176 532 176q309 0 508 -172q203 -170 203 -487v-41q204 134 266 258q16 27 35 17q15 -8 6 -27q-4 -7 -10 -13q-119 -189 -305 -307
q-10 -103 -54 -231q-43 -137 -148.5 -281.5t-244.5 -251.5zM1407 889q0 345 -221 512q-146 110 -344 110q-52 0 -117 -10q-252 -38 -408 -207q-133 -148 -133 -333q0 -162 88 -238q78 166 236 344q168 189 360 233q102 21 189 -32q21 -12 14 -23q-8 -13 -39 -4q-19 8 -69 8
q-54 0 -144.5 -53t-175.5 -149q-185 -209 -266 -394q130 -59 309 -59q82 0 170 12q295 38 547 174q4 74 4 109zM1391 709q-343 -183 -721 -183q-185 0 -324 56q-63 -163 -63 -287q0 -284 170 -367q184 -85 362 -2q179 80 322 254q144 175 217 383q29 89 37 146zM1075 1542
q0 -6 -26 -6q-13 3 -13 10q70 125 154 125l5 1h9t13.5 -1.5t21 -5t29.5 -10t39 -15.5q72 -28 112 -28q53 0 80 59q3 14 31 0l4 -4q-62 -135 -156 -135q-37 0 -110 31q-74 38 -119 35t-74 -56z" />
    <glyph glyph-name="Odieresis" unicode="&#xd6;" horiz-adv-x="1605" 
d="M1376 1741q42 0 60 -33.5t1.5 -67.5t-59.5 -34q-41 -4 -58.5 31.5t-0.5 71t57 32.5zM1112 1741q42 0 60 -33.5t1 -67.5t-59 -34q-41 -4 -58.5 31.5t-0.5 71t57 32.5zM1073 10q-223 -174 -459 -174q-245 0 -356 182q-53 87 -71.5 192.5t-5 212t54.5 216.5
q-143 94 -158 258q-4 40 -4 61q0 246 211 412q226 176 532 176q309 0 508 -172q203 -170 203 -487v-41q204 134 266 258q16 27 35 17q15 -8 6 -27q-4 -7 -10 -13q-119 -189 -305 -307q-10 -103 -54 -231q-43 -137 -148.5 -281.5t-244.5 -251.5zM1407 889q0 345 -221 512
q-146 110 -344 110q-52 0 -117 -10q-252 -38 -408 -207q-133 -148 -133 -333q0 -162 88 -238q78 166 236 344q168 189 360 233q102 21 189 -32q21 -12 14 -23q-8 -13 -39 -4q-19 8 -69 8q-54 0 -144.5 -53t-175.5 -149q-185 -209 -266 -394q130 -59 309 -59q82 0 170 12
q295 38 547 174q4 74 4 109zM1391 709q-343 -183 -721 -183q-185 0 -324 56q-63 -163 -63 -287q0 -284 170 -367q184 -85 362 -2q179 80 322 254q144 175 217 383q29 89 37 146z" />
    <glyph glyph-name="multiply" unicode="&#xd7;" horiz-adv-x="622" 
d="M532 584l-151 -164l88 -172q-2 -6 -17.5 -23t-21.5 -18l-86 174l-151 -164q-4 1 -13.5 19t-9.5 24l152 164l-89 172q2 6 17.5 23t21.5 18l86 -174l152 164q6 0 14 -17.5t8 -25.5z" />
    <glyph glyph-name="Oslash" unicode="&#xd8;" horiz-adv-x="1579" 
d="M1251 1487l99 174l69 -33l-104 -184q239 -178 239 -520v-39q206 135 267 258q15 25 33 18q15 -7 8 -26q-3 -8 -11 -15q-119 -189 -305 -307q-9 -111 -56.5 -244t-143.5 -268q-108 -148 -249.5 -255t-297.5 -150q-161 -43 -326 6l-24 10l-87 -154l-65 29l88 160
q-131 94 -172 295q-10 68 -10 127q0 144 59 309q-143 94 -158 258q-4 40 -4 59q0 129 66 249.5t190 197.5q236 145 478 145q245 0 417 -100zM772 633l449 799q-150 118 -367 118q-218 0 -424 -141q-109 -74 -164 -186t-55 -226q0 -159 88 -235q78 166 236 344
q168 189 358 233q29 6 50 7.5t61 -7.5t79 -32q24 -13 14 -25q-9 -10 -38 -2q-19 8 -70 8q-53 0 -143.5 -53t-175.5 -150q-187 -212 -267 -393q122 -61 312 -61q39 0 57 2zM821 571l-342 -604q184 -85 361 -2q180 82 323 256t217 381q29 89 37 146q-282 -150 -596 -177z
M1434 922q0 292 -156 456l-418 -737q302 35 570 178q4 70 4 103zM311 311q0 -205 109 -305l313 559h-37q-184 0 -323 56q-62 -151 -62 -310z" />
    <glyph glyph-name="Ugrave" unicode="&#xd9;" horiz-adv-x="1929" 
d="M2021 987q41 -21 41 -59q0 -51 -51 -137q-171 -307 -223 -621q-14 -80 -14 -156q0 -141 75 -141h23q37 0 37 -16q0 -25 -45 -31h-25q-51 9 -84.5 45.5t-46 86.5t-16 90.5t-0.5 74.5q0 123 26 244q-144 -240 -286 -355q-130 -106 -252 -106q-87 0 -133 55
q-62 73 -61.5 185t63.5 292q72 204 168 414q105 226 137 358q32 117 32 228q0 150 -79 196q-94 52 -217 52q-216 0 -465 -144q-367 -215 -496 -543q-99 -251 -14 -456q86 -209 299 -209q250 0 399 254q82 134 82 239q0 154 -139 154q-32 0 -84 -12q-45 -7 -45 2q7 18 61 41
q56 24 111 24q83 0 127 -71q61 -107 -6 -285q-76 -204 -267 -320q-137 -85 -266 -86t-225 76q-168 128 -168 391q0 262 201 516q166 206 434 353q235 131 454 131q113 0 213 -41q199 -85 199 -330q0 -182 -117 -452q-81 -190 -131 -293q-63 -135 -103 -269.5t-40 -224.5
q0 -172 115 -172q122 0 288 205l56 76q84 123 211 376l133 263q61 108 114 108zM2025 1438q0 -19 -20 -19q-11 0 -141 68l-140 74q-75 37 -75 86t39 49q26 0 182 -123q155 -122 155 -135z" />
    <glyph glyph-name="Uacute" unicode="&#xda;" horiz-adv-x="1929" 
d="M1104 131q0 -172 115 -172q122 0 288 205l56 76q84 123 211 376l133 263q61 108 114 108q57 -26 33 -98q-23 -65 -57 -123q-157 -280 -209 -596q-14 -80 -14 -156q0 -141 75 -141h23q37 0 37 -16q0 -25 -45 -31h-25q-51 9 -84.5 45.5t-46 86.5t-16 90.5t-0.5 74.5
q0 123 26 244q-144 -240 -286 -355q-130 -106 -252 -106q-87 0 -133 55q-62 73 -61.5 185t63.5 292q72 204 168 414q105 226 137 358q32 117 32 228q0 150 -79 196q-94 52 -217 52q-216 0 -465 -144q-367 -215 -496 -543q-99 -251 -14 -456q86 -209 299 -209q250 0 399 254
q82 134 82 239q0 154 -139 154q-32 0 -84 -12q-45 -7 -45 2q7 18 61 41q56 24 111 24q83 0 127 -71q61 -107 -6 -285q-76 -204 -267 -320q-137 -85 -266 -86t-225 76q-168 128 -168 391q0 262 201 516q166 206 434 353q235 131 454 131q113 0 213 -41q199 -85 199 -330
q0 -182 -117 -452q-81 -190 -131 -293q-63 -135 -103 -269.5t-40 -224.5zM1706 1419q-2 0 -7 4t-5 9q0 6 4 14q2 5 57 47q68 49 119 84q19 14 43.5 31.5t35.5 25.5t24.5 16.5t23.5 11.5t20 3q48 0 63 -19.5t3 -43.5q-10 -26 -184 -105q-179 -78 -197 -78z" />
    <glyph glyph-name="Ucircumflex" unicode="&#xdb;" horiz-adv-x="1929" 
d="M1104 131q0 -172 115 -172q122 0 288 205l56 76q84 123 211 376l133 263q61 108 114 108q57 -26 33 -98q-23 -65 -57 -123q-157 -280 -209 -596q-14 -80 -14 -156q0 -141 75 -141h23q37 0 37 -16q0 -25 -45 -31h-25q-51 9 -84.5 45.5t-46 86.5t-16 90.5t-0.5 74.5
q0 123 26 244q-144 -240 -286 -355q-130 -106 -252 -106q-87 0 -133 55q-62 73 -61.5 185t63.5 292q72 204 168 414q105 226 137 358q32 117 32 228q0 150 -79 196q-94 52 -217 52q-216 0 -465 -144q-367 -215 -496 -543q-99 -251 -14 -456q86 -209 299 -209q250 0 399 254
q82 134 82 239q0 154 -139 154q-32 0 -84 -12q-45 -7 -45 2q7 18 61 41q56 24 111 24q83 0 127 -71q61 -107 -6 -285q-76 -204 -267 -320q-137 -85 -266 -86t-225 76q-168 128 -168 391q0 262 201 516q166 206 434 353q235 131 454 131q113 0 213 -41q199 -85 199 -330
q0 -182 -117 -452q-81 -190 -131 -293q-63 -135 -103 -269.5t-40 -224.5zM1978 1663l-270 -145q-31 -21 -52 -10q-11 6 -1 9q1 1 2 1l305 217q75 12 78 0l74 -217q2 -2 2 -9q0 -3 -9 -4t-19.5 2.5t-14.5 10.5z" />
    <glyph glyph-name="Udieresis" unicode="&#xdc;" horiz-adv-x="1929" 
d="M2021 987q41 -21 41 -59q0 -51 -51 -137q-171 -307 -223 -621q-14 -80 -14 -156q0 -141 75 -141h23q37 0 37 -16q0 -25 -45 -31h-25q-51 9 -84.5 45.5t-46 86.5t-16 90.5t-0.5 74.5q0 123 26 244q-144 -240 -286 -355q-130 -106 -252 -106q-87 0 -133 55
q-62 73 -61.5 185t63.5 292q72 204 168 414q105 226 137 358q32 117 32 228q0 150 -79 196q-94 52 -217 52q-216 0 -465 -144q-367 -215 -496 -543q-99 -251 -14 -456q86 -209 299 -209q250 0 399 254q82 134 82 239q0 154 -139 154q-32 0 -84 -12q-45 -7 -45 2q7 18 61 41
q56 24 111 24q83 0 127 -71q61 -107 -6 -285q-76 -204 -267 -320q-137 -85 -266 -86t-225 76q-168 128 -168 391q0 262 201 516q166 206 434 353q235 131 454 131q113 0 213 -41q199 -85 199 -330q0 -182 -117 -452q-81 -190 -131 -293q-63 -135 -103 -269.5t-40 -224.5
q0 -172 115 -172q122 0 288 205l56 76q84 123 211 376l133 263q61 108 114 108zM1970 1540q42 0 60 -34t1 -67.5t-59 -33.5q-41 -4 -58.5 31.5t-0.5 71t57 32.5zM1706 1540q26 0 43.5 -14t22 -34t0.5 -39.5t-21 -33.5t-43 -14q-41 -4 -58.5 31.5t-0.5 71t57 32.5z" />
    <glyph glyph-name="Yacute" unicode="&#xdd;" horiz-adv-x="2060" 
d="M2013 989q19 0 28 -14t9 -48.5t-10 -90.5t-31 -144q-46 -198 -139 -471q-98 -296 -203 -483q9 1 24 1.5t40.5 1t44.5 1.5l129 4q57 2 126.5 14t110.5 31q110 53 127 152q-5 31 6 30q6 0 9 -8q16 -22 13.5 -56.5t-32.5 -84.5q-33 -53 -129 -94q-98 -42 -500 -45
q-96 -145 -246 -259t-321 -178q-275 -103 -479 -36q-154 53 -154 155q0 136 248 238q314 131 885 131q203 502 280 792q-188 -404 -415 -557q-71 -48 -143.5 -68.5t-131.5 -11.5t-105 37.5t-70.5 79t-20.5 111.5q0 224 303 717q88 142 151 311q66 180 66 299
q0 118 -76.5 174.5t-200.5 56.5q-38 0 -96 -10q-368 -70 -666 -383q-147 -153 -219 -323q-71 -180 -71 -306q0 -55 14 -98q40 -149 162 -205q59 -26 127 -26q229 0 387 254q90 146 90 254q0 141 -127 141q-9 0 -22.5 -2t-25 -3.5t-23 -2.5t-18 0t-7.5 6q-3 16 47 28
q54 13 94 13q105 0 143 -90q17 -46 17 -84q0 -90 -64 -209q-125 -227 -366 -328q-76 -31 -136 -31q-197 0 -311 144q-64 79 -86 178t-4.5 201.5t68.5 208.5q75 154 198 285.5t261 221.5t292 150q298 116 537 22q103 -47 150.5 -127.5t47.5 -179.5q0 -233 -169 -514
q-265 -453 -320 -700q-6 -33 -6 -66.5t8 -70t36.5 -59.5t74.5 -23q82 0 182 71q116 82 233 269q194 311 293 637q5 29 34.5 49t47.5 20zM547 -653q0 -20 8 -33q43 -70 197 -70q161 0 295 51q147 53 278.5 154t214.5 236q-539 0 -823 -166q-170 -99 -170 -172zM1786 1317
q-3 0 -7.5 3.5t-4.5 8.5q0 6 4 14q3 7 57 48q68 49 119 84q19 14 43.5 31.5t35.5 25.5t24.5 16.5t23.5 11.5t20 3q48 0 63 -20t3 -44q-9 -24 -185 -104q-179 -78 -196 -78z" />
    <glyph glyph-name="Thorn" unicode="&#xde;" horiz-adv-x="688" 
d="M1163 1018q35 -62 35 -105q0 -115 -94 -231q-95 -116 -266.5 -187t-388.5 -71q-32 0 -46 2l-153 -313q-52 -107 -111 -107h-30q-1 0 -36.5 5.5t-49.5 4.5q36 33 184 293q150 267 215 402q157 335 244 635q93 321 90 395q6 -9 42 -18t40 -13q40 -36 43 -78t-19 -96
l-110 -279q139 -24 250 -87t161 -152zM1087 905q0 157 -135 240q-70 38 -215 74l-102 -279q-115 -296 -148 -340l-65 -133q164 5 284.5 43t215.5 119q89 74 127 147.5t38 128.5z" />
    <glyph glyph-name="germandbls" unicode="&#xdf;" horiz-adv-x="894" 
d="M662 39l36 -4q81 0 162 96q41 49 154 268q4 11 14 11q19 3 19 -15q-7 -20 -54 -119q-4 -7 -15.5 -29t-16.5 -30.5t-15.5 -26.5t-18 -28.5t-18.5 -24.5t-22 -26l-43 -45q-35 -35 -82 -50q-79 -25 -148 -4q-44 -20 -84 -20q-146 0 -176 114q-19 84 19 138q24 32 56 38
t54.5 -13t22.5 -52v-14q0 -50 23.5 -90.5t62.5 -59.5q90 72 90 219q0 49 -35 174q-43 148 -43 187q0 83 58 141q12 12 47.5 44.5t69.5 66t59 63.5q39 47 60.5 112.5t21.5 113.5q0 145 -115 186q-35 12 -68 12q-66 0 -143 -65q-71 -62 -119 -193q-38 -102 -137 -405
q-93 -285 -150 -443q-57 -159 -141 -344q-82 -181 -176 -291q-93 -110 -225 -200q-144 -99 -281 -99q-175 0 -184 136v10q0 56 39 100.5t90 44.5q45 0 71.5 -25.5t26.5 -50.5q-1 -44 -21 -75t-47.5 -41.5t-56.5 -6.5t-47 23q21 -59 119 -59q24 0 45 6q185 47 331.5 225
t282.5 522q33 83 115 299q77 208 291 727q83 161 176 224q99 65 264 6q79 -28 113.5 -84.5t34.5 -141.5q0 -178 -187 -307q-39 -25 -60.5 -40.5t-53 -45t-44 -55t-13 -60.5t21.5 -71q135 -215 135 -320q0 -60 -41.5 -125.5t-103.5 -107.5zM438 109q0 -17 2 -27
q15 -55 76 -55q28 0 41 8q-76 46 -82 153q-37 -37 -37 -79z" />
    <glyph glyph-name="agrave" unicode="&#xe0;" horiz-adv-x="716" 
d="M571 49q37 0 97 72q88 112 166 272q9 18 18 21q16 6 16 -13q0 -9 -6 -24q-188 -381 -317 -381q-59 0 -96 57q-38 62 2 207q-163 -264 -283 -264q-33 0 -59 20q-62 44 -62 148q0 203 174 407q101 116 242 150q45 10 74 10q94 0 159 -65q20 -23 12 -44t-34 -16
q-21 74 -99 74q-87 0 -217 -139q-71 -80 -137 -193q-31 -52 -50 -98.5t-25 -81.5t-3 -61t16.5 -39t33.5 -13q122 0 321 377q39 77 66 104t67 27q3 0 23.5 -3.5t37 -5t31.5 0.5q-37 -37 -104 -168q-66 -127 -82 -194q-15 -63 -12.5 -103.5t30.5 -40.5zM659 788q0 -18 -20 -18
q-11 0 -141 68l-140 73q-75 37 -75 86q0 50 39 50q26 0 182 -123q155 -122 155 -136z" />
    <glyph glyph-name="aacute" unicode="&#xe1;" horiz-adv-x="716" 
d="M571 49q37 0 97 72q88 112 166 272q9 18 18 21q16 6 16 -13q0 -9 -6 -24q-188 -381 -317 -381q-59 0 -96 57q-38 62 2 207q-163 -264 -283 -264q-33 0 -59 20q-62 44 -62 148q0 203 174 407q101 116 242 150q45 10 74 10q94 0 159 -65q20 -23 12 -44t-34 -16
q-21 74 -99 74q-87 0 -217 -139q-71 -80 -137 -193q-31 -52 -50 -98.5t-25 -81.5t-3 -61t16.5 -39t33.5 -13q122 0 321 377q39 77 66 104t67 27q3 0 23.5 -3.5t37 -5t31.5 0.5q-37 -37 -104 -168q-66 -127 -82 -194q-15 -63 -12.5 -103.5t30.5 -40.5zM463 770q-3 0 -7.5 3.5
t-4.5 8.5q0 7 4 15q2 5 57 47q68 49 119 84q19 14 43.5 31.5t35.5 25.5t24.5 16.5t23.5 11.5t20 3q48 0 63 -20t3 -44q-9 -24 -185 -104q-179 -78 -196 -78z" />
    <glyph glyph-name="acircumflex" unicode="&#xe2;" horiz-adv-x="716" 
d="M571 49q37 0 97 72q88 112 166 272q9 18 18 21q16 6 16 -13q0 -9 -6 -24q-188 -381 -317 -381q-59 0 -96 57q-38 62 2 207q-163 -264 -283 -264q-33 0 -59 20q-62 44 -62 148q0 203 174 407q101 116 242 150q45 10 74 10q94 0 159 -65q20 -23 12 -44t-34 -16
q-21 74 -99 74q-87 0 -217 -139q-71 -80 -137 -193q-31 -52 -50 -98.5t-25 -81.5t-3 -61t16.5 -39t33.5 -13q122 0 321 377q39 77 66 104t67 27q3 0 23.5 -3.5t37 -5t31.5 0.5q-37 -37 -104 -168q-66 -127 -82 -194q-15 -63 -12.5 -103.5t30.5 -40.5zM674 928l-271 -146
q-31 -21 -52 -10q-11 6 -1 9q1 1 2 1l305 217q78 10 78 0l74 -217q11 -3 1 -9q-18 -12 -40 7l-2 2z" />
    <glyph glyph-name="atilde" unicode="&#xe3;" horiz-adv-x="716" 
d="M571 49q37 0 97 72q88 112 166 272q11 27 24 23q15 -5 6 -34q-1 -2 -2 -5q-188 -381 -317 -381q-59 0 -96 57q-38 62 2 207q-163 -264 -283 -264q-33 0 -59 20q-62 44 -62 148q0 203 174 407q101 116 242 150q45 10 74 10q94 0 159 -65q20 -23 12 -44t-34 -16
q-21 74 -99 74q-87 0 -217 -139q-71 -80 -137 -193q-31 -52 -50 -98.5t-25 -81.5t-3 -61t16.5 -39t33.5 -13q122 0 321 377q39 77 66 104t67 27q3 0 23.5 -3.5t37 -5t31.5 0.5q-37 -37 -104 -168q-66 -127 -82 -194q-15 -63 -12.5 -103.5t30.5 -40.5zM737 786q-47 0 -131 37
q-95 46 -147.5 43t-87.5 -67q-3 -13 -37 -4q-10 3 -10 8q86 153 188 153q51 0 133 -36q82 -33 109 -37h32q64 0 99 71q3 7 12 7q27 0 31 -11q-80 -164 -191 -164z" />
    <glyph glyph-name="adieresis" unicode="&#xe4;" horiz-adv-x="716" 
d="M571 49q37 0 97 72q88 112 166 272q9 18 18 21q16 6 16 -13q0 -9 -6 -24q-188 -381 -317 -381q-59 0 -96 57q-38 62 2 207q-163 -264 -283 -264q-33 0 -59 20q-62 44 -62 148q0 203 174 407q101 116 242 150q45 10 74 10q94 0 159 -65q20 -23 12 -44t-34 -16
q-21 74 -99 74q-87 0 -217 -139q-71 -80 -137 -193q-31 -52 -50 -98.5t-25 -81.5t-3 -61t16.5 -39t33.5 -13q122 0 321 377q39 77 66 104t67 27q3 0 23.5 -3.5t37 -5t31.5 0.5q-37 -37 -104 -168q-66 -127 -82 -194q-15 -63 -12.5 -103.5t30.5 -40.5zM770 1008
q43 0 60.5 -34t0.5 -68t-59 -34q-41 -4 -58.5 31.5t-0.5 71.5t57 33zM506 1008q42 0 60 -34t1.5 -68t-59.5 -34q-41 -4 -58.5 31.5t-0.5 71.5t57 33z" />
    <glyph glyph-name="aring" unicode="&#xe5;" horiz-adv-x="716" 
d="M571 49q37 0 97 72q88 112 166 272q9 18 18 21q16 6 16 -13q0 -9 -6 -24q-188 -381 -317 -381q-59 0 -96 57q-38 62 2 207q-163 -264 -283 -264q-33 0 -59 20q-62 44 -62 148q0 203 174 407q101 116 242 150q45 10 74 10q94 0 159 -65q20 -23 12 -44t-34 -16
q-21 74 -99 74q-87 0 -217 -139q-71 -80 -137 -193q-31 -52 -50 -98.5t-25 -81.5t-3 -61t16.5 -39t33.5 -13q122 0 321 377q39 77 66 104t67 27q3 0 23.5 -3.5t37 -5t31.5 0.5q-37 -37 -104 -168q-66 -127 -82 -194q-15 -63 -12.5 -103.5t30.5 -40.5zM700 1010q6 52 -34 68
q-35 13 -66 -13q-26 -22 -27 -59q-2 -32 15 -54t43 -22t45 23.5t24 56.5zM729 932q-54 -37 -106.5 -37t-89 28.5t-31.5 65.5q0 55 45 88q52 37 107.5 38.5t86.5 -28.5q34 -28 32.5 -74.5t-44.5 -80.5z" />
    <glyph glyph-name="ae" unicode="&#xe6;" horiz-adv-x="892" 
d="M600 315q-31 -64 -35 -128t23 -107t80 -45q188 0 338 350q14 32 34 29q9 -3 9 -11q0 -3 -48 -108q-48 -101 -92 -160q-104 -143 -258 -143q-68 0 -121 39q-81 57 -81 180q0 33 2 49q-163 -264 -283 -264q-33 0 -59 20q-62 44 -62 148q0 203 174 407q101 116 242 150
q45 10 74 10q94 0 159 -65l6 -9q103 74 179 74q46 0 82 -26q34 -27 34 -66q0 -119 -147 -233q-54 -40 -127 -64q-79 -27 -123 -27zM666 627q-24 53 -88 53q-93 0 -220 -139q-71 -80 -137 -193q-31 -52 -50 -98.5t-25 -81.5t-3 -61t16.5 -39t33.5 -13q122 0 321 377
q55 108 152 195zM942 643q0 41 -33 41q-57 0 -174 -141q-18 -22 -76 -107l-43 -86q41 2 104 26.5t109 63.5q113 94 113 203z" />
    <glyph glyph-name="ccedilla" unicode="&#xe7;" horiz-adv-x="532" 
d="M494 471q46 55 62.5 103.5t4.5 75t-45 26.5q-96 0 -219 -176q-34 -46 -76 -146q-37 -87 -37 -164q0 -74 30.5 -117.5t90.5 -43.5q125 0 217 123q51 67 74 108q30 55 68 129q15 33 29 21q5 -5 5 -13q0 -9 -26 -65q-59 -124 -127 -213q-82 -113 -228 -125l5 -8l-27 -19
q-64 -43 -64 -53q135 21 246 -33q78 -41 78 -119q0 -84 -106 -153q-53 -35 -138 -35q-84 0 -182 25q-94 21 -94 69q0 29 31 3q6 -5 12 -11q48 -51 186 -51q140 0 187 74q20 29 26.5 60t-4.5 60.5t-41 49.5q-93 61 -203 6q-47 -24 -57 -25.5t-20 10.5q-13 10 -13 21
q0 7 17 31q25 25 131 96h-2q-109 0 -162 53t-53 133q0 90 43 197q50 116 102 184q119 162 274 162q71 0 107.5 -34t36.5 -85q0 -70 -58 -119q-49 -44 -81 -12z" />
    <glyph glyph-name="egrave" unicode="&#xe8;" horiz-adv-x="503" 
d="M207 315q-29 -76 -29 -155q0 -58 25.5 -91.5t72.5 -33.5q188 0 338 350q14 32 35 29q8 -3 8 -11q0 -5 -47 -108q-48 -101 -92 -160q-104 -143 -258 -143q-84 0 -140.5 54t-56.5 144q0 140 99 300t239 219q100 43 170 -4q35 -27 35 -64q0 -121 -147 -235q-54 -40 -127 -64
q-82 -27 -125 -27zM551 643q0 41 -33 41q-57 0 -174 -141q-71 -86 -123 -193q39 0 105 25.5t112 64.5q113 94 113 203zM588 788q0 -18 -21 -18q-11 0 -141 68l-139 73q-76 40 -76 86q0 50 39 50q26 0 182 -123t156 -136z" />
    <glyph glyph-name="eacute" unicode="&#xe9;" horiz-adv-x="503" 
d="M207 315q-29 -76 -29 -155q0 -58 25.5 -91.5t72.5 -33.5q188 0 338 350q14 32 35 29q11 -6 2 -31q-83 -182 -133 -248q-104 -143 -258 -143q-84 0 -140.5 54t-56.5 144q0 140 99 300t239 219q100 43 170 -4q35 -27 35 -64q0 -121 -147 -235q-54 -40 -127 -64
q-82 -27 -125 -27zM551 643q0 41 -33 41q-57 0 -174 -141q-71 -86 -123 -193q39 0 105 25.5t112 64.5q113 94 113 203zM432 770q-3 0 -7.5 3.5t-4.5 8.5q0 7 4 15q2 5 57 47q68 49 119 84q19 13 43.5 31t35.5 26t25 16.5t24 11.5t20 3q48 0 62.5 -20t2.5 -44
q-9 -25 -184 -104q-179 -78 -197 -78z" />
    <glyph glyph-name="ecircumflex" unicode="&#xea;" horiz-adv-x="503" 
d="M207 315q-29 -76 -29 -155q0 -58 25.5 -91.5t72.5 -33.5q188 0 338 350q14 32 35 29q11 -6 2 -31q-83 -182 -133 -248q-104 -143 -258 -143q-84 0 -140.5 54t-56.5 144q0 140 99 300t239 219q100 43 170 -4q35 -27 35 -64q0 -121 -147 -235q-54 -40 -127 -64
q-82 -27 -125 -27zM551 643q0 41 -33 41q-57 0 -174 -141q-71 -86 -123 -193q39 0 105 25.5t112 64.5q113 94 113 203zM612 928l-270 -146q-31 -21 -52 -10q-11 6 -1 9q1 1 2 1l305 217q78 10 78 0l74 -217q11 -3 1 -9q-18 -12 -40 7l-2 2z" />
    <glyph glyph-name="edieresis" unicode="&#xeb;" horiz-adv-x="503" 
d="M207 315q-29 -76 -29 -155q0 -58 25.5 -91.5t72.5 -33.5q188 0 338 350q14 32 35 29q11 -6 2 -31q-83 -182 -133 -248q-104 -143 -258 -143q-84 0 -140.5 54t-56.5 144q0 140 99 300t239 219q100 43 170 -4q35 -27 35 -64q0 -121 -147 -235q-54 -40 -127 -64
q-82 -27 -125 -27zM551 643q0 41 -33 41q-57 0 -174 -141q-71 -86 -123 -193q39 0 105 25.5t112 64.5q113 94 113 203zM659 969q26 0 43.5 -14t22 -33.5t1 -39.5t-20.5 -34t-43 -14q-41 -4 -59 31.5t-1 71t57 32.5zM395 969q26 0 43.5 -14t22 -33.5t0.5 -39.5t-21 -34
t-43 -14q-41 -4 -58.5 31.5t-0.5 71t57 32.5z" />
    <glyph glyph-name="igrave" unicode="&#xec;" horiz-adv-x="344" 
d="M51 266l178 340q41 78 52 86q13 13 59 13h104l-20 -17q-38 -24 -55 -57q-158 -258 -213 -398q-37 -78 -37 -131q0 -57 65 -57l80 39q83 80 193 309q16 31 28 19q5 -4 6.5 -7.5t-2.5 -17t-16 -37.5l-31 -61q-21 -42 -51 -92q-40 -72 -67 -103q-85 -94 -177 -94
q-59 0 -93 45.5t-32 104.5t29 116zM485 788q0 -18 -20 -18q-11 0 -141 68l-140 73q-75 37 -75 86q0 50 38 50q27 0 183 -123q155 -122 155 -136z" />
    <glyph glyph-name="iacute" unicode="&#xed;" horiz-adv-x="344" 
d="M51 266l178 340q41 78 52 86q13 13 59 13h104l-20 -17q-38 -24 -55 -57q-158 -258 -213 -398q-37 -78 -37 -131q0 -57 65 -57l80 39q83 80 193 309q15 27 27 21q14 -7 -4 -48q-2 -5 -5 -10l-33 -67q-21 -42 -51 -92q-40 -72 -67 -103q-85 -94 -177 -94q-59 0 -93 45.5
t-32 104.5t29 116zM328 770q-3 0 -8 3.5t-5 8.5q0 7 4 15q2 4 58 47q68 49 119 84q19 14 43.5 31.5t35.5 25.5t24.5 16.5t23.5 11.5t20 3q48 0 63 -20t3 -44q-9 -24 -185 -104q-179 -78 -196 -78z" />
    <glyph glyph-name="icircumflex" unicode="&#xee;" horiz-adv-x="344" 
d="M51 266l178 340q41 78 52 86q13 13 59 13h104l-20 -17q-38 -24 -55 -57q-158 -258 -213 -398q-37 -78 -37 -131q0 -57 65 -57l80 39q83 80 193 309q15 27 27 21q14 -7 -4 -48q-2 -5 -5 -10l-33 -67q-21 -42 -51 -92q-40 -72 -67 -103q-85 -94 -177 -94q-59 0 -93 45.5
t-32 104.5t29 116zM504 928l-271 -146q-31 -21 -52 -10q-11 6 -1 9q1 1 2 1l305 217q78 10 78 0l74 -217q11 -3 1 -9q-18 -12 -40 7l-2 2z" />
    <glyph glyph-name="idieresis" unicode="&#xef;" horiz-adv-x="344" 
d="M51 266l178 340q41 78 52 86q13 13 59 13h104l-20 -17q-38 -24 -55 -57q-158 -258 -213 -398q-37 -78 -37 -131q0 -57 65 -57l80 39q83 80 193 309q15 27 27 21q14 -7 -4 -48q-2 -5 -5 -10l-33 -67q-21 -42 -51 -92q-40 -72 -67 -103q-85 -94 -177 -94q-59 0 -93 45.5
t-32 104.5t29 116zM549 946q26 0 43.5 -14t22 -34t0.5 -39.5t-21 -33.5t-43 -14q-41 -4 -58.5 31.5t-0.5 71t57 32.5zM285 946q26 0 43.5 -14t22 -34t0.5 -39.5t-21 -33.5t-43 -14q-41 -4 -58.5 31.5t-0.5 71t57 32.5z" />
    <glyph glyph-name="eth" unicode="&#xf0;" horiz-adv-x="794" 
d="M291 1225l-74 -8q-22 0 -22 14q0 43 133 43q134 0 227 -96l160 86q33 17 51 -4q0 -3 3 -10t-0.5 -10t-20.5 -17t-52 -36t-100 -63q90 -134 90 -354q0 -294 -145 -545q-84 -142 -201 -202q-62 -33 -135 -33q-63 0 -97 56.5t-34 135.5q0 208 172 367q116 110 233 110
q53 0 82 -30.5t29 -85.5v-31q22 107 22 193q0 209 -92 366q-14 -9 -90 -65l-65 -48q-8 -6 -30.5 10.5t-30.5 38t15 40.5l156 86q-77 92 -184 92zM508 328q53 95 53 202q0 109 -72 109q-79 0 -165 -115q-160 -213 -160 -428q0 -82 57 -82q117 0 287 314z" />
    <glyph glyph-name="ntilde" unicode="&#xf1;" 
d="M735 672q-252 -443 -252 -578q0 -53 39 -53q106 0 281 354q11 27 25 22q15 -6 6 -34q-2 -3 -3 -6q-112 -225 -184 -303q-47 -52 -99.5 -71t-94.5 -6t-68 52q-20 26 -20 72q0 51 20 112q21 66 113 213q22 39 22 58q0 22 -35 22q-33 0 -133 -92q-145 -133 -284 -405
q-11 -20 -29 -27q-16 -3 -59 -6q-49 -3 -60 -10q31 58 129 268q170 355 225 410q24 24 68 24q3 0 23.5 -3.5t37 -5t31.5 0.5q-74 -39 -248 -385q79 101 174 188q84 75 191 131q112 62 162 62q10 0 22 -4zM705 838q-50 0 -132 36q-95 46 -147.5 43t-87.5 -67q-3 -13 -37 -4
q-10 3 -10 8q86 154 188 154q49 0 133 -37q82 -33 109 -37h33q63 0 98 72q3 6 12 6q27 0 31 -11q-79 -163 -190 -163z" />
    <glyph glyph-name="ograve" unicode="&#xf2;" 
d="M489 717q150 0 150 -189q0 -88 -45 -184q-60 -136 -172 -242q26 -51 96 -51q56 0 105 55q17 17 32 34.5t26.5 33.5t20.5 29t17.5 28t12.5 22.5t10.5 20.5l7.5 15q9 16 30 63q6 13 15 32q9 21 12.5 25.5t11.5 4.5q21 3 21 -15q0 -2 -4 -14l-13 -29l-18 -41
q-40 -80 -49 -94q-38 -67 -66 -98q-36 -50 -80 -76q-54 -31 -96 -31q-83 0 -131 54q-94 -70 -174 -70q-150 0 -150 188q0 89 45 185q60 140 172 243q113 101 213 101zM512 653q-58 0 -133 -75t-133 -199q-72 -148 -72 -242t72 -94q50 0 114 55q-32 43 -32 101q3 88 71 88
q30 0 45.5 -16.5t14.5 -35.5t-2 -32q34 52 80 145q51 102 51 205q0 100 -76 100zM631 788q0 -18 -21 -18q-11 0 -141 68l-139 73q-76 37 -76 86q0 50 39 50q26 0 182 -123t156 -136z" />
    <glyph glyph-name="oacute" unicode="&#xf3;" 
d="M489 717q150 0 150 -189q0 -88 -45 -184q-60 -136 -172 -242q26 -51 96 -51q56 0 105 55q60 63 88 111q53 101 69 135q6 13 15 32q9 21 12.5 25.5t11.5 4.5q12 2 17.5 -7t-0.5 -22l-13 -29l-18 -41q-40 -80 -49 -94q-38 -67 -66 -98q-36 -50 -80 -76q-54 -31 -96 -31
q-83 0 -131 54q-94 -70 -174 -70q-150 0 -150 188q0 89 45 185q60 140 172 243q113 101 213 101zM512 653q-58 0 -133 -75t-133 -199q-72 -148 -72 -242t72 -94q50 0 114 55q-32 43 -32 101q3 88 71 88q30 0 45.5 -16.5t14.5 -35.5t-2 -32q34 52 80 145q51 102 51 205
q0 100 -76 100zM424 770q-3 0 -7.5 3.5t-4.5 8.5q0 7 4 15q2 5 57 47q68 49 119 84q19 14 43.5 31.5t35.5 25.5t24.5 16.5t23.5 11.5t20 3q48 0 63 -20t3 -44q-9 -25 -184 -104q-179 -78 -197 -78z" />
    <glyph glyph-name="ocircumflex" unicode="&#xf4;" 
d="M489 717q150 0 150 -189q0 -88 -45 -184q-60 -136 -172 -242q26 -51 96 -51q56 0 105 55q17 17 32 34.5t26.5 33.5t20.5 29t17.5 28t12.5 22.5t10.5 20.5l7.5 15q9 16 30 63q6 13 15 32q9 21 12.5 25.5t11.5 4.5q21 3 21 -15q0 -2 -4 -14l-13 -29l-18 -41
q-40 -80 -49 -94q-38 -67 -66 -98q-36 -50 -80 -76q-54 -31 -96 -31q-83 0 -131 54q-94 -70 -174 -70q-150 0 -150 188q0 89 45 185q60 140 172 243q113 101 213 101zM512 653q-58 0 -133 -75t-133 -199q-72 -148 -72 -242t72 -94q50 0 114 55q-32 43 -32 101q3 88 71 88
q30 0 45.5 -16.5t14.5 -35.5t-2 -32q34 52 80 145q51 102 51 205q0 100 -76 100zM618 928l-270 -146q-31 -21 -52 -10q-11 6 -1 9q1 1 2 1l305 217q75 9 78 0l74 -217q11 -3 1 -9q-18 -12 -40 7l-2 2z" />
    <glyph glyph-name="otilde" unicode="&#xf5;" 
d="M489 717q150 0 150 -189q0 -88 -45 -184q-60 -136 -172 -242q26 -51 96 -51q56 0 105 55q60 63 88 111q53 101 69 135q6 13 15 32q9 21 12.5 25.5t11.5 4.5q12 2 17.5 -7t-0.5 -22l-13 -29l-18 -41q-40 -80 -49 -94q-38 -67 -66 -98q-36 -50 -80 -76q-54 -31 -96 -31
q-83 0 -131 54q-94 -70 -174 -70q-150 0 -150 188q0 89 45 185q60 140 172 243q113 101 213 101zM512 653q-58 0 -133 -75t-133 -199q-72 -148 -72 -242t72 -94q50 0 114 55q-32 43 -32 101q3 88 71 88q30 0 45.5 -16.5t14.5 -35.5t-2 -32q34 52 80 145q51 102 51 205
q0 100 -76 100zM682 786q-47 0 -131 37q-95 46 -148 43t-88 -67q-3 -13 -36 -4q-11 4 -11 8q86 153 189 153q51 0 133 -36q83 -33 108 -37h33q63 0 98 71q3 7 13 7q26 0 30 -11q-80 -164 -190 -164z" />
    <glyph glyph-name="odieresis" unicode="&#xf6;" 
d="M489 717q150 0 150 -189q0 -88 -45 -184q-60 -136 -172 -242q26 -51 96 -51q56 0 105 55q17 17 32 34.5t26.5 33.5t20.5 29t17.5 28t12.5 22.5t10.5 20.5l7.5 15q9 16 30 63q6 13 15 32q9 21 12.5 25.5t11.5 4.5q21 3 21 -15q0 -2 -4 -14l-13 -29l-18 -41
q-40 -80 -49 -94q-38 -67 -66 -98q-36 -50 -80 -76q-54 -31 -96 -31q-83 0 -131 54q-94 -70 -174 -70q-150 0 -150 188q0 89 45 185q60 140 172 243q113 101 213 101zM512 653q-58 0 -133 -75t-133 -199q-72 -148 -72 -242t72 -94q50 0 114 55q-32 43 -32 101q3 88 71 88
q30 0 45.5 -16.5t14.5 -35.5t-2 -32q34 52 80 145q51 102 51 205q0 100 -76 100zM729 1004q26 0 43.5 -14t22 -34t0.5 -40t-21 -34t-43 -14q-41 -4 -58.5 31.5t-0.5 71.5t57 33zM465 1004q26 0 43.5 -14t22 -34t0.5 -40t-21 -34t-43 -14q-41 -4 -58.5 31.5t-0.5 71.5t57 33z
" />
    <glyph glyph-name="divide" unicode="&#xf7;" horiz-adv-x="821" 
d="M436 514q4 35 33.5 59.5t65.5 24.5q35 0 55 -24.5t14 -59.5t-34.5 -59.5t-63.5 -24.5t-55.5 24.5t-14.5 59.5zM481 -4q-29 -25 -64 -25t-55 25t-14 59.5t35 59.5t64 25t55 -25q21 -24 15 -59.5t-36 -59.5zM842 342v-37l-4 -2h-705l-2 2v37l2 2h705z" />
    <glyph glyph-name="oslash" unicode="&#xf8;" 
d="M102 -94l58 100q-101 30 -101 178q0 93 45 189q60 140 172 243q113 101 213 101q37 0 64 -15l51 91l39 -19l-55 -94q48 -46 50 -140t-53.5 -215.5t-162.5 -222.5q26 -51 96 -51q56 0 105 55q17 17 32 34.5t26.5 33.5t20.5 29t17.5 28t12.5 22.5t10.5 20.5l7.5 15
q9 16 30 63q6 13 15 32q9 21 12.5 25.5t11.5 4.5q21 3 21 -15q0 -2 -4 -14l-13 -29l-18 -41q-40 -80 -49 -94q-38 -67 -66 -98q-36 -50 -80 -76q-54 -31 -96 -31q-83 0 -131 54q-94 -70 -174 -70h-4h-2l-64 -111zM193 66l331 585h-12q-62 0 -136.5 -77.5t-139.5 -213.5
q-64 -137 -64 -202t21 -92zM457 203q129 191 129 364q0 38 -25 66l-203 -359q13 13 40.5 12.5t43.5 -18.5q17 -17 19 -33.5t-4 -31.5zM328 199v22l-101 -176h15q50 0 118 53q-32 43 -32 101z" />
    <glyph glyph-name="ugrave" unicode="&#xf9;" horiz-adv-x="731" 
d="M45 119q0 88 76 213q-33 0 -19 33l37 71q3 6 115 226q21 43 80 43h125q-72 -52 -150 -207q-63 -129 -114 -240q-23 -49 -33 -87.5t-9 -61.5t10 -38t21 -20.5t27 -5.5q38 0 108 82q110 129 306 535q21 43 80 43h110q-43 -32 -72 -72q-20 -31 -69 -131q-121 -242 -137 -326
q-7 -32 -7 -53q0 -67 45 -70q109 0 273 342q13 29 24 23q13 -4 12.5 -16.5t-18.5 -47.5l-37 -71q-15 -35 -53 -97q-35 -60 -65 -94q-51 -58 -105.5 -79t-95.5 -4.5t-61 61.5q-28 72 8 194q-151 -262 -277 -262q-111 0 -129 92q-6 9 -6 25zM657 788q0 -18 -20 -18
q-11 0 -141 68l-140 73q-75 40 -75 86q0 50 38 50q27 0 183 -123q155 -122 155 -136z" />
    <glyph glyph-name="uacute" unicode="&#xfa;" horiz-adv-x="731" 
d="M45 119q0 88 76 213q-33 0 -19 33l37 71q3 6 115 226q21 43 80 43h125q-72 -52 -150 -207q-63 -129 -114 -240q-23 -49 -33 -87.5t-9 -61.5t10 -38t21 -20.5t27 -5.5q38 0 108 82q110 129 306 535q21 43 80 43h110q-43 -32 -72 -72q-20 -31 -69 -131q-121 -242 -137 -326
q-7 -32 -7 -53q0 -67 45 -70q109 0 273 342q10 25 24 22q16 -4 4 -36q-3 -9 -8 -19q-14 -32 -39 -79q-15 -35 -53 -97q-35 -60 -65 -94q-51 -58 -105.5 -79t-95.5 -4.5t-61 61.5q-28 72 8 194q-151 -262 -277 -262q-111 0 -129 92q-6 9 -6 25zM502 770q-3 0 -8 3.5t-5 8.5
t5 15q2 5 57 47q68 49 119 84q19 14 43.5 31.5t35.5 25.5t24.5 16.5t23.5 11.5t20 3q48 0 63 -20t3 -44q-9 -24 -185 -104q-179 -78 -196 -78z" />
    <glyph glyph-name="ucircumflex" unicode="&#xfb;" horiz-adv-x="731" 
d="M45 119q0 88 76 213q-33 0 -19 33l37 71q3 6 115 226q21 43 80 43h125q-72 -52 -150 -207q-63 -129 -114 -240q-23 -49 -33 -87.5t-9 -61.5t10 -38t21 -20.5t27 -5.5q38 0 108 82q110 129 306 535q21 43 80 43h110q-43 -32 -72 -72q-20 -31 -69 -131q-121 -242 -137 -326
q-7 -32 -7 -53q0 -67 45 -70q109 0 273 342q13 29 24 23q13 -4 12.5 -16.5t-18.5 -47.5l-37 -71q-15 -35 -53 -97q-35 -60 -65 -94q-51 -58 -105.5 -79t-95.5 -4.5t-61 61.5q-28 72 8 194q-151 -262 -277 -262q-111 0 -129 92q-6 9 -6 25zM668 928l-271 -146
q-31 -21 -52 -10q-11 6 -1 9q1 1 2 1l305 217q75 12 78 0l74 -217q11 -3 1 -9q-18 -12 -40 7l-2 2z" />
    <glyph glyph-name="udieresis" unicode="&#xfc;" horiz-adv-x="731" 
d="M45 119q0 88 76 213q-33 0 -19 33l37 71q3 6 115 226q21 43 80 43h125q-72 -52 -150 -207q-63 -129 -114 -240q-23 -49 -33 -87.5t-9 -61.5t10 -38t21 -20.5t27 -5.5q38 0 108 82q110 129 306 535q21 43 80 43h110q-43 -32 -72 -72q-20 -31 -69 -131q-121 -242 -137 -326
q-7 -32 -7 -53q0 -67 45 -70q109 0 273 342q13 29 24 23q13 -4 12.5 -16.5t-18.5 -47.5l-37 -71q-15 -35 -53 -97q-35 -60 -65 -94q-51 -58 -105.5 -79t-95.5 -4.5t-61 61.5q-28 72 8 194q-151 -262 -277 -262q-111 0 -129 92q-6 9 -6 25zM481 1044q26 0 43.5 -14t22 -34
t0.5 -39.5t-21 -33.5t-43 -14q-41 -4 -58.5 31.5t-0.5 71t57 32.5zM745 1044q43 0 61 -34t1 -67.5t-59 -33.5q-41 -4 -59 31.5t-1 71t57 32.5z" />
    <glyph glyph-name="yacute" unicode="&#xfd;" horiz-adv-x="817" 
d="M-166 -647q-68 1 -113 22.5t-62 56.5t-13 79t30 92q51 102 193 168q102 48 276 92q180 42 222 55q74 130 176 461q-124 -215 -199 -293q-81 -84 -162 -84q-111 0 -129 92q-4 8 -4 24.5t2 36t2 23.5q1 7 7 23t14 34t10 23q9 20 39 74q-33 0 -19 33l37 71q3 6 115 226
q21 43 80 43h125l-21 -17q-38 -24 -55 -57q-71 -122 -184 -363q-25 -55 -36 -95.5t-10.5 -63.5t10.5 -37.5t21 -19.5t27 -7q39 0 109 82q148 174 321 535q21 43 80 43h111q-50 -34 -80.5 -86.5t-71.5 -159.5l-90 -256q-15 -47 -31 -93.5t-30.5 -88t-20.5 -58.5
q192 58 295 203q52 71 129 225q16 28 24 23q13 -6 13 -17q0 -8 -35 -80q-71 -149 -158 -245q-53 -58 -117.5 -93.5t-185.5 -80.5q-156 -286 -317 -422q-150 -123 -324 -123zM-285 -444q-36 -70 -14 -116t92 -46q119 0 254 123q134 119 238 260l45 76q-348 -91 -426 -127
q-132 -58 -189 -170zM500 770q-3 0 -8 3.5t-5 8.5t5 15q2 5 57 47q68 49 119 84q19 14 43.5 31.5t35.5 25.5t24.5 16.5t23.5 11.5t20 3q48 0 63 -20t3 -44q-9 -24 -185 -104q-179 -78 -196 -78z" />
    <glyph glyph-name="thorn" unicode="&#xfe;" horiz-adv-x="788" 
d="M676 573q0 36 -14 62.5t-41 26.5q-72 0 -168 -134q-91 -127 -273 -465q69 -69 207 46q137 113 229 284q60 114 60 180zM645 717q11 0 27 -4q102 -27 102 -160q0 -90 -47 -199q-43 -101 -131 -209q-80 -99 -201 -137q-122 -33 -231 25l-238 -488q-52 -106 -110 -106h-29
q-2 0 -38 5.5t-50 4.5q37 34 184 295q150 263 215 399q151 322 258 684q110 372 107 445q6 -9 42 -18t40 -13q40 -36 43 -78t-19 -96l-258 -694q128 211 203 276q74 68 131 68z" />
    <glyph glyph-name="ydieresis" unicode="&#xff;" horiz-adv-x="817" 
d="M-166 -647q-68 1 -113 22.5t-62 56.5t-13 79t30 92q51 102 193 168q102 48 276 92q180 42 222 55q74 130 176 461q-124 -215 -199 -293q-81 -84 -162 -84q-111 0 -129 92q-4 8 -4 24.5t2 36t2 23.5q1 7 7 23t14 34t10 23q9 20 39 74q-33 0 -19 33l37 71q3 6 115 226
q21 43 80 43h125l-21 -17q-38 -24 -55 -57q-71 -122 -184 -363q-25 -55 -36 -95.5t-10.5 -63.5t10.5 -37.5t21 -19.5t27 -7q39 0 109 82q148 174 321 535q21 43 80 43h111q-50 -34 -80.5 -86.5t-71.5 -159.5l-90 -256q-15 -47 -31 -93.5t-30.5 -88t-20.5 -58.5
q192 58 295 203q52 71 129 225q16 28 24 23q13 -6 13 -17q0 -8 -35 -80q-71 -149 -158 -245q-53 -58 -117.5 -93.5t-185.5 -80.5q-156 -286 -317 -422q-150 -123 -324 -123zM-285 -444q-36 -70 -14 -116t92 -46q119 0 254 123q134 119 238 260l45 76q-348 -91 -426 -127
q-132 -58 -189 -170zM709 1018q26 0 43.5 -14t22 -34t0.5 -39.5t-21 -33.5t-43 -14q-41 -4 -58.5 31.5t-0.5 71t57 32.5zM444 1018q42 0 60 -34t1 -67.5t-59 -33.5q-41 -4 -58.5 31.5t-0.5 71t57 32.5z" />
    <glyph glyph-name="Amacron" unicode="&#x100;" horiz-adv-x="1458" 
d="M1360 911q47 0 47 -59q0 -65 -51 -119q-91 -105 -166 -252q-115 -233 -115 -413q0 -68 24.5 -103t59.5 -35q97 0 230 160q116 149 178 291q17 31 32.5 28.5t3.5 -32.5q0 -2 -1 -4q-81 -185 -191 -328q-38 -56 -98 -100t-121 -64.5t-117.5 -8t-85.5 61.5q-37 57 -40 150.5
t19.5 177.5t57.5 131q-201 -244 -440 -397q-120 -75 -273 -90q-72 -8 -129 22q-147 62 -147 299q0 239 156 518q85 152 180 261q-137 64 -205 141q-49 55 -49 133q0 76 31 98q21 26 36 11q7 -17 4.5 -29t-8.5 -34t-6 -34q0 -58 61.5 -124.5t172.5 -118.5q483 534 999 534
q160 0 256 -72t96 -188q0 -124 -139 -242q-67 -58 -199 -106q-195 -70 -469 -70q-271 0 -448 58q-211 -300 -285 -488q-78 -197 -78 -299q0 -29 2 -41q24 -170 172 -170q169 0 385 180q160 135 306 312q155 187 221 317q73 137 131 137zM1677 1348q0 89 -73 135
q-71 47 -199 47q-126 0 -254 -41q-122 -39 -236 -121q-105 -76 -189 -158.5t-187 -205.5q155 -50 376 -50q418 0 613 136q149 104 149 258zM1333 1741h436l-24 -62h-438z" />
    <glyph glyph-name="amacron" unicode="&#x101;" horiz-adv-x="716" 
d="M571 49q37 0 97 72q88 112 166 272q11 27 24 23q15 -5 6 -34q-1 -2 -2 -5q-188 -381 -317 -381q-59 0 -96 57q-38 62 2 207q-163 -264 -283 -264q-33 0 -59 20q-62 44 -62 148q0 203 174 407q101 116 242 150q45 10 74 10q94 0 159 -65q20 -23 12 -44t-34 -16
q-21 74 -99 74q-87 0 -217 -139q-71 -80 -137 -193q-31 -52 -50 -98.5t-25 -81.5t-3 -61t16.5 -39t33.5 -13q122 0 321 377q39 77 66 104t67 27q3 0 23.5 -3.5t37 -5t31.5 0.5q-37 -37 -104 -168q-66 -127 -82 -194q-15 -63 -12.5 -103.5t30.5 -40.5zM444 946h437l-25 -61
h-438z" />
    <glyph glyph-name="Abreve" unicode="&#x102;" horiz-adv-x="1458" 
d="M1726 1694q0 -63 -110 -133q-48 -30 -103 -41t-102.5 -4.5t-85.5 26.5q-70 34 -70 121q0 51 35 51q7 0 13 -13.5t16 -34t22 -32.5q51 -51 125 -51q69 0 109 16q37 17 55.5 33.5t50.5 59.5q21 27 41 12q4 -4 4 -10zM1294 829q45 0 45 -53q0 -57 -47 -110
q-147 -162 -205 -482q-25 -103 -4 -180.5t76 -73.5q97 0 230 160q116 149 178 291q17 31 32.5 28.5t3.5 -32.5q0 -2 -1 -4q-81 -185 -191 -328q-38 -56 -98 -100t-121 -64.5t-117.5 -8t-85.5 61.5q-37 57 -40 150.5t19.5 177.5t57.5 131q-201 -244 -440 -397
q-120 -75 -273 -90q-72 -8 -129 22q-141 59 -141 281q0 200 137 471q81 159 180 264q-131 61 -192 131q-47 50 -47 121q0 69 29 92q21 27 36 6q6 -13 -3 -44.5t-9 -43.5q0 -51 51 -102q66 -71 170 -119q201 218 444.5 340.5t501.5 122.5q153 0 242 -68q90 -66 90 -180
q0 -112 -145 -227q-195 -148 -617 -148q-238 0 -430 64q-52 -49 -135 -180q-86 -136 -145 -281q-58 -143 -58 -252q0 -29 2 -41q24 -170 172 -170q169 0 385 180q308 258 480 574q61 110 112 110zM1593 1231q0 79 -66.5 123.5t-178.5 44.5q-237 0 -438 -120t-398 -353
q177 -54 395 -54q365 0 547 123q139 95 139 236z" />
    <glyph glyph-name="abreve" unicode="&#x103;" horiz-adv-x="716" 
d="M571 49q37 0 97 72q88 112 166 272q11 27 24 23q15 -5 6 -34q-1 -2 -2 -5q-188 -381 -317 -381q-59 0 -96 57q-38 62 2 207q-163 -264 -283 -264q-33 0 -59 20q-62 44 -62 148q0 203 174 407q101 116 242 150q45 10 74 10q94 0 159 -65q20 -23 12 -44t-34 -16
q-21 74 -99 74q-87 0 -217 -139q-71 -80 -137 -193q-31 -52 -50 -98.5t-25 -81.5t-3 -61t16.5 -39t33.5 -13q122 0 321 377q39 77 66 104t67 27q3 0 23.5 -3.5t37 -5t31.5 0.5q-37 -37 -104 -168q-66 -127 -82 -194q-15 -63 -12.5 -103.5t30.5 -40.5zM909 950
q0 -64 -112 -133q-47 -30 -101.5 -41t-102.5 -4t-87 27q-68 35 -68 121q0 51 35 51q7 0 13 -13.5t16 -34t22 -32.5q51 -51 125 -51q69 0 109 16q37 17 55.5 33.5t50.5 58.5q21 27 41 13q4 -4 4 -11z" />
    <glyph glyph-name="Aogonek" unicode="&#x104;" horiz-adv-x="1458" 
d="M1360 911q47 0 47 -59q0 -65 -51 -119q-91 -105 -166 -252q-115 -233 -115 -413q0 -68 24.5 -103t59.5 -35q97 0 230 160q116 149 178 291q17 31 32.5 28.5t3.5 -32.5q0 -2 -1 -4q-81 -185 -191 -328q-26 -40 -80 -84v-14q-90 -72 -166 -170q-48 -63 -66.5 -117.5
t-5 -84.5t53.5 -30q42 0 104 62q13 5 18 2.5t3 -10.5q-9 -36 -66 -76q-56 -39 -112 -39q-109 0 -109 86q0 66 64 154q59 81 149 161q-50 -16 -88 -16q-76 0 -119 62.5t-43 154.5q0 89 21.5 174.5t56.5 132.5q-201 -244 -440 -397q-120 -75 -273 -90q-72 -8 -129 22
q-147 62 -147 299q0 239 156 518q85 152 180 261q-137 64 -205 141q-49 55 -49 133q0 76 31 98q21 26 36 11q7 -17 4.5 -29t-8.5 -34t-6 -34q0 -58 61.5 -124.5t172.5 -118.5q483 534 999 534q160 0 256 -72t96 -188q0 -124 -139 -242q-67 -58 -199 -106q-195 -70 -469 -70
q-271 0 -448 58q-211 -300 -285 -488q-78 -197 -78 -299q0 -29 2 -41q24 -170 172 -170q169 0 385 180q160 135 306 312q155 187 221 317q73 137 131 137zM1677 1348q0 89 -73 135q-71 47 -199 47q-126 0 -254 -41q-122 -39 -236 -121q-105 -76 -189 -158.5t-187 -205.5
q155 -50 376 -50q418 0 613 136q149 104 149 258z" />
    <glyph glyph-name="aogonek" unicode="&#x105;" horiz-adv-x="716" 
d="M571 49q37 0 97 72q88 112 166 272q9 18 18 21q16 6 16 -13q0 -9 -6 -24q-130 -269 -235 -348q-84 -69 -154 -164q-26 -36 -43 -70t-22.5 -61t-1.5 -47.5t18.5 -31.5t38.5 -11q43 0 104 61q13 5 18 2.5t3 -10.5q-9 -36 -66 -76q-56 -39 -112 -39q-109 0 -109 86
q0 68 70 162q71 94 159 168q-78 9 -96 111q-13 50 17 151q-163 -264 -283 -264q-33 0 -59 20q-62 44 -62 148q0 203 174 407q101 116 242 150q45 10 74 10q94 0 159 -65q20 -23 12 -44t-34 -16q-21 74 -99 74q-87 0 -217 -139q-71 -80 -137 -193q-31 -52 -50 -98.5
t-25 -81.5t-3 -61t16.5 -39t33.5 -13q122 0 321 377q39 77 66 104t67 27q3 0 23.5 -3.5t37 -5t31.5 0.5q-37 -37 -104 -168q-66 -127 -82 -194q-15 -63 -12.5 -103.5t30.5 -40.5z" />
    <glyph glyph-name="Cacute" unicode="&#x106;" horiz-adv-x="1454" 
d="M1079 760q-468 0 -637 278q-29 -31 -72 -139t-73 -248q-37 -167 -37 -315q0 -145 70 -270q71 -123 221 -170q109 -33 201 -33q287 0 485 119q118 69 188 161q71 92 148 252q11 24 23 19q14 -5 2 -36q0 -1 -1 -3q-78 -159 -145 -250q-64 -91 -180 -172
q-232 -160 -496 -160q-161 0 -307 64q-143 60 -229.5 188.5t-100.5 286.5q-16 148 15 342q21 134 84 268q63 135 149 221q-65 196 -8 367q5 12 16 18.5t19 -0.5q5 -9 3 -17t-4.5 -38t-4 -63t4.5 -90t21 -121q157 162 377 239q165 58 344 58q46 0 111 -7q322 -27 424 -200
q82 -140 -17 -289q-106 -167 -358 -232q-115 -28 -236 -28zM481 1090q144 -289 594 -289q267 0 432 133q125 104 125 231q0 163 -178 242q-112 47 -272 47q-158 0 -355 -90q-195 -89 -346 -274zM1640 1688q-10 -23 -151 -86q-140 -64 -152 -64q-20 0 -20 12l-1 2q0 2 0.5 3
t2 3.5t5 5.5t9 7.5t14.5 11.5t21 16q38 28 78 55.5t61.5 42.5t28.5 21q30 23 51 23q58 0 58 -35q0 -3 -5 -18z" />
    <glyph glyph-name="cacute" unicode="&#x107;" horiz-adv-x="532" 
d="M494 471q46 55 62.5 103.5t4.5 75t-45 26.5q-96 0 -219 -176q-34 -46 -76 -146q-37 -87 -37 -164q0 -74 30.5 -117.5t90.5 -43.5q125 0 217 123q51 67 74 108q30 55 68 129q9 18 19.5 22.5t13 -6t-4.5 -30.5q-20 -41 -78 -154q-28 -55 -77 -115q-92 -114 -252 -114
q-109 0 -162 53t-53 133q0 90 43 197q50 116 102 184q119 162 274 162q71 0 107.5 -34t36.5 -85q0 -70 -58 -119q-49 -44 -81 -12zM498 858q-3 0 -8 3.5t-5 8.5q0 7 4 15q2 4 58 47q68 49 119 84q19 14 43.5 31.5t35.5 25.5t24.5 16.5t23.5 11.5t20 3q48 0 63 -20t3 -44
q-9 -24 -185 -104q-179 -78 -196 -78z" />
    <glyph glyph-name="Ccircumflex" unicode="&#x108;" horiz-adv-x="1454" 
d="M1542 1737l68 -197q3 -12 -11 -12q-17 0 -26 12l-86 131l-227 -108q-20 -20 -46 -11q-4 9 -2 11l261 174q66 8 69 0zM1079 760q-468 0 -637 278q-29 -31 -72 -139t-73 -248q-37 -167 -37 -315q0 -145 70 -270q71 -123 221 -170q109 -33 201 -33q287 0 485 119
q118 69 188 161q71 92 148 252q11 24 23 19q14 -5 2 -36q0 -1 -1 -3q-78 -159 -145 -250q-64 -91 -180 -172q-232 -160 -496 -160q-161 0 -307 64q-143 60 -229.5 188.5t-100.5 286.5q-16 148 15 342q21 134 84 268q63 135 149 221q-65 196 -8 367q9 22 27 22q10 -1 11 -14
t-2.5 -42t-6 -65t3 -93.5t22.5 -118.5q157 162 377 239q165 58 344 58q46 0 111 -7q322 -27 424 -200q82 -140 -17 -289q-106 -167 -358 -232q-115 -28 -236 -28zM481 1090q144 -289 594 -289q267 0 432 133q125 104 125 231q0 163 -178 242q-112 47 -272 47
q-158 0 -355 -90q-195 -89 -346 -274z" />
    <glyph glyph-name="ccircumflex" unicode="&#x109;" horiz-adv-x="532" 
d="M494 471q46 55 62.5 103.5t4.5 75t-45 26.5q-96 0 -219 -176q-34 -46 -76 -146q-37 -87 -37 -164q0 -74 30.5 -117.5t90.5 -43.5q125 0 217 123q51 67 74 108q30 55 68 129q9 18 19.5 22.5t13 -6t-4.5 -30.5q-20 -41 -78 -154q-28 -55 -77 -115q-92 -114 -252 -114
q-109 0 -162 53t-53 133q0 90 43 197q50 116 102 184q119 162 274 162q71 0 107.5 -34t36.5 -85q0 -70 -58 -119q-49 -44 -81 -12zM584 973l-271 -146q-31 -21 -52 -10q-11 6 -1 9q1 1 2 1l305 217q75 9 78 0l74 -217q11 -3 1 -9q-18 -12 -40 7l-2 2z" />
    <glyph glyph-name="Cdotaccent" unicode="&#x10a;" horiz-adv-x="1454" 
d="M1495 1741q49 0 49 -62q0 -27 -31 -63q-31 -32 -72.5 -31t-41.5 41q0 32 31 74q35 41 65 41zM1079 760q-468 0 -637 278q-29 -31 -72 -139t-73 -248q-37 -167 -37 -315q0 -145 70 -270q71 -123 221 -170q109 -33 201 -33q287 0 485 119q118 69 188 161q71 92 148 252
q11 24 23 19q14 -5 2 -36q0 -1 -1 -3q-78 -159 -145 -250q-64 -91 -180 -172q-232 -160 -496 -160q-161 0 -307 64q-143 60 -229.5 188.5t-100.5 286.5q-16 148 15 342q21 134 84 268q63 135 149 221q-65 196 -8 367q9 22 27 22q10 -1 11 -14t-2.5 -42t-6 -65t3 -93.5
t22.5 -118.5q157 162 377 239q165 58 344 58q46 0 111 -7q322 -27 424 -200q82 -140 -17 -289q-106 -167 -358 -232q-115 -28 -236 -28zM481 1090q144 -289 594 -289q267 0 432 133q125 104 125 231q0 163 -178 242q-112 47 -272 47q-158 0 -355 -90q-195 -89 -346 -274z
" />
    <glyph glyph-name="cdotaccent" unicode="&#x10b;" horiz-adv-x="532" 
d="M494 471q46 55 62.5 103.5t4.5 75t-45 26.5q-96 0 -219 -176q-34 -46 -76 -146q-37 -87 -37 -164q0 -74 30.5 -117.5t90.5 -43.5q125 0 217 123q51 67 74 108q30 55 68 129q15 33 29 21q5 -5 5 -13q0 -6 -28 -67q-22 -48 -35.5 -75t-39.5 -68t-58 -81q-92 -114 -252 -114
q-109 0 -162 53t-53 133q0 90 43 197q50 116 102 184q119 162 274 162q71 0 107.5 -34t36.5 -85q0 -70 -58 -119q-49 -44 -81 -12zM608 1001q49 0 49 -63q0 -26 -30 -61q-31 -32 -73 -31t-42 41q0 32 31 74q34 40 65 40z" />
    <glyph glyph-name="Ccaron" unicode="&#x10c;" horiz-adv-x="1454" 
d="M1374 1581l271 145q30 21 52 9q9 -5 3 -8q-1 -1 -4 -1l-305 -217q-75 -12 -78 0l-74 217q-7 13 12 13q21 3 29 -13zM1059 700q-467 0 -637 279q-27 -23 -66.5 -121t-72 -249.5t-29.5 -282.5q0 -142 74 -263q73 -119 204 -159q134 -41 220 -41q287 0 485 119
q118 69 188 161q71 92 148 252q11 24 23 19q14 -5 2 -36q0 -1 -1 -3q-78 -159 -145 -250q-64 -91 -180 -172q-232 -160 -496 -160q-161 0 -307 64q-143 60 -231 182t-107 272q-18 151 8 328q17 115 80 250q64 131 148 215q-66 197 -9 366q10 23 27 23q10 -1 11 -14.5
t-2.5 -42t-6 -65t3.5 -94t23 -118.5q160 165 377 238q168 59 344 59q55 0 110 -6q321 -27 424 -201q82 -140 -16 -288q-106 -166 -359 -232q-119 -29 -235 -29zM461 1030q144 -289 594 -289q267 0 432 133q125 104 125 232q0 163 -178 242q-112 47 -273 47q-157 0 -354 -90
q-194 -89 -346 -275z" />
    <glyph glyph-name="ccaron" unicode="&#x10d;" horiz-adv-x="532" 
d="M494 471q46 55 62.5 103.5t4.5 75t-45 26.5q-96 0 -219 -176q-34 -46 -76 -146q-37 -87 -37 -164q0 -74 30.5 -117.5t90.5 -43.5q125 0 217 123q51 67 74 108q30 55 68 129q9 18 19.5 22.5t13 -6t-4.5 -30.5q-20 -41 -78 -154q-28 -55 -77 -115q-92 -114 -252 -114
q-109 0 -162 53t-53 133q0 90 43 197q50 116 102 184q119 162 274 162q71 0 107.5 -34t36.5 -85q0 -70 -58 -119q-49 -44 -81 -12zM608 997l271 146q30 21 52 9q9 -5 3 -8q-1 -1 -4 -1l-305 -217q-75 -9 -78 0l-74 217q-2 2 -2 6t9 5.5t19.5 -1.5t14.5 -10z" />
    <glyph glyph-name="Dcaron" unicode="&#x10e;" horiz-adv-x="2103" 
d="M1362 -70q-347 0 -594 131q-186 -143 -422 -143q-265 0 -326 137q-41 92 35 168t203 76q88 0 186 -33q118 -40 308 -137q96 83 204 242q104 153 177 293q88 162 182 307q107 165 215 276q-233 127 -490 127q-109 0 -215 -20q-325 -65 -489 -262q-96 -116 -96 -218
q0 -145 149 -188q43 -8 69.5 -11t62.5 0t70.5 18.5t72.5 45.5q93 84 96 154q1 15 20 14q19 -2 21 -21q1 -4 0 -9q-21 -139 -158 -209q-136 -71 -274 -27q-159 53 -207 188q-19 52 -19 99q0 107 88 211q183 219 635 280q99 13 183 13q282 0 538 -125q76 83 145 128.5
t109 45.5q31 0 31 -13q-1 -10 -13 -13q-2 -1 -4 -1q-34 0 -90 -68q-55 -68 -90 -126q221 -137 334 -347q92 -170 92 -366q0 -293 -180 -445q-154 -130 -360 -157q-99 -15 -199 -15zM817 94q199 -112 481 -112q327 0 521 170q153 138 153 383q0 174 -74 325q-92 195 -272 326
q-43 -60 -227 -344q-161 -245 -285 -418q-167 -228 -297 -330zM698 90q-216 101 -295 123q-77 25 -135 25q-60 0 -94 -43q-58 -67 -18 -138q47 -80 178 -80q196 0 364 113zM1784 1593l270 136q33 22 53 8q9 -5 0 -8h-2l-305 -201q-75 -9 -78 0l-73 201q-10 1 -1 6
q19 10 42 -6z" />
    <glyph glyph-name="dcaron" unicode="&#x10f;" horiz-adv-x="1341" 
d="M549 119q0 -66 53 -66q97 0 256 322q3 25 24 37q18 11 19 -6q1 -10 -4 -25q-163 -381 -332 -381q-54 0 -88 49q-50 77 -22 187q-120 -197 -205 -224q-41 -18 -94 -4q-101 27 -101 160q0 94 45 199q43 102 131 211q81 100 203 135q115 36 232 -23q138 261 237 486
q46 106 107 106h28q2 0 20.5 -2.5t39.5 -4.5t32 -1q-47 -44 -249 -418q-261 -483 -312 -639q-20 -56 -20 -98zM649 657q-71 71 -209 -45q-140 -116 -227 -282q-59 -112 -59 -183q0 -36 14 -61t41 -25q67 0 168 139t272 457zM1358 1174q0 -86 -59 -147.5t-148 -90.5
q-10 -10 -19 -2q-10 11 13 23q1 0 2 1q64 21 106.5 68t49.5 111q-42 -34 -89.5 -13.5t-37.5 76.5q4 35 33.5 59.5t66.5 24.5t59.5 -32t22.5 -78z" />
    <glyph glyph-name="Dcroat" unicode="&#x110;" horiz-adv-x="2103" 
d="M768 74q-192 -154 -422 -154q-264 0 -326 148q-38 99 33 180q75 84 205 84q91 0 176 -33q82 -28 318 -152q131 125 299 426l-168 -18q-15 -2 -26.5 22.5t-5.5 50t32 25.5q148 0 211 -2q69 139 153 289q79 143 121 203q84 125 162 215q-229 137 -488 137q-101 0 -217 -22
q-316 -67 -483 -277q-102 -126 -102 -242q0 -156 149 -202q57 -13 93.5 -15.5t84 13.5t97.5 57q90 90 96 168q1 17 20 14t21 -23q1 -5 0 -10q-21 -151 -158 -227q-80 -45 -168 -45l-106 18q-154 52 -205 199q-21 55 -21 111q0 110 84 223q180 241 639 309q89 12 178 12
q285 0 543 -135q78 90 146 139.5t110 49.5q29 0 28 -14q0 -10 -12 -14q-2 -1 -4 -1q-34 0 -90 -74q-57 -76 -90 -137q220 -146 334 -373q92 -182 92 -397q0 -267 -127 -424q-106 -130 -254 -182q-177 -64 -352 -64q-351 0 -600 144zM817 111q205 -123 486 -123
q323 0 516 184q153 150 153 414q0 186 -74 354q-92 212 -272 352q-91 -141 -211 -342l-184 -303l102 -2q34 -3 43 -27q-3 -25 -35 -28q-25 0 -151 -4q-214 -338 -373 -475zM698 106q-263 125 -303 138q-68 22 -125 22q-60 0 -96 -45q-58 -73 -18 -149q43 -88 176 -88
q198 0 366 122z" />
    <glyph glyph-name="dslash" unicode="&#x111;" horiz-adv-x="751" 
d="M549 119q0 -66 53 -66q97 0 256 322q3 25 24 37q18 11 19 -6q1 -10 -4 -25q-163 -381 -332 -381q-54 0 -88 49q-50 77 -22 187q-120 -197 -205 -224q-41 -18 -94 -4q-101 27 -101 160q0 94 45 199q43 102 131 211q81 100 203 135q115 36 232 -23l133 262l-127 -14
q-15 -2 -26.5 22.5t-5.5 50t32 25.5q119 0 166 -2l65 142q46 106 107 106h28q2 0 20.5 -2.5t39.5 -4.5t32 -1q-32 -32 -153 -242q114 -4 145 -4q34 -3 43 -27q-3 -25 -35 -28q-102 0 -190 -6q-391 -705 -391 -848zM649 657q-71 71 -209 -45q-140 -116 -227 -282
q-59 -112 -59 -183q0 -36 14 -61t41 -25q67 0 168 139t272 457z" />
    <glyph glyph-name="Emacron" unicode="&#x112;" horiz-adv-x="1794" 
d="M1319 1741h436l-24 -62h-439zM1012 666l-219 2q-273 0 -422 -131q-178 -150 -178 -353q0 -212 200 -303q111 -51 307 -51q197 0 410 82q216 83 363 197q167 130 167 229q0 48 -49 57q-48 12 -51 27q-3 19 31 16q38 -3 57 -14q92 -50 92 -127q0 -114 -159 -240
q-152 -123 -400 -198q-245 -74 -452 -74q-208 0 -342 41q-230 70 -301 264q-17 55 -20 96t17.5 109t73.5 154q51 85 163.5 158.5t236 112.5t221.5 38q-105 39 -175.5 105t-70.5 138q0 130 106 236q192 195 553 256q109 16 170 16q254 0 361 -94q67 -58 67 -125
q0 -94 -106 -178q-105 -83 -254 -117q-19 -4 -34 -6t-26 -2t-17 3t-5 9q9 25 70 31q63 9 119 51q116 84 131 213v15q0 50 -50 94q-63 57 -213 57q-341 0 -567 -174q-153 -117 -153 -266q-4 -46 18.5 -84.5t63.5 -65t90 -44t106 -27.5q158 -35 158 -86q0 -47 -88 -47z" />
    <glyph glyph-name="emacron" unicode="&#x113;" horiz-adv-x="503" 
d="M207 315q-29 -76 -29 -155q0 -58 25.5 -91.5t72.5 -33.5q188 0 338 350q14 32 35 29q11 -6 2 -31q-83 -182 -133 -248q-104 -143 -258 -143q-84 0 -140.5 54t-56.5 144q0 140 99 300t239 219q100 43 170 -4q35 -27 35 -64q0 -121 -147 -235q-54 -40 -127 -64
q-82 -27 -125 -27zM551 643q0 41 -33 41q-57 0 -174 -141q-71 -86 -123 -193q39 0 105 25.5t112 64.5q113 94 113 203zM319 979h437l-25 -61h-438z" />
    <glyph glyph-name="Edotaccent" unicode="&#x116;" horiz-adv-x="1794" 
d="M1012 668l-219 2q-273 0 -422 -131q-178 -150 -178 -353q0 -212 200 -303q111 -51 307 -51q197 0 410 82q216 83 363 197q167 130 167 229q0 48 -49 57q-48 12 -51 27q-3 19 31 16q38 -3 57 -14q92 -50 92 -127q0 -114 -159 -240q-152 -123 -400 -198q-245 -74 -452 -74
q-208 0 -342 41q-230 70 -301 264q-17 55 -20 96t17.5 109t73.5 154q51 85 163.5 158.5t236 112.5t221.5 38q-105 39 -175.5 105.5t-70.5 138.5q0 129 106 235q192 195 553 256q109 16 170 16q254 0 361 -94q67 -58 67 -125q0 -94 -106 -178q-105 -83 -254 -117
q-19 -4 -34 -6t-26 -2t-17 3t-5 9q9 25 70 31q61 9 119 49q116 84 131 217v13q0 50 -50 94q-63 57 -213 57q-340 0 -567 -172q-153 -120 -153 -268q-5 -60 36 -108t103.5 -74t138.5 -37q158 -35 158 -88q0 -47 -88 -47zM1565 1741q49 0 49 -62q0 -27 -31 -63
q-31 -32 -73 -31t-42 41q0 32 31 74q35 41 66 41z" />
    <glyph glyph-name="edotaccent" unicode="&#x117;" horiz-adv-x="503" 
d="M207 315q-29 -76 -29 -155q0 -58 25.5 -91.5t72.5 -33.5q188 0 338 350q14 32 35 29q8 -3 8 -11q0 -5 -47 -108q-48 -101 -92 -160q-104 -143 -258 -143q-84 0 -140.5 54t-56.5 144q0 140 99 300t239 219q100 43 170 -4q35 -27 35 -64q0 -121 -147 -235q-54 -40 -127 -64
q-82 -27 -125 -27zM551 643q0 41 -33 41q-57 0 -174 -141q-71 -86 -123 -193q39 0 105 25.5t112 64.5q113 94 113 203zM602 1049q49 0 49 -62q0 -28 -30 -63q-31 -32 -73 -31t-42 41q0 32 31 74q35 41 65 41z" />
    <glyph glyph-name="Eogonek" unicode="&#x118;" horiz-adv-x="1794" 
d="M1008 768l-220 2q-272 0 -421 -131q-179 -150 -179 -352q0 -212 201 -303q113 -52 307 -52q197 0 410 82q214 82 362 197q168 131 168 229q0 49 -49 58q-48 12 -51 26q-3 20 31 17q36 -3 57 -15q92 -50 92 -127q0 -114 -151 -235q-152 -118 -369 -190.5t-451 -84.5
q-82 -65 -165 -168q-48 -64 -65.5 -117.5t-4.5 -83.5t53 -30q44 0 105 61q13 5 17.5 2.5t2.5 -10.5q-9 -36 -65 -75t-115 -39q-107 0 -107 86q0 77 97 194q90 108 192 178h-26q-168 0 -302 41q-230 70 -301 265q-13 41 -17 72t0.5 73.5t26.5 95t62 117.5q51 85 163.5 158.5
t236 112.5t221.5 38q-107 38 -176.5 104.5t-69.5 139.5v12q15 166 186 297q173 132 361 182q186 52 325 52q16 0 84 -5q170 -21 244 -86t74 -129q0 -93 -107 -178q-104 -81 -254 -116q-19 -4 -34 -6t-26 -2t-17 3t-5 9q9 24 70 30q59 9 119 50q116 84 131 217v12
q0 51 -49 94q-60 57 -207 57q-156 0 -310 -48.5t-278 -149.5q-156 -126 -156 -277q-4 -46 18.5 -84.5t64 -65t90.5 -44t106 -27.5q158 -35 158 -86q0 -47 -88 -47z" />
    <glyph glyph-name="eogonek" unicode="&#x119;" horiz-adv-x="503" 
d="M207 315q-29 -76 -29 -155q0 -58 25.5 -91.5t72.5 -33.5q188 0 338 350q14 32 35 29q17 -3 2 -29l-22 -49l-23 -51q-14 -31 -53 -101q-34 -56 -66 -88q-53 -53 -81 -67q-89 -76 -150 -160q-26 -36 -42.5 -69.5t-21.5 -60t-1 -47t18.5 -31.5t38.5 -11q43 0 104 61
q13 5 18 2.5t3 -10.5q-9 -36 -66 -76q-56 -39 -114 -39q-107 0 -107 86q0 69 68 158q72 94 153 164q-36 -4 -47 -4q-84 0 -140.5 54t-56.5 144q0 140 99 300t239 219q100 43 170 -4q35 -27 35 -64q0 -121 -147 -235q-54 -40 -127 -64q-82 -27 -125 -27zM551 643q0 41 -33 41
q-57 0 -174 -141q-71 -86 -123 -193q39 0 105 25.5t112 64.5q113 94 113 203z" />
    <glyph glyph-name="Ecaron" unicode="&#x11a;" horiz-adv-x="1794" 
d="M1006 635l-220 2q-272 0 -421 -131q-179 -150 -179 -352q0 -213 201 -304q111 -51 307 -51q197 0 410 82q214 82 362 197q168 131 168 229q0 49 -49 58q-48 12 -51 26q-3 20 31 17q36 -3 57 -15q92 -50 92 -127q0 -112 -160 -239q-155 -125 -399 -199q-245 -74 -453 -74
t-342 41q-233 71 -303 264q-15 56 -17.5 96.5t18 109t73.5 153.5q51 85 163.5 158.5t236 112.5t221.5 38q-105 39 -175.5 105.5t-70.5 138.5v12q15 169 182 293q168 125 352 172q176 45 316 45q235 0 342 -94q67 -58 67 -125q0 -94 -106 -178q-105 -83 -254 -117
q-19 -4 -34 -6t-26 -2t-17 3t-5 9q9 25 70 31q62 9 118 51q116 84 131 213v14q0 51 -49 94q-64 58 -256 58t-395 -101q-245 -120 -280 -309q-17 -87 30 -153q33 -45 95.5 -70t150.5 -41q156 -35 156 -88q0 -47 -88 -47zM1477 1608l245 112q30 17 48 6q8 -5 -1 -6l-278 -168
q-70 -10 -70 0l-67 168q-4 8 9 10q20 4 28 -10z" />
    <glyph glyph-name="ecaron" unicode="&#x11b;" horiz-adv-x="503" 
d="M207 315q-29 -76 -29 -155q0 -58 25.5 -91.5t72.5 -33.5q188 0 338 350q14 32 35 29q11 -6 2 -31q-83 -182 -133 -248q-104 -143 -258 -143q-84 0 -140.5 54t-56.5 144q0 140 99 300t239 219q100 43 170 -4q35 -27 35 -64q0 -121 -147 -235q-54 -40 -127 -64
q-82 -27 -125 -27zM551 643q0 41 -33 41q-57 0 -174 -141q-71 -86 -123 -193q39 0 105 25.5t112 64.5q113 94 113 203zM569 954l271 146q30 21 52 9q9 -5 3 -8q-1 -1 -4 -1l-305 -217q-78 -13 -78 0l-74 217q-2 2 -2 6t9 5.5t19.5 -1.5t14.5 -10z" />
    <glyph glyph-name="Gcircumflex" unicode="&#x11c;" horiz-adv-x="1486" 
d="M1477 1737l59 -174q3 -8 -8 -11q-18 -3 -25 11l-76 116q-184 -103 -215 -116q-15 -15 -38 -9q-6 6 -3 9l244 174q62 9 62 0zM268 932q-118 133 -118.5 276.5t112.5 276.5q21 28 33 16q6 -9 -10 -31q-80 -115 -80 -229q0 -136 94 -252q3 8 39 74q138 240 399 360
q203 93 381 93q58 0 111 -9q241 -41 313 -200q69 -150 -39 -303q-127 -188 -420 -250q-119 -25 -237 -25q-124 0 -250.5 35.5t-212.5 97.5q-104 -229 -104 -422q0 -288 202 -352q140 -38 289 0q147 40 264 117t148 149q83 191 176 191q48 0 63 -53q8 -18 4 -46
q-20 -155 -85 -309.5t-193 -365.5q252 -3 448 -54q43 -9 43 -28q0 -23 -59 -8q-135 36 -408 36h-53q-123 -177 -334 -317q-206 -138 -403 -191q-195 -53 -311 -10q-150 55 -150 146q0 29 14 57q55 123 291 227q169 75 361.5 106t457.5 36q153 260 207 503l9 35
q-101 -96 -224 -168q-131 -75 -215 -100q-253 -83 -409 -21q-123 41 -187.5 163t-64.5 288q0 221 108 461zM1163 1456q-162 0 -346 -100q-273 -147 -411 -445q90 -72 198 -98q153 -40 289 -25q321 34 491 213q105 108 105 216q0 193 -252 233q-34 6 -74 6zM25 -670
q0 -57 98 -78q31 -8 72 -8q143 0 368 105q283 129 449 366q-221 -6 -377 -32q-232 -34 -445 -170q-165 -107 -165 -183z" />
    <glyph glyph-name="gcircumflex" unicode="&#x11d;" horiz-adv-x="802" 
d="M-25 -647q-192 0 -192 158q0 130 178 235q154 91 387 166q115 37 158 55q53 157 53 340q0 31 -4 55q-61 -122 -158 -239q-121 -149 -235 -115q-107 46 -107 176q0 175 176 387q96 116 226 146q38 10 69 10q93 0 181 -61q30 -24 32.5 -44.5t-12.5 -37.5q-8 -12 -17 -8
t-15.5 12.5t-10.5 17.5q-27 76 -86 76q-107 0 -244 -152q-75 -83 -131 -184q-123 -224 -26 -278q18 -7 28 -7q47 0 117 64q74 68 131 164q65 109 78 155q11 38 30.5 58.5t36.5 23.5t36.5 5.5t27.5 9.5q44 -235 -27 -498q53 39 91 75t61 68t36 55t27.5 54.5t24.5 48.5l25 55
q4 8 12 13t15 2.5t7 -13.5q0 -9 -6 -24q-88 -187 -151 -271q-57 -81 -164 -131q-49 -138 -144 -276q-90 -135 -233 -242q-140 -104 -281 -104zM-174 -528q0 -78 100 -78q56 0 129 32.5t129 73.5q81 66 185 201q77 109 116 207l-71 -25q-320 -111 -451 -196
q-98 -67 -127 -162q-10 -33 -10 -53zM637 942l-270 -145q-31 -22 -53 -10q-11 6 -1 9q1 1 2 1l306 217q74 12 77 0l74 -217q11 -3 1 -9q-18 -12 -40 7l-2 2z" />
    <glyph glyph-name="Gbreve" unicode="&#x11e;" horiz-adv-x="1486" 
d="M1362 1579q-43 0 -94 23q-54 28 -54 98q0 41 27 41q11 0 14 -17q11 -31 27 -47q44 -41 109 -41q64 0 94.5 17.5t68.5 68.5q10 12 19.5 13.5t14 -4t3.5 -11.5q-67 -141 -229 -141zM268 932q-118 133 -118.5 276.5t112.5 276.5q21 28 33 16q6 -9 -10 -31q-80 -115 -80 -229
q0 -136 94 -252q3 8 39 74q144 245 389 377q191 102 369 102q56 0 100 -8q239 -41 320 -205q71 -153 -23 -311q-114 -193 -391 -260q-170 -48 -378.5 -20t-340.5 124q-104 -229 -104 -422q0 -288 202 -352q140 -38 289 0q147 40 264 117t148 149q83 191 176 191q48 0 63 -53
q8 -18 4 -46q-20 -155 -85 -309.5t-193 -365.5q252 -3 448 -54q43 -9 43 -28q0 -23 -59 -8q-135 36 -408 36h-53q-123 -177 -334 -317q-206 -138 -403 -191q-195 -53 -311 -10q-150 55 -150 146q0 29 14 57q55 123 291 227q169 75 361.5 106t457.5 36q153 260 207 503l9 35
q-101 -96 -224 -168q-131 -75 -215 -100q-253 -83 -409 -21q-123 41 -187.5 163t-64.5 288q0 221 108 461zM1143 1481q-157 0 -338 -111q-263 -165 -399 -459q90 -72 198 -98q122 -29 180 -29q391 0 586 222q96 110 96 217q0 34 -8 61q-41 159 -254 193q-40 4 -61 4z
M25 -670q0 -57 98 -78q31 -8 72 -8q143 0 368 105q283 129 449 366q-221 -6 -377 -32q-232 -34 -445 -170q-165 -107 -165 -183z" />
    <glyph glyph-name="gbreve" unicode="&#x11f;" horiz-adv-x="802" 
d="M-25 -647q-192 0 -192 158q0 130 178 235q154 91 387 166q115 37 158 55q53 157 53 340q0 31 -4 55q-61 -122 -158 -239q-121 -149 -235 -115q-107 46 -107 176q0 175 176 387q96 116 226 146q38 10 69 10q93 0 181 -61q30 -24 32.5 -44.5t-12.5 -37.5q-8 -12 -17 -8
t-15.5 12.5t-10.5 17.5q-27 76 -86 76q-107 0 -244 -152q-75 -83 -131 -184q-123 -224 -26 -278q18 -7 28 -7q47 0 117 64q74 68 131 164q65 109 78 155q11 38 30.5 58.5t36.5 23.5t36.5 5.5t27.5 9.5q44 -235 -27 -498q53 39 91 75t61 68t36 55t27.5 54.5t24.5 48.5l25 55
q4 8 12 13t15 2.5t7 -13.5q0 -9 -6 -24q-88 -187 -151 -271q-57 -81 -164 -131q-49 -138 -144 -276q-90 -135 -233 -242q-140 -104 -281 -104zM-174 -528q0 -78 100 -78q56 0 129 32.5t129 73.5q81 66 185 201q77 109 116 207l-71 -25q-320 -111 -451 -196
q-98 -67 -127 -162q-10 -33 -10 -53zM889 1102q0 -62 -111 -133q-48 -30 -103 -41t-102.5 -4.5t-85.5 26.5q-69 34 -69 121q0 51 35 51q7 0 13 -13.5t16 -34t22 -32.5q51 -51 125 -51q65 0 108 17q38 17 57 33.5t50 58.5q21 27 41 12q4 -4 4 -10z" />
    <glyph glyph-name="Gdotaccent" unicode="&#x120;" horiz-adv-x="1486" 
d="M268 932q-118 133 -118.5 276.5t112.5 276.5q21 28 33 16q6 -9 -10 -31q-80 -115 -80 -229q0 -136 94 -252q3 8 39 74q144 245 389 377q191 102 369 102q56 0 100 -8q239 -41 320 -205q71 -153 -23 -311q-114 -193 -391 -260q-170 -48 -378.5 -20t-340.5 124
q-104 -229 -104 -422q0 -288 202 -352q140 -38 289 0q147 40 264 117t148 149q83 191 176 191q48 0 63 -53q8 -18 4 -46q-20 -155 -85 -309.5t-193 -365.5q252 -3 448 -54q43 -9 43 -28q0 -23 -59 -8q-135 36 -408 36h-53q-123 -177 -334 -317q-206 -138 -403 -191
q-195 -53 -311 -10q-150 55 -150 146q0 29 14 57q55 123 291 227q169 75 361.5 106t457.5 36q153 260 207 503l9 35q-101 -96 -224 -168q-131 -75 -215 -100q-253 -83 -409 -21q-123 41 -187.5 163t-64.5 288q0 221 108 461zM1143 1481q-157 0 -338 -111
q-263 -165 -399 -459q90 -72 198 -98q122 -29 180 -29q391 0 586 222q96 110 96 217q0 34 -8 61q-41 159 -254 193q-40 4 -61 4zM25 -670q0 -57 98 -78q31 -8 72 -8q143 0 368 105q283 129 449 366q-221 -6 -377 -32q-232 -34 -445 -170q-165 -107 -165 -183zM1327 1741
q39 0 39 -51q7 -29 -34 -56t-67 -14q-15 7 -16 29q0 27 26.5 59.5t51.5 32.5z" />
    <glyph glyph-name="gdotaccent" unicode="&#x121;" horiz-adv-x="802" 
d="M-25 -647q-192 0 -192 158q0 130 178 235q154 91 387 166q115 37 158 55q53 157 53 340q0 31 -4 55q-61 -122 -158 -239q-121 -149 -235 -115q-107 46 -107 176q0 175 176 387q96 116 226 146q38 10 69 10q93 0 181 -61q30 -24 32.5 -44.5t-12.5 -37.5q-8 -12 -17 -8
t-15.5 12.5t-10.5 17.5q-27 76 -86 76q-107 0 -244 -152q-75 -83 -131 -184q-123 -224 -26 -278q18 -7 28 -7q47 0 117 64q74 68 131 164q65 109 78 155q11 38 30.5 58.5t36.5 23.5t36.5 5.5t27.5 9.5q44 -235 -27 -498q53 39 91 75t61 68t36 55t27.5 54.5t24.5 48.5l25 55
q4 8 12 13t15 2.5t7 -13.5q0 -9 -6 -24q-88 -187 -151 -271q-57 -81 -164 -131q-49 -138 -144 -276q-90 -135 -233 -242q-140 -104 -281 -104zM-174 -528q0 -78 100 -78q56 0 129 32.5t129 73.5q81 66 185 201q77 109 116 207l-71 -25q-320 -111 -451 -196
q-98 -67 -127 -162q-10 -33 -10 -53zM678 1073q49 0 49 -61q0 -28 -31 -64q-31 -32 -72.5 -31t-41.5 41q0 34 30 74q35 41 66 41z" />
    <glyph glyph-name="Gcommaaccent" unicode="&#x122;" horiz-adv-x="1144" 
d="M727 -557q66 0 66 -68q0 -63 -45.5 -112t-108.5 -70q-12 -4 -14 2q-4 11 12 14q101 30 113 127q-55 -32 -82 5q-25 28 -3 65t62 37zM268 1085q-118 133 -118.5 276.5t112.5 276.5q22 28 33 17q6 -9 -10 -31q-80 -115 -80 -229q0 -136 94 -252q3 8 39 74q143 244 389 376
q192 103 369 103q56 0 100 -8q239 -41 320 -205q71 -153 -23 -312q-114 -193 -391 -260q-170 -48 -378.5 -19.5t-340.5 124.5q-104 -229 -104 -422q0 -288 202 -352q140 -41 289 0q150 41 264 116q117 76 148 150q82 190 176 190q48 0 63 -53q7 -17 4 -45
q-20 -155 -85 -310.5t-193 -365.5q256 -3 448 -53q43 -9 43 -29q0 -23 -59 -8q-139 37 -408 37h-53q-123 -177 -334 -317q-211 -142 -403 -193q-201 -48 -311 -8q-150 55 -150 145q0 30 14 58q55 123 291 227q169 75 361 105.5t458 35.5q152 259 207 504l9 35
q-101 -96 -224 -168q-128 -74 -215 -102q-140 -42 -242 -44.5t-167 25.5q-123 41 -187.5 163t-64.5 288q0 220 108 460zM1143 1634q-158 0 -338 -110q-263 -165 -399 -459q90 -72 198 -98q122 -29 180 -29q392 0 586 221q96 110 96 217q0 35 -8 62q-41 158 -254 192
q-40 4 -61 4zM25 -516q0 -57 98 -78q31 -8 72 -8q143 0 368 102q283 132 449 369q-213 -6 -377 -33q-232 -34 -445 -170q-165 -107 -165 -182z" />
    <glyph glyph-name="gcommaaccent" unicode="&#x123;" horiz-adv-x="802" 
d="M-25 -647q-192 0 -192 158q0 130 178 235q154 91 387 166q115 37 158 55q53 157 53 340q0 31 -4 55q-61 -122 -158 -239q-121 -149 -235 -115q-107 46 -107 176q0 175 176 387q96 116 226 146q38 10 69 10q93 0 181 -61q30 -24 32.5 -44.5t-12.5 -37.5q-8 -12 -17 -8
t-15.5 12.5t-10.5 17.5q-27 76 -86 76q-107 0 -244 -152q-75 -83 -131 -184q-123 -224 -26 -278q18 -7 28 -7q47 0 117 64q74 68 131 164q65 109 78 155q11 38 30.5 58.5t36.5 23.5t36.5 5.5t27.5 9.5q44 -235 -27 -498q53 39 91 75t61 68t36 55t27.5 54.5t24.5 48.5l25 55
q4 8 12 13t15 2.5t7 -13.5q0 -9 -6 -24q-88 -187 -151 -271q-57 -81 -164 -131q-49 -138 -144 -276q-90 -135 -233 -242q-140 -104 -281 -104zM-174 -528q0 -78 100 -78q56 0 129 32.5t129 73.5q81 66 185 201q77 109 116 207l-71 -25q-320 -111 -451 -196
q-98 -67 -127 -162q-10 -33 -10 -53zM539 971q0 77 56.5 137.5t135.5 87.5q19 5 19 -6t-17 -14q-127 -44 -139 -160q41 29 81 10.5t34 -70.5q-5 -31 -31.5 -52t-61.5 -21t-56 25t-21 63z" />
    <glyph glyph-name="Hcircumflex" unicode="&#x124;" horiz-adv-x="2828" 
d="M3148 1556q0 -5 -27 -20q-28 -13 -92 -106q-56 -83 -162 -289q-97 -189 -172 -412q123 0 158 12q42 14 43 1q0 -8 -21 -23q-67 -46 -198 -55q-2 -2 -33 -99q-102 -316 -102 -444q1 -51 15 -82t35 -40.5t45 -5t48 22.5q118 86 256 371q11 22 23.5 28t15 -6t-7.5 -36
q-78 -166 -127 -238q-48 -74 -113 -139q-83 -80 -168 -80q-93 0 -131 78q-12 28 -16 54t-3.5 43t4.5 56.5t5 65.5q5 49 28 135l37 123q28 80 41 115l29 78q-112 0 -694 26q-125 -369 -394 -667q-137 -149 -305 -244q-234 -129 -491 -129q-294 0 -494 153q-122 90 -170 243
t-2 333q23 90 109 176q84 81 141 84q20 0 24.5 -5.5t-2.5 -12.5t-18 -11q-62 -27 -127 -116q-86 -121 -86 -277q0 -246 238 -367q145 -71 336 -71q79 0 157 16q695 156 977 899q-51 0 -104 -24q-32 -15 -50 -20t-24.5 -2.5t-7.5 11.5q0 36 49 66q49 34 86 37h80
q142 352 299 663l-152 -14l-159 -14q-66 -6 -152 -21q-98 -17 -149 -35q-162 -51 -254 -133q-116 -110 -166 -270q-21 -64 -21 -139q0 -73 53 -144q51 -69 142 -69q174 0 248 200q19 42 27.5 77t7 55t-5.5 35t-8.5 22.5t-3.5 13t11 10.5q15 3 25 -16q56 -121 -17 -248
q-71 -128 -188 -170q-121 -43 -229 4q-108 46 -160 160q-31 64 -32.5 128.5t18.5 139.5q21 84 79.5 165t141.5 128q175 104 375 133l204 25q70 7 211 14q107 5 183 13q19 37 67 94q29 35 57.5 53t41.5 20.5t32 2.5q76 0 76 -66q0 -62 -84 -106q-82 -43 -158 -43
q-54 -104 -157 -381l-107 -287q138 0 395 -19q259 -16 299 -16q38 114 140 340q107 231 176 334q78 117 141 137q41 15 69 20.5t37 4t9 -6.5zM2818 1737l55 -168q3 -10 -10 -10q-15 3 -20 10l-74 112l-207 -112q-21 -20 -38 -9q-8 5 -3 9l236 168q61 9 61 0zM2286 1581
q-28 0 -103 -100q134 21 131 71q-3 24 -22 27q-2 2 -6 2z" />
    <glyph glyph-name="hcircumflex" unicode="&#x125;" horiz-adv-x="679" 
d="M481 92q0 -57 41 -57q98 0 273 360q12 27 26 21q15 -7 4 -36q-1 -3 -2 -5q-138 -282 -229 -346q-34 -25 -72 -34t-76.5 4.5t-64.5 49.5q-19 29 -19 72q0 47 21 112q21 66 113 213q22 39 22 58q0 22 -35 22q-33 0 -133 -92q-151 -138 -287 -405q-15 -31 -75 -31
q-55 -3 -70 -12q408 846 563 1128q39 73 69 101t71 28q4 0 41.5 -4.5t50.5 -3.5q-65 -68 -221 -352q-188 -343 -304 -584q94 119 172 188q77 68 189 127q112 62 162 62q10 0 22 -4q-252 -443 -252 -580zM766 1516l-270 -146q-31 -22 -53 -10q-11 6 -1 9q1 1 2 1l306 217
q77 13 77 0l74 -217q2 -2 2 -8q0 -3 -9 -4t-19.5 2t-14.5 10z" />
    <glyph glyph-name="Hbar" unicode="&#x126;" horiz-adv-x="2828" 
d="M2312 1645q76 0 76 -66q0 -62 -84 -106q-82 -43 -158 -43q-46 -92 -114 -267h729q160 336 262 371q82 29 96 29q19 0 27 -4q4 -1 -0.5 -5t-14.5 -10.5t-12 -7.5q-23 -12 -94 -117q-72 -105 -148 -256h328l-18 -82h-348q-81 -173 -144 -352q123 0 158 12q42 14 43 1
q0 -8 -21 -23q-67 -46 -198 -55q-2 -2 -33 -99q-102 -316 -102 -444q1 -51 15 -82t35 -40.5t45 -5t48 22.5q118 86 256 371q11 22 23.5 28t15 -6t-7.5 -36q-78 -166 -127 -238q-48 -74 -113 -139q-83 -80 -168 -80q-93 0 -131 78q-12 28 -16 54t-3.5 43t4.5 56.5t5 65.5
q5 49 28 135l37 123q28 80 41 115l29 78q-112 0 -694 26q-125 -369 -394 -667q-137 -149 -305 -244q-234 -129 -491 -129q-294 0 -494 153q-122 90 -170 243t-2 333q23 90 109 176q84 81 141 84q20 0 24.5 -5.5t-2.5 -12.5t-18 -11q-62 -27 -127 -116q-86 -121 -86 -277
q0 -246 238 -367q145 -71 336 -71q79 0 157 16q695 156 977 899q-51 0 -104 -24q-32 -15 -50 -20t-24.5 -2.5t-7.5 11.5q0 36 49 66q49 34 86 37h80q69 171 135 319h-405l20 82h424q85 187 125 262l-152 -14l-159 -14q-66 -6 -152 -21q-98 -17 -149 -35q-162 -51 -254 -133
q-116 -110 -166 -270q-21 -64 -21 -139q0 -73 53 -144q51 -69 142 -69q174 0 248 200q19 42 27.5 77t7 55t-5.5 35t-8.5 22.5t-3.5 13t11 10.5q15 3 25 -16q56 -121 -17 -248q-71 -128 -188 -170q-121 -43 -229 4q-108 46 -160 160q-31 64 -32.5 128.5t18.5 139.5
q21 84 79.5 165t141.5 128q175 104 375 133l204 25q70 7 211 14q107 5 183 13q19 37 67 94q29 35 57.5 53t41.5 20.5t32 2.5zM2576 727q39 116 146 354h-721l-119 -319q138 0 395 -19q259 -16 299 -16zM2286 1581q-28 0 -103 -100q134 21 131 71q-3 24 -22 27q-2 2 -6 2z
" />
    <glyph glyph-name="hbar" unicode="&#x127;" horiz-adv-x="679" 
d="M496 446q22 39 22 58q0 22 -35 22q-33 0 -133 -92q-151 -138 -287 -405q-15 -31 -75 -31q-55 -3 -70 -12q333 693 494 999h-158l27 41h151l49 88q39 73 69 101t71 28q4 0 41.5 -4.5t50.5 -3.5q-36 -36 -140 -209h138l-25 -41h-137q-185 -326 -361 -686q94 119 172 188
q77 68 189 127q112 62 162 62q10 0 22 -4q-252 -443 -252 -580q0 -57 41 -57q98 0 273 360q8 18 17 22t14 -2t5 -14q0 -9 -24 -59q-49 -100 -115 -207q-94 -143 -200 -143q-72 0 -111 57q-19 29 -19 72q0 47 21 112q21 66 113 213z" />
    <glyph glyph-name="Itilde" unicode="&#x128;" horiz-adv-x="1902" 
d="M2294 1305l-86 -19q-139 -259 -252 -659q-43 -148 -119 -312q-80 -170 -190 -313q-408 -522 -1043 -522q-292 0 -469 127q-117 86 -158 229q-39 147 27 320q44 113 137 194q96 87 150 90q21 0 24 -6q5 -7 -22 -22q-65 -27 -141 -121q-121 -145 -121 -324q0 -137 88 -235
q109 -121 313 -168q88 -21 137 -21h26h28.5t27.5 0.5t32.5 2t33 4t39.5 6.5t43 10q166 43 325 139q149 93 260.5 203t210.5 252q162 235 242 454q147 386 307 662q-324 -67 -518 -150q-200 -87 -305 -192q-133 -136 -174 -309q-12 -49 -12 -90q0 -83 45 -138t102 -55
q60 0 121 26.5t106 80.5q66 84 66 198q0 56 -16 72q-4 8 4 18q21 30 39 0q57 -111 -13 -243q-71 -133 -200 -181q-64 -24 -142 -24q-75 0 -160 67q-86 68 -86 189q0 36 9 80q117 526 1167 704q13 29 66 96q31 35 59.5 54t44 22.5t35.5 3.5q66 0 69 -57q0 -60 -49 -94
q-54 -32 -108 -49zM2243 1337q139 27 133 78q-3 25 -29 25q-21 0 -104 -103zM2458 1552q-40 0 -113 31q-77 38 -123 35.5t-74 -55.5q-3 -12 -32 -2l-9 6q71 127 160 127q39 0 115 -29q76 -36 123.5 -32.5t77.5 59.5q3 12 30 2l4 -4q-65 -138 -159 -138z" />
    <glyph glyph-name="itilde" unicode="&#x129;" horiz-adv-x="356" 
d="M51 266l178 340q41 78 52 86q13 13 59 13h104l-20 -17q-38 -24 -55 -57q-158 -258 -213 -398q-37 -78 -37 -131q0 -57 65 -57l80 39q83 80 193 309q15 27 27 21q14 -7 -4 -48q-2 -5 -5 -10l-33 -67q-21 -42 -51 -92q-40 -72 -67 -103q-85 -94 -177 -94q-59 0 -93 45.5
t-32 104.5t29 116zM528 786q-39 0 -112 31q-77 38 -123 35.5t-74 -55.5q-3 -12 -33 -2l-8 6q71 127 160 127q39 0 115 -29q76 -36 123 -32.5t77 59.5q3 12 31 2l4 -4q-64 -138 -160 -138z" />
    <glyph glyph-name="Imacron" unicode="&#x12a;" horiz-adv-x="1902" 
d="M2294 1305l-86 -19q-139 -259 -252 -659q-43 -148 -119 -312q-80 -170 -190 -313q-408 -522 -1043 -522q-292 0 -469 127q-117 86 -158 229q-39 147 27 320q44 113 137 194q96 87 150 90q21 0 24 -6q5 -7 -22 -22q-65 -27 -141 -121q-121 -145 -121 -324q0 -137 88 -235
q109 -121 313 -168q88 -21 137 -21h26h28.5t27.5 0.5t32.5 2t33 4t39.5 6.5t43 10q166 43 325 139q149 93 260.5 203t210.5 252q162 235 242 454q147 386 307 662q-324 -67 -518 -150q-200 -87 -305 -192q-133 -136 -174 -309q-12 -49 -12 -90q0 -83 45 -138t102 -55
q60 0 121 26.5t106 80.5q66 84 66 198q0 56 -16 72q-4 8 4 18q21 30 39 0q57 -111 -13 -243q-71 -133 -200 -181q-64 -24 -142 -24q-75 0 -160 67q-86 68 -86 189q0 36 9 80q117 526 1167 704q13 29 66 96q31 35 59.5 54t44 22.5t35.5 3.5q66 0 69 -57q0 -60 -49 -94
q-54 -32 -108 -49zM2243 1337q139 27 133 78q-3 25 -29 25q-21 0 -104 -103zM2157 1692h436l-25 -62h-438z" />
    <glyph glyph-name="imacron" unicode="&#x12b;" horiz-adv-x="356" 
d="M51 266l178 340q41 78 52 86q13 13 59 13h104l-20 -17q-38 -24 -55 -57q-158 -258 -213 -398q-37 -78 -37 -131q0 -57 65 -57l80 39q83 80 193 309q15 27 27 21q14 -7 -4 -48q-2 -5 -5 -10l-33 -67q-21 -42 -51 -92q-40 -72 -67 -103q-85 -94 -177 -94q-59 0 -93 45.5
t-32 104.5t29 116zM246 915h403l-22 -55h-406z" />
    <glyph glyph-name="Iogonek" unicode="&#x12e;" horiz-adv-x="1902" 
d="M2292 1305l-86 -19q-94 -173 -199 -516q-128 -415 -399 -733q-140 -162 -322 -268q-263 -153 -598 -162q-108 -90 -167 -205q-55 -107 -20 -146q15 -17 46 -16q42 0 104 62q13 5 18 2t3 -11q-5 -31 -66 -73q-56 -39 -114 -39q-107 0 -107 84q0 72 76 170q72 93 170 172
q-348 3 -520 190q-101 110 -101 266q0 107 47 234q39 97 131 178q96 87 150 90q20 0 24 -4q6 -9 -22 -24q-64 -27 -141 -119q-121 -145 -121 -326q0 -137 88 -235q109 -121 313 -168q89 -21 137 -21h26h28.5t27.5 0.5t32.5 2t33 4t39.5 6.5t43 10q166 43 325 139
q149 93 261 203.5t210 253.5q163 237 242 452q85 229 135 322l64 113l35 59l24 43q-324 -67 -518 -150q-200 -87 -305 -192q-133 -136 -174 -309q-12 -49 -12 -90q0 -83 45 -138t102 -55q60 0 121 26.5t106 80.5q66 84 66 198q0 55 -17 72q-3 7 5 18q20 29 38 0
q58 -112 -12 -243q-71 -132 -201 -181q-64 -24 -141 -24q-75 0 -160 67q-86 68 -86 189q0 36 9 80q117 526 1167 704q13 29 66 96q31 35 59.5 54t44 22.5t35.5 3.5q66 0 69 -57q0 -60 -49 -94q-54 -32 -108 -49zM2241 1337q139 27 133 78q-3 25 -29 25q-21 0 -104 -103z" />
    <glyph glyph-name="iogonek" unicode="&#x12f;" horiz-adv-x="356" 
d="M199 45q40 0 82 39q75 75 192 309q15 30 29 19q4 -4 4 -15q0 -17 -43 -100l-8.5 -17t-16.5 -31t-20 -36q-22 -40 -60 -94q-76 -94 -141 -113q-83 -72 -156 -166q-45 -60 -61.5 -112t-3.5 -81.5t53 -29.5q44 0 105 61q13 5 17.5 2.5t2.5 -10.5q-9 -37 -65 -76
q-55 -38 -115 -38q-107 0 -107 86q0 76 90 186q86 105 181 172q-58 6 -87.5 47t-29.5 96q0 59 27 123l131 334q15 39 -21 86l113 2q46 0 55.5 -17.5t-12.5 -54.5l-164 -383q-35 -78 -35 -129q0 -59 64 -59zM399 797q-29 -25 -63 -25t-53 23q-22 30 -20.5 56t36.5 64
q29 25 63.5 25.5t53.5 -22.5q24 -28 21.5 -55.5t-38.5 -65.5z" />
    <glyph glyph-name="Idot" unicode="&#x130;" horiz-adv-x="1902" 
d="M2294 1307l-86 -19q-139 -259 -252 -659q-43 -148 -119 -312q-80 -170 -190 -313q-408 -522 -1043 -522q-294 0 -469 129q-117 83 -158 229q-39 144 27 318q44 113 137 194q96 87 150 90q20 0 24 -4q6 -9 -22 -24q-64 -27 -141 -119q-121 -145 -121 -326q0 -137 88 -235
q109 -121 313 -168q88 -21 137 -21h26h28.5t27.5 0.5t32.5 2t33 4t39.5 6.5t43 10q166 43 325 139q149 93 261 203.5t210 253.5q163 237 242 452q147 386 307 662q-314 -65 -518 -152q-195 -82 -305 -192q-133 -133 -174 -307q-12 -49 -12 -90q0 -83 45 -138t102 -55
q60 0 121 26.5t106 80.5q66 84 66 198q0 56 -16 72q-4 8 4 18q21 30 39 0q57 -111 -13 -243q-71 -133 -200 -181q-64 -24 -142 -24q-75 0 -160 67q-86 68 -86 189q0 37 9 80q117 526 1167 704q13 29 66 96q31 35 59.5 54t44 22.5t35.5 3.5q66 0 69 -57q0 -60 -49 -94
q-54 -32 -108 -49zM2243 1339q139 27 133 78q-3 25 -29 25q-21 0 -104 -103zM2273 1741q49 0 49 -62q0 -29 -30 -63q-31 -32 -73 -31t-42 41q0 32 31 74q35 41 65 41z" />
    <glyph glyph-name="dotlessi" unicode="&#x131;" horiz-adv-x="356" 
d="M51 266l178 340q41 78 52 86q13 13 59 13h104l-20 -17q-38 -24 -55 -57q-158 -258 -213 -398q-37 -78 -37 -131q0 -57 65 -57l80 39q83 80 193 309q16 31 28 19q5 -4 6.5 -7.5t-2.5 -17t-16 -37.5l-31 -61q-21 -42 -51 -92q-40 -72 -67 -103q-85 -94 -177 -94
q-59 0 -93 45.5t-32 104.5t29 116z" />
    <glyph glyph-name="Jcircumflex" unicode="&#x134;" horiz-adv-x="2043" 
d="M2429 1313l-88 -17q-163 -285 -303 -733q-56 -178 -156 -401q-104 -230 -205 -387q-188 -297 -469 -432q-331 -162 -665 -162q-169 0 -312 47q-220 73 -303 244q-82 168 19 426q41 96 137 176q97 81 154 84q24 3 24 -8q-3 -10 -26 -21q-66 -27 -146 -117
q-71 -81 -101 -168.5t-30 -152.5q0 -151 80 -240q57 -65 139.5 -113.5t173.5 -66.5q134 -25 221.5 -26.5t145.5 16.5q389 86 692 444q217 254 410 672q81 177 82 180q208 467 376 731q-276 -45 -579 -205q-147 -78 -256 -202q-137 -155 -137 -334q0 -91 44 -147t99 -56
q57 0 117 24.5t106 77.5q78 90 78 205q0 52 -14 66q-25 16 -4 31q22 13 47 -15q51 -111 -25 -244q-77 -129 -209 -176q-59 -20 -116 -20q-92 0 -166 59q-95 77 -95 209q0 168 119 320q86 109 204 184.5t284 140.5q251 95 538 135q25 42 74 97q30 34 59 51.5t42.5 19.5
t33.5 2q72 0 72 -59q-1 -52 -40.5 -82t-125.5 -57zM2517 1423q-1 15 -10 21.5t-23 1.5q-13 -4 -30.5 -20t-43.5 -44t-32 -34q142 24 139 75zM2580 1663l-270 -145q-31 -21 -52 -10q-11 6 -1 9q1 1 2 1l305 217q75 12 78 0l74 -217q2 -2 2 -9q0 -3 -9 -4t-19.5 2.5
t-14.5 10.5z" />
    <glyph glyph-name="jcircumflex" unicode="&#x135;" horiz-adv-x="362" 
d="M104 365l109 235q19 38 -20 86l112 2q46 0 55.5 -17.5t-12.5 -54.5l-164 -383q-65 -148 -127 -270l117 47q30 12 88 60q54 45 90 98q43 62 129 227q13 28 27 21q15 -8 2 -39q-56 -117 -94 -182q-36 -61 -90 -121q-53 -59 -118.5 -95.5t-184.5 -80.5q-158 -288 -320 -422
q-66 -55 -149.5 -89t-169.5 -34q-69 1 -114 22.5t-62 56.5t-13 79t29 92q51 102 192 168q101 48 277 92q175 41 221 55l61 107l148 307q-33 0 -19 33zM-737 -444q-35 -69 -14 -115.5t89 -46.5q118 0 256 123q192 171 281 336q-338 -88 -424 -127q-134 -59 -188 -170z
M389 942l-270 -145q-31 -21 -52 -10q-11 6 -1 9q1 1 2 1l305 217q75 12 78 0l73 -217q11 -3 1 -9q-18 -12 -40 7l-2 2z" />
    <glyph glyph-name="Kcommaaccent" unicode="&#x136;" horiz-adv-x="2443" 
d="M1841 311q-14 81 -16 115q-14 138 12 147h6q58 0 228 84q144 71 376 226q215 146 443 364q235 229 381 451q26 39 45 39q7 0 13.5 -6t6 -22t-13.5 -38q-236 -391 -658 -729q-427 -342 -708 -412q-8 -11 0 -90q2 -37 39 -174q38 -129 84 -235q138 -320 366 -320
q129 0 250 56q123 57 174 159q10 24 26 28q12 4 12 -11q0 -12 -11 -33q-55 -112 -195 -199q-134 -90 -282.5 -87.5t-274.5 106.5q-227 186 -303 581zM2355 1503q-64 -58 -207 -73q-119 -216 -268 -678q-58 -176 -149 -363q-92 -191 -199 -334q-111 -150 -288 -257t-390 -138
q-179 -26 -348 12q-374 85 -483 369q-59 158 -11 346q24 87 103 160q82 72 131 78q26 3 26 -13q0 -10 -12 -16q-43 -18 -119 -107q-90 -113 -90 -274q0 -166 103 -272q123 -129 295 -164q208 -41 325 -6q169 40 313 123q144 79 243.5 171.5t193.5 225.5q92 132 143 229
q62 118 186 400q129 294 234 503l-176 -16q-261 -21 -418 -66q-278 -76 -399 -299q-58 -107 -58 -206q0 -46 17 -105q46 -137 178 -137q168 0 235 174q19 48 27 91.5t6.5 69t-4 44.5t-2.5 27t8 8q15 -3 29 -27q46 -104 -21 -235q-62 -130 -172 -170q-70 -25 -127 -25
q-101 0 -184 74q-111 99 -111 256q0 224 209 374q192 143 557 183q88 10 252 20q42 3 81 6t66.5 5.5t35.5 3.5q19 37 67 94q29 35 58 53t45 20.5t43 2.5q29 -4 48.5 -26.5t16 -55t-38.5 -60.5zM2331 1565q0 22 -19 22q-23 0 -46.5 -19.5t-80.5 -86.5q61 9 90 24q56 27 56 60
zM1686 -436q0 -77 -57 -138t-136 -88q-18 -4 -18 7t16 14q127 44 139 160q-41 -29 -80.5 -11t-33.5 70q5 31 31 52.5t61 21.5t56.5 -25.5t21.5 -62.5z" />
    <glyph glyph-name="kcommaaccent" unicode="&#x137;" horiz-adv-x="706" 
d="M645 553q0 55 -55 55q-84 0 -191 -94q-104 -88 -178 -195q-29 -57 -51 -149q-31 -148 -6 -170h-129q-32 0 -17 53q12 46 43 119q30 72 66 145l59 127q-173 -322 -217 -364q-20 -17 -20 12q0 2 4 14q81 109 285 512q210 410 301 547q70 101 135 101h2h10l35 -6
q35 -6 51 -3q-77 -59 -209 -264q-123 -188 -204 -345t-111 -249q188 232 334 287q77 23 110 23q90 0 90 -76q0 -22 -10 -55q-26 -74 -119 -142q-90 -62 -194 -71q-42 -96 -15 -193q24 -100 93 -121q20 -4 28 -4q57 0 135 72q65 72 166 280q8 16 15.5 17.5t11.5 -5t4 -12.5
t-13 -38.5t-41.5 -89.5t-62.5 -109q-117 -176 -258 -176q-87 0 -133 49q-67 70 -67 182q0 59 30 117q31 60 72 63h12q71 0 139 56q70 55 70 100zM270 -225q0 -77 -56.5 -138t-135.5 -88q-19 -5 -19 7q0 11 17 14q127 44 139 160q-41 -29 -81 -11t-34 70q5 31 31.5 52.5
t61.5 21.5t56 -25t21 -63z" />
    <glyph glyph-name="kgreenlandic" unicode="&#x138;" horiz-adv-x="706" 
d="M236 387q259 324 456 324q57 0 78 -37q16 -51 -14 -88q-17 -21 -42 -24.5t-34 1.5q-3 37 -57 43q-89 12 -217 -84q-82 -232 -9 -381q47 -92 125 -92q71 0 135 70q70 76 168 280q8 16 15.5 17.5t11.5 -5t4 -12.5t-13 -38.5t-42.5 -89.5t-63.5 -109q-114 -176 -256 -176
q-89 0 -151 50.5t-76 127.5q-20 127 -4 198q-62 -81 -80 -116q-24 -46 -100 -217q-11 -26 -31 -29q-105 -8 -115 -14l299 641q38 77 69.5 106t74.5 29h6l49 -8l-19 -37z" />
    <glyph glyph-name="Lacute" unicode="&#x139;" horiz-adv-x="1527" 
d="M1876 1264q0 -124 -64 -265.5t-180 -263.5q-122 -126 -281 -216t-317 -116q-50 -100 -135 -260q410 -103 672 -305q135 -105 182 -256q33 -117 18.5 -185t-65.5 -93q-7 -2 -18 -6.5t-15.5 -6t-11 -3t-7.5 1t-2 6.5t2 13t8 21.5t13 30.5q17 34 22 83t-3 106t-41 118.5
t-88 110.5q-74 65 -217 129q-141 60 -240 86q-64 15 -270 57q-178 -247 -363 -334q-202 -100 -354 -20q-117 59 -117 174q0 116 154 205q175 102 471 102q101 0 192 -16q36 47 127 233h-22q-128 0 -238.5 42.5t-177.5 115.5q-86 100 -86 219q0 61 31 137q34 78 147 153.5
t272 111.5q60 14 68 -5q4 -10 -14.5 -17.5t-48.5 -12.5q-84 -9 -162 -58q-133 -86 -185 -260q-8 -34 -10.5 -59.5t1 -61.5t22 -75.5t51.5 -83.5q48 -57 127 -78q117 -33 254 -17l172 424q188 469 430 570q59 26 121 26t115 -45t59 -106q2 -16 2 -51zM1790 1272q-3 71 -72 71
q-102 0 -252 -182q-112 -136 -227 -358q-111 -205 -176 -344q180 40 350 162q168 122 273 297q104 174 104 354zM758 63q-214 50 -426 -8q-237 -62 -277 -174q-8 -19 -8 -39q0 -52 57 -86.5t129 -34.5q92 0 209 54q173 84 316 288zM1708 1501q-3 0 -7.5 3.5t-4.5 8.5v3
q-1 3 -0.5 4t4 5.5t10 9.5t18.5 14.5t29 21.5q72 54 207 147q50 35 100 13q38 -16 19 -54q-10 -24 -182 -100q-168 -76 -193 -76z" />
    <glyph glyph-name="lacute" unicode="&#x13a;" horiz-adv-x="434" 
d="M258 39q29 0 58.5 17.5t56 46.5t57.5 76.5t58 95.5t61 116q16 29 31 23q9 -9 4 -23l-27 -57l-29 -62q-10 -22 -33 -64t-40 -63q-70 -82 -103 -104q-46 -28 -92 -38t-81.5 -4t-59.5 24q-24 23 -35.5 47.5t-13 39t0 46t1.5 47.5q6 66 24 127q6 18 11 33.5t9 25.5l3 10
q46 169 133 371q88 197 147 301q59 97 97 139q66 69 127 72q58 6 73 -65q2 -8 2 -31q0 -69 -49 -176q-174 -388 -420 -615q-1 -4 -9 -28.5t-19.5 -59.5t-18.5 -61q-7 -31 -9 -64t4 -66.5t26.5 -55t54.5 -21.5zM637 1200q-20 0 -78 -82q-54 -74 -156 -291q-98 -215 -157 -366
q111 114 207 268q106 171 149 275q31 71 42 118t7.5 62.5t-14.5 15.5zM627 1432q-3 0 -8 3.5t-5 8.5q0 6 4 14q2 4 58 47q68 49 119 84q19 14 43.5 31.5t35.5 25.5t24.5 16.5t23.5 11.5t20 3q48 0 63 -19.5t3 -43.5q-10 -26 -185 -105q-177 -77 -196 -77z" />
    <glyph glyph-name="Lcommaaccent" unicode="&#x13b;" horiz-adv-x="1527" 
d="M1964 1536q0 -174 -117 -365q-114 -190 -319 -331q-203 -139 -420 -176q-137 -274 -180 -353l-43 -69q408 -103 671 -305q137 -106 183 -256q33 -117 18.5 -185.5t-65.5 -93.5q-7 -2 -18 -6.5t-15.5 -6t-11 -3t-7.5 1t-2 6.5t2 13t8 21.5t13 30.5q17 34 22 83t-3.5 106
t-41.5 118.5t-88 110.5q-76 67 -217 127q-141 63 -239 86q-79 21 -271 60q-179 -248 -362 -334q-203 -100 -355 -21q-116 58 -116 174t153 205q175 102 471 102q102 0 193 -16q96 151 215 395h-23q-128 0 -238 43t-177 117q-86 95 -86 217q0 64 30 137q34 78 147.5 153.5
t272.5 111.5q60 14 68 -4q4 -10 -15 -18t-49 -13q-85 -9 -164 -60q-129 -81 -182 -258q-8 -34 -10.5 -59.5t1 -61.5t22 -75.5t51.5 -83.5q48 -57 127 -78q73 -21 142.5 -23t111.5 7l174 421q193 482 440 586q58 27 121 27t116.5 -46t59.5 -108q2 -18 2 -51zM1878 1538
q0 78 -72 78q-104 0 -254 -182q-111 -137 -235 -375q-117 -207 -180 -340q289 65 514 305q227 242 227 514zM743 162q-214 50 -426 -8q-236 -61 -276 -174q-8 -19 -8 -39q0 -52 57 -86.5t129 -34.5q94 0 209 53q171 83 315 289zM836 -285q0 -77 -57 -137.5t-136 -87.5
q-18 -4 -18 6q0 12 16 15q127 44 139 159q-41 -29 -80.5 -10.5t-33.5 70.5q5 31 31 52t61 21t56.5 -25.5t21.5 -62.5z" />
    <glyph glyph-name="lcommaaccent" unicode="&#x13c;" horiz-adv-x="434" 
d="M258 39q29 0 58.5 17.5t56 46.5t57.5 76.5t58 95.5t61 116q16 29 31 23q9 -9 4 -23l-27 -57l-29 -62q-10 -22 -33 -64t-40 -63q-70 -82 -103 -104q-46 -28 -92 -38t-81.5 -4t-59.5 24q-24 23 -35.5 47.5t-13 39t0 46t1.5 47.5q6 66 24 127q6 18 11 33.5t9 25.5l3 10
q46 169 133 371q149 341 244 440q71 74 137 74q48 0 63 -67q2 -8 2 -31q0 -69 -49 -176q-174 -388 -420 -615q-1 -4 -9 -28.5t-19.5 -59.5t-18.5 -61q-7 -31 -9 -64t4 -66.5t26.5 -55t54.5 -21.5zM637 1200q-20 0 -78 -82q-54 -74 -156 -291q-98 -215 -157 -366
q111 114 207 268q106 171 149 275q31 71 42 118t7.5 62.5t-14.5 15.5zM246 -195q0 -77 -57 -137.5t-136 -87.5q-18 -4 -18 6q0 12 16 15q127 44 139 159q-41 -29 -80.5 -10.5t-33.5 70.5q5 31 31 52.5t61 21.5t56.5 -25.5t21.5 -63.5z" />
    <glyph glyph-name="Lcaron" unicode="&#x13d;" horiz-adv-x="1527" 
d="M1821 1741q59 0 59 -74q0 -67 -41.5 -111t-107.5 -65q-12 -6 -13.5 3t11.5 13q100 29 112 127q-21 -14 -44 -14.5t-38 16.5q-24 29 -2 67t64 38zM1772 1253q0 -249 -211 -473q-209 -222 -541 -278l-33 -72q-20 -47 -102 -188q408 -103 671 -305q137 -106 183 -256
q33 -117 18.5 -185.5t-65.5 -93.5q-7 -2 -18 -6.5t-15.5 -6t-11 -3t-7.5 1t-2 6.5t2 13t8 21.5t13 30.5q17 34 22 83t-3.5 106t-41.5 118.5t-88 110.5q-76 67 -217 127q-141 63 -239 86q-79 21 -271 60q-179 -248 -362 -334q-203 -100 -355 -21q-116 58 -116 174t153 205
q175 102 471 102q102 0 193 -16q32 49 57.5 95t45 88t24.5 51h-23q-128 0 -238 42t-177 115q-86 100 -86 219q0 64 30 138q34 78 147 153t273 111q60 14 68 -4q4 -10 -15 -18t-49 -13q-86 -9 -162 -57q-132 -85 -184 -260q-8 -34 -10.5 -60t1 -61.5t22 -75.5t51.5 -84
q48 -57 127 -78q73 -21 142.5 -23t111.5 7l151 352q177 443 399 530q128 52 205 -22q13 -12 23 -24t15.5 -25.5t9 -23t5 -23.5t2 -20t0 -20t-0.5 -16zM1694 1262q0 73 -64 73q-100 0 -244 -190q-101 -135 -190 -311q-65 -103 -147 -277q281 62 462 258q183 201 183 447z
M743 162q-214 50 -426 -8q-236 -61 -276 -174q-8 -19 -8 -39q0 -52 57 -86.5t129 -34.5q94 0 209 53q171 83 315 289z" />
    <glyph glyph-name="lcaron" unicode="&#x13e;" horiz-adv-x="757" 
d="M258 39q29 0 58.5 17.5t56 46.5t57.5 76.5t58 95.5t61 116q16 29 31 23q9 -9 4 -23l-27 -57l-29 -62q-10 -22 -33 -64t-40 -63q-70 -82 -103 -104q-46 -28 -92 -38t-81.5 -4t-59.5 24q-24 23 -35.5 47.5t-13 39t0 46t1.5 47.5q6 66 24 127q6 18 11 33.5t9 25.5l3 10
q46 169 133 371q149 341 244 440q71 74 137 74q48 0 63 -67q2 -8 2 -31q0 -69 -49 -176q-174 -388 -420 -615q-1 -4 -9 -28.5t-19.5 -59.5t-18.5 -61q-7 -31 -9 -64t4 -66.5t26.5 -55t54.5 -21.5zM637 1200q-20 0 -78 -82q-54 -74 -156 -291q-98 -215 -157 -366
q111 114 207 268q106 171 149 275q31 71 42 118t7.5 62.5t-14.5 15.5zM995 1143q0 -86 -59 -147.5t-148 -90.5q-10 -10 -18 -2q-10 10 8 22q3 1 6 3q64 21 106.5 67.5t49.5 110.5q-42 -34 -89.5 -13.5t-37.5 76.5q4 35 33.5 59.5t66.5 24.5t59.5 -32t22.5 -78z" />
    <glyph glyph-name="Ldotaccent" unicode="&#x13f;" horiz-adv-x="1818" 
d="M1288 502q4 35 33 59.5t65 24.5q35 0 55.5 -24.5t14.5 -59.5t-34.5 -59.5t-63.5 -24.5t-55.5 24.5t-14.5 59.5zM1964 1556q0 -178 -117 -372q-117 -198 -319 -340q-200 -142 -420 -180q-137 -274 -180 -353l-43 -69q408 -103 671 -305q137 -106 183 -256
q33 -117 18.5 -185.5t-65.5 -93.5q-7 -2 -18 -6.5t-15.5 -6t-11 -3t-7.5 1t-2 6.5t2 13t8 21.5t13 30.5q17 34 22 83t-3.5 106t-41.5 118.5t-88 110.5q-76 67 -217 127q-141 63 -239 86q-79 21 -271 60q-179 -248 -362 -334q-203 -100 -355 -21q-116 58 -116 174t153 205
q175 102 471 102q102 0 193 -16q96 151 215 395h-23q-128 0 -238 43t-177 117q-86 95 -86 217q0 64 30 137q34 78 147.5 153.5t272.5 111.5q60 14 68 -4q4 -10 -15 -18t-49 -13q-85 -9 -164 -60q-129 -81 -182 -258q-8 -34 -10.5 -59.5t1 -61.5t22 -75.5t51.5 -83.5
q48 -57 127 -78q73 -21 142.5 -23t111.5 7l174 438q180 461 430 569q65 27 127 27q65 0 120.5 -40.5t59.5 -96.5q2 -16 2 -48zM1878 1554q0 78 -72 78q-104 0 -254 -182q-113 -139 -225 -352t-190 -379q287 65 512 311q229 247 229 524zM743 162q-214 50 -426 -8
q-236 -61 -276 -174q-8 -19 -8 -39q0 -52 57 -86.5t129 -34.5q94 0 209 53q171 83 315 289z" />
    <glyph glyph-name="Lslash" unicode="&#x141;" horiz-adv-x="1527" 
d="M625 516l325 -2q39 71 72 143h-23q-128 0 -238 42.5t-177 115.5q-86 100 -86 219q0 64 30 137q34 78 147.5 153.5t272.5 111.5q60 14 68 -4q4 -10 -15 -18t-49 -13q-82 -8 -164 -58q-129 -84 -182 -260q-8 -34 -10.5 -59.5t1 -61.5t22 -75.5t51.5 -83.5q48 -57 127 -78
q73 -21 142.5 -23t111.5 7l174 438q194 477 442 571q141 55 236 -20q15 -11 26 -23t18 -26t11 -22.5t6 -25t2.5 -21.5t0 -24t-0.5 -20q0 -167 -113 -356q-118 -194 -321 -334q-202 -142 -424 -180l-74 -154q65 0 295 -4q34 -3 43 -27q-3 -25 -35 -28q-81 0 -340 -11
l-69 -129l-43 -69q408 -103 671 -305q137 -107 183 -254q33 -119 18.5 -187.5t-65.5 -93.5q-7 -2 -18 -6.5t-15.5 -6t-11 -3t-7.5 1t-2 6.5t2 13t8 21.5t13 30.5q17 34 22 83t-3.5 106t-41.5 118.5t-88 110.5q-76 67 -217 127q-141 63 -239 86q-79 21 -271 60
q-179 -248 -362 -334q-203 -100 -355 -21q-116 58 -116 174q0 117 153 205q177 103 471 103q96 0 193 -17q48 74 102 176q-153 -7 -284 -20q-15 -2 -26.5 22.5t-5.5 50t32 25.5zM1878 1556q0 78 -72 78q-104 0 -254 -182q-113 -139 -225 -352t-190 -379q287 65 512 311
q229 247 229 524zM743 164q-214 50 -426 -8q-236 -61 -276 -174q-8 -19 -8 -39q0 -52 57 -86.5t129 -34.5q94 0 209 53q171 83 315 289z" />
    <glyph glyph-name="lslash" unicode="&#x142;" horiz-adv-x="434" 
d="M258 39q29 0 58.5 17.5t56 46.5t57.5 76.5t58 95.5t61 116q16 29 31 23q9 -9 4 -23l-27 -57l-29 -62q-10 -22 -33 -64t-40 -63q-70 -82 -103 -104q-45 -28 -90 -38.5t-76 -7t-55 16.5q-51 26 -63 121q-5 32 6 92q11 58 37 148l-95 -43q-5 0 -8 -1t-4.5 7t-1.5 13.5v17.5
q0 22 29 32l98 39q112 371 301 684q94 162 203 162q48 0 63 -67q2 -8 2 -31q0 -69 -49 -176q-133 -300 -299 -490l135 49q20 8 23 -8q-3 -18 -25 -31l-196 -79l-58 -56q-1 -4 -9 -28.5t-19.5 -59.5t-18.5 -61q-7 -31 -9 -64t4 -66.5t26.5 -55t54.5 -21.5zM618 1040
q20 49 27.5 87t4.5 55.5t-13 17.5q-22 0 -68 -67q-119 -170 -315 -648q14 3 22 9q204 223 342 546z" />
    <glyph glyph-name="Nacute" unicode="&#x143;" horiz-adv-x="2127" 
d="M2159 1268q0 80 -93 80q-61 0 -141 -41q-390 -190 -713 -787q-164 -300 -297 -602q-24 -53 -104 -53q-50 0 -53 33q-3 3 0 10q94 139 256 498q167 368 225 634q21 88 21 148q0 158 -89 217q-53 35 -127 35q-174 0 -401 -142q-291 -181 -420 -473q-67 -152 -67 -280
q0 -72 20 -131q53 -158 217 -158q200 0 346 168q115 130 115 252q0 114 -109 123q-71 -3 -77 4q-4 5 4 14q16 23 114 23q99 0 129 -88q11 -37 11 -66q0 -85 -68 -194q-110 -180 -303 -244q-89 -29 -186 -29q-103 0 -199 78q-94 79 -121 219q-6 35 -6 76q0 126 65.5 275
t198.5 280q268 265 574 330q133 30 249 10q117 -15 187 -113q51 -71 51 -188q0 -123 -45 -242q-10 -23 -20 -53q-6 -18 -48 -113q-11 -24 -23.5 -51t-18.5 -40t-9 -17l-49 -117l27 41q116 197 284 397q248 303 451 395q110 49 197 53.5t139 -41t55 -138.5q0 -93 -58 -228.5
t-190 -376.5q-144 -261 -215 -427.5t-71 -295.5q0 -52 14 -90q27 -84 100 -84q32 0 88 20.5t66 20.5q24 0 24 -24q0 -23 -34.5 -44.5t-61.5 -21.5q-305 0 -305 258q0 102 33 197q39 115 237 530q208 435 222 543q2 10 2 31zM2300 1731q21 -9 22.5 -24.5t-8.5 -31.5
q-11 -19 -170 -90q-160 -74 -170 -74q-22 0 -22 15q0 2 4 10q13 17 164 121q79 63 114.5 76t65.5 -2z" />
    <glyph glyph-name="nacute" unicode="&#x144;" 
d="M735 672q-252 -443 -252 -578q0 -53 39 -53q106 0 281 354q11 27 25 22q15 -6 6 -34q-2 -3 -3 -6q-112 -225 -184 -303q-47 -52 -99.5 -71t-94.5 -6t-68 52q-20 26 -20 72q0 51 20 112q21 66 113 213q22 39 22 58q0 22 -35 22q-33 0 -133 -92q-145 -133 -284 -405
q-11 -20 -29 -27q-16 -3 -59 -6q-49 -3 -60 -10q31 58 129 268q170 355 225 410q24 24 68 24q3 0 23.5 -3.5t37 -5t31.5 0.5q-74 -39 -248 -385q79 101 174 188q84 75 191 131q112 62 162 62q10 0 22 -4zM541 846q-3 0 -8 3.5t-5 8.5q0 6 4 14q3 5 58 48q68 49 119 84
q19 14 43.5 31.5t35.5 25.5t24.5 16.5t23.5 11.5t20 3q48 0 63 -20t3 -44q-9 -24 -185 -104q-179 -78 -196 -78z" />
    <glyph glyph-name="Ncommaaccent" unicode="&#x145;" horiz-adv-x="2127" 
d="M868 743q0 131 -137 131q-54 0 -59 2q-11 4 2 17q19 25 121 25t137 -91q14 -32 14 -73q0 -86 -65 -201q-111 -185 -306 -262q-103 -41 -223 -41q-125 0 -222.5 84.5t-127.5 232.5q-6 41 -6 84q0 120 65 285q63 159 220 313q296 288 614 355q140 29 272 12
q128 -18 199 -121q57 -77 57 -203q0 -41 -4.5 -81.5t-12.5 -73.5t-15 -56t-15.5 -46t-9.5 -27l-31 -72l-26 -64q-5 -11 -33 -73q-85 -186 -82 -189l63 103q119 183 271 368q268 326 485 426q119 58 211 58q97 0 154 -47t57 -148q0 -100 -62 -245t-204 -404
q-80 -148 -123.5 -232t-93 -194.5t-71 -194.5t-21.5 -157q0 -56 14 -97q27 -94 111 -94q33 0 92.5 22.5t72.5 22.5q25 0 25 -26q0 -24 -37 -47t-65 -23q-328 0 -328 285q0 101 35 211q33 94 256 567q219 464 237 582q4 24 4 34q0 86 -100 86q-71 0 -154 -45
q-318 -151 -612 -587q-171 -252 -391 -728l-84 -180q-27 -59 -115 -59q-52 0 -55 33q-3 6 0 14q94 136 274 537q181 399 244 684q40 192 0 299q-44 110 -145 125q-40 4 -86 4q-68 0 -178 -36t-234 -114q-311 -194 -448 -502q-76 -168 -76 -309q0 -70 18 -135
q67 -169 238 -178q212 0 368 176q127 142 127 278zM1567 -285q0 -77 -57 -137.5t-136 -87.5q-18 -4 -18 6q0 12 16 15q127 44 139 159q-41 -29 -80.5 -10.5t-33.5 70.5q5 31 31 52t61 21t56.5 -25.5t21.5 -62.5z" />
    <glyph glyph-name="ncommaaccent" unicode="&#x146;" 
d="M735 672q-252 -443 -252 -578q0 -53 39 -53q106 0 281 354q18 32 31 19q11 -12 2 -30q-2 -4 -5 -7q-112 -225 -184 -303q-47 -52 -99.5 -71t-94.5 -6t-68 52q-20 26 -20 72q0 51 20 112q21 66 113 213q22 39 22 58q0 22 -35 22q-33 0 -133 -92q-145 -133 -284 -405
q-11 -20 -29 -27q-16 -3 -59 -6q-49 -3 -60 -10q31 58 129 268q170 355 225 410q24 24 68 24q3 0 23.5 -3.5t37 -5t31.5 0.5q-74 -39 -248 -385q79 101 174 188q84 75 191 131q112 62 162 62q10 0 22 -4zM313 -201q0 -77 -56.5 -137.5t-135.5 -87.5q-19 -5 -19 6t17 14
q127 44 139 160q-41 -29 -81 -10.5t-34 70.5q5 31 31.5 52t61.5 21t56 -25t21 -63z" />
    <glyph glyph-name="Ncaron" unicode="&#x147;" horiz-adv-x="2127" 
d="M2103 1573l271 145q30 21 52 9q9 -5 3 -8q-1 -1 -4 -1l-305 -217q-75 -12 -78 0l-74 217q-6 13 12 13q21 3 29 -13zM2159 1268q0 80 -93 80q-61 0 -141 -41q-390 -190 -713 -787q-164 -300 -297 -602q-24 -53 -104 -53q-50 0 -53 33q-3 3 0 10q94 139 256 498
q167 368 225 634q21 88 21 148q0 158 -89 217q-53 35 -127 35q-174 0 -401 -142q-291 -181 -420 -473q-67 -152 -67 -280q0 -72 20 -131q53 -158 217 -158q200 0 346 168q115 130 115 252q0 114 -109 123q-71 -3 -77 4q-4 5 4 14q16 23 114 23q99 0 129 -88q11 -37 11 -66
q0 -85 -68 -194q-110 -180 -303 -244q-89 -29 -186 -29q-103 0 -199 78q-94 79 -121 219q-6 35 -6 76q0 126 65.5 275t198.5 280q268 265 574 330q133 30 249 10q117 -15 187 -113q51 -71 51 -188q0 -123 -45 -242q-10 -23 -20 -53q-6 -18 -48 -113q-11 -24 -23.5 -51
t-18.5 -40t-9 -17l-49 -117l27 41q116 197 284 397q248 303 451 395q110 49 197 53.5t139 -41t55 -138.5q0 -93 -58 -228.5t-190 -376.5q-144 -261 -215 -427.5t-71 -295.5q0 -52 14 -90q27 -84 100 -84q32 0 88 20.5t66 20.5q24 0 24 -24q0 -23 -34.5 -44.5t-61.5 -21.5
q-305 0 -305 258q0 102 33 197q39 115 237 530q208 435 222 543q2 10 2 31z" />
    <glyph glyph-name="ncaron" unicode="&#x148;" 
d="M735 672q-252 -443 -252 -578q0 -53 39 -53q106 0 281 354q11 27 25 22q15 -6 6 -34q-2 -3 -3 -6q-112 -225 -184 -303q-47 -52 -99.5 -71t-94.5 -6t-68 52q-20 26 -20 72q0 51 20 112q21 66 113 213q22 39 22 58q0 22 -35 22q-33 0 -133 -92q-145 -133 -284 -405
q-11 -20 -29 -27q-16 -3 -59 -6q-49 -3 -60 -10q31 58 129 268q170 355 225 410q24 24 68 24q3 0 23.5 -3.5t37 -5t31.5 0.5q-74 -39 -248 -385q79 101 174 188q84 75 191 131q112 62 162 62q10 0 22 -4zM639 954l270 146q31 21 53 9q11 -6 1 -9h-2l-306 -217q-77 -13 -77 0
l-74 217q-2 2 -2 6t9 5.5t19.5 -1.5t14.5 -10z" />
    <glyph glyph-name="Eng" unicode="&#x14a;" horiz-adv-x="2127" 
d="M2081 1466q-69 0 -146 -45q-414 -211 -712 -964q-78 -195 -127 -338q-16 -46 -32 -94.5t-23.5 -70.5t-10.5 -28q-21 -59 -108 -59q-54 0 -60 35q-3 6 0 12q81 142 209 537q131 398 160 684q18 153 -23 272q-53 158 -245 158q-180 0 -408 -152q-284 -190 -389 -500
q-83 -253 -4 -444q83 -177 260 -180q209 0 346 174q96 125 96 246q0 145 -123 163q-19 2 -44.5 0t-41.5 2.5t-6 18.5q16 25 121 25q103 0 150 -93q54 -110 -23 -274q-83 -179 -262 -256q-99 -45 -225 -45q-127 0 -235.5 84.5t-156.5 232.5q-45 151 13 363q49 168 182 319
q134 149 285 238q234 135 460 135q50 0 99 -6q134 -19 216.5 -125t82.5 -279q0 -151 -72 -358l-22 -61l-37 -111q-21 -62 -21 -72q0 -2 3 3q7 12 22 46l26 54q106 199 228 368q229 325 432 426q217 107 360 13q82 -55 82 -189q0 -202 -182 -737q-186 -546 -299 -770
q-289 -561 -696 -631q-205 -33 -363 23q-161 55 -237 198q-75 146 -25 346q22 82 82 148q63 66 102 69q43 3 2 -24q-43 -21 -92 -96q-67 -98 -67 -232q0 -140 75 -227q104 -116 238 -143q162 -39 260 -9q178 47 328 185q107 101 239 344q87 158 160 366q68 187 143 404
q65 188 117 418q53 233 53 366q0 137 -114 137z" />
    <glyph glyph-name="eng" unicode="&#x14b;" 
d="M737 672q-252 -443 -252 -578q0 -53 39 -53q105 0 281 354q19 34 32 18q11 -14 1 -31q-1 -3 -4 -5q-111 -223 -185 -303q-73 -82 -153 -82q-51 0 -84 26l-162 -294q-248 -371 -531 -371q-72 1 -118.5 22.5t-63 56.5t-11.5 78.5t30 92.5q51 102 192 168q101 48 277 92
q175 41 221 55q35 59 65 119l58 117q9 50 24 98q15 46 107 194q22 39 22 58q0 22 -35 22q-33 0 -133 -92q-145 -133 -284 -405q-11 -20 -29 -27q-16 -3 -59 -6q-49 -3 -60 -10q31 58 129 268q170 355 225 410q24 24 68 24q3 0 23.5 -3.5t37 -5t31.5 0.5q-74 -39 -248 -385
q79 101 174 188q84 75 191 131q112 62 162 62q10 0 22 -4zM-406 -444q-34 -69 -13 -115.5t89 -46.5q118 0 256 123q192 171 281 336q-338 -88 -424 -127q-135 -60 -189 -170z" />
    <glyph glyph-name="Omacron" unicode="&#x14c;" horiz-adv-x="1579" 
d="M1102 49q-226 -174 -461 -174q-244 0 -358 182q-77 129 -80 296.5t59 324.5q-143 94 -158 258q-4 40 -4 61q0 246 211 412q226 176 533 176q309 0 508 -172q202 -169 202 -487v-41q206 135 267 258q15 25 33 18q15 -7 8 -26q-3 -8 -11 -15q-119 -189 -305 -307
q-10 -107 -53 -231q-46 -142 -147 -281q-104 -142 -244 -252zM1434 928q0 344 -222 512q-146 110 -344 110q-51 0 -116 -10q-252 -38 -408 -207q-133 -148 -133 -334q0 -161 88 -237q78 166 236 344q168 189 358 233q29 6 50 7.5t61 -7.5t79 -32q24 -13 14 -25
q-9 -10 -38 -2q-19 8 -70 8q-53 0 -143.5 -53t-175.5 -150q-187 -212 -267 -393q130 -59 310 -59q72 0 170 10q298 41 547 176q4 74 4 109zM1417 748q-343 -183 -721 -183q-184 0 -323 56q-64 -165 -64 -287q0 -284 170 -367q181 -84 361 -4q180 82 323 256q144 175 217 383
q29 89 37 146zM934 1741h436l-24 -62h-439z" />
    <glyph glyph-name="omacron" unicode="&#x14d;" 
d="M489 717q150 0 150 -189q0 -88 -45 -184q-60 -136 -172 -242q26 -51 96 -51q56 0 105 55q17 17 32 34.5t26.5 33.5t20.5 29t17.5 28t12.5 22.5t10.5 20.5l7.5 15q9 16 30 63q6 13 15 32q9 21 12.5 25.5t11.5 4.5q21 3 21 -15q0 -2 -4 -14l-13 -29l-18 -41
q-40 -80 -49 -94q-38 -67 -66 -98q-36 -50 -80 -76q-54 -31 -96 -31q-83 0 -131 54q-94 -70 -174 -70q-150 0 -150 188q0 89 45 185q60 140 172 243q113 101 213 101zM512 653q-58 0 -133 -75t-133 -199q-72 -148 -72 -242t72 -94q50 0 114 55q-32 43 -32 101q3 88 71 88
q30 0 45.5 -16.5t14.5 -35.5t-2 -32q34 52 80 145q51 102 51 205q0 100 -76 100zM350 903h436l-24 -61h-438z" />
    <glyph glyph-name="Ohungarumlaut" unicode="&#x150;" horiz-adv-x="1579" 
d="M1196 1475q-7 -1 -10 0t-4.5 6.5t-0.5 16.5t5 32q4 20 11 57.5t11 60.5t4 29q12 53 50 62q6 2 12 2q26 0 26 -23q0 -22 -47 -131q-45 -104 -57 -112zM1069 -55q-223 -174 -459 -174q-245 0 -356 182q-53 87 -71.5 192t-5.5 211.5t54 216.5q-142 93 -157 258q-4 40 -4 62
q0 246 211 412q226 176 532 176q309 0 508 -172q203 -170 203 -488v-41q204 134 266 258q16 27 35 18q15 -8 6 -27q-3 -7 -10 -13q-119 -189 -305 -307q-10 -104 -54 -232q-43 -137 -148.5 -281t-244.5 -251zM1403 823q0 345 -221 512q-147 111 -344 111q-52 0 -117 -10
q-252 -38 -408 -207q-133 -148 -133 -334q0 -162 88 -238q78 166 236 344q170 191 360 234q101 21 189 -33q23 -12 14 -23.5t-39 -2.5q-19 8 -70 8q-53 0 -143.5 -53t-175.5 -150q-185 -210 -266 -393q132 -60 309 -60q74 0 170 13q295 38 547 174q4 74 4 108zM1386 643
q-341 -182 -720 -182q-187 0 -324 55q-63 -163 -63 -287q0 -283 170 -366q184 -85 362 -2q179 80 322 254q144 175 217 383q27 84 36 145zM1374 1442l33 188q12 53 49 62q4 2 12 2q27 0 27 -23q0 -22 -47 -131q-46 -106 -53 -110q-6 -3 -9 -3q-12 0 -12 15z" />
    <glyph glyph-name="ohungarumlaut" unicode="&#x151;" 
d="M489 717q150 0 150 -189q0 -88 -45 -184q-60 -136 -172 -242q26 -51 96 -51q56 0 105 55q17 17 32 34.5t26.5 33.5t20.5 29t17.5 28t12.5 22.5t10.5 20.5l7.5 15q9 16 30 63q6 13 15 32q9 21 12.5 25.5t11.5 4.5q21 3 21 -15q0 -2 -4 -14l-13 -29l-18 -41
q-40 -80 -49 -94q-38 -67 -66 -98q-36 -50 -80 -76q-54 -31 -96 -31q-83 0 -131 54q-94 -70 -174 -70q-150 0 -150 188q0 89 45 185q60 140 172 243q113 101 213 101zM512 653q-58 0 -133 -75t-133 -199q-72 -148 -72 -242t72 -94q50 0 114 55q-32 43 -32 101q3 88 71 88
q30 0 45.5 -16.5t14.5 -35.5t-2 -32q34 52 80 145q51 102 51 205q0 100 -76 100zM408 870l41 228q12 64 59 76q35 7 45 -19q9 -20 -53 -158t-70 -141q-4 -2 -8 -2q-14 0 -14 16zM662 854q-13 0 -14 14t7 58l21 104l14 68q9 64 58 76q32 8 47 -21q6 -17 -56 -156t-69 -141
q-4 -2 -8 -2z" />
    <glyph glyph-name="OE" unicode="&#x152;" horiz-adv-x="3057" 
d="M2224 709l-235 2q-290 0 -441 -142q-157 -145 -157 -340q0 -250 239 -358q125 -55 336 -55q210 0 440 88q235 89 379 209q158 134 158 237q0 55 -59 70q-61 16 -64 31q-2 22 46 11q19 -5 36 -13q111 -55 111 -148q0 -115 -154 -248q-156 -131 -405 -207
q-250 -79 -541 -79q-287 0 -467 116q-180 115 -207 291q-172 -178 -371 -256q-203 -81 -395 -16q-118 38 -190 155q-77 129 -80 296.5t59 324.5q-143 94 -158 258q-4 40 -4 61q0 246 211 412q226 176 533 176q309 0 508 -172q202 -169 202 -487v-41q106 75 134 98
q-31 48 -31 98q0 177 172 318q173 142 369 194q202 54 339 54q17 0 95 -5q173 -19 265.5 -87t92.5 -152q0 -95 -100 -182q-102 -89 -258 -123q-85 -17 -88 2q-2 9 10.5 17.5t38.5 15.5l28 4q59 6 116 52.5t90.5 106.5t29.5 126.5t-57 107.5q-75 63 -232 63q-158 0 -315 -49
q-160 -47 -291 -160q-128 -110 -143 -243l2 2q9 21 30 18t0 -41l-32 -47q9 -62 50.5 -106.5t97 -65.5t118 -38.5t114 -29t84 -33.5t29.5 -55q-9 -36 -88 -36zM1434 928q0 344 -222 512q-146 110 -344 110q-51 0 -116 -10q-252 -38 -408 -207q-133 -148 -133 -334
q0 -161 88 -237q78 166 236 344q168 189 358 233q29 6 50 7.5t61 -7.5t79 -32q24 -13 14 -25q-9 -10 -38 -2q-19 8 -70 8q-53 0 -143.5 -53t-175.5 -150q-187 -212 -267 -393q130 -59 310 -59q72 0 170 10q298 41 547 176q4 74 4 109zM1417 748q-343 -183 -721 -183
q-184 0 -323 56q-64 -165 -64 -287q0 -284 170 -367q198 -97 402 17q210 112 362 344q30 121 115 219q47 110 59 201zM1942 807q-149 53 -228 141q-73 -76 -168 -135q-4 -69 -22 -131q192 113 418 125z" />
    <glyph glyph-name="oe" unicode="&#x153;" horiz-adv-x="925" 
d="M629 315q-29 -76 -29 -155q0 -58 25.5 -91.5t72.5 -33.5q188 0 338 350q14 32 35 29q12 -3 2 -31q-85 -187 -133 -250q-108 -141 -260 -141q-80 0 -135.5 50t-59.5 134q-150 -176 -278 -176q-148 0 -148 188q0 89 45 185q60 140 172 243q113 101 213 101q66 0 104 -41.5
t44 -112.5q75 100 186 148q97 41 170 -6q35 -27 35 -64q0 -122 -149 -235q-54 -40 -127 -64q-80 -27 -123 -27zM973 643q0 41 -33 41q-57 0 -174 -141q-59 -69 -125 -193q40 0 106 25.5t113 64.5q113 94 113 203zM244 43q50 0 120 62.5t128 156.5q20 110 86 217q8 41 8 78
q0 96 -74 96q-58 0 -133 -75t-133 -199q-28 -58 -45.5 -110.5t-23 -93t0 -70.5t22.5 -46t44 -16z" />
    <glyph glyph-name="Racute" unicode="&#x154;" horiz-adv-x="2097" 
d="M1233 643q-45 -93 -94 -184q-32 -60 -103 -164q-58 -89 -137 -178q-229 -242 -516 -242q-253 0 -311 141q-39 93 32 170q71 74 191 74q86 0 176 -33q31 -12 16 -24q-9 -3 -28 0q-154 60 -232 -23q-64 -70 -32 -149q38 -97 180 -97q84 0 168 37q87 36 155.5 92.5
t145.5 159.5q72 95 119.5 171t109.5 188l133 235q65 117 121 211q119 204 221 318q-120 10 -213 10q-252 0 -485 -51q-239 -50 -379 -166q-176 -144 -176 -312q0 -83 58 -142.5t151 -59.5q120 0 196 82q79 85 82 133q3 27 13 24q12 -3 12 -28q-12 -89 -74 -154
q-105 -111 -254 -111q-114 0 -196 76t-82 203q0 190 182 340q182 148 483 192q399 58 725 9q49 55 68 55q13 0 10 -23l-8 -41l188 -36q285 -82 285 -256q0 -119 -149 -232q-177 -130 -457 -176q-95 -13 -174 -16q27 -157 86 -314q102 -270 221 -368q41 -35 90 -35
q154 0 322 356q20 31 33 27q10 -3 -1 -27q-108 -246 -196 -340q-87 -96 -197 -96q-111 0 -213 108q-100 106 -172 310q-66 196 -94 356zM1274 715q26 0 65 2l174 22q221 27 375 172q109 109 109 205q0 130 -172 182l-187 37q-5 -10 -161 -264q-143 -233 -203 -356z
M1704 1511q-2 0 -6 4t-4 9q0 8 2 12q3 6 55 43q190 137 195 141q23 19 50.5 21t43.5 -10q36 -15 18 -52q-10 -23 -172 -96q-162 -72 -182 -72z" />
    <glyph glyph-name="racute" unicode="&#x155;" horiz-adv-x="532" 
d="M393 821q0 -91 -117 -174q150 -5 283 8q4 -8 4 -32q0 -40 -69 -170q-87 -176 -111 -244q-53 -156 16 -156q84 0 254 342q13 25 25 19q14 -7 0 -39l-76 -150q-25 -49 -96 -133q-76 -94 -150 -94q-80 0 -110 96q-19 60 16 154q24 61 76 149q49 82 57 103q6 15 6 30
q0 65 -163 68l-25 -66q-130 -340 -248 -452q-20 -17 -20 12q0 2 4 14q114 150 198 359q83 205 117 393q12 64 58 64q44 0 65 -58q6 -18 6 -43zM414 1024q-3 0 -8 3.5t-5 8.5t5 15q2 5 57 47q68 49 119 84q19 14 43.5 31.5t35.5 25.5t24.5 16.5t23.5 11.5t20 3q48 0 63 -20
t3 -44q-9 -24 -185 -104q-179 -78 -196 -78z" />
    <glyph glyph-name="Rcommaaccent" unicode="&#x156;" horiz-adv-x="2097" 
d="M1305 748q-44 -90 -103 -201q-32 -57 -108 -174q-61 -94 -150 -193q-242 -260 -547 -260q-277 0 -344 150q-45 93 31 180q78 84 209 84q87 0 190 -35q22 -9 22 -19q0 -14 -39 -2q-7 2 -15 5q-47 18 -115 18q-67 0 -115 -51q-47 -53 -47 -107q0 -23 10 -53
q40 -106 193 -106q171 0 297 100q81 63 139 122.5t121 153.5q101 143 180 285q66 115 162 289l129 229q127 216 240 342q-139 11 -230 11q-259 0 -522 -56q-261 -53 -410 -178q-190 -156 -190 -336q0 -90 63 -154.5t164 -64.5q127 0 211 90q85 91 88 144q3 26 12 26
q18 0 15 -31q-15 -97 -80 -165q-113 -119 -274 -119q-123 0 -211 82t-88 219q0 203 196 362q198 163 520 209q427 60 781 10q52 58 73 58q12 0 12.5 -19.5t-10.5 -48.5q151 -24 203 -39q307 -88 307 -278q0 -121 -149 -240q-187 -143 -504 -196q-96 -16 -188 -19
q64 -362 227 -610q56 -86 102 -123t99 -37q73 0 155 82q88 88 193 299q16 31 33 31t2 -31q-119 -264 -211 -367q-90 -100 -213 -100q-118 0 -230 115q-110 116 -184 331q-76 221 -102 386zM2128 1257q0 13 -4 33q-21 114 -182 164q-48 14 -201 39q-47 -81 -180 -297
q-138 -225 -213 -371q47 9 131 15l127 12q231 27 397 182q125 113 125 223zM1157 -221q0 -77 -56.5 -137.5t-135.5 -87.5q-19 -5 -19 6t17 14q127 44 139 160q-41 -29 -81 -11t-34 70q5 31 31 52.5t61 21.5t56.5 -25.5t21.5 -62.5z" />
    <glyph glyph-name="rcommaaccent" unicode="&#x157;" horiz-adv-x="532" 
d="M393 821q0 -91 -117 -174q150 -5 283 8q4 -8 4 -32q0 -40 -69 -170q-87 -176 -111 -244q-53 -156 16 -156q84 0 254 342q8 16 16 19.5t12.5 -2t4.5 -13.5q0 -7 -27 -63q-3 -6 -13 -26.5t-13.5 -28.5t-13.5 -27t-16.5 -30t-18 -29.5t-22.5 -33t-25.5 -33t-30.5 -36.5
q-76 -94 -150 -94q-80 0 -110 96q-19 60 16 154q24 61 76 149q49 82 57 103q6 15 6 30q0 65 -163 68l-25 -66q-130 -340 -248 -452q-20 -17 -20 12q0 2 4 14q114 150 198 359q83 205 117 393q12 64 58 64q44 0 65 -58q6 -18 6 -43zM215 -182q0 -77 -56.5 -138t-135.5 -88
q-19 -5 -19 7q0 11 16 14q128 44 140 160q-41 -29 -81 -11t-34 70q5 31 31 52.5t61 21.5t56.5 -25.5t21.5 -62.5z" />
    <glyph glyph-name="Rcaron" unicode="&#x158;" horiz-adv-x="2097" 
d="M1880 1581l270 145q31 21 53 9q11 -6 1 -9h-2l-306 -217q-77 -13 -77 0l-74 217q-7 13 12 13q21 3 29 -13zM1233 643q-45 -93 -94 -184q-32 -60 -103 -164q-58 -89 -137 -178q-229 -242 -516 -242q-253 0 -311 141q-39 93 32 170q71 74 191 74q86 0 176 -33
q31 -12 16 -24q-9 -3 -28 0q-154 60 -232 -23q-64 -70 -32 -149q38 -97 180 -97q84 0 168 37q87 36 155.5 92.5t145.5 159.5q72 95 119.5 171t109.5 188l133 235q65 117 121 211q119 204 221 318q-120 10 -213 10q-252 0 -485 -51q-239 -50 -379 -166q-176 -144 -176 -312
q0 -83 58 -142.5t151 -59.5q120 0 196 82q79 85 82 133q3 27 13 24q12 -3 12 -28q-12 -89 -74 -154q-105 -111 -254 -111q-114 0 -196 76t-82 203q0 190 182 340q182 148 483 192q399 58 725 9q49 55 68 55q13 0 10 -23l-8 -41l188 -36q285 -82 285 -256q0 -119 -149 -232
q-177 -130 -457 -176q-95 -13 -174 -16q27 -157 86 -314q102 -270 221 -368q41 -35 90 -35q154 0 322 356q20 31 33 27q10 -3 -1 -27q-108 -246 -196 -340q-87 -96 -197 -96q-111 0 -213 108q-100 106 -172 310q-66 196 -94 356zM1274 715q26 0 65 2l174 22q221 27 375 172
q109 109 109 205q0 130 -172 182l-187 37q-5 -10 -161 -264q-143 -233 -203 -356z" />
    <glyph glyph-name="rcaron" unicode="&#x159;" horiz-adv-x="532" 
d="M393 821q0 -91 -117 -174q150 -5 283 8q4 -8 4 -32q0 -40 -69 -170q-87 -176 -111 -244q-53 -156 16 -156q84 0 254 342q13 25 25 19q14 -7 0 -39l-76 -150q-25 -49 -96 -133q-76 -94 -150 -94q-80 0 -110 96q-19 60 16 154q24 61 76 149q49 82 57 103q6 15 6 30
q0 65 -163 68l-25 -66q-130 -340 -248 -452q-20 -17 -20 12q0 2 4 14q114 150 198 359q83 205 117 393q12 64 58 64q44 0 65 -58q6 -18 6 -43zM549 1143l270 145q30 21 52 9q9 -5 3 -8q-1 -1 -4 -1l-305 -217q-75 -12 -78 0l-73 217q-2 2 -2 6t9 5.5t19.5 -1.5t14.5 -10z
" />
    <glyph glyph-name="Sacute" unicode="&#x15a;" horiz-adv-x="1845" 
d="M1806 1225q0 69 -65 131q-89 86 -248 86q-138 0 -283 -53q-139 -49 -206.5 -120t-67.5 -151q0 -119 143 -207q37 -25 219 -108q170 -73 246 -123q209 -129 209 -315q0 -150 -164 -326q-247 -263 -637 -322q-230 -40 -438 -4q-211 34 -362 164q-164 141 -164 361
q0 141 100 307q99 165 250 237q36 14 46 8.5t-26 -38.5q-87 -69 -141 -154q-115 -183 -115 -391q0 -137 78 -244q137 -186 484 -213q27 -2 114 -2q67 0 209 29q138 28 256 90q261 138 332 350q20 61 20 119q0 141 -125 242q-62 50 -264 137q-206 88 -268 131
q-150 99 -150 235q0 108 87.5 203.5t234.5 149.5q165 57 350 57q180 0 283 -47q107 -52 131 -154q4 -28 4 -41q5 -90 -99 -155q-67 -42 -121 -45q-24 0 -22 12q-3 23 50 29q95 9 116 96q4 28 4 39zM1819 1688q-9 -21 -154 -86q-140 -64 -149 -64q-19 0 -19 14v2v1.5t0.5 2.5
t2.5 3.5t6 5t9.5 8t13.5 10.5t19 14l97 70q20 14 43.5 31t32.5 23t20.5 11t23.5 5q58 0 58 -35q0 -4 -4 -16z" />
    <glyph glyph-name="sacute" unicode="&#x15b;" horiz-adv-x="524" 
d="M293 39q36 -4 37 -4q81 0 162 96q38 46 153 268q4 10 14.5 11t14.5 -7q4 -4 0.5 -14.5t-12 -29.5t-11.5 -27q-17 -43 -59 -115q-37 -72 -74 -106l-43 -45q-35 -35 -82 -50q-78 -25 -147 -4q-44 -20 -84 -20q-146 0 -176 114q-19 38 3.5 105t69.5 70q111 211 179 358
q82 174 190 174q31 0 57 -13.5t19 -29.5q-6 -16 -29 -6q-39 18 -67 4q-70 -34 -70 -141q0 -18 2.5 -36t5 -29.5t9 -29t10 -25t13.5 -27.5t13 -27q47 -109 47 -174t-41.5 -131t-103.5 -109zM223 53q90 72 90 226q0 70 -14 174q-18 147 -12 202q-166 -330 -193 -379
q43 0 43 -61q0 -121 86 -162zM70 109q0 -17 2 -27q15 -55 75 -55q28 0 41 8q-76 46 -82 153q-36 -36 -36 -79zM348 934q-3 0 -7.5 3.5t-4.5 8.5q0 7 4 15q2 5 57 47q68 49 119 84q19 13 43.5 31t35.5 26t25 16.5t24 11.5t20 3q48 0 62.5 -20t2.5 -44q-9 -25 -184 -104
q-179 -78 -197 -78z" />
    </font>
</defs>
</svg>
